<svg width="130" height="54" viewBox="0 0 130 54" fill="none" xmlns="http://www.w3.org/2000/svg">
<path d="M68.5004 16.7418C68.5004 18.2121 67.3243 19.3965 65.8644 19.3965C64.4044 19.3965 63.2284 18.2121 63.2284 16.7418C63.2284 15.2716 64.3639 14.0872 65.8644 14.0872C67.3649 14.128 68.5004 15.3124 68.5004 16.7418ZM57.6319 22.092C57.6319 22.337 57.6319 22.7454 57.6319 22.7454C57.6319 22.7454 56.3747 21.1118 53.6981 21.1118C49.2777 21.1118 45.8306 24.5016 45.8306 29.1982C45.8306 33.8541 49.2371 37.2847 53.6981 37.2847C56.4152 37.2847 57.6319 35.6102 57.6319 35.6102V36.3045C57.6319 36.6312 57.8752 36.8763 58.1996 36.8763H61.4845V21.5202C61.4845 21.5202 58.4835 21.5202 58.1996 21.5202C57.8752 21.5202 57.6319 21.8061 57.6319 22.092ZM57.6319 31.9346C57.0236 32.833 55.8069 33.609 54.347 33.609C51.7515 33.609 49.7644 31.9754 49.7644 29.1982C49.7644 26.4211 51.7515 24.7874 54.347 24.7874C55.7664 24.7874 57.0641 25.6043 57.6319 26.4619V31.9346ZM63.9178 21.5202H67.811V36.8763H63.9178V21.5202ZM122.073 21.1118C119.396 21.1118 118.139 22.7454 118.139 22.7454V14.128H114.246V36.8763C114.246 36.8763 117.247 36.8763 117.53 36.8763C117.855 36.8763 118.098 36.5904 118.098 36.3045V35.6102C118.098 35.6102 119.355 37.2847 122.032 37.2847C126.452 37.2847 129.9 33.8541 129.9 29.1982C129.9 24.5424 126.452 21.1118 122.073 21.1118ZM121.424 33.5682C119.923 33.5682 118.747 32.7922 118.139 31.8937V26.4211C118.747 25.6043 120.045 24.7466 121.424 24.7466C124.019 24.7466 126.006 26.3802 126.006 29.1574C126.006 31.9346 124.019 33.5682 121.424 33.5682ZM112.218 27.7688V36.9171H108.325V28.2181C108.325 25.6859 107.514 24.6649 105.324 24.6649C104.148 24.6649 102.931 25.2775 102.16 26.176V36.8763H98.2672V21.5202H101.349C101.674 21.5202 101.917 21.8061 101.917 22.092V22.7454C103.053 21.561 104.553 21.1118 106.054 21.1118C107.757 21.1118 109.176 21.6019 110.312 22.5821C111.691 23.7256 112.218 25.1959 112.218 27.7688ZM88.8181 21.1118C86.1415 21.1118 84.8843 22.7454 84.8843 22.7454V14.128H80.9911V36.8763C80.9911 36.8763 83.9921 36.8763 84.276 36.8763C84.6004 36.8763 84.8438 36.5904 84.8438 36.3045V35.6102C84.8438 35.6102 86.101 37.2847 88.7775 37.2847C93.1979 37.2847 96.6451 33.8541 96.6451 29.1982C96.6856 24.5424 93.2385 21.1118 88.8181 21.1118ZM88.1692 33.5682C86.6687 33.5682 85.4926 32.7922 84.8843 31.8937V26.4211C85.4926 25.6043 86.7904 24.7466 88.1692 24.7466C90.7647 24.7466 92.7518 26.3802 92.7518 29.1574C92.7518 31.9346 90.7647 33.5682 88.1692 33.5682ZM77.6251 21.1118C78.8012 21.1118 79.4095 21.316 79.4095 21.316V24.9508C79.4095 24.9508 76.1652 23.8481 74.1375 26.176V36.9171H70.2442V21.5202C70.2442 21.5202 73.2453 21.5202 73.5291 21.5202C73.8536 21.5202 74.0969 21.8061 74.0969 22.092V22.7454C74.8269 21.8878 76.4085 21.1118 77.6251 21.1118ZM37.1925 35.4877C36.9898 34.9976 36.787 34.4667 36.5842 34.0174C36.2598 33.2823 35.9354 32.588 35.6515 31.9346L35.6109 31.8937C32.8127 25.7676 29.8117 19.5598 26.6484 13.4338L26.5268 13.1887C26.2023 12.5761 25.8779 11.9226 25.5535 11.2692C25.1479 10.5341 24.7424 9.75809 24.0935 9.02296C22.7958 7.38934 20.9303 6.49084 18.9431 6.49084C16.9154 6.49084 15.0905 7.38934 13.7522 8.94128C13.1439 9.67641 12.6978 10.4524 12.2922 11.1875C11.9678 11.841 11.6434 12.4944 11.3189 13.107L11.1973 13.3521C8.0746 19.4782 5.03303 25.6859 2.23479 31.812L2.19423 31.8937C1.91035 32.5472 1.58592 33.2415 1.26148 33.9766C1.05871 34.4258 0.855941 34.9159 0.65317 35.4469C0.125965 36.958 -0.036252 38.3874 0.166519 39.8576C0.612616 42.9207 2.64033 45.4936 5.43857 46.6372C6.49298 47.0864 7.58794 47.2906 8.72346 47.2906C9.0479 47.2906 9.45344 47.2498 9.77787 47.209C11.1162 47.0456 12.495 46.5963 13.8333 45.8204C15.496 44.881 17.0776 43.5333 18.862 41.5729C20.6464 43.5333 22.2686 44.881 23.8908 45.8204C25.229 46.5963 26.6079 47.0456 27.9462 47.209C28.2706 47.2498 28.6762 47.2906 29.0006 47.2906C30.1361 47.2906 31.2716 47.0864 32.2855 46.6372C35.1243 45.4936 37.1114 42.8798 37.5575 39.8576C37.882 38.4282 37.7197 36.9988 37.1925 35.4877ZM18.9026 37.6114C16.7127 34.8342 15.2933 32.2204 14.8066 30.015C14.6038 29.0757 14.5633 28.2589 14.6849 27.5238C14.766 26.8703 15.0094 26.2985 15.3338 25.8085C16.1043 24.7058 17.4021 24.0115 18.9026 24.0115C20.4031 24.0115 21.7414 24.6649 22.4714 25.8085C22.7958 26.2985 23.0391 26.8703 23.1202 27.5238C23.2419 28.2589 23.2013 29.1166 22.9986 30.015C22.5119 32.1796 21.0925 34.7934 18.9026 37.6114ZM35.0837 39.5309C34.7998 41.6546 33.3804 43.4925 31.3933 44.3093C30.42 44.7177 29.3656 44.8402 28.3112 44.7177C27.2973 44.5952 26.2835 44.2684 25.229 43.6558C23.7691 42.839 22.3091 41.5729 20.6059 39.6943C23.2824 36.3862 24.9046 33.364 25.5129 30.6685C25.7968 29.4024 25.8374 28.2589 25.7157 27.197C25.5535 26.176 25.1885 25.2367 24.6207 24.4199C23.3635 22.5821 21.2547 21.5202 18.9026 21.5202C16.5504 21.5202 14.4416 22.6229 13.1844 24.4199C12.6167 25.2367 12.2517 26.176 12.0895 27.197C11.9272 28.2589 11.9678 29.4433 12.2922 30.6685C12.9006 33.364 14.5633 36.427 17.1993 39.7351C15.5366 41.6138 14.0361 42.8798 12.5761 43.6967C11.5217 44.3093 10.5079 44.636 9.49399 44.7585C8.39903 44.881 7.34462 44.7177 6.41187 44.3501C4.42471 43.5333 3.00532 41.6955 2.72144 39.5718C2.59977 38.5507 2.68088 37.5297 3.08642 36.3862C3.20809 35.9778 3.41086 35.5694 3.61363 35.0793C3.89751 34.4258 4.22194 33.7315 4.54638 33.0373L4.58693 32.9556C7.38517 26.8703 10.3862 20.6625 13.5089 14.6181L13.6305 14.3731C13.955 13.7605 14.2794 13.107 14.6038 12.4944C14.9283 11.841 15.2933 11.2284 15.7393 10.6974C16.591 9.71725 17.7265 9.18633 18.9837 9.18633C20.2409 9.18633 21.3764 9.71725 22.228 10.6974C22.6741 11.2284 23.0391 11.841 23.3635 12.4944C23.688 13.107 24.0124 13.7605 24.3368 14.3731L24.4585 14.6181C27.5406 20.7034 30.5416 26.9112 33.3399 32.9964V33.0373C33.6643 33.6907 33.9482 34.4258 34.2726 35.0793C34.4754 35.5694 34.6782 35.9778 34.7998 36.3862C35.1243 37.448 35.2459 38.4691 35.0837 39.5309Z" fill="#A3A3A3"/>
</svg>
