<svg width="158" height="51" viewBox="0 0 158 51" fill="none" xmlns="http://www.w3.org/2000/svg">
<rect width="158" height="51" rx="25.5" fill="white"/>
<path d="M61.6869 37.4661L60.2458 33.7834H54.3689L52.9652 37.4661H51L56.278 24.279H58.3929L63.6709 37.4661H61.6869ZM57.2886 26.1761L55.024 32.0908H59.5907L57.2886 26.1761ZM67.0095 41H65.2689V28.5197H66.972V29.9147C67.2341 29.4435 67.6271 29.0591 68.1512 28.7615C68.6752 28.4639 69.2866 28.3151 69.9853 28.3151C71.283 28.3151 72.2937 28.7553 73.0174 29.6357C73.7535 30.516 74.1216 31.632 74.1216 32.9836C74.1216 34.3476 73.7411 35.4759 72.9799 36.3687C72.2313 37.2615 71.2144 37.7079 69.9292 37.7079C69.2679 37.7079 68.6814 37.5715 68.1699 37.2987C67.6583 37.0259 67.2715 36.6787 67.0095 36.2571V41ZM72.3249 32.9836C72.3249 32.0784 72.0815 31.3344 71.5949 30.7516C71.1208 30.1565 70.4782 29.8589 69.6672 29.8589C68.8686 29.8589 68.2198 30.1565 67.7207 30.7516C67.2341 31.3344 66.9907 32.0784 66.9907 32.9836C66.9907 33.9136 67.2341 34.6761 67.7207 35.2713C68.2198 35.8541 68.8686 36.1455 69.6672 36.1455C70.4657 36.1455 71.1083 35.8541 71.5949 35.2713C72.0815 34.6761 72.3249 33.9136 72.3249 32.9836ZM78.104 41H76.3634V28.5197H78.0665V29.9147C78.3286 29.4435 78.7216 29.0591 79.2457 28.7615C79.7697 28.4639 80.3811 28.3151 81.0798 28.3151C82.3775 28.3151 83.3882 28.7553 84.1119 29.6357C84.848 30.516 85.2161 31.632 85.2161 32.9836C85.2161 34.3476 84.8356 35.4759 84.0744 36.3687C83.3258 37.2615 82.3089 37.7079 81.0237 37.7079C80.3624 37.7079 79.7759 37.5715 79.2644 37.2987C78.7528 37.0259 78.366 36.6787 78.104 36.2571V41ZM83.4194 32.9836C83.4194 32.0784 83.1761 31.3344 82.6894 30.7516C82.2153 30.1565 81.5727 29.8589 80.7617 29.8589C79.9631 29.8589 79.3143 30.1565 78.8152 30.7516C78.3286 31.3344 78.0853 32.0784 78.0853 32.9836C78.0853 33.9136 78.3286 34.6761 78.8152 35.2713C79.3143 35.8541 79.9631 36.1455 80.7617 36.1455C81.5602 36.1455 82.2028 35.8541 82.6894 35.2713C83.1761 34.6761 83.4194 33.9136 83.4194 32.9836ZM100.784 27.2735L99.1371 27.8501C99.0498 27.2797 98.769 26.7651 98.2949 26.3063C97.8208 25.8352 97.1657 25.5996 96.3297 25.5996C95.5935 25.5996 94.9821 25.8104 94.4955 26.2319C94.0084 26.6535 93.7651 27.1743 93.7651 27.7943C93.7651 28.2779 93.9086 28.6871 94.1956 29.0219C94.4955 29.3567 94.9197 29.5861 95.4688 29.7101L97.4527 30.1379C98.5507 30.3734 99.3991 30.8198 99.9981 31.477C100.597 32.1218 100.896 32.9092 100.896 33.8392C100.896 34.9055 100.472 35.8231 99.6237 36.5919C98.7753 37.3607 97.671 37.7451 96.311 37.7451C94.8262 37.7451 93.6591 37.3607 92.8106 36.5919C91.9746 35.8107 91.488 34.8869 91.3507 33.8206L93.1101 33.2626C93.1849 34.0562 93.4969 34.7257 94.0459 35.2713C94.5953 35.8169 95.344 36.0897 96.2923 36.0897C97.1657 36.0897 97.8395 35.8913 98.3136 35.4945C98.7878 35.0977 99.0248 34.5956 99.0248 33.988C99.0248 33.492 98.8564 33.0642 98.5195 32.7046C98.1826 32.3326 97.6897 32.0784 97.0409 31.942L95.1506 31.5328C94.1644 31.322 93.3783 30.9066 92.7919 30.2867C92.2055 29.6667 91.9122 28.8793 91.9122 27.9245C91.9122 26.8829 92.3365 25.9716 93.1849 25.1904C94.0459 24.3968 95.0819 24 96.2923 24C97.6523 24 98.6942 24.3286 99.4179 24.9858C100.142 25.643 100.597 26.4055 100.784 27.2735ZM105.407 25.6926V28.5197H107.354V30.1007H105.407V34.7505C105.407 35.1721 105.501 35.4821 105.688 35.6805C105.887 35.8789 106.212 35.9781 106.661 35.9781C106.923 35.9781 107.154 35.9533 107.354 35.9037V37.3917C107.054 37.5033 106.655 37.5591 106.156 37.5591C105.382 37.5591 104.771 37.3359 104.322 36.8895C103.872 36.4431 103.648 35.8169 103.648 35.0109V30.1007H101.926V28.5197H102.412C102.874 28.5197 103.217 28.3957 103.442 28.1477C103.679 27.8873 103.797 27.5525 103.797 27.1433V25.6926H105.407ZM111.463 35.3457C112.012 35.9037 112.68 36.1827 113.466 36.1827C114.252 36.1827 114.913 35.9037 115.45 35.3457C115.999 34.7753 116.273 33.988 116.273 32.9836C116.273 31.9916 115.999 31.2166 115.45 30.6586C114.913 30.0883 114.252 29.8031 113.466 29.8031C112.68 29.8031 112.012 30.0883 111.463 30.6586C110.927 31.2166 110.658 31.9916 110.658 32.9836C110.658 33.988 110.927 34.7753 111.463 35.3457ZM110.153 29.5985C111.026 28.6933 112.131 28.2407 113.466 28.2407C114.801 28.2407 115.899 28.6933 116.76 29.5985C117.633 30.4912 118.07 31.6196 118.07 32.9836C118.07 34.36 117.639 35.5007 116.778 36.4059C115.918 37.2987 114.813 37.7451 113.466 37.7451C112.118 37.7451 111.014 37.2987 110.153 36.4059C109.292 35.5007 108.862 34.36 108.862 32.9836C108.862 31.6196 109.292 30.4912 110.153 29.5985ZM125.318 28.4267V30.2867C125.056 30.2495 124.801 30.2309 124.551 30.2309C122.904 30.2309 122.08 31.1484 122.08 32.9836V37.4661H120.321V28.5197H122.043V30.0821C122.592 28.9413 123.49 28.3709 124.738 28.3709C124.938 28.3709 125.131 28.3895 125.318 28.4267ZM128.243 32.0722H133.166C133.141 31.4026 132.916 30.857 132.492 30.4354C132.068 30.0015 131.469 29.7845 130.695 29.7845C129.997 29.7845 129.423 30.0139 128.973 30.4726C128.524 30.919 128.281 31.4522 128.243 32.0722ZM133.428 34.3972L134.944 34.9179C134.682 35.7487 134.195 36.4307 133.484 36.9639C132.773 37.4847 131.912 37.7451 130.901 37.7451C129.641 37.7451 128.568 37.3173 127.682 36.4617C126.809 35.5937 126.372 34.4282 126.372 32.965C126.372 31.601 126.796 30.4726 127.645 29.5799C128.493 28.6871 129.504 28.2407 130.677 28.2407C132.037 28.2407 133.097 28.6685 133.858 29.5241C134.619 30.3673 135 31.5018 135 32.9278C135 33.151 134.988 33.337 134.963 33.4858H128.187C128.2 34.2794 128.462 34.9303 128.973 35.4387C129.497 35.9471 130.14 36.2013 130.901 36.2013C132.186 36.2013 133.029 35.5999 133.428 34.3972Z" fill="black"/>
<path d="M51.9804 16.0325V12.9675H52.7689C53.593 12.9675 54.275 13.4614 54.275 14.5034C54.275 15.5453 53.5859 16.0325 52.7618 16.0325H51.9804ZM52.7974 16.8985C54.2324 16.8985 55.2909 16.0189 55.2909 14.5034C55.2909 12.9878 54.2395 12.1015 52.8045 12.1015H51V16.8985H52.7974ZM57.7464 14.4966C57.7464 13.4141 58.5421 12.8999 59.3164 12.8999C60.0979 12.8999 60.8936 13.4141 60.8936 14.4966C60.8936 15.5792 60.0979 16.0934 59.3164 16.0934C58.5421 16.0934 57.7464 15.5792 57.7464 14.4966ZM56.7305 14.5034C56.7305 16.046 57.9524 17 59.3164 17C60.6875 17 61.9095 16.046 61.9095 14.5034C61.9095 12.954 60.6875 12 59.3164 12C57.9524 12 56.7305 12.954 56.7305 14.5034ZM68.2052 15.4168L67.0827 12.1015H66.0668L64.9515 15.4032L64.0279 12.1015H62.9907L64.3902 16.8985H65.4132L66.5641 13.4817L67.715 16.8985H68.7238L70.1162 12.1015H69.1145L68.2052 15.4168ZM75.9654 16.8985V12.1015H74.985V15.2747L72.8892 12.1015H71.6673V16.8985H72.6477V13.4953L74.9353 16.8985H75.9654ZM81.2268 16.8985V16.0054H78.9819V12.1015H78.0015V16.8985H81.2268ZM83.4158 14.4966C83.4158 13.4141 84.2115 12.8999 84.9858 12.8999C85.7673 12.8999 86.5629 13.4141 86.5629 14.4966C86.5629 15.5792 85.7673 16.0934 84.9858 16.0934C84.2115 16.0934 83.4158 15.5792 83.4158 14.4966ZM82.3999 14.5034C82.3999 16.046 83.6218 17 84.9858 17C86.3569 17 87.5788 16.046 87.5788 14.5034C87.5788 12.954 86.3569 12 84.9858 12C83.6218 12 82.3999 12.954 82.3999 14.5034ZM92.4911 16.8985H93.5567L91.6386 12.1015H90.5019L88.5696 16.8985H89.6068L90.026 15.8024H92.072L92.4911 16.8985ZM91.049 13.1367L91.7452 14.9499H90.3528L91.049 13.1367ZM96.069 16.0325V12.9675H96.8575C97.6816 12.9675 98.3636 13.4614 98.3636 14.5034C98.3636 15.5453 97.6745 16.0325 96.8504 16.0325H96.069ZM96.8859 16.8985C98.321 16.8985 99.3795 16.0189 99.3795 14.5034C99.3795 12.9878 98.3281 12.1015 96.8931 12.1015H95.0886V16.8985H96.8859ZM104.479 14.4966C104.479 13.4141 105.274 12.8999 106.049 12.8999C106.83 12.8999 107.626 13.4141 107.626 14.4966C107.626 15.5792 106.83 16.0934 106.049 16.0934C105.274 16.0934 104.479 15.5792 104.479 14.4966ZM103.463 14.5034C103.463 16.046 104.685 17 106.049 17C107.42 17 108.642 16.046 108.642 14.5034C108.642 12.954 107.42 12 106.049 12C104.685 12 103.463 12.954 103.463 14.5034ZM114.677 16.8985V12.1015H113.697V15.2747L111.601 12.1015H110.379V16.8985H111.36V13.4953L113.647 16.8985H114.677ZM123.066 12.9878V12.1015H118.896V12.9878H120.487V16.8985H121.474V12.9878H123.066ZM128.807 16.8985V12.1015H127.819V14.0298H125.624V12.1015H124.644V16.8985H125.624V14.9093H127.819V16.8985H128.807ZM134 16.8985V16.0189H131.826V14.9093H133.794V14.0771H131.826V12.9811H134V12.1015H130.846V16.8985H134Z" fill="black"/>
<path d="M39 32.3929C38.4257 33.6842 38.1516 34.2606 37.4121 35.4015C36.3819 36.9947 34.9282 38.9791 33.127 38.9959C31.527 39.0111 31.1157 37.9386 28.9436 37.9515C26.7715 37.9645 26.3188 39.015 24.7187 38.9998C22.9175 38.9836 21.5413 37.1916 20.5099 35.5973C17.627 31.1414 17.3258 25.9128 19.1038 23.1332C20.3673 21.1566 22.3615 20.0017 24.2357 20.0017C26.1442 20.0017 27.3441 21.064 28.9226 21.064C30.4536 21.064 31.386 20 33.5929 20C35.261 20 37.0285 20.9221 38.2881 22.5152C34.1611 24.8111 34.8321 30.7929 39 32.3929Z" fill="black"/>
<path d="M31.7799 17.0478C32.5724 15.9974 33.1732 14.5157 32.9547 13C31.6603 13.0914 30.1473 13.942 29.2636 15.0504C28.4613 16.0562 27.7987 17.5481 28.0565 18.9983C29.4685 19.044 30.9306 18.1725 31.7799 17.0478Z" fill="black"/>
</svg>
