<svg width="190" height="61" viewBox="0 0 190 61" fill="none" xmlns="http://www.w3.org/2000/svg">
<rect x="0.306152" width="189" height="61" rx="30.5" fill="#202937"/>
<path d="M73.7317 44.5021L72.0042 40.0634H64.96L63.2774 44.5021H60.9219L67.2482 28.608H69.7833L76.1097 44.5021H73.7317ZM68.4597 30.8946L65.7452 38.0234H71.2191L68.4597 30.8946ZM80.1114 48.7615H78.0251V33.7192H80.0666V35.4005C80.3806 34.8326 80.8518 34.3693 81.4799 34.0106C82.1081 33.652 82.8409 33.4726 83.6784 33.4726C85.2339 33.4726 86.4453 34.0032 87.3127 35.0643C88.1951 36.1254 88.6363 37.4704 88.6363 39.0995C88.6363 40.7434 88.1802 42.1034 87.2679 43.1795C86.3705 44.2555 85.1516 44.7935 83.6111 44.7935C82.8185 44.7935 82.1155 44.6291 81.5023 44.3004C80.8892 43.9716 80.4255 43.5531 80.1114 43.045V48.7615ZM86.4827 39.0995C86.4827 38.0085 86.191 37.1118 85.6078 36.4093C85.0394 35.692 84.2692 35.3333 83.2971 35.3333C82.3399 35.3333 81.5622 35.692 80.9639 36.4093C80.3807 37.1118 80.089 38.0085 80.089 39.0995C80.089 40.2203 80.3807 41.1395 80.9639 41.8568C81.5622 42.5592 82.3399 42.9105 83.2971 42.9105C84.2542 42.9105 85.0245 42.5592 85.6078 41.8568C86.191 41.1395 86.4827 40.2203 86.4827 39.0995ZM93.4098 48.7615H91.3234V33.7192H93.3649V35.4005C93.679 34.8326 94.1501 34.3693 94.7782 34.0106C95.4064 33.652 96.1392 33.4726 96.9767 33.4726C98.5322 33.4726 99.7436 34.0032 100.611 35.0643C101.493 36.1254 101.935 37.4704 101.935 39.0995C101.935 40.7434 101.478 42.1034 100.566 43.1795C99.6688 44.2555 98.4499 44.7935 96.9094 44.7935C96.1168 44.7935 95.4139 44.6291 94.8007 44.3004C94.1875 43.9716 93.7238 43.5531 93.4098 43.045V48.7615ZM99.781 39.0995C99.781 38.0085 99.4893 37.1118 98.9061 36.4093C98.3377 35.692 97.5675 35.3333 96.5954 35.3333C95.6382 35.3333 94.8605 35.692 94.2622 36.4093C93.679 37.1118 93.3873 38.0085 93.3873 39.0995C93.3873 40.2203 93.679 41.1395 94.2622 41.8568C94.8605 42.5592 95.6382 42.9105 96.5954 42.9105C97.5526 42.9105 98.3228 42.5592 98.9061 41.8568C99.4893 41.1395 99.781 40.2203 99.781 39.0995ZM120.595 32.2172L118.621 32.9122C118.516 32.2247 118.18 31.6045 117.611 31.0515C117.043 30.4836 116.258 30.1996 115.256 30.1996C114.373 30.1996 113.641 30.4537 113.057 30.9618C112.473 31.47 112.182 32.0977 112.182 32.8449C112.182 33.4278 112.354 33.921 112.698 34.3245C113.057 34.728 113.566 35.0045 114.224 35.1539L116.602 35.6696C117.918 35.9535 118.935 36.4915 119.653 37.2836C120.371 38.0608 120.73 39.0098 120.73 40.1307C120.73 41.4159 120.221 42.5219 119.204 43.4485C118.187 44.3751 116.864 44.8384 115.233 44.8384C113.454 44.8384 112.055 44.3751 111.038 43.4485C110.036 42.5069 109.452 41.3935 109.288 40.1082L111.397 39.4357C111.486 40.3922 111.86 41.1992 112.518 41.8568C113.177 42.5144 114.074 42.8432 115.211 42.8432C116.258 42.8432 117.065 42.6041 117.634 42.1258C118.202 41.6476 118.486 41.0423 118.486 40.31C118.486 39.7122 118.284 39.1966 117.881 38.7632C117.477 38.3148 116.886 38.0085 116.108 37.8441L113.842 37.3509C112.66 37.0968 111.718 36.5961 111.015 35.8489C110.312 35.1016 109.961 34.1526 109.961 33.0019C109.961 31.7465 110.469 30.648 111.486 29.7065C112.518 28.75 113.76 28.2717 115.211 28.2717C116.841 28.2717 118.09 28.6678 118.957 29.4599C119.825 30.252 120.371 31.1711 120.595 32.2172ZM126.136 30.3117V33.7192H128.469V35.6247H126.136V41.2291C126.136 41.7373 126.248 42.1109 126.473 42.35C126.712 42.5891 127.101 42.7087 127.639 42.7087C127.953 42.7087 128.23 42.6788 128.469 42.619V44.4124C128.11 44.5469 127.632 44.6142 127.034 44.6142C126.106 44.6142 125.374 44.3452 124.835 43.8072C124.297 43.2691 124.027 42.5144 124.027 41.543V35.6247H121.964V33.7192H122.547C123.1 33.7192 123.512 33.5698 123.781 33.2709C124.065 32.957 124.207 32.5535 124.207 32.0603V30.3117H126.136ZM133.395 41.9465C134.053 42.619 134.853 42.9553 135.796 42.9553C136.738 42.9553 137.531 42.619 138.174 41.9465C138.832 41.259 139.161 40.31 139.161 39.0995C139.161 37.9038 138.832 36.9698 138.174 36.2972C137.531 35.6098 136.738 35.266 135.796 35.266C134.853 35.266 134.053 35.6098 133.395 36.2972C132.752 36.9698 132.431 37.9038 132.431 39.0995C132.431 40.31 132.752 41.259 133.395 41.9465ZM131.825 35.0194C132.872 33.9285 134.195 33.383 135.796 33.383C137.396 33.383 138.712 33.9285 139.744 35.0194C140.791 36.0955 141.314 37.4555 141.314 39.0995C141.314 40.7584 140.798 42.1333 139.767 43.2243C138.735 44.3004 137.411 44.8384 135.796 44.8384C134.18 44.8384 132.857 44.3004 131.825 43.2243C130.793 42.1333 130.277 40.7584 130.277 39.0995C130.277 37.4555 130.793 36.0955 131.825 35.0194ZM150.003 33.6071V35.8489C149.689 35.8041 149.382 35.7816 149.083 35.7816C147.109 35.7816 146.122 36.8876 146.122 39.0995V44.5021H144.013V33.7192H146.077V35.6023C146.735 34.2274 147.812 33.5399 149.307 33.5399C149.547 33.5399 149.778 33.5623 150.003 33.6071ZM153.509 38.001H159.409C159.379 37.194 159.11 36.5364 158.601 36.0282C158.093 35.5052 157.375 35.2436 156.448 35.2436C155.61 35.2436 154.922 35.5201 154.384 36.0731C153.845 36.6111 153.554 37.2537 153.509 38.001ZM159.723 40.8032L161.54 41.4309C161.226 42.4322 160.643 43.2542 159.79 43.8968C158.938 44.5245 157.906 44.8384 156.695 44.8384C155.184 44.8384 153.898 44.3228 152.836 43.2916C151.789 42.2454 151.266 40.8406 151.266 39.077C151.266 37.4331 151.774 36.0731 152.791 34.997C153.808 33.921 155.019 33.383 156.425 33.383C158.056 33.383 159.327 33.8986 160.239 34.9298C161.151 35.946 161.608 37.3135 161.608 39.0322C161.608 39.3012 161.593 39.5254 161.563 39.7047H153.442C153.457 40.6612 153.771 41.4458 154.384 42.0586C155.012 42.6713 155.782 42.9777 156.695 42.9777C158.235 42.9777 159.245 42.2529 159.723 40.8032Z" fill="white"/>
<path d="M62.569 18.856V14.9873H63.5177C64.509 14.9873 65.3295 15.6108 65.3295 16.9259C65.3295 18.2411 64.5005 18.856 63.5091 18.856H62.569ZM63.5519 19.9491C65.2782 19.9491 66.5516 18.8389 66.5516 16.9259C66.5516 15.013 65.2867 13.8942 63.5604 13.8942H61.3896V19.9491H63.5519ZM69.5055 16.9174C69.5055 15.551 70.4627 14.9019 71.3942 14.9019C72.3343 14.9019 73.2915 15.551 73.2915 16.9174C73.2915 18.2838 72.3343 18.9328 71.3942 18.9328C70.4627 18.9328 69.5055 18.2838 69.5055 16.9174ZM68.2834 16.9259C68.2834 18.8731 69.7533 20.0772 71.3942 20.0772C73.0437 20.0772 74.5136 18.8731 74.5136 16.9259C74.5136 14.9703 73.0437 13.7661 71.3942 13.7661C69.7533 13.7661 68.2834 14.9703 68.2834 16.9259ZM82.0873 18.0788L80.737 13.8942H79.5149L78.1731 18.0618L77.0621 13.8942H75.8144L77.498 19.9491H78.7286L80.1131 15.6364L81.4976 19.9491H82.7112L84.3863 13.8942H83.1812L82.0873 18.0788ZM91.4227 19.9491V13.8942H90.2433V17.8995L87.7222 13.8942H86.2522V19.9491H87.4316V15.6535L90.1835 19.9491H91.4227ZM97.7522 19.9491V18.8218H95.0516V13.8942H93.8722V19.9491H97.7522ZM100.386 16.9174C100.386 15.551 101.343 14.9019 102.274 14.9019C103.214 14.9019 104.171 15.551 104.171 16.9174C104.171 18.2838 103.214 18.9328 102.274 18.9328C101.343 18.9328 100.386 18.2838 100.386 16.9174ZM99.1634 16.9259C99.1634 18.8731 100.633 20.0772 102.274 20.0772C103.924 20.0772 105.394 18.8731 105.394 16.9259C105.394 14.9703 103.924 13.7661 102.274 13.7661C100.633 13.7661 99.1634 14.9703 99.1634 16.9259ZM111.303 19.9491H112.585L110.277 13.8942H108.91L106.585 19.9491H107.833L108.337 18.5656H110.799L111.303 19.9491ZM109.568 15.2008L110.406 17.4896H108.731L109.568 15.2008ZM115.607 18.856V14.9873H116.556C117.547 14.9873 118.368 15.6108 118.368 16.9259C118.368 18.2411 117.539 18.856 116.547 18.856H115.607ZM116.59 19.9491C118.316 19.9491 119.59 18.8389 119.59 16.9259C119.59 15.013 118.325 13.8942 116.599 13.8942H114.428V19.9491H116.59ZM125.724 16.9174C125.724 15.551 126.681 14.9019 127.613 14.9019C128.553 14.9019 129.51 15.551 129.51 16.9174C129.51 18.2838 128.553 18.9328 127.613 18.9328C126.681 18.9328 125.724 18.2838 125.724 16.9174ZM124.502 16.9259C124.502 18.8731 125.972 20.0772 127.613 20.0772C129.262 20.0772 130.732 18.8731 130.732 16.9259C130.732 14.9703 129.262 13.7661 127.613 13.7661C125.972 13.7661 124.502 14.9703 124.502 16.9259ZM137.993 19.9491V13.8942H136.814V17.8995L134.292 13.8942H132.823V19.9491H134.002V15.6535L136.754 19.9491H137.993ZM148.084 15.013V13.8942H143.067V15.013H144.982V19.9491H146.17V15.013H148.084ZM154.99 19.9491V13.8942H153.803V16.3281H151.162V13.8942H149.982V19.9491H151.162V17.4383H153.803V19.9491H154.99ZM161.238 19.9491V18.8389H158.623V17.4383H160.99V16.3879H158.623V15.0044H161.238V13.8942H157.443V19.9491H161.238Z" fill="white"/>
<path d="M46.6747 38.1152C45.9809 39.6504 45.6498 40.3356 44.7565 41.692C43.5119 43.5862 41.7559 45.9454 39.5799 45.9654C37.6471 45.9834 37.1503 44.7084 34.5263 44.7237C31.9024 44.7391 31.3555 45.9881 29.4226 45.97C27.2466 45.9507 25.5841 43.8203 24.3382 41.9248C20.8556 36.6273 20.4917 30.4111 22.6396 27.1066C24.166 24.7566 26.5749 23.3836 28.8391 23.3836C31.1445 23.3836 32.5941 24.6466 34.501 24.6466C36.3504 24.6466 37.4768 23.3816 40.1428 23.3816C42.1579 23.3816 44.2931 24.4778 45.8147 26.3719C40.8291 29.1014 41.6398 36.213 46.6747 38.1152Z" fill="white"/>
<path d="M38.4015 20.0663C39.3702 18.824 40.1046 17.0713 39.8376 15.2786C38.2552 15.3867 36.4057 16.3928 35.3255 17.7038C34.3447 18.8935 33.5347 20.6582 33.8499 22.3734C35.5759 22.4276 37.3632 21.3967 38.4015 20.0663Z" fill="white"/>
</svg>
