<svg width="481" height="343" viewBox="0 0 481 343" fill="none" xmlns="http://www.w3.org/2000/svg">
<g clip-path="url(#clip0_1784_27195)">
<rect y="0.282227" width="481" height="342" rx="12" fill="#FAF6EA"/>
<rect x="96.5" y="43.7822" width="288" height="254" rx="19.5" fill="white"/>
<path d="M141.184 79.2822V68.0822H144.624C146.597 68.0822 148.048 68.5836 148.976 69.5862C149.915 70.5889 150.384 71.9649 150.384 73.7142C150.384 75.4316 149.915 76.7916 148.976 77.7942C148.048 78.7862 146.597 79.2822 144.624 79.2822H141.184ZM142.528 78.1622H144.592C145.68 78.1622 146.544 77.9862 147.184 77.6342C147.835 77.2716 148.299 76.7596 148.576 76.0982C148.853 75.4262 148.992 74.6316 148.992 73.7142C148.992 72.7756 148.853 71.9702 148.576 71.2982C148.299 70.6262 147.835 70.1089 147.184 69.7462C146.544 69.3836 145.68 69.2022 144.592 69.2022H142.528V78.1622ZM154.885 79.4742C154.223 79.4742 153.674 79.3622 153.237 79.1382C152.799 78.9142 152.474 78.6156 152.261 78.2422C152.047 77.8689 151.941 77.4636 151.941 77.0262C151.941 76.2156 152.25 75.5916 152.869 75.1542C153.487 74.7169 154.33 74.4982 155.397 74.4982H157.541V74.4022C157.541 73.7089 157.359 73.1862 156.997 72.8342C156.634 72.4716 156.149 72.2902 155.541 72.2902C155.018 72.2902 154.565 72.4236 154.181 72.6902C153.807 72.9462 153.573 73.3249 153.477 73.8262H152.101C152.154 73.2502 152.346 72.7649 152.677 72.3702C153.018 71.9756 153.439 71.6769 153.941 71.4742C154.442 71.2609 154.975 71.1542 155.541 71.1542C156.65 71.1542 157.482 71.4529 158.037 72.0502C158.602 72.6369 158.885 73.4209 158.885 74.4022V79.2822H157.685L157.605 77.8582C157.381 78.3062 157.05 78.6902 156.613 79.0102C156.186 79.3196 155.61 79.4742 154.885 79.4742ZM155.093 78.3382C155.605 78.3382 156.042 78.2049 156.405 77.9382C156.778 77.6716 157.061 77.3249 157.253 76.8982C157.445 76.4716 157.541 76.0236 157.541 75.5542V75.5382H155.509C154.719 75.5382 154.159 75.6769 153.829 75.9542C153.509 76.2209 153.349 76.5569 153.349 76.9622C153.349 77.3782 153.498 77.7142 153.797 77.9702C154.106 78.2156 154.538 78.3382 155.093 78.3382ZM161.531 82.8022L163.499 78.5142H163.035L159.883 71.3462H161.339L163.963 77.5222L166.747 71.3462H168.139L162.939 82.8022H161.531Z" fill="#B0AB9E"/>
<path d="M210.136 79.2822V68.0822H212.136L215.928 75.5382L219.704 68.0822H221.704V79.2822H220.008V71.0102L216.584 77.6822H215.272L211.832 71.0262V79.2822H210.136ZM227.628 79.4742C226.87 79.4742 226.188 79.3036 225.58 78.9622C224.982 78.6102 224.508 78.1249 224.156 77.5062C223.804 76.8769 223.628 76.1462 223.628 75.3142C223.628 74.4822 223.804 73.7569 224.156 73.1382C224.518 72.5089 225.004 72.0236 225.612 71.6822C226.22 71.3302 226.897 71.1542 227.644 71.1542C228.401 71.1542 229.078 71.3302 229.676 71.6822C230.284 72.0236 230.764 72.5089 231.116 73.1382C231.478 73.7569 231.66 74.4822 231.66 75.3142C231.66 76.1462 231.478 76.8769 231.116 77.5062C230.764 78.1249 230.284 78.6102 229.676 78.9622C229.068 79.3036 228.385 79.4742 227.628 79.4742ZM227.628 78.0182C228.033 78.0182 228.406 77.9169 228.748 77.7142C229.1 77.5116 229.382 77.2129 229.596 76.8182C229.809 76.4129 229.916 75.9116 229.916 75.3142C229.916 74.7169 229.809 74.2209 229.596 73.8262C229.393 73.4209 229.116 73.1169 228.764 72.9142C228.422 72.7116 228.049 72.6102 227.644 72.6102C227.238 72.6102 226.86 72.7116 226.508 72.9142C226.166 73.1169 225.889 73.4209 225.676 73.8262C225.462 74.2209 225.356 74.7169 225.356 75.3142C225.356 75.9116 225.462 76.4129 225.676 76.8182C225.889 77.2129 226.166 77.5116 226.508 77.7142C226.849 77.9169 227.222 78.0182 227.628 78.0182ZM233.494 79.2822V71.3462H234.998L235.126 72.7382C235.371 72.2476 235.729 71.8636 236.198 71.5862C236.678 71.2982 237.227 71.1542 237.846 71.1542C238.806 71.1542 239.558 71.4529 240.102 72.0502C240.657 72.6476 240.934 73.5382 240.934 74.7222V79.2822H239.254V74.8982C239.254 73.3622 238.625 72.5942 237.366 72.5942C236.737 72.5942 236.214 72.8182 235.798 73.2662C235.393 73.7142 235.19 74.3542 235.19 75.1862V79.2822H233.494ZM246.547 79.4742C245.779 79.4742 245.102 79.2929 244.515 78.9302C243.929 78.5676 243.47 78.0716 243.139 77.4422C242.809 76.8129 242.643 76.0982 242.643 75.2982C242.643 74.4982 242.809 73.7889 243.139 73.1702C243.47 72.5409 243.929 72.0502 244.515 71.6982C245.113 71.3356 245.795 71.1542 246.563 71.1542C247.193 71.1542 247.742 71.2769 248.211 71.5222C248.691 71.7676 249.065 72.1142 249.331 72.5622V67.7622H251.027V79.2822H249.507L249.331 78.0502C249.075 78.4236 248.723 78.7542 248.275 79.0422C247.827 79.3302 247.251 79.4742 246.547 79.4742ZM246.851 78.0022C247.577 78.0022 248.169 77.7516 248.627 77.2502C249.097 76.7489 249.331 76.1036 249.331 75.3142C249.331 74.5142 249.097 73.8689 248.627 73.3782C248.169 72.8769 247.577 72.6262 246.851 72.6262C246.126 72.6262 245.529 72.8769 245.059 73.3782C244.59 73.8689 244.355 74.5142 244.355 75.3142C244.355 75.8369 244.462 76.3009 244.675 76.7062C244.889 77.1116 245.182 77.4316 245.555 77.6662C245.939 77.8902 246.371 78.0022 246.851 78.0022ZM255.854 79.4742C255.182 79.4742 254.627 79.3622 254.19 79.1382C253.752 78.9142 253.427 78.6209 253.214 78.2582C253 77.8849 252.894 77.4796 252.894 77.0422C252.894 76.2742 253.192 75.6662 253.79 75.2182C254.387 74.7702 255.24 74.5462 256.35 74.5462H258.43V74.4022C258.43 73.7836 258.259 73.3196 257.918 73.0102C257.587 72.7009 257.155 72.5462 256.622 72.5462C256.152 72.5462 255.742 72.6636 255.39 72.8982C255.048 73.1222 254.84 73.4582 254.766 73.9062H253.07C253.123 73.3302 253.315 72.8396 253.646 72.4342C253.987 72.0182 254.414 71.7036 254.926 71.4902C255.448 71.2662 256.019 71.1542 256.638 71.1542C257.747 71.1542 258.606 71.4476 259.214 72.0342C259.822 72.6102 260.126 73.3996 260.126 74.4022V79.2822H258.654L258.51 77.9222C258.286 78.3596 257.96 78.7276 257.534 79.0262C257.107 79.3249 256.547 79.4742 255.854 79.4742ZM256.19 78.0982C256.648 78.0982 257.032 77.9916 257.342 77.7782C257.662 77.5542 257.907 77.2609 258.078 76.8982C258.259 76.5356 258.371 76.1356 258.414 75.6982H256.526C255.854 75.6982 255.374 75.8156 255.086 76.0502C254.808 76.2849 254.67 76.5782 254.67 76.9302C254.67 77.2929 254.803 77.5809 255.07 77.7942C255.347 77.9969 255.72 78.0982 256.19 78.0982ZM262.781 82.8022L264.685 78.6262H264.221L261.085 71.3462H262.925L265.357 77.2182L267.901 71.3462H269.693L264.573 82.8022H262.781Z" fill="#4D545F"/>
<path d="M143.808 115.282V105.186H140.464V104.082H148.496V105.186H145.152V115.282H143.808ZM150.873 105.586C150.606 105.586 150.382 105.501 150.201 105.33C150.03 105.149 149.945 104.925 149.945 104.658C149.945 104.402 150.03 104.189 150.201 104.018C150.382 103.848 150.606 103.762 150.873 103.762C151.129 103.762 151.348 103.848 151.529 104.018C151.71 104.189 151.801 104.402 151.801 104.658C151.801 104.925 151.71 105.149 151.529 105.33C151.348 105.501 151.129 105.586 150.873 105.586ZM150.201 115.282V107.346H151.545V115.282H150.201ZM153.885 115.282V107.346H155.101L155.197 108.498C155.453 108.072 155.795 107.741 156.221 107.506C156.648 107.272 157.128 107.154 157.661 107.154C158.291 107.154 158.829 107.282 159.277 107.538C159.736 107.794 160.088 108.184 160.333 108.706C160.611 108.226 160.989 107.848 161.469 107.57C161.96 107.293 162.488 107.154 163.053 107.154C164.003 107.154 164.76 107.442 165.325 108.018C165.891 108.584 166.173 109.458 166.173 110.642V115.282H164.845V110.786C164.845 109.965 164.68 109.346 164.349 108.93C164.019 108.514 163.544 108.306 162.925 108.306C162.285 108.306 161.752 108.557 161.325 109.058C160.909 109.549 160.701 110.253 160.701 111.17V115.282H159.357V110.786C159.357 109.965 159.192 109.346 158.861 108.93C158.531 108.514 158.056 108.306 157.437 108.306C156.808 108.306 156.28 108.557 155.853 109.058C155.437 109.549 155.229 110.253 155.229 111.17V115.282H153.885ZM171.766 115.474C171.008 115.474 170.336 115.304 169.75 114.962C169.163 114.61 168.699 114.125 168.358 113.506C168.027 112.888 167.862 112.157 167.862 111.314C167.862 110.482 168.027 109.757 168.358 109.138C168.688 108.509 169.147 108.024 169.734 107.682C170.331 107.33 171.019 107.154 171.798 107.154C172.566 107.154 173.227 107.33 173.782 107.682C174.347 108.024 174.779 108.477 175.078 109.042C175.376 109.608 175.526 110.216 175.526 110.866C175.526 110.984 175.52 111.101 175.51 111.218C175.51 111.336 175.51 111.469 175.51 111.618H169.19C169.222 112.226 169.36 112.733 169.606 113.138C169.862 113.533 170.176 113.832 170.55 114.034C170.934 114.237 171.339 114.338 171.766 114.338C172.32 114.338 172.784 114.21 173.158 113.954C173.531 113.698 173.803 113.352 173.974 112.914H175.302C175.088 113.65 174.678 114.264 174.07 114.754C173.472 115.234 172.704 115.474 171.766 115.474ZM171.766 108.29C171.126 108.29 170.555 108.488 170.054 108.882C169.563 109.266 169.28 109.832 169.206 110.578H174.198C174.166 109.864 173.92 109.304 173.462 108.898C173.003 108.493 172.438 108.29 171.766 108.29Z" fill="#B0AB9E"/>
<path d="M214.04 115.474C213.251 115.474 212.568 115.336 211.992 115.058C211.416 114.77 210.957 114.381 210.616 113.89C210.285 113.389 210.083 112.824 210.008 112.194H211.672C211.779 112.728 212.045 113.17 212.472 113.522C212.899 113.864 213.427 114.034 214.056 114.034C214.525 114.034 214.931 113.922 215.272 113.698C215.613 113.464 215.88 113.154 216.072 112.77C216.264 112.386 216.36 111.954 216.36 111.474C216.36 110.717 216.147 110.114 215.72 109.666C215.293 109.208 214.755 108.978 214.104 108.978C213.549 108.978 213.075 109.112 212.68 109.378C212.285 109.634 211.997 109.96 211.816 110.354H210.2L211.16 104.082H217.208V105.57H212.44L211.864 108.562C212.109 108.285 212.445 108.056 212.872 107.874C213.309 107.682 213.8 107.586 214.344 107.586C215.101 107.586 215.752 107.762 216.296 108.114C216.84 108.456 217.256 108.92 217.544 109.506C217.843 110.093 217.992 110.744 217.992 111.458C217.992 112.205 217.832 112.882 217.512 113.49C217.192 114.098 216.733 114.584 216.136 114.946C215.549 115.298 214.851 115.474 214.04 115.474ZM220.603 115.378C220.283 115.378 220.017 115.277 219.803 115.074C219.601 114.861 219.499 114.61 219.499 114.322C219.499 114.024 219.601 113.773 219.803 113.57C220.017 113.357 220.283 113.25 220.603 113.25C220.923 113.25 221.185 113.357 221.387 113.57C221.59 113.773 221.691 114.024 221.691 114.322C221.691 114.61 221.59 114.861 221.387 115.074C221.185 115.277 220.923 115.378 220.603 115.378ZM227.048 115.474C226.323 115.474 225.661 115.346 225.064 115.09C224.477 114.824 224.008 114.424 223.656 113.89C223.304 113.357 223.117 112.69 223.096 111.89H224.776C224.797 112.488 225 112.994 225.384 113.41C225.779 113.816 226.333 114.018 227.048 114.018C227.731 114.018 228.253 113.832 228.616 113.458C228.979 113.074 229.16 112.6 229.16 112.034C229.16 111.352 228.915 110.845 228.424 110.514C227.944 110.184 227.352 110.018 226.648 110.018H225.816V108.61H226.664C227.293 108.61 227.8 108.461 228.184 108.162C228.579 107.864 228.776 107.442 228.776 106.898C228.776 106.44 228.621 106.066 228.312 105.778C228.013 105.49 227.587 105.346 227.032 105.346C226.456 105.346 226.003 105.517 225.672 105.858C225.341 106.189 225.16 106.605 225.128 107.106H223.448C223.469 106.456 223.629 105.89 223.928 105.41C224.237 104.93 224.659 104.557 225.192 104.29C225.725 104.024 226.339 103.89 227.032 103.89C227.779 103.89 228.403 104.024 228.904 104.29C229.416 104.546 229.8 104.898 230.056 105.346C230.323 105.784 230.456 106.264 230.456 106.786C230.456 107.384 230.291 107.906 229.96 108.354C229.629 108.802 229.187 109.101 228.632 109.25C229.272 109.389 229.8 109.704 230.216 110.194C230.632 110.674 230.84 111.298 230.84 112.066C230.84 112.685 230.696 113.256 230.408 113.778C230.12 114.29 229.693 114.701 229.128 115.01C228.563 115.32 227.869 115.474 227.048 115.474ZM237.413 115.474C236.4 115.474 235.525 115.234 234.789 114.754C234.064 114.264 233.504 113.586 233.109 112.722C232.725 111.848 232.533 110.834 232.533 109.682C232.533 108.53 232.725 107.522 233.109 106.658C233.504 105.784 234.064 105.106 234.789 104.626C235.525 104.136 236.4 103.89 237.413 103.89C238.426 103.89 239.296 104.136 240.021 104.626C240.746 105.106 241.301 105.784 241.685 106.658C242.08 107.522 242.277 108.53 242.277 109.682C242.277 110.834 242.08 111.848 241.685 112.722C241.301 113.586 240.746 114.264 240.021 114.754C239.296 115.234 238.426 115.474 237.413 115.474ZM237.413 113.954C238.021 113.954 238.56 113.784 239.029 113.442C239.509 113.101 239.882 112.61 240.149 111.97C240.416 111.33 240.549 110.568 240.549 109.682C240.549 108.797 240.416 108.034 240.149 107.394C239.882 106.754 239.509 106.264 239.029 105.922C238.56 105.581 238.021 105.41 237.413 105.41C236.794 105.41 236.25 105.581 235.781 105.922C235.312 106.264 234.944 106.754 234.677 107.394C234.41 108.034 234.277 108.797 234.277 109.682C234.277 110.568 234.41 111.33 234.677 111.97C234.944 112.61 235.312 113.101 235.781 113.442C236.25 113.784 236.794 113.954 237.413 113.954ZM244.103 118.802V107.346H245.623L245.799 108.578C246.055 108.205 246.407 107.874 246.855 107.586C247.303 107.298 247.879 107.154 248.583 107.154C249.351 107.154 250.029 107.336 250.615 107.698C251.202 108.061 251.661 108.557 251.991 109.186C252.333 109.816 252.503 110.53 252.503 111.33C252.503 112.13 252.333 112.845 251.991 113.474C251.661 114.093 251.202 114.584 250.615 114.946C250.029 115.298 249.346 115.474 248.567 115.474C247.949 115.474 247.399 115.352 246.919 115.106C246.45 114.861 246.077 114.514 245.799 114.066V118.802H244.103ZM248.279 114.002C249.005 114.002 249.602 113.757 250.071 113.266C250.541 112.765 250.775 112.114 250.775 111.314C250.775 110.792 250.669 110.328 250.455 109.922C250.242 109.517 249.949 109.202 249.575 108.978C249.202 108.744 248.77 108.626 248.279 108.626C247.554 108.626 246.957 108.877 246.487 109.378C246.029 109.88 245.799 110.525 245.799 111.314C245.799 112.114 246.029 112.765 246.487 113.266C246.957 113.757 247.554 114.002 248.279 114.002ZM254.338 115.282V107.346H255.842L255.986 108.466C256.242 108.061 256.578 107.741 256.994 107.506C257.42 107.272 257.911 107.154 258.466 107.154C259.724 107.154 260.599 107.65 261.09 108.642C261.378 108.184 261.762 107.821 262.242 107.554C262.732 107.288 263.26 107.154 263.826 107.154C264.818 107.154 265.596 107.453 266.162 108.05C266.727 108.648 267.01 109.538 267.01 110.722V115.282H265.314V110.898C265.314 109.362 264.727 108.594 263.554 108.594C262.956 108.594 262.466 108.818 262.082 109.266C261.708 109.714 261.522 110.354 261.522 111.186V115.282H259.826V110.898C259.826 109.362 259.234 108.594 258.05 108.594C257.463 108.594 256.978 108.818 256.594 109.266C256.22 109.714 256.034 110.354 256.034 111.186V115.282H254.338ZM272.865 111.346V109.922H279.377V111.346H272.865ZM286.217 115.282L290.553 105.538H284.729V104.082H292.297V105.314L287.993 115.282H286.217ZM293.635 115.378C293.315 115.378 293.048 115.277 292.835 115.074C292.632 114.861 292.531 114.61 292.531 114.322C292.531 114.024 292.632 113.773 292.835 113.57C293.048 113.357 293.315 113.25 293.635 113.25C293.955 113.25 294.216 113.357 294.419 113.57C294.621 113.773 294.723 114.024 294.723 114.322C294.723 114.61 294.621 114.861 294.419 115.074C294.216 115.277 293.955 115.378 293.635 115.378ZM300.079 115.474C299.354 115.474 298.693 115.346 298.095 115.09C297.509 114.824 297.039 114.424 296.687 113.89C296.335 113.357 296.149 112.69 296.127 111.89H297.807C297.829 112.488 298.031 112.994 298.415 113.41C298.81 113.816 299.365 114.018 300.079 114.018C300.762 114.018 301.285 113.832 301.647 113.458C302.01 113.074 302.191 112.6 302.191 112.034C302.191 111.352 301.946 110.845 301.455 110.514C300.975 110.184 300.383 110.018 299.679 110.018H298.847V108.61H299.695C300.325 108.61 300.831 108.461 301.215 108.162C301.61 107.864 301.807 107.442 301.807 106.898C301.807 106.44 301.653 106.066 301.343 105.778C301.045 105.49 300.618 105.346 300.063 105.346C299.487 105.346 299.034 105.517 298.703 105.858C298.373 106.189 298.191 106.605 298.159 107.106H296.479C296.501 106.456 296.661 105.89 296.959 105.41C297.269 104.93 297.69 104.557 298.223 104.29C298.757 104.024 299.37 103.89 300.063 103.89C300.81 103.89 301.434 104.024 301.935 104.29C302.447 104.546 302.831 104.898 303.087 105.346C303.354 105.784 303.487 106.264 303.487 106.786C303.487 107.384 303.322 107.906 302.991 108.354C302.661 108.802 302.218 109.101 301.663 109.25C302.303 109.389 302.831 109.704 303.247 110.194C303.663 110.674 303.871 111.298 303.871 112.066C303.871 112.685 303.727 113.256 303.439 113.778C303.151 114.29 302.725 114.701 302.159 115.01C301.594 115.32 300.901 115.474 300.079 115.474ZM310.444 115.474C309.431 115.474 308.556 115.234 307.82 114.754C307.095 114.264 306.535 113.586 306.14 112.722C305.756 111.848 305.564 110.834 305.564 109.682C305.564 108.53 305.756 107.522 306.14 106.658C306.535 105.784 307.095 105.106 307.82 104.626C308.556 104.136 309.431 103.89 310.444 103.89C311.457 103.89 312.327 104.136 313.052 104.626C313.777 105.106 314.332 105.784 314.716 106.658C315.111 107.522 315.308 108.53 315.308 109.682C315.308 110.834 315.111 111.848 314.716 112.722C314.332 113.586 313.777 114.264 313.052 114.754C312.327 115.234 311.457 115.474 310.444 115.474ZM310.444 113.954C311.052 113.954 311.591 113.784 312.06 113.442C312.54 113.101 312.913 112.61 313.18 111.97C313.447 111.33 313.58 110.568 313.58 109.682C313.58 108.797 313.447 108.034 313.18 107.394C312.913 106.754 312.54 106.264 312.06 105.922C311.591 105.581 311.052 105.41 310.444 105.41C309.825 105.41 309.281 105.581 308.812 105.922C308.343 106.264 307.975 106.754 307.708 107.394C307.441 108.034 307.308 108.797 307.308 109.682C307.308 110.568 307.441 111.33 307.708 111.97C307.975 112.61 308.343 113.101 308.812 113.442C309.281 113.784 309.825 113.954 310.444 113.954ZM317.135 118.802V107.346H318.655L318.831 108.578C319.087 108.205 319.439 107.874 319.887 107.586C320.335 107.298 320.911 107.154 321.615 107.154C322.383 107.154 323.06 107.336 323.647 107.698C324.233 108.061 324.692 108.557 325.023 109.186C325.364 109.816 325.535 110.53 325.535 111.33C325.535 112.13 325.364 112.845 325.023 113.474C324.692 114.093 324.233 114.584 323.647 114.946C323.06 115.298 322.377 115.474 321.599 115.474C320.98 115.474 320.431 115.352 319.951 115.106C319.481 114.861 319.108 114.514 318.831 114.066V118.802H317.135ZM321.311 114.002C322.036 114.002 322.633 113.757 323.103 113.266C323.572 112.765 323.807 112.114 323.807 111.314C323.807 110.792 323.7 110.328 323.487 109.922C323.273 109.517 322.98 109.202 322.607 108.978C322.233 108.744 321.801 108.626 321.311 108.626C320.585 108.626 319.988 108.877 319.519 109.378C319.06 109.88 318.831 110.525 318.831 111.314C318.831 112.114 319.06 112.765 319.519 113.266C319.988 113.757 320.585 114.002 321.311 114.002ZM327.369 115.282V107.346H328.873L329.017 108.466C329.273 108.061 329.609 107.741 330.025 107.506C330.452 107.272 330.942 107.154 331.497 107.154C332.756 107.154 333.63 107.65 334.121 108.642C334.409 108.184 334.793 107.821 335.273 107.554C335.764 107.288 336.292 107.154 336.857 107.154C337.849 107.154 338.628 107.453 339.193 108.05C339.758 108.648 340.041 109.538 340.041 110.722V115.282H338.345V110.898C338.345 109.362 337.758 108.594 336.585 108.594C335.988 108.594 335.497 108.818 335.113 109.266C334.74 109.714 334.553 110.354 334.553 111.186V115.282H332.857V110.898C332.857 109.362 332.265 108.594 331.081 108.594C330.494 108.594 330.009 108.818 329.625 109.266C329.252 109.714 329.065 110.354 329.065 111.186V115.282H327.369Z" fill="#4D545F"/>
<path d="M146.272 151.474C145.173 151.474 144.208 151.234 143.376 150.754C142.555 150.264 141.909 149.581 141.44 148.706C140.981 147.832 140.752 146.824 140.752 145.682C140.752 144.541 140.981 143.538 141.44 142.674C141.909 141.8 142.555 141.117 143.376 140.626C144.208 140.136 145.173 139.89 146.272 139.89C147.381 139.89 148.347 140.136 149.168 140.626C150 141.117 150.645 141.8 151.104 142.674C151.563 143.538 151.792 144.541 151.792 145.682C151.792 146.824 151.563 147.832 151.104 148.706C150.645 149.581 150 150.264 149.168 150.754C148.347 151.234 147.381 151.474 146.272 151.474ZM146.272 150.29C147.093 150.29 147.813 150.109 148.432 149.746C149.061 149.373 149.547 148.845 149.888 148.162C150.24 147.469 150.416 146.642 150.416 145.682C150.416 144.722 150.24 143.901 149.888 143.218C149.547 142.536 149.061 142.013 148.432 141.65C147.813 141.277 147.093 141.09 146.272 141.09C145.451 141.09 144.725 141.277 144.096 141.65C143.477 142.013 142.992 142.536 142.64 143.218C142.299 143.901 142.128 144.722 142.128 145.682C142.128 146.642 142.299 147.469 142.64 148.162C142.992 148.845 143.477 149.373 144.096 149.746C144.725 150.109 145.451 150.29 146.272 150.29ZM154.083 151.282V144.482H152.883V143.346H154.083V141.97C154.083 141.202 154.275 140.642 154.659 140.29C155.043 139.938 155.603 139.762 156.339 139.762H157.139V140.914H156.547C156.142 140.914 155.854 141 155.683 141.17C155.512 141.33 155.427 141.608 155.427 142.002V143.346H157.379V144.482H155.427V151.282H154.083ZM159.411 151.282V144.482H158.211V143.346H159.411V141.97C159.411 141.202 159.603 140.642 159.987 140.29C160.371 139.938 160.931 139.762 161.667 139.762H162.467V140.914H161.875C161.47 140.914 161.182 141 161.011 141.17C160.84 141.33 160.755 141.608 160.755 142.002V143.346H162.707V144.482H160.755V151.282H159.411ZM167.563 151.474C166.805 151.474 166.133 151.304 165.547 150.962C164.96 150.61 164.496 150.125 164.155 149.506C163.824 148.888 163.659 148.157 163.659 147.314C163.659 146.482 163.824 145.757 164.155 145.138C164.485 144.509 164.944 144.024 165.531 143.682C166.128 143.33 166.816 143.154 167.595 143.154C168.363 143.154 169.024 143.33 169.579 143.682C170.144 144.024 170.576 144.477 170.875 145.042C171.173 145.608 171.323 146.216 171.323 146.866C171.323 146.984 171.317 147.101 171.307 147.218C171.307 147.336 171.307 147.469 171.307 147.618H164.987C165.019 148.226 165.157 148.733 165.403 149.138C165.659 149.533 165.973 149.832 166.347 150.034C166.731 150.237 167.136 150.338 167.563 150.338C168.117 150.338 168.581 150.21 168.955 149.954C169.328 149.698 169.6 149.352 169.771 148.914H171.099C170.885 149.65 170.475 150.264 169.867 150.754C169.269 151.234 168.501 151.474 167.563 151.474ZM167.563 144.29C166.923 144.29 166.352 144.488 165.851 144.882C165.36 145.266 165.077 145.832 165.003 146.578H169.995C169.963 145.864 169.717 145.304 169.259 144.898C168.8 144.493 168.235 144.29 167.563 144.29ZM173.104 151.282V143.346H174.32L174.432 144.866C174.677 144.344 175.051 143.928 175.552 143.618C176.053 143.309 176.672 143.154 177.408 143.154V144.562H177.04C176.571 144.562 176.139 144.648 175.744 144.818C175.349 144.978 175.035 145.256 174.8 145.65C174.565 146.045 174.448 146.589 174.448 147.282V151.282H173.104Z" fill="#B0AB9E"/>
<path d="M214.72 151.474C213.995 151.474 213.333 151.346 212.736 151.09C212.149 150.824 211.68 150.424 211.328 149.89C210.976 149.357 210.789 148.69 210.768 147.89H212.448C212.469 148.488 212.672 148.994 213.056 149.41C213.451 149.816 214.005 150.018 214.72 150.018C215.403 150.018 215.925 149.832 216.288 149.458C216.651 149.074 216.832 148.6 216.832 148.034C216.832 147.352 216.587 146.845 216.096 146.514C215.616 146.184 215.024 146.018 214.32 146.018H213.488V144.61H214.336C214.965 144.61 215.472 144.461 215.856 144.162C216.251 143.864 216.448 143.442 216.448 142.898C216.448 142.44 216.293 142.066 215.984 141.778C215.685 141.49 215.259 141.346 214.704 141.346C214.128 141.346 213.675 141.517 213.344 141.858C213.013 142.189 212.832 142.605 212.8 143.106H211.12C211.141 142.456 211.301 141.89 211.6 141.41C211.909 140.93 212.331 140.557 212.864 140.29C213.397 140.024 214.011 139.89 214.704 139.89C215.451 139.89 216.075 140.024 216.576 140.29C217.088 140.546 217.472 140.898 217.728 141.346C217.995 141.784 218.128 142.264 218.128 142.786C218.128 143.384 217.963 143.906 217.632 144.354C217.301 144.802 216.859 145.101 216.304 145.25C216.944 145.389 217.472 145.704 217.888 146.194C218.304 146.674 218.512 147.298 218.512 148.066C218.512 148.685 218.368 149.256 218.08 149.778C217.792 150.29 217.365 150.701 216.8 151.01C216.235 151.32 215.541 151.474 214.72 151.474ZM225.085 151.474C224.071 151.474 223.197 151.234 222.461 150.754C221.735 150.264 221.175 149.586 220.781 148.722C220.397 147.848 220.205 146.834 220.205 145.682C220.205 144.53 220.397 143.522 220.781 142.658C221.175 141.784 221.735 141.106 222.461 140.626C223.197 140.136 224.071 139.89 225.085 139.89C226.098 139.89 226.967 140.136 227.693 140.626C228.418 141.106 228.973 141.784 229.357 142.658C229.751 143.522 229.949 144.53 229.949 145.682C229.949 146.834 229.751 147.848 229.357 148.722C228.973 149.586 228.418 150.264 227.693 150.754C226.967 151.234 226.098 151.474 225.085 151.474ZM225.085 149.954C225.693 149.954 226.231 149.784 226.701 149.442C227.181 149.101 227.554 148.61 227.821 147.97C228.087 147.33 228.221 146.568 228.221 145.682C228.221 144.797 228.087 144.034 227.821 143.394C227.554 142.754 227.181 142.264 226.701 141.922C226.231 141.581 225.693 141.41 225.085 141.41C224.466 141.41 223.922 141.581 223.453 141.922C222.983 142.264 222.615 142.754 222.349 143.394C222.082 144.034 221.949 144.797 221.949 145.682C221.949 146.568 222.082 147.33 222.349 147.97C222.615 148.61 222.983 149.101 223.453 149.442C223.922 149.784 224.466 149.954 225.085 149.954ZM233.999 145.426C233.498 145.426 233.044 145.314 232.639 145.09C232.244 144.866 231.93 144.552 231.695 144.146C231.46 143.73 231.343 143.234 231.343 142.658C231.343 142.093 231.46 141.608 231.695 141.202C231.93 140.786 232.25 140.466 232.655 140.242C233.06 140.018 233.514 139.906 234.015 139.906C234.506 139.906 234.948 140.018 235.343 140.242C235.748 140.466 236.068 140.786 236.303 141.202C236.538 141.608 236.655 142.093 236.655 142.658C236.655 143.234 236.538 143.73 236.303 144.146C236.068 144.552 235.748 144.866 235.343 145.09C234.948 145.314 234.5 145.426 233.999 145.426ZM233.199 151.282L239.615 140.082H241.279L234.879 151.282H233.199ZM233.999 144.21C234.34 144.21 234.634 144.082 234.879 143.826C235.135 143.56 235.263 143.17 235.263 142.658C235.263 142.146 235.14 141.762 234.895 141.506C234.65 141.24 234.351 141.106 233.999 141.106C233.658 141.106 233.359 141.24 233.103 141.506C232.847 141.762 232.719 142.146 232.719 142.658C232.719 143.17 232.842 143.56 233.087 143.826C233.343 144.082 233.647 144.21 233.999 144.21ZM240.575 151.474C240.074 151.474 239.62 151.362 239.215 151.138C238.82 150.914 238.506 150.6 238.271 150.194C238.036 149.778 237.919 149.282 237.919 148.706C237.919 148.141 238.036 147.65 238.271 147.234C238.506 146.818 238.826 146.498 239.231 146.274C239.636 146.05 240.09 145.938 240.591 145.938C241.082 145.938 241.524 146.05 241.919 146.274C242.324 146.498 242.644 146.818 242.879 147.234C243.114 147.65 243.231 148.141 243.231 148.706C243.231 149.282 243.114 149.778 242.879 150.194C242.644 150.6 242.324 150.914 241.919 151.138C241.524 151.362 241.076 151.474 240.575 151.474ZM240.575 150.242C240.916 150.242 241.21 150.114 241.455 149.858C241.711 149.602 241.839 149.218 241.839 148.706C241.839 148.194 241.716 147.81 241.471 147.554C241.226 147.288 240.927 147.154 240.575 147.154C240.234 147.154 239.935 147.288 239.679 147.554C239.423 147.81 239.295 148.194 239.295 148.706C239.295 149.218 239.418 149.602 239.663 149.858C239.919 150.114 240.223 150.242 240.575 150.242ZM252.69 151.474C251.933 151.474 251.25 151.304 250.642 150.962C250.045 150.61 249.57 150.125 249.218 149.506C248.866 148.877 248.69 148.146 248.69 147.314C248.69 146.482 248.866 145.757 249.218 145.138C249.581 144.509 250.066 144.024 250.674 143.682C251.282 143.33 251.96 143.154 252.706 143.154C253.464 143.154 254.141 143.33 254.738 143.682C255.346 144.024 255.826 144.509 256.178 145.138C256.541 145.757 256.722 146.482 256.722 147.314C256.722 148.146 256.541 148.877 256.178 149.506C255.826 150.125 255.346 150.61 254.738 150.962C254.13 151.304 253.448 151.474 252.69 151.474ZM252.69 150.018C253.096 150.018 253.469 149.917 253.81 149.714C254.162 149.512 254.445 149.213 254.658 148.818C254.872 148.413 254.978 147.912 254.978 147.314C254.978 146.717 254.872 146.221 254.658 145.826C254.456 145.421 254.178 145.117 253.826 144.914C253.485 144.712 253.112 144.61 252.706 144.61C252.301 144.61 251.922 144.712 251.57 144.914C251.229 145.117 250.952 145.421 250.738 145.826C250.525 146.221 250.418 146.717 250.418 147.314C250.418 147.912 250.525 148.413 250.738 148.818C250.952 149.213 251.229 149.512 251.57 149.714C251.912 149.917 252.285 150.018 252.69 150.018ZM258.956 151.282V144.77H257.82V143.346H258.956V142.194C258.956 141.33 259.17 140.712 259.596 140.338C260.034 139.954 260.647 139.762 261.436 139.762H262.268V141.202H261.692C261.319 141.202 261.052 141.282 260.892 141.442C260.732 141.592 260.652 141.848 260.652 142.21V143.346H262.476V144.77H260.652V151.282H258.956ZM264.488 151.282V144.77H263.352V143.346H264.488V142.194C264.488 141.33 264.701 140.712 265.128 140.338C265.565 139.954 266.178 139.762 266.968 139.762H267.8V141.202H267.224C266.85 141.202 266.584 141.282 266.424 141.442C266.264 141.592 266.184 141.848 266.184 142.21V143.346H268.008V144.77H266.184V151.282H264.488Z" fill="#4D545F"/>
<path d="M144.752 187.474C143.931 187.474 143.216 187.325 142.608 187.026C142 186.728 141.531 186.312 141.2 185.778C140.869 185.245 140.704 184.626 140.704 183.922H142.112C142.112 184.36 142.213 184.765 142.416 185.138C142.619 185.501 142.912 185.794 143.296 186.018C143.691 186.232 144.176 186.338 144.752 186.338C145.509 186.338 146.096 186.157 146.512 185.794C146.928 185.432 147.136 184.978 147.136 184.434C147.136 183.986 147.04 183.629 146.848 183.362C146.656 183.085 146.395 182.861 146.064 182.69C145.744 182.52 145.371 182.37 144.944 182.242C144.528 182.114 144.091 181.97 143.632 181.81C142.768 181.512 142.128 181.144 141.712 180.706C141.296 180.258 141.088 179.677 141.088 178.962C141.077 178.365 141.216 177.837 141.504 177.378C141.792 176.909 142.197 176.546 142.72 176.29C143.253 176.024 143.883 175.89 144.608 175.89C145.323 175.89 145.941 176.024 146.464 176.29C146.997 176.557 147.408 176.925 147.696 177.394C147.995 177.864 148.149 178.397 148.16 178.994H146.752C146.752 178.685 146.672 178.381 146.512 178.082C146.352 177.773 146.107 177.522 145.776 177.33C145.456 177.138 145.051 177.042 144.56 177.042C143.952 177.032 143.451 177.186 143.056 177.506C142.672 177.826 142.48 178.269 142.48 178.834C142.48 179.314 142.613 179.682 142.88 179.938C143.157 180.194 143.541 180.408 144.032 180.578C144.523 180.738 145.088 180.925 145.728 181.138C146.261 181.33 146.741 181.554 147.168 181.81C147.595 182.066 147.925 182.397 148.16 182.802C148.405 183.208 148.528 183.725 148.528 184.354C148.528 184.888 148.389 185.394 148.112 185.874C147.835 186.344 147.413 186.728 146.848 187.026C146.293 187.325 145.595 187.474 144.752 187.474ZM153.25 187.474C152.311 187.474 151.565 187.192 151.01 186.626C150.455 186.05 150.178 185.17 150.178 183.986V179.346H151.522V183.842C151.522 185.496 152.199 186.322 153.554 186.322C154.247 186.322 154.818 186.077 155.266 185.586C155.725 185.085 155.954 184.376 155.954 183.458V179.346H157.298V187.282H156.082L155.986 185.858C155.741 186.36 155.373 186.754 154.882 187.042C154.402 187.33 153.858 187.474 153.25 187.474ZM159.51 190.802V179.346H160.726L160.854 180.658C161.11 180.274 161.473 179.928 161.942 179.618C162.422 179.309 163.03 179.154 163.766 179.154C164.556 179.154 165.244 179.336 165.83 179.698C166.417 180.061 166.87 180.557 167.19 181.186C167.521 181.816 167.686 182.53 167.686 183.33C167.686 184.13 167.521 184.845 167.19 185.474C166.87 186.093 166.412 186.584 165.814 186.946C165.228 187.298 164.54 187.474 163.75 187.474C163.1 187.474 162.518 187.341 162.006 187.074C161.505 186.808 161.121 186.434 160.854 185.954V190.802H159.51ZM163.606 186.306C164.14 186.306 164.609 186.184 165.014 185.938C165.42 185.682 165.74 185.33 165.974 184.882C166.209 184.434 166.326 183.912 166.326 183.314C166.326 182.717 166.209 182.194 165.974 181.746C165.74 181.298 165.42 180.952 165.014 180.706C164.609 180.45 164.14 180.322 163.606 180.322C163.073 180.322 162.604 180.45 162.198 180.706C161.793 180.952 161.473 181.298 161.238 181.746C161.004 182.194 160.886 182.717 160.886 183.314C160.886 183.912 161.004 184.434 161.238 184.882C161.473 185.33 161.793 185.682 162.198 185.938C162.604 186.184 163.073 186.306 163.606 186.306ZM169.557 190.802V179.346H170.773L170.901 180.658C171.157 180.274 171.52 179.928 171.989 179.618C172.469 179.309 173.077 179.154 173.813 179.154C174.602 179.154 175.29 179.336 175.877 179.698C176.464 180.061 176.917 180.557 177.237 181.186C177.568 181.816 177.733 182.53 177.733 183.33C177.733 184.13 177.568 184.845 177.237 185.474C176.917 186.093 176.458 186.584 175.861 186.946C175.274 187.298 174.586 187.474 173.797 187.474C173.146 187.474 172.565 187.341 172.053 187.074C171.552 186.808 171.168 186.434 170.901 185.954V190.802H169.557ZM173.653 186.306C174.186 186.306 174.656 186.184 175.061 185.938C175.466 185.682 175.786 185.33 176.021 184.882C176.256 184.434 176.373 183.912 176.373 183.314C176.373 182.717 176.256 182.194 176.021 181.746C175.786 181.298 175.466 180.952 175.061 180.706C174.656 180.45 174.186 180.322 173.653 180.322C173.12 180.322 172.65 180.45 172.245 180.706C171.84 180.952 171.52 181.298 171.285 181.746C171.05 182.194 170.933 182.717 170.933 183.314C170.933 183.912 171.05 184.434 171.285 184.882C171.52 185.33 171.84 185.682 172.245 185.938C172.65 186.184 173.12 186.306 173.653 186.306ZM179.604 187.282V175.762H180.948V187.282H179.604ZM184.015 190.802L185.983 186.514H185.519L182.367 179.346H183.823L186.447 185.522L189.231 179.346H190.623L185.423 190.802H184.015Z" fill="#B0AB9E"/>
<path d="M214.04 187.474C213.251 187.474 212.568 187.336 211.992 187.058C211.416 186.77 210.957 186.381 210.616 185.89C210.285 185.389 210.083 184.824 210.008 184.194H211.672C211.779 184.728 212.045 185.17 212.472 185.522C212.899 185.864 213.427 186.034 214.056 186.034C214.525 186.034 214.931 185.922 215.272 185.698C215.613 185.464 215.88 185.154 216.072 184.77C216.264 184.386 216.36 183.954 216.36 183.474C216.36 182.717 216.147 182.114 215.72 181.666C215.293 181.208 214.755 180.978 214.104 180.978C213.549 180.978 213.075 181.112 212.68 181.378C212.285 181.634 211.997 181.96 211.816 182.354H210.2L211.16 176.082H217.208V177.57H212.44L211.864 180.562C212.109 180.285 212.445 180.056 212.872 179.874C213.309 179.682 213.8 179.586 214.344 179.586C215.101 179.586 215.752 179.762 216.296 180.114C216.84 180.456 217.256 180.92 217.544 181.506C217.843 182.093 217.992 182.744 217.992 183.458C217.992 184.205 217.832 184.882 217.512 185.49C217.192 186.098 216.733 186.584 216.136 186.946C215.549 187.298 214.851 187.474 214.04 187.474ZM226.651 187.474C225.979 187.474 225.424 187.362 224.987 187.138C224.549 186.914 224.224 186.621 224.011 186.258C223.797 185.885 223.691 185.48 223.691 185.042C223.691 184.274 223.989 183.666 224.587 183.218C225.184 182.77 226.037 182.546 227.147 182.546H229.227V182.402C229.227 181.784 229.056 181.32 228.715 181.01C228.384 180.701 227.952 180.546 227.419 180.546C226.949 180.546 226.539 180.664 226.187 180.898C225.845 181.122 225.637 181.458 225.563 181.906H223.867C223.92 181.33 224.112 180.84 224.443 180.434C224.784 180.018 225.211 179.704 225.723 179.49C226.245 179.266 226.816 179.154 227.435 179.154C228.544 179.154 229.403 179.448 230.011 180.034C230.619 180.61 230.923 181.4 230.923 182.402V187.282H229.451L229.307 185.922C229.083 186.36 228.757 186.728 228.331 187.026C227.904 187.325 227.344 187.474 226.651 187.474ZM226.987 186.098C227.445 186.098 227.829 185.992 228.139 185.778C228.459 185.554 228.704 185.261 228.875 184.898C229.056 184.536 229.168 184.136 229.211 183.698H227.323C226.651 183.698 226.171 183.816 225.883 184.05C225.605 184.285 225.467 184.578 225.467 184.93C225.467 185.293 225.6 185.581 225.867 185.794C226.144 185.997 226.517 186.098 226.987 186.098ZM234.859 187.282L231.883 179.346H233.659L235.867 185.666L238.075 179.346H239.835L236.875 187.282H234.859ZM243.463 187.474C242.791 187.474 242.236 187.362 241.799 187.138C241.362 186.914 241.036 186.621 240.823 186.258C240.61 185.885 240.503 185.48 240.503 185.042C240.503 184.274 240.802 183.666 241.399 183.218C241.996 182.77 242.85 182.546 243.959 182.546H246.039V182.402C246.039 181.784 245.868 181.32 245.527 181.01C245.196 180.701 244.764 180.546 244.231 180.546C243.762 180.546 243.351 180.664 242.999 180.898C242.658 181.122 242.45 181.458 242.375 181.906H240.679C240.732 181.33 240.924 180.84 241.255 180.434C241.596 180.018 242.023 179.704 242.535 179.49C243.058 179.266 243.628 179.154 244.247 179.154C245.356 179.154 246.215 179.448 246.823 180.034C247.431 180.61 247.735 181.4 247.735 182.402V187.282H246.263L246.119 185.922C245.895 186.36 245.57 186.728 245.143 187.026C244.716 187.325 244.156 187.474 243.463 187.474ZM243.799 186.098C244.258 186.098 244.642 185.992 244.951 185.778C245.271 185.554 245.516 185.261 245.687 184.898C245.868 184.536 245.98 184.136 246.023 183.698H244.135C243.463 183.698 242.983 183.816 242.695 184.05C242.418 184.285 242.279 184.578 242.279 184.93C242.279 185.293 242.412 185.581 242.679 185.794C242.956 185.997 243.33 186.098 243.799 186.098ZM250.673 177.842C250.353 177.842 250.086 177.746 249.873 177.554C249.67 177.352 249.569 177.101 249.569 176.802C249.569 176.504 249.67 176.258 249.873 176.066C250.086 175.864 250.353 175.762 250.673 175.762C250.993 175.762 251.254 175.864 251.457 176.066C251.67 176.258 251.777 176.504 251.777 176.802C251.777 177.101 251.67 177.352 251.457 177.554C251.254 177.746 250.993 177.842 250.673 177.842ZM249.825 187.282V179.346H251.521V187.282H249.825ZM253.76 187.282V175.762H255.456V187.282H253.76ZM260.291 187.474C259.619 187.474 259.065 187.362 258.627 187.138C258.19 186.914 257.865 186.621 257.651 186.258C257.438 185.885 257.331 185.48 257.331 185.042C257.331 184.274 257.63 183.666 258.227 183.218C258.825 182.77 259.678 182.546 260.787 182.546H262.867V182.402C262.867 181.784 262.697 181.32 262.355 181.01C262.025 180.701 261.593 180.546 261.059 180.546C260.59 180.546 260.179 180.664 259.827 180.898C259.486 181.122 259.278 181.458 259.203 181.906H257.507C257.561 181.33 257.753 180.84 258.083 180.434C258.425 180.018 258.851 179.704 259.363 179.49C259.886 179.266 260.457 179.154 261.075 179.154C262.185 179.154 263.043 179.448 263.651 180.034C264.259 180.61 264.563 181.4 264.563 182.402V187.282H263.091L262.947 185.922C262.723 186.36 262.398 186.728 261.971 187.026C261.545 187.325 260.985 187.474 260.291 187.474ZM260.627 186.098C261.086 186.098 261.47 185.992 261.779 185.778C262.099 185.554 262.345 185.261 262.515 184.898C262.697 184.536 262.809 184.136 262.851 183.698H260.963C260.291 183.698 259.811 183.816 259.523 184.05C259.246 184.285 259.107 184.578 259.107 184.93C259.107 185.293 259.241 185.581 259.507 185.794C259.785 185.997 260.158 186.098 260.627 186.098ZM271.005 187.474C270.386 187.474 269.837 187.352 269.357 187.106C268.887 186.861 268.514 186.514 268.237 186.066L268.061 187.282H266.541V175.762H268.237V180.578C268.493 180.205 268.845 179.874 269.293 179.586C269.741 179.298 270.317 179.154 271.021 179.154C271.789 179.154 272.466 179.336 273.053 179.698C273.639 180.061 274.098 180.557 274.429 181.186C274.77 181.816 274.941 182.53 274.941 183.33C274.941 184.13 274.77 184.845 274.429 185.474C274.098 186.093 273.639 186.584 273.053 186.946C272.466 187.298 271.783 187.474 271.005 187.474ZM270.717 186.002C271.442 186.002 272.039 185.757 272.509 185.266C272.978 184.765 273.213 184.114 273.213 183.314C273.213 182.792 273.106 182.328 272.893 181.922C272.679 181.517 272.386 181.202 272.013 180.978C271.639 180.744 271.207 180.626 270.717 180.626C269.991 180.626 269.394 180.877 268.925 181.378C268.466 181.88 268.237 182.525 268.237 183.314C268.237 184.114 268.466 184.765 268.925 185.266C269.394 185.757 269.991 186.002 270.717 186.002ZM276.775 187.282V175.762H278.471V187.282H276.775ZM284.331 187.474C283.552 187.474 282.859 187.304 282.251 186.962C281.654 186.61 281.184 186.125 280.843 185.506C280.502 184.888 280.331 184.168 280.331 183.346C280.331 182.514 280.496 181.784 280.827 181.154C281.168 180.525 281.638 180.034 282.235 179.682C282.843 179.33 283.547 179.154 284.347 179.154C285.126 179.154 285.803 179.33 286.379 179.682C286.955 180.024 287.403 180.482 287.723 181.058C288.043 181.634 288.203 182.269 288.203 182.962C288.203 183.069 288.198 183.186 288.187 183.314C288.187 183.432 288.182 183.565 288.171 183.714H281.995C282.048 184.482 282.299 185.069 282.747 185.474C283.206 185.869 283.734 186.066 284.331 186.066C284.811 186.066 285.211 185.96 285.531 185.746C285.862 185.522 286.107 185.224 286.267 184.85H287.963C287.75 185.597 287.323 186.221 286.683 186.722C286.054 187.224 285.27 187.474 284.331 187.474ZM284.331 180.546C283.766 180.546 283.264 180.717 282.827 181.058C282.39 181.389 282.123 181.89 282.027 182.562H286.507C286.475 181.944 286.256 181.453 285.851 181.09C285.446 180.728 284.939 180.546 284.331 180.546Z" fill="#4D545F"/>
<line x1="96" y1="221.282" x2="195" y2="221.282" stroke="#D4DCE7" stroke-dasharray="5 5"/>
<path d="M202.852 226.282V217.882H205.792C206.448 217.882 206.992 217.994 207.424 218.218C207.856 218.434 208.176 218.734 208.384 219.118C208.6 219.494 208.708 219.922 208.708 220.402C208.708 220.858 208.604 221.278 208.396 221.662C208.196 222.038 207.88 222.338 207.448 222.562C207.016 222.786 206.464 222.898 205.792 222.898H204.124V226.282H202.852ZM204.124 221.854H205.732C206.332 221.854 206.76 221.726 207.016 221.47C207.28 221.206 207.412 220.85 207.412 220.402C207.412 219.938 207.28 219.578 207.016 219.322C206.76 219.058 206.332 218.926 205.732 218.926H204.124V221.854ZM210.805 226.282V217.882H213.697C214.361 217.882 214.905 217.994 215.329 218.218C215.761 218.442 216.081 218.746 216.289 219.13C216.497 219.506 216.601 219.926 216.601 220.39C216.601 220.91 216.461 221.382 216.181 221.806C215.909 222.23 215.481 222.534 214.897 222.718L216.685 226.282H215.209L213.577 222.898H212.077V226.282H210.805ZM212.077 221.938H213.625C214.201 221.938 214.621 221.798 214.885 221.518C215.157 221.238 215.293 220.874 215.293 220.426C215.293 219.978 215.161 219.622 214.897 219.358C214.633 219.086 214.205 218.95 213.613 218.95H212.077V221.938ZM218.946 226.282V217.882H224.286V218.914H220.218V221.53H223.926V222.538H220.218V225.25H224.286V226.282H218.946ZM226.642 226.282V217.882H229.366C230.35 217.882 231.158 218.054 231.79 218.398C232.43 218.742 232.902 219.23 233.206 219.862C233.518 220.486 233.674 221.23 233.674 222.094C233.674 222.95 233.518 223.694 233.206 224.326C232.902 224.95 232.43 225.434 231.79 225.778C231.158 226.114 230.35 226.282 229.366 226.282H226.642ZM227.914 225.202H229.318C230.078 225.202 230.678 225.078 231.118 224.83C231.566 224.582 231.886 224.226 232.078 223.762C232.278 223.298 232.378 222.742 232.378 222.094C232.378 221.446 232.278 220.886 232.078 220.414C231.886 219.942 231.566 219.582 231.118 219.334C230.678 219.078 230.078 218.95 229.318 218.95H227.914V225.202ZM235.919 226.282V217.882H237.191V226.282H235.919ZM243.48 226.426C242.648 226.426 241.928 226.246 241.32 225.886C240.72 225.518 240.256 225.01 239.928 224.362C239.6 223.706 239.436 222.95 239.436 222.094C239.436 221.23 239.6 220.474 239.928 219.826C240.256 219.17 240.72 218.658 241.32 218.29C241.928 217.922 242.648 217.738 243.48 217.738C244.464 217.738 245.268 217.978 245.892 218.458C246.516 218.938 246.912 219.61 247.08 220.474H245.664C245.552 219.986 245.312 219.598 244.944 219.31C244.576 219.022 244.084 218.878 243.468 218.878C242.628 218.878 241.964 219.166 241.476 219.742C240.988 220.31 240.744 221.094 240.744 222.094C240.744 223.086 240.988 223.866 241.476 224.434C241.964 225.002 242.628 225.286 243.468 225.286C244.084 225.286 244.576 225.15 244.944 224.878C245.312 224.606 245.552 224.234 245.664 223.762H247.08C246.912 224.594 246.516 225.246 245.892 225.718C245.268 226.19 244.464 226.426 243.48 226.426ZM251.133 226.282V218.914H248.649V217.882H254.877V218.914H252.405V226.282H251.133ZM256.908 226.282V217.882H258.18V226.282H256.908ZM264.6 226.426C263.768 226.426 263.04 226.242 262.416 225.874C261.792 225.506 261.304 224.998 260.952 224.35C260.6 223.694 260.424 222.938 260.424 222.082C260.424 221.226 260.6 220.474 260.952 219.826C261.304 219.17 261.792 218.658 262.416 218.29C263.04 217.922 263.768 217.738 264.6 217.738C265.432 217.738 266.16 217.922 266.784 218.29C267.408 218.658 267.892 219.17 268.236 219.826C268.588 220.474 268.764 221.226 268.764 222.082C268.764 222.938 268.588 223.694 268.236 224.35C267.892 224.998 267.408 225.506 266.784 225.874C266.16 226.242 265.432 226.426 264.6 226.426ZM264.6 225.286C265.176 225.286 265.676 225.158 266.1 224.902C266.532 224.646 266.868 224.278 267.108 223.798C267.348 223.318 267.468 222.746 267.468 222.082C267.468 221.418 267.348 220.846 267.108 220.366C266.868 219.886 266.532 219.518 266.1 219.262C265.676 219.006 265.176 218.878 264.6 218.878C264.024 218.878 263.52 219.006 263.088 219.262C262.656 219.518 262.32 219.886 262.08 220.366C261.848 220.846 261.732 221.418 261.732 222.082C261.732 222.746 261.848 223.318 262.08 223.798C262.32 224.278 262.656 224.646 263.088 224.902C263.52 225.158 264.024 225.286 264.6 225.286ZM271.021 226.282V217.882H272.293L276.505 224.206V217.882H277.777V226.282H276.505L272.293 219.958V226.282H271.021Z" fill="#68655E"/>
<line x1="286" y1="221.282" x2="385" y2="221.282" stroke="#D4DCE7" stroke-dasharray="5 5"/>
<g style="mix-blend-mode:multiply">
<rect x="108.5" y="243.282" width="125" height="28" rx="14" fill="#EFFFEE"/>
<path d="M122.917 262.45C122.245 262.45 121.638 262.334 121.097 262.1C120.556 261.858 120.122 261.517 119.795 261.078C119.478 260.64 119.319 260.131 119.319 259.552C119.319 258.955 119.473 258.432 119.781 257.984C120.098 257.536 120.514 257.214 121.027 257.018C120.579 256.822 120.224 256.542 119.963 256.178C119.702 255.805 119.571 255.39 119.571 254.932C119.571 254.466 119.697 254.036 119.949 253.644C120.201 253.243 120.574 252.921 121.069 252.678C121.573 252.436 122.189 252.314 122.917 252.314C123.645 252.314 124.256 252.436 124.751 252.678C125.246 252.921 125.619 253.243 125.871 253.644C126.123 254.036 126.249 254.466 126.249 254.932C126.249 255.38 126.114 255.796 125.843 256.178C125.582 256.552 125.232 256.832 124.793 257.018C125.316 257.214 125.731 257.536 126.039 257.984C126.347 258.432 126.501 258.955 126.501 259.552C126.501 260.131 126.342 260.64 126.025 261.078C125.708 261.517 125.274 261.858 124.723 262.1C124.182 262.334 123.58 262.45 122.917 262.45ZM122.917 256.486C123.402 256.486 123.785 256.36 124.065 256.108C124.345 255.856 124.485 255.534 124.485 255.142C124.485 254.713 124.345 254.377 124.065 254.134C123.794 253.892 123.412 253.77 122.917 253.77C122.413 253.77 122.026 253.892 121.755 254.134C121.484 254.377 121.349 254.713 121.349 255.142C121.349 255.544 121.484 255.87 121.755 256.122C122.035 256.365 122.422 256.486 122.917 256.486ZM122.917 260.952C123.514 260.952 123.967 260.808 124.275 260.518C124.583 260.22 124.737 259.846 124.737 259.398C124.737 258.904 124.574 258.516 124.247 258.236C123.93 257.956 123.486 257.816 122.917 257.816C122.348 257.816 121.895 257.956 121.559 258.236C121.232 258.516 121.069 258.904 121.069 259.398C121.069 259.846 121.223 260.22 121.531 260.518C121.848 260.808 122.31 260.952 122.917 260.952ZM128.068 258.978V257.48H133.934V258.978H128.068ZM136.71 262.282V254.526L135.1 254.904V253.532L137.466 252.482H138.572V262.282H136.71ZM140.235 262.282V260.98C140.832 260.486 141.411 259.996 141.971 259.51C142.54 259.025 143.044 258.544 143.483 258.068C143.931 257.592 144.285 257.13 144.547 256.682C144.817 256.225 144.953 255.782 144.953 255.352C144.953 254.951 144.841 254.596 144.617 254.288C144.402 253.98 144.043 253.826 143.539 253.826C143.025 253.826 142.638 253.994 142.377 254.33C142.115 254.666 141.985 255.072 141.985 255.548H140.249C140.267 254.83 140.426 254.232 140.725 253.756C141.023 253.271 141.42 252.912 141.915 252.678C142.409 252.436 142.965 252.314 143.581 252.314C144.579 252.314 145.354 252.59 145.905 253.14C146.465 253.682 146.745 254.386 146.745 255.254C146.745 255.796 146.619 256.323 146.367 256.836C146.124 257.35 145.802 257.844 145.401 258.32C144.999 258.796 144.565 259.244 144.099 259.664C143.632 260.075 143.179 260.458 142.741 260.812H146.983V262.282H140.235ZM155.166 262.45C154.457 262.45 153.832 262.296 153.29 261.988C152.749 261.68 152.32 261.251 152.002 260.7C151.694 260.15 151.54 259.52 151.54 258.81C151.54 258.101 151.694 257.471 152.002 256.92C152.32 256.37 152.749 255.94 153.29 255.632C153.832 255.324 154.457 255.17 155.166 255.17C156.053 255.17 156.8 255.404 157.406 255.87C158.013 256.328 158.4 256.962 158.568 257.774H156.678C156.585 257.438 156.398 257.177 156.118 256.99C155.848 256.794 155.526 256.696 155.152 256.696C154.658 256.696 154.238 256.883 153.892 257.256C153.547 257.63 153.374 258.148 153.374 258.81C153.374 259.473 153.547 259.991 153.892 260.364C154.238 260.738 154.658 260.924 155.152 260.924C155.526 260.924 155.848 260.831 156.118 260.644C156.398 260.458 156.585 260.192 156.678 259.846H158.568C158.4 260.63 158.013 261.26 157.406 261.736C156.8 262.212 156.053 262.45 155.166 262.45ZM162.763 262.45C161.895 262.45 161.223 262.18 160.747 261.638C160.28 261.097 160.047 260.304 160.047 259.258V255.338H161.825V259.09C161.825 259.688 161.946 260.145 162.189 260.462C162.432 260.78 162.814 260.938 163.337 260.938C163.832 260.938 164.238 260.761 164.555 260.406C164.882 260.052 165.045 259.557 165.045 258.922V255.338H166.837V262.282H165.255L165.115 261.106C164.9 261.517 164.588 261.844 164.177 262.086C163.776 262.329 163.304 262.45 162.763 262.45ZM171.547 262.45C170.931 262.45 170.389 262.352 169.923 262.156C169.456 261.951 169.083 261.671 168.803 261.316C168.523 260.962 168.355 260.551 168.299 260.084H170.105C170.161 260.355 170.31 260.588 170.553 260.784C170.805 260.971 171.127 261.064 171.519 261.064C171.911 261.064 172.195 260.985 172.373 260.826C172.559 260.668 172.653 260.486 172.653 260.28C172.653 259.982 172.522 259.781 172.261 259.678C171.999 259.566 171.635 259.459 171.169 259.356C170.87 259.291 170.567 259.212 170.259 259.118C169.951 259.025 169.666 258.908 169.405 258.768C169.153 258.619 168.947 258.432 168.789 258.208C168.63 257.975 168.551 257.69 168.551 257.354C168.551 256.738 168.793 256.22 169.279 255.8C169.773 255.38 170.464 255.17 171.351 255.17C172.172 255.17 172.825 255.362 173.311 255.744C173.805 256.127 174.099 256.654 174.193 257.326H172.499C172.396 256.813 172.009 256.556 171.337 256.556C171.001 256.556 170.739 256.622 170.553 256.752C170.375 256.883 170.287 257.046 170.287 257.242C170.287 257.448 170.422 257.611 170.693 257.732C170.963 257.854 171.323 257.966 171.771 258.068C172.256 258.18 172.699 258.306 173.101 258.446C173.511 258.577 173.838 258.778 174.081 259.048C174.323 259.31 174.445 259.688 174.445 260.182C174.454 260.612 174.342 260.999 174.109 261.344C173.875 261.69 173.539 261.96 173.101 262.156C172.662 262.352 172.144 262.45 171.547 262.45ZM178.907 262.282C178.179 262.282 177.596 262.105 177.157 261.75C176.719 261.396 176.499 260.766 176.499 259.86V256.836H175.309V255.338H176.499L176.709 253.476H178.291V255.338H180.167V256.836H178.291V259.874C178.291 260.21 178.361 260.444 178.501 260.574C178.651 260.696 178.903 260.756 179.257 260.756H180.125V262.282H178.907ZM184.86 262.45C184.188 262.45 183.581 262.296 183.04 261.988C182.508 261.68 182.083 261.256 181.766 260.714C181.458 260.164 181.304 259.529 181.304 258.81C181.304 258.092 181.463 257.462 181.78 256.92C182.097 256.37 182.522 255.94 183.054 255.632C183.595 255.324 184.202 255.17 184.874 255.17C185.537 255.17 186.134 255.324 186.666 255.632C187.207 255.94 187.632 256.37 187.94 256.92C188.257 257.462 188.416 258.092 188.416 258.81C188.416 259.529 188.257 260.164 187.94 260.714C187.632 261.256 187.207 261.68 186.666 261.988C186.125 262.296 185.523 262.45 184.86 262.45ZM184.86 260.896C185.327 260.896 185.733 260.724 186.078 260.378C186.423 260.024 186.596 259.501 186.596 258.81C186.596 258.12 186.423 257.602 186.078 257.256C185.733 256.902 185.331 256.724 184.874 256.724C184.398 256.724 183.987 256.902 183.642 257.256C183.306 257.602 183.138 258.12 183.138 258.81C183.138 259.501 183.306 260.024 183.642 260.378C183.987 260.724 184.393 260.896 184.86 260.896ZM190.018 262.282V255.338H191.6L191.754 256.276C191.978 255.94 192.272 255.674 192.636 255.478C193.01 255.273 193.439 255.17 193.924 255.17C194.998 255.17 195.758 255.586 196.206 256.416C196.458 256.034 196.794 255.73 197.214 255.506C197.644 255.282 198.11 255.17 198.614 255.17C199.52 255.17 200.215 255.441 200.7 255.982C201.186 256.524 201.428 257.317 201.428 258.362V262.282H199.636V258.53C199.636 257.933 199.52 257.476 199.286 257.158C199.062 256.841 198.712 256.682 198.236 256.682C197.751 256.682 197.359 256.86 197.06 257.214C196.771 257.569 196.626 258.064 196.626 258.698V262.282H194.834V258.53C194.834 257.933 194.718 257.476 194.484 257.158C194.251 256.841 193.892 256.682 193.406 256.682C192.93 256.682 192.543 256.86 192.244 257.214C191.955 257.569 191.81 258.064 191.81 258.698V262.282H190.018ZM206.504 262.45C205.804 262.45 205.183 262.301 204.642 262.002C204.1 261.704 203.676 261.284 203.368 260.742C203.06 260.201 202.906 259.576 202.906 258.866C202.906 258.148 203.055 257.508 203.354 256.948C203.662 256.388 204.082 255.954 204.614 255.646C205.155 255.329 205.79 255.17 206.518 255.17C207.199 255.17 207.801 255.32 208.324 255.618C208.846 255.917 209.252 256.328 209.542 256.85C209.84 257.364 209.99 257.938 209.99 258.572C209.99 258.675 209.985 258.782 209.976 258.894C209.976 259.006 209.971 259.123 209.962 259.244H204.684C204.721 259.786 204.908 260.21 205.244 260.518C205.589 260.826 206.004 260.98 206.49 260.98C206.854 260.98 207.157 260.901 207.4 260.742C207.652 260.574 207.838 260.36 207.96 260.098H209.78C209.649 260.537 209.43 260.938 209.122 261.302C208.823 261.657 208.45 261.937 208.002 262.142C207.563 262.348 207.064 262.45 206.504 262.45ZM206.518 256.626C206.079 256.626 205.692 256.752 205.356 257.004C205.02 257.247 204.805 257.62 204.712 258.124H208.17C208.142 257.667 207.974 257.303 207.666 257.032C207.358 256.762 206.975 256.626 206.518 256.626ZM211.497 262.282V255.338H213.093L213.261 256.64C213.513 256.192 213.854 255.838 214.283 255.576C214.722 255.306 215.235 255.17 215.823 255.17V257.06H215.319C214.927 257.06 214.577 257.121 214.269 257.242C213.961 257.364 213.718 257.574 213.541 257.872C213.373 258.171 213.289 258.586 213.289 259.118V262.282H211.497ZM219.918 262.45C219.302 262.45 218.76 262.352 218.294 262.156C217.827 261.951 217.454 261.671 217.174 261.316C216.894 260.962 216.726 260.551 216.67 260.084H218.476C218.532 260.355 218.681 260.588 218.924 260.784C219.176 260.971 219.498 261.064 219.89 261.064C220.282 261.064 220.566 260.985 220.744 260.826C220.93 260.668 221.024 260.486 221.024 260.28C221.024 259.982 220.893 259.781 220.632 259.678C220.37 259.566 220.006 259.459 219.54 259.356C219.241 259.291 218.938 259.212 218.63 259.118C218.322 259.025 218.037 258.908 217.776 258.768C217.524 258.619 217.318 258.432 217.16 258.208C217.001 257.975 216.922 257.69 216.922 257.354C216.922 256.738 217.164 256.22 217.65 255.8C218.144 255.38 218.835 255.17 219.722 255.17C220.543 255.17 221.196 255.362 221.682 255.744C222.176 256.127 222.47 256.654 222.564 257.326H220.87C220.767 256.813 220.38 256.556 219.708 256.556C219.372 256.556 219.11 256.622 218.924 256.752C218.746 256.883 218.658 257.046 218.658 257.242C218.658 257.448 218.793 257.611 219.064 257.732C219.334 257.854 219.694 257.966 220.142 258.068C220.627 258.18 221.07 258.306 221.472 258.446C221.882 258.577 222.209 258.778 222.452 259.048C222.694 259.31 222.816 259.688 222.816 260.182C222.825 260.612 222.713 260.999 222.48 261.344C222.246 261.69 221.91 261.96 221.472 262.156C221.033 262.352 220.515 262.45 219.918 262.45Z" fill="#0B5604"/>
</g>
<g style="mix-blend-mode:multiply">
<rect x="241.5" y="243.282" width="131" height="28" rx="14" fill="#EFFFEE"/>
<path d="M254.956 262.282L252.436 257.886V256.85H253.276C253.612 256.85 253.906 256.804 254.158 256.71C254.42 256.608 254.634 256.463 254.802 256.276C254.98 256.09 255.101 255.866 255.166 255.604H252.436V254.568H255.152C255.096 254.326 254.998 254.111 254.858 253.924C254.728 253.738 254.55 253.593 254.326 253.49C254.112 253.378 253.85 253.322 253.542 253.322H252.436V252.286H258.75V253.322H256.552C256.711 253.5 256.842 253.691 256.944 253.896C257.056 254.102 257.131 254.326 257.168 254.568H258.75V255.604H257.196C257.103 256.295 256.837 256.836 256.398 257.228C255.96 257.611 255.395 257.872 254.704 258.012L257.448 262.282H254.956ZM261.554 262.282V254.526L259.944 254.904V253.532L262.31 252.482H263.416V262.282H261.554ZM265.078 262.282V260.98C265.676 260.486 266.254 259.996 266.814 259.51C267.384 259.025 267.888 258.544 268.326 258.068C268.774 257.592 269.129 257.13 269.39 256.682C269.661 256.225 269.796 255.782 269.796 255.352C269.796 254.951 269.684 254.596 269.46 254.288C269.246 253.98 268.886 253.826 268.382 253.826C267.869 253.826 267.482 253.994 267.22 254.33C266.959 254.666 266.828 255.072 266.828 255.548H265.092C265.111 254.83 265.27 254.232 265.568 253.756C265.867 253.271 266.264 252.912 266.758 252.678C267.253 252.436 267.808 252.314 268.424 252.314C269.423 252.314 270.198 252.59 270.748 253.14C271.308 253.682 271.588 254.386 271.588 255.254C271.588 255.796 271.462 256.323 271.21 256.836C270.968 257.35 270.646 257.844 270.244 258.32C269.843 258.796 269.409 259.244 268.942 259.664C268.476 260.075 268.023 260.458 267.584 260.812H271.826V262.282H265.078ZM272.558 263.906L273.356 260.42H275.092L273.734 263.906H272.558ZM281.035 262.282V260.462H276.205V259.034L280.797 252.482H282.827V258.908H284.115V260.462H282.827V262.282H281.035ZM278.123 258.908H281.147V254.456L278.123 258.908ZM289.541 262.45C288.636 262.45 287.861 262.24 287.217 261.82C286.573 261.391 286.074 260.798 285.719 260.042C285.374 259.277 285.201 258.39 285.201 257.382C285.201 256.384 285.374 255.502 285.719 254.736C286.074 253.971 286.573 253.378 287.217 252.958C287.861 252.529 288.636 252.314 289.541 252.314C290.447 252.314 291.221 252.529 291.865 252.958C292.509 253.378 293.004 253.971 293.349 254.736C293.704 255.502 293.881 256.384 293.881 257.382C293.881 258.39 293.704 259.277 293.349 260.042C293.004 260.798 292.509 261.391 291.865 261.82C291.221 262.24 290.447 262.45 289.541 262.45ZM289.541 260.84C290.279 260.84 290.881 260.532 291.347 259.916C291.814 259.3 292.047 258.456 292.047 257.382C292.047 256.309 291.814 255.464 291.347 254.848C290.881 254.232 290.279 253.924 289.541 253.924C288.795 253.924 288.188 254.232 287.721 254.848C287.264 255.464 287.035 256.309 287.035 257.382C287.035 258.456 287.264 259.3 287.721 259.916C288.188 260.532 288.795 260.84 289.541 260.84ZM299.481 262.45C298.575 262.45 297.801 262.24 297.157 261.82C296.513 261.391 296.013 260.798 295.659 260.042C295.313 259.277 295.141 258.39 295.141 257.382C295.141 256.384 295.313 255.502 295.659 254.736C296.013 253.971 296.513 253.378 297.157 252.958C297.801 252.529 298.575 252.314 299.481 252.314C300.386 252.314 301.161 252.529 301.805 252.958C302.449 253.378 302.943 253.971 303.289 254.736C303.643 255.502 303.821 256.384 303.821 257.382C303.821 258.39 303.643 259.277 303.289 260.042C302.943 260.798 302.449 261.391 301.805 261.82C301.161 262.24 300.386 262.45 299.481 262.45ZM299.481 260.84C300.218 260.84 300.82 260.532 301.287 259.916C301.753 259.3 301.987 258.456 301.987 257.382C301.987 256.309 301.753 255.464 301.287 254.848C300.82 254.232 300.218 253.924 299.481 253.924C298.734 253.924 298.127 254.232 297.661 254.848C297.203 255.464 296.975 256.309 296.975 257.382C296.975 258.456 297.203 259.3 297.661 259.916C298.127 260.532 298.734 260.84 299.481 260.84ZM308.696 262.282V255.338H310.292L310.46 256.64C310.712 256.192 311.053 255.838 311.482 255.576C311.921 255.306 312.434 255.17 313.022 255.17V257.06H312.518C312.126 257.06 311.776 257.121 311.468 257.242C311.16 257.364 310.917 257.574 310.74 257.872C310.572 258.171 310.488 258.586 310.488 259.118V262.282H308.696ZM317.498 262.45C316.798 262.45 316.177 262.301 315.636 262.002C315.095 261.704 314.67 261.284 314.362 260.742C314.054 260.201 313.9 259.576 313.9 258.866C313.9 258.148 314.049 257.508 314.348 256.948C314.656 256.388 315.076 255.954 315.608 255.646C316.149 255.329 316.784 255.17 317.512 255.17C318.193 255.17 318.795 255.32 319.318 255.618C319.841 255.917 320.247 256.328 320.536 256.85C320.835 257.364 320.984 257.938 320.984 258.572C320.984 258.675 320.979 258.782 320.97 258.894C320.97 259.006 320.965 259.123 320.956 259.244H315.678C315.715 259.786 315.902 260.21 316.238 260.518C316.583 260.826 316.999 260.98 317.484 260.98C317.848 260.98 318.151 260.901 318.394 260.742C318.646 260.574 318.833 260.36 318.954 260.098H320.774C320.643 260.537 320.424 260.938 320.116 261.302C319.817 261.657 319.444 261.937 318.996 262.142C318.557 262.348 318.058 262.45 317.498 262.45ZM317.512 256.626C317.073 256.626 316.686 256.752 316.35 257.004C316.014 257.247 315.799 257.62 315.706 258.124H319.164C319.136 257.667 318.968 257.303 318.66 257.032C318.352 256.762 317.969 256.626 317.512 256.626ZM324.094 262.282L321.546 255.338H323.422L325.186 260.588L326.95 255.338H328.826L326.264 262.282H324.094ZM332.988 262.45C332.288 262.45 331.667 262.301 331.126 262.002C330.585 261.704 330.16 261.284 329.852 260.742C329.544 260.201 329.39 259.576 329.39 258.866C329.39 258.148 329.539 257.508 329.838 256.948C330.146 256.388 330.566 255.954 331.098 255.646C331.639 255.329 332.274 255.17 333.002 255.17C333.683 255.17 334.285 255.32 334.808 255.618C335.331 255.917 335.737 256.328 336.026 256.85C336.325 257.364 336.474 257.938 336.474 258.572C336.474 258.675 336.469 258.782 336.46 258.894C336.46 259.006 336.455 259.123 336.446 259.244H331.168C331.205 259.786 331.392 260.21 331.728 260.518C332.073 260.826 332.489 260.98 332.974 260.98C333.338 260.98 333.641 260.901 333.884 260.742C334.136 260.574 334.323 260.36 334.444 260.098H336.264C336.133 260.537 335.914 260.938 335.606 261.302C335.307 261.657 334.934 261.937 334.486 262.142C334.047 262.348 333.548 262.45 332.988 262.45ZM333.002 256.626C332.563 256.626 332.176 256.752 331.84 257.004C331.504 257.247 331.289 257.62 331.196 258.124H334.654C334.626 257.667 334.458 257.303 334.15 257.032C333.842 256.762 333.459 256.626 333.002 256.626ZM337.981 262.282V255.338H339.563L339.703 256.514C339.918 256.104 340.226 255.777 340.627 255.534C341.038 255.292 341.519 255.17 342.069 255.17C342.928 255.17 343.595 255.441 344.071 255.982C344.547 256.524 344.785 257.317 344.785 258.362V262.282H342.993V258.53C342.993 257.933 342.872 257.476 342.629 257.158C342.387 256.841 342.009 256.682 341.495 256.682C340.991 256.682 340.576 256.86 340.249 257.214C339.932 257.569 339.773 258.064 339.773 258.698V262.282H337.981ZM349.103 262.45C348.235 262.45 347.563 262.18 347.087 261.638C346.62 261.097 346.387 260.304 346.387 259.258V255.338H348.165V259.09C348.165 259.688 348.286 260.145 348.529 260.462C348.772 260.78 349.154 260.938 349.677 260.938C350.172 260.938 350.578 260.761 350.895 260.406C351.222 260.052 351.385 259.557 351.385 258.922V255.338H353.177V262.282H351.595L351.455 261.106C351.24 261.517 350.928 261.844 350.517 262.086C350.116 262.329 349.644 262.45 349.103 262.45ZM358.39 262.45C357.69 262.45 357.07 262.301 356.528 262.002C355.987 261.704 355.562 261.284 355.254 260.742C354.946 260.201 354.792 259.576 354.792 258.866C354.792 258.148 354.942 257.508 355.24 256.948C355.548 256.388 355.968 255.954 356.5 255.646C357.042 255.329 357.676 255.17 358.404 255.17C359.086 255.17 359.688 255.32 360.21 255.618C360.733 255.917 361.139 256.328 361.428 256.85C361.727 257.364 361.876 257.938 361.876 258.572C361.876 258.675 361.872 258.782 361.862 258.894C361.862 259.006 361.858 259.123 361.848 259.244H356.57C356.608 259.786 356.794 260.21 357.13 260.518C357.476 260.826 357.891 260.98 358.376 260.98C358.74 260.98 359.044 260.901 359.286 260.742C359.538 260.574 359.725 260.36 359.846 260.098H361.666C361.536 260.537 361.316 260.938 361.008 261.302C360.71 261.657 360.336 261.937 359.888 262.142C359.45 262.348 358.95 262.45 358.39 262.45ZM358.404 256.626C357.966 256.626 357.578 256.752 357.242 257.004C356.906 257.247 356.692 257.62 356.598 258.124H360.056C360.028 257.667 359.86 257.303 359.552 257.032C359.244 256.762 358.862 256.626 358.404 256.626Z" fill="#0B5604"/>
</g>
<rect x="96.5" y="43.7822" width="288" height="254" rx="19.5" stroke="#88857B"/>
<path d="M375.468 32.6823C377.486 26.0806 379.686 19.5742 381.979 13.0654" stroke="#B0AB9E" stroke-width="3.08185" stroke-miterlimit="1.5" stroke-linecap="round" stroke-linejoin="round"/>
<path d="M387.684 41.9792C392.337 35.6925 397.969 30.2864 403.208 24.5173" stroke="#B0AB9E" stroke-width="3.08185" stroke-miterlimit="1.5" stroke-linecap="round" stroke-linejoin="round"/>
<path d="M395.854 54.5867C401.788 51.7986 408.191 49.5767 414.72 48.9252" stroke="#B0AB9E" stroke-width="3.08185" stroke-miterlimit="1.5" stroke-linecap="round" stroke-linejoin="round"/>
<path d="M59.4373 289.491C51.7579 291.502 42.0803 294.258 37.2454 301.156C32.3827 308.093 37.0121 321.517 46.2934 321.952C55.4575 322.38 62.3513 315.685 68.5857 309.952" stroke="#E2DBCB" stroke-width="5" stroke-miterlimit="1.5" stroke-linecap="round" stroke-linejoin="round"/>
<path d="M78.2249 322.248C76.6535 327.357 71.9645 331.466 68.1808 334.991C60.9815 341.696 52.6835 347.174 42.42 346.93C25.1416 346.516 8.09808 330.682 8.61413 313.087C8.79229 307.024 11.6153 302.153 14.695 297.107C18.3422 291.133 23.7645 286.433 29.6256 282.642C36.6831 278.078 44.9111 273.755 53.3385 272.559" stroke="#E2DBCB" stroke-width="5" stroke-miterlimit="1.5" stroke-linecap="round" stroke-linejoin="round"/>
<path d="M88.7404 334.293C87.1183 341.115 80.5721 346.498 76.5785 351.878C60.123 374.04 25.9744 382.96 2.1038 367.209C-18.7877 353.424 -32.5312 322.896 -23.6482 297.622C-12.7801 266.701 26.6246 256.665 46.1947 259.159" stroke="#E2DBCB" stroke-width="5" stroke-miterlimit="1.5" stroke-linecap="round" stroke-linejoin="round"/>
</g>
<defs>
<clipPath id="clip0_1784_27195">
<rect y="0.282227" width="481" height="342" rx="12" fill="white"/>
</clipPath>
</defs>
</svg>
