<svg width="481" height="343" viewBox="0 0 481 343" fill="none" xmlns="http://www.w3.org/2000/svg">
<g clip-path="url(#clip0_1784_27236)">
<rect y="0.282227" width="481" height="342" rx="12" fill="#FAF6EA"/>
<rect x="81" y="131.282" width="356" height="99" rx="12" fill="#EEDDB1"/>
<rect x="49.5" y="115.282" width="382" height="105" rx="19.5" fill="white"/>
<path d="M73.36 153.782V139.782H78.5C79.62 139.782 80.54 139.976 81.26 140.362C81.9933 140.736 82.54 141.249 82.9 141.902C83.26 142.542 83.44 143.256 83.44 144.042C83.44 144.896 83.2133 145.676 82.76 146.382C82.32 147.089 81.6267 147.602 80.68 147.922L83.58 153.782H80.64L78.04 148.262H75.92V153.782H73.36ZM75.92 146.382H78.34C79.1933 146.382 79.82 146.176 80.22 145.762C80.62 145.349 80.82 144.802 80.82 144.122C80.82 143.456 80.62 142.922 80.22 142.522C79.8333 142.122 79.2 141.922 78.32 141.922H75.92V146.382ZM89.9755 154.022C88.9755 154.022 88.0888 153.809 87.3155 153.382C86.5421 152.956 85.9355 152.356 85.4955 151.582C85.0555 150.809 84.8355 149.916 84.8355 148.902C84.8355 147.876 85.0488 146.962 85.4755 146.162C85.9155 145.362 86.5155 144.742 87.2755 144.302C88.0488 143.849 88.9555 143.622 89.9955 143.622C90.9688 143.622 91.8288 143.836 92.5755 144.262C93.3221 144.689 93.9021 145.276 94.3155 146.022C94.7421 146.756 94.9555 147.576 94.9555 148.482C94.9555 148.629 94.9488 148.782 94.9355 148.942C94.9355 149.102 94.9288 149.269 94.9155 149.442H87.3755C87.4288 150.216 87.6955 150.822 88.1755 151.262C88.6688 151.702 89.2621 151.922 89.9555 151.922C90.4755 151.922 90.9088 151.809 91.2555 151.582C91.6155 151.342 91.8821 151.036 92.0555 150.662H94.6555C94.4688 151.289 94.1555 151.862 93.7155 152.382C93.2888 152.889 92.7555 153.289 92.1155 153.582C91.4888 153.876 90.7755 154.022 89.9755 154.022ZM89.9955 145.702C89.3688 145.702 88.8155 145.882 88.3355 146.242C87.8555 146.589 87.5488 147.122 87.4155 147.842H92.3555C92.3155 147.189 92.0755 146.669 91.6355 146.282C91.1955 145.896 90.6488 145.702 89.9955 145.702ZM99.398 153.782L95.758 143.862H98.438L100.958 151.362L103.478 143.862H106.158L102.498 153.782H99.398ZM112.104 154.022C111.104 154.022 110.218 153.809 109.444 153.382C108.671 152.956 108.064 152.356 107.624 151.582C107.184 150.809 106.964 149.916 106.964 148.902C106.964 147.876 107.178 146.962 107.604 146.162C108.044 145.362 108.644 144.742 109.404 144.302C110.178 143.849 111.084 143.622 112.124 143.622C113.098 143.622 113.958 143.836 114.704 144.262C115.451 144.689 116.031 145.276 116.444 146.022C116.871 146.756 117.084 147.576 117.084 148.482C117.084 148.629 117.078 148.782 117.064 148.942C117.064 149.102 117.058 149.269 117.044 149.442H109.504C109.558 150.216 109.824 150.822 110.304 151.262C110.798 151.702 111.391 151.922 112.084 151.922C112.604 151.922 113.038 151.809 113.384 151.582C113.744 151.342 114.011 151.036 114.184 150.662H116.784C116.598 151.289 116.284 151.862 115.844 152.382C115.418 152.889 114.884 153.289 114.244 153.582C113.618 153.876 112.904 154.022 112.104 154.022ZM112.124 145.702C111.498 145.702 110.944 145.882 110.464 146.242C109.984 146.589 109.678 147.122 109.544 147.842H114.484C114.444 147.189 114.204 146.669 113.764 146.282C113.324 145.896 112.778 145.702 112.124 145.702ZM119.238 153.782V143.862H121.498L121.698 145.542C122.004 144.956 122.444 144.489 123.018 144.142C123.604 143.796 124.291 143.622 125.078 143.622C126.304 143.622 127.258 144.009 127.938 144.782C128.617 145.556 128.957 146.689 128.957 148.182V153.782H126.398V148.422C126.398 147.569 126.224 146.916 125.878 146.462C125.531 146.009 124.991 145.782 124.258 145.782C123.538 145.782 122.944 146.036 122.478 146.542C122.024 147.049 121.798 147.756 121.798 148.662V153.782H119.238ZM135.125 154.022C133.885 154.022 132.925 153.636 132.245 152.862C131.579 152.089 131.245 150.956 131.245 149.462V143.862H133.785V149.222C133.785 150.076 133.959 150.729 134.305 151.182C134.652 151.636 135.199 151.862 135.945 151.862C136.652 151.862 137.232 151.609 137.685 151.102C138.152 150.596 138.385 149.889 138.385 148.982V143.862H140.945V153.782H138.685L138.485 152.102C138.179 152.689 137.732 153.156 137.145 153.502C136.572 153.849 135.899 154.022 135.125 154.022ZM148.393 154.022C147.393 154.022 146.507 153.809 145.733 153.382C144.96 152.956 144.353 152.356 143.913 151.582C143.473 150.809 143.253 149.916 143.253 148.902C143.253 147.876 143.467 146.962 143.893 146.162C144.333 145.362 144.933 144.742 145.693 144.302C146.467 143.849 147.373 143.622 148.413 143.622C149.387 143.622 150.247 143.836 150.993 144.262C151.74 144.689 152.32 145.276 152.733 146.022C153.16 146.756 153.373 147.576 153.373 148.482C153.373 148.629 153.367 148.782 153.353 148.942C153.353 149.102 153.347 149.269 153.333 149.442H145.793C145.847 150.216 146.113 150.822 146.593 151.262C147.087 151.702 147.68 151.922 148.373 151.922C148.893 151.922 149.327 151.809 149.673 151.582C150.033 151.342 150.3 151.036 150.473 150.662H153.073C152.887 151.289 152.573 151.862 152.133 152.382C151.707 152.889 151.173 153.289 150.533 153.582C149.907 153.876 149.193 154.022 148.393 154.022ZM148.413 145.702C147.787 145.702 147.233 145.882 146.753 146.242C146.273 146.589 145.967 147.122 145.833 147.842H150.773C150.733 147.189 150.493 146.669 150.053 146.282C149.613 145.896 149.067 145.702 148.413 145.702ZM163.612 153.782V141.842H159.532V139.782H170.272V141.842H166.172V153.782H163.612ZM173.829 154.022C172.976 154.022 172.276 153.889 171.729 153.622C171.183 153.342 170.776 152.976 170.509 152.522C170.243 152.069 170.109 151.569 170.109 151.022C170.109 150.102 170.469 149.356 171.189 148.782C171.909 148.209 172.989 147.922 174.429 147.922H176.949V147.682C176.949 147.002 176.756 146.502 176.369 146.182C175.983 145.862 175.503 145.702 174.929 145.702C174.409 145.702 173.956 145.829 173.569 146.082C173.183 146.322 172.943 146.682 172.849 147.162H170.349C170.416 146.442 170.656 145.816 171.069 145.282C171.496 144.749 172.043 144.342 172.709 144.062C173.376 143.769 174.123 143.622 174.949 143.622C176.363 143.622 177.476 143.976 178.289 144.682C179.103 145.389 179.509 146.389 179.509 147.682V153.782H177.329L177.089 152.182C176.796 152.716 176.383 153.156 175.849 153.502C175.329 153.849 174.656 154.022 173.829 154.022ZM174.409 152.022C175.143 152.022 175.709 151.782 176.109 151.302C176.523 150.822 176.783 150.229 176.889 149.522H174.709C174.029 149.522 173.543 149.649 173.249 149.902C172.956 150.142 172.809 150.442 172.809 150.802C172.809 151.189 172.956 151.489 173.249 151.702C173.543 151.916 173.929 152.022 174.409 152.022ZM181.952 153.782V143.862H184.232L184.472 145.722C184.832 145.082 185.319 144.576 185.932 144.202C186.559 143.816 187.292 143.622 188.132 143.622V146.322H187.412C186.852 146.322 186.352 146.409 185.912 146.582C185.472 146.756 185.126 147.056 184.872 147.482C184.632 147.909 184.512 148.502 184.512 149.262V153.782H181.952ZM193.848 150.822C193.368 150.822 192.921 150.769 192.508 150.662L191.768 151.402C191.994 151.522 192.301 151.622 192.688 151.702C193.074 151.782 193.701 151.862 194.568 151.942C195.888 152.062 196.848 152.376 197.448 152.882C198.048 153.389 198.348 154.089 198.348 154.982C198.348 155.569 198.188 156.122 197.868 156.642C197.548 157.176 197.054 157.602 196.388 157.922C195.721 158.256 194.868 158.422 193.828 158.422C192.414 158.422 191.274 158.156 190.408 157.622C189.541 157.102 189.108 156.316 189.108 155.262C189.108 154.369 189.541 153.596 190.408 152.942C190.141 152.822 189.908 152.696 189.708 152.562C189.521 152.429 189.354 152.289 189.208 152.142V151.682L190.948 149.842C190.174 149.162 189.788 148.289 189.788 147.222C189.788 146.556 189.948 145.949 190.268 145.402C190.601 144.856 191.068 144.422 191.668 144.102C192.268 143.782 192.994 143.622 193.848 143.622C194.408 143.622 194.928 143.702 195.408 143.862H199.168V145.422L197.468 145.542C197.734 146.049 197.868 146.609 197.868 147.222C197.868 147.889 197.708 148.496 197.388 149.042C197.068 149.589 196.601 150.022 195.988 150.342C195.388 150.662 194.674 150.822 193.848 150.822ZM193.848 148.862C194.368 148.862 194.794 148.722 195.128 148.442C195.474 148.162 195.648 147.762 195.648 147.242C195.648 146.722 195.474 146.322 195.128 146.042C194.794 145.762 194.368 145.622 193.848 145.622C193.301 145.622 192.861 145.762 192.528 146.042C192.194 146.322 192.028 146.722 192.028 147.242C192.028 147.762 192.194 148.162 192.528 148.442C192.861 148.722 193.301 148.862 193.848 148.862ZM191.448 155.002C191.448 155.496 191.674 155.862 192.128 156.102C192.594 156.356 193.161 156.482 193.828 156.482C194.468 156.482 194.988 156.349 195.388 156.082C195.788 155.829 195.988 155.482 195.988 155.042C195.988 154.682 195.854 154.382 195.588 154.142C195.334 153.902 194.821 153.756 194.048 153.702C193.501 153.662 192.994 153.602 192.528 153.522C192.141 153.736 191.861 153.969 191.688 154.222C191.528 154.476 191.448 154.736 191.448 155.002ZM205.464 154.022C204.464 154.022 203.577 153.809 202.804 153.382C202.03 152.956 201.424 152.356 200.984 151.582C200.544 150.809 200.324 149.916 200.324 148.902C200.324 147.876 200.537 146.962 200.964 146.162C201.404 145.362 202.004 144.742 202.764 144.302C203.537 143.849 204.444 143.622 205.484 143.622C206.457 143.622 207.317 143.836 208.064 144.262C208.81 144.689 209.39 145.276 209.804 146.022C210.23 146.756 210.444 147.576 210.444 148.482C210.444 148.629 210.437 148.782 210.424 148.942C210.424 149.102 210.417 149.269 210.404 149.442H202.864C202.917 150.216 203.184 150.822 203.664 151.262C204.157 151.702 204.75 151.922 205.444 151.922C205.964 151.922 206.397 151.809 206.744 151.582C207.104 151.342 207.37 151.036 207.544 150.662H210.144C209.957 151.289 209.644 151.862 209.204 152.382C208.777 152.889 208.244 153.289 207.604 153.582C206.977 153.876 206.264 154.022 205.464 154.022ZM205.484 145.702C204.857 145.702 204.304 145.882 203.824 146.242C203.344 146.589 203.037 147.122 202.904 147.842H207.844C207.804 147.189 207.564 146.669 207.124 146.282C206.684 145.896 206.137 145.702 205.484 145.702ZM216.841 153.782C215.801 153.782 214.968 153.529 214.341 153.022C213.714 152.516 213.401 151.616 213.401 150.322V146.002H211.701V143.862H213.401L213.701 141.202H215.961V143.862H218.641V146.002H215.961V150.342C215.961 150.822 216.061 151.156 216.261 151.342C216.474 151.516 216.834 151.602 217.341 151.602H218.581V153.782H216.841Z" fill="black"/>
<g style="mix-blend-mode:multiply">
<rect x="315" y="132.782" width="94" height="28" rx="14" fill="#EFFFEE"/>
<path d="M329.945 152.782L326.543 146.842V146.05H326.939C327.575 146.05 328.109 145.99 328.541 145.87C328.985 145.75 329.333 145.552 329.585 145.276C329.837 145 329.987 144.622 330.035 144.142H326.543V142.99H330.017C329.933 142.546 329.765 142.186 329.513 141.91C329.261 141.622 328.919 141.412 328.487 141.28C328.067 141.148 327.551 141.082 326.939 141.082H326.543V139.93H333.995V141.082H330.593C330.869 141.31 331.097 141.58 331.277 141.892C331.457 142.204 331.571 142.57 331.619 142.99H333.995V144.142H331.655C331.571 145.018 331.235 145.702 330.647 146.194C330.071 146.674 329.303 146.98 328.343 147.112L331.781 152.782H329.945ZM340.732 152.998C339.916 152.998 339.172 152.854 338.5 152.566C337.84 152.266 337.312 151.816 336.916 151.216C336.52 150.616 336.31 149.866 336.286 148.966H338.176C338.2 149.638 338.428 150.208 338.86 150.676C339.304 151.132 339.928 151.36 340.732 151.36C341.5 151.36 342.088 151.15 342.496 150.73C342.904 150.298 343.108 149.764 343.108 149.128C343.108 148.36 342.832 147.79 342.28 147.418C341.74 147.046 341.074 146.86 340.282 146.86H339.346V145.276H340.3C341.008 145.276 341.578 145.108 342.01 144.772C342.454 144.436 342.676 143.962 342.676 143.35C342.676 142.834 342.502 142.414 342.154 142.09C341.818 141.766 341.338 141.604 340.714 141.604C340.066 141.604 339.556 141.796 339.184 142.18C338.812 142.552 338.608 143.02 338.572 143.584H336.682C336.706 142.852 336.886 142.216 337.222 141.676C337.57 141.136 338.044 140.716 338.644 140.416C339.244 140.116 339.934 139.966 340.714 139.966C341.554 139.966 342.256 140.116 342.82 140.416C343.396 140.704 343.828 141.1 344.116 141.604C344.416 142.096 344.566 142.636 344.566 143.224C344.566 143.896 344.38 144.484 344.008 144.988C343.636 145.492 343.138 145.828 342.514 145.996C343.234 146.152 343.828 146.506 344.296 147.058C344.764 147.598 344.998 148.3 344.998 149.164C344.998 149.86 344.836 150.502 344.512 151.09C344.188 151.666 343.708 152.128 343.072 152.476C342.436 152.824 341.656 152.998 340.732 152.998ZM353.094 152.782V150.262H346.776V148.75L352.788 140.182H354.984V148.606H356.748V150.262H354.984V152.782H353.094ZM348.846 148.606H353.202V142.288L348.846 148.606ZM357.433 154.906L358.477 150.658H360.367L358.711 154.906H357.433ZM367.281 152.998C366.141 152.998 365.157 152.728 364.329 152.188C363.513 151.636 362.883 150.874 362.439 149.902C362.007 148.918 361.791 147.778 361.791 146.482C361.791 145.186 362.007 144.052 362.439 143.08C362.883 142.096 363.513 141.334 364.329 140.794C365.157 140.242 366.141 139.966 367.281 139.966C368.421 139.966 369.399 140.242 370.215 140.794C371.031 141.334 371.655 142.096 372.087 143.08C372.531 144.052 372.753 145.186 372.753 146.482C372.753 147.778 372.531 148.918 372.087 149.902C371.655 150.874 371.031 151.636 370.215 152.188C369.399 152.728 368.421 152.998 367.281 152.998ZM367.281 151.288C367.965 151.288 368.571 151.096 369.099 150.712C369.639 150.328 370.059 149.776 370.359 149.056C370.659 148.336 370.809 147.478 370.809 146.482C370.809 145.486 370.659 144.628 370.359 143.908C370.059 143.188 369.639 142.636 369.099 142.252C368.571 141.868 367.965 141.676 367.281 141.676C366.585 141.676 365.973 141.868 365.445 142.252C364.917 142.636 364.503 143.188 364.203 143.908C363.903 144.628 363.753 145.486 363.753 146.482C363.753 147.478 363.903 148.336 364.203 149.056C364.503 149.776 364.917 150.328 365.445 150.712C365.973 151.096 366.585 151.288 367.281 151.288ZM379.92 152.998C378.78 152.998 377.796 152.728 376.968 152.188C376.152 151.636 375.522 150.874 375.078 149.902C374.646 148.918 374.43 147.778 374.43 146.482C374.43 145.186 374.646 144.052 375.078 143.08C375.522 142.096 376.152 141.334 376.968 140.794C377.796 140.242 378.78 139.966 379.92 139.966C381.06 139.966 382.038 140.242 382.854 140.794C383.67 141.334 384.294 142.096 384.726 143.08C385.17 144.052 385.392 145.186 385.392 146.482C385.392 147.778 385.17 148.918 384.726 149.902C384.294 150.874 383.67 151.636 382.854 152.188C382.038 152.728 381.06 152.998 379.92 152.998ZM379.92 151.288C380.604 151.288 381.21 151.096 381.738 150.712C382.278 150.328 382.698 149.776 382.998 149.056C383.298 148.336 383.448 147.478 383.448 146.482C383.448 145.486 383.298 144.628 382.998 143.908C382.698 143.188 382.278 142.636 381.738 142.252C381.21 141.868 380.604 141.676 379.92 141.676C379.224 141.676 378.612 141.868 378.084 142.252C377.556 142.636 377.142 143.188 376.842 143.908C376.542 144.628 376.392 145.486 376.392 146.482C376.392 147.478 376.542 148.336 376.842 149.056C377.142 149.776 377.556 150.328 378.084 150.712C378.612 151.096 379.224 151.288 379.92 151.288ZM392.558 152.998C391.418 152.998 390.434 152.728 389.606 152.188C388.79 151.636 388.16 150.874 387.716 149.902C387.284 148.918 387.068 147.778 387.068 146.482C387.068 145.186 387.284 144.052 387.716 143.08C388.16 142.096 388.79 141.334 389.606 140.794C390.434 140.242 391.418 139.966 392.558 139.966C393.698 139.966 394.676 140.242 395.492 140.794C396.308 141.334 396.932 142.096 397.364 143.08C397.808 144.052 398.03 145.186 398.03 146.482C398.03 147.778 397.808 148.918 397.364 149.902C396.932 150.874 396.308 151.636 395.492 152.188C394.676 152.728 393.698 152.998 392.558 152.998ZM392.558 151.288C393.242 151.288 393.848 151.096 394.376 150.712C394.916 150.328 395.336 149.776 395.636 149.056C395.936 148.336 396.086 147.478 396.086 146.482C396.086 145.486 395.936 144.628 395.636 143.908C395.336 143.188 394.916 142.636 394.376 142.252C393.848 141.868 393.242 141.676 392.558 141.676C391.862 141.676 391.25 141.868 390.722 142.252C390.194 142.636 389.78 143.188 389.48 143.908C389.18 144.628 389.03 145.486 389.03 146.482C389.03 147.478 389.18 148.336 389.48 149.056C389.78 149.776 390.194 150.328 390.722 150.712C391.25 151.096 391.862 151.288 392.558 151.288Z" fill="#0B5604"/>
</g>
<rect x="81" y="185.782" width="328" height="16" rx="8" fill="#FAF6EA"/>
<rect x="81" y="185.782" width="133" height="16" rx="8" fill="#313131"/>
<path d="M223.5 193.782C223.5 198.452 219.496 202.282 214.5 202.282C209.504 202.282 205.5 198.452 205.5 193.782C205.5 189.113 209.504 185.282 214.5 185.282C219.496 185.282 223.5 189.113 223.5 193.782Z" fill="white" stroke="black"/>
<rect x="49.5" y="115.282" width="382" height="105" rx="19.5" stroke="#88857B"/>
<path d="M408.468 97.6823C410.486 91.0806 412.686 84.5742 414.979 78.0654" stroke="#B0AB9E" stroke-width="3.08185" stroke-miterlimit="1.5" stroke-linecap="round" stroke-linejoin="round"/>
<path d="M420.684 106.979C425.337 100.693 430.969 95.2864 436.208 89.5173" stroke="#B0AB9E" stroke-width="3.08185" stroke-miterlimit="1.5" stroke-linecap="round" stroke-linejoin="round"/>
<path d="M428.854 119.587C434.788 116.799 441.191 114.577 447.72 113.925" stroke="#B0AB9E" stroke-width="3.08185" stroke-miterlimit="1.5" stroke-linecap="round" stroke-linejoin="round"/>
<path fill-rule="evenodd" clip-rule="evenodd" d="M-25.9799 353.29C-7.26171 346.035 10.5979 339.158 29.0124 331.178C37.7957 327.372 47.3236 322.333 55.9165 318.093C46.2555 311.331 40.13 309.124 30.563 302.275C30.559 302.273 47.0042 283.23 58.2923 269.235C34.5561 275.923 7.46958 294.962 -6.86997 306.288C0.0475543 310.83 7.18518 315.361 14.4638 319.306C1.13403 330.789 -12.5174 341.977 -25.9799 353.29Z" stroke="#E2DBCB" stroke-width="5" stroke-miterlimit="1.5" stroke-linecap="round" stroke-linejoin="round"/>
</g>
<defs>
<clipPath id="clip0_1784_27236">
<rect y="0.282227" width="481" height="342" rx="12" fill="white"/>
</clipPath>
</defs>
</svg>
