<svg width="379" height="296" viewBox="0 0 379 296" fill="none" xmlns="http://www.w3.org/2000/svg">
<g clip-path="url(#clip0_831_22652)">
<rect x="0.00195312" width="378" height="296" rx="16.202" fill="white"/>
<rect x="2.00195" y="185" width="378" height="111" fill="#FAF6EA"/>
<path d="M61.377 239.863V239.551L62.5957 239.176C63.3874 238.905 63.7832 238.374 63.7832 237.582V222.457L61.252 222.801V222.395C62.4811 222.145 63.6582 221.79 64.7832 221.332C65.929 220.874 67.002 220.342 68.002 219.738L68.4082 220.02L68.2832 224.488V237.582C68.2832 238.395 68.679 238.915 69.4707 239.145L70.752 239.551V239.863H61.377ZM79.8647 240.332C77.6356 240.332 75.8335 239.592 74.4585 238.113C73.1043 236.634 72.4272 234.551 72.4272 231.863C72.4272 230.259 72.7397 228.759 73.3647 227.363C73.9897 225.967 74.8752 224.717 76.021 223.613C77.1877 222.509 78.5731 221.613 80.1772 220.926C81.8022 220.217 83.6043 219.77 85.5835 219.582L85.6772 220.051C83.1356 220.572 81.1981 221.53 79.8647 222.926C78.5522 224.322 77.6877 226.217 77.271 228.613C78.4793 227.905 79.8335 227.551 81.3335 227.551C82.6043 227.551 83.6564 227.811 84.4897 228.332C85.3231 228.853 85.9481 229.561 86.3647 230.457C86.8022 231.332 87.021 232.322 87.021 233.426C87.021 234.905 86.6668 236.165 85.9585 237.207C85.271 238.228 84.3752 239.009 83.271 239.551C82.1877 240.072 81.0522 240.332 79.8647 240.332ZM76.9897 232.52C76.9897 235.103 77.2085 236.947 77.646 238.051C78.1043 239.155 78.8127 239.707 79.771 239.707C80.7293 239.707 81.4272 239.259 81.8647 238.363C82.3231 237.447 82.5522 235.926 82.5522 233.801C82.5522 231.842 82.3231 230.478 81.8647 229.707C81.4064 228.936 80.6564 228.551 79.6147 228.551C78.7397 228.551 77.9272 228.77 77.1772 229.207C77.0522 230.207 76.9897 231.311 76.9897 232.52ZM90.717 244.832L90.5295 244.395C91.2379 243.957 91.7691 243.426 92.1233 242.801C92.4983 242.197 92.7587 241.436 92.9045 240.52L91.8733 240.082C91.2691 239.79 90.8004 239.415 90.467 238.957C90.1545 238.478 89.9983 237.999 89.9983 237.52C89.9983 236.79 90.2379 236.186 90.717 235.707C91.1962 235.207 91.8212 234.957 92.592 234.957C93.3837 234.957 94.0191 235.238 94.4983 235.801C94.9983 236.342 95.2483 237.134 95.2483 238.176C95.2483 239.322 95.0087 240.342 94.5295 241.238C94.0712 242.155 93.4983 242.915 92.8108 243.52C92.1233 244.145 91.4254 244.582 90.717 244.832ZM99.5234 225.301L99.7422 220.863C100.367 220.509 101.138 220.207 102.055 219.957C102.992 219.707 104.044 219.582 105.211 219.582C106.878 219.582 108.221 219.822 109.242 220.301C110.263 220.759 111.013 221.395 111.492 222.207C111.971 223.02 112.211 223.936 112.211 224.957C112.211 226.395 111.513 227.801 110.117 229.176C108.721 230.53 106.815 232.03 104.398 233.676C103.94 234.009 103.398 234.415 102.773 234.895C102.148 235.374 101.565 235.842 101.023 236.301H112.742V239.863H98.9922V237.238C99.7422 236.509 100.471 235.79 101.18 235.082C101.909 234.353 102.596 233.665 103.242 233.02C104.742 231.478 105.857 230.113 106.586 228.926C107.336 227.717 107.711 226.426 107.711 225.051C107.711 223.613 107.451 222.457 106.93 221.582C106.409 220.686 105.628 220.238 104.586 220.238C103.94 220.238 103.336 220.405 102.773 220.738C102.232 221.051 101.753 221.603 101.336 222.395L99.8359 225.301H99.5234ZM121.937 240.332C120.541 240.332 119.395 240.176 118.499 239.863C117.624 239.551 116.76 239.186 115.906 238.77L116.249 234.707H116.562L117.937 237.238C118.853 238.884 120.124 239.707 121.749 239.707C122.708 239.707 123.478 239.311 124.062 238.52C124.666 237.707 124.968 236.353 124.968 234.457C124.968 232.811 124.718 231.634 124.218 230.926C123.718 230.197 122.864 229.832 121.656 229.832H119.781V229.207H121.437C122.541 229.207 123.333 228.874 123.812 228.207C124.312 227.54 124.562 226.384 124.562 224.738C124.562 223.134 124.322 221.999 123.843 221.332C123.364 220.645 122.728 220.301 121.937 220.301C121.145 220.301 120.478 220.53 119.937 220.988C119.416 221.447 118.989 221.988 118.656 222.613L117.249 225.238L116.937 225.207L117.249 220.613C117.916 220.322 118.656 220.082 119.468 219.895C120.301 219.686 121.228 219.582 122.249 219.582C124.437 219.582 126.093 220.061 127.218 221.02C128.364 221.957 128.937 223.134 128.937 224.551C128.937 225.572 128.499 226.551 127.624 227.488C126.749 228.405 125.374 229.04 123.499 229.395C125.624 229.582 127.166 230.155 128.124 231.113C129.083 232.072 129.562 233.228 129.562 234.582C129.562 235.665 129.249 236.645 128.624 237.52C128.02 238.395 127.145 239.082 125.999 239.582C124.874 240.082 123.52 240.332 121.937 240.332ZM131.506 235.52C131.506 234.457 131.933 233.52 132.788 232.707C133.642 231.895 134.694 231.238 135.944 230.738C133.298 229.363 131.975 227.488 131.975 225.113C131.975 223.967 132.267 222.988 132.85 222.176C133.433 221.342 134.225 220.707 135.225 220.27C136.246 219.811 137.381 219.582 138.631 219.582C139.902 219.582 140.965 219.79 141.819 220.207C142.673 220.603 143.308 221.145 143.725 221.832C144.163 222.499 144.381 223.238 144.381 224.051C144.381 224.676 144.215 225.28 143.881 225.863C143.548 226.447 143.1 226.978 142.538 227.457C141.996 227.936 141.402 228.332 140.756 228.645C142.319 229.415 143.486 230.29 144.256 231.27C145.048 232.228 145.444 233.384 145.444 234.738C145.444 236.426 144.798 237.78 143.506 238.801C142.215 239.822 140.486 240.332 138.319 240.332C136.111 240.332 134.423 239.905 133.256 239.051C132.09 238.176 131.506 236.999 131.506 235.52ZM135.631 223.332C135.631 223.957 135.746 224.54 135.975 225.082C136.204 225.603 136.642 226.134 137.288 226.676C137.954 227.197 138.913 227.759 140.163 228.363C140.788 227.634 141.183 226.936 141.35 226.27C141.517 225.603 141.6 224.957 141.6 224.332C141.6 222.853 141.319 221.801 140.756 221.176C140.194 220.53 139.454 220.207 138.538 220.207C137.725 220.207 137.038 220.488 136.475 221.051C135.913 221.592 135.631 222.353 135.631 223.332ZM134.788 235.207C134.788 236.54 135.121 237.624 135.788 238.457C136.454 239.29 137.35 239.707 138.475 239.707C139.517 239.707 140.308 239.374 140.85 238.707C141.392 238.02 141.663 237.134 141.663 236.051C141.663 235.384 141.517 234.79 141.225 234.27C140.933 233.728 140.423 233.207 139.694 232.707C138.986 232.207 137.996 231.676 136.725 231.113C136.621 231.072 136.517 231.02 136.413 230.957C135.954 231.395 135.611 231.811 135.381 232.207C135.152 232.582 134.996 233.009 134.913 233.488C134.829 233.947 134.788 234.52 134.788 235.207Z" fill="#D8B448"/>
<path d="M43.186 267.137V255.937H50.114V257.041H44.53V260.945H49.634V262.033H44.53V266.033H50.114V267.137H43.186ZM51.3372 267.137L54.0892 263.169L51.3372 259.201H52.7932L55.0172 262.481L57.2572 259.201H58.6972L55.9452 263.169L58.6972 267.137H57.2572L55.0172 263.857L52.7932 267.137H51.3372ZM63.242 267.137C62.5166 267.137 61.946 266.961 61.53 266.609C61.114 266.257 60.906 265.622 60.906 264.705V260.337H59.53V259.201H60.906L61.082 257.297H62.25V259.201H64.586V260.337H62.25V264.705C62.25 265.206 62.3513 265.547 62.554 265.729C62.7566 265.899 63.114 265.985 63.626 265.985H64.458V267.137H63.242ZM66.2935 267.137V259.201H67.5095L67.6215 260.721C67.8668 260.198 68.2401 259.782 68.7415 259.473C69.2428 259.163 69.8615 259.009 70.5975 259.009V260.417H70.2295C69.7601 260.417 69.3281 260.502 68.9335 260.673C68.5388 260.833 68.2241 261.11 67.9895 261.505C67.7548 261.899 67.6375 262.443 67.6375 263.137V267.137H66.2935ZM74.746 267.329C74.0846 267.329 73.5353 267.217 73.098 266.993C72.6606 266.769 72.3353 266.47 72.122 266.097C71.9086 265.723 71.802 265.318 71.802 264.881C71.802 264.07 72.1113 263.446 72.73 263.009C73.3486 262.571 74.1913 262.353 75.258 262.353H77.402V262.257C77.402 261.563 77.2206 261.041 76.858 260.689C76.4953 260.326 76.01 260.145 75.402 260.145C74.8793 260.145 74.426 260.278 74.042 260.545C73.6686 260.801 73.434 261.179 73.338 261.681H71.962C72.0153 261.105 72.2073 260.619 72.538 260.225C72.8793 259.83 73.3006 259.531 73.802 259.329C74.3033 259.115 74.8366 259.009 75.402 259.009C76.5113 259.009 77.3433 259.307 77.898 259.905C78.4633 260.491 78.746 261.275 78.746 262.257V267.137H77.546L77.466 265.713C77.242 266.161 76.9113 266.545 76.474 266.865C76.0473 267.174 75.4713 267.329 74.746 267.329ZM74.954 266.193C75.466 266.193 75.9033 266.059 76.266 265.793C76.6393 265.526 76.922 265.179 77.114 264.753C77.306 264.326 77.402 263.878 77.402 263.409V263.393H75.37C74.5806 263.393 74.0206 263.531 73.69 263.809C73.37 264.075 73.21 264.411 73.21 264.817C73.21 265.233 73.3593 265.569 73.658 265.825C73.9673 266.07 74.3993 266.193 74.954 266.193ZM89.9886 267.329C88.8899 267.329 87.9406 267.089 87.1406 266.609C86.3512 266.118 85.7379 265.441 85.3006 264.577C84.8632 263.702 84.6446 262.689 84.6446 261.537C84.6446 260.395 84.8632 259.393 85.3006 258.529C85.7379 257.654 86.3512 256.971 87.1406 256.481C87.9406 255.99 88.8899 255.745 89.9886 255.745C91.2686 255.745 92.3086 256.054 93.1086 256.673C93.9192 257.281 94.4366 258.134 94.6606 259.233H93.1726C93.0019 258.539 92.6499 257.985 92.1166 257.569C91.5939 257.142 90.8846 256.929 89.9886 256.929C89.1886 256.929 88.4899 257.115 87.8926 257.489C87.2952 257.851 86.8312 258.379 86.5006 259.073C86.1806 259.755 86.0206 260.577 86.0206 261.537C86.0206 262.497 86.1806 263.323 86.5006 264.017C86.8312 264.699 87.2952 265.227 87.8926 265.601C88.4899 265.963 89.1886 266.145 89.9886 266.145C90.8846 266.145 91.5939 265.942 92.1166 265.537C92.6499 265.121 93.0019 264.571 93.1726 263.889H94.6606C94.4366 264.966 93.9192 265.809 93.1086 266.417C92.3086 267.025 91.2686 267.329 89.9886 267.329ZM99.4082 267.329C98.4695 267.329 97.7229 267.046 97.1682 266.481C96.6135 265.905 96.3362 265.025 96.3362 263.841V259.201H97.6802V263.697C97.6802 265.35 98.3575 266.177 99.7122 266.177C100.406 266.177 100.976 265.931 101.424 265.441C101.883 264.939 102.112 264.23 102.112 263.313V259.201H103.456V267.137H102.24L102.144 265.713C101.899 266.214 101.531 266.609 101.04 266.897C100.56 267.185 100.016 267.329 99.4082 267.329ZM108.708 267.329C107.759 267.329 106.97 267.089 106.34 266.609C105.711 266.129 105.343 265.478 105.236 264.657H106.612C106.698 265.073 106.916 265.435 107.268 265.745C107.631 266.043 108.116 266.193 108.724 266.193C109.29 266.193 109.706 266.075 109.972 265.841C110.239 265.595 110.372 265.307 110.372 264.977C110.372 264.497 110.196 264.177 109.844 264.017C109.503 263.857 109.018 263.713 108.388 263.585C107.962 263.499 107.535 263.377 107.108 263.217C106.682 263.057 106.324 262.833 106.036 262.545C105.748 262.246 105.604 261.857 105.604 261.377C105.604 260.683 105.86 260.118 106.372 259.681C106.895 259.233 107.599 259.009 108.484 259.009C109.327 259.009 110.015 259.222 110.548 259.649C111.092 260.065 111.407 260.662 111.492 261.441H110.164C110.111 261.035 109.935 260.721 109.636 260.497C109.348 260.262 108.959 260.145 108.468 260.145C107.988 260.145 107.615 260.246 107.348 260.449C107.092 260.651 106.964 260.918 106.964 261.249C106.964 261.569 107.13 261.819 107.46 262.001C107.802 262.182 108.26 262.337 108.836 262.465C109.327 262.571 109.791 262.705 110.228 262.865C110.676 263.014 111.039 263.243 111.316 263.553C111.604 263.851 111.748 264.289 111.748 264.865C111.759 265.579 111.487 266.171 110.932 266.641C110.388 267.099 109.647 267.329 108.708 267.329ZM116.445 267.137C115.72 267.137 115.149 266.961 114.733 266.609C114.317 266.257 114.109 265.622 114.109 264.705V260.337H112.733V259.201H114.109L114.285 257.297H115.453V259.201H117.789V260.337H115.453V264.705C115.453 265.206 115.554 265.547 115.757 265.729C115.96 265.899 116.317 265.985 116.829 265.985H117.661V267.137H116.445ZM122.894 267.329C122.147 267.329 121.475 267.158 120.878 266.817C120.28 266.475 119.806 265.995 119.454 265.377C119.112 264.747 118.942 264.011 118.942 263.169C118.942 262.326 119.118 261.595 119.47 260.977C119.822 260.347 120.296 259.862 120.894 259.521C121.502 259.179 122.179 259.009 122.926 259.009C123.672 259.009 124.344 259.179 124.942 259.521C125.539 259.862 126.008 260.347 126.35 260.977C126.702 261.595 126.878 262.326 126.878 263.169C126.878 264.011 126.702 264.747 126.35 265.377C125.998 265.995 125.518 266.475 124.91 266.817C124.312 267.158 123.64 267.329 122.894 267.329ZM122.894 266.177C123.352 266.177 123.779 266.065 124.174 265.841C124.568 265.617 124.888 265.281 125.134 264.833C125.379 264.385 125.502 263.83 125.502 263.169C125.502 262.507 125.379 261.953 125.134 261.505C124.899 261.057 124.584 260.721 124.19 260.497C123.795 260.273 123.374 260.161 122.926 260.161C122.467 260.161 122.04 260.273 121.646 260.497C121.251 260.721 120.931 261.057 120.686 261.505C120.44 261.953 120.318 262.507 120.318 263.169C120.318 263.83 120.44 264.385 120.686 264.833C120.931 265.281 121.246 265.617 121.63 265.841C122.024 266.065 122.446 266.177 122.894 266.177ZM128.747 267.137V259.201H129.963L130.059 260.353C130.315 259.926 130.656 259.595 131.083 259.361C131.509 259.126 131.989 259.009 132.523 259.009C133.152 259.009 133.691 259.137 134.139 259.393C134.597 259.649 134.949 260.038 135.195 260.561C135.472 260.081 135.851 259.702 136.331 259.425C136.821 259.147 137.349 259.009 137.915 259.009C138.864 259.009 139.621 259.297 140.187 259.873C140.752 260.438 141.035 261.313 141.035 262.497V267.137H139.707V262.641C139.707 261.819 139.541 261.201 139.211 260.785C138.88 260.369 138.405 260.161 137.787 260.161C137.147 260.161 136.613 260.411 136.187 260.913C135.771 261.403 135.563 262.107 135.563 263.025V267.137H134.219V262.641C134.219 261.819 134.053 261.201 133.723 260.785C133.392 260.369 132.917 260.161 132.299 260.161C131.669 260.161 131.141 260.411 130.715 260.913C130.299 261.403 130.091 262.107 130.091 263.025V267.137H128.747ZM146.627 267.329C145.87 267.329 145.198 267.158 144.611 266.817C144.024 266.465 143.56 265.979 143.219 265.361C142.888 264.742 142.723 264.011 142.723 263.169C142.723 262.337 142.888 261.611 143.219 260.993C143.55 260.363 144.008 259.878 144.595 259.537C145.192 259.185 145.88 259.009 146.659 259.009C147.427 259.009 148.088 259.185 148.643 259.537C149.208 259.878 149.64 260.331 149.939 260.897C150.238 261.462 150.387 262.07 150.387 262.721C150.387 262.838 150.382 262.955 150.371 263.073C150.371 263.19 150.371 263.323 150.371 263.473H144.051C144.083 264.081 144.222 264.587 144.467 264.993C144.723 265.387 145.038 265.686 145.411 265.889C145.795 266.091 146.2 266.193 146.627 266.193C147.182 266.193 147.646 266.065 148.019 265.809C148.392 265.553 148.664 265.206 148.835 264.769H150.163C149.95 265.505 149.539 266.118 148.931 266.609C148.334 267.089 147.566 267.329 146.627 267.329ZM146.627 260.145C145.987 260.145 145.416 260.342 144.915 260.737C144.424 261.121 144.142 261.686 144.067 262.433H149.059C149.027 261.718 148.782 261.158 148.323 260.753C147.864 260.347 147.299 260.145 146.627 260.145ZM152.168 267.137V259.201H153.384L153.496 260.721C153.742 260.198 154.115 259.782 154.616 259.473C155.118 259.163 155.736 259.009 156.472 259.009V260.417H156.104C155.635 260.417 155.203 260.502 154.808 260.673C154.414 260.833 154.099 261.11 153.864 261.505C153.63 261.899 153.512 262.443 153.512 263.137V267.137H152.168ZM161.021 267.329C160.072 267.329 159.282 267.089 158.653 266.609C158.024 266.129 157.656 265.478 157.549 264.657H158.925C159.01 265.073 159.229 265.435 159.581 265.745C159.944 266.043 160.429 266.193 161.037 266.193C161.602 266.193 162.018 266.075 162.285 265.841C162.552 265.595 162.685 265.307 162.685 264.977C162.685 264.497 162.509 264.177 162.157 264.017C161.816 263.857 161.33 263.713 160.701 263.585C160.274 263.499 159.848 263.377 159.421 263.217C158.994 263.057 158.637 262.833 158.349 262.545C158.061 262.246 157.917 261.857 157.917 261.377C157.917 260.683 158.173 260.118 158.685 259.681C159.208 259.233 159.912 259.009 160.797 259.009C161.64 259.009 162.328 259.222 162.861 259.649C163.405 260.065 163.72 260.662 163.805 261.441H162.477C162.424 261.035 162.248 260.721 161.949 260.497C161.661 260.262 161.272 260.145 160.781 260.145C160.301 260.145 159.928 260.246 159.661 260.449C159.405 260.651 159.277 260.918 159.277 261.249C159.277 261.569 159.442 261.819 159.773 262.001C160.114 262.182 160.573 262.337 161.149 262.465C161.64 262.571 162.104 262.705 162.541 262.865C162.989 263.014 163.352 263.243 163.629 263.553C163.917 263.851 164.061 264.289 164.061 264.865C164.072 265.579 163.8 266.171 163.245 266.641C162.701 267.099 161.96 267.329 161.021 267.329Z" fill="#6A7079"/>
<path d="M226.877 239.863L220.971 229.551V228.176H221.658C222.762 228.176 223.689 228.072 224.439 227.863C225.21 227.655 225.814 227.311 226.252 226.832C226.689 226.353 226.95 225.697 227.033 224.863H220.971V222.863H227.002C226.856 222.092 226.564 221.467 226.127 220.988C225.689 220.488 225.096 220.124 224.346 219.895C223.617 219.665 222.721 219.551 221.658 219.551H220.971V217.551H233.908V219.551H228.002C228.481 219.947 228.877 220.415 229.189 220.957C229.502 221.499 229.7 222.134 229.783 222.863H233.908V224.863H229.846C229.7 226.384 229.117 227.572 228.096 228.426C227.096 229.259 225.762 229.79 224.096 230.02L230.064 239.863H226.877ZM245.354 239.863V234.801H237.135V233.02L246.292 219.801H249.354V232.488H252.323V234.801H249.354V239.863H245.354ZM238.51 232.488H245.354V222.645L238.51 232.488ZM260.825 240.332C259.617 240.332 258.534 240.217 257.575 239.988C256.638 239.78 255.805 239.426 255.075 238.926L255.294 234.988H255.607L257.044 237.551C257.461 238.301 257.971 238.853 258.575 239.207C259.18 239.54 259.846 239.707 260.575 239.707C262.971 239.707 264.169 237.884 264.169 234.238C264.169 232.592 263.846 231.342 263.2 230.488C262.575 229.634 261.638 229.207 260.388 229.207C259.805 229.207 259.221 229.29 258.638 229.457C258.075 229.603 257.555 229.801 257.075 230.051L256.513 229.707L257.2 220.051H268.138V223.613H257.825L257.388 229.02C257.867 228.665 258.513 228.332 259.325 228.02C260.138 227.707 260.992 227.551 261.888 227.551C263.242 227.551 264.44 227.79 265.482 228.27C266.544 228.749 267.367 229.457 267.95 230.395C268.555 231.311 268.857 232.447 268.857 233.801C268.857 235.197 268.503 236.384 267.794 237.363C267.107 238.342 266.159 239.082 264.95 239.582C263.742 240.082 262.367 240.332 260.825 240.332ZM272.551 244.832L272.364 244.395C273.072 243.957 273.603 243.426 273.958 242.801C274.333 242.197 274.593 241.436 274.739 240.52L273.708 240.082C273.103 239.79 272.635 239.415 272.301 238.957C271.989 238.478 271.833 237.999 271.833 237.52C271.833 236.79 272.072 236.186 272.551 235.707C273.03 235.207 273.655 234.957 274.426 234.957C275.218 234.957 275.853 235.238 276.333 235.801C276.833 236.342 277.083 237.134 277.083 238.176C277.083 239.322 276.843 240.342 276.364 241.238C275.905 242.155 275.333 242.915 274.645 243.52C273.958 244.145 273.26 244.582 272.551 244.832ZM280.076 235.52C280.076 234.457 280.503 233.52 281.358 232.707C282.212 231.895 283.264 231.238 284.514 230.738C281.868 229.363 280.545 227.488 280.545 225.113C280.545 223.967 280.837 222.988 281.42 222.176C282.003 221.342 282.795 220.707 283.795 220.27C284.816 219.811 285.951 219.582 287.201 219.582C288.472 219.582 289.535 219.79 290.389 220.207C291.243 220.603 291.879 221.145 292.295 221.832C292.733 222.499 292.951 223.238 292.951 224.051C292.951 224.676 292.785 225.28 292.451 225.863C292.118 226.447 291.67 226.978 291.108 227.457C290.566 227.936 289.972 228.332 289.326 228.645C290.889 229.415 292.056 230.29 292.826 231.27C293.618 232.228 294.014 233.384 294.014 234.738C294.014 236.426 293.368 237.78 292.076 238.801C290.785 239.822 289.056 240.332 286.889 240.332C284.681 240.332 282.993 239.905 281.826 239.051C280.66 238.176 280.076 236.999 280.076 235.52ZM284.201 223.332C284.201 223.957 284.316 224.54 284.545 225.082C284.774 225.603 285.212 226.134 285.858 226.676C286.524 227.197 287.483 227.759 288.733 228.363C289.358 227.634 289.753 226.936 289.92 226.27C290.087 225.603 290.17 224.957 290.17 224.332C290.17 222.853 289.889 221.801 289.326 221.176C288.764 220.53 288.024 220.207 287.108 220.207C286.295 220.207 285.608 220.488 285.045 221.051C284.483 221.592 284.201 222.353 284.201 223.332ZM283.358 235.207C283.358 236.54 283.691 237.624 284.358 238.457C285.024 239.29 285.92 239.707 287.045 239.707C288.087 239.707 288.879 239.374 289.42 238.707C289.962 238.02 290.233 237.134 290.233 236.051C290.233 235.384 290.087 234.79 289.795 234.27C289.503 233.728 288.993 233.207 288.264 232.707C287.556 232.207 286.566 231.676 285.295 231.113C285.191 231.072 285.087 231.02 284.983 230.957C284.524 231.395 284.181 231.811 283.951 232.207C283.722 232.582 283.566 233.009 283.483 233.488C283.399 233.947 283.358 234.52 283.358 235.207ZM302.512 240.332C301.304 240.332 300.221 240.217 299.262 239.988C298.325 239.78 297.492 239.426 296.762 238.926L296.981 234.988H297.294L298.731 237.551C299.148 238.301 299.658 238.853 300.262 239.207C300.867 239.54 301.533 239.707 302.262 239.707C304.658 239.707 305.856 237.884 305.856 234.238C305.856 232.592 305.533 231.342 304.887 230.488C304.262 229.634 303.325 229.207 302.075 229.207C301.492 229.207 300.908 229.29 300.325 229.457C299.762 229.603 299.242 229.801 298.762 230.051L298.2 229.707L298.887 220.051H309.825V223.613H299.512L299.075 229.02C299.554 228.665 300.2 228.332 301.012 228.02C301.825 227.707 302.679 227.551 303.575 227.551C304.929 227.551 306.127 227.79 307.169 228.27C308.231 228.749 309.054 229.457 309.637 230.395C310.242 231.311 310.544 232.447 310.544 233.801C310.544 235.197 310.19 236.384 309.481 237.363C308.794 238.342 307.846 239.082 306.637 239.582C305.429 240.082 304.054 240.332 302.512 240.332ZM319.363 240.332C318.113 240.332 316.936 239.978 315.832 239.27C314.749 238.561 313.874 237.447 313.207 235.926C312.54 234.405 312.207 232.426 312.207 229.988C312.207 227.53 312.54 225.54 313.207 224.02C313.874 222.478 314.749 221.353 315.832 220.645C316.936 219.936 318.113 219.582 319.363 219.582C320.613 219.582 321.78 219.936 322.863 220.645C323.967 221.353 324.853 222.478 325.52 224.02C326.207 225.54 326.551 227.53 326.551 229.988C326.551 232.426 326.207 234.405 325.52 235.926C324.853 237.447 323.967 238.561 322.863 239.27C321.78 239.978 320.613 240.332 319.363 240.332ZM319.363 239.707C319.884 239.707 320.322 239.572 320.676 239.301C321.051 239.03 321.353 238.54 321.582 237.832C321.811 237.124 321.978 236.145 322.082 234.895C322.186 233.624 322.238 231.988 322.238 229.988C322.238 227.988 322.186 226.353 322.082 225.082C321.978 223.79 321.811 222.79 321.582 222.082C321.353 221.374 321.051 220.884 320.676 220.613C320.322 220.342 319.884 220.207 319.363 220.207C318.842 220.207 318.395 220.342 318.02 220.613C317.665 220.884 317.374 221.374 317.145 222.082C316.915 222.77 316.749 223.759 316.645 225.051C316.54 226.322 316.488 227.967 316.488 229.988C316.488 231.988 316.54 233.624 316.645 234.895C316.749 236.165 316.915 237.155 317.145 237.863C317.374 238.551 317.665 239.03 318.02 239.301C318.395 239.572 318.842 239.707 319.363 239.707Z" fill="#D8B448"/>
<path d="M206.186 267.137V255.937H213.114V257.041H207.53V260.945H212.634V262.033H207.53V266.033H213.114V267.137H206.186ZM214.337 267.137L217.089 263.169L214.337 259.201H215.793L218.017 262.481L220.257 259.201H221.697L218.945 263.169L221.697 267.137H220.257L218.017 263.857L215.793 267.137H214.337ZM226.242 267.137C225.517 267.137 224.946 266.961 224.53 266.609C224.114 266.257 223.906 265.622 223.906 264.705V260.337H222.53V259.201H223.906L224.082 257.297H225.25V259.201H227.586V260.337H225.25V264.705C225.25 265.206 225.351 265.547 225.554 265.729C225.757 265.899 226.114 265.985 226.626 265.985H227.458V267.137H226.242ZM229.293 267.137V259.201H230.509L230.621 260.721C230.867 260.198 231.24 259.782 231.741 259.473C232.243 259.163 232.861 259.009 233.597 259.009V260.417H233.229C232.76 260.417 232.328 260.502 231.933 260.673C231.539 260.833 231.224 261.11 230.989 261.505C230.755 261.899 230.637 262.443 230.637 263.137V267.137H229.293ZM237.746 267.329C237.085 267.329 236.535 267.217 236.098 266.993C235.661 266.769 235.335 266.47 235.122 266.097C234.909 265.723 234.802 265.318 234.802 264.881C234.802 264.07 235.111 263.446 235.73 263.009C236.349 262.571 237.191 262.353 238.258 262.353H240.402V262.257C240.402 261.563 240.221 261.041 239.858 260.689C239.495 260.326 239.01 260.145 238.402 260.145C237.879 260.145 237.426 260.278 237.042 260.545C236.669 260.801 236.434 261.179 236.338 261.681H234.962C235.015 261.105 235.207 260.619 235.538 260.225C235.879 259.83 236.301 259.531 236.802 259.329C237.303 259.115 237.837 259.009 238.402 259.009C239.511 259.009 240.343 259.307 240.898 259.905C241.463 260.491 241.746 261.275 241.746 262.257V267.137H240.546L240.466 265.713C240.242 266.161 239.911 266.545 239.474 266.865C239.047 267.174 238.471 267.329 237.746 267.329ZM237.954 266.193C238.466 266.193 238.903 266.059 239.266 265.793C239.639 265.526 239.922 265.179 240.114 264.753C240.306 264.326 240.402 263.878 240.402 263.409V263.393H238.37C237.581 263.393 237.021 263.531 236.69 263.809C236.37 264.075 236.21 264.411 236.21 264.817C236.21 265.233 236.359 265.569 236.658 265.825C236.967 266.07 237.399 266.193 237.954 266.193ZM252.989 267.329C251.89 267.329 250.941 267.089 250.141 266.609C249.351 266.118 248.738 265.441 248.301 264.577C247.863 263.702 247.645 262.689 247.645 261.537C247.645 260.395 247.863 259.393 248.301 258.529C248.738 257.654 249.351 256.971 250.141 256.481C250.941 255.99 251.89 255.745 252.989 255.745C254.269 255.745 255.309 256.054 256.109 256.673C256.919 257.281 257.437 258.134 257.661 259.233H256.173C256.002 258.539 255.65 257.985 255.117 257.569C254.594 257.142 253.885 256.929 252.989 256.929C252.189 256.929 251.49 257.115 250.893 257.489C250.295 257.851 249.831 258.379 249.501 259.073C249.181 259.755 249.021 260.577 249.021 261.537C249.021 262.497 249.181 263.323 249.501 264.017C249.831 264.699 250.295 265.227 250.893 265.601C251.49 265.963 252.189 266.145 252.989 266.145C253.885 266.145 254.594 265.942 255.117 265.537C255.65 265.121 256.002 264.571 256.173 263.889H257.661C257.437 264.966 256.919 265.809 256.109 266.417C255.309 267.025 254.269 267.329 252.989 267.329ZM263.128 267.329C262.382 267.329 261.71 267.158 261.112 266.817C260.515 266.475 260.04 265.995 259.688 265.377C259.347 264.747 259.176 264.011 259.176 263.169C259.176 262.326 259.352 261.595 259.704 260.977C260.056 260.347 260.531 259.862 261.128 259.521C261.736 259.179 262.414 259.009 263.16 259.009C263.907 259.009 264.579 259.179 265.176 259.521C265.774 259.862 266.243 260.347 266.584 260.977C266.936 261.595 267.112 262.326 267.112 263.169C267.112 264.011 266.936 264.747 266.584 265.377C266.232 265.995 265.752 266.475 265.144 266.817C264.547 267.158 263.875 267.329 263.128 267.329ZM263.128 266.177C263.587 266.177 264.014 266.065 264.408 265.841C264.803 265.617 265.123 265.281 265.368 264.833C265.614 264.385 265.736 263.83 265.736 263.169C265.736 262.507 265.614 261.953 265.368 261.505C265.134 261.057 264.819 260.721 264.424 260.497C264.03 260.273 263.608 260.161 263.16 260.161C262.702 260.161 262.275 260.273 261.88 260.497C261.486 260.721 261.166 261.057 260.92 261.505C260.675 261.953 260.552 262.507 260.552 263.169C260.552 263.83 260.675 264.385 260.92 264.833C261.166 265.281 261.48 265.617 261.864 265.841C262.259 266.065 262.68 266.177 263.128 266.177ZM268.981 267.137V259.201H270.197L270.277 260.625C270.533 260.123 270.901 259.729 271.381 259.441C271.861 259.153 272.405 259.009 273.013 259.009C273.952 259.009 274.698 259.297 275.253 259.873C275.818 260.438 276.101 261.313 276.101 262.497V267.137H274.757V262.641C274.757 260.987 274.074 260.161 272.709 260.161C272.026 260.161 271.456 260.411 270.997 260.913C270.549 261.403 270.325 262.107 270.325 263.025V267.137H268.981ZM281.273 267.137C280.548 267.137 279.977 266.961 279.561 266.609C279.145 266.257 278.937 265.622 278.937 264.705V260.337H277.561V259.201H278.937L279.113 257.297H280.281V259.201H282.617V260.337H280.281V264.705C280.281 265.206 280.383 265.547 280.585 265.729C280.788 265.899 281.145 265.985 281.657 265.985H282.489V267.137H281.273ZM284.325 267.137V259.201H285.541L285.653 260.721C285.898 260.198 286.271 259.782 286.773 259.473C287.274 259.163 287.893 259.009 288.629 259.009V260.417H288.261C287.791 260.417 287.359 260.502 286.965 260.673C286.57 260.833 286.255 261.11 286.021 261.505C285.786 261.899 285.669 262.443 285.669 263.137V267.137H284.325ZM290.953 257.441C290.687 257.441 290.463 257.355 290.281 257.185C290.111 257.003 290.025 256.779 290.025 256.513C290.025 256.257 290.111 256.043 290.281 255.873C290.463 255.702 290.687 255.617 290.953 255.617C291.209 255.617 291.428 255.702 291.609 255.873C291.791 256.043 291.881 256.257 291.881 256.513C291.881 256.779 291.791 257.003 291.609 257.185C291.428 257.355 291.209 257.441 290.953 257.441ZM290.281 267.137V259.201H291.625V267.137H290.281ZM298.205 267.329C297.555 267.329 296.973 267.195 296.461 266.929C295.96 266.662 295.576 266.289 295.309 265.809L295.181 267.137H293.965V255.617H295.309V260.513C295.565 260.129 295.928 259.782 296.397 259.473C296.877 259.163 297.485 259.009 298.221 259.009C299.011 259.009 299.699 259.19 300.285 259.553C300.872 259.915 301.325 260.411 301.645 261.041C301.976 261.67 302.141 262.385 302.141 263.185C302.141 263.985 301.976 264.699 301.645 265.329C301.325 265.947 300.867 266.438 300.269 266.801C299.683 267.153 298.995 267.329 298.205 267.329ZM298.061 266.161C298.595 266.161 299.064 266.038 299.469 265.793C299.875 265.537 300.195 265.185 300.429 264.737C300.664 264.289 300.781 263.766 300.781 263.169C300.781 262.571 300.664 262.049 300.429 261.601C300.195 261.153 299.875 260.806 299.469 260.561C299.064 260.305 298.595 260.177 298.061 260.177C297.528 260.177 297.059 260.305 296.653 260.561C296.248 260.806 295.928 261.153 295.693 261.601C295.459 262.049 295.341 262.571 295.341 263.169C295.341 263.766 295.459 264.289 295.693 264.737C295.928 265.185 296.248 265.537 296.653 265.793C297.059 266.038 297.528 266.161 298.061 266.161ZM306.908 267.329C305.97 267.329 305.223 267.046 304.668 266.481C304.114 265.905 303.836 265.025 303.836 263.841V259.201H305.18V263.697C305.18 265.35 305.858 266.177 307.212 266.177C307.906 266.177 308.476 265.931 308.924 265.441C309.383 264.939 309.612 264.23 309.612 263.313V259.201H310.956V267.137H309.74L309.644 265.713C309.399 266.214 309.031 266.609 308.54 266.897C308.06 267.185 307.516 267.329 306.908 267.329ZM316.304 267.137C315.579 267.137 315.008 266.961 314.592 266.609C314.176 266.257 313.968 265.622 313.968 264.705V260.337H312.592V259.201H313.968L314.144 257.297H315.312V259.201H317.648V260.337H315.312V264.705C315.312 265.206 315.414 265.547 315.616 265.729C315.819 265.899 316.176 265.985 316.688 265.985H317.52V267.137H316.304ZM320.172 257.441C319.905 257.441 319.681 257.355 319.5 257.185C319.329 257.003 319.244 256.779 319.244 256.513C319.244 256.257 319.329 256.043 319.5 255.873C319.681 255.702 319.905 255.617 320.172 255.617C320.428 255.617 320.647 255.702 320.828 255.873C321.009 256.043 321.1 256.257 321.1 256.513C321.1 256.779 321.009 257.003 320.828 257.185C320.647 257.355 320.428 257.441 320.172 257.441ZM319.5 267.137V259.201H320.844V267.137H319.5ZM326.8 267.329C326.053 267.329 325.381 267.158 324.784 266.817C324.187 266.475 323.712 265.995 323.36 265.377C323.019 264.747 322.848 264.011 322.848 263.169C322.848 262.326 323.024 261.595 323.376 260.977C323.728 260.347 324.203 259.862 324.8 259.521C325.408 259.179 326.085 259.009 326.832 259.009C327.579 259.009 328.251 259.179 328.848 259.521C329.445 259.862 329.915 260.347 330.256 260.977C330.608 261.595 330.784 262.326 330.784 263.169C330.784 264.011 330.608 264.747 330.256 265.377C329.904 265.995 329.424 266.475 328.816 266.817C328.219 267.158 327.547 267.329 326.8 267.329ZM326.8 266.177C327.259 266.177 327.685 266.065 328.08 265.841C328.475 265.617 328.795 265.281 329.04 264.833C329.285 264.385 329.408 263.83 329.408 263.169C329.408 262.507 329.285 261.953 329.04 261.505C328.805 261.057 328.491 260.721 328.096 260.497C327.701 260.273 327.28 260.161 326.832 260.161C326.373 260.161 325.947 260.273 325.552 260.497C325.157 260.721 324.837 261.057 324.592 261.505C324.347 261.953 324.224 262.507 324.224 263.169C324.224 263.83 324.347 264.385 324.592 264.833C324.837 265.281 325.152 265.617 325.536 265.841C325.931 266.065 326.352 266.177 326.8 266.177ZM332.653 267.137V259.201H333.869L333.949 260.625C334.205 260.123 334.573 259.729 335.053 259.441C335.533 259.153 336.077 259.009 336.685 259.009C337.623 259.009 338.37 259.297 338.925 259.873C339.49 260.438 339.773 261.313 339.773 262.497V267.137H338.429V262.641C338.429 260.987 337.746 260.161 336.381 260.161C335.698 260.161 335.127 260.411 334.669 260.913C334.221 261.403 333.997 262.107 333.997 263.025V267.137H332.653Z" fill="#6A7079"/>
<path d="M80.4082 71.5625C79.2624 71.5625 78.0957 71.4167 76.9082 71.125C75.7207 70.8542 74.7311 70.4896 73.9395 70.0312L74.0957 65.7812H74.4082L75.377 67.8125C75.6686 68.3958 75.9811 68.9167 76.3145 69.375C76.6478 69.8125 77.1061 70.1562 77.6895 70.4062C78.1061 70.6146 78.502 70.7604 78.877 70.8437C79.2728 70.9062 79.7103 70.9375 80.1895 70.9375C81.4603 70.9375 82.4603 70.5937 83.1895 69.9062C83.9395 69.2187 84.3145 68.3333 84.3145 67.25C84.3145 66.2292 84.0645 65.4375 83.5645 64.875C83.0645 64.2917 82.2624 63.7292 81.1582 63.1875L79.877 62.625C78.0853 61.8333 76.679 60.9271 75.6582 59.9062C74.6582 58.8646 74.1582 57.4896 74.1582 55.7812C74.1582 54.5521 74.4707 53.4896 75.0957 52.5937C75.7415 51.6979 76.627 51.0104 77.752 50.5312C78.8978 50.0521 80.2311 49.8125 81.752 49.8125C82.8561 49.8125 83.8978 49.9583 84.877 50.25C85.877 50.5417 86.7415 50.9375 87.4707 51.4375L87.2832 55.1875H86.9707L85.6895 52.8437C85.3353 52.1146 84.9811 51.6042 84.627 51.3125C84.2728 51 83.8665 50.7812 83.4082 50.6562C83.1374 50.5729 82.8874 50.5208 82.6582 50.5C82.429 50.4583 82.1374 50.4375 81.7832 50.4375C80.7207 50.4375 79.8249 50.75 79.0957 51.375C78.3665 51.9792 78.002 52.8021 78.002 53.8437C78.002 54.9062 78.2832 55.7604 78.8457 56.4062C79.4082 57.0312 80.2311 57.5937 81.3145 58.0937L82.752 58.7187C84.752 59.5937 86.1895 60.5312 87.0645 61.5312C87.9395 62.5104 88.377 63.7812 88.377 65.3437C88.377 67.1771 87.679 68.6771 86.2832 69.8437C84.9082 70.9896 82.9499 71.5625 80.4082 71.5625ZM94.4858 71.4688C93.2775 71.4688 92.2567 71.125 91.4233 70.4375C90.6108 69.75 90.2046 68.7604 90.2046 67.4687C90.2046 66.4896 90.7046 65.5937 91.7046 64.7812C92.7046 63.9479 94.2775 63.3229 96.4233 62.9062C96.7567 62.8437 97.1317 62.7812 97.5483 62.7187C97.965 62.6354 98.4025 62.5521 98.8608 62.4687V60C98.8608 58.5833 98.6838 57.5937 98.3296 57.0312C97.9963 56.4479 97.465 56.1562 96.7358 56.1562C96.2358 56.1562 95.84 56.3229 95.5483 56.6562C95.2567 56.9687 95.0692 57.5208 94.9858 58.3125L94.9233 58.6562C94.8817 59.5521 94.6629 60.2083 94.2671 60.625C93.8713 61.0417 93.3817 61.25 92.7983 61.25C92.2567 61.25 91.8088 61.0833 91.4546 60.75C91.1004 60.4167 90.9233 59.9687 90.9233 59.4062C90.9233 58.5521 91.215 57.8333 91.7983 57.25C92.4025 56.6667 93.1942 56.2292 94.1733 55.9375C95.1525 55.6458 96.215 55.5 97.3608 55.5C99.215 55.5 100.642 55.9583 101.642 56.875C102.663 57.7708 103.173 59.2396 103.173 61.2812V68.1875C103.173 69.125 103.611 69.5937 104.486 69.5937H105.173L105.455 69.8437C105.059 70.3437 104.621 70.7292 104.142 71C103.684 71.2708 103.028 71.4063 102.173 71.4063C101.257 71.4063 100.528 71.1979 99.9858 70.7812C99.465 70.3437 99.1213 69.7708 98.9546 69.0625C98.3296 69.7292 97.6838 70.3021 97.0171 70.7812C96.3713 71.2396 95.5275 71.4688 94.4858 71.4688ZM96.3921 69.5625C96.8088 69.5625 97.1942 69.4687 97.5483 69.2812C97.9233 69.0729 98.3608 68.7604 98.8608 68.3437V63.0937C98.6525 63.1354 98.4442 63.1771 98.2358 63.2187C98.0275 63.2604 97.7879 63.3021 97.5171 63.3437C96.5588 63.5937 95.7879 64.0208 95.2046 64.625C94.6421 65.2083 94.3608 66 94.3608 67C94.3608 67.8542 94.5588 68.5 94.9546 68.9375C95.3504 69.3542 95.8296 69.5625 96.3921 69.5625ZM106.191 71V70.6875L106.566 70.5625C107.316 70.3125 107.691 69.7917 107.691 69V52.2812C107.691 51.8646 107.608 51.5521 107.441 51.3437C107.275 51.1146 106.983 50.9479 106.566 50.8437L106.16 50.75V50.4375L111.879 49.0937L112.254 49.375L112.129 53.75V64.4375C112.129 65.2083 112.129 65.9792 112.129 66.75C112.15 67.5 112.16 68.25 112.16 69C112.16 69.4167 112.243 69.7604 112.41 70.0312C112.577 70.2812 112.858 70.4687 113.254 70.5937L113.66 70.6875V71H106.191ZM120.977 71.4688C119.643 71.4688 118.602 71.1354 117.852 70.4687C117.123 69.8021 116.758 68.7396 116.758 67.2812V56.5937H114.602V56.2812L115.352 56.1562C115.998 56.0104 116.55 55.8021 117.008 55.5312C117.487 55.2604 117.956 54.8958 118.414 54.4375L120.977 51.5937H121.289L121.196 55.9687H124.696V56.5937H121.164V67.8437C121.164 68.5729 121.321 69.125 121.633 69.5C121.966 69.875 122.383 70.0625 122.883 70.0625C123.321 70.0625 123.706 69.9583 124.039 69.75C124.373 69.5208 124.706 69.2187 125.039 68.8437L125.352 69.1562C124.935 69.8646 124.362 70.4271 123.633 70.8437C122.904 71.2604 122.018 71.4688 120.977 71.4688ZM133.136 71V70.6875L133.761 70.4687C134.47 70.2396 134.824 69.6458 134.824 68.6875V52.6875C134.824 52.2708 134.772 51.9375 134.667 51.6875C134.584 51.4375 134.345 51.2292 133.949 51.0625L133.136 50.6875V50.375H139.167L144.949 65.5L150.386 50.375H156.542V50.6875L156.042 50.875C155.647 51.0208 155.376 51.2292 155.23 51.5C155.084 51.75 155.011 52.0833 155.011 52.5V68.8437C155.011 69.2604 155.063 69.5833 155.167 69.8125C155.272 70.0417 155.522 70.2396 155.917 70.4062L156.542 70.6875V71H148.761V70.6875L149.417 70.4062C149.813 70.2396 150.063 70.0417 150.167 69.8125C150.272 69.5833 150.324 69.2604 150.324 68.8437V61.8125L150.386 52.875L143.855 71H142.292L135.48 53.0937L135.574 60.875V68.75C135.574 69.2083 135.636 69.5833 135.761 69.875C135.907 70.1458 136.178 70.3437 136.574 70.4687L137.261 70.6875V71H133.136ZM164.875 55.5C166.229 55.5 167.386 55.7812 168.344 56.3437C169.302 56.8854 170.031 57.6354 170.531 58.5937C171.052 59.5312 171.313 60.6042 171.313 61.8125C171.313 62.0417 171.302 62.2812 171.281 62.5312C171.261 62.7604 171.219 62.9687 171.156 63.1562H161.844C161.865 65.4062 162.261 67.0312 163.031 68.0312C163.823 69.0104 164.99 69.5 166.531 69.5C167.573 69.5 168.417 69.3333 169.063 69C169.709 68.6667 170.313 68.1771 170.875 67.5312L171.188 67.8125C170.542 68.9583 169.677 69.8542 168.594 70.5C167.531 71.1458 166.25 71.4688 164.75 71.4688C163.271 71.4688 161.959 71.1563 160.813 70.5312C159.667 69.8854 158.771 68.9687 158.125 67.7812C157.479 66.5937 157.156 65.1771 157.156 63.5312C157.156 61.8229 157.531 60.375 158.281 59.1875C159.031 57.9792 159.99 57.0625 161.156 56.4375C162.344 55.8125 163.584 55.5 164.875 55.5ZM164.781 56.125C164.177 56.125 163.656 56.3125 163.219 56.6875C162.802 57.0417 162.469 57.6875 162.219 58.625C161.99 59.5417 161.865 60.8437 161.844 62.5312H167.188C167.396 60.2604 167.313 58.625 166.938 57.625C166.563 56.625 165.844 56.125 164.781 56.125ZM177.311 71.4688C176.102 71.4688 175.081 71.125 174.248 70.4375C173.436 69.75 173.029 68.7604 173.029 67.4687C173.029 66.4896 173.529 65.5937 174.529 64.7812C175.529 63.9479 177.102 63.3229 179.248 62.9062C179.581 62.8437 179.956 62.7812 180.373 62.7187C180.79 62.6354 181.227 62.5521 181.686 62.4687V60C181.686 58.5833 181.508 57.5937 181.154 57.0312C180.821 56.4479 180.29 56.1562 179.561 56.1562C179.061 56.1562 178.665 56.3229 178.373 56.6562C178.081 56.9687 177.894 57.5208 177.811 58.3125L177.748 58.6562C177.706 59.5521 177.488 60.2083 177.092 60.625C176.696 61.0417 176.206 61.25 175.623 61.25C175.081 61.25 174.633 61.0833 174.279 60.75C173.925 60.4167 173.748 59.9687 173.748 59.4062C173.748 58.5521 174.04 57.8333 174.623 57.25C175.227 56.6667 176.019 56.2292 176.998 55.9375C177.977 55.6458 179.04 55.5 180.186 55.5C182.04 55.5 183.467 55.9583 184.467 56.875C185.488 57.7708 185.998 59.2396 185.998 61.2812V68.1875C185.998 69.125 186.436 69.5937 187.311 69.5937H187.998L188.279 69.8437C187.883 70.3437 187.446 70.7292 186.967 71C186.508 71.2708 185.852 71.4063 184.998 71.4063C184.081 71.4063 183.352 71.1979 182.811 70.7812C182.29 70.3437 181.946 69.7708 181.779 69.0625C181.154 69.7292 180.508 70.3021 179.842 70.7812C179.196 71.2396 178.352 71.4688 177.311 71.4688ZM179.217 69.5625C179.633 69.5625 180.019 69.4687 180.373 69.2812C180.748 69.0729 181.186 68.7604 181.686 68.3437V63.0937C181.477 63.1354 181.269 63.1771 181.061 63.2187C180.852 63.2604 180.613 63.3021 180.342 63.3437C179.383 63.5937 178.613 64.0208 178.029 64.625C177.467 65.2083 177.186 66 177.186 67C177.186 67.8542 177.383 68.5 177.779 68.9375C178.175 69.3542 178.654 69.5625 179.217 69.5625ZM194.86 71.4688C193.527 71.4688 192.485 71.1354 191.735 70.4687C191.006 69.8021 190.641 68.7396 190.641 67.2812V56.5937H188.485V56.2812L189.235 56.1562C189.881 56.0104 190.433 55.8021 190.891 55.5312C191.37 55.2604 191.839 54.8958 192.297 54.4375L194.86 51.5937H195.172L195.079 55.9687H198.579V56.5937H195.047V67.8437C195.047 68.5729 195.204 69.125 195.516 69.5C195.849 69.875 196.266 70.0625 196.766 70.0625C197.204 70.0625 197.589 69.9583 197.922 69.75C198.256 69.5208 198.589 69.2187 198.922 68.8437L199.235 69.1562C198.818 69.8646 198.245 70.4271 197.516 70.8437C196.787 71.2604 195.902 71.4688 194.86 71.4688ZM217.832 71.5625C215.811 71.5625 213.978 71.1563 212.332 70.3437C210.707 69.5104 209.415 68.2812 208.457 66.6562C207.498 65.0312 207.019 63.0417 207.019 60.6875C207.019 58.8958 207.311 57.3229 207.894 55.9687C208.478 54.6146 209.269 53.4792 210.269 52.5625C211.29 51.6458 212.457 50.9583 213.769 50.5C215.103 50.0417 216.509 49.8125 217.988 49.8125C219.176 49.8125 220.269 49.9479 221.269 50.2187C222.269 50.4896 223.207 50.8646 224.082 51.3437L224.207 55.1875H223.894L222.332 52.6875C222.123 52.2917 221.894 51.9375 221.644 51.625C221.394 51.2917 221.082 51.0417 220.707 50.875C220.394 50.7292 220.082 50.625 219.769 50.5625C219.478 50.4792 219.103 50.4375 218.644 50.4375C217.436 50.4375 216.332 50.7604 215.332 51.4062C214.353 52.0521 213.561 53.125 212.957 54.625C212.373 56.1042 212.082 58.1354 212.082 60.7187C212.082 63.2812 212.363 65.3125 212.926 66.8125C213.488 68.2917 214.248 69.3542 215.207 70C216.186 70.625 217.28 70.9375 218.488 70.9375C219.155 70.9375 219.686 70.8958 220.082 70.8125C220.478 70.7083 220.873 70.5625 221.269 70.375C221.665 70.2083 221.967 69.9687 222.176 69.6562C222.384 69.3229 222.571 68.9687 222.738 68.5937L224.113 65.5312H224.426L224.332 70C223.457 70.4583 222.478 70.8333 221.394 71.125C220.311 71.4167 219.123 71.5625 217.832 71.5625ZM225.942 71V70.6875L226.317 70.5625C227.067 70.3125 227.442 69.7917 227.442 69V52.3125C227.442 51.875 227.369 51.5521 227.224 51.3437C227.078 51.1354 226.797 50.9792 226.38 50.875L225.911 50.75V50.4375L231.411 49.0937L231.911 49.375L231.786 53.7813V57.6875C232.515 57.0833 233.297 56.5729 234.13 56.1562C234.984 55.7187 235.922 55.5 236.942 55.5C238.297 55.5 239.369 55.8854 240.161 56.6562C240.974 57.4271 241.38 58.6146 241.38 60.2187V69.0312C241.38 69.4479 241.463 69.7812 241.63 70.0312C241.797 70.2812 242.088 70.4687 242.505 70.5937L242.755 70.6875V71H235.442V70.6875L235.817 70.5937C236.567 70.3437 236.942 69.8125 236.942 69V59.1875C236.942 58.3542 236.797 57.7812 236.505 57.4687C236.234 57.1562 235.744 57 235.036 57C234.578 57 234.078 57.0937 233.536 57.2812C232.994 57.4479 232.442 57.75 231.88 58.1875V69.0625C231.88 69.875 232.255 70.3958 233.005 70.625L233.255 70.6875V71H225.942ZM251.82 55.5C253.174 55.5 254.33 55.7812 255.289 56.3437C256.247 56.8854 256.976 57.6354 257.476 58.5937C257.997 59.5312 258.257 60.6042 258.257 61.8125C258.257 62.0417 258.247 62.2812 258.226 62.5312C258.205 62.7604 258.164 62.9687 258.101 63.1562H248.789C248.809 65.4062 249.205 67.0312 249.976 68.0312C250.768 69.0104 251.934 69.5 253.476 69.5C254.518 69.5 255.361 69.3333 256.007 69C256.653 68.6667 257.257 68.1771 257.82 67.5312L258.132 67.8125C257.486 68.9583 256.622 69.8542 255.539 70.5C254.476 71.1458 253.195 71.4688 251.695 71.4688C250.216 71.4688 248.903 71.1563 247.757 70.5312C246.611 69.8854 245.716 68.9687 245.07 67.7812C244.424 66.5937 244.101 65.1771 244.101 63.5312C244.101 61.8229 244.476 60.375 245.226 59.1875C245.976 57.9792 246.934 57.0625 248.101 56.4375C249.289 55.8125 250.528 55.5 251.82 55.5ZM251.726 56.125C251.122 56.125 250.601 56.3125 250.164 56.6875C249.747 57.0417 249.414 57.6875 249.164 58.625C248.934 59.5417 248.809 60.8437 248.789 62.5312H254.132C254.341 60.2604 254.257 58.625 253.882 57.625C253.507 56.625 252.789 56.125 251.726 56.125ZM267.658 55.5C269.013 55.5 270.169 55.7812 271.127 56.3437C272.086 56.8854 272.815 57.6354 273.315 58.5937C273.836 59.5312 274.096 60.6042 274.096 61.8125C274.096 62.0417 274.086 62.2812 274.065 62.5312C274.044 62.7604 274.002 62.9687 273.94 63.1562H264.627C264.648 65.4062 265.044 67.0312 265.815 68.0312C266.606 69.0104 267.773 69.5 269.315 69.5C270.356 69.5 271.2 69.3333 271.846 69C272.492 68.6667 273.096 68.1771 273.658 67.5312L273.971 67.8125C273.325 68.9583 272.461 69.8542 271.377 70.5C270.315 71.1458 269.033 71.4688 267.533 71.4688C266.054 71.4688 264.742 71.1563 263.596 70.5312C262.45 69.8854 261.554 68.9687 260.908 67.7812C260.263 66.5937 259.94 65.1771 259.94 63.5312C259.94 61.8229 260.315 60.375 261.065 59.1875C261.815 57.9792 262.773 57.0625 263.94 56.4375C265.127 55.8125 266.367 55.5 267.658 55.5ZM267.565 56.125C266.961 56.125 266.44 56.3125 266.002 56.6875C265.586 57.0417 265.252 57.6875 265.002 58.625C264.773 59.5417 264.648 60.8437 264.627 62.5312H269.971C270.179 60.2604 270.096 58.625 269.721 57.625C269.346 56.625 268.627 56.125 267.565 56.125ZM281.06 71.4688C280.039 71.4688 279.122 71.3438 278.31 71.0938C277.497 70.8646 276.747 70.5729 276.06 70.2187L276.091 66.5H276.403L277.466 68.375C277.924 69.2083 278.424 69.8333 278.966 70.25C279.528 70.6458 280.237 70.8437 281.091 70.8437C282.091 70.8437 282.893 70.625 283.497 70.1875C284.122 69.7292 284.435 69.125 284.435 68.375C284.435 67.6875 284.216 67.125 283.778 66.6875C283.341 66.25 282.528 65.8542 281.341 65.5L280.028 65.0937C278.757 64.7187 277.757 64.1354 277.028 63.3437C276.299 62.5521 275.935 61.5833 275.935 60.4375C275.935 59.0625 276.476 57.8958 277.56 56.9375C278.643 55.9792 280.195 55.5 282.216 55.5C283.028 55.5 283.789 55.5937 284.497 55.7812C285.226 55.9479 285.924 56.2083 286.591 56.5625L286.403 59.9375H286.091L284.997 58C284.601 57.3125 284.205 56.8333 283.81 56.5625C283.435 56.2708 282.862 56.125 282.091 56.125C281.382 56.125 280.716 56.3229 280.091 56.7187C279.466 57.1146 279.153 57.6771 279.153 58.4062C279.153 59.1146 279.414 59.6771 279.935 60.0937C280.476 60.5104 281.268 60.8958 282.31 61.25L283.716 61.6562C285.216 62.1146 286.289 62.75 286.935 63.5625C287.58 64.3542 287.903 65.3125 287.903 66.4375C287.903 67.9583 287.299 69.1771 286.091 70.0937C284.903 71.0104 283.226 71.4688 281.06 71.4688ZM297.108 55.5C298.462 55.5 299.618 55.7812 300.577 56.3437C301.535 56.8854 302.264 57.6354 302.764 58.5937C303.285 59.5312 303.545 60.6042 303.545 61.8125C303.545 62.0417 303.535 62.2812 303.514 62.5312C303.493 62.7604 303.452 62.9687 303.389 63.1562H294.077C294.097 65.4062 294.493 67.0312 295.264 68.0312C296.056 69.0104 297.222 69.5 298.764 69.5C299.806 69.5 300.65 69.3333 301.295 69C301.941 68.6667 302.545 68.1771 303.108 67.5312L303.42 67.8125C302.775 68.9583 301.91 69.8542 300.827 70.5C299.764 71.1458 298.483 71.4688 296.983 71.4688C295.504 71.4688 294.191 71.1563 293.045 70.5312C291.9 69.8854 291.004 68.9687 290.358 67.7812C289.712 66.5937 289.389 65.1771 289.389 63.5312C289.389 61.8229 289.764 60.375 290.514 59.1875C291.264 57.9792 292.222 57.0625 293.389 56.4375C294.577 55.8125 295.816 55.5 297.108 55.5ZM297.014 56.125C296.41 56.125 295.889 56.3125 295.452 56.6875C295.035 57.0417 294.702 57.6875 294.452 58.625C294.222 59.5417 294.097 60.8437 294.077 62.5312H299.42C299.629 60.2604 299.545 58.625 299.17 57.625C298.795 56.625 298.077 56.125 297.014 56.125Z" fill="#202937"/>
<rect x="122.002" y="91" width="59" height="28" rx="14" fill="#FCF9F0"/>
<path d="M141.274 110.192C140.175 110.192 139.21 109.952 138.378 109.472C137.557 108.981 136.911 108.299 136.442 107.424C135.983 106.549 135.754 105.541 135.754 104.4C135.754 103.259 135.983 102.256 136.442 101.392C136.911 100.517 137.557 99.8347 138.378 99.344C139.21 98.8533 140.175 98.608 141.274 98.608C142.383 98.608 143.349 98.8533 144.17 99.344C145.002 99.8347 145.647 100.517 146.106 101.392C146.565 102.256 146.794 103.259 146.794 104.4C146.794 105.541 146.565 106.549 146.106 107.424C145.647 108.288 145.018 108.96 144.218 109.44L147.05 112.16H145.306L143.034 109.952C142.49 110.112 141.903 110.192 141.274 110.192ZM141.274 109.008C142.095 109.008 142.815 108.827 143.434 108.464C144.063 108.091 144.549 107.563 144.89 106.88C145.242 106.187 145.418 105.36 145.418 104.4C145.418 103.44 145.242 102.619 144.89 101.936C144.549 101.253 144.063 100.731 143.434 100.368C142.815 99.9947 142.095 99.808 141.274 99.808C140.453 99.808 139.727 99.9947 139.098 100.368C138.479 100.731 137.994 101.253 137.642 101.936C137.301 102.619 137.13 103.44 137.13 104.4C137.13 105.36 137.301 106.187 137.642 106.88C137.994 107.563 138.479 108.091 139.098 108.464C139.727 108.827 140.453 109.008 141.274 109.008ZM148.811 110V98.8H150.155V108.928H155.371V110H148.811ZM157.217 110V98.8H160.657C162.631 98.8 164.081 99.3013 165.009 100.304C165.948 101.307 166.417 102.683 166.417 104.432C166.417 106.149 165.948 107.509 165.009 108.512C164.081 109.504 162.631 110 160.657 110H157.217ZM158.561 108.88H160.625C161.713 108.88 162.577 108.704 163.217 108.352C163.868 107.989 164.332 107.477 164.609 106.816C164.887 106.144 165.025 105.349 165.025 104.432C165.025 103.493 164.887 102.688 164.609 102.016C164.332 101.344 163.868 100.827 163.217 100.464C162.577 100.101 161.713 99.92 160.625 99.92H158.561V108.88Z" fill="black"/>
<rect x="191.533" y="91" width="65" height="28" rx="14" fill="#FCF9F0"/>
<path d="M205.541 110V109.056C206.299 108.459 207.013 107.856 207.685 107.248C208.368 106.629 208.971 106.021 209.493 105.424C210.027 104.827 210.443 104.24 210.741 103.664C211.051 103.088 211.205 102.533 211.205 102C211.205 101.605 211.136 101.237 210.997 100.896C210.869 100.555 210.656 100.283 210.357 100.08C210.059 99.8667 209.653 99.76 209.141 99.76C208.651 99.76 208.24 99.872 207.909 100.096C207.579 100.309 207.328 100.597 207.157 100.96C206.997 101.323 206.917 101.712 206.917 102.128H205.621C205.621 101.392 205.776 100.763 206.085 100.24C206.395 99.7067 206.816 99.3013 207.349 99.024C207.883 98.7467 208.485 98.608 209.157 98.608C210.149 98.608 210.96 98.8907 211.589 99.456C212.229 100.011 212.549 100.843 212.549 101.952C212.549 102.613 212.384 103.269 212.053 103.92C211.723 104.56 211.301 105.184 210.789 105.792C210.277 106.389 209.728 106.949 209.141 107.472C208.565 107.995 208.027 108.464 207.525 108.88H212.933V110H205.541ZM219.085 110.192C218.093 110.192 217.235 109.952 216.509 109.472C215.795 108.981 215.245 108.304 214.861 107.44C214.477 106.565 214.285 105.552 214.285 104.4C214.285 103.248 214.477 102.24 214.861 101.376C215.245 100.501 215.795 99.824 216.509 99.344C217.235 98.8533 218.093 98.608 219.085 98.608C220.077 98.608 220.931 98.8533 221.645 99.344C222.36 99.824 222.909 100.501 223.293 101.376C223.677 102.24 223.869 103.248 223.869 104.4C223.869 105.552 223.677 106.565 223.293 107.44C222.909 108.304 222.36 108.981 221.645 109.472C220.931 109.952 220.077 110.192 219.085 110.192ZM219.085 109.008C219.736 109.008 220.317 108.827 220.829 108.464C221.352 108.091 221.757 107.563 222.045 106.88C222.344 106.187 222.493 105.36 222.493 104.4C222.493 103.44 222.344 102.619 222.045 101.936C221.757 101.253 221.352 100.731 220.829 100.368C220.317 99.9947 219.736 99.808 219.085 99.808C218.424 99.808 217.837 99.9947 217.325 100.368C216.813 100.731 216.408 101.253 216.109 101.936C215.811 102.619 215.661 103.44 215.661 104.4C215.661 105.36 215.811 106.187 216.109 106.88C216.408 107.563 216.813 108.091 217.325 108.464C217.837 108.827 218.424 109.008 219.085 109.008ZM225.479 110V109.056C226.236 108.459 226.951 107.856 227.623 107.248C228.305 106.629 228.908 106.021 229.431 105.424C229.964 104.827 230.38 104.24 230.679 103.664C230.988 103.088 231.143 102.533 231.143 102C231.143 101.605 231.073 101.237 230.935 100.896C230.807 100.555 230.593 100.283 230.295 100.08C229.996 99.8667 229.591 99.76 229.079 99.76C228.588 99.76 228.177 99.872 227.847 100.096C227.516 100.309 227.265 100.597 227.095 100.96C226.935 101.323 226.855 101.712 226.855 102.128H225.559C225.559 101.392 225.713 100.763 226.023 100.24C226.332 99.7067 226.753 99.3013 227.287 99.024C227.82 98.7467 228.423 98.608 229.095 98.608C230.087 98.608 230.897 98.8907 231.527 99.456C232.167 100.011 232.487 100.843 232.487 101.952C232.487 102.613 232.321 103.269 231.991 103.92C231.66 104.56 231.239 105.184 230.727 105.792C230.215 106.389 229.665 106.949 229.079 107.472C228.503 107.995 227.964 108.464 227.463 108.88H232.871V110H225.479ZM234.635 110V109.056C235.392 108.459 236.107 107.856 236.779 107.248C237.462 106.629 238.064 106.021 238.587 105.424C239.12 104.827 239.536 104.24 239.835 103.664C240.144 103.088 240.299 102.533 240.299 102C240.299 101.605 240.23 101.237 240.091 100.896C239.963 100.555 239.75 100.283 239.451 100.08C239.152 99.8667 238.747 99.76 238.235 99.76C237.744 99.76 237.334 99.872 237.003 100.096C236.672 100.309 236.422 100.597 236.251 100.96C236.091 101.323 236.011 101.712 236.011 102.128H234.715C234.715 101.392 234.87 100.763 235.179 100.24C235.488 99.7067 235.91 99.3013 236.443 99.024C236.976 98.7467 237.579 98.608 238.251 98.608C239.243 98.608 240.054 98.8907 240.683 99.456C241.323 100.011 241.643 100.843 241.643 101.952C241.643 102.613 241.478 103.269 241.147 103.92C240.816 104.56 240.395 105.184 239.883 105.792C239.371 106.389 238.822 106.949 238.235 107.472C237.659 107.995 237.12 108.464 236.619 108.88H242.027V110H234.635Z" fill="black"/>
</g>
<rect x="0.501953" y="0.5" width="377" height="295" rx="15.702" stroke="#D8B448"/>
<defs>
<clipPath id="clip0_831_22652">
<rect x="0.00195312" width="378" height="296" rx="16.202" fill="white"/>
</clipPath>
</defs>
</svg>
