<svg width="57" height="56" viewBox="0 0 57 56" fill="none" xmlns="http://www.w3.org/2000/svg">
<path d="M0.837402 27.9945C0.837402 5.74753 6.39914 0.185791 28.6461 0.185791C50.8931 0.185791 56.4548 5.74753 56.4548 27.9945C56.4548 50.2414 50.8931 55.8032 28.6461 55.8032C6.39914 55.8032 0.837402 50.2414 0.837402 27.9945Z" fill="#E9DEC6"/>
<path d="M13.6681 17.6083C13.6681 17.4172 13.8402 17.226 14.4997 16.6812C15.2452 16.0695 15.3886 15.993 15.7231 15.993C15.9333 16.0026 16.2201 16.0313 16.3634 16.0695C16.612 16.1269 16.5546 16.1842 15.3216 17.1782C14.6048 17.7612 14.0027 18.2965 13.974 18.3729C13.9358 18.4685 13.8784 18.4048 13.802 18.1818C13.735 18.0002 13.6777 17.7421 13.6681 17.6083Z" fill="#A76604"/>
<path d="M8.39223 21.5175C8.56427 20.944 8.57383 20.9344 9.47226 20.3323C9.96927 19.9978 10.4185 19.7206 10.4758 19.7206C10.5236 19.7206 10.753 19.8257 10.9728 19.95C11.2022 20.0838 11.3838 20.208 11.3838 20.2367C11.3838 20.2654 11.2882 20.3227 11.164 20.3705C11.0493 20.4183 10.3803 20.8197 9.68253 21.2785C8.99437 21.7277 8.37311 22.1005 8.32532 22.1005C8.26798 22.1005 8.29665 21.8615 8.39223 21.5175Z" fill="#A76604"/>
<path d="M10.2561 15.3334C10.3325 15.19 10.6193 14.4637 10.906 13.7086C11.1928 12.9631 11.4508 12.3801 11.489 12.4183C11.5273 12.4661 11.7949 13.1351 12.0912 13.9284C12.4066 14.7599 12.7316 15.4672 12.8654 15.601C13.0756 15.8113 13.219 15.8495 15.3122 16.0311L14.4806 16.7002C13.6682 17.3501 13.6491 17.3788 13.7065 17.7038C13.7351 17.8854 13.802 18.3632 13.8498 18.7551C13.8976 19.147 14.0888 20.0263 14.2799 20.7145C14.4711 21.4026 14.624 22.0143 14.624 22.0717C14.624 22.1386 14.0123 21.7849 13.2668 21.2879C12.5117 20.7909 11.8331 20.3799 11.7567 20.3799C11.6802 20.3799 11.3743 20.227 11.0876 20.0454C10.8009 19.8543 10.5333 19.7109 10.495 19.7109C10.4472 19.7109 10.0171 19.969 9.53925 20.2844C9.0518 20.5998 8.64081 20.8483 8.63126 20.8387C8.61214 20.8196 8.72683 20.3608 8.86064 19.8065C9.08047 18.9558 9.09959 18.7551 9.00401 18.5162C8.92755 18.325 8.4401 17.8758 7.59901 17.1972C6.89173 16.6333 6.31826 16.1554 6.33738 16.1267C6.34694 16.098 7.07333 16.0311 7.96221 15.9833C9.02631 15.9196 9.65394 15.84 9.8451 15.7444C10.0076 15.6679 10.1892 15.4863 10.2561 15.3334Z" fill="#DAAC0C"/>
<path d="M48.1437 17.6083C48.1437 17.4172 48.3158 17.226 48.9753 16.6812C49.7208 16.0695 49.8641 15.993 50.1987 15.993C50.4089 16.0026 50.6957 16.0313 50.839 16.0695C51.0875 16.1269 51.0302 16.1842 49.7972 17.1782C49.0804 17.7612 48.4783 18.2965 48.4496 18.3729C48.4113 18.4685 48.354 18.4048 48.2775 18.1818C48.2106 18.0002 48.1533 17.7421 48.1437 17.6083Z" fill="#A76604"/>
<path d="M42.8678 21.5175C43.0399 20.944 43.0494 20.9344 43.9478 20.3323C44.4449 19.9978 44.8941 19.7206 44.9514 19.7206C44.9992 19.7206 45.2286 19.8257 45.4484 19.95C45.6778 20.0838 45.8594 20.208 45.8594 20.2367C45.8594 20.2654 45.7638 20.3227 45.6396 20.3705C45.5249 20.4183 44.8558 20.8197 44.1581 21.2785C43.47 21.7277 42.8487 22.1005 42.8009 22.1005C42.7436 22.1005 42.7722 21.8615 42.8678 21.5175Z" fill="#A76604"/>
<path d="M44.7317 15.3334C44.8081 15.19 45.0949 14.4637 45.3816 13.7086C45.6683 12.9631 45.9264 12.3801 45.9646 12.4183C46.0029 12.4661 46.2705 13.1351 46.5668 13.9284C46.8822 14.7599 47.2071 15.4672 47.341 15.601C47.5512 15.8113 47.6946 15.8495 49.7878 16.0311L48.9562 16.7002C48.1438 17.3501 48.1247 17.3788 48.182 17.7038C48.2107 17.8854 48.2776 18.3632 48.3254 18.7551C48.3732 19.147 48.5644 20.0263 48.7555 20.7145C48.9467 21.4026 49.0996 22.0143 49.0996 22.0717C49.0996 22.1386 48.4879 21.7849 47.7424 21.2879C46.9873 20.7909 46.3087 20.3799 46.2322 20.3799C46.1558 20.3799 45.8499 20.227 45.5632 20.0454C45.2765 19.8543 45.0088 19.7109 44.9706 19.7109C44.9228 19.7109 44.4927 19.969 44.0148 20.2844C43.5274 20.5998 43.1164 20.8483 43.1068 20.8387C43.0877 20.8196 43.2024 20.3608 43.3362 19.8065C43.5561 18.9558 43.5752 18.7551 43.4796 18.5162C43.4031 18.325 42.9157 17.8758 42.0746 17.1972C41.3673 16.6333 40.7938 16.1554 40.813 16.1267C40.8225 16.098 41.5489 16.0311 42.4378 15.9833C43.5019 15.9196 44.1295 15.84 44.3207 15.7444C44.4832 15.6679 44.6648 15.4863 44.7317 15.3334Z" fill="#DAAC0C"/>
<path d="M30.595 10.8104C30.6141 10.7435 30.9965 10.3898 31.4457 10.0266C32.153 9.44359 32.3059 9.35757 32.6404 9.36713C32.8507 9.36713 33.147 9.3958 33.2999 9.43403C33.558 9.49138 33.5293 9.52005 32.4875 10.3516C31.8949 10.8199 31.2641 11.3552 30.7766 11.833L30.6715 11.3838C30.6141 11.1258 30.5855 10.8677 30.595 10.8104Z" fill="#A76604"/>
<path d="M25.6058 14.2512C25.6919 14.1843 26.1029 13.8975 26.5234 13.6108C26.9439 13.3241 27.3454 13.0851 27.4123 13.0851C27.4696 13.0756 27.699 13.1903 27.9093 13.3432C28.1291 13.4865 28.3012 13.6299 28.2916 13.6777C28.2916 13.7159 28.2151 13.7446 28.1291 13.7446C28.0335 13.7446 27.3645 14.146 26.6381 14.6335C25.9213 15.1114 25.3 15.4937 25.2713 15.465C25.2427 15.4363 25.2713 15.1783 25.3382 14.8915C25.4051 14.6048 25.5294 14.3085 25.6058 14.2512Z" fill="#A76604"/>
<path d="M27.2787 8.46872C27.403 8.19154 27.6897 7.45559 27.9095 6.84389C28.1389 6.22263 28.3683 5.71606 28.4161 5.71606C28.4734 5.71606 28.5499 5.87855 28.6073 6.07926C28.655 6.27042 28.9035 6.9777 29.1616 7.6563C29.5248 8.58341 29.6873 8.90838 29.888 9.04219C30.06 9.14732 30.4901 9.23334 32.2488 9.39582L31.4173 10.0649C30.9585 10.4281 30.5857 10.8008 30.5857 10.8773C30.5857 10.9537 30.6335 11.1736 30.6909 11.3552C30.7482 11.5368 30.7864 11.8617 30.7864 12.072C30.7769 12.2823 30.9585 13.1043 31.1879 13.9071C31.4077 14.71 31.5606 15.3886 31.5128 15.4173C31.4746 15.4459 30.8533 15.0827 30.1269 14.6048C29.4101 14.1365 28.7506 13.7446 28.6742 13.7446C28.5977 13.7446 28.3014 13.5917 28.0242 13.4101C27.7566 13.2285 27.489 13.0756 27.4316 13.0756C27.3743 13.0756 26.9442 13.3336 26.4759 13.6491C26.0075 13.9645 25.5965 14.213 25.5679 14.2034C25.5488 14.1843 25.6348 13.7829 25.759 13.3145C25.8928 12.8462 25.998 12.3587 25.998 12.2441C25.998 12.1198 25.9406 11.9095 25.8642 11.7662C25.7877 11.6132 25.1664 11.0493 24.4783 10.495C23.7901 9.94062 23.2358 9.48185 23.2549 9.46273C23.2644 9.45317 23.9908 9.39582 24.8701 9.34804C25.9406 9.28432 26.5714 9.20467 26.7626 9.10909C26.9538 9.01351 27.1258 8.80324 27.2787 8.46872Z" fill="#DAAC0C"/>
<path d="M26.6522 42.4387C31.9031 42.4387 36.3866 43.2712 36.3866 46.6024C36.3866 49.9322 31.9318 50.795 26.6522 50.795C21.4013 50.795 16.9178 49.9625 16.9178 46.6327C16.9178 43.3015 21.3725 42.4387 26.6522 42.4387ZM35.0477 40.4329C37.0551 40.3957 39.2133 40.6713 40.0108 40.867C41.7003 41.1992 42.8116 41.8773 43.272 42.8627C43.6612 43.6717 43.6612 44.6103 43.272 45.4179C42.5677 46.9464 40.2972 47.437 39.4147 47.5638C39.2325 47.5914 39.0859 47.4329 39.105 47.2496C39.5559 43.0143 35.9699 41.0062 35.0422 40.5445C35.0025 40.5238 34.9942 40.4921 34.9984 40.4728C35.0011 40.4591 35.0175 40.437 35.0477 40.4329ZM18.4137 40.4334C18.4439 40.4376 18.4589 40.4596 18.4617 40.472C18.4658 40.4927 18.4576 40.523 18.4192 40.5451C17.4902 41.0068 13.9042 43.0148 14.355 47.2488C14.3742 47.4335 14.2289 47.5906 14.0467 47.5644C13.1642 47.4376 10.8937 46.9469 10.1894 45.4185C9.79885 44.6095 9.79885 43.6723 10.1894 42.8632C10.6498 41.8778 11.7597 41.1997 13.4492 40.8662C14.2481 40.6719 16.4049 40.3962 18.4137 40.4334ZM26.6522 26.3096C30.2272 26.3096 33.0938 29.1901 33.0938 32.7873C33.0938 36.3831 30.2272 39.2663 26.6522 39.2663C23.0772 39.2663 20.2106 36.3831 20.2106 32.7873C20.2106 29.1901 23.0772 26.3096 26.6522 26.3096ZM35.3971 27.3898C38.8502 27.3898 41.5619 30.6576 40.6384 34.2975C40.0149 36.748 37.7581 38.3757 35.2436 38.3096C34.9915 38.3027 34.7435 38.2792 34.5037 38.2379C34.3297 38.2076 34.242 38.0105 34.3406 37.8644C35.2998 36.4448 35.8466 34.7372 35.8466 32.9041C35.8466 30.9911 35.2491 29.2077 34.2118 27.7454C34.1789 27.6999 34.1543 27.6296 34.1872 27.5773C34.2146 27.5345 34.2653 27.5125 34.3132 27.5015C34.6626 27.4298 35.0217 27.3898 35.3971 27.3898ZM18.0623 27.3897C18.4377 27.3897 18.7967 27.4297 19.1475 27.5013C19.1941 27.5124 19.2462 27.5358 19.2736 27.5771C19.3051 27.6295 19.2818 27.6998 19.2489 27.7453C18.2116 29.2076 17.6142 30.991 17.6142 32.904C17.6142 34.737 18.1609 36.4447 19.1201 37.8643C19.2188 38.0103 19.1311 38.2074 18.957 38.2378C18.7159 38.2805 18.4692 38.3025 18.2171 38.3094C15.7027 38.3756 13.4458 36.7479 12.8223 34.2974C11.8974 30.6575 14.6092 27.3897 18.0623 27.3897Z" fill="#56B790"/>
<path d="M19.3588 39.4965L19.7518 39.5001M19.7518 39.5001C19.7832 39.5044 19.7988 39.5273 19.8017 39.5402C19.806 39.5617 19.7974 39.5932 19.7575 39.6161C18.7916 40.0962 15.0633 42.184 15.532 46.586C15.5519 46.778 15.4009 46.9413 15.2114 46.9141C14.2939 46.7823 11.9333 46.2721 11.201 44.683C10.795 43.8419 10.795 42.8675 11.201 42.0263C11.6797 41.0018 12.8337 40.2968 14.5903 39.95C15.4209 39.748 17.6633 39.4614 19.7518 39.5001ZM28.3173 41.585C33.7766 41.585 38.4381 42.4505 38.4381 45.9139C38.4381 49.3759 33.8066 50.2729 28.3173 50.2729C22.858 50.2729 18.1965 49.4074 18.1965 45.9454C18.1965 42.482 22.8281 41.585 28.3173 41.585ZM37.0461 39.4995C39.1332 39.4608 41.3771 39.7474 42.2062 39.9509C43.9628 40.2962 45.1182 41.0012 45.5969 42.0258C46.0015 42.8669 46.0015 43.8427 45.5969 44.6824C44.8646 46.2716 42.504 46.7817 41.5865 46.9135C41.397 46.9422 41.2446 46.7774 41.2645 46.5868C41.7332 42.1834 38.0049 40.0956 37.0404 39.6156C36.9991 39.5941 36.9905 39.5611 36.9948 39.541C36.9977 39.5267 37.0148 39.5038 37.0461 39.4995ZM28.3173 24.8156C32.0343 24.8156 35.0147 27.8104 35.0147 31.5504C35.0147 35.2889 32.0343 38.2866 28.3173 38.2866C24.6004 38.2866 21.62 35.2889 21.62 31.5504C21.62 27.8104 24.6004 24.8156 28.3173 24.8156ZM37.4094 25.9387C40.9995 25.9387 43.8189 29.3362 42.8587 33.1206C42.2105 35.6684 39.8641 37.3607 37.2498 37.2919C36.9877 37.2847 36.7298 37.2604 36.4805 37.2174C36.2996 37.1859 36.2084 36.9809 36.311 36.8291C37.3082 35.3531 37.8767 33.5777 37.8767 31.6719C37.8767 29.683 37.2555 27.8287 36.1771 26.3084C36.1429 26.2611 36.1172 26.188 36.1514 26.1336C36.1799 26.0892 36.2326 26.0662 36.2825 26.0548C36.6458 25.9802 37.019 25.9387 37.4094 25.9387ZM19.3864 25.9385C19.7768 25.9385 20.15 25.9801 20.5147 26.0546C20.5632 26.0661 20.6173 26.0904 20.6458 26.1334C20.6786 26.1879 20.6544 26.261 20.6202 26.3082C19.5417 27.8286 18.9205 29.6828 18.9205 31.6718C18.9205 33.5776 19.489 35.353 20.4862 36.8289C20.5888 36.9808 20.4976 37.1857 20.3167 37.2172C20.066 37.2617 19.8095 37.2846 19.5474 37.2918C16.9331 37.3605 14.5867 35.6682 13.9385 33.1205C12.9768 29.3361 15.7963 25.9385 19.3864 25.9385Z" stroke="black" stroke-width="0.573469"/>
</svg>
