<svg width="72" height="72" viewBox="0 0 72 72" fill="none" xmlns="http://www.w3.org/2000/svg">
<rect width="72" height="72" fill="white"/>
<rect x="27.7598" y="54.0623" width="14.7358" height="4.72281" rx="2.36141" fill="#97B0D7"/>
<path d="M56.8371 34.3032C58.6805 34.3032 60.1988 35.8092 59.8785 37.6245C58.0378 48.0575 47.6612 56.0482 35.1361 56.0482C22.611 56.0482 12.2344 48.0575 10.3937 37.6245C10.0734 35.8092 11.5917 34.3032 13.4351 34.3032C17.759 34.3032 25.8581 34.3032 35.1361 34.3032C44.4141 34.3032 52.5132 34.3032 56.8371 34.3032Z" fill="#97B0D7"/>
<rect x="30.0049" y="53.3359" width="15.1684" height="3.8422" rx="1.9211" stroke="#403C3B" stroke-width="1.5"/>
<path d="M62.1453 30.9856C63.8578 30.9856 65.1128 32.3559 64.847 33.8621C62.8398 45.2387 51.4737 54.0824 37.5983 54.0824C23.7228 54.0824 12.3567 45.2387 10.3495 33.8621C10.0837 32.3559 11.3387 30.9856 13.0512 30.9856H13.0799H13.1087H13.1376H13.1666H13.1957H13.2249H13.2542H13.2836H13.3131H13.3426H13.3723H13.4021H13.432H13.4619H13.492H13.5221H13.5524H13.5827H13.6132H13.6437H13.6744H13.7051H13.7359H13.7668H13.7979H13.829H13.8602H13.8915H13.9228H13.9543H13.9859H14.0176H14.0493H14.0812H14.1132H14.1452H14.1773H14.2096H14.2419H14.2743H14.3068H14.3394H14.3721H14.4049H14.4378H14.4708H14.5038H14.537H14.5702H14.6035H14.637H14.6705H14.7041H14.7378H14.7716H14.8055H14.8394H14.8735H14.9077H14.9419H14.9762H15.0106H15.0452H15.0798H15.1144H15.1492H15.1841H15.219H15.2541H15.2892H15.3245H15.3598H15.3952H15.4306H15.4662H15.5019H15.5376H15.5735H15.6094H15.6454H15.6815H15.7177H15.754H15.7903H15.8268H15.8633H15.8999H15.9367H15.9735H16.0103H16.0473H16.0843H16.1215H16.1587H16.196H16.2334H16.2709H16.3085H16.3461H16.3838H16.4217H16.4596H16.4975H16.5356H16.5738H16.612H16.6503H16.6887H16.7272H16.7658H16.8045H16.8432H16.882H16.9209H16.9599H16.999H17.0381H17.0774H17.1167H17.1561H17.1956H17.2351H17.2748H17.3145H17.3543H17.3942H17.4342H17.4742H17.5144H17.5546H17.5949H17.6353H17.6757H17.7163H17.7569H17.7976H17.8383H17.8792H17.9201H17.9612H18.0022H18.0434H18.0847H18.126H18.1674H18.2089H18.2505H18.2921H18.3338H18.3757H18.4175H18.4595H18.5015H18.5436H18.5858H18.6281H18.6705H18.7129H18.7554H18.798H18.8406H18.8833H18.9261H18.969H19.012H19.055H19.0981H19.1413H19.1846H19.2279H19.2713H19.3148H19.3584H19.402H19.4458H19.4895H19.5334H19.5773H19.6214H19.6654H19.7096H19.7538H19.7982H19.8425H19.887H19.9315H19.9761H20.0208H20.0656H20.1104H20.1553H20.2002H20.2453H20.2904H20.3356H20.3808H20.4262H20.4716H20.517H20.5626H20.6082H20.6539H20.6996H20.7455H20.7914H20.8373H20.8834H20.9295H20.9757H21.0219H21.0683H21.1147H21.1611H21.2076H21.2543H21.3009H21.3477H21.3945H21.4414H21.4883H21.5353H21.5824H21.6296H21.6768H21.7241H21.7714H21.8189H21.8664H21.9139H21.9616H22.0093H22.057H22.1049H22.1528H22.2007H22.2488H22.2969H22.345H22.3933H22.4416H22.4899H22.5384H22.5869H22.6354H22.6841H22.7328H22.7815H22.8304H22.8793H22.9282H22.9772H23.0263H23.0755H23.1247H23.174H23.2233H23.2727H23.3222H23.3717H23.4213H23.471H23.5207H23.5705H23.6204H23.6703H23.7203H23.7703H23.8204H23.8706H23.9208H23.9711H24.0215H24.0719H24.1224H24.1729H24.2235H24.2742H24.3249H24.3757H24.4265H24.4775H24.5284H24.5795H24.6305H24.6817H24.7329H24.7842H24.8355H24.8869H24.9384H24.9899H25.0414H25.0931H25.1448H25.1965H25.2483H25.3002H25.3521H25.4041H25.4561H25.5082H25.5604H25.6126H25.6649H25.7172H25.7696H25.8221H25.8746H25.9271H25.9798H26.0324H26.0852H26.138H26.1908H26.2437H26.2967H26.3497H26.4028H26.4559H26.5091H26.5623H26.6156H26.669H26.7224H26.7758H26.8294H26.8829H26.9366H26.9902H27.044H27.0978H27.1516H27.2055H27.2595H27.3135H27.3675H27.4216H27.4758H27.53H27.5843H27.6386H27.693H27.7474H27.8019H27.8565H27.9111H27.9657H28.0204H28.0751H28.1299H28.1848H28.2397L28.2947 30.9856H28.3497H28.4047H28.4598H28.515H28.5702H28.6255H28.6808H28.7361H28.7915H28.847H28.9025H28.9581H29.0137H29.0694H29.1251H29.1808H29.2366H29.2925H29.3484H29.4044H29.4604H29.5164H29.5725H29.6287H29.6849H29.7411H29.7974H29.8538H29.9102H29.9666H30.0231H30.0796H30.1362H30.1928H30.2495H30.3062H30.363H30.4198H30.4767H30.5336H30.5905H30.6475H30.7046H30.7617H30.8188H30.876H30.9332H30.9905H31.0478H31.1052H31.1626H31.22H31.2775H31.3351H31.3927H31.4503H31.508H31.5657H31.6235H31.6813H31.7391H31.797H31.8549H31.9129H31.9709H32.029H32.0871H32.1453H32.2035H32.2617H32.32H32.3783H32.4367H32.4951H32.5535H32.612H32.6705H32.7291H32.7877H32.8464H32.905H32.9638H33.0226H33.0814H33.1402H33.1991H33.2581H33.317H33.376H33.4351H33.4942H33.5533H33.6125H33.6717H33.731H33.7902H33.8496H33.9089H33.9684H34.0278H34.0873H34.1468H34.2064H34.266H34.3256H34.3853H34.445H34.5047H34.5645H34.6243H34.6842H34.7441H34.804H34.864H34.924H34.984H35.0441H35.1042H35.1644H35.2245H35.2848H35.345H35.4053H35.4656H35.526H35.5864H35.6468H35.7073H35.7678H35.8283H35.8889H35.9495H36.0101H36.0708H36.1315H36.1923H36.253H36.3138H36.3747H36.4356H36.4965H36.5574H36.6184H36.6794H36.7404H36.8015H36.8626H36.9237H36.9849H37.0461H37.1073H37.1686H37.2299H37.2912H37.3525H37.4139H37.4753H37.5368H37.5983H37.6597H37.7212H37.7826H37.844H37.9053H37.9667H38.028H38.0892H38.1504H38.2116H38.2728H38.3339H38.395H38.4561H38.5171H38.5781H38.6391H38.7001H38.761H38.8218H38.8827H38.9435H39.0043H39.065H39.1257H39.1864H39.247H39.3076H39.3682H39.4287H39.4892H39.5497H39.6101H39.6705H39.7309H39.7912H39.8515H39.9117H39.972H40.0322H40.0923H40.1524H40.2125H40.2725H40.3325H40.3925H40.4524H40.5123H40.5722H40.632H40.6918H40.7515H40.8113H40.8709H40.9306H40.9902H41.0497H41.1092H41.1687H41.2282H41.2876H41.3469H41.4063H41.4656H41.5248H41.584H41.6432H41.7023H41.7614H41.8205H41.8795H41.9385H41.9974H42.0563H42.1151H42.174H42.2327H42.2915H42.3502H42.4088H42.4674H42.526H42.5845H42.643H42.7015H42.7599H42.8182H42.8765H42.9348H42.993H43.0512H43.1094H43.1675H43.2256H43.2836H43.3416H43.3995H43.4574H43.5152H43.5731H43.6308H43.6885H43.7462H43.8038H43.8614H43.919H43.9765H44.0339H44.0913H44.1487H44.206H44.2633H44.3205H44.3777H44.4348H44.4919H44.549H44.606H44.6629H44.7198H44.7767H44.8335H44.8903H44.947H45.0037H45.0603H45.1169H45.1734H45.2299H45.2863H45.3427H45.3991H45.4554H45.5116H45.5678H45.624H45.6801H45.7361H45.7921H45.8481H45.904H45.9599H46.0157H46.0714H46.1272H46.1828H46.2384H46.294H46.3495H46.405H46.4604H46.5157H46.5711H46.6263H46.6815H46.7367H46.7918H46.8469H46.9019H46.9568H47.0117H47.0666H47.1214H47.1761H47.2308H47.2855H47.34H47.3946H47.4491H47.5035H47.5579H47.6122H47.6665H47.7207H47.7749H47.829H47.883H47.9371H47.991H48.0449H48.0988H48.1525H48.2063H48.26H48.3136H48.3672H48.4207H48.4741H48.5275H48.5809H48.6342H48.6874H48.7406H48.7938H48.8468H48.8998H48.9528H49.0057H49.0586H49.1113H49.1641H49.2168H49.2694H49.3219H49.3744H49.4269H49.4793H49.5316H49.5839H49.6361H49.6883H49.7404H49.7924H49.8444H49.8963H49.9482H50H50.0518H50.1034H50.1551H50.2066H50.2582H50.3096H50.361H50.4123H50.4636H50.5148H50.566H50.6171H50.6681H50.7191H50.77H50.8208H50.8716H50.9223H50.973H51.0236H51.0741H51.1246H51.175H51.2254H51.2757H51.3259H51.3761H51.4262H51.4762H51.5262H51.5761H51.626H51.6758H51.7255H51.7752H51.8248H51.8743H51.9238H51.9732H52.0225H52.0718H52.121H52.1702H52.2193H52.2683H52.3173H52.3662H52.415H52.4637H52.5124H52.5611H52.6096H52.6581H52.7066H52.7549H52.8032H52.8515H52.8996H52.9477H52.9958H53.0437H53.0916H53.1395H53.1872H53.2349H53.2826H53.3301H53.3776H53.4251H53.4724H53.5197H53.5669H53.6141H53.6612H53.7082H53.7552H53.802H53.8488H53.8956H53.9423H53.9889H54.0354H54.0819H54.1283H54.1746H54.2208H54.267H54.3131H54.3592H54.4051H54.451H54.4969H54.5426H54.5883H54.6339H54.6795H54.725H54.7704H54.8157H54.8609H54.9061H54.9512H54.9963H55.0412H55.0861H55.131H55.1757H55.2204H55.265H55.3095H55.354H55.3984H55.4427H55.4869H55.5311H55.5752H55.6192H55.6631H55.707H55.7508H55.7945H55.8381H55.8817H55.9252H55.9686H56.0119H56.0552H56.0984H56.1415H56.1845H56.2275H56.2704H56.3132H56.3559H56.3986H56.4411H56.4836H56.5261H56.5684H56.6107H56.6529H56.695H56.737H56.779H56.8209H56.8627H56.9044H56.946H56.9876H57.0291H57.0705H57.1118H57.1531H57.1943H57.2354H57.2764H57.3173H57.3582H57.3989H57.4396H57.4803H57.5208H57.5612H57.6016H57.6419H57.6821H57.7223H57.7623H57.8023H57.8422H57.882H57.9217H57.9614H58.0009H58.0404H58.0798H58.1191H58.1584H58.1975H58.2366H58.2756H58.3145H58.3533H58.3921H58.4307H58.4693H58.5078H58.5462H58.5845H58.6227H58.6609H58.699H58.737H58.7749H58.8127H58.8504H58.8881H58.9256H58.9631H59.0005H59.0378H59.075H59.1122H59.1492H59.1862H59.2231H59.2599H59.2966H59.3332H59.3697H59.4062H59.4425H59.4788H59.515H59.5511H59.5871H59.623H59.6589H59.6946H59.7303H59.7659H59.8013H59.8368H59.8721H59.9073H59.9424H59.9775H60.0124H60.0473H60.0821H60.1168H60.1514H60.1859H60.2203H60.2546H60.2889H60.323H60.3571H60.391H60.4249H60.4587H60.4924H60.526H60.5595H60.593H60.6263H60.6595H60.6927H60.7258H60.7587H60.7916H60.8244H60.8571H60.8897H60.9222H60.9546H60.9869H61.0192H61.0513H61.0834H61.1153H61.1472H61.1789H61.2106H61.2422H61.2737H61.3051H61.3364H61.3676H61.3987H61.4297H61.4606H61.4914H61.5221H61.5528H61.5833H61.6138H61.6441H61.6744H61.7045H61.7346H61.7646H61.7944H61.8242H61.8539H61.8835H61.9129H61.9423H61.9716H62.0008H62.0299H62.0589H62.0878H62.1166H62.1453Z" stroke="#403C3B" stroke-width="1.5"/>
<mask id="path-5-inside-1_1788_3291" fill="white">
<path fill-rule="evenodd" clip-rule="evenodd" d="M43.255 25.8616C43.8446 23.2213 40.7967 20.2935 36.4473 19.3222C33.1383 18.5833 30.0293 19.1897 28.4716 20.6848L21.9322 19.2245C21.811 19.1607 21.6808 19.1095 21.5429 19.073L9.46059 15.8738C8.44682 15.6054 7.41316 16.2337 7.18461 17.2571L6.94591 18.3261C6.7173 19.3498 7.38589 20.3583 8.41786 20.5463L20.7143 22.7866C20.8762 22.8161 21.0371 22.8235 21.1939 22.8109L27.6737 24.2579C28.4475 26.2736 31.0031 28.145 34.3121 28.8839C38.6615 29.8551 42.6654 28.502 43.255 25.8616Z"/>
</mask>
<path d="M28.4716 20.6848L28.1447 22.1488L28.9299 22.3241L29.5103 21.767L28.4716 20.6848ZM21.9322 19.2245L21.2333 20.5518L21.4102 20.6449L21.6053 20.6885L21.9322 19.2245ZM21.5429 19.073L21.9269 17.6229L21.9269 17.6229L21.5429 19.073ZM9.46059 15.8738L9.07666 17.3239L9.07666 17.3239L9.46059 15.8738ZM8.41786 20.5463L8.68672 19.0706L8.68672 19.0706L8.41786 20.5463ZM20.7143 22.7866L20.9832 21.3109L20.9832 21.3109L20.7143 22.7866ZM21.1939 22.8109L21.5208 21.347L21.2999 21.2976L21.0742 21.3157L21.1939 22.8109ZM27.6737 24.2579L29.0741 23.7204L28.7858 22.9693L28.0007 22.794L27.6737 24.2579ZM36.1204 20.7862C38.0723 21.222 39.6611 22.0842 40.6641 23.0478C41.6902 24.0334 41.9278 24.9223 41.791 25.5347L44.7189 26.1885C45.1718 24.1606 44.1803 22.2655 42.7424 20.8842C41.2816 19.481 39.1716 18.3936 36.7742 17.8583L36.1204 20.7862ZM29.5103 21.767C30.5615 20.758 33.0684 20.1046 36.1204 20.7862L36.7742 17.8583C33.2082 17.062 29.4971 17.6214 27.4329 19.6026L29.5103 21.767ZM28.7985 19.2209L22.2591 17.7606L21.6053 20.6885L28.1447 22.1488L28.7985 19.2209ZM22.6311 17.8973C22.4106 17.7812 22.1748 17.6886 21.9269 17.6229L21.159 20.523C21.1868 20.5303 21.2114 20.5402 21.2333 20.5518L22.6311 17.8973ZM21.9269 17.6229L9.84453 14.4238L9.07666 17.3239L21.159 20.523L21.9269 17.6229ZM9.84453 14.4238C8.00768 13.9374 6.13478 15.0758 5.72067 16.9302L8.64856 17.5841C8.69155 17.3915 8.88597 17.2734 9.07666 17.3239L9.84453 14.4238ZM5.72067 16.9302L5.48196 17.9992L8.40985 18.653L8.64856 17.5841L5.72067 16.9302ZM5.48196 17.9992C5.06775 19.8541 6.27917 21.6814 8.14901 22.022L8.68672 19.0706C8.49261 19.0353 8.36685 18.8456 8.40985 18.653L5.48196 17.9992ZM8.14901 22.022L20.4455 24.2623L20.9832 21.3109L8.68672 19.0706L8.14901 22.022ZM20.4455 24.2623C20.7366 24.3154 21.0282 24.329 21.3137 24.3061L21.0742 21.3157C21.046 21.318 21.0157 21.3168 20.9832 21.3109L20.4455 24.2623ZM20.867 24.2749L27.3468 25.7219L28.0007 22.794L21.5208 21.347L20.867 24.2749ZM34.639 27.4199C31.5871 26.7384 29.5963 25.0807 29.0741 23.7204L26.2734 24.7954C27.2987 27.4665 30.4192 29.5515 33.9852 30.3478L34.639 27.4199ZM41.791 25.5347C41.6543 26.1472 41.0611 26.8506 39.7132 27.3061C38.3955 27.7514 36.591 27.8558 34.639 27.4199L33.9852 30.3478C36.3826 30.8832 38.7547 30.7967 40.6737 30.1482C42.5626 29.5098 44.2661 28.2165 44.7189 26.1885L41.791 25.5347Z" fill="#403C3B" mask="url(#path-5-inside-1_1788_3291)"/>
</svg>
