<svg width="94" height="93" viewBox="0 0 94 93" fill="none" xmlns="http://www.w3.org/2000/svg">
<path d="M23.8424 67.8658H17.7015C14.324 67.8658 11.5605 70.6293 11.5605 74.0068C11.5605 77.3843 14.324 80.1477 17.7015 80.1477H23.8424C27.2199 80.1477 29.9833 77.3843 29.9833 74.0068C29.9833 70.6293 27.2199 67.8658 23.8424 67.8658Z" fill="#E8A263"/>
<path d="M48.4058 61.7251H42.2649C38.8874 61.7251 36.124 64.4885 36.124 67.866V74.0069C36.124 77.3844 38.8874 80.1478 42.2649 80.1478H48.4058C51.7833 80.1478 54.5468 77.3844 54.5468 74.0069V67.866C54.5468 64.4885 51.7833 61.7251 48.4058 61.7251Z" fill="#E8A263"/>
<path d="M72.9703 49.4432H66.8294C63.4519 49.4432 60.6885 52.2066 60.6885 55.5841V74.0069C60.6885 77.3844 63.4519 80.1478 66.8294 80.1478H72.9703C76.3478 80.1478 79.1112 77.3844 79.1112 74.0069V55.5841C79.1112 52.2066 76.3478 49.4432 72.9703 49.4432Z" fill="#E8A263"/>
<path d="M76.0401 18.7388H55.7751C53.0117 18.7388 51.7835 22.1163 53.6258 23.9585L59.4597 29.7924C48.099 42.6883 31.8256 52.5138 14.631 52.5138C12.7887 52.5138 11.5605 53.742 11.5605 55.5842C11.5605 57.4265 12.7887 58.6547 14.631 58.6547C35.2031 58.6547 54.2399 52.8208 68.0569 38.3897L73.5837 43.9165C75.426 45.7588 78.8035 44.5306 78.8035 41.7672V21.8092C79.1106 19.967 77.8824 18.7388 76.0401 18.7388Z" fill="#E8A263"/>
<path d="M15.0753 68.3642H22.1697C25.7506 68.3642 28.6829 71.2964 28.6829 74.8773C28.6829 78.4582 25.7506 81.3905 22.1697 81.3905H15.0753C11.4944 81.3905 8.56221 78.4582 8.56221 74.8773C8.56221 71.2964 11.4944 68.3642 15.0753 68.3642Z" stroke="black" stroke-width="1.1625"/>
<path d="M43.4523 61.2698H50.5467C54.1276 61.2698 57.0598 64.2021 57.0598 67.783V74.8774C57.0598 78.4583 54.1276 81.3905 50.5467 81.3905H43.4523C39.8714 81.3905 36.9392 78.4583 36.9392 74.8774V67.783C36.9392 64.2021 39.8714 61.2698 43.4523 61.2698Z" stroke="black" stroke-width="1.1625"/>
<path d="M71.8302 47.0811H78.9246C82.5055 47.0811 85.4377 50.0134 85.4377 53.5943V74.8774C85.4377 78.4583 82.5055 81.3905 78.9246 81.3905H71.8302C68.2493 81.3905 65.3171 78.4583 65.3171 74.8774V53.5943C65.3171 50.0134 68.2493 47.0811 71.8302 47.0811Z" stroke="black" stroke-width="1.1625"/>
<path d="M63.7533 24.1822L64.114 23.7728L63.7281 23.387L56.9885 16.6473C55.1999 14.8587 56.4229 11.6093 59.0605 11.6093H82.472C83.4096 11.6093 84.1288 11.9202 84.5734 12.3991C85.0109 12.8702 85.243 13.5682 85.0911 14.4797L85.0832 14.5272V14.5753V37.632C85.0832 40.2696 81.8338 41.4926 80.0452 39.704L73.6603 33.3191L73.2402 32.8991L72.8294 33.3281C57.0081 49.8526 35.1878 56.5603 11.5281 56.5603C10.5961 56.5603 9.86452 56.2522 9.36744 55.7551C8.87036 55.258 8.56221 54.5264 8.56221 53.5944C8.56221 52.6623 8.87036 51.9307 9.36744 51.4337C9.86452 50.9366 10.5961 50.6284 11.5281 50.6284C31.6107 50.6284 50.5576 39.1611 63.7533 24.1822Z" stroke="black" stroke-width="1.1625"/>
</svg>
