<svg width="328" height="172" viewBox="0 0 328 172" fill="none" xmlns="http://www.w3.org/2000/svg">
<rect width="328" height="171.771" rx="8" fill="white"/>
<rect width="42" height="42" transform="translate(12 12)" fill="white"/>
<path d="M48.9033 42.4451V25.7269C48.9033 25.7269 44.2515 24.1786 40.9511 24.1087C37.8261 24.0425 35.8603 24.3946 33.1213 25.727C27.9151 28.2594 27.1033 28.1656 22.9809 27.6893L22.9609 27.687C20.5326 27.4064 17.0946 25.7269 17.0946 25.7269V43.4828C17.0946 43.4828 22.3439 44.472 26.1478 44.4066C31.838 44.3088 34.4777 40.5799 40.1689 40.6004C43.6758 40.613 48.9033 42.4451 48.9033 42.4451Z" fill="#E8A263"/>
<path d="M46.2757 23.6508C46.2757 23.6508 44.4964 22.6989 41.1961 22.6247C38.071 22.5545 36.1052 22.9281 33.3662 24.3414C28.1517 27.0322 25.9034 26.9863 23.2059 26.4206C21.479 26.0585 19.1917 25.1372 18.0505 24.6517C17.7159 24.5093 17.3395 24.7541 17.3395 25.1177V27.1433M19.2971 25.1861V23.0723C19.2971 22.7326 19.6275 22.4896 19.9526 22.5881C21.0957 22.9344 23.5027 23.621 25.2919 23.8403C29.4316 24.3477 30.0837 22.7528 35.5686 20.6675C40.0952 18.9464 42.2973 19.4381 43.1537 19.5583C45.9435 19.9497 47.6743 20.7089 48.2866 21.0155C48.4442 21.0944 48.5367 21.2567 48.5367 21.4329V26.4094M48.9035 27.1338V43.7955C48.9035 44.144 48.5549 44.3883 48.225 44.2761C46.6975 43.7564 42.9084 42.5683 40.1691 42.5579C34.4779 42.5362 31.8382 46.4918 26.148 46.5956C22.973 46.6535 18.791 45.932 17.4949 45.6918C17.2606 45.6484 17.0947 45.444 17.0947 45.2056V27.6024C17.0947 27.2275 17.4936 26.981 17.833 27.1403C18.9769 27.677 21.2266 28.6467 22.9611 28.8593L22.9694 28.8604C24.6903 29.0713 27.9153 29.4666 33.1214 26.7801C35.8604 25.3668 37.8263 24.9932 40.9513 25.0635C43.7227 25.1258 47.4471 26.2939 48.5697 26.6668C48.7709 26.7336 48.9035 26.9218 48.9035 27.1338Z" stroke="#403C3B" stroke-width="0.489365"/>
<g clip-path="url(#clip0_831_19177)">
<path d="M29.8789 34.2556C29.8789 34.2556 30.5363 34.2556 31.1992 34.2556M32.8967 40.2911L30.2561 37.6506C30.2561 37.6506 30.822 37.6506 31.1992 37.6506C31.5764 37.6506 33.2739 37.6739 33.2739 35.9531C33.2739 34.2323 31.5764 34.2556 31.1992 34.2556M34.4055 34.2556C34.4055 34.2556 32.304 34.2556 31.1992 34.2556M29.8789 35.9531H34.4055" stroke="#403C3B" stroke-width="0.754438"/>
</g>
<path d="M63.184 38V26.8H64.528V38H63.184ZM66.8228 38V30.064H68.0388L68.1188 31.488C68.3748 30.9867 68.7428 30.592 69.2228 30.304C69.7028 30.016 70.2468 29.872 70.8548 29.872C71.7934 29.872 72.5401 30.16 73.0948 30.736C73.6601 31.3013 73.9427 32.176 73.9427 33.36V38H72.5988V33.504C72.5988 31.8507 71.9161 31.024 70.5508 31.024C69.8681 31.024 69.2974 31.2747 68.8388 31.776C68.3908 32.2667 68.1668 32.9707 68.1668 33.888V38H66.8228ZM76.411 38V31.2H75.211V30.064H76.411V28.688C76.411 27.92 76.603 27.36 76.987 27.008C77.371 26.656 77.931 26.48 78.667 26.48H79.467V27.632H78.875C78.4697 27.632 78.1817 27.7173 78.011 27.888C77.8403 28.048 77.755 28.3253 77.755 28.72V30.064H79.707V31.2H77.755V38H76.411ZM81.307 38V26.48H82.651V38H81.307ZM87.75 38.192C86.8113 38.192 86.0647 37.9093 85.51 37.344C84.9553 36.768 84.678 35.888 84.678 34.704V30.064H86.022V34.56C86.022 36.2133 86.6993 37.04 88.054 37.04C88.7473 37.04 89.318 36.7947 89.766 36.304C90.2247 35.8027 90.454 35.0933 90.454 34.176V30.064H91.798V38H90.582L90.486 36.576C90.2407 37.0773 89.8727 37.472 89.382 37.76C88.902 38.048 88.358 38.192 87.75 38.192ZM97.5783 38.192C96.8209 38.192 96.1489 38.0213 95.5623 37.68C94.9756 37.328 94.5116 36.8427 94.1703 36.224C93.8396 35.6053 93.6743 34.8747 93.6743 34.032C93.6743 33.2 93.8396 32.4747 94.1703 31.856C94.5009 31.2267 94.9596 30.7413 95.5463 30.4C96.1436 30.048 96.8316 29.872 97.6102 29.872C98.3783 29.872 99.0396 30.048 99.5943 30.4C100.16 30.7413 100.592 31.1947 100.89 31.76C101.189 32.3253 101.338 32.9333 101.338 33.584C101.338 33.7013 101.333 33.8187 101.322 33.936C101.322 34.0533 101.322 34.1867 101.322 34.336H95.0023C95.0343 34.944 95.1729 35.4507 95.4183 35.856C95.6743 36.2507 95.9889 36.5493 96.3623 36.752C96.7463 36.9547 97.1516 37.056 97.5783 37.056C98.1329 37.056 98.5969 36.928 98.9703 36.672C99.3436 36.416 99.6156 36.0693 99.7863 35.632H101.114C100.901 36.368 100.49 36.9813 99.8823 37.472C99.2849 37.952 98.5169 38.192 97.5783 38.192ZM97.5783 31.008C96.9383 31.008 96.3676 31.2053 95.8663 31.6C95.3756 31.984 95.0929 32.5493 95.0182 33.296H100.01C99.9783 32.5813 99.7329 32.0213 99.2743 31.616C98.8156 31.2107 98.2503 31.008 97.5783 31.008ZM103.12 38V30.064H104.336L104.416 31.488C104.672 30.9867 105.04 30.592 105.52 30.304C106 30.016 106.544 29.872 107.152 29.872C108.09 29.872 108.837 30.16 109.392 30.736C109.957 31.3013 110.24 32.176 110.24 33.36V38H108.896V33.504C108.896 31.8507 108.213 31.024 106.848 31.024C106.165 31.024 105.594 31.2747 105.136 31.776C104.688 32.2667 104.464 32.9707 104.464 33.888V38H103.12ZM115.924 38.192C115.167 38.192 114.484 38.0213 113.876 37.68C113.279 37.328 112.804 36.8427 112.452 36.224C112.111 35.5947 111.94 34.864 111.94 34.032C111.94 33.2 112.111 32.4747 112.452 31.856C112.804 31.2267 113.279 30.7413 113.876 30.4C114.484 30.048 115.167 29.872 115.924 29.872C116.863 29.872 117.652 30.1173 118.292 30.608C118.943 31.0987 119.353 31.7547 119.524 32.576H118.148C118.041 32.0853 117.78 31.7067 117.364 31.44C116.948 31.1627 116.463 31.024 115.908 31.024C115.46 31.024 115.039 31.136 114.644 31.36C114.249 31.584 113.929 31.92 113.684 32.368C113.439 32.816 113.316 33.3707 113.316 34.032C113.316 34.6933 113.439 35.248 113.684 35.696C113.929 36.144 114.249 36.4853 114.644 36.72C115.039 36.944 115.46 37.056 115.908 37.056C116.463 37.056 116.948 36.9227 117.364 36.656C117.78 36.3787 118.041 35.9893 118.148 35.488H119.524C119.364 36.288 118.959 36.9387 118.308 37.44C117.657 37.9413 116.863 38.192 115.924 38.192ZM124.969 38.192C124.212 38.192 123.54 38.0213 122.953 37.68C122.366 37.328 121.902 36.8427 121.561 36.224C121.23 35.6053 121.065 34.8747 121.065 34.032C121.065 33.2 121.23 32.4747 121.561 31.856C121.892 31.2267 122.35 30.7413 122.937 30.4C123.534 30.048 124.222 29.872 125.001 29.872C125.769 29.872 126.43 30.048 126.985 30.4C127.55 30.7413 127.982 31.1947 128.281 31.76C128.58 32.3253 128.729 32.9333 128.729 33.584C128.729 33.7013 128.724 33.8187 128.713 33.936C128.713 34.0533 128.713 34.1867 128.713 34.336H122.393C122.425 34.944 122.564 35.4507 122.809 35.856C123.065 36.2507 123.38 36.5493 123.753 36.752C124.137 36.9547 124.542 37.056 124.969 37.056C125.524 37.056 125.988 36.928 126.361 36.672C126.734 36.416 127.006 36.0693 127.177 35.632H128.505C128.292 36.368 127.881 36.9813 127.273 37.472C126.676 37.952 125.908 38.192 124.969 38.192ZM124.969 31.008C124.329 31.008 123.758 31.2053 123.257 31.6C122.766 31.984 122.484 32.5493 122.409 33.296H127.401C127.369 32.5813 127.124 32.0213 126.665 31.616C126.206 31.2107 125.641 31.008 124.969 31.008ZM134.825 38V26.8H136.169V31.744H141.977V26.8H143.321V38H141.977V32.848H136.169V38H134.825ZM146.42 28.304C146.153 28.304 145.929 28.2187 145.748 28.048C145.577 27.8667 145.492 27.6427 145.492 27.376C145.492 27.12 145.577 26.9067 145.748 26.736C145.929 26.5653 146.153 26.48 146.42 26.48C146.676 26.48 146.895 26.5653 147.076 26.736C147.257 26.9067 147.348 27.12 147.348 27.376C147.348 27.6427 147.257 27.8667 147.076 28.048C146.895 28.2187 146.676 28.304 146.42 28.304ZM145.748 38V30.064H147.092V38H145.748ZM152.568 35.504C152.12 35.504 151.709 35.4453 151.336 35.328L150.536 36.08C150.653 36.1653 150.797 36.24 150.968 36.304C151.149 36.3573 151.405 36.4107 151.736 36.464C152.067 36.5067 152.531 36.5547 153.128 36.608C154.195 36.6827 154.957 36.928 155.416 37.344C155.875 37.76 156.104 38.304 156.104 38.976C156.104 39.4347 155.976 39.872 155.72 40.288C155.475 40.704 155.091 41.0453 154.568 41.312C154.056 41.5787 153.395 41.712 152.584 41.712C151.869 41.712 151.235 41.616 150.68 41.424C150.125 41.2427 149.693 40.96 149.384 40.576C149.075 40.2027 148.92 39.728 148.92 39.152C148.92 38.8533 149 38.528 149.16 38.176C149.32 37.8347 149.619 37.5093 150.056 37.2C149.821 37.104 149.619 37.0027 149.448 36.896C149.288 36.7787 149.139 36.6507 149 36.512V36.144L150.36 34.8C149.731 34.2667 149.416 33.5627 149.416 32.688C149.416 32.1653 149.539 31.6907 149.784 31.264C150.029 30.8373 150.387 30.5013 150.856 30.256C151.325 30 151.896 29.872 152.568 29.872C153.027 29.872 153.443 29.936 153.816 30.064H156.744V31.072L155.256 31.136C155.565 31.584 155.72 32.1013 155.72 32.688C155.72 33.2107 155.592 33.6853 155.336 34.112C155.091 34.5387 154.733 34.88 154.264 35.136C153.805 35.3813 153.24 35.504 152.568 35.504ZM152.568 34.4C153.133 34.4 153.581 34.256 153.912 33.968C154.253 33.6693 154.424 33.2427 154.424 32.688C154.424 32.144 154.253 31.728 153.912 31.44C153.581 31.1413 153.133 30.992 152.568 30.992C151.992 30.992 151.533 31.1413 151.192 31.44C150.861 31.728 150.696 32.144 150.696 32.688C150.696 33.2427 150.861 33.6693 151.192 33.968C151.533 34.256 151.992 34.4 152.568 34.4ZM150.232 39.024C150.232 39.5573 150.456 39.952 150.904 40.208C151.352 40.4747 151.912 40.608 152.584 40.608C153.245 40.608 153.773 40.464 154.168 40.176C154.573 39.888 154.776 39.504 154.776 39.024C154.776 38.6827 154.637 38.384 154.36 38.128C154.083 37.8827 153.571 37.7387 152.824 37.696C152.237 37.6533 151.731 37.6 151.304 37.536C150.867 37.7707 150.579 38.0213 150.44 38.288C150.301 38.5653 150.232 38.8107 150.232 39.024ZM158.26 38V26.48H159.604V31.424C159.871 30.9333 160.25 30.5547 160.74 30.288C161.231 30.0107 161.764 29.872 162.34 29.872C163.258 29.872 163.994 30.16 164.548 30.736C165.103 31.3013 165.38 32.176 165.38 33.36V38H164.052V33.504C164.052 31.8507 163.386 31.024 162.052 31.024C161.359 31.024 160.778 31.2747 160.308 31.776C159.839 32.2667 159.604 32.9707 159.604 33.888V38H158.26ZM170.985 38.192C170.227 38.192 169.555 38.0213 168.969 37.68C168.382 37.328 167.918 36.8427 167.577 36.224C167.246 35.6053 167.081 34.8747 167.081 34.032C167.081 33.2 167.246 32.4747 167.577 31.856C167.907 31.2267 168.366 30.7413 168.953 30.4C169.55 30.048 170.238 29.872 171.016 29.872C171.785 29.872 172.446 30.048 173.001 30.4C173.566 30.7413 173.998 31.1947 174.297 31.76C174.595 32.3253 174.745 32.9333 174.745 33.584C174.745 33.7013 174.739 33.8187 174.729 33.936C174.729 34.0533 174.729 34.1867 174.729 34.336H168.409C168.441 34.944 168.579 35.4507 168.825 35.856C169.081 36.2507 169.395 36.5493 169.769 36.752C170.153 36.9547 170.558 37.056 170.985 37.056C171.539 37.056 172.003 36.928 172.377 36.672C172.75 36.416 173.022 36.0693 173.193 35.632H174.521C174.307 36.368 173.897 36.9813 173.289 37.472C172.691 37.952 171.923 38.192 170.985 38.192ZM170.985 31.008C170.345 31.008 169.774 31.2053 169.273 31.6C168.782 31.984 168.499 32.5493 168.424 33.296H173.417C173.385 32.5813 173.139 32.0213 172.681 31.616C172.222 31.2107 171.657 31.008 170.985 31.008ZM176.526 38V30.064H177.742L177.854 31.584C178.099 31.0613 178.473 30.6453 178.974 30.336C179.475 30.0267 180.094 29.872 180.83 29.872V31.28H180.462C179.993 31.28 179.561 31.3653 179.166 31.536C178.771 31.696 178.457 31.9733 178.222 32.368C177.987 32.7627 177.87 33.3067 177.87 34V38H176.526ZM190.221 38.192C189.399 38.192 188.685 38.0427 188.077 37.744C187.469 37.4453 186.999 37.0293 186.669 36.496C186.338 35.9627 186.173 35.344 186.173 34.64H187.581C187.581 35.0773 187.682 35.4827 187.885 35.856C188.087 36.2187 188.381 36.512 188.765 36.736C189.159 36.9493 189.645 37.056 190.221 37.056C190.978 37.056 191.565 36.8747 191.981 36.512C192.397 36.1493 192.605 35.696 192.605 35.152C192.605 34.704 192.509 34.3467 192.317 34.08C192.125 33.8027 191.863 33.5787 191.533 33.408C191.213 33.2373 190.839 33.088 190.413 32.96C189.997 32.832 189.559 32.688 189.101 32.528C188.237 32.2293 187.597 31.8613 187.181 31.424C186.765 30.976 186.557 30.3947 186.557 29.68C186.546 29.0827 186.685 28.5547 186.973 28.096C187.261 27.6267 187.666 27.264 188.189 27.008C188.722 26.7413 189.351 26.608 190.077 26.608C190.791 26.608 191.41 26.7413 191.933 27.008C192.466 27.2747 192.877 27.6427 193.165 28.112C193.463 28.5813 193.618 29.1147 193.629 29.712H192.221C192.221 29.4027 192.141 29.0987 191.981 28.8C191.821 28.4907 191.575 28.24 191.245 28.048C190.925 27.856 190.519 27.76 190.029 27.76C189.421 27.7493 188.919 27.904 188.525 28.224C188.141 28.544 187.949 28.9867 187.949 29.552C187.949 30.032 188.082 30.4 188.349 30.656C188.626 30.912 189.01 31.1253 189.501 31.296C189.991 31.456 190.557 31.6427 191.197 31.856C191.73 32.048 192.21 32.272 192.637 32.528C193.063 32.784 193.394 33.1147 193.629 33.52C193.874 33.9253 193.997 34.4427 193.997 35.072C193.997 35.6053 193.858 36.112 193.581 36.592C193.303 37.0613 192.882 37.4453 192.317 37.744C191.762 38.0427 191.063 38.192 190.221 38.192ZM195.823 41.52V30.064H197.039L197.167 31.376C197.423 30.992 197.785 30.6453 198.255 30.336C198.735 30.0267 199.343 29.872 200.079 29.872C200.868 29.872 201.556 30.0533 202.143 30.416C202.729 30.7787 203.183 31.2747 203.503 31.904C203.833 32.5333 203.999 33.248 203.999 34.048C203.999 34.848 203.833 35.5627 203.503 36.192C203.183 36.8107 202.724 37.3013 202.127 37.664C201.54 38.016 200.852 38.192 200.063 38.192C199.412 38.192 198.831 38.0587 198.319 37.792C197.817 37.5253 197.433 37.152 197.167 36.672V41.52H195.823ZM199.919 37.024C200.452 37.024 200.921 36.9013 201.327 36.656C201.732 36.4 202.052 36.048 202.287 35.6C202.521 35.152 202.639 34.6293 202.639 34.032C202.639 33.4347 202.521 32.912 202.287 32.464C202.052 32.016 201.732 31.6693 201.327 31.424C200.921 31.168 200.452 31.04 199.919 31.04C199.385 31.04 198.916 31.168 198.511 31.424C198.105 31.6693 197.785 32.016 197.551 32.464C197.316 32.912 197.199 33.4347 197.199 34.032C197.199 34.6293 197.316 35.152 197.551 35.6C197.785 36.048 198.105 36.4 198.511 36.656C198.916 36.9013 199.385 37.024 199.919 37.024ZM209.438 38.192C208.68 38.192 208.008 38.0213 207.422 37.68C206.835 37.328 206.371 36.8427 206.03 36.224C205.699 35.6053 205.534 34.8747 205.534 34.032C205.534 33.2 205.699 32.4747 206.03 31.856C206.36 31.2267 206.819 30.7413 207.406 30.4C208.003 30.048 208.691 29.872 209.47 29.872C210.238 29.872 210.899 30.048 211.454 30.4C212.019 30.7413 212.451 31.1947 212.75 31.76C213.048 32.3253 213.198 32.9333 213.198 33.584C213.198 33.7013 213.192 33.8187 213.182 33.936C213.182 34.0533 213.182 34.1867 213.182 34.336H206.862C206.894 34.944 207.032 35.4507 207.278 35.856C207.534 36.2507 207.848 36.5493 208.222 36.752C208.606 36.9547 209.011 37.056 209.438 37.056C209.992 37.056 210.456 36.928 210.83 36.672C211.203 36.416 211.475 36.0693 211.646 35.632H212.974C212.76 36.368 212.35 36.9813 211.742 37.472C211.144 37.952 210.376 38.192 209.438 38.192ZM209.438 31.008C208.798 31.008 208.227 31.2053 207.726 31.6C207.235 31.984 206.952 32.5493 206.878 33.296H211.87C211.838 32.5813 211.592 32.0213 211.134 31.616C210.675 31.2107 210.11 31.008 209.438 31.008ZM214.979 38V30.064H216.195L216.275 31.488C216.531 30.9867 216.899 30.592 217.379 30.304C217.859 30.016 218.403 29.872 219.011 29.872C219.95 29.872 220.696 30.16 221.251 30.736C221.816 31.3013 222.099 32.176 222.099 33.36V38H220.755V33.504C220.755 31.8507 220.072 31.024 218.707 31.024C218.024 31.024 217.454 31.2747 216.995 31.776C216.547 32.2667 216.323 32.9707 216.323 33.888V38H214.979ZM227.735 38.192C226.946 38.192 226.253 38.0107 225.655 37.648C225.069 37.2853 224.61 36.7893 224.279 36.16C223.959 35.5307 223.799 34.816 223.799 34.016C223.799 33.216 223.965 32.5067 224.295 31.888C224.626 31.2587 225.085 30.768 225.671 30.416C226.258 30.0533 226.951 29.872 227.751 29.872C228.402 29.872 228.978 30.0053 229.479 30.272C229.981 30.5387 230.37 30.912 230.647 31.392V26.48H231.991V38H230.775L230.647 36.688C230.391 37.072 230.023 37.4187 229.543 37.728C229.063 38.0373 228.461 38.192 227.735 38.192ZM227.879 37.024C228.413 37.024 228.882 36.9013 229.287 36.656C229.703 36.4 230.023 36.048 230.247 35.6C230.482 35.152 230.599 34.6293 230.599 34.032C230.599 33.4347 230.482 32.912 230.247 32.464C230.023 32.016 229.703 31.6693 229.287 31.424C228.882 31.168 228.413 31.04 227.879 31.04C227.357 31.04 226.887 31.168 226.471 31.424C226.066 31.6693 225.746 32.016 225.511 32.464C225.287 32.912 225.175 33.4347 225.175 34.032C225.175 34.6293 225.287 35.152 225.511 35.6C225.746 36.048 226.066 36.4 226.471 36.656C226.887 36.9013 227.357 37.024 227.879 37.024Z" fill="black"/>
<line x1="21.7271" y1="59.4428" x2="306.273" y2="59.4428" stroke="#F5EEDD" stroke-width="0.885635"/>
<rect width="42" height="42" transform="translate(12 64.8856)" fill="white"/>
<rect x="28.6401" y="95.5494" width="7.83739" height="2.51187" rx="1.25594" fill="#97B0D7"/>
<path d="M44.1052 85.0404C45.0856 85.0404 45.8931 85.8414 45.7228 86.8069C44.7438 92.3557 39.2249 96.6057 32.5633 96.6057C25.9017 96.6057 20.3828 92.3557 19.4038 86.8069C19.2335 85.8414 20.041 85.0404 21.0214 85.0404C23.3212 85.0404 27.6287 85.0404 32.5633 85.0404C37.4979 85.0404 41.8055 85.0404 44.1052 85.0404Z" fill="#97B0D7"/>
<rect x="29.8344" y="95.1632" width="8.06746" height="2.04351" rx="1.02175" stroke="#403C3B" stroke-width="0.797788"/>
<path d="M46.9284 83.2758C47.8392 83.2758 48.5067 84.0046 48.3654 84.8058C47.2978 90.8565 41.2526 95.5601 33.8729 95.5601C26.4931 95.5601 20.4479 90.8565 19.3804 84.8058C19.239 84.0046 19.9065 83.2758 20.8173 83.2758H20.8326H20.8479H20.8632H20.8787H20.8941H20.9097H20.9253H20.9409H20.9566H20.9723H20.9881H21.0039H21.0198H21.0357H21.0517H21.0678H21.0839H21.1H21.1162H21.1324H21.1487H21.1651H21.1815H21.1979H21.2144H21.2309H21.2475H21.2642H21.2809H21.2976H21.3144H21.3313H21.3482H21.3651H21.3821H21.3991H21.4162H21.4334H21.4506H21.4678H21.4851H21.5024H21.5198H21.5373H21.5548H21.5723H21.5899H21.6075H21.6252H21.6429H21.6607H21.6785H21.6964H21.7143H21.7323H21.7503H21.7684H21.7865H21.8047H21.8229H21.8411H21.8594H21.8778H21.8962H21.9146H21.9331H21.9517H21.9703H21.9889H22.0076H22.0263H22.0451H22.0639H22.0828H22.1017H22.1207H22.1397H22.1588H22.1779H22.197H22.2163H22.2355H22.2548H22.2741H22.2935H22.3129H22.3324H22.3519H22.3715H22.3911H22.4108H22.4305H22.4503H22.47H22.4899H22.5098H22.5297H22.5497H22.5697H22.5898H22.6099H22.6301H22.6503H22.6705H22.6908H22.7111H22.7315H22.7519H22.7724H22.7929H22.8135H22.8341H22.8547H22.8754H22.8962H22.917H22.9378H22.9587H22.9796H23.0005H23.0215H23.0426H23.0636H23.0848H23.1059H23.1272H23.1484H23.1697H23.1911H23.2125H23.2339H23.2554H23.2769H23.2984H23.32H23.3417H23.3634H23.3851H23.4069H23.4287H23.4506H23.4724H23.4944H23.5164H23.5384H23.5605H23.5826H23.6047H23.6269H23.6491H23.6714H23.6937H23.7161H23.7385H23.7609H23.7834H23.8059H23.8285H23.8511H23.8738H23.8964H23.9192H23.9419H23.9647H23.9876H24.0105H24.0334H24.0564H24.0794H24.1024H24.1255H24.1487H24.1718H24.195H24.2183H24.2416H24.2649H24.2883H24.3117H24.3351H24.3586H24.3822H24.4057H24.4293H24.453H24.4767H24.5004H24.5241H24.5479H24.5718H24.5957H24.6196H24.6435H24.6675H24.6916H24.7156H24.7397H24.7639H24.7881H24.8123H24.8365H24.8608H24.8852H24.9096H24.934H24.9584H24.9829H25.0074H25.032H25.0566H25.0812H25.1059H25.1306H25.1554H25.1802H25.205H25.2298H25.2547H25.2797H25.3046H25.3296H25.3547H25.3798H25.4049H25.43H25.4552H25.4805H25.5057H25.531H25.5563H25.5817H25.6071H25.6326H25.658H25.6836H25.7091H25.7347H25.7603H25.786H25.8116H25.8374H25.8631H25.8889H25.9148H25.9406H25.9665H25.9925H26.0184H26.0444H26.0705H26.0965H26.1226H26.1488H26.175H26.2012H26.2274H26.2537H26.28H26.3064H26.3327H26.3592H26.3856H26.4121H26.4386H26.4652H26.4917H26.5184H26.545H26.5717H26.5984H26.6251H26.6519H26.6787H26.7056H26.7325H26.7594H26.7863H26.8133H26.8403H26.8674H26.8944H26.9216H26.9487H26.9759H27.0031H27.0303H27.0576H27.0849H27.1122H27.1396H27.167H27.1944H27.2219H27.2494H27.2769H27.3044H27.332H27.3596H27.3873H27.415H27.4427H27.4704H27.4982H27.526H27.5538H27.5817H27.6096H27.6375H27.6655H27.6935H27.7215H27.7495H27.7776H27.8057H27.8338H27.862H27.8902H27.9184H27.9467H27.975H28.0033H28.0316H28.06H28.0884H28.1169H28.1453H28.1738H28.2023H28.2309H28.2595H28.2881H28.3167H28.3454H28.3741H28.4028H28.4316H28.4603H28.4891H28.518H28.5469H28.5757H28.6047H28.6336H28.6626H28.6916H28.7206H28.7497H28.7788H28.8079H28.8371H28.8662H28.8954H28.9247H28.9539H28.9832H29.0125H29.0418H29.0712H29.1006H29.13H29.1595H29.1889H29.2184H29.248H29.2775H29.3071H29.3367H29.3663H29.396H29.4257H29.4554H29.4851H29.5149H29.5447H29.5745H29.6043H29.6342H29.6641H29.694H29.7239H29.7539H29.7839H29.8139H29.8439H29.874H29.9041H29.9342H29.9644H29.9945H30.0247H30.0549H30.0852H30.1155H30.1457H30.1761H30.2064H30.2368H30.2672H30.2976H30.328H30.3585H30.389H30.4195H30.45H30.4806H30.5111H30.5417H30.5724H30.603H30.6337H30.6644H30.6951H30.7259H30.7566H30.7874H30.8182H30.8491H30.8799H30.9108H30.9417H30.9726H31.0036H31.0346H31.0656H31.0966H31.1276H31.1587H31.1898H31.2209H31.252H31.2832H31.3143H31.3455H31.3767H31.408H31.4392H31.4705H31.5018H31.5331H31.5645H31.5959H31.6272H31.6586H31.6901H31.7215H31.753H31.7845H31.816H31.8475H31.8791H31.9107H31.9423H31.9739H32.0055H32.0372H32.0689H32.1005H32.1323H32.164H32.1958H32.2275H32.2593H32.2912H32.323H32.3548H32.3867H32.4186H32.4505H32.4825H32.5144H32.5464H32.5784H32.6104H32.6424H32.6745H32.7065H32.7386H32.7707H32.8028H32.835H32.8671H32.8993H32.9315H32.9637H32.996H33.0282H33.0605H33.0928H33.1251H33.1574H33.1897H33.2221H33.2545H33.2869H33.3193H33.3517H33.3841H33.4166H33.4491H33.4816H33.5141H33.5466H33.5792H33.6117H33.6443H33.6769H33.7095H33.7422H33.7748H33.8075H33.8402H33.8729H33.9056H33.9382H33.9709H34.0036H34.0362H34.0688H34.1014H34.134H34.1665H34.1991H34.2316H34.2641H34.2966H34.3291H34.3616H34.394H34.4265H34.4589H34.4913H34.5236H34.556H34.5883H34.6207H34.653H34.6852H34.7175H34.7498H34.782H34.8142H34.8464H34.8786H34.9107H34.9429H34.975H35.0071H35.0392H35.0713H35.1033H35.1353H35.1674H35.1993H35.2313H35.2633H35.2952H35.3271H35.359H35.3909H35.4227H35.4546H35.4864H35.5182H35.55H35.5817H35.6135H35.6452H35.6769H35.7086H35.7402H35.7718H35.8035H35.8351H35.8666H35.8982H35.9297H35.9612H35.9927H36.0242H36.0556H36.0871H36.1185H36.1499H36.1812H36.2126H36.2439H36.2752H36.3065H36.3378H36.369H36.4002H36.4314H36.4626H36.4937H36.5249H36.556H36.587H36.6181H36.6491H36.6802H36.7112H36.7421H36.7731H36.804H36.8349H36.8658H36.8967H36.9275H36.9583H36.9891H37.0199H37.0506H37.0813H37.112H37.1427H37.1734H37.204H37.2346H37.2652H37.2957H37.3263H37.3568H37.3873H37.4177H37.4482H37.4786H37.509H37.5393H37.5697H37.6H37.6303H37.6605H37.6908H37.721H37.7512H37.7814H37.8115H37.8416H37.8717H37.9018H37.9318H37.9618H37.9918H38.0218H38.0517H38.0817H38.1116H38.1414H38.1713H38.2011H38.2309H38.2606H38.2904H38.3201H38.3497H38.3794H38.409H38.4386H38.4682H38.4978H38.5273H38.5568H38.5863H38.6157H38.6451H38.6745H38.7039H38.7332H38.7625H38.7918H38.8211H38.8503H38.8795H38.9087H38.9378H38.9669H38.996H39.0251H39.0541H39.0831H39.1121H39.1411H39.17H39.1989H39.2277H39.2566H39.2854H39.3142H39.3429H39.3716H39.4003H39.429H39.4576H39.4863H39.5148H39.5434H39.5719H39.6004H39.6289H39.6573H39.6857H39.7141H39.7424H39.7707H39.799H39.8273H39.8555H39.8837H39.9119H39.94H39.9681H39.9962H40.0243H40.0523H40.0803H40.1082H40.1361H40.164H40.1919H40.2197H40.2475H40.2753H40.303H40.3308H40.3584H40.3861H40.4137H40.4413H40.4688H40.4964H40.5239H40.5513H40.5787H40.6061H40.6335H40.6608H40.6881H40.7154H40.7427H40.7699H40.797H40.8242H40.8513H40.8784H40.9054H40.9324H40.9594H40.9863H41.0133H41.0401H41.067H41.0938H41.1206H41.1473H41.174H41.2007H41.2274H41.254H41.2806H41.3071H41.3336H41.3601H41.3866H41.413H41.4394H41.4657H41.492H41.5183H41.5445H41.5708H41.5969H41.6231H41.6492H41.6753H41.7013H41.7273H41.7533H41.7792H41.8051H41.831H41.8568H41.8826H41.9084H41.9341H41.9598H41.9854H42.011H42.0366H42.0622H42.0877H42.1132H42.1386H42.164H42.1894H42.2147H42.24H42.2653H42.2905H42.3157H42.3408H42.366H42.391H42.4161H42.4411H42.4661H42.491H42.5159H42.5407H42.5656H42.5904H42.6151H42.6398H42.6645H42.6891H42.7137H42.7383H42.7628H42.7873H42.8118H42.8362H42.8605H42.8849H42.9092H42.9334H42.9577H42.9818H43.006H43.0301H43.0542H43.0782H43.1022H43.1262H43.1501H43.174H43.1978H43.2216H43.2454H43.2691H43.2928H43.3164H43.34H43.3636H43.3871H43.4106H43.434H43.4574H43.4808H43.5041H43.5274H43.5507H43.5739H43.5971H43.6202H43.6433H43.6663H43.6893H43.7123H43.7352H43.7581H43.781H43.8038H43.8266H43.8493H43.872H43.8946H43.9172H43.9398H43.9623H43.9848H44.0072H44.0296H44.052H44.0743H44.0966H44.1188H44.141H44.1632H44.1853H44.2073H44.2294H44.2513H44.2733H44.2952H44.317H44.3388H44.3606H44.3823H44.404H44.4257H44.4473H44.4688H44.4904H44.5118H44.5333H44.5547H44.576H44.5973H44.6186H44.6398H44.661H44.6821H44.7032H44.7242H44.7452H44.7662H44.7871H44.8079H44.8288H44.8496H44.8703H44.891H44.9116H44.9322H44.9528H44.9733H44.9938H45.0142H45.0346H45.0549H45.0752H45.0955H45.1157H45.1358H45.1559H45.176H45.196H45.216H45.2359H45.2558H45.2757H45.2955H45.3152H45.3349H45.3546H45.3742H45.3938H45.4133H45.4328H45.4522H45.4716H45.4909H45.5102H45.5295H45.5487H45.5678H45.5869H45.606H45.625H45.644H45.6629H45.6818H45.7006H45.7194H45.7381H45.7568H45.7754H45.794H45.8126H45.8311H45.8495H45.8679H45.8863H45.9046H45.9229H45.9411H45.9592H45.9773H45.9954H46.0134H46.0314H46.0493H46.0672H46.085H46.1028H46.1205H46.1382H46.1559H46.1734H46.191H46.2085H46.2259H46.2433H46.2606H46.2779H46.2952H46.3123H46.3295H46.3466H46.3636H46.3806H46.3976H46.4145H46.4313H46.4481H46.4648H46.4815H46.4982H46.5148H46.5313H46.5478H46.5643H46.5807H46.597H46.6133H46.6295H46.6457H46.6619H46.678H46.694H46.71H46.7259H46.7418H46.7576H46.7734H46.7892H46.8048H46.8205H46.8361H46.8516H46.8671H46.8825H46.8979H46.9132H46.9284Z" stroke="#403C3B" stroke-width="0.797788"/>
<mask id="path-11-inside-1_831_19177" fill="white">
<path fill-rule="evenodd" clip-rule="evenodd" d="M36.8815 80.5507C37.1951 79.1464 35.574 77.5892 33.2608 77.0726C31.5008 76.6796 29.8472 77.0022 29.0188 77.7974L25.5406 77.0207C25.4762 76.9868 25.4069 76.9595 25.3336 76.9401L18.9075 75.2386C18.3683 75.0959 17.8186 75.43 17.697 75.9743L17.5701 76.5429C17.4485 77.0874 17.8041 77.6237 18.3529 77.7237L24.8929 78.9152C24.979 78.9309 25.0646 78.9349 25.148 78.9282L28.5945 79.6978C29.006 80.7698 30.3653 81.7651 32.1251 82.1581C34.4384 82.6747 36.5679 81.955 36.8815 80.5507Z"/>
</mask>
<path d="M29.0188 77.7974L28.8449 78.576L29.2625 78.6693L29.5712 78.3729L29.0188 77.7974ZM25.5406 77.0207L25.169 77.7266L25.263 77.7761L25.3668 77.7993L25.5406 77.0207ZM25.3336 76.9401L25.1294 77.7113L25.1294 77.7113L25.3336 76.9401ZM18.9075 75.2386L18.7033 76.0098L18.7033 76.0098L18.9075 75.2386ZM17.697 75.9743L16.9184 75.8005L17.697 75.9743ZM17.5701 76.5429L18.3487 76.7167L17.5701 76.5429ZM18.3529 77.7237L18.4959 76.9389L18.4959 76.9389L18.3529 77.7237ZM24.8929 78.9152L24.7499 79.7001L24.8929 78.9152ZM25.148 78.9282L25.3219 78.1496L25.2044 78.1233L25.0843 78.1329L25.148 78.9282ZM28.5945 79.6978L29.3393 79.4119L29.1859 79.0124L28.7684 78.9192L28.5945 79.6978ZM33.0869 77.8512C34.1251 78.0831 34.97 78.5416 35.5035 79.0541C36.0492 79.5783 36.1756 80.0511 36.1029 80.3768L37.6601 80.7246C37.901 79.646 37.3736 78.638 36.6089 77.9034C35.8319 77.1571 34.7097 76.5788 33.4346 76.294L33.0869 77.8512ZM29.5712 78.3729C30.1303 77.8363 31.4636 77.4888 33.0869 77.8512L33.4346 76.294C31.538 75.8705 29.5642 76.1681 28.4663 77.2218L29.5712 78.3729ZM29.1927 77.0188L25.7145 76.2421L25.3668 77.7993L28.8449 78.576L29.1927 77.0188ZM25.9123 76.3148C25.7951 76.253 25.6697 76.2038 25.5378 76.1689L25.1294 77.7113C25.1442 77.7152 25.1573 77.7205 25.169 77.7266L25.9123 76.3148ZM25.5378 76.1689L19.1117 74.4674L18.7033 76.0098L25.1294 77.7113L25.5378 76.1689ZM19.1117 74.4674C18.1348 74.2087 17.1387 74.8142 16.9184 75.8005L18.4756 76.1482C18.4985 76.0458 18.6019 75.983 18.7033 76.0098L19.1117 74.4674ZM16.9184 75.8005L16.7914 76.369L18.3487 76.7167L18.4756 76.1482L16.9184 75.8005ZM16.7914 76.369C16.5711 77.3556 17.2155 78.3274 18.2099 78.5086L18.4959 76.9389C18.3927 76.9201 18.3258 76.8192 18.3487 76.7167L16.7914 76.369ZM18.2099 78.5086L24.7499 79.7001L25.0359 78.1304L18.4959 76.9389L18.2099 78.5086ZM24.7499 79.7001C24.9048 79.7283 25.0599 79.7356 25.2117 79.7234L25.0843 78.1329C25.0693 78.1341 25.0532 78.1335 25.0359 78.1304L24.7499 79.7001ZM24.9742 79.7068L28.4206 80.4764L28.7684 78.9192L25.3219 78.1496L24.9742 79.7068ZM32.299 81.3795C30.6758 81.017 29.617 80.1354 29.3393 79.4119L27.8497 79.9837C28.395 81.4043 30.0547 82.5132 31.9513 82.9367L32.299 81.3795ZM36.1029 80.3768C36.0301 80.7025 35.7146 81.0767 34.9978 81.3189C34.297 81.5558 33.3372 81.6113 32.299 81.3795L31.9513 82.9367C33.2264 83.2214 34.488 83.1754 35.5086 82.8305C36.5132 82.491 37.4192 81.8031 37.6601 80.7246L36.1029 80.3768Z" fill="#403C3B" mask="url(#path-11-inside-1_831_19177)"/>
<path d="M63.184 90.8856V79.6856H64.752L68.784 87.4936L72.784 79.6856H74.368V90.8856H73.024V82.0856L69.28 89.2856H68.272L64.528 82.1016V90.8856H63.184ZM79.2909 91.0776C78.6295 91.0776 78.0802 90.9656 77.6429 90.7416C77.2055 90.5176 76.8802 90.219 76.6669 89.8456C76.4535 89.4723 76.3469 89.067 76.3469 88.6296C76.3469 87.819 76.6562 87.195 77.2749 86.7576C77.8935 86.3203 78.7362 86.1016 79.8029 86.1016H81.9469V86.0056C81.9469 85.3123 81.7655 84.7896 81.4029 84.4376C81.0402 84.075 80.5549 83.8936 79.9469 83.8936C79.4242 83.8936 78.9709 84.027 78.5869 84.2936C78.2135 84.5496 77.9789 84.9283 77.8829 85.4296H76.5069C76.5602 84.8536 76.7522 84.3683 77.0829 83.9736C77.4242 83.579 77.8455 83.2803 78.3469 83.0776C78.8482 82.8643 79.3815 82.7576 79.9469 82.7576C81.0562 82.7576 81.8882 83.0563 82.4429 83.6536C83.0082 84.2403 83.2909 85.0243 83.2909 86.0056V90.8856H82.0909L82.0109 89.4616C81.7869 89.9096 81.4562 90.2936 81.0189 90.6136C80.5922 90.923 80.0162 91.0776 79.2909 91.0776ZM79.4989 89.9416C80.0109 89.9416 80.4482 89.8083 80.8109 89.5416C81.1842 89.275 81.4669 88.9283 81.6589 88.5016C81.8509 88.075 81.9469 87.627 81.9469 87.1576V87.1416H79.9149C79.1255 87.1416 78.5655 87.2803 78.2349 87.5576C77.9149 87.8243 77.7549 88.1603 77.7549 88.5656C77.7549 88.9816 77.9042 89.3176 78.2029 89.5736C78.5122 89.819 78.9442 89.9416 79.4989 89.9416ZM84.5071 90.8856L87.2591 86.9176L84.5071 82.9496H85.9631L88.1871 86.2296L90.4271 82.9496H91.8671L89.1151 86.9176L91.8671 90.8856H90.4271L88.1871 87.6056L85.9631 90.8856H84.5071ZM94.0919 81.1896C93.8252 81.1896 93.6012 81.1043 93.4199 80.9336C93.2492 80.7523 93.1639 80.5283 93.1639 80.2616C93.1639 80.0056 93.2492 79.7923 93.4199 79.6216C93.6012 79.451 93.8252 79.3656 94.0919 79.3656C94.3479 79.3656 94.5665 79.451 94.7479 79.6216C94.9292 79.7923 95.0199 80.0056 95.0199 80.2616C95.0199 80.5283 94.9292 80.7523 94.7479 80.9336C94.5665 81.1043 94.3479 81.1896 94.0919 81.1896ZM93.4199 90.8856V82.9496H94.7639V90.8856H93.4199ZM97.104 90.8856V82.9496H98.32L98.416 84.1016C98.672 83.675 99.0133 83.3443 99.44 83.1096C99.8667 82.875 100.347 82.7576 100.88 82.7576C101.509 82.7576 102.048 82.8856 102.496 83.1416C102.955 83.3976 103.307 83.787 103.552 84.3096C103.829 83.8296 104.208 83.451 104.688 83.1736C105.179 82.8963 105.707 82.7576 106.272 82.7576C107.221 82.7576 107.979 83.0456 108.544 83.6216C109.109 84.187 109.392 85.0616 109.392 86.2456V90.8856H108.064V86.3896C108.064 85.5683 107.899 84.9496 107.568 84.5336C107.237 84.1176 106.763 83.9096 106.144 83.9096C105.504 83.9096 104.971 84.1603 104.544 84.6616C104.128 85.1523 103.92 85.8563 103.92 86.7736V90.8856H102.576V86.3896C102.576 85.5683 102.411 84.9496 102.08 84.5336C101.749 84.1176 101.275 83.9096 100.656 83.9096C100.027 83.9096 99.4987 84.1603 99.072 84.6616C98.656 85.1523 98.448 85.8563 98.448 86.7736V90.8856H97.104ZM112.233 81.1896C111.966 81.1896 111.742 81.1043 111.561 80.9336C111.39 80.7523 111.305 80.5283 111.305 80.2616C111.305 80.0056 111.39 79.7923 111.561 79.6216C111.742 79.451 111.966 79.3656 112.233 79.3656C112.489 79.3656 112.707 79.451 112.889 79.6216C113.07 79.7923 113.161 80.0056 113.161 80.2616C113.161 80.5283 113.07 80.7523 112.889 80.9336C112.707 81.1043 112.489 81.1896 112.233 81.1896ZM111.561 90.8856V82.9496H112.905V90.8856H111.561ZM118.285 91.0776C117.335 91.0776 116.546 90.8376 115.917 90.3576C115.287 89.8776 114.919 89.227 114.813 88.4056H116.189C116.274 88.8216 116.493 89.1843 116.845 89.4936C117.207 89.7923 117.693 89.9416 118.301 89.9416C118.866 89.9416 119.282 89.8243 119.549 89.5896C119.815 89.3443 119.949 89.0563 119.949 88.7256C119.949 88.2456 119.773 87.9256 119.421 87.7656C119.079 87.6056 118.594 87.4616 117.965 87.3336C117.538 87.2483 117.111 87.1256 116.685 86.9656C116.258 86.8056 115.901 86.5816 115.613 86.2936C115.325 85.995 115.181 85.6056 115.181 85.1256C115.181 84.4323 115.437 83.867 115.949 83.4296C116.471 82.9816 117.175 82.7576 118.061 82.7576C118.903 82.7576 119.591 82.971 120.125 83.3976C120.669 83.8136 120.983 84.411 121.069 85.1896H119.741C119.687 84.7843 119.511 84.4696 119.213 84.2456C118.925 84.011 118.535 83.8936 118.045 83.8936C117.565 83.8936 117.191 83.995 116.925 84.1976C116.669 84.4003 116.541 84.667 116.541 84.9976C116.541 85.3176 116.706 85.5683 117.037 85.7496C117.378 85.931 117.837 86.0856 118.413 86.2136C118.903 86.3203 119.367 86.4536 119.805 86.6136C120.253 86.763 120.615 86.9923 120.893 87.3016C121.181 87.6003 121.325 88.0376 121.325 88.6136C121.335 89.3283 121.063 89.9203 120.509 90.3896C119.965 90.8483 119.223 91.0776 118.285 91.0776ZM126.813 91.0776C126.055 91.0776 125.383 90.907 124.797 90.5656C124.21 90.2136 123.746 89.7283 123.405 89.1096C123.074 88.491 122.909 87.7603 122.909 86.9176C122.909 86.0856 123.074 85.3603 123.405 84.7416C123.735 84.1123 124.194 83.627 124.781 83.2856C125.378 82.9336 126.066 82.7576 126.845 82.7576C127.613 82.7576 128.274 82.9336 128.829 83.2856C129.394 83.627 129.826 84.0803 130.125 84.6456C130.423 85.211 130.573 85.819 130.573 86.4696C130.573 86.587 130.567 86.7043 130.557 86.8216C130.557 86.939 130.557 87.0723 130.557 87.2216H124.237C124.269 87.8296 124.407 88.3363 124.653 88.7416C124.909 89.1363 125.223 89.435 125.597 89.6376C125.981 89.8403 126.386 89.9416 126.813 89.9416C127.367 89.9416 127.831 89.8136 128.205 89.5576C128.578 89.3016 128.85 88.955 129.021 88.5176H130.349C130.135 89.2536 129.725 89.867 129.117 90.3576C128.519 90.8376 127.751 91.0776 126.813 91.0776ZM126.813 83.8936C126.173 83.8936 125.602 84.091 125.101 84.4856C124.61 84.8696 124.327 85.435 124.253 86.1816H129.245C129.213 85.467 128.967 84.907 128.509 84.5016C128.05 84.0963 127.485 83.8936 126.813 83.8936ZM139.628 91.0776C138.679 91.0776 137.89 90.8376 137.26 90.3576C136.631 89.8776 136.263 89.227 136.156 88.4056H137.532C137.618 88.8216 137.836 89.1843 138.188 89.4936C138.551 89.7923 139.036 89.9416 139.644 89.9416C140.21 89.9416 140.626 89.8243 140.892 89.5896C141.159 89.3443 141.292 89.0563 141.292 88.7256C141.292 88.2456 141.116 87.9256 140.764 87.7656C140.423 87.6056 139.938 87.4616 139.308 87.3336C138.882 87.2483 138.455 87.1256 138.028 86.9656C137.602 86.8056 137.244 86.5816 136.956 86.2936C136.668 85.995 136.524 85.6056 136.524 85.1256C136.524 84.4323 136.78 83.867 137.292 83.4296C137.815 82.9816 138.519 82.7576 139.404 82.7576C140.247 82.7576 140.935 82.971 141.468 83.3976C142.012 83.8136 142.327 84.411 142.412 85.1896H141.084C141.031 84.7843 140.855 84.4696 140.556 84.2456C140.268 84.011 139.879 83.8936 139.388 83.8936C138.908 83.8936 138.535 83.995 138.268 84.1976C138.012 84.4003 137.884 84.667 137.884 84.9976C137.884 85.3176 138.05 85.5683 138.38 85.7496C138.722 85.931 139.18 86.0856 139.756 86.2136C140.247 86.3203 140.711 86.4536 141.148 86.6136C141.596 86.763 141.959 86.9923 142.236 87.3016C142.524 87.6003 142.668 88.0376 142.668 88.6136C142.679 89.3283 142.407 89.9203 141.852 90.3896C141.308 90.8483 140.567 91.0776 139.628 91.0776ZM147.365 90.8856C146.64 90.8856 146.069 90.7096 145.653 90.3576C145.237 90.0056 145.029 89.371 145.029 88.4536V84.0856H143.653V82.9496H145.029L145.205 81.0456H146.373V82.9496H148.709V84.0856H146.373V88.4536C146.373 88.955 146.474 89.2963 146.677 89.4776C146.88 89.6483 147.237 89.7336 147.749 89.7336H148.581V90.8856H147.365ZM153.057 91.0776C152.395 91.0776 151.846 90.9656 151.409 90.7416C150.971 90.5176 150.646 90.219 150.433 89.8456C150.219 89.4723 150.113 89.067 150.113 88.6296C150.113 87.819 150.422 87.195 151.041 86.7576C151.659 86.3203 152.502 86.1016 153.569 86.1016H155.713V86.0056C155.713 85.3123 155.531 84.7896 155.169 84.4376C154.806 84.075 154.321 83.8936 153.713 83.8936C153.19 83.8936 152.737 84.027 152.353 84.2936C151.979 84.5496 151.745 84.9283 151.649 85.4296H150.273C150.326 84.8536 150.518 84.3683 150.849 83.9736C151.19 83.579 151.611 83.2803 152.113 83.0776C152.614 82.8643 153.147 82.7576 153.713 82.7576C154.822 82.7576 155.654 83.0563 156.209 83.6536C156.774 84.2403 157.057 85.0243 157.057 86.0056V90.8856H155.857L155.777 89.4616C155.553 89.9096 155.222 90.2936 154.785 90.6136C154.358 90.923 153.782 91.0776 153.057 91.0776ZM153.265 89.9416C153.777 89.9416 154.214 89.8083 154.577 89.5416C154.95 89.275 155.233 88.9283 155.425 88.5016C155.617 88.075 155.713 87.627 155.713 87.1576V87.1416H153.681C152.891 87.1416 152.331 87.2803 152.001 87.5576C151.681 87.8243 151.521 88.1603 151.521 88.5656C151.521 88.9816 151.67 89.3176 151.969 89.5736C152.278 89.819 152.71 89.9416 153.265 89.9416ZM159.505 90.8856V84.0856H158.305V82.9496H159.505V81.5736C159.505 80.8056 159.697 80.2456 160.081 79.8936C160.465 79.5416 161.025 79.3656 161.761 79.3656H162.561V80.5176H161.969C161.563 80.5176 161.275 80.603 161.105 80.7736C160.934 80.9336 160.849 81.211 160.849 81.6056V82.9496H162.801V84.0856H160.849V90.8856H159.505ZM164.833 90.8856V84.0856H163.633V82.9496H164.833V81.5736C164.833 80.8056 165.025 80.2456 165.409 79.8936C165.793 79.5416 166.353 79.3656 167.089 79.3656H167.889V80.5176H167.297C166.892 80.5176 166.604 80.603 166.433 80.7736C166.262 80.9336 166.177 81.211 166.177 81.6056V82.9496H168.129V84.0856H166.177V90.8856H164.833ZM176.859 91.0776C175.921 91.0776 175.174 90.795 174.619 90.2296C174.065 89.6536 173.787 88.7736 173.787 87.5896V82.9496H175.131V87.4456C175.131 89.099 175.809 89.9256 177.163 89.9256C177.857 89.9256 178.427 89.6803 178.875 89.1896C179.334 88.6883 179.563 87.979 179.563 87.0616V82.9496H180.907V90.8856H179.691L179.595 89.4616C179.35 89.963 178.982 90.3576 178.491 90.6456C178.011 90.9336 177.467 91.0776 176.859 91.0776ZM186.256 90.8856C185.53 90.8856 184.96 90.7096 184.544 90.3576C184.128 90.0056 183.92 89.371 183.92 88.4536V84.0856H182.544V82.9496H183.92L184.096 81.0456H185.264V82.9496H187.6V84.0856H185.264V88.4536C185.264 88.955 185.365 89.2963 185.568 89.4776C185.77 89.6483 186.128 89.7336 186.64 89.7336H187.472V90.8856H186.256ZM190.123 81.1896C189.856 81.1896 189.632 81.1043 189.451 80.9336C189.28 80.7523 189.195 80.5283 189.195 80.2616C189.195 80.0056 189.28 79.7923 189.451 79.6216C189.632 79.451 189.856 79.3656 190.123 79.3656C190.379 79.3656 190.598 79.451 190.779 79.6216C190.96 79.7923 191.051 80.0056 191.051 80.2616C191.051 80.5283 190.96 80.7523 190.779 80.9336C190.598 81.1043 190.379 81.1896 190.123 81.1896ZM189.451 90.8856V82.9496H190.795V90.8856H189.451ZM193.135 90.8856V79.3656H194.479V90.8856H193.135ZM197.498 81.1896C197.231 81.1896 197.007 81.1043 196.826 80.9336C196.655 80.7523 196.57 80.5283 196.57 80.2616C196.57 80.0056 196.655 79.7923 196.826 79.6216C197.007 79.451 197.231 79.3656 197.498 79.3656C197.754 79.3656 197.973 79.451 198.154 79.6216C198.335 79.7923 198.426 80.0056 198.426 80.2616C198.426 80.5283 198.335 80.7523 198.154 80.9336C197.973 81.1043 197.754 81.1896 197.498 81.1896ZM196.826 90.8856V82.9496H198.17V90.8856H196.826ZM203.55 91.0776C202.601 91.0776 201.812 90.8376 201.182 90.3576C200.553 89.8776 200.185 89.227 200.078 88.4056H201.454C201.54 88.8216 201.758 89.1843 202.11 89.4936C202.473 89.7923 202.958 89.9416 203.566 89.9416C204.132 89.9416 204.548 89.8243 204.814 89.5896C205.081 89.3443 205.214 89.0563 205.214 88.7256C205.214 88.2456 205.038 87.9256 204.686 87.7656C204.345 87.6056 203.86 87.4616 203.23 87.3336C202.804 87.2483 202.377 87.1256 201.95 86.9656C201.524 86.8056 201.166 86.5816 200.878 86.2936C200.59 85.995 200.446 85.6056 200.446 85.1256C200.446 84.4323 200.702 83.867 201.214 83.4296C201.737 82.9816 202.441 82.7576 203.326 82.7576C204.169 82.7576 204.857 82.971 205.39 83.3976C205.934 83.8136 206.249 84.411 206.334 85.1896H205.006C204.953 84.7843 204.777 84.4696 204.478 84.2456C204.19 84.011 203.801 83.8936 203.31 83.8936C202.83 83.8936 202.457 83.995 202.19 84.1976C201.934 84.4003 201.806 84.667 201.806 84.9976C201.806 85.3176 201.972 85.5683 202.302 85.7496C202.644 85.931 203.102 86.0856 203.678 86.2136C204.169 86.3203 204.633 86.4536 205.07 86.6136C205.518 86.763 205.881 86.9923 206.158 87.3016C206.446 87.6003 206.59 88.0376 206.59 88.6136C206.601 89.3283 206.329 89.9203 205.774 90.3896C205.23 90.8483 204.489 91.0776 203.55 91.0776ZM211.15 91.0776C210.489 91.0776 209.94 90.9656 209.502 90.7416C209.065 90.5176 208.74 90.219 208.526 89.8456C208.313 89.4723 208.206 89.067 208.206 88.6296C208.206 87.819 208.516 87.195 209.134 86.7576C209.753 86.3203 210.596 86.1016 211.662 86.1016H213.806V86.0056C213.806 85.3123 213.625 84.7896 213.262 84.4376C212.9 84.075 212.414 83.8936 211.806 83.8936C211.284 83.8936 210.83 84.027 210.446 84.2936C210.073 84.5496 209.838 84.9283 209.742 85.4296H208.366C208.42 84.8536 208.612 84.3683 208.942 83.9736C209.284 83.579 209.705 83.2803 210.206 83.0776C210.708 82.8643 211.241 82.7576 211.806 82.7576C212.916 82.7576 213.748 83.0563 214.302 83.6536C214.868 84.2403 215.15 85.0243 215.15 86.0056V90.8856H213.95L213.87 89.4616C213.646 89.9096 213.316 90.2936 212.878 90.6136C212.452 90.923 211.876 91.0776 211.15 91.0776ZM211.358 89.9416C211.87 89.9416 212.308 89.8083 212.67 89.5416C213.044 89.275 213.326 88.9283 213.518 88.5016C213.71 88.075 213.806 87.627 213.806 87.1576V87.1416H211.774C210.985 87.1416 210.425 87.2803 210.094 87.5576C209.774 87.8243 209.614 88.1603 209.614 88.5656C209.614 88.9816 209.764 89.3176 210.062 89.5736C210.372 89.819 210.804 89.9416 211.358 89.9416ZM220.084 90.8856C219.358 90.8856 218.788 90.7096 218.372 90.3576C217.956 90.0056 217.748 89.371 217.748 88.4536V84.0856H216.372V82.9496H217.748L217.924 81.0456H219.092V82.9496H221.428V84.0856H219.092V88.4536C219.092 88.955 219.193 89.2963 219.396 89.4776C219.598 89.6483 219.956 89.7336 220.468 89.7336H221.3V90.8856H220.084ZM223.951 81.1896C223.685 81.1896 223.461 81.1043 223.279 80.9336C223.109 80.7523 223.023 80.5283 223.023 80.2616C223.023 80.0056 223.109 79.7923 223.279 79.6216C223.461 79.451 223.685 79.3656 223.951 79.3656C224.207 79.3656 224.426 79.451 224.607 79.6216C224.789 79.7923 224.879 80.0056 224.879 80.2616C224.879 80.5283 224.789 80.7523 224.607 80.9336C224.426 81.1043 224.207 81.1896 223.951 81.1896ZM223.279 90.8856V82.9496H224.623V90.8856H223.279ZM230.579 91.0776C229.833 91.0776 229.161 90.907 228.563 90.5656C227.966 90.2243 227.491 89.7443 227.139 89.1256C226.798 88.4963 226.627 87.7603 226.627 86.9176C226.627 86.075 226.803 85.3443 227.155 84.7256C227.507 84.0963 227.982 83.611 228.579 83.2696C229.187 82.9283 229.865 82.7576 230.611 82.7576C231.358 82.7576 232.03 82.9283 232.627 83.2696C233.225 83.611 233.694 84.0963 234.035 84.7256C234.387 85.3443 234.563 86.075 234.563 86.9176C234.563 87.7603 234.387 88.4963 234.035 89.1256C233.683 89.7443 233.203 90.2243 232.595 90.5656C231.998 90.907 231.326 91.0776 230.579 91.0776ZM230.579 89.9256C231.038 89.9256 231.465 89.8136 231.859 89.5896C232.254 89.3656 232.574 89.0296 232.819 88.5816C233.065 88.1336 233.187 87.579 233.187 86.9176C233.187 86.2563 233.065 85.7016 232.819 85.2536C232.585 84.8056 232.27 84.4696 231.875 84.2456C231.481 84.0216 231.059 83.9096 230.611 83.9096C230.153 83.9096 229.726 84.0216 229.331 84.2456C228.937 84.4696 228.617 84.8056 228.371 85.2536C228.126 85.7016 228.003 86.2563 228.003 86.9176C228.003 87.579 228.126 88.1336 228.371 88.5816C228.617 89.0296 228.931 89.3656 229.315 89.5896C229.71 89.8136 230.131 89.9256 230.579 89.9256ZM236.432 90.8856V82.9496H237.648L237.728 84.3736C237.984 83.8723 238.352 83.4776 238.832 83.1896C239.312 82.9016 239.856 82.7576 240.464 82.7576C241.403 82.7576 242.149 83.0456 242.704 83.6216C243.269 84.187 243.552 85.0616 243.552 86.2456V90.8856H242.208V86.3896C242.208 84.7363 241.525 83.9096 240.16 83.9096C239.477 83.9096 238.907 84.1603 238.448 84.6616C238 85.1523 237.776 85.8563 237.776 86.7736V90.8856H236.432Z" fill="black"/>
<line x1="22" y1="112.328" x2="306" y2="112.328" stroke="#F5EEDD" stroke-width="0.885635"/>
<rect width="42" height="42" transform="translate(12 117.771)" fill="white"/>
<path d="M24.4103 142.597C28.9896 142.597 32.8996 143.323 32.8996 146.228C32.8996 149.132 29.0147 149.884 24.4103 149.884C19.831 149.884 15.9209 149.158 15.9209 146.254C15.9209 143.349 19.8059 142.597 24.4103 142.597ZM24.4103 128.53C27.5281 128.53 30.028 131.042 30.028 134.18C30.028 137.316 27.5281 139.83 24.4103 139.83C21.2925 139.83 18.7925 137.316 18.7925 134.18C18.7925 131.042 21.2925 128.53 24.4103 128.53Z" fill="#C7C1E3"/>
<path d="M25.6193 142.283C30.3804 142.283 34.4457 143.038 34.4457 146.058C34.4457 149.077 30.4065 149.86 25.6193 149.86C20.8583 149.86 16.793 149.105 16.793 146.086C16.793 143.065 20.8322 142.283 25.6193 142.283ZM25.6193 127.658C28.8609 127.658 31.4601 130.27 31.4601 133.532C31.4601 136.792 28.8609 139.406 25.6193 139.406C22.3778 139.406 19.7786 136.792 19.7786 133.532C19.7786 130.27 22.3778 127.658 25.6193 127.658Z" stroke="#403C3B" stroke-width="1.08445"/>
<path d="M40.0436 142.597C44.6229 142.597 48.5329 143.323 48.5329 146.228C48.5329 149.132 44.648 149.884 40.0436 149.884C35.4643 149.884 31.5542 149.158 31.5542 146.254C31.5542 143.349 35.4392 142.597 40.0436 142.597ZM40.0436 128.53C43.1614 128.53 45.6613 131.042 45.6613 134.18C45.6613 137.316 43.1614 139.83 40.0436 139.83C36.9258 139.83 34.4258 137.316 34.4258 134.18C34.4258 131.042 36.9258 128.53 40.0436 128.53Z" fill="#C7C1E3"/>
<path d="M41.2521 142.283C46.0132 142.283 50.0785 143.038 50.0785 146.058C50.0785 149.077 46.0393 149.86 41.2521 149.86C36.4911 149.86 32.4258 149.105 32.4258 146.086C32.4258 143.065 36.465 142.283 41.2521 142.283ZM41.2521 127.658C44.4937 127.658 47.0929 130.27 47.0929 133.532C47.0929 136.792 44.4937 139.406 41.2521 139.406C38.0106 139.406 35.4114 136.792 35.4114 133.532C35.4114 130.27 38.0106 127.658 41.2521 127.658Z" stroke="#403C3B" stroke-width="1.08445"/>
<path d="M68.096 143.963C66.9973 143.963 66.048 143.723 65.248 143.243C64.4587 142.753 63.8453 142.075 63.408 141.211C62.9707 140.337 62.752 139.323 62.752 138.171C62.752 137.03 62.9707 136.027 63.408 135.163C63.8453 134.289 64.4587 133.606 65.248 133.115C66.048 132.625 66.9973 132.379 68.096 132.379C69.376 132.379 70.416 132.689 71.216 133.307C72.0267 133.915 72.544 134.769 72.768 135.867H71.28C71.1093 135.174 70.7573 134.619 70.224 134.203C69.7013 133.777 68.992 133.563 68.096 133.563C67.296 133.563 66.5973 133.75 66 134.123C65.4027 134.486 64.9387 135.014 64.608 135.707C64.288 136.39 64.128 137.211 64.128 138.171C64.128 139.131 64.288 139.958 64.608 140.651C64.9387 141.334 65.4027 141.862 66 142.235C66.5973 142.598 67.296 142.779 68.096 142.779C68.992 142.779 69.7013 142.577 70.224 142.171C70.7573 141.755 71.1093 141.206 71.28 140.523H72.768C72.544 141.601 72.0267 142.443 71.216 143.051C70.416 143.659 69.376 143.963 68.096 143.963ZM74.6196 143.771V135.835H75.8356L75.9476 137.355C76.193 136.833 76.5663 136.417 77.0676 136.107C77.569 135.798 78.1876 135.643 78.9236 135.643V137.051H78.5556C78.0863 137.051 77.6543 137.137 77.2596 137.307C76.865 137.467 76.5503 137.745 76.3156 138.139C76.081 138.534 75.9636 139.078 75.9636 139.771V143.771H74.6196ZM83.7033 143.963C82.9459 143.963 82.2739 143.793 81.6873 143.451C81.1006 143.099 80.6366 142.614 80.2953 141.995C79.9646 141.377 79.7993 140.646 79.7993 139.803C79.7993 138.971 79.9646 138.246 80.2953 137.627C80.6259 136.998 81.0846 136.513 81.6713 136.171C82.2686 135.819 82.9566 135.643 83.7352 135.643C84.5033 135.643 85.1646 135.819 85.7193 136.171C86.2846 136.513 86.7166 136.966 87.0153 137.531C87.3139 138.097 87.4633 138.705 87.4633 139.355C87.4633 139.473 87.4579 139.59 87.4473 139.707C87.4473 139.825 87.4473 139.958 87.4473 140.107H81.1273C81.1593 140.715 81.2979 141.222 81.5433 141.627C81.7993 142.022 82.1139 142.321 82.4873 142.523C82.8713 142.726 83.2766 142.827 83.7033 142.827C84.2579 142.827 84.7219 142.699 85.0953 142.443C85.4686 142.187 85.7406 141.841 85.9113 141.403H87.2393C87.0259 142.139 86.6153 142.753 86.0073 143.243C85.4099 143.723 84.6419 143.963 83.7033 143.963ZM83.7033 136.779C83.0633 136.779 82.4926 136.977 81.9913 137.371C81.5006 137.755 81.2179 138.321 81.1432 139.067H86.1353C86.1033 138.353 85.8579 137.793 85.3993 137.387C84.9406 136.982 84.3753 136.779 83.7033 136.779ZM91.8846 143.963C91.2233 143.963 90.674 143.851 90.2366 143.627C89.7993 143.403 89.474 143.105 89.2606 142.731C89.0473 142.358 88.9406 141.953 88.9406 141.515C88.9406 140.705 89.25 140.081 89.8686 139.643C90.4873 139.206 91.33 138.987 92.3966 138.987H94.5406V138.891C94.5406 138.198 94.3593 137.675 93.9966 137.323C93.634 136.961 93.1486 136.779 92.5406 136.779C92.018 136.779 91.5646 136.913 91.1806 137.179C90.8073 137.435 90.5726 137.814 90.4766 138.315H89.1006C89.154 137.739 89.346 137.254 89.6766 136.859C90.018 136.465 90.4393 136.166 90.9406 135.963C91.442 135.75 91.9753 135.643 92.5406 135.643C93.65 135.643 94.482 135.942 95.0366 136.539C95.602 137.126 95.8846 137.91 95.8846 138.891V143.771H94.6846L94.6046 142.347C94.3806 142.795 94.05 143.179 93.6126 143.499C93.186 143.809 92.61 143.963 91.8846 143.963ZM92.0926 142.827C92.6046 142.827 93.042 142.694 93.4046 142.427C93.778 142.161 94.0606 141.814 94.2526 141.387C94.4446 140.961 94.5406 140.513 94.5406 140.043V140.027H92.5086C91.7193 140.027 91.1593 140.166 90.8286 140.443C90.5086 140.71 90.3486 141.046 90.3486 141.451C90.3486 141.867 90.498 142.203 90.7966 142.459C91.106 142.705 91.538 142.827 92.0926 142.827ZM100.818 143.771C100.093 143.771 99.5221 143.595 99.1061 143.243C98.6901 142.891 98.4821 142.257 98.4821 141.339V136.971H97.1061V135.835H98.4821L98.6581 133.931H99.8261V135.835H102.162V136.971H99.8261V141.339C99.8261 141.841 99.9275 142.182 100.13 142.363C100.333 142.534 100.69 142.619 101.202 142.619H102.034V143.771H100.818ZM107.219 143.963C106.462 143.963 105.79 143.793 105.203 143.451C104.616 143.099 104.152 142.614 103.811 141.995C103.48 141.377 103.315 140.646 103.315 139.803C103.315 138.971 103.48 138.246 103.811 137.627C104.142 136.998 104.6 136.513 105.187 136.171C105.784 135.819 106.472 135.643 107.251 135.643C108.019 135.643 108.68 135.819 109.235 136.171C109.8 136.513 110.232 136.966 110.531 137.531C110.83 138.097 110.979 138.705 110.979 139.355C110.979 139.473 110.974 139.59 110.963 139.707C110.963 139.825 110.963 139.958 110.963 140.107H104.643C104.675 140.715 104.814 141.222 105.059 141.627C105.315 142.022 105.63 142.321 106.003 142.523C106.387 142.726 106.792 142.827 107.219 142.827C107.774 142.827 108.238 142.699 108.611 142.443C108.984 142.187 109.256 141.841 109.427 141.403H110.755C110.542 142.139 110.131 142.753 109.523 143.243C108.926 143.723 108.158 143.963 107.219 143.963ZM107.219 136.779C106.579 136.779 106.008 136.977 105.507 137.371C105.016 137.755 104.734 138.321 104.659 139.067H109.651C109.619 138.353 109.374 137.793 108.915 137.387C108.456 136.982 107.891 136.779 107.219 136.779ZM119.635 143.963C118.973 143.963 118.424 143.851 117.987 143.627C117.549 143.403 117.224 143.105 117.011 142.731C116.797 142.358 116.691 141.953 116.691 141.515C116.691 140.705 117 140.081 117.619 139.643C118.237 139.206 119.08 138.987 120.147 138.987H122.291V138.891C122.291 138.198 122.109 137.675 121.747 137.323C121.384 136.961 120.899 136.779 120.291 136.779C119.768 136.779 119.315 136.913 118.931 137.179C118.557 137.435 118.323 137.814 118.227 138.315H116.851C116.904 137.739 117.096 137.254 117.427 136.859C117.768 136.465 118.189 136.166 118.691 135.963C119.192 135.75 119.725 135.643 120.291 135.643C121.4 135.643 122.232 135.942 122.787 136.539C123.352 137.126 123.635 137.91 123.635 138.891V143.771H122.435L122.355 142.347C122.131 142.795 121.8 143.179 121.363 143.499C120.936 143.809 120.36 143.963 119.635 143.963ZM119.843 142.827C120.355 142.827 120.792 142.694 121.155 142.427C121.528 142.161 121.811 141.814 122.003 141.387C122.195 140.961 122.291 140.513 122.291 140.043V140.027H120.259C119.469 140.027 118.909 140.166 118.579 140.443C118.259 140.71 118.099 141.046 118.099 141.451C118.099 141.867 118.248 142.203 118.547 142.459C118.856 142.705 119.288 142.827 119.843 142.827ZM125.651 143.771V135.835H126.867L126.963 136.987C127.219 136.561 127.56 136.23 127.987 135.995C128.414 135.761 128.894 135.643 129.427 135.643C130.056 135.643 130.595 135.771 131.043 136.027C131.502 136.283 131.854 136.673 132.099 137.195C132.376 136.715 132.755 136.337 133.235 136.059C133.726 135.782 134.254 135.643 134.819 135.643C135.768 135.643 136.526 135.931 137.091 136.507C137.656 137.073 137.939 137.947 137.939 139.131V143.771H136.611V139.275C136.611 138.454 136.446 137.835 136.115 137.419C135.784 137.003 135.31 136.795 134.691 136.795C134.051 136.795 133.518 137.046 133.091 137.547C132.675 138.038 132.467 138.742 132.467 139.659V143.771H131.123V139.275C131.123 138.454 130.958 137.835 130.627 137.419C130.296 137.003 129.822 136.795 129.203 136.795C128.574 136.795 128.046 137.046 127.619 137.547C127.203 138.038 126.995 138.742 126.995 139.659V143.771H125.651ZM144.203 143.963C143.553 143.963 142.971 143.83 142.459 143.563C141.958 143.297 141.574 142.923 141.307 142.443L141.179 143.771H139.963V132.251H141.307V137.147C141.563 136.763 141.926 136.417 142.395 136.107C142.875 135.798 143.483 135.643 144.219 135.643C145.009 135.643 145.697 135.825 146.283 136.187C146.87 136.55 147.323 137.046 147.643 137.675C147.974 138.305 148.139 139.019 148.139 139.819C148.139 140.619 147.974 141.334 147.643 141.963C147.323 142.582 146.865 143.073 146.267 143.435C145.681 143.787 144.993 143.963 144.203 143.963ZM144.059 142.795C144.593 142.795 145.062 142.673 145.467 142.427C145.873 142.171 146.193 141.819 146.427 141.371C146.662 140.923 146.779 140.401 146.779 139.803C146.779 139.206 146.662 138.683 146.427 138.235C146.193 137.787 145.873 137.441 145.467 137.195C145.062 136.939 144.593 136.811 144.059 136.811C143.526 136.811 143.057 136.939 142.651 137.195C142.246 137.441 141.926 137.787 141.691 138.235C141.457 138.683 141.339 139.206 141.339 139.803C141.339 140.401 141.457 140.923 141.691 141.371C141.926 141.819 142.246 142.171 142.651 142.427C143.057 142.673 143.526 142.795 144.059 142.795ZM150.826 134.075C150.56 134.075 150.336 133.99 150.154 133.819C149.984 133.638 149.898 133.414 149.898 133.147C149.898 132.891 149.984 132.678 150.154 132.507C150.336 132.337 150.56 132.251 150.826 132.251C151.082 132.251 151.301 132.337 151.482 132.507C151.664 132.678 151.754 132.891 151.754 133.147C151.754 133.414 151.664 133.638 151.482 133.819C151.301 133.99 151.082 134.075 150.826 134.075ZM150.154 143.771V135.835H151.498V143.771H150.154ZM157.406 143.963C156.649 143.963 155.977 143.793 155.39 143.451C154.804 143.099 154.34 142.614 153.998 141.995C153.668 141.377 153.502 140.646 153.502 139.803C153.502 138.971 153.668 138.246 153.998 137.627C154.329 136.998 154.788 136.513 155.374 136.171C155.972 135.819 156.66 135.643 157.438 135.643C158.206 135.643 158.868 135.819 159.422 136.171C159.988 136.513 160.42 136.966 160.718 137.531C161.017 138.097 161.166 138.705 161.166 139.355C161.166 139.473 161.161 139.59 161.15 139.707C161.15 139.825 161.15 139.958 161.15 140.107H154.83C154.862 140.715 155.001 141.222 155.246 141.627C155.502 142.022 155.817 142.321 156.19 142.523C156.574 142.726 156.98 142.827 157.406 142.827C157.961 142.827 158.425 142.699 158.798 142.443C159.172 142.187 159.444 141.841 159.614 141.403H160.942C160.729 142.139 160.318 142.753 159.71 143.243C159.113 143.723 158.345 143.963 157.406 143.963ZM157.406 136.779C156.766 136.779 156.196 136.977 155.694 137.371C155.204 137.755 154.921 138.321 154.846 139.067H159.838C159.806 138.353 159.561 137.793 159.102 137.387C158.644 136.982 158.078 136.779 157.406 136.779ZM162.948 143.771V135.835H164.164L164.244 137.259C164.5 136.758 164.868 136.363 165.348 136.075C165.828 135.787 166.372 135.643 166.98 135.643C167.918 135.643 168.665 135.931 169.22 136.507C169.785 137.073 170.068 137.947 170.068 139.131V143.771H168.724V139.275C168.724 137.622 168.041 136.795 166.676 136.795C165.993 136.795 165.422 137.046 164.964 137.547C164.516 138.038 164.292 138.742 164.292 139.659V143.771H162.948ZM175.752 143.963C174.995 143.963 174.312 143.793 173.704 143.451C173.107 143.099 172.632 142.614 172.28 141.995C171.939 141.366 171.768 140.635 171.768 139.803C171.768 138.971 171.939 138.246 172.28 137.627C172.632 136.998 173.107 136.513 173.704 136.171C174.312 135.819 174.995 135.643 175.752 135.643C176.691 135.643 177.48 135.889 178.12 136.379C178.771 136.87 179.181 137.526 179.352 138.347H177.976C177.869 137.857 177.608 137.478 177.192 137.211C176.776 136.934 176.291 136.795 175.736 136.795C175.288 136.795 174.867 136.907 174.472 137.131C174.077 137.355 173.757 137.691 173.512 138.139C173.267 138.587 173.144 139.142 173.144 139.803C173.144 140.465 173.267 141.019 173.512 141.467C173.757 141.915 174.077 142.257 174.472 142.491C174.867 142.715 175.288 142.827 175.736 142.827C176.291 142.827 176.776 142.694 177.192 142.427C177.608 142.15 177.869 141.761 177.976 141.259H179.352C179.192 142.059 178.787 142.71 178.136 143.211C177.485 143.713 176.691 143.963 175.752 143.963ZM184.797 143.963C184.04 143.963 183.368 143.793 182.781 143.451C182.194 143.099 181.73 142.614 181.389 141.995C181.058 141.377 180.893 140.646 180.893 139.803C180.893 138.971 181.058 138.246 181.389 137.627C181.72 136.998 182.178 136.513 182.765 136.171C183.362 135.819 184.05 135.643 184.829 135.643C185.597 135.643 186.258 135.819 186.813 136.171C187.378 136.513 187.81 136.966 188.109 137.531C188.408 138.097 188.557 138.705 188.557 139.355C188.557 139.473 188.552 139.59 188.541 139.707C188.541 139.825 188.541 139.958 188.541 140.107H182.221C182.253 140.715 182.392 141.222 182.637 141.627C182.893 142.022 183.208 142.321 183.581 142.523C183.965 142.726 184.37 142.827 184.797 142.827C185.352 142.827 185.816 142.699 186.189 142.443C186.562 142.187 186.834 141.841 187.005 141.403H188.333C188.12 142.139 187.709 142.753 187.101 143.243C186.504 143.723 185.736 143.963 184.797 143.963ZM184.797 136.779C184.157 136.779 183.586 136.977 183.085 137.371C182.594 137.755 182.312 138.321 182.237 139.067H187.229C187.197 138.353 186.952 137.793 186.493 137.387C186.034 136.982 185.469 136.779 184.797 136.779ZM197.213 143.963C196.551 143.963 196.002 143.851 195.565 143.627C195.127 143.403 194.802 143.105 194.589 142.731C194.375 142.358 194.269 141.953 194.269 141.515C194.269 140.705 194.578 140.081 195.197 139.643C195.815 139.206 196.658 138.987 197.725 138.987H199.869V138.891C199.869 138.198 199.687 137.675 199.325 137.323C198.962 136.961 198.477 136.779 197.869 136.779C197.346 136.779 196.893 136.913 196.509 137.179C196.135 137.435 195.901 137.814 195.805 138.315H194.429C194.482 137.739 194.674 137.254 195.005 136.859C195.346 136.465 195.767 136.166 196.269 135.963C196.77 135.75 197.303 135.643 197.869 135.643C198.978 135.643 199.81 135.942 200.365 136.539C200.93 137.126 201.213 137.91 201.213 138.891V143.771H200.013L199.933 142.347C199.709 142.795 199.378 143.179 198.941 143.499C198.514 143.809 197.938 143.963 197.213 143.963ZM197.421 142.827C197.933 142.827 198.37 142.694 198.733 142.427C199.106 142.161 199.389 141.814 199.581 141.387C199.773 140.961 199.869 140.513 199.869 140.043V140.027H197.837C197.047 140.027 196.487 140.166 196.157 140.443C195.837 140.71 195.677 141.046 195.677 141.451C195.677 141.867 195.826 142.203 196.125 142.459C196.434 142.705 196.866 142.827 197.421 142.827ZM203.229 143.771V135.835H204.445L204.525 137.259C204.781 136.758 205.149 136.363 205.629 136.075C206.109 135.787 206.653 135.643 207.261 135.643C208.2 135.643 208.946 135.931 209.501 136.507C210.066 137.073 210.349 137.947 210.349 139.131V143.771H209.005V139.275C209.005 137.622 208.322 136.795 206.957 136.795C206.274 136.795 205.704 137.046 205.245 137.547C204.797 138.038 204.573 138.742 204.573 139.659V143.771H203.229ZM215.985 143.963C215.196 143.963 214.503 143.782 213.905 143.419C213.319 143.057 212.86 142.561 212.529 141.931C212.209 141.302 212.049 140.587 212.049 139.787C212.049 138.987 212.215 138.278 212.545 137.659C212.876 137.03 213.335 136.539 213.921 136.187C214.508 135.825 215.201 135.643 216.001 135.643C216.652 135.643 217.228 135.777 217.729 136.043C218.231 136.31 218.62 136.683 218.897 137.163V132.251H220.241V143.771H219.025L218.897 142.459C218.641 142.843 218.273 143.19 217.793 143.499C217.313 143.809 216.711 143.963 215.985 143.963ZM216.129 142.795C216.663 142.795 217.132 142.673 217.537 142.427C217.953 142.171 218.273 141.819 218.497 141.371C218.732 140.923 218.849 140.401 218.849 139.803C218.849 139.206 218.732 138.683 218.497 138.235C218.273 137.787 217.953 137.441 217.537 137.195C217.132 136.939 216.663 136.811 216.129 136.811C215.607 136.811 215.137 136.939 214.721 137.195C214.316 137.441 213.996 137.787 213.761 138.235C213.537 138.683 213.425 139.206 213.425 139.803C213.425 140.401 213.537 140.923 213.761 141.371C213.996 141.819 214.316 142.171 214.721 142.427C215.137 142.673 215.607 142.795 216.129 142.795ZM230.266 143.963C229.477 143.963 228.784 143.782 228.187 143.419C227.6 143.057 227.141 142.561 226.811 141.931C226.491 141.302 226.331 140.587 226.331 139.787C226.331 138.987 226.496 138.278 226.827 137.659C227.157 137.03 227.616 136.539 228.203 136.187C228.789 135.825 229.483 135.643 230.283 135.643C230.933 135.643 231.509 135.777 232.011 136.043C232.512 136.31 232.901 136.683 233.179 137.163V132.251H234.523V143.771H233.307L233.179 142.459C232.923 142.843 232.555 143.19 232.075 143.499C231.595 143.809 230.992 143.963 230.266 143.963ZM230.411 142.795C230.944 142.795 231.413 142.673 231.819 142.427C232.235 142.171 232.555 141.819 232.779 141.371C233.013 140.923 233.131 140.401 233.131 139.803C233.131 139.206 233.013 138.683 232.779 138.235C232.555 137.787 232.235 137.441 231.819 137.195C231.413 136.939 230.944 136.811 230.411 136.811C229.888 136.811 229.419 136.939 229.003 137.195C228.597 137.441 228.277 137.787 228.043 138.235C227.819 138.683 227.707 139.206 227.707 139.803C227.707 140.401 227.819 140.923 228.043 141.371C228.277 141.819 228.597 142.171 229.003 142.427C229.419 142.673 229.888 142.795 230.411 142.795ZM240.281 143.963C239.524 143.963 238.852 143.793 238.265 143.451C237.679 143.099 237.215 142.614 236.873 141.995C236.543 141.377 236.377 140.646 236.377 139.803C236.377 138.971 236.543 138.246 236.873 137.627C237.204 136.998 237.663 136.513 238.249 136.171C238.847 135.819 239.535 135.643 240.313 135.643C241.081 135.643 241.743 135.819 242.297 136.171C242.863 136.513 243.295 136.966 243.593 137.531C243.892 138.097 244.041 138.705 244.041 139.355C244.041 139.473 244.036 139.59 244.025 139.707C244.025 139.825 244.025 139.958 244.025 140.107H237.705C237.737 140.715 237.876 141.222 238.121 141.627C238.377 142.022 238.692 142.321 239.065 142.523C239.449 142.726 239.855 142.827 240.281 142.827C240.836 142.827 241.3 142.699 241.673 142.443C242.047 142.187 242.319 141.841 242.489 141.403H243.817C243.604 142.139 243.193 142.753 242.585 143.243C241.988 143.723 241.22 143.963 240.281 143.963ZM240.281 136.779C239.641 136.779 239.071 136.977 238.569 137.371C238.079 137.755 237.796 138.321 237.721 139.067H242.713C242.681 138.353 242.436 137.793 241.977 137.387C241.519 136.982 240.953 136.779 240.281 136.779ZM245.823 143.771V135.835H247.039L247.135 136.987C247.391 136.561 247.732 136.23 248.159 135.995C248.585 135.761 249.065 135.643 249.599 135.643C250.228 135.643 250.767 135.771 251.215 136.027C251.673 136.283 252.025 136.673 252.271 137.195C252.548 136.715 252.927 136.337 253.407 136.059C253.897 135.782 254.425 135.643 254.991 135.643C255.94 135.643 256.697 135.931 257.263 136.507C257.828 137.073 258.111 137.947 258.111 139.131V143.771H256.783V139.275C256.783 138.454 256.617 137.835 256.287 137.419C255.956 137.003 255.481 136.795 254.863 136.795C254.223 136.795 253.689 137.046 253.263 137.547C252.847 138.038 252.639 138.742 252.639 139.659V143.771H251.295V139.275C251.295 138.454 251.129 137.835 250.799 137.419C250.468 137.003 249.993 136.795 249.375 136.795C248.745 136.795 248.217 137.046 247.791 137.547C247.375 138.038 247.167 138.742 247.167 139.659V143.771H245.823ZM262.775 143.963C262.114 143.963 261.565 143.851 261.127 143.627C260.69 143.403 260.365 143.105 260.151 142.731C259.938 142.358 259.831 141.953 259.831 141.515C259.831 140.705 260.141 140.081 260.759 139.643C261.378 139.206 262.221 138.987 263.287 138.987H265.431V138.891C265.431 138.198 265.25 137.675 264.887 137.323C264.525 136.961 264.039 136.779 263.431 136.779C262.909 136.779 262.455 136.913 262.071 137.179C261.698 137.435 261.463 137.814 261.367 138.315H259.991C260.045 137.739 260.237 137.254 260.567 136.859C260.909 136.465 261.33 136.166 261.831 135.963C262.333 135.75 262.866 135.643 263.431 135.643C264.541 135.643 265.373 135.942 265.927 136.539C266.493 137.126 266.775 137.91 266.775 138.891V143.771H265.575L265.495 142.347C265.271 142.795 264.941 143.179 264.503 143.499C264.077 143.809 263.501 143.963 262.775 143.963ZM262.983 142.827C263.495 142.827 263.933 142.694 264.295 142.427C264.669 142.161 264.951 141.814 265.143 141.387C265.335 140.961 265.431 140.513 265.431 140.043V140.027H263.399C262.61 140.027 262.05 140.166 261.719 140.443C261.399 140.71 261.239 141.046 261.239 141.451C261.239 141.867 261.389 142.203 261.687 142.459C261.997 142.705 262.429 142.827 262.983 142.827ZM268.792 143.771V135.835H270.008L270.088 137.259C270.344 136.758 270.712 136.363 271.192 136.075C271.672 135.787 272.216 135.643 272.824 135.643C273.762 135.643 274.509 135.931 275.064 136.507C275.629 137.073 275.911 137.947 275.911 139.131V143.771H274.568V139.275C274.568 137.622 273.885 136.795 272.52 136.795C271.837 136.795 271.266 137.046 270.808 137.547C270.36 138.038 270.136 138.742 270.136 139.659V143.771H268.792ZM281.548 143.963C280.758 143.963 280.065 143.782 279.468 143.419C278.881 143.057 278.422 142.561 278.092 141.931C277.772 141.302 277.612 140.587 277.612 139.787C277.612 138.987 277.777 138.278 278.108 137.659C278.438 137.03 278.897 136.539 279.484 136.187C280.07 135.825 280.764 135.643 281.564 135.643C282.214 135.643 282.79 135.777 283.292 136.043C283.793 136.31 284.182 136.683 284.46 137.163V132.251H285.804V143.771H284.588L284.46 142.459C284.204 142.843 283.836 143.19 283.356 143.499C282.876 143.809 282.273 143.963 281.548 143.963ZM281.692 142.795C282.225 142.795 282.694 142.673 283.1 142.427C283.516 142.171 283.836 141.819 284.06 141.371C284.294 140.923 284.412 140.401 284.412 139.803C284.412 139.206 284.294 138.683 284.06 138.235C283.836 137.787 283.516 137.441 283.1 137.195C282.694 136.939 282.225 136.811 281.692 136.811C281.169 136.811 280.7 136.939 280.284 137.195C279.878 137.441 279.558 137.787 279.324 138.235C279.1 138.683 278.988 139.206 278.988 139.803C278.988 140.401 279.1 140.923 279.324 141.371C279.558 141.819 279.878 142.171 280.284 142.427C280.7 142.673 281.169 142.795 281.692 142.795Z" fill="black"/>
<defs>
<clipPath id="clip0_831_19177">
<rect width="4.52663" height="6.03551" fill="white" transform="translate(29.8789 33.8783)"/>
</clipPath>
</defs>
</svg>
