<svg width="94" height="94" viewBox="0 0 94 94" fill="none" xmlns="http://www.w3.org/2000/svg">
<rect width="93.5" height="93.5" transform="translate(0.5)" fill="white"/>
<rect x="12.834" y="22.7632" width="73.5554" height="10.5936" rx="5.2968" fill="#C7C1E3"/>
<rect x="14.1338" y="45.8892" width="73.5554" height="10.5936" rx="5.2968" fill="#C7C1E3"/>
<rect x="12.834" y="69.0164" width="73.5554" height="10.5936" rx="5.2968" fill="#C7C1E3"/>
<path fill-rule="evenodd" clip-rule="evenodd" d="M18.243 7.70837C18.618 7.70837 18.8993 7.85844 19.0868 8.13982C19.293 8.43996 19.368 9.11527 19.368 10.8035C19.368 12.4918 19.293 13.1671 19.0868 13.486C18.918 13.7299 18.618 13.8987 18.3368 13.8987C18.0742 13.8987 17.7367 13.7674 17.5867 13.6173C17.3617 13.3922 17.3055 12.792 17.2867 10.8786C17.2867 9.39665 17.3617 8.28989 17.4742 8.06479C17.6055 7.83968 17.8867 7.70837 18.243 7.70837V7.70837ZM11.0052 9.43417C11.5115 9.49044 11.7178 9.7343 13.0678 12.1166C14.3429 14.3864 14.5304 14.7991 14.3804 15.2118C14.2491 15.5682 14.0428 15.6995 13.5928 15.7183C13.1241 15.7558 12.9178 15.662 12.6365 15.2493C12.449 14.968 11.774 13.8424 11.1365 12.7169C10.5177 11.6102 9.97394 10.5222 9.95519 10.2783C9.93644 10.0344 10.0302 9.7343 10.1802 9.62175C10.3302 9.49044 10.7052 9.39665 11.0052 9.43417ZM5.96128 14.574C6.16754 14.6491 7.51759 15.2868 8.9614 16.0184C10.4052 16.7313 11.6428 17.4253 11.7178 17.5379C11.7928 17.6504 11.8678 17.9318 11.8678 18.1757C11.8678 18.4195 11.6615 18.7197 11.3802 18.926C10.9115 19.2449 10.8927 19.2262 8.08012 17.838C6.52381 17.0689 5.13625 16.3186 4.98625 16.1873C4.85499 16.0747 4.72374 15.7558 4.72374 15.512C4.70499 15.2118 4.85499 14.9304 5.13625 14.7616C5.38001 14.5928 5.73628 14.5177 5.96128 14.574ZM74.3076 17.1815C81.2454 17.2002 81.5829 17.219 82.933 17.6317C83.7018 17.8568 84.9206 18.3633 85.6331 18.7384C86.3644 19.1136 87.3206 19.7702 87.7894 20.2016C88.2582 20.6331 88.9145 21.4209 89.2145 21.9837C89.7582 22.9591 89.777 23.0904 89.777 25.3415C89.777 27.5737 89.7582 27.7426 89.2145 28.793C88.8957 29.4121 88.2394 30.275 87.7144 30.7627C87.1894 31.2317 86.1768 31.9257 85.4643 32.3009C84.733 32.6948 83.4767 33.2013 82.6517 33.4639C81.8267 33.7266 80.2704 34.083 79.1828 34.2518C77.5515 34.5144 75.0014 34.6082 64.1823 34.7208C57.0195 34.8146 46.3503 34.8896 40.4626 34.8896C34.5749 34.8896 28.4996 34.8146 26.9621 34.7208C25.4058 34.6082 23.6432 34.4394 23.0244 34.3268C22.4057 34.233 21.1869 33.9141 20.3056 33.6515C19.4243 33.3889 18.168 32.9012 17.493 32.5635C16.8179 32.2259 15.7304 31.5318 15.0741 31.0441C14.3616 30.5001 13.5928 29.6747 13.1428 28.9994C12.749 28.3804 12.3178 27.5362 12.224 27.1235C12.1115 26.7108 12.0365 25.7729 12.0365 25.0601C12.0365 23.9908 12.149 23.5406 12.5803 22.6215C12.9553 21.8899 13.5178 21.1583 14.2304 20.5017C14.8491 19.9577 15.9179 19.2262 16.6492 18.8697C17.3617 18.5133 18.6368 18.0256 20.9619 17.3691L44.0252 17.2753C56.7007 17.219 70.3325 17.1815 74.3076 17.1815ZM39.0563 19.3012C23.7557 19.2824 21.7494 19.32 20.4931 19.6013C19.7243 19.7702 18.468 20.2016 17.718 20.558C16.9867 20.9144 15.9367 21.6085 15.4116 22.115C14.8304 22.659 14.3616 23.3155 14.1741 23.8408C13.9741 24.4035 13.9053 24.9976 13.9678 25.6228C14.0241 26.1481 14.1928 26.8046 14.3616 27.1235C14.5116 27.4424 14.9616 28.0052 15.3741 28.4179C15.7679 28.8118 16.6304 29.4121 17.3055 29.7497C17.9805 30.0874 19.068 30.4813 19.7431 30.6501C20.4181 30.819 21.3369 31.0066 21.8056 31.0628C22.2744 31.1379 27.2058 31.0816 32.7748 30.969C38.3438 30.8377 51.3005 30.6689 61.5572 30.5939C77.5703 30.4813 80.3829 30.425 81.3392 30.1624C81.9579 30.0124 82.933 29.6935 83.4955 29.4871C84.058 29.2808 85.0518 28.7368 85.6893 28.2678C86.4394 27.7238 87.0581 27.0673 87.3769 26.5233C87.7519 25.8667 87.8832 25.379 87.8832 24.6849C87.8832 24.1222 87.7144 23.4468 87.4894 22.9966C87.2831 22.5839 86.7394 21.9274 86.2894 21.5147C85.8393 21.1208 84.9581 20.558 84.3393 20.2766C83.7205 19.9953 82.6705 19.6201 81.9954 19.4325C81.0954 19.2074 79.8391 19.0948 77.3078 19.0573C75.3952 19.0386 69.8825 19.0761 65.026 19.1699C60.1696 19.2449 48.4879 19.32 39.0563 19.3012ZM74.8514 40.3483C78.9016 40.3483 79.9329 40.4046 81.4329 40.7235C82.483 40.9486 83.833 41.3988 84.7143 41.8115C85.5956 42.243 86.6644 42.9558 87.3019 43.5561C87.9769 44.1751 88.5957 44.963 88.8957 45.6008C89.3457 46.5387 89.3832 46.8201 89.3457 48.6021C89.327 49.7464 89.1957 50.9282 89.027 51.4159C88.877 51.8849 88.4269 52.6727 88.0332 53.1792C87.6582 53.6857 86.8331 54.4548 86.2144 54.8863C85.5956 55.299 84.4143 55.9367 83.5892 56.2744C82.7642 56.6308 81.3204 57.0623 80.4016 57.2498C79.4641 57.4374 77.6078 57.7001 76.2765 57.8126C74.6264 57.9627 66.0198 58.0377 49.838 58.0565C31.4998 58.0752 25.387 58.019 23.962 57.8314C22.9307 57.7001 21.3744 57.3999 20.4931 57.1561C19.6118 56.9122 18.4493 56.537 17.9055 56.3119C17.3805 56.1056 16.4054 55.5803 15.7492 55.1864C15.1116 54.7737 14.1366 53.9859 13.5928 53.4043C13.0678 52.8228 12.3928 51.8661 12.0928 51.2846C11.6615 50.3467 11.5865 49.9715 11.5865 48.5083C11.5865 46.9889 11.6428 46.7263 12.149 45.8071C12.449 45.2631 13.1803 44.3627 13.7428 43.8374C14.3241 43.3122 15.4116 42.5619 16.1804 42.1867C16.9492 41.8115 18.2993 41.305 19.1805 41.0987C20.7556 40.7048 21.0181 40.686 45.3003 40.6297C58.8008 40.611 69.8825 40.5172 69.9387 40.4609C70.0137 40.4046 72.2076 40.3483 74.8514 40.3483ZM48.7692 42.5806L20.3993 42.7119C18.3555 43.3872 17.343 43.7999 16.8367 44.0625C16.3117 44.3252 15.4491 44.963 14.9054 45.4882C14.3616 46.0134 13.8178 46.745 13.7053 47.1014C13.5928 47.4579 13.4991 48.2082 13.5178 48.7522C13.5366 49.2774 13.7241 50.0465 13.9116 50.4405C14.1178 50.8156 14.6054 51.4347 14.9991 51.8099C15.3929 52.185 16.0117 52.654 16.3679 52.8791C16.7242 53.0854 17.6992 53.4981 18.5243 53.7607C19.443 54.0796 20.6431 54.3047 21.6181 54.361C22.4994 54.4173 28.5184 54.361 35.0249 54.2297C41.5126 54.0984 54.3006 53.9296 63.4322 53.8545C79.3141 53.742 80.0829 53.7045 81.4329 53.3481C82.2017 53.1417 83.308 52.729 83.8705 52.4476C84.433 52.1475 85.3143 51.5285 85.8206 51.0595C86.3269 50.5905 86.8894 49.859 87.0769 49.4463C87.2644 49.0336 87.4332 48.377 87.4332 48.0019C87.4332 47.6079 87.3019 46.9701 87.1519 46.595C86.9831 46.201 86.5331 45.5632 86.1581 45.1693C85.7831 44.7754 85.0331 44.2126 84.5268 43.9125C84.0018 43.6311 82.9892 43.1997 82.2767 42.9745C81.5454 42.7494 80.1391 42.5056 79.1078 42.4493C78.0953 42.3743 77.2328 42.3368 77.214 42.3743C77.1765 42.4118 64.3698 42.5056 48.7692 42.5806ZM75.714 63.4589C80.5516 63.534 81.3204 63.5903 82.6517 63.9467C83.4767 64.1718 84.7893 64.6783 85.5581 65.0534C86.3269 65.4474 87.3769 66.1789 87.9019 66.7042C88.4269 67.2294 89.0645 68.0736 89.327 68.58C89.7207 69.4242 89.777 69.7618 89.777 71.769C89.777 73.8325 89.7395 74.0951 89.2707 75.0518C88.9895 75.6145 88.3519 76.4774 87.8644 76.9651C87.3769 77.4529 86.4581 78.1469 85.8393 78.5221C85.2206 78.8785 84.0768 79.385 83.308 79.6476C82.5392 79.9102 81.3017 80.2291 80.5891 80.3792C79.8579 80.5293 78.1703 80.7544 76.839 80.8857C75.1139 81.0358 67.3324 81.1108 50.1192 81.1295C27.4121 81.1483 25.7058 81.1296 23.6807 80.8107C22.4994 80.6231 20.8494 80.2479 20.0243 79.9853C19.1993 79.7226 18.093 79.2912 17.5867 79.0473C17.0617 78.7847 16.1429 78.222 15.5241 77.7718C14.9054 77.3403 14.0991 76.6087 13.7241 76.1585C13.3491 75.7083 12.8803 74.9955 12.674 74.5828C12.4678 74.1701 12.2428 73.5698 12.1678 73.2697C12.0928 72.9696 12.0365 72.1254 12.0365 71.3938C12.0365 70.3809 12.1678 69.8556 12.5428 69.049C12.8053 68.4863 13.4803 67.5671 14.0428 67.0418C14.6804 66.404 15.6367 65.7663 16.5929 65.2973C17.4555 64.8846 18.8243 64.3594 19.6493 64.153C21.1306 63.7591 21.4681 63.7591 45.5816 63.7028C59.0258 63.684 70.07 63.5903 70.145 63.5152C70.22 63.4402 72.7138 63.4214 75.714 63.4589ZM43.4065 65.6349C25.1995 65.6725 21.8056 65.71 20.6806 65.9538C19.9493 66.1039 18.843 66.4416 18.1868 66.7042C17.5492 66.9668 16.6117 67.492 16.1054 67.886C15.5804 68.2611 14.9054 68.9552 14.6054 69.3867C14.0803 70.1182 14.0241 70.3433 14.0241 71.5439C14.0428 72.5569 14.1366 73.1009 14.4554 73.7011C14.6804 74.1326 15.2241 74.7704 15.6554 75.1268C16.1054 75.4832 17.0242 76.0272 17.718 76.3461C18.4305 76.665 19.7243 77.0777 20.6243 77.2465C22.1432 77.5467 23.1557 77.5467 33.8999 77.3216C40.2938 77.1902 53.1193 77.0402 62.4009 76.9839C77.964 76.9089 79.4078 76.8713 81.0579 76.5337C82.0329 76.3461 83.4205 75.8959 84.1518 75.5583C84.8643 75.2206 85.7831 74.6391 86.1956 74.2827C86.5894 73.9262 87.1331 73.2697 87.3956 72.8007C87.7332 72.2005 87.8832 71.6752 87.8832 71.0187C87.8832 70.3434 87.7332 69.8369 87.3769 69.1991C87.0956 68.6926 86.4769 67.9985 85.9706 67.6421C85.4831 67.2669 84.4893 66.7229 83.7768 66.4228C83.0455 66.1227 81.9204 65.8038 81.2454 65.6912C80.5704 65.5787 79.5203 65.4849 78.9016 65.4474C78.2828 65.4098 74.8702 65.4286 71.3075 65.4849C67.7449 65.5411 55.2007 65.5974 43.4065 65.6349Z" fill="#111111"/>
<path d="M85.3032 24.6131C85.3032 27.4324 83.5765 29.7179 80.7571 29.7179C77.9378 29.7179 75.6523 27.4324 75.6523 24.6131C75.6523 21.7938 77.9378 19.902 80.7571 19.902C83.5765 19.902 85.3032 21.7938 85.3032 24.6131Z" fill="#927EF0"/>
<path d="M25.789 49.1325C25.789 51.9518 24.0623 54.2373 21.243 54.2373C18.4237 54.2373 16.1382 51.9518 16.1382 49.1325C16.1382 46.3132 18.4237 44.4214 21.243 44.4214C24.0623 44.4214 25.789 46.3132 25.789 49.1325Z" fill="#927EF0"/>
<path d="M85.3032 71.1654C85.3032 73.9847 83.5765 76.2702 80.7571 76.2702C77.9378 76.2702 75.6523 73.9847 75.6523 71.1654C75.6523 68.3461 77.9378 66.4542 80.7571 66.4542C83.5765 66.4542 85.3032 68.3461 85.3032 71.1654Z" fill="#927EF0"/>
</svg>
