<svg width="72" height="72" viewBox="0 0 72 72" fill="none" xmlns="http://www.w3.org/2000/svg">
<rect width="72" height="72" fill="white"/>
<path d="M23.7425 41.6627C30.0765 41.6627 35.4849 42.6669 35.4849 46.6853C35.4849 50.702 30.1112 51.7427 23.7425 51.7427C17.4084 51.7427 12 50.7385 12 46.7218C12 42.7035 17.3737 41.6627 23.7425 41.6627ZM23.7425 22.2063C28.055 22.2063 31.5129 25.681 31.5129 30.0203C31.5129 34.3578 28.055 37.8359 23.7425 37.8359C19.4299 37.8359 15.972 34.3578 15.972 30.0203C15.972 25.681 19.4299 22.2063 23.7425 22.2063Z" fill="#C7C1E3"/>
<path d="M25.4146 41.2288C32.0001 41.2288 37.6232 42.2728 37.6232 46.4507C37.6232 50.6268 32.0362 51.7089 25.4146 51.7089C18.8292 51.7089 13.2061 50.6649 13.2061 46.4887C13.2061 42.3108 18.7931 41.2288 25.4146 41.2288ZM25.4146 21C29.8983 21 33.4936 24.6126 33.4936 29.1241C33.4936 33.6339 29.8983 37.25 25.4146 37.25C20.9309 37.25 17.3357 33.6339 17.3357 29.1241C17.3357 24.6126 20.9309 21 25.4146 21Z" stroke="#403C3B" stroke-width="1.5"/>
<path d="M45.366 41.6627C51.7 41.6627 57.1085 42.6669 57.1085 46.6853C57.1085 50.702 51.7348 51.7427 45.366 51.7427C39.0319 51.7427 33.6235 50.7385 33.6235 46.7218C33.6235 42.7035 38.9972 41.6627 45.366 41.6627ZM45.366 22.2063C49.6785 22.2063 53.1365 25.681 53.1365 30.0203C53.1365 34.3578 49.6785 37.8359 45.366 37.8359C41.0535 37.8359 37.5955 34.3578 37.5955 30.0203C37.5955 25.681 41.0535 22.2063 45.366 22.2063Z" fill="#C7C1E3"/>
<path d="M47.0382 41.2288C53.6237 41.2288 59.2468 42.2728 59.2468 46.4507C59.2468 50.6268 53.6598 51.7089 47.0382 51.7089C40.4527 51.7089 34.8296 50.6649 34.8296 46.4887C34.8296 42.3108 40.4166 41.2288 47.0382 41.2288ZM47.0382 21C51.5219 21 55.1171 24.6126 55.1171 29.1241C55.1171 33.6339 51.5219 37.25 47.0382 37.25C42.5545 37.25 38.9593 33.6339 38.9593 29.1241C38.9593 24.6126 42.5545 21 47.0382 21Z" stroke="#403C3B" stroke-width="1.5"/>
</svg>
