<svg width="189" height="153" viewBox="0 0 189 153" fill="none" xmlns="http://www.w3.org/2000/svg">
<g clip-path="url(#clip0_831_17537)">
<path d="M2.29476 69.8268H5.94229V140.266C5.94229 140.869 6.18406 141.448 6.61441 141.875C7.04476 142.302 7.62844 142.541 8.23705 142.541H21.1847C21.7933 142.541 22.377 142.302 22.8073 141.875C23.2377 141.448 23.4794 140.869 23.4794 140.266C23.4794 139.662 23.2377 139.084 22.8073 138.657C22.377 138.23 21.7933 137.991 21.1847 137.991H10.5318V69.8268H168.876C169.485 69.8268 170.068 69.5871 170.499 69.1603C170.929 68.7336 171.171 68.1549 171.171 67.5514C171.171 66.9479 170.929 66.3692 170.499 65.9425C170.068 65.5158 169.485 65.276 168.876 65.276H4.58953V57.1365H183.581V65.276H179.934C179.325 65.276 178.741 65.5158 178.311 65.9425C177.881 66.3692 177.639 66.9479 177.639 67.5514V137.991H166.986C166.377 137.991 165.794 138.23 165.363 138.657C164.933 139.084 164.691 139.662 164.691 140.266C164.691 140.869 164.933 141.448 165.363 141.875C165.794 142.302 166.377 142.541 166.986 142.541H179.934C180.542 142.541 181.126 142.302 181.556 141.875C181.986 141.448 182.228 140.869 182.228 140.266V69.8268H185.876C186.484 69.8268 187.068 69.5871 187.498 69.1603C187.929 68.7336 188.171 68.1549 188.171 67.5514V54.8611C188.171 54.2576 187.929 53.6789 187.498 53.2522C187.068 52.8255 186.484 52.5857 185.876 52.5857H138.051C138.059 52.472 138.068 52.3645 138.068 52.2513V31.0511C138.065 27.9095 136.948 24.8691 134.913 22.4616C133.57 20.8736 132.834 18.868 132.832 16.7959V7.64608C132.852 5.72791 132.137 3.87374 130.832 2.45792C129.526 1.0421 127.728 0.170078 125.799 0.0179086C124.77 -0.0532117 123.737 0.087996 122.765 0.432627C121.794 0.777258 120.905 1.31783 120.154 2.02023C119.404 2.71976 118.807 3.56378 118.397 4.50056C117.988 5.43734 117.776 6.44713 117.774 7.46803V16.7936C117.773 18.866 117.036 20.8718 115.693 22.4599C113.658 24.8672 112.541 27.9078 112.538 31.0494V52.2496C112.538 52.3633 112.547 52.4731 112.555 52.584H38.0558V52.2996C38.0505 48.7828 36.7805 45.3832 34.4739 42.7117C32.1673 40.0402 28.9754 38.2719 25.4719 37.7247V35.3464C25.4719 34.743 25.2301 34.1642 24.7997 33.7375C24.3694 33.3108 23.7857 33.071 23.1771 33.071C22.5685 33.071 21.9848 33.3108 21.5545 33.7375C21.1241 34.1642 20.8823 34.743 20.8823 35.3464V37.7247C17.3781 38.2718 14.1856 40.0403 11.8787 42.7125C9.57182 45.3846 8.30192 48.785 8.29729 52.3025V52.5869H2.29476C1.68615 52.5869 1.10247 52.8266 0.67212 53.2533C0.241769 53.68 0 54.2588 0 54.8622V67.5526C0.000304205 68.1558 0.242208 68.7343 0.672526 69.1607C1.10284 69.5872 1.68635 69.8268 2.29476 69.8268ZM117.13 52.2496V31.0511C117.131 28.9785 117.868 26.9725 119.211 25.3843C121.246 22.977 122.363 19.9364 122.366 16.7948V7.46803C122.366 7.08515 122.442 6.706 122.59 6.35226C122.737 5.99852 122.954 5.67712 123.227 5.40643C123.5 5.13574 123.824 4.92107 124.181 4.77468C124.538 4.62829 124.921 4.55306 125.307 4.55329C125.373 4.55329 125.439 4.55329 125.506 4.55954C126.268 4.64344 126.971 5.00631 127.478 5.57716C127.984 6.14801 128.258 6.88577 128.245 7.64608V16.7936C128.248 19.9352 129.365 22.9758 131.4 25.3831C132.743 26.9711 133.48 28.977 133.481 31.0494V52.2496C133.481 52.3382 133.445 52.4232 133.382 52.4859C133.319 52.5486 133.233 52.5839 133.144 52.584H117.467C117.378 52.5839 117.293 52.5488 117.229 52.4865C117.166 52.4242 117.13 52.3396 117.13 52.2513V52.2496ZM12.8857 52.3008C12.8857 49.5947 13.9698 46.9994 15.8996 45.0859C17.8294 43.1724 20.4468 42.0974 23.176 42.0974C25.9051 42.0974 28.5225 43.1724 30.4523 45.0859C32.3821 46.9994 33.4662 49.5947 33.4662 52.3008V52.5852H12.8857V52.3008Z" fill="#D8B448"/>
<path d="M70.9837 142.541H117.188C117.797 142.541 118.38 142.302 118.811 141.875C119.241 141.448 119.483 140.869 119.483 140.266C119.483 139.663 119.241 139.084 118.811 138.657C118.38 138.23 117.797 137.991 117.188 137.991H70.9837C70.3751 137.991 69.7914 138.23 69.3611 138.657C68.9307 139.084 68.689 139.663 68.689 140.266C68.689 140.869 68.9307 141.448 69.3611 141.875C69.7914 142.302 70.3751 142.541 70.9837 142.541Z" fill="#D8B448"/>
<path d="M60.1174 82.5509H32.0513C29.6122 82.5538 27.2739 83.5157 25.5493 85.2258C23.8246 86.9359 22.8544 89.2544 22.8516 91.6729V98.2987C22.8516 98.9022 23.0933 99.4809 23.5237 99.9077C23.954 100.334 24.5377 100.574 25.1463 100.574H39.78V137.991H38.6212C35.976 137.994 33.4401 139.037 31.5695 140.891C29.6989 142.746 28.6465 145.26 28.643 147.883V150.392C28.643 150.995 28.8847 151.574 29.3151 152.001C29.7454 152.427 30.3291 152.667 30.9377 152.667H61.2286C61.8372 152.667 62.4209 152.427 62.8512 152.001C63.2816 151.574 63.5234 150.995 63.5234 150.392V147.883C63.5199 145.261 62.4677 142.747 60.5977 140.892C58.7276 139.038 56.1922 137.994 53.5475 137.991H52.3886V100.574H67.0223C67.6309 100.574 68.2146 100.334 68.645 99.9077C69.0753 99.4809 69.3171 98.9022 69.3171 98.2987V91.6729C69.3142 89.2544 68.344 86.9359 66.6194 85.2258C64.8947 83.5157 62.5564 82.5538 60.1174 82.5509ZM50.0938 142.542H53.5475C54.9763 142.543 56.3463 143.106 57.3567 144.108C58.367 145.109 58.9351 146.468 58.9361 147.885V148.116H33.2348V147.883C33.2363 146.467 33.8043 145.109 34.8141 144.108C35.8239 143.107 37.193 142.543 38.6212 142.542H42.0748C42.6834 142.542 43.2671 142.302 43.6974 141.875C44.1278 141.448 44.3696 140.87 44.3696 140.266V100.574H47.7991V140.266C47.7991 140.565 47.8584 140.861 47.9738 141.137C48.0891 141.413 48.2581 141.664 48.4712 141.875C48.6843 142.086 48.9373 142.254 49.2157 142.368C49.4941 142.483 49.7925 142.542 50.0938 142.542ZM64.7275 96.0251H27.4411V91.6746C27.4425 90.4626 27.9286 89.3007 28.7929 88.4437C29.6572 87.5868 30.829 87.1047 32.0513 87.1034H60.1174C61.3396 87.1047 62.5115 87.5868 63.3757 88.4437C64.24 89.3007 64.7262 90.4626 64.7275 91.6746V96.0251Z" fill="#D8B448"/>
<path d="M159.528 150.392V147.883C159.525 145.26 158.472 142.746 156.602 140.891C154.731 139.037 152.195 137.994 149.55 137.991H148.391V100.574H163.025C163.633 100.574 164.217 100.334 164.647 99.9077C165.078 99.4809 165.32 98.9022 165.32 98.2987V91.6729C165.317 89.2544 164.347 86.9358 162.622 85.2257C160.897 83.5155 158.559 82.5536 156.12 82.5509H128.054C125.615 82.5536 123.276 83.5155 121.552 85.2257C119.827 86.9358 118.857 89.2544 118.854 91.6729V98.2987C118.854 98.9022 119.096 99.4809 119.526 99.9077C119.956 100.334 120.54 100.574 121.149 100.574H135.783V137.991H134.624C131.979 137.994 129.443 139.037 127.572 140.892C125.702 142.746 124.649 145.26 124.646 147.883V150.392C124.646 150.995 124.888 151.574 125.318 152.001C125.748 152.427 126.332 152.667 126.941 152.667H157.232C157.533 152.667 157.832 152.608 158.11 152.494C158.389 152.38 158.642 152.212 158.855 152.001C159.069 151.79 159.238 151.539 159.353 151.263C159.469 150.987 159.528 150.691 159.528 150.392ZM123.443 91.6729C123.444 90.4609 123.93 89.299 124.795 88.442C125.659 87.585 126.831 87.103 128.053 87.1016H156.119C157.342 87.103 158.513 87.585 159.378 88.442C160.242 89.299 160.728 90.4609 160.729 91.6729V96.0234H123.444L123.443 91.6729ZM154.939 148.116H129.237V147.883C129.238 146.466 129.806 145.108 130.817 144.106C131.827 143.104 133.197 142.541 134.625 142.54H138.08C138.688 142.54 139.272 142.3 139.702 141.873C140.133 141.447 140.374 140.868 140.374 140.264V100.574H143.803V140.266C143.803 140.87 144.045 141.448 144.475 141.875C144.906 142.302 145.489 142.542 146.098 142.542H149.552C150.98 142.543 152.35 143.106 153.361 144.108C154.371 145.109 154.939 146.468 154.94 147.885L154.939 148.116Z" fill="#D8B448"/>
<path d="M153.725 42.9842V47.3308C153.725 47.9342 153.967 48.513 154.397 48.9397C154.827 49.3664 155.411 49.6061 156.02 49.6061C156.628 49.6061 157.212 49.3664 157.642 48.9397C158.073 48.513 158.314 47.9342 158.314 47.3308V42.9842C160.909 42.4564 163.241 41.0573 164.917 39.0231C166.592 36.9888 167.509 34.4438 167.513 31.8173V25.105C167.513 24.5015 167.271 23.9227 166.841 23.496C166.41 23.0693 165.827 22.8296 165.218 22.8296H146.822C146.213 22.8296 145.629 23.0693 145.199 23.496C144.769 23.9227 144.527 24.5015 144.527 25.105V31.8173C144.53 34.4438 145.447 36.9887 147.123 39.0229C148.798 41.0572 151.13 42.4562 153.725 42.9842ZM149.116 27.3809H162.923V31.8179C162.907 33.6225 162.172 35.3476 160.879 36.6179C159.586 37.8882 157.84 38.6009 156.02 38.6009C154.2 38.6009 152.453 37.8882 151.16 36.6179C149.868 35.3476 149.133 33.6225 149.116 31.8179V27.3809Z" fill="#D8B448"/>
</g>
<defs>
<clipPath id="clip0_831_17537">
<rect width="188.171" height="152.667" fill="white"/>
</clipPath>
</defs>
</svg>
