<svg width="94" height="93" viewBox="0 0 94 93" fill="none" xmlns="http://www.w3.org/2000/svg">
<rect width="93" height="93" transform="translate(0.5)" fill="white"/>
<path d="M21.7643 42.4127C21.7643 41.6323 21.3924 39.6969 19.9045 38.1985C18.0446 36.3254 15.2548 35.3889 16.1847 33.0477C16.9287 31.1747 23.9342 23.2143 27.3439 19.4683C28.5839 19.1561 31.3427 18.8127 32.4586 19.9366L35.2484 22.746C36.9533 22.1217 40.642 20.9667 41.758 21.3413C43.1529 21.8095 54.3121 25.5556 55.707 25.0873C57.1019 24.619 61.2866 19 63.1465 19C65.0064 19 69.6561 21.8095 72.9109 25.0873C76.1656 28.3651 79.4204 30.7063 78.9555 32.1111C78.4905 33.5159 74.7707 39.1349 73.8408 39.6032C72.9109 40.0714 72.9109 42.4127 72.9109 45.6905C72.9109 48.9683 71.9809 49.9048 72.9109 51.3095C73.8408 52.7143 73.8408 58.8016 70.1211 57.8651C67.1453 57.1159 67.0213 57.8651 67.3312 58.3333C67.6412 60.0503 67.7962 63.4841 65.9363 63.4841C63.6115 63.4841 59.4268 63.4841 60.3567 63.9524C61.2866 64.4206 61.7516 70.0397 59.4268 70.0397C57.1019 70.0397 53.8472 70.0397 54.3121 70.9762C54.7771 71.9127 54.7771 76.127 52.9172 76.127C51.0573 76.127 48.2675 75.6587 47.3376 76.127C46.5936 76.5016 45.1677 77.5317 44.5478 78L40.3631 77.5317C39.4331 76.9074 37.8522 75.0968 38.9682 72.8492C39.2394 72.303 39.4794 71.8378 39.6897 71.4444C38.0543 72.0688 34.5045 72.7556 33.3885 70.5079C32.6206 68.9613 32.2755 67.5565 32.4306 66.2936C31.2 66.1376 28.5529 65.5444 27.8089 64.4206C27.189 63.4841 25.949 61.5071 26.2935 59.7381C24.9387 59.582 21.9503 58.9889 20.8344 57.8651C19.4395 56.4603 19.4395 52.246 21.7643 51.3095C23.6242 50.5603 23.1592 50.373 22.6943 50.373L21.7643 47.0952L21.7643 42.4127Z" fill="#AEC5AA"/>
<path fill-rule="evenodd" clip-rule="evenodd" d="M27.8319 14.0017C28.2093 13.9882 28.8562 14.0557 29.2471 14.1366C29.6244 14.2176 30.3118 14.4739 30.7566 14.7032C31.3091 14.973 32.0639 15.5935 34.6651 18.1295L35.6085 17.6844C36.1207 17.4415 36.9159 17.1313 37.3606 17.0099C37.8458 16.875 38.8971 16.7671 41.8083 16.6592L48.2775 18.3049C51.8356 19.2222 55.0972 20.045 55.5285 20.1394C56.1215 20.2878 56.4315 20.2878 56.8763 20.1799C57.348 20.0585 57.8332 19.6403 59.9357 17.5629C61.6878 15.8363 62.6447 14.9999 63.1434 14.7436C63.5208 14.5548 64.2216 14.2985 64.6933 14.1771C65.2594 14.0287 65.8255 13.9747 66.4724 14.0287C66.998 14.0692 67.7528 14.2176 68.1571 14.3794C68.5614 14.5278 69.2623 14.919 69.707 15.2428C70.1518 15.58 72.6991 18.0486 75.3811 20.7465C78.0632 23.4444 80.4083 25.9264 80.597 26.2637C80.7857 26.6009 81.0687 27.2349 81.2305 27.6801C81.3922 28.1657 81.5 28.8402 81.5 29.3662C81.5 29.8654 81.3922 30.6208 81.2439 31.1199C81.0957 31.6055 80.7857 32.3069 80.5431 32.6712C80.314 33.0489 79.074 34.4113 77.7936 35.7063C76.2437 37.2846 75.4216 38.2288 75.3138 38.5391C75.179 38.9168 75.1925 39.2271 75.3542 40.0904C75.462 40.6839 75.5968 41.6012 75.6507 42.1138C75.6911 42.6264 75.6642 43.6111 75.5833 44.2721C75.5024 44.9331 75.2598 46.0123 74.6938 47.8468L74.9768 48.1436C75.1385 48.319 75.4216 48.6967 75.6237 48.9934C75.8124 49.2902 75.9742 49.6544 75.9742 49.8028C75.9876 49.9512 75.8663 50.2345 75.7046 50.4503C75.5024 50.7201 75.3272 50.8145 74.9633 50.8145C74.5725 50.8145 74.4242 50.7201 74.1142 50.3154C73.9121 50.0321 69.1949 45.2434 53.5338 29.5281L52.9273 29.9733C52.5904 30.2296 51.8626 30.6343 51.31 30.8906C50.7574 31.1469 49.8814 31.4571 49.3558 31.592C48.7627 31.7404 47.8867 31.8213 46.9972 31.8213C46.1211 31.8213 45.2316 31.7404 44.6386 31.592C44.1129 31.4706 43.2099 31.1334 42.6169 30.8501C42.0239 30.5803 41.2961 30.1621 40.4605 29.5281L37.0911 32.8735C34.2068 35.7333 33.6004 36.2729 32.8456 36.6236C32.3469 36.8664 31.5922 37.0957 31.0935 37.1632C30.6083 37.2306 29.7862 37.2306 29.274 37.1632C28.6406 37.0957 28.0206 36.9069 27.3871 36.5966C26.7672 36.2998 26.1742 35.8547 25.689 35.3421C25.2442 34.8834 24.7455 34.1955 24.5029 33.6829C24.2738 33.1838 24.0312 32.4014 23.9638 31.8618C23.883 31.2548 23.883 30.5938 23.9638 30.0407C24.0447 29.5551 24.2603 28.7997 24.449 28.3545C24.759 27.6396 25.3116 27.0461 32.9939 19.3166L31.6326 17.9946C30.8374 17.2257 30.0153 16.5647 29.6379 16.3894C29.1527 16.1466 28.7619 16.0791 27.9263 16.0791C27.0906 16.0926 26.7133 16.16 26.2415 16.3894C25.8103 16.5917 24.0716 18.2509 20.2979 22.0415C15.0551 27.3158 14.9607 27.4238 14.7181 28.2196C14.5564 28.7592 14.498 29.2763 14.5429 29.7709C14.5834 30.1756 14.7451 30.8231 14.9203 31.1873C15.1494 31.6729 15.9446 32.5767 17.6967 34.3573C19.4084 36.084 20.2305 37.0418 20.4192 37.4599C20.5674 37.7972 20.7292 38.4042 20.7696 38.8089C20.81 39.254 20.7831 39.7397 20.6753 40.0229C20.5809 40.3062 20.3788 40.5355 20.1766 40.6165C19.9879 40.6839 19.6779 40.6974 19.4623 40.6434C19.2601 40.603 19.031 40.4276 18.9366 40.2657C18.8558 40.0904 18.7884 39.7397 18.8019 39.4834C18.8153 39.2271 18.7614 38.7954 18.6806 38.5391C18.5727 38.2153 17.8045 37.3385 16.2007 35.7063C14.9203 34.4113 13.6804 33.0489 13.4512 32.6712C13.2221 32.3069 12.8986 31.6055 12.7369 31.1199C12.5078 30.4184 12.4674 30.0272 12.5213 29.1639C12.5617 28.5569 12.71 27.761 12.8717 27.3428C13.0199 26.9381 13.4243 26.2367 13.7612 25.7915C14.0847 25.3464 16.5915 22.7699 19.3275 20.0585C22.7643 16.6322 24.4894 15.0134 24.9612 14.7706C25.3251 14.5683 25.972 14.312 26.3763 14.2041C26.7807 14.0962 27.4411 14.0017 27.8184 14.0017H27.8319ZM63.9925 16.5512C63.8038 16.6457 62.5369 17.8327 61.1622 19.1952C59.2753 21.0567 58.5071 21.7312 57.9949 21.947C57.5457 22.1449 57.029 22.2483 56.445 22.2573C55.7307 22.2708 54.3021 21.947 48.8301 20.5171L42.0913 18.777C38.5062 18.7905 38.2232 18.831 37.3067 19.1547C36.7541 19.357 35.9589 19.7213 35.5546 19.9506C35.0694 20.2474 33.3847 21.8121 30.6218 24.5775C26.7133 28.4624 26.4033 28.8132 26.1742 29.5011C26.0394 29.9058 25.9316 30.5803 25.9316 30.985C25.9316 31.3897 26.0259 32.0372 26.1472 32.4014C26.282 32.7791 26.6459 33.3726 26.9693 33.7503C27.3737 34.2225 27.8184 34.5462 28.4249 34.816C29.0853 35.1128 29.4897 35.2072 30.1635 35.2072C30.824 35.2072 31.2418 35.1128 31.8483 34.843C32.5491 34.5327 33.1556 33.9796 36.3228 30.8231C39.3958 27.761 40.0562 27.1675 40.3931 27.154C40.6537 27.145 40.9592 27.2889 41.3096 27.5856C41.5926 27.8284 42.1182 28.2331 42.4956 28.4759C42.8595 28.7187 43.5738 29.083 44.0725 29.2718C44.5847 29.4742 45.4338 29.69 45.9594 29.7439C46.4985 29.8114 47.415 29.8114 47.981 29.7439C48.5606 29.69 49.4366 29.4742 49.9353 29.2718C50.4474 29.083 51.1483 28.7187 51.5257 28.4759C51.8896 28.2331 52.4287 27.8284 52.7117 27.5856C53.0486 27.3024 53.3856 27.1405 53.6282 27.1405C53.9651 27.1405 55.3129 28.4355 63.5747 36.718L73.1438 46.2955C73.3595 45.4592 73.4808 44.7308 73.5751 44.1372C73.656 43.5437 73.683 42.6669 73.629 42.1812C73.5751 41.6956 73.4538 40.8863 73.346 40.3602C73.2247 39.7801 73.1843 39.1596 73.2247 38.7414C73.2786 38.3772 73.4404 37.7972 73.5886 37.4599C73.7773 37.0418 74.5994 36.0975 76.3111 34.3573C78.0632 32.5767 78.8584 31.6729 79.0875 31.1873C79.2627 30.8231 79.4244 30.1756 79.4649 29.7709C79.5098 29.2763 79.4514 28.7592 79.2897 28.2196C79.0471 27.4238 78.9527 27.3158 73.7099 22.0415C69.8149 18.1295 68.211 16.6052 67.7663 16.3894C67.4024 16.2275 66.8093 16.0926 66.2837 16.0656C65.785 16.0386 65.1785 16.0926 64.8686 16.187C64.572 16.2949 64.1812 16.4433 63.9925 16.5512ZM49.7736 36.3808C50.1375 36.3808 50.69 36.5022 50.9866 36.6236C51.2831 36.7585 51.6604 37.0552 51.8356 37.2711C51.9974 37.4869 52.1456 37.7972 52.1322 37.959C52.1322 38.1344 51.9839 38.4177 51.7952 38.6065C51.62 38.7954 51.3505 38.9438 51.1887 38.9438C51.0405 38.9438 50.6766 38.8089 50.3935 38.6335C49.9622 38.3907 49.787 38.3637 49.4905 38.4716C49.2614 38.5526 49.0458 38.7684 48.9649 38.9842C48.8571 39.308 48.884 39.4699 49.1266 39.9015C49.3018 40.1848 49.4366 40.549 49.4366 40.6974C49.4366 40.8458 49.2884 41.1156 49.0997 41.3044C48.911 41.5068 48.628 41.6417 48.3988 41.6417C48.1562 41.6282 47.8867 41.4798 47.6171 41.1965C47.4015 40.9537 47.1319 40.5086 47.0511 40.2253C46.9567 39.9285 46.8759 39.5103 46.8759 39.281C46.8759 39.0517 46.9567 38.647 47.0511 38.3502C47.1319 38.067 47.3745 37.6488 47.5632 37.406C47.7519 37.1767 48.1697 36.8529 48.5067 36.691C48.884 36.4887 49.3423 36.3808 49.7736 36.3808ZM19.4758 43.6651C19.6914 43.6651 19.9744 43.7865 20.1362 43.9619C20.3114 44.1372 20.5001 44.6228 20.5944 45.0815C20.6887 45.5266 20.9044 46.282 21.0931 46.7677C21.2683 47.2533 21.6996 48.1031 22.0365 48.6562C22.5621 49.506 24.6512 51.6778 35.4737 62.5099C46.1076 73.1666 48.4123 75.4058 48.9649 75.6621C49.4636 75.878 49.8949 75.9589 50.5822 75.9589C51.337 75.9589 51.6604 75.8914 52.1995 75.6217C52.5634 75.4193 53.1025 75.0011 53.3856 74.6774C53.6956 74.3132 53.9786 73.7871 54.1134 73.3419C54.2347 72.8833 54.3021 72.3437 54.2481 71.9255C54.2212 71.5478 54.046 70.9813 53.8843 70.644C53.6821 70.2259 52.0648 68.4992 48.5875 65.0054C43.9782 60.392 43.5738 59.9469 43.5873 59.5422C43.6008 59.2589 43.7221 59.0161 43.9647 58.8003C44.1534 58.6384 44.4499 58.5035 44.6116 58.5035C44.8407 58.5035 46.3502 59.9334 49.9757 63.5486C53.4664 67.0289 55.2185 68.6881 55.6364 68.8904C55.9733 69.0523 56.5394 69.2276 56.9167 69.2546C57.348 69.3086 57.8736 69.2411 58.3993 69.0928C59.0327 68.9039 59.3562 68.7016 59.8953 68.162C60.4344 67.6224 60.6366 67.2987 60.8253 66.6646C60.9735 66.1386 61.0409 65.6125 60.987 65.1808C60.96 64.8031 60.7848 64.2365 60.6231 63.8993C60.4209 63.4811 58.7901 61.741 55.3668 58.3012C51.903 54.8344 50.3666 53.2022 50.3261 52.9324C50.2588 52.6491 50.3261 52.4872 50.6496 52.1635C50.9731 51.8397 51.1348 51.7723 51.4178 51.8397C51.6874 51.8802 53.3182 53.418 56.782 56.8848C60.2188 60.3111 61.9574 61.9433 62.3752 62.1457C62.7121 62.3075 63.2782 62.4829 63.6556 62.5099C64.0869 62.5639 64.6125 62.4964 65.1381 62.348C65.7716 62.1592 66.095 61.9568 66.6341 61.4172C67.1732 60.8777 67.3754 60.5539 67.5641 59.9199C67.7123 59.3938 67.7797 58.8677 67.7258 58.4361C67.6989 58.0584 67.5237 57.4918 67.3619 57.1546C67.1598 56.7364 65.529 54.9963 62.1056 51.5564C58.6419 48.0896 57.1054 46.4574 57.065 46.1876C56.9976 45.9043 57.065 45.7425 57.3884 45.4187C57.7119 45.095 57.8736 45.0275 58.1567 45.095C58.4262 45.1354 60.057 46.6732 63.5208 50.14C66.9576 53.5664 68.6962 55.1986 69.114 55.4009C69.451 55.5628 70.017 55.7382 70.3944 55.7652C70.8257 55.8191 71.3648 55.7517 71.8769 55.6033C72.5778 55.4009 72.8069 55.2525 73.5617 54.4432C74.2895 53.6743 74.5186 53.5259 74.869 53.5124C75.2059 53.5124 75.3811 53.6068 75.5833 53.8766C75.745 54.0925 75.8663 54.3757 75.8663 54.5241C75.8663 54.6725 75.6911 55.0367 75.4755 55.3335C75.2598 55.6303 74.842 56.1024 74.532 56.3722C74.2221 56.6555 73.6829 57.0332 73.3191 57.2085C72.9686 57.3704 72.3756 57.5997 72.0117 57.6807C71.6343 57.7751 70.9739 57.829 69.734 57.7616L69.7609 58.571C69.7879 59.0161 69.707 59.7311 69.5857 60.1492C69.4779 60.5809 69.2488 61.1879 69.0871 61.4982C68.9388 61.8219 68.521 62.375 68.1706 62.7527C67.8202 63.1169 67.2271 63.589 66.8767 63.7914C66.5128 63.9937 65.8524 64.25 65.4077 64.3714C64.9629 64.4928 64.2351 64.5738 62.9817 64.5198L63.0221 65.3292C63.0491 65.7609 62.9952 66.4218 62.9008 66.7995C62.8199 67.1638 62.5908 67.7708 62.4021 68.1485C62.2135 68.5127 61.7552 69.1467 61.3778 69.5379C60.987 69.9561 60.3401 70.4282 59.8818 70.6575C59.4371 70.8734 58.7362 71.1162 58.3319 71.1971C57.9276 71.278 57.3076 71.3185 56.3102 71.2511V72.1279C56.3102 72.6135 56.2294 73.3015 56.135 73.6792C56.0272 74.0434 55.7711 74.6774 55.5555 75.0821C55.3398 75.4733 54.8546 76.0938 54.4907 76.4445C54.1134 76.7952 53.5608 77.2134 53.2373 77.3618C52.9273 77.5237 52.2939 77.753 51.8222 77.8744C51.2696 78.0228 50.717 78.0767 50.1779 78.0228C49.7331 77.9823 49.0592 77.8474 48.6954 77.7125C48.318 77.5911 47.7923 77.3483 47.5093 77.173C47.0511 76.8762 46.9972 76.8627 46.8354 77.0785C46.7546 77.1999 46.3098 77.5641 45.865 77.8879C45.3664 78.2656 44.706 78.5893 44.1129 78.7647C43.3717 78.9805 42.9539 79.0345 42.1587 78.9805C41.6061 78.9401 40.8783 78.7917 40.5414 78.6568C40.2044 78.5354 39.5979 78.2116 39.1936 77.9419C38.7758 77.6586 38.2097 77.119 37.8728 76.6469C37.5358 76.1747 37.1719 75.4733 37.0237 74.9607C36.8754 74.4616 36.7676 73.6927 36.7676 72.2628H35.8511C35.3255 72.2628 34.5842 72.1549 34.0721 72.0065C33.5869 71.8581 32.8456 71.4939 32.4143 71.1836C31.9965 70.8869 31.4035 70.2933 31.107 69.8617C30.797 69.4435 30.4331 68.7016 30.2848 68.2159C30.1366 67.7033 30.0288 66.9614 30.0288 65.518H29.1123C28.5867 65.518 27.8454 65.4101 27.3332 65.2617C26.848 65.1134 26.1068 64.7491 25.6755 64.4389C25.2577 64.1421 24.6647 63.5486 24.3681 63.1169C24.0582 62.6987 23.6943 61.9568 23.546 61.4712C23.3978 60.9586 23.2899 60.2167 23.2899 58.7733H22.3735C21.8478 58.7733 21.1066 58.6654 20.5944 58.517C20.1092 58.3686 19.3814 58.0044 18.9771 57.7211C18.5727 57.4378 17.9932 56.8713 17.6967 56.4666C17.4002 56.0619 17.0498 55.4279 16.915 55.0637C16.7667 54.686 16.632 53.9306 16.5915 53.3775C16.5376 52.6491 16.5781 52.1365 16.7398 51.5564C16.8746 51.1113 17.1306 50.4773 17.3328 50.14C17.5215 49.8028 18.0471 49.1553 19.314 47.8468L19.0175 46.9295C18.8558 46.4304 18.6536 45.756 18.5862 45.4187C18.5054 45.0815 18.4515 44.7038 18.4515 44.5689C18.4515 44.434 18.5997 44.1777 18.7749 44.0023C18.9636 43.8 19.2601 43.6651 19.4758 43.6651ZM18.9501 51.3811C18.7075 51.8397 18.6401 52.1904 18.6401 53.0403C18.6401 53.8901 18.7075 54.2408 18.9366 54.659C19.0984 54.9558 19.4218 55.4009 19.6779 55.6572C19.9205 55.9 20.3653 56.2238 20.6618 56.3857C20.9583 56.534 21.5648 56.6824 22.0096 56.7229C22.5756 56.7634 23.0204 56.7229 23.4921 56.561C23.856 56.4396 24.449 56.1024 24.7994 55.8326L25.4464 55.3335C22.1443 51.9881 20.9987 50.7336 20.7561 50.3694C20.5135 50.0186 20.2979 49.7354 20.2709 49.7354C20.244 49.7354 20.0014 49.9782 19.7318 50.2749C19.4623 50.5717 19.1119 51.0708 18.9501 51.3811ZM26.1742 57.3839C25.8776 57.8156 25.5542 58.4091 25.4598 58.7059C25.3385 59.0296 25.2981 59.5557 25.3385 60.0548C25.379 60.5 25.5138 61.08 25.6485 61.3363C25.7698 61.5926 26.1068 62.0378 26.3763 62.321C26.6459 62.6043 27.1041 62.9685 27.4006 63.1169C27.7376 63.2923 28.2902 63.4272 28.8832 63.4542C29.7323 63.5081 29.9075 63.4811 30.6353 63.1034C31.08 62.8741 31.6057 62.5504 31.8078 62.375L32.1852 62.0782L26.7267 56.588L26.1742 57.3839ZM32.9534 64.0072C32.6839 64.3579 32.3604 64.9515 32.2391 65.3292C32.0774 65.7878 32.0235 66.2465 32.0774 66.813C32.1043 67.2582 32.2526 67.8247 32.3739 68.0945C32.5087 68.3508 32.8321 68.796 33.1017 69.0793C33.3712 69.3625 33.843 69.7268 34.1395 69.8886C34.5573 70.118 34.9077 70.1719 35.7568 70.1719C36.5924 70.1719 36.9428 70.118 37.3741 69.8886C37.6706 69.7268 38.1289 69.43 38.3984 69.2142L38.8971 68.8365L33.4521 63.3597L32.9534 64.0072ZM39.7057 70.752C39.4227 71.1027 39.1127 71.6692 38.9914 72.0065C38.8701 72.3437 38.7758 72.9507 38.7758 73.3554C38.7893 73.8411 38.8971 74.3267 39.0992 74.7718C39.2745 75.136 39.6249 75.6486 39.8675 75.8914C40.1235 76.1478 40.5818 76.4715 40.8783 76.6334C41.2961 76.8627 41.6465 76.9301 42.4956 76.9301C43.4391 76.9301 43.6547 76.8762 44.2881 76.5255C44.679 76.2961 45.1372 75.9859 45.299 75.8105L45.5955 75.5003L40.2044 70.1045L39.7057 70.752ZM46.795 44.4879C47.1589 44.4879 47.3476 44.5824 47.5497 44.8657C47.7923 45.1759 47.8193 45.3513 47.7519 45.9448C47.7115 46.336 47.5363 46.943 47.3476 47.2938C47.1724 47.6445 46.8489 48.0896 46.6467 48.292C46.4311 48.4808 45.9998 48.7641 45.6898 48.926C45.3798 49.0879 44.8003 49.2497 44.4094 49.2902C43.8164 49.3577 43.6412 49.3307 43.3312 49.0879C43.0617 48.8855 42.9539 48.6832 42.9539 48.3729C42.9539 48.1301 43.0347 47.8198 43.1291 47.685C43.2369 47.5231 43.5738 47.3882 44.0321 47.3072C44.4499 47.2398 44.9216 47.0914 45.0833 46.9835C45.2451 46.8756 45.4742 46.5653 45.582 46.309C45.7033 46.0527 45.7842 45.6615 45.7842 45.4322C45.7842 45.2164 45.9055 44.9061 46.0537 44.7577C46.2289 44.5959 46.512 44.4879 46.795 44.4879ZM38.0345 48.4673C38.6545 48.5078 38.9779 48.6157 39.3823 48.9125C39.6788 49.1148 39.9888 49.4656 40.0562 49.6679C40.164 49.9512 40.1505 50.1265 39.9888 50.3963C39.8809 50.5987 39.6114 50.828 39.4092 50.8955C39.1127 51.0034 38.9375 50.9764 38.4388 50.6931C37.9536 50.4233 37.7784 50.3829 37.4684 50.4908C37.2663 50.5717 37.0506 50.7875 36.9698 51.0034C36.8485 51.3136 36.8889 51.4755 37.1585 51.9746C37.4415 52.4737 37.4819 52.6491 37.3606 52.9458C37.2932 53.1482 37.0641 53.4045 36.8619 53.5259C36.5924 53.6743 36.4172 53.7013 36.1342 53.5933C35.932 53.5259 35.595 53.2156 35.3794 52.9189C35.1503 52.5816 34.9751 52.1365 34.9212 51.7048C34.8807 51.3406 34.9077 50.774 34.9886 50.4638C35.0964 50.0861 35.3525 49.6814 35.7433 49.2767C36.0802 48.9395 36.552 48.6157 36.7946 48.5348C37.0372 48.4673 37.5897 48.4404 38.0345 48.4673Z" fill="black"/>
</svg>
