<svg width="180" height="121" viewBox="0 0 180 121" fill="none" xmlns="http://www.w3.org/2000/svg">
<rect width="180" height="121" rx="16" fill="#F7F0E0"/>
<g clip-path="url(#clip0_2101_3048)">
<path d="M38.7927 56.3347H40.8474V96.0144C40.8474 96.3544 40.9836 96.6804 41.226 96.9208C41.4684 97.1611 41.7972 97.2962 42.1401 97.2962H49.4337C49.7766 97.2962 50.1054 97.1611 50.3478 96.9208C50.5902 96.6804 50.7264 96.3544 50.7264 96.0144C50.7264 95.6745 50.5902 95.3485 50.3478 95.1081C50.1054 94.8677 49.7766 94.7327 49.4337 94.7327H43.4328V56.3347H132.631C132.974 56.3347 133.303 56.1997 133.545 55.9593C133.788 55.7189 133.924 55.3929 133.924 55.053C133.924 54.713 133.788 54.387 133.545 54.1466C133.303 53.9063 132.974 53.7712 132.631 53.7712H40.0854V49.1861H140.915V53.7712H138.86C138.517 53.7712 138.188 53.9063 137.946 54.1466C137.703 54.387 137.567 54.713 137.567 55.053V94.7327H131.566C131.223 94.7327 130.895 94.8677 130.652 95.1081C130.41 95.3485 130.274 95.6745 130.274 96.0144C130.274 96.3544 130.41 96.6804 130.652 96.9208C130.895 97.1611 131.223 97.2962 131.566 97.2962H138.86C139.203 97.2962 139.532 97.1611 139.774 96.9208C140.016 96.6804 140.153 96.3544 140.153 96.0144V56.3347H142.207C142.55 56.3347 142.879 56.1997 143.121 55.9593C143.364 55.7189 143.5 55.3929 143.5 55.053V47.9043C143.5 47.5643 143.364 47.2383 143.121 46.998C142.879 46.7576 142.55 46.6225 142.207 46.6225H115.267C115.271 46.5584 115.276 46.4979 115.276 46.4341V34.4917C115.275 32.722 114.645 31.0092 113.499 29.653C112.742 28.7585 112.328 27.6287 112.327 26.4614V21.3072C112.338 20.2266 111.935 19.1822 111.2 18.3846C110.465 17.587 109.452 17.0958 108.365 17.0101C107.785 16.97 107.203 17.0496 106.656 17.2437C106.109 17.4378 105.608 17.7424 105.185 18.138C104.763 18.5321 104.426 19.0075 104.195 19.5353C103.965 20.063 103.845 20.6318 103.844 21.2069V26.4602C103.844 27.6276 103.429 28.7575 102.672 29.6521C101.525 31.0082 100.896 32.721 100.895 34.4907V46.4332C100.895 46.4972 100.9 46.5591 100.904 46.6216H58.9375V46.4614C58.9346 44.4803 58.2191 42.5652 56.9198 41.0603C55.6204 39.5554 53.8224 38.5593 51.8488 38.2511V36.9113C51.8488 36.5714 51.7126 36.2453 51.4702 36.005C51.2277 35.7646 50.8989 35.6295 50.5561 35.6295C50.2133 35.6295 49.8845 35.7646 49.642 36.005C49.3996 36.2453 49.2634 36.5714 49.2634 36.9113V38.2511C47.2894 38.5592 45.491 39.5555 44.1915 41.0607C42.892 42.566 42.1766 44.4815 42.174 46.463V46.6232H38.7927C38.4498 46.6232 38.121 46.7582 37.8786 46.9986C37.6362 47.239 37.5 47.565 37.5 47.9049V55.0536C37.5002 55.3934 37.6364 55.7193 37.8788 55.9595C38.1213 56.1998 38.45 56.3347 38.7927 56.3347ZM103.481 46.4332V34.4917C103.482 33.3242 103.897 32.1941 104.654 31.2994C105.8 29.9434 106.43 28.2305 106.431 26.4608V21.2069C106.431 20.9912 106.474 20.7776 106.557 20.5783C106.64 20.3791 106.762 20.198 106.916 20.0455C107.07 19.8931 107.253 19.7721 107.454 19.6897C107.655 19.6072 107.87 19.5648 108.088 19.565C108.125 19.565 108.162 19.565 108.2 19.5685C108.629 19.6157 109.025 19.8201 109.311 20.1417C109.596 20.4633 109.75 20.8789 109.743 21.3072V26.4602C109.744 28.2299 110.374 29.9427 111.52 31.2988C112.277 32.1934 112.692 33.3233 112.692 34.4907V46.4332C112.692 46.4831 112.672 46.531 112.637 46.5663C112.601 46.6016 112.553 46.6215 112.502 46.6216H103.671C103.621 46.6215 103.573 46.6017 103.538 46.5666C103.502 46.5315 103.482 46.4839 103.481 46.4341V46.4332ZM44.7587 46.462C44.7587 44.9376 45.3695 43.4756 46.4566 42.3977C47.5437 41.3198 49.0181 40.7143 50.5555 40.7143C52.0928 40.7143 53.5673 41.3198 54.6543 42.3977C55.7414 43.4756 56.3522 44.9376 56.3522 46.462V46.6222H44.7587V46.462Z" fill="#D8B448"/>
<path d="M77.4863 97.2962H103.514C103.857 97.2962 104.186 97.1611 104.428 96.9208C104.671 96.6804 104.807 96.3544 104.807 96.0144C104.807 95.6745 104.671 95.3485 104.428 95.1081C104.186 94.8677 103.857 94.7327 103.514 94.7327H77.4863C77.1434 94.7327 76.8146 94.8677 76.5722 95.1081C76.3298 95.3485 76.1936 95.6745 76.1936 96.0144C76.1936 96.3544 76.3298 96.6804 76.5722 96.9208C76.8146 97.1611 77.1434 97.2962 77.4863 97.2962Z" fill="#D8B448"/>
<path d="M71.3651 63.5023H55.5549C54.181 63.5039 52.8638 64.0458 51.8922 65.0092C50.9207 65.9725 50.3742 67.2785 50.3726 68.6409V72.3734C50.3726 72.7133 50.5088 73.0393 50.7512 73.2797C50.9936 73.5201 51.3224 73.6551 51.6652 73.6551H59.9087V94.7327H59.2559C57.7658 94.7344 56.3373 95.322 55.2835 96.3666C54.2298 97.4113 53.6369 98.8276 53.635 100.305V101.718C53.635 102.058 53.7712 102.384 54.0136 102.625C54.256 102.865 54.5848 103 54.9276 103H71.9911C72.3339 103 72.6627 102.865 72.9051 102.625C73.1476 102.384 73.2837 102.058 73.2837 101.718V100.305C73.2818 98.8279 72.6891 97.4117 71.6356 96.3671C70.5822 95.3225 69.154 94.7347 67.6641 94.7327H67.0113V73.6551H75.2548C75.5976 73.6551 75.9264 73.5201 76.1688 73.2797C76.4113 73.0393 76.5474 72.7133 76.5474 72.3734V68.6409C76.5458 67.2785 75.9993 65.9725 75.0278 65.0092C74.0562 64.0458 72.739 63.5039 71.3651 63.5023ZM65.7186 97.2962H67.6641C68.469 97.2968 69.2408 97.6141 69.8099 98.1784C70.3791 98.7427 70.6991 99.508 70.6997 100.306V100.436H56.2216V100.305C56.2225 99.5074 56.5424 98.7426 57.1113 98.1785C57.6801 97.6144 58.4514 97.2971 59.2559 97.2962H61.2014C61.5442 97.2962 61.873 97.1611 62.1154 96.9208C62.3579 96.6804 62.494 96.3544 62.494 96.0144V73.6551H64.426V96.0144C64.426 96.1828 64.4594 96.3494 64.5244 96.5049C64.5893 96.6604 64.6845 96.8017 64.8046 96.9208C64.9246 97.0398 65.0671 97.1342 65.224 97.1986C65.3808 97.263 65.5489 97.2962 65.7186 97.2962ZM73.9621 71.0926H52.9579V68.6418C52.9587 67.9591 53.2326 67.3046 53.7194 66.8219C54.2063 66.3391 54.8664 66.0676 55.5549 66.0668H71.3651C72.0536 66.0676 72.7137 66.3391 73.2006 66.8219C73.6875 67.3046 73.9613 67.9591 73.9621 68.6418V71.0926Z" fill="#D8B448"/>
<path d="M127.365 101.718V100.305C127.363 98.8276 126.77 97.4113 125.717 96.3666C124.663 95.322 123.234 94.7344 121.744 94.7327H121.091V73.6551H129.335C129.678 73.6551 130.006 73.5201 130.249 73.2797C130.491 73.0393 130.628 72.7133 130.628 72.3734V68.6409C130.626 67.2785 130.08 65.9724 129.108 65.0091C128.136 64.0457 126.819 63.5038 125.445 63.5023H109.635C108.261 63.5038 106.944 64.0457 105.972 65.0091C105.001 65.9724 104.454 67.2785 104.453 68.6409V72.3734C104.453 72.7133 104.589 73.0393 104.831 73.2797C105.074 73.5201 105.402 73.6551 105.745 73.6551H113.989V94.7327H113.336C111.846 94.7345 110.417 95.3221 109.364 96.3667C108.31 97.4114 107.717 98.8277 107.715 100.305V101.718C107.715 102.058 107.852 102.384 108.094 102.625C108.336 102.865 108.665 103 109.008 103H126.071C126.241 103 126.41 102.967 126.566 102.903C126.723 102.838 126.866 102.744 126.986 102.625C127.106 102.506 127.202 102.365 127.267 102.209C127.332 102.053 127.365 101.887 127.365 101.718ZM107.038 68.6409C107.038 67.9582 107.312 67.3036 107.799 66.8209C108.286 66.3381 108.946 66.0666 109.635 66.0658H125.445C126.133 66.0666 126.793 66.3381 127.28 66.8209C127.767 67.3036 128.041 67.9582 128.042 68.6409V71.0916H107.038L107.038 68.6409ZM124.78 100.436H110.302V100.305C110.302 99.5071 110.622 98.7419 111.191 98.1776C111.76 97.6132 112.532 97.2959 113.337 97.2952H115.283C115.626 97.2952 115.954 97.1602 116.197 96.9198C116.439 96.6794 116.575 96.3534 116.575 96.0135V73.6551H118.507V96.0144C118.507 96.3544 118.643 96.6804 118.886 96.9208C119.128 97.1611 119.457 97.2962 119.8 97.2962H121.745C122.55 97.2968 123.322 97.6141 123.891 98.1784C124.46 98.7427 124.78 99.508 124.781 100.306L124.78 100.436Z" fill="#D8B448"/>
<path d="M124.096 41.2138V43.6623C124.096 44.0023 124.232 44.3283 124.475 44.5687C124.717 44.809 125.046 44.9441 125.389 44.9441C125.731 44.9441 126.06 44.809 126.303 44.5687C126.545 44.3283 126.681 44.0023 126.681 43.6623V41.2138C128.143 40.9165 129.457 40.1284 130.401 38.9824C131.345 37.8365 131.861 36.4029 131.863 34.9233V31.1421C131.863 30.8022 131.727 30.4761 131.484 30.2358C131.242 29.9954 130.913 29.8604 130.57 29.8604H120.207C119.864 29.8604 119.536 29.9954 119.293 30.2358C119.051 30.4761 118.915 30.8022 118.915 31.1421V34.9233C118.917 36.4028 119.433 37.8364 120.377 38.9824C121.321 40.1283 122.634 40.9164 124.096 41.2138ZM121.5 32.4242H129.278V34.9236C129.268 35.9402 128.854 36.912 128.126 37.6276C127.398 38.3432 126.414 38.7446 125.389 38.7446C124.363 38.7446 123.38 38.3432 122.651 37.6276C121.923 36.912 121.509 35.9402 121.5 34.9236V32.4242Z" fill="#D8B448"/>
</g>
<defs>
<clipPath id="clip0_2101_3048">
<rect width="106" height="86" fill="white" transform="translate(37.5 17)"/>
</clipPath>
</defs>
</svg>
