<svg width="72" height="72" viewBox="0 0 72 72" fill="none" xmlns="http://www.w3.org/2000/svg">
<rect width="72" height="72" fill="white"/>
<path d="M64.1377 52.6692V23.1641C64.1377 23.1641 55.9279 20.4315 50.1033 20.3081C44.5881 20.1912 41.1186 20.8127 36.2847 23.1641C27.0967 27.6336 25.6639 27.468 18.3885 26.6274L18.3532 26.6233C14.0676 26.1281 7.99997 23.1641 7.99997 23.1641V54.5006C7.99997 54.5006 17.2642 56.2464 23.9776 56.131C34.0199 55.9583 38.6787 49.3774 48.7228 49.4135C54.9119 49.4357 64.1377 52.6692 64.1377 52.6692Z" fill="#E8A263"/>
<path d="M64.1377 54.8833V25.7303C64.1377 25.3064 63.8748 24.9306 63.4723 24.7975C61.4034 24.1136 54.9333 22.1018 50.1033 21.9932C44.5881 21.8693 41.1186 22.5286 36.2847 25.0229C27.0966 29.7641 21.405 29.0665 18.3679 28.6942L18.3532 28.6924C15.378 28.3278 11.5441 26.7009 9.47755 25.7401C8.79773 25.424 7.99997 25.9177 7.99997 26.6674V57.4448C7.99997 57.9215 8.33183 58.3303 8.80065 58.4167C11.1905 58.8569 18.449 60.0951 23.9776 59.9942C34.0199 59.811 38.6787 52.83 48.7228 52.8683C53.4666 52.8864 59.9944 54.9057 62.7845 55.8479C63.4449 56.0709 64.1377 55.5803 64.1377 54.8833Z" stroke="#403C3B" stroke-width="0.863657"/>
<path d="M59.5 19.5001C59.5 19.5001 56.3598 17.8202 50.5351 17.6893C45.0199 17.5653 41.5504 18.2246 36.7166 20.719C27.5137 25.4678 23.5458 25.3868 18.7851 24.3885C15.819 23.7665 11.9163 22.2099 9.85284 21.337C9.18311 21.0537 8.43179 21.5443 8.43179 22.2715V25.6639" stroke="#403C3B" stroke-width="0.863657"/>
<path d="M11.8862 22.2096V18.6409C11.8862 17.9616 12.55 17.4763 13.2005 17.6721C15.2749 18.2965 19.3884 19.4573 22.466 19.8345C29.7721 20.73 30.9229 17.9153 40.6028 14.2349C48.5917 11.1975 52.4781 12.0653 53.9895 12.2773C58.8259 12.9559 61.859 14.2608 62.989 14.8197C63.305 14.9759 63.4897 15.3002 63.4897 15.6526V24.3685" stroke="#403C3B" stroke-width="0.863657"/>
<g clip-path="url(#clip0_1788_3281)">
<path d="M30.563 38.2156C30.563 38.2156 31.7231 38.2156 32.8931 38.2156M35.8889 48.8674L31.2287 44.2072C31.2287 44.2072 32.2273 44.2072 32.8931 44.2072C33.5588 44.2072 36.5546 44.2484 36.5546 41.2114C36.5546 38.1745 33.5588 38.2156 32.8931 38.2156M38.5518 38.2156C38.5518 38.2156 34.843 38.2156 32.8931 38.2156M30.563 41.2114H38.5518" stroke="black" stroke-width="1.33147"/>
</g>
<defs>
<clipPath id="clip0_1788_3281">
<rect width="7.98883" height="10.6518" fill="white" transform="translate(30.563 37.5498)"/>
</clipPath>
</defs>
</svg>
