<svg width="1035" height="107" viewBox="0 0 1035 107" fill="none" xmlns="http://www.w3.org/2000/svg">
<rect width="1035" height="106.276" rx="10.6276" fill="white"/>
<line x1="338.857" y1="25.0127" x2="338.857" y2="81.7059" stroke="#F5EEDD" stroke-width="0.885635"/>
<line x1="670.857" y1="25.0127" x2="670.857" y2="81.7059" stroke="#F5EEDD" stroke-width="0.885635"/>
<path d="M750.742 55.2914C757.077 55.2914 762.485 56.2955 762.485 60.3139C762.485 64.3306 757.111 65.3714 750.742 65.3714C744.408 65.3714 739 64.3672 739 60.3505C739 56.3321 744.374 55.2914 750.742 55.2914ZM750.742 35.835C755.055 35.835 758.513 39.3097 758.513 43.6489C758.513 47.9865 755.055 51.4645 750.742 51.4645C746.43 51.4645 742.972 47.9865 742.972 43.6489C742.972 39.3097 746.43 35.835 750.742 35.835Z" fill="#C7C1E3"/>
<path d="M752.415 54.8574C759 54.8574 764.623 55.9015 764.623 60.0793C764.623 64.2555 759.036 65.3376 752.415 65.3376C745.829 65.3376 740.206 64.2935 740.206 60.1174C740.206 55.9395 745.793 54.8574 752.415 54.8574ZM752.415 34.6287C756.899 34.6287 760.494 38.2413 760.494 42.7528C760.494 47.2626 756.899 50.8787 752.415 50.8787C747.931 50.8787 744.336 47.2626 744.336 42.7528C744.336 38.2413 747.931 34.6287 752.415 34.6287Z" stroke="#403C3B" stroke-width="1.5"/>
<path d="M772.366 55.2914C778.7 55.2914 784.108 56.2955 784.108 60.3139C784.108 64.3306 778.735 65.3714 772.366 65.3714C766.032 65.3714 760.624 64.3672 760.624 60.3505C760.624 56.3321 765.997 55.2914 772.366 55.2914ZM772.366 35.835C776.679 35.835 780.136 39.3097 780.136 43.6489C780.136 47.9865 776.679 51.4645 772.366 51.4645C768.053 51.4645 764.596 47.9865 764.596 43.6489C764.596 39.3097 768.053 35.835 772.366 35.835Z" fill="#C7C1E3"/>
<path d="M774.038 54.8574C780.624 54.8574 786.247 55.9015 786.247 60.0793C786.247 64.2555 780.66 65.3376 774.038 65.3376C767.453 65.3376 761.83 64.2935 761.83 60.1174C761.83 55.9395 767.417 54.8574 774.038 54.8574ZM774.038 34.6287C778.522 34.6287 782.117 38.2413 782.117 42.7528C782.117 47.2626 778.522 50.8787 774.038 50.8787C769.555 50.8787 765.96 47.2626 765.96 42.7528C765.96 38.2413 769.555 34.6287 774.038 34.6287Z" stroke="#403C3B" stroke-width="1.5"/>
<path d="M805.375 44.192C804.266 44.192 803.306 43.952 802.495 43.472C801.695 42.9813 801.076 42.304 800.639 41.44C800.202 40.5653 799.983 39.5573 799.983 38.416C799.983 37.264 800.202 36.256 800.639 35.392C801.076 34.5173 801.695 33.8347 802.495 33.344C803.306 32.8533 804.266 32.608 805.375 32.608C806.687 32.608 807.759 32.928 808.591 33.568C809.423 34.208 809.951 35.104 810.175 36.256H808.287C808.138 35.6053 807.818 35.088 807.327 34.704C806.836 34.32 806.18 34.128 805.359 34.128C804.239 34.128 803.354 34.512 802.703 35.28C802.052 36.0373 801.727 37.0827 801.727 38.416C801.727 39.7387 802.052 40.7787 802.703 41.536C803.354 42.2933 804.239 42.672 805.359 42.672C806.18 42.672 806.836 42.4907 807.327 42.128C807.818 41.7653 808.138 41.2693 808.287 40.64H810.175C809.951 41.7493 809.423 42.6187 808.591 43.248C807.759 43.8773 806.687 44.192 805.375 44.192ZM811.975 44V36.064H813.495L813.639 37.568C813.917 37.0453 814.301 36.6347 814.791 36.336C815.293 36.0267 815.895 35.872 816.599 35.872V37.648H816.135C815.666 37.648 815.245 37.728 814.871 37.888C814.509 38.0373 814.215 38.2987 813.991 38.672C813.778 39.0347 813.671 39.5413 813.671 40.192V44H811.975ZM821.547 44.192C820.768 44.192 820.075 44.0213 819.467 43.68C818.869 43.328 818.4 42.8427 818.059 42.224C817.717 41.6053 817.547 40.8853 817.547 40.064C817.547 39.232 817.712 38.5013 818.043 37.872C818.384 37.2427 818.853 36.752 819.451 36.4C820.059 36.048 820.763 35.872 821.563 35.872C822.341 35.872 823.019 36.048 823.595 36.4C824.171 36.7413 824.619 37.2 824.939 37.776C825.259 38.352 825.419 38.9867 825.419 39.68C825.419 39.7867 825.413 39.904 825.403 40.032C825.403 40.1493 825.397 40.2827 825.387 40.432H819.211C819.264 41.2 819.515 41.7867 819.963 42.192C820.421 42.5867 820.949 42.784 821.547 42.784C822.027 42.784 822.427 42.6773 822.747 42.464C823.077 42.24 823.323 41.9413 823.483 41.568H825.179C824.965 42.3147 824.539 42.9387 823.899 43.44C823.269 43.9413 822.485 44.192 821.547 44.192ZM821.547 37.264C820.981 37.264 820.48 37.4347 820.043 37.776C819.605 38.1067 819.339 38.608 819.243 39.28H823.723C823.691 38.6613 823.472 38.1707 823.067 37.808C822.661 37.4453 822.155 37.264 821.547 37.264ZM829.866 44.192C829.194 44.192 828.64 44.08 828.202 43.856C827.765 43.632 827.44 43.3387 827.226 42.976C827.013 42.6027 826.906 42.1973 826.906 41.76C826.906 40.992 827.205 40.384 827.802 39.936C828.4 39.488 829.253 39.264 830.362 39.264H832.442V39.12C832.442 38.5013 832.272 38.0373 831.93 37.728C831.6 37.4187 831.168 37.264 830.634 37.264C830.165 37.264 829.754 37.3813 829.402 37.616C829.061 37.84 828.853 38.176 828.778 38.624H827.082C827.136 38.048 827.328 37.5573 827.658 37.152C828 36.736 828.426 36.4213 828.938 36.208C829.461 35.984 830.032 35.872 830.65 35.872C831.76 35.872 832.618 36.1653 833.226 36.752C833.834 37.328 834.138 38.1173 834.138 39.12V44H832.666L832.522 42.64C832.298 43.0773 831.973 43.4453 831.546 43.744C831.12 44.0427 830.56 44.192 829.866 44.192ZM830.202 42.816C830.661 42.816 831.045 42.7093 831.354 42.496C831.674 42.272 831.92 41.9787 832.09 41.616C832.272 41.2533 832.384 40.8533 832.426 40.416H830.538C829.866 40.416 829.386 40.5333 829.098 40.768C828.821 41.0027 828.682 41.296 828.682 41.648C828.682 42.0107 828.816 42.2987 829.082 42.512C829.36 42.7147 829.733 42.816 830.202 42.816ZM839.288 44C838.509 44 837.89 43.8133 837.432 43.44C836.973 43.056 836.744 42.3787 836.744 41.408V37.488H835.384V36.064H836.744L836.952 34.048H838.44V36.064H840.68V37.488H838.44V41.408C838.44 41.8453 838.53 42.1493 838.712 42.32C838.904 42.48 839.229 42.56 839.688 42.56H840.6V44H839.288ZM845.937 44.192C845.159 44.192 844.465 44.0213 843.857 43.68C843.26 43.328 842.791 42.8427 842.449 42.224C842.108 41.6053 841.937 40.8853 841.937 40.064C841.937 39.232 842.103 38.5013 842.433 37.872C842.775 37.2427 843.244 36.752 843.841 36.4C844.449 36.048 845.153 35.872 845.953 35.872C846.732 35.872 847.409 36.048 847.985 36.4C848.561 36.7413 849.009 37.2 849.329 37.776C849.649 38.352 849.809 38.9867 849.809 39.68C849.809 39.7867 849.804 39.904 849.793 40.032C849.793 40.1493 849.788 40.2827 849.777 40.432H843.601C843.655 41.2 843.905 41.7867 844.353 42.192C844.812 42.5867 845.34 42.784 845.937 42.784C846.417 42.784 846.817 42.6773 847.137 42.464C847.468 42.24 847.713 41.9413 847.873 41.568H849.569C849.356 42.3147 848.929 42.9387 848.289 43.44C847.66 43.9413 846.876 44.192 845.937 44.192ZM845.937 37.264C845.372 37.264 844.871 37.4347 844.433 37.776C843.996 38.1067 843.729 38.608 843.633 39.28H848.113C848.081 38.6613 847.863 38.1707 847.457 37.808C847.052 37.4453 846.545 37.264 845.937 37.264ZM858.288 44.192C857.616 44.192 857.062 44.08 856.624 43.856C856.187 43.632 855.862 43.3387 855.648 42.976C855.435 42.6027 855.328 42.1973 855.328 41.76C855.328 40.992 855.627 40.384 856.224 39.936C856.822 39.488 857.675 39.264 858.784 39.264H860.864V39.12C860.864 38.5013 860.694 38.0373 860.352 37.728C860.022 37.4187 859.59 37.264 859.056 37.264C858.587 37.264 858.176 37.3813 857.824 37.616C857.483 37.84 857.275 38.176 857.2 38.624H855.504C855.558 38.048 855.75 37.5573 856.08 37.152C856.422 36.736 856.848 36.4213 857.36 36.208C857.883 35.984 858.454 35.872 859.072 35.872C860.182 35.872 861.04 36.1653 861.648 36.752C862.256 37.328 862.56 38.1173 862.56 39.12V44H861.088L860.944 42.64C860.72 43.0773 860.395 43.4453 859.968 43.744C859.542 44.0427 858.982 44.192 858.288 44.192ZM858.624 42.816C859.083 42.816 859.467 42.7093 859.776 42.496C860.096 42.272 860.342 41.9787 860.512 41.616C860.694 41.2533 860.806 40.8533 860.848 40.416H858.96C858.288 40.416 857.808 40.5333 857.52 40.768C857.243 41.0027 857.104 41.296 857.104 41.648C857.104 42.0107 857.238 42.2987 857.504 42.512C857.782 42.7147 858.155 42.816 858.624 42.816ZM864.538 44V36.064H866.042L866.186 37.184C866.442 36.7787 866.778 36.4587 867.194 36.224C867.62 35.9893 868.111 35.872 868.666 35.872C869.924 35.872 870.799 36.368 871.29 37.36C871.578 36.9013 871.962 36.5387 872.442 36.272C872.932 36.0053 873.46 35.872 874.026 35.872C875.018 35.872 875.796 36.1707 876.362 36.768C876.927 37.3653 877.21 38.256 877.21 39.44V44H875.514V39.616C875.514 38.08 874.927 37.312 873.754 37.312C873.156 37.312 872.666 37.536 872.282 37.984C871.908 38.432 871.722 39.072 871.722 39.904V44H870.026V39.616C870.026 38.08 869.434 37.312 868.25 37.312C867.663 37.312 867.178 37.536 866.794 37.984C866.42 38.432 866.234 39.072 866.234 39.904V44H864.538ZM883.658 44.192C883.039 44.192 882.49 44.0693 882.01 43.824C881.541 43.5787 881.167 43.232 880.89 42.784L880.714 44H879.194V32.48H880.89V37.296C881.146 36.9227 881.498 36.592 881.946 36.304C882.394 36.016 882.97 35.872 883.674 35.872C884.442 35.872 885.119 36.0533 885.706 36.416C886.293 36.7787 886.751 37.2747 887.082 37.904C887.423 38.5333 887.594 39.248 887.594 40.048C887.594 40.848 887.423 41.5627 887.082 42.192C886.751 42.8107 886.293 43.3013 885.706 43.664C885.119 44.016 884.437 44.192 883.658 44.192ZM883.37 42.72C884.095 42.72 884.693 42.4747 885.162 41.984C885.631 41.4827 885.866 40.832 885.866 40.032C885.866 39.5093 885.759 39.0453 885.546 38.64C885.333 38.2347 885.039 37.92 884.666 37.696C884.293 37.4613 883.861 37.344 883.37 37.344C882.645 37.344 882.047 37.5947 881.578 38.096C881.119 38.5973 880.89 39.2427 880.89 40.032C880.89 40.832 881.119 41.4827 881.578 41.984C882.047 42.4747 882.645 42.72 883.37 42.72ZM890.388 34.56C890.068 34.56 889.802 34.464 889.588 34.272C889.386 34.0693 889.284 33.8187 889.284 33.52C889.284 33.2213 889.386 32.976 889.588 32.784C889.802 32.5813 890.068 32.48 890.388 32.48C890.708 32.48 890.97 32.5813 891.172 32.784C891.386 32.976 891.492 33.2213 891.492 33.52C891.492 33.8187 891.386 34.0693 891.172 34.272C890.97 34.464 890.708 34.56 890.388 34.56ZM889.54 44V36.064H891.236V44H889.54ZM897.187 44.192C896.409 44.192 895.715 44.0213 895.107 43.68C894.51 43.328 894.041 42.8427 893.699 42.224C893.358 41.6053 893.187 40.8853 893.187 40.064C893.187 39.232 893.353 38.5013 893.683 37.872C894.025 37.2427 894.494 36.752 895.091 36.4C895.699 36.048 896.403 35.872 897.203 35.872C897.982 35.872 898.659 36.048 899.235 36.4C899.811 36.7413 900.259 37.2 900.579 37.776C900.899 38.352 901.059 38.9867 901.059 39.68C901.059 39.7867 901.054 39.904 901.043 40.032C901.043 40.1493 901.038 40.2827 901.027 40.432H894.851C894.905 41.2 895.155 41.7867 895.603 42.192C896.062 42.5867 896.59 42.784 897.187 42.784C897.667 42.784 898.067 42.6773 898.387 42.464C898.718 42.24 898.963 41.9413 899.123 41.568H900.819C900.606 42.3147 900.179 42.9387 899.539 43.44C898.91 43.9413 898.126 44.192 897.187 44.192ZM897.187 37.264C896.622 37.264 896.121 37.4347 895.683 37.776C895.246 38.1067 894.979 38.608 894.883 39.28H899.363C899.331 38.6613 899.113 38.1707 898.707 37.808C898.302 37.4453 897.795 37.264 897.187 37.264ZM902.819 44V36.064H904.323L904.451 37.456C904.696 36.9653 905.054 36.5813 905.523 36.304C906.003 36.016 906.552 35.872 907.171 35.872C908.131 35.872 908.883 36.1707 909.427 36.768C909.982 37.3653 910.259 38.256 910.259 39.44V44H908.579V39.616C908.579 38.08 907.95 37.312 906.691 37.312C906.062 37.312 905.539 37.536 905.123 37.984C904.718 38.432 904.515 39.072 904.515 39.904V44H902.819ZM916.017 44.192C915.238 44.192 914.539 44.016 913.921 43.664C913.313 43.312 912.833 42.8267 912.481 42.208C912.139 41.5787 911.969 40.8533 911.969 40.032C911.969 39.2107 912.139 38.4907 912.481 37.872C912.833 37.2427 913.313 36.752 913.921 36.4C914.539 36.048 915.238 35.872 916.017 35.872C916.998 35.872 917.819 36.128 918.481 36.64C919.153 37.152 919.585 37.8453 919.777 38.72H918.001C917.894 38.2827 917.659 37.9413 917.297 37.696C916.934 37.4507 916.507 37.328 916.017 37.328C915.601 37.328 915.217 37.4347 914.865 37.648C914.513 37.8507 914.23 38.1547 914.017 38.56C913.803 38.9547 913.697 39.4453 913.697 40.032C913.697 40.6187 913.803 41.1147 914.017 41.52C914.23 41.9147 914.513 42.2187 914.865 42.432C915.217 42.6453 915.601 42.752 916.017 42.752C916.507 42.752 916.934 42.6293 917.297 42.384C917.659 42.1387 917.894 41.792 918.001 41.344H919.777C919.595 42.1973 919.169 42.8853 918.497 43.408C917.825 43.9307 916.998 44.192 916.017 44.192ZM925.328 44.192C924.549 44.192 923.856 44.0213 923.248 43.68C922.651 43.328 922.181 42.8427 921.84 42.224C921.499 41.6053 921.328 40.8853 921.328 40.064C921.328 39.232 921.493 38.5013 921.824 37.872C922.165 37.2427 922.635 36.752 923.232 36.4C923.84 36.048 924.544 35.872 925.344 35.872C926.123 35.872 926.8 36.048 927.376 36.4C927.952 36.7413 928.4 37.2 928.72 37.776C929.04 38.352 929.2 38.9867 929.2 39.68C929.2 39.7867 929.195 39.904 929.184 40.032C929.184 40.1493 929.179 40.2827 929.168 40.432H922.992C923.045 41.2 923.296 41.7867 923.744 42.192C924.203 42.5867 924.731 42.784 925.328 42.784C925.808 42.784 926.208 42.6773 926.528 42.464C926.859 42.24 927.104 41.9413 927.264 41.568H928.96C928.747 42.3147 928.32 42.9387 927.68 43.44C927.051 43.9413 926.267 44.192 925.328 44.192ZM925.328 37.264C924.763 37.264 924.261 37.4347 923.824 37.776C923.387 38.1067 923.12 38.608 923.024 39.28H927.504C927.472 38.6613 927.253 38.1707 926.848 37.808C926.443 37.4453 925.936 37.264 925.328 37.264ZM803.007 66.192C802.335 66.192 801.78 66.08 801.343 65.856C800.906 65.632 800.58 65.3387 800.367 64.976C800.154 64.6027 800.047 64.1973 800.047 63.76C800.047 62.992 800.346 62.384 800.943 61.936C801.54 61.488 802.394 61.264 803.503 61.264H805.583V61.12C805.583 60.5013 805.412 60.0373 805.071 59.728C804.74 59.4187 804.308 59.264 803.775 59.264C803.306 59.264 802.895 59.3813 802.543 59.616C802.202 59.84 801.994 60.176 801.919 60.624H800.223C800.276 60.048 800.468 59.5573 800.799 59.152C801.14 58.736 801.567 58.4213 802.079 58.208C802.602 57.984 803.172 57.872 803.791 57.872C804.9 57.872 805.759 58.1653 806.367 58.752C806.975 59.328 807.279 60.1173 807.279 61.12V66H805.807L805.663 64.64C805.439 65.0773 805.114 65.4453 804.687 65.744C804.26 66.0427 803.7 66.192 803.007 66.192ZM803.343 64.816C803.802 64.816 804.186 64.7093 804.495 64.496C804.815 64.272 805.06 63.9787 805.231 63.616C805.412 63.2533 805.524 62.8533 805.567 62.416H803.679C803.007 62.416 802.527 62.5333 802.239 62.768C801.962 63.0027 801.823 63.296 801.823 63.648C801.823 64.0107 801.956 64.2987 802.223 64.512C802.5 64.7147 802.874 64.816 803.343 64.816ZM809.257 66V58.064H810.761L810.889 59.456C811.134 58.9653 811.491 58.5813 811.961 58.304C812.441 58.016 812.99 57.872 813.609 57.872C814.569 57.872 815.321 58.1707 815.865 58.768C816.419 59.3653 816.697 60.256 816.697 61.44V66H815.017V61.616C815.017 60.08 814.387 59.312 813.129 59.312C812.499 59.312 811.977 59.536 811.561 59.984C811.155 60.432 810.953 61.072 810.953 61.904V66H809.257ZM822.31 66.192C821.542 66.192 820.865 66.0107 820.278 65.648C819.691 65.2853 819.233 64.7893 818.902 64.16C818.571 63.5307 818.406 62.816 818.406 62.016C818.406 61.216 818.571 60.5067 818.902 59.888C819.233 59.2587 819.691 58.768 820.278 58.416C820.875 58.0533 821.558 57.872 822.326 57.872C822.955 57.872 823.505 57.9947 823.974 58.24C824.454 58.4853 824.827 58.832 825.094 59.28V54.48H826.79V66H825.27L825.094 64.768C824.838 65.1413 824.486 65.472 824.038 65.76C823.59 66.048 823.014 66.192 822.31 66.192ZM822.614 64.72C823.339 64.72 823.931 64.4693 824.39 63.968C824.859 63.4667 825.094 62.8213 825.094 62.032C825.094 61.232 824.859 60.5867 824.39 60.096C823.931 59.5947 823.339 59.344 822.614 59.344C821.889 59.344 821.291 59.5947 820.822 60.096C820.353 60.5867 820.118 61.232 820.118 62.032C820.118 62.5547 820.225 63.0187 820.438 63.424C820.651 63.8293 820.945 64.1493 821.318 64.384C821.702 64.608 822.134 64.72 822.614 64.72ZM836.576 66.192C835.808 66.192 835.13 66.0107 834.544 65.648C833.957 65.2853 833.498 64.7893 833.168 64.16C832.837 63.5307 832.672 62.816 832.672 62.016C832.672 61.216 832.837 60.5067 833.168 59.888C833.498 59.2587 833.957 58.768 834.544 58.416C835.141 58.0533 835.824 57.872 836.592 57.872C837.221 57.872 837.77 57.9947 838.24 58.24C838.72 58.4853 839.093 58.832 839.36 59.28V54.48H841.056V66H839.536L839.36 64.768C839.104 65.1413 838.752 65.472 838.304 65.76C837.856 66.048 837.28 66.192 836.576 66.192ZM836.88 64.72C837.605 64.72 838.197 64.4693 838.656 63.968C839.125 63.4667 839.36 62.8213 839.36 62.032C839.36 61.232 839.125 60.5867 838.656 60.096C838.197 59.5947 837.605 59.344 836.88 59.344C836.154 59.344 835.557 59.5947 835.088 60.096C834.618 60.5867 834.384 61.232 834.384 62.032C834.384 62.5547 834.49 63.0187 834.704 63.424C834.917 63.8293 835.21 64.1493 835.584 64.384C835.968 64.608 836.4 64.72 836.88 64.72ZM846.906 66.192C846.127 66.192 845.434 66.0213 844.826 65.68C844.229 65.328 843.759 64.8427 843.418 64.224C843.077 63.6053 842.906 62.8853 842.906 62.064C842.906 61.232 843.071 60.5013 843.402 59.872C843.743 59.2427 844.213 58.752 844.81 58.4C845.418 58.048 846.122 57.872 846.922 57.872C847.701 57.872 848.378 58.048 848.954 58.4C849.53 58.7413 849.978 59.2 850.298 59.776C850.618 60.352 850.778 60.9867 850.778 61.68C850.778 61.7867 850.773 61.904 850.762 62.032C850.762 62.1493 850.757 62.2827 850.746 62.432H844.57C844.623 63.2 844.874 63.7867 845.322 64.192C845.781 64.5867 846.309 64.784 846.906 64.784C847.386 64.784 847.786 64.6773 848.106 64.464C848.437 64.24 848.682 63.9413 848.842 63.568H850.538C850.325 64.3147 849.898 64.9387 849.258 65.44C848.629 65.9413 847.845 66.192 846.906 66.192ZM846.906 59.264C846.341 59.264 845.839 59.4347 845.402 59.776C844.965 60.1067 844.698 60.608 844.602 61.28H849.082C849.05 60.6613 848.831 60.1707 848.426 59.808C848.021 59.4453 847.514 59.264 846.906 59.264ZM852.538 66V58.064H854.042L854.186 59.184C854.442 58.7787 854.778 58.4587 855.194 58.224C855.62 57.9893 856.111 57.872 856.666 57.872C857.924 57.872 858.799 58.368 859.29 59.36C859.578 58.9013 859.962 58.5387 860.442 58.272C860.932 58.0053 861.46 57.872 862.026 57.872C863.018 57.872 863.796 58.1707 864.362 58.768C864.927 59.3653 865.21 60.256 865.21 61.44V66H863.514V61.616C863.514 60.08 862.927 59.312 861.754 59.312C861.156 59.312 860.666 59.536 860.282 59.984C859.908 60.432 859.722 61.072 859.722 61.904V66H858.026V61.616C858.026 60.08 857.434 59.312 856.25 59.312C855.663 59.312 855.178 59.536 854.794 59.984C854.42 60.432 854.234 61.072 854.234 61.904V66H852.538ZM869.882 66.192C869.21 66.192 868.655 66.08 868.218 65.856C867.781 65.632 867.455 65.3387 867.242 64.976C867.029 64.6027 866.922 64.1973 866.922 63.76C866.922 62.992 867.221 62.384 867.818 61.936C868.415 61.488 869.269 61.264 870.378 61.264H872.458V61.12C872.458 60.5013 872.287 60.0373 871.946 59.728C871.615 59.4187 871.183 59.264 870.65 59.264C870.181 59.264 869.77 59.3813 869.418 59.616C869.077 59.84 868.869 60.176 868.794 60.624H867.098C867.151 60.048 867.343 59.5573 867.674 59.152C868.015 58.736 868.442 58.4213 868.954 58.208C869.477 57.984 870.047 57.872 870.666 57.872C871.775 57.872 872.634 58.1653 873.242 58.752C873.85 59.328 874.154 60.1173 874.154 61.12V66H872.682L872.538 64.64C872.314 65.0773 871.989 65.4453 871.562 65.744C871.135 66.0427 870.575 66.192 869.882 66.192ZM870.218 64.816C870.677 64.816 871.061 64.7093 871.37 64.496C871.69 64.272 871.935 63.9787 872.106 63.616C872.287 63.2533 872.399 62.8533 872.442 62.416H870.554C869.882 62.416 869.402 62.5333 869.114 62.768C868.837 63.0027 868.698 63.296 868.698 63.648C868.698 64.0107 868.831 64.2987 869.098 64.512C869.375 64.7147 869.749 64.816 870.218 64.816ZM876.132 66V58.064H877.636L877.764 59.456C878.009 58.9653 878.366 58.5813 878.836 58.304C879.316 58.016 879.865 57.872 880.484 57.872C881.444 57.872 882.196 58.1707 882.74 58.768C883.294 59.3653 883.572 60.256 883.572 61.44V66H881.892V61.616C881.892 60.08 881.262 59.312 880.004 59.312C879.374 59.312 878.852 59.536 878.436 59.984C878.03 60.432 877.828 61.072 877.828 61.904V66H876.132ZM889.185 66.192C888.417 66.192 887.74 66.0107 887.153 65.648C886.566 65.2853 886.108 64.7893 885.777 64.16C885.446 63.5307 885.281 62.816 885.281 62.016C885.281 61.216 885.446 60.5067 885.777 59.888C886.108 59.2587 886.566 58.768 887.153 58.416C887.75 58.0533 888.433 57.872 889.201 57.872C889.83 57.872 890.38 57.9947 890.849 58.24C891.329 58.4853 891.702 58.832 891.969 59.28V54.48H893.665V66H892.145L891.969 64.768C891.713 65.1413 891.361 65.472 890.913 65.76C890.465 66.048 889.889 66.192 889.185 66.192ZM889.489 64.72C890.214 64.72 890.806 64.4693 891.265 63.968C891.734 63.4667 891.969 62.8213 891.969 62.032C891.969 61.232 891.734 60.5867 891.265 60.096C890.806 59.5947 890.214 59.344 889.489 59.344C888.764 59.344 888.166 59.5947 887.697 60.096C887.228 60.5867 886.993 61.232 886.993 62.032C886.993 62.5547 887.1 63.0187 887.313 63.424C887.526 63.8293 887.82 64.1493 888.193 64.384C888.577 64.608 889.009 64.72 889.489 64.72Z" fill="black"/>
<rect x="423.76" y="68.0623" width="14.7358" height="4.72281" rx="2.36141" fill="#97B0D7"/>
<path d="M452.837 48.3032C454.681 48.3032 456.199 49.8092 455.879 51.6245C454.038 62.0575 443.661 70.0482 431.136 70.0482C418.611 70.0482 408.234 62.0575 406.394 51.6245C406.074 49.8092 407.592 48.3032 409.435 48.3032C413.759 48.3032 421.858 48.3032 431.136 48.3032C440.414 48.3032 448.513 48.3032 452.837 48.3032Z" fill="#97B0D7"/>
<rect x="426.005" y="67.3359" width="15.1684" height="3.8422" rx="1.9211" stroke="#403C3B" stroke-width="1.5"/>
<path d="M458.146 44.9856C459.858 44.9856 461.113 46.3559 460.847 47.8621C458.84 59.2387 447.474 68.0824 433.598 68.0824C419.723 68.0824 408.357 59.2387 406.35 47.8621C406.084 46.3559 407.339 44.9856 409.051 44.9856H409.08H409.109H409.138H409.167H409.196H409.225H409.254H409.284H409.313H409.343H409.372H409.402H409.432H409.462H409.492H409.522H409.553H409.583H409.613H409.644H409.675H409.705H409.736H409.767H409.798H409.829H409.86H409.892H409.923H409.955H409.986H410.018H410.05H410.081H410.113H410.145H410.178H410.21H410.242H410.274H410.307H410.34H410.372H410.405H410.438H410.471H410.504H410.537H410.57H410.604H410.637H410.671H410.704H410.738H410.772H410.806H410.84H410.874H410.908H410.942H410.976H411.011H411.045H411.08H411.115H411.149H411.184H411.219H411.254H411.289H411.325H411.36H411.395H411.431H411.466H411.502H411.538H411.574H411.61H411.646H411.682H411.718H411.754H411.791H411.827H411.864H411.9H411.937H411.974H412.011H412.047H412.085H412.122H412.159H412.196H412.234H412.271H412.309H412.346H412.384H412.422H412.46H412.498H412.536H412.574H412.612H412.651H412.689H412.727H412.766H412.805H412.843H412.882H412.921H412.96H412.999H413.038H413.078H413.117H413.156H413.196H413.235H413.275H413.315H413.355H413.394H413.434H413.474H413.515H413.555H413.595H413.635H413.676H413.716H413.757H413.798H413.839H413.879H413.92H413.961H414.002H414.044H414.085H414.126H414.168H414.209H414.251H414.292H414.334H414.376H414.418H414.46H414.502H414.544H414.586H414.628H414.671H414.713H414.756H414.798H414.841H414.884H414.926H414.969H415.012H415.055H415.098H415.142H415.185H415.228H415.272H415.315H415.359H415.402H415.446H415.49H415.534H415.578H415.622H415.666H415.71H415.754H415.798H415.843H415.887H415.932H415.976H416.021H416.066H416.111H416.155H416.2H416.245H416.291H416.336H416.381H416.426H416.472H416.517H416.563H416.608H416.654H416.7H416.746H416.792H416.838H416.884H416.93H416.976H417.022H417.068H417.115H417.161H417.208H417.254H417.301H417.348H417.395H417.442H417.488H417.536H417.583H417.63H417.677H417.724H417.772H417.819H417.867H417.914H417.962H418.009H418.057H418.105H418.153H418.201H418.249H418.297H418.345H418.393H418.442H418.49H418.539H418.587H418.636H418.684H418.733H418.782H418.831H418.879H418.928H418.977H419.027H419.076H419.125H419.174H419.224H419.273H419.322H419.372H419.422H419.471H419.521H419.571H419.621H419.67H419.72H419.771H419.821H419.871H419.921H419.971H420.022H420.072H420.123H420.173H420.224H420.274H420.325H420.376H420.427H420.478H420.529H420.58H420.631H420.682H420.733H420.784H420.836H420.887H420.939H420.99H421.042H421.093H421.145H421.197H421.249H421.3H421.352H421.404H421.456H421.508H421.561H421.613H421.665H421.717H421.77H421.822H421.875H421.927H421.98H422.033H422.085H422.138H422.191H422.244H422.297H422.35H422.403H422.456H422.509H422.562H422.616H422.669H422.723H422.776H422.83H422.883H422.937H422.99H423.044H423.098H423.152H423.206H423.26H423.314H423.368H423.422H423.476H423.53H423.584H423.639H423.693H423.748H423.802H423.857H423.911H423.966H424.021H424.075H424.13H424.185H424.24H424.295H424.35H424.405H424.46H424.515H424.57H424.626H424.681H424.736H424.792H424.847H424.903H424.958H425.014H425.07H425.125H425.181H425.237H425.293H425.349H425.405H425.461H425.517H425.573H425.629H425.685H425.741H425.798H425.854H425.91H425.967H426.023H426.08H426.136H426.193H426.25H426.306H426.363H426.42H426.477H426.534H426.591H426.648H426.705H426.762H426.819H426.876H426.933H426.991H427.048H427.105H427.163H427.22H427.278H427.335H427.393H427.45H427.508H427.566H427.624H427.681H427.739H427.797H427.855H427.913H427.971H428.029H428.087H428.145H428.204H428.262H428.32H428.378H428.437H428.495H428.554H428.612H428.671H428.729H428.788H428.847H428.905H428.964H429.023H429.082H429.14H429.199H429.258H429.317H429.376H429.435H429.494H429.554H429.613H429.672H429.731H429.79H429.85H429.909H429.969H430.028H430.087H430.147H430.207H430.266H430.326H430.385H430.445H430.505H430.565H430.625H430.684H430.744H430.804H430.864H430.924H430.984H431.044H431.104H431.165H431.225H431.285H431.345H431.405H431.466H431.526H431.587H431.647H431.707H431.768H431.829H431.889H431.95H432.01H432.071H432.132H432.192H432.253H432.314H432.375H432.436H432.497H432.558H432.619H432.68H432.741H432.802H432.863H432.924H432.985H433.046H433.107H433.169H433.23H433.291H433.353H433.414H433.476H433.537H433.598H433.66H433.721H433.783H433.844H433.906H433.967H434.028H434.089H434.151H434.212H434.273H434.334H434.395H434.456H434.517H434.578H434.639H434.7H434.761H434.822H434.883H434.944H435.004H435.065H435.126H435.187H435.247H435.308H435.368H435.429H435.489H435.55H435.61H435.671H435.731H435.791H435.852H435.912H435.972H436.032H436.092H436.153H436.213H436.273H436.333H436.393H436.453H436.513H436.572H436.632H436.692H436.752H436.811H436.871H436.931H436.99H437.05H437.109H437.169H437.228H437.288H437.347H437.406H437.466H437.525H437.584H437.643H437.703H437.762H437.821H437.88H437.939H437.998H438.056H438.115H438.174H438.233H438.292H438.35H438.409H438.468H438.526H438.585H438.643H438.702H438.76H438.818H438.877H438.935H438.993H439.051H439.11H439.168H439.226H439.284H439.342H439.4H439.458H439.515H439.573H439.631H439.689H439.746H439.804H439.862H439.919H439.977H440.034H440.092H440.149H440.206H440.263H440.321H440.378H440.435H440.492H440.549H440.606H440.663H440.72H440.777H440.834H440.89H440.947H441.004H441.06H441.117H441.174H441.23H441.287H441.343H441.399H441.456H441.512H441.568H441.624H441.68H441.736H441.792H441.848H441.904H441.96H442.016H442.072H442.127H442.183H442.239H442.294H442.35H442.405H442.461H442.516H442.571H442.626H442.682L442.737 44.9856H442.792H442.847H442.902H442.957H443.012H443.067H443.122H443.176H443.231H443.286H443.34H443.395H443.449H443.504H443.558H443.612H443.667H443.721H443.775H443.829H443.883H443.937H443.991H444.045H444.099H444.153H444.206H444.26H444.314H444.367H444.421H444.474H444.528H444.581H444.634H444.688H444.741H444.794H444.847H444.9H444.953H445.006H445.059H445.112H445.164H445.217H445.27H445.322H445.375H445.427H445.479H445.532H445.584H445.636H445.688H445.741H445.793H445.845H445.897H445.948H446H446.052H446.104H446.155H446.207H446.258H446.31H446.361H446.413H446.464H446.515H446.566H446.617H446.668H446.719H446.77H446.821H446.872H446.923H446.973H447.024H447.074H447.125H447.175H447.226H447.276H447.326H447.376H447.426H447.476H447.526H447.576H447.626H447.676H447.726H447.775H447.825H447.874H447.924H447.973H448.023H448.072H448.121H448.17H448.219H448.268H448.317H448.366H448.415H448.464H448.513H448.561H448.61H448.658H448.707H448.755H448.803H448.852H448.9H448.948H448.996H449.044H449.092H449.14H449.187H449.235H449.283H449.33H449.378H449.425H449.473H449.52H449.567H449.614H449.661H449.708H449.755H449.802H449.849H449.896H449.942H449.989H450.036H450.082H450.128H450.175H450.221H450.267H450.313H450.359H450.405H450.451H450.497H450.543H450.589H450.634H450.68H450.725H450.771H450.816H450.861H450.906H450.951H450.996H451.041H451.086H451.131H451.176H451.221H451.265H451.31H451.354H451.399H451.443H451.487H451.531H451.575H451.619H451.663H451.707H451.751H451.795H451.838H451.882H451.925H451.969H452.012H452.055H452.099H452.142H452.185H452.228H452.271H452.313H452.356H452.399H452.441H452.484H452.526H452.569H452.611H452.653H452.695H452.737H452.779H452.821H452.863H452.905H452.946H452.988H453.029H453.071H453.112H453.153H453.194H453.236H453.277H453.317H453.358H453.399H453.44H453.48H453.521H453.561H453.602H453.642H453.682H453.722H453.763H453.802H453.842H453.882H453.922H453.962H454.001H454.041H454.08H454.119H454.159H454.198H454.237H454.276H454.315H454.353H454.392H454.431H454.469H454.508H454.546H454.585H454.623H454.661H454.699H454.737H454.775H454.813H454.851H454.888H454.926H454.963H455.001H455.038H455.075H455.112H455.149H455.186H455.223H455.26H455.297H455.333H455.37H455.406H455.443H455.479H455.515H455.551H455.587H455.623H455.659H455.695H455.73H455.766H455.802H455.837H455.872H455.907H455.943H455.978H456.013H456.047H456.082H456.117H456.152H456.186H456.22H456.255H456.289H456.323H456.357H456.391H456.425H456.459H456.493H456.526H456.56H456.593H456.626H456.66H456.693H456.726H456.759H456.792H456.825H456.857H456.89H456.922H456.955H456.987H457.019H457.051H457.084H457.115H457.147H457.179H457.211H457.242H457.274H457.305H457.337H457.368H457.399H457.43H457.461H457.492H457.522H457.553H457.584H457.614H457.644H457.675H457.705H457.735H457.765H457.795H457.824H457.854H457.884H457.913H457.943H457.972H458.001H458.03H458.059H458.088H458.117H458.146Z" stroke="#403C3B" stroke-width="1.5"/>
<mask id="path-13-inside-1_1_4891" fill="white">
<path fill-rule="evenodd" clip-rule="evenodd" d="M439.255 39.8616C439.844 37.2213 436.797 34.2935 432.447 33.3222C429.138 32.5833 426.029 33.1897 424.472 34.6848L417.932 33.2245C417.811 33.1607 417.681 33.1095 417.543 33.073L405.46 29.8738C404.447 29.6054 403.413 30.2337 403.184 31.2571L402.946 32.3261C402.717 33.3498 403.386 34.3583 404.418 34.5463L416.714 36.7866C416.876 36.8161 417.037 36.8235 417.194 36.8109L423.674 38.2579C424.447 40.2736 427.003 42.145 430.312 42.8839C434.661 43.8551 438.665 42.502 439.255 39.8616Z"/>
</mask>
<path d="M424.472 34.6848L424.145 36.1488L424.93 36.3241L425.51 35.767L424.472 34.6848ZM417.932 33.2245L417.233 34.5518L417.41 34.6449L417.605 34.6885L417.932 33.2245ZM417.543 33.073L417.927 31.6229L417.927 31.6229L417.543 33.073ZM405.46 29.8738L405.077 31.3239L405.077 31.3239L405.46 29.8738ZM403.184 31.2571L404.648 31.5841L403.184 31.2571ZM402.946 32.3261L401.482 31.9992L402.946 32.3261ZM404.418 34.5463L404.687 33.0706L404.687 33.0706L404.418 34.5463ZM416.714 36.7866L416.983 35.3109L416.983 35.3109L416.714 36.7866ZM417.194 36.8109L417.521 35.347L417.3 35.2976L417.074 35.3157L417.194 36.8109ZM423.674 38.2579L425.074 37.7204L424.786 36.9693L424.001 36.794L423.674 38.2579ZM432.12 34.7862C434.072 35.222 435.661 36.0842 436.664 37.0478C437.69 38.0334 437.928 38.9223 437.791 39.5347L440.719 40.1885C441.172 38.1606 440.18 36.2655 438.742 34.8842C437.281 33.481 435.172 32.3936 432.774 31.8583L432.12 34.7862ZM425.51 35.767C426.561 34.758 429.068 34.1046 432.12 34.7862L432.774 31.8583C429.208 31.062 425.497 31.6214 423.433 33.6026L425.51 35.767ZM424.798 33.2209L418.259 31.7606L417.605 34.6885L424.145 36.1488L424.798 33.2209ZM418.631 31.8973C418.411 31.7812 418.175 31.6886 417.927 31.6229L417.159 34.523C417.187 34.5303 417.211 34.5402 417.233 34.5518L418.631 31.8973ZM417.927 31.6229L405.844 28.4238L405.077 31.3239L417.159 34.523L417.927 31.6229ZM405.844 28.4238C404.008 27.9374 402.135 29.0758 401.721 30.9302L404.648 31.5841C404.691 31.3915 404.886 31.2734 405.077 31.3239L405.844 28.4238ZM401.721 30.9302L401.482 31.9992L404.41 32.653L404.648 31.5841L401.721 30.9302ZM401.482 31.9992C401.068 33.8541 402.279 35.6814 404.149 36.022L404.687 33.0706C404.492 33.0353 404.367 32.8456 404.41 32.653L401.482 31.9992ZM404.149 36.022L416.445 38.2623L416.983 35.3109L404.687 33.0706L404.149 36.022ZM416.445 38.2623C416.737 38.3154 417.028 38.329 417.314 38.3061L417.074 35.3157C417.046 35.318 417.016 35.3168 416.983 35.3109L416.445 38.2623ZM416.867 38.2749L423.347 39.7219L424.001 36.794L417.521 35.347L416.867 38.2749ZM430.639 41.4199C427.587 40.7384 425.596 39.0807 425.074 37.7204L422.273 38.7954C423.299 41.4665 426.419 43.5515 429.985 44.3478L430.639 41.4199ZM437.791 39.5347C437.654 40.1472 437.061 40.8506 435.713 41.3061C434.395 41.7514 432.591 41.8558 430.639 41.4199L429.985 44.3478C432.383 44.8832 434.755 44.7967 436.674 44.1482C438.562 43.5098 440.266 42.2165 440.719 40.1885L437.791 39.5347Z" fill="#403C3B" mask="url(#path-13-inside-1_1_4891)"/>
<path d="M478.05 43V31.8H480.05L483.842 39.256L487.618 31.8H489.618V43H487.922V34.728L484.498 41.4H483.186L479.746 34.744V43H478.05ZM494.518 43.192C493.846 43.192 493.291 43.08 492.854 42.856C492.416 42.632 492.091 42.3387 491.878 41.976C491.664 41.6027 491.558 41.1973 491.558 40.76C491.558 39.992 491.856 39.384 492.454 38.936C493.051 38.488 493.904 38.264 495.014 38.264H497.094V38.12C497.094 37.5013 496.923 37.0373 496.582 36.728C496.251 36.4187 495.819 36.264 495.286 36.264C494.816 36.264 494.406 36.3813 494.054 36.616C493.712 36.84 493.504 37.176 493.43 37.624H491.734C491.787 37.048 491.979 36.5573 492.31 36.152C492.651 35.736 493.078 35.4213 493.59 35.208C494.112 34.984 494.683 34.872 495.302 34.872C496.411 34.872 497.27 35.1653 497.878 35.752C498.486 36.328 498.79 37.1173 498.79 38.12V43H497.318L497.174 41.64C496.95 42.0773 496.624 42.4453 496.198 42.744C495.771 43.0427 495.211 43.192 494.518 43.192ZM494.854 41.816C495.312 41.816 495.696 41.7093 496.006 41.496C496.326 41.272 496.571 40.9787 496.742 40.616C496.923 40.2533 497.035 39.8533 497.078 39.416H495.19C494.518 39.416 494.038 39.5333 493.75 39.768C493.472 40.0027 493.334 40.296 493.334 40.648C493.334 41.0107 493.467 41.2987 493.734 41.512C494.011 41.7147 494.384 41.816 494.854 41.816ZM499.999 43L502.815 39.032L499.999 35.064H501.807L503.935 38.104L506.047 35.064H507.871L505.055 39.032L507.871 43H506.047L503.935 39.96L501.807 43H499.999ZM510.212 33.56C509.892 33.56 509.625 33.464 509.412 33.272C509.209 33.0693 509.108 32.8187 509.108 32.52C509.108 32.2213 509.209 31.976 509.412 31.784C509.625 31.5813 509.892 31.48 510.212 31.48C510.532 31.48 510.793 31.5813 510.996 31.784C511.209 31.976 511.316 32.2213 511.316 32.52C511.316 32.8187 511.209 33.0693 510.996 33.272C510.793 33.464 510.532 33.56 510.212 33.56ZM509.364 43V35.064H511.06V43H509.364ZM513.299 43V35.064H514.803L514.947 36.184C515.203 35.7787 515.539 35.4587 515.955 35.224C516.381 34.9893 516.872 34.872 517.427 34.872C518.685 34.872 519.56 35.368 520.051 36.36C520.339 35.9013 520.723 35.5387 521.203 35.272C521.693 35.0053 522.221 34.872 522.787 34.872C523.779 34.872 524.557 35.1707 525.123 35.768C525.688 36.3653 525.971 37.256 525.971 38.44V43H524.275V38.616C524.275 37.08 523.688 36.312 522.515 36.312C521.917 36.312 521.427 36.536 521.043 36.984C520.669 37.432 520.483 38.072 520.483 38.904V43H518.787V38.616C518.787 37.08 518.195 36.312 517.011 36.312C516.424 36.312 515.939 36.536 515.555 36.984C515.181 37.432 514.995 38.072 514.995 38.904V43H513.299ZM528.915 33.56C528.595 33.56 528.328 33.464 528.115 33.272C527.912 33.0693 527.811 32.8187 527.811 32.52C527.811 32.2213 527.912 31.976 528.115 31.784C528.328 31.5813 528.595 31.48 528.915 31.48C529.235 31.48 529.496 31.5813 529.699 31.784C529.912 31.976 530.019 32.2213 530.019 32.52C530.019 32.8187 529.912 33.0693 529.699 33.272C529.496 33.464 529.235 33.56 528.915 33.56ZM528.067 43V35.064H529.763V43H528.067ZM535.17 43.192C534.167 43.192 533.34 42.9467 532.69 42.456C532.039 41.9653 531.666 41.3147 531.57 40.504H533.282C533.367 40.8667 533.57 41.1813 533.89 41.448C534.21 41.704 534.631 41.832 535.154 41.832C535.666 41.832 536.039 41.7253 536.274 41.512C536.508 41.2987 536.626 41.0533 536.626 40.776C536.626 40.3707 536.46 40.0987 536.13 39.96C535.81 39.8107 535.362 39.6773 534.786 39.56C534.338 39.464 533.89 39.336 533.442 39.176C533.004 39.016 532.636 38.792 532.338 38.504C532.05 38.2053 531.906 37.8053 531.906 37.304C531.906 36.6107 532.172 36.0347 532.706 35.576C533.239 35.1067 533.986 34.872 534.946 34.872C535.831 34.872 536.546 35.0853 537.09 35.512C537.644 35.9387 537.97 36.5413 538.066 37.32H536.434C536.38 36.9787 536.22 36.712 535.954 36.52C535.698 36.328 535.351 36.232 534.914 36.232C534.487 36.232 534.156 36.3227 533.922 36.504C533.687 36.6747 533.57 36.8987 533.57 37.176C533.57 37.4533 533.73 37.672 534.05 37.832C534.38 37.992 534.812 38.136 535.346 38.264C535.879 38.3813 536.37 38.52 536.818 38.68C537.276 38.8293 537.644 39.0533 537.922 39.352C538.199 39.6507 538.338 40.088 538.338 40.664C538.348 41.3893 538.066 41.992 537.49 42.472C536.924 42.952 536.151 43.192 535.17 43.192ZM543.901 43.192C543.122 43.192 542.429 43.0213 541.821 42.68C541.224 42.328 540.754 41.8427 540.413 41.224C540.072 40.6053 539.901 39.8853 539.901 39.064C539.901 38.232 540.066 37.5013 540.397 36.872C540.738 36.2427 541.208 35.752 541.805 35.4C542.413 35.048 543.117 34.872 543.917 34.872C544.696 34.872 545.373 35.048 545.949 35.4C546.525 35.7413 546.973 36.2 547.293 36.776C547.613 37.352 547.773 37.9867 547.773 38.68C547.773 38.7867 547.768 38.904 547.757 39.032C547.757 39.1493 547.752 39.2827 547.741 39.432H541.565C541.618 40.2 541.869 40.7867 542.317 41.192C542.776 41.5867 543.304 41.784 543.901 41.784C544.381 41.784 544.781 41.6773 545.101 41.464C545.432 41.24 545.677 40.9413 545.837 40.568H547.533C547.32 41.3147 546.893 41.9387 546.253 42.44C545.624 42.9413 544.84 43.192 543.901 43.192ZM543.901 36.264C543.336 36.264 542.834 36.4347 542.397 36.776C541.96 37.1067 541.693 37.608 541.597 38.28H546.077C546.045 37.6613 545.826 37.1707 545.421 36.808C545.016 36.4453 544.509 36.264 543.901 36.264ZM556.732 43.192C555.729 43.192 554.903 42.9467 554.252 42.456C553.601 41.9653 553.228 41.3147 553.132 40.504H554.844C554.929 40.8667 555.132 41.1813 555.452 41.448C555.772 41.704 556.193 41.832 556.716 41.832C557.228 41.832 557.601 41.7253 557.836 41.512C558.071 41.2987 558.188 41.0533 558.188 40.776C558.188 40.3707 558.023 40.0987 557.692 39.96C557.372 39.8107 556.924 39.6773 556.348 39.56C555.9 39.464 555.452 39.336 555.004 39.176C554.567 39.016 554.199 38.792 553.9 38.504C553.612 38.2053 553.468 37.8053 553.468 37.304C553.468 36.6107 553.735 36.0347 554.268 35.576C554.801 35.1067 555.548 34.872 556.508 34.872C557.393 34.872 558.108 35.0853 558.652 35.512C559.207 35.9387 559.532 36.5413 559.628 37.32H557.996C557.943 36.9787 557.783 36.712 557.516 36.52C557.26 36.328 556.913 36.232 556.476 36.232C556.049 36.232 555.719 36.3227 555.484 36.504C555.249 36.6747 555.132 36.8987 555.132 37.176C555.132 37.4533 555.292 37.672 555.612 37.832C555.943 37.992 556.375 38.136 556.908 38.264C557.441 38.3813 557.932 38.52 558.38 38.68C558.839 38.8293 559.207 39.0533 559.484 39.352C559.761 39.6507 559.9 40.088 559.9 40.664C559.911 41.3893 559.628 41.992 559.052 42.472C558.487 42.952 557.713 43.192 556.732 43.192ZM564.783 43C564.004 43 563.385 42.8133 562.927 42.44C562.468 42.056 562.239 41.3787 562.239 40.408V36.488H560.879V35.064H562.239L562.447 33.048H563.935V35.064H566.175V36.488H563.935V40.408C563.935 40.8453 564.025 41.1493 564.207 41.32C564.399 41.48 564.724 41.56 565.183 41.56H566.095V43H564.783ZM570.612 43.192C569.94 43.192 569.385 43.08 568.948 42.856C568.51 42.632 568.185 42.3387 567.972 41.976C567.758 41.6027 567.652 41.1973 567.652 40.76C567.652 39.992 567.95 39.384 568.548 38.936C569.145 38.488 569.998 38.264 571.108 38.264H573.188V38.12C573.188 37.5013 573.017 37.0373 572.676 36.728C572.345 36.4187 571.913 36.264 571.38 36.264C570.91 36.264 570.5 36.3813 570.148 36.616C569.806 36.84 569.598 37.176 569.524 37.624H567.828C567.881 37.048 568.073 36.5573 568.404 36.152C568.745 35.736 569.172 35.4213 569.684 35.208C570.206 34.984 570.777 34.872 571.396 34.872C572.505 34.872 573.364 35.1653 573.972 35.752C574.58 36.328 574.884 37.1173 574.884 38.12V43H573.412L573.268 41.64C573.044 42.0773 572.718 42.4453 572.292 42.744C571.865 43.0427 571.305 43.192 570.612 43.192ZM570.948 41.816C571.406 41.816 571.79 41.7093 572.1 41.496C572.42 41.272 572.665 40.9787 572.836 40.616C573.017 40.2533 573.129 39.8533 573.172 39.416H571.284C570.612 39.416 570.132 39.5333 569.844 39.768C569.566 40.0027 569.428 40.296 569.428 40.648C569.428 41.0107 569.561 41.2987 569.828 41.512C570.105 41.7147 570.478 41.816 570.948 41.816ZM577.261 43V36.488H576.125V35.064H577.261V33.912C577.261 33.048 577.474 32.4293 577.901 32.056C578.338 31.672 578.952 31.48 579.741 31.48H580.573V32.92H579.997C579.624 32.92 579.357 33 579.197 33.16C579.037 33.3093 578.957 33.5653 578.957 33.928V35.064H580.781V36.488H578.957V43H577.261ZM582.792 43V36.488H581.656V35.064H582.792V33.912C582.792 33.048 583.006 32.4293 583.432 32.056C583.87 31.672 584.483 31.48 585.272 31.48H586.104V32.92H585.528C585.155 32.92 584.888 33 584.728 33.16C584.568 33.3093 584.488 33.5653 584.488 33.928V35.064H586.312V36.488H584.488V43H582.792ZM480.914 65.192C479.954 65.192 479.197 64.8933 478.642 64.296C478.098 63.6987 477.826 62.808 477.826 61.624V57.064H479.522V61.448C479.522 62.984 480.151 63.752 481.41 63.752C482.039 63.752 482.557 63.528 482.962 63.08C483.367 62.632 483.57 61.992 483.57 61.16V57.064H485.266V65H483.762L483.634 63.608C483.389 64.0987 483.026 64.488 482.546 64.776C482.077 65.0533 481.533 65.192 480.914 65.192ZM490.752 65C489.973 65 489.354 64.8133 488.896 64.44C488.437 64.056 488.208 63.3787 488.208 62.408V58.488H486.848V57.064H488.208L488.416 55.048H489.904V57.064H492.144V58.488H489.904V62.408C489.904 62.8453 489.994 63.1493 490.176 63.32C490.368 63.48 490.693 63.56 491.152 63.56H492.064V65H490.752ZM494.852 55.56C494.532 55.56 494.266 55.464 494.052 55.272C493.85 55.0693 493.748 54.8187 493.748 54.52C493.748 54.2213 493.85 53.976 494.052 53.784C494.266 53.5813 494.532 53.48 494.852 53.48C495.172 53.48 495.434 53.5813 495.636 53.784C495.85 53.976 495.956 54.2213 495.956 54.52C495.956 54.8187 495.85 55.0693 495.636 55.272C495.434 55.464 495.172 55.56 494.852 55.56ZM494.004 65V57.064H495.7V65H494.004ZM497.939 65V53.48H499.635V65H497.939ZM502.743 55.56C502.423 55.56 502.156 55.464 501.943 55.272C501.74 55.0693 501.639 54.8187 501.639 54.52C501.639 54.2213 501.74 53.976 501.943 53.784C502.156 53.5813 502.423 53.48 502.743 53.48C503.063 53.48 503.324 53.5813 503.527 53.784C503.74 53.976 503.847 54.2213 503.847 54.52C503.847 54.8187 503.74 55.0693 503.527 55.272C503.324 55.464 503.063 55.56 502.743 55.56ZM501.895 65V57.064H503.591V65H501.895ZM508.998 65.192C507.995 65.192 507.168 64.9467 506.518 64.456C505.867 63.9653 505.494 63.3147 505.398 62.504H507.11C507.195 62.8667 507.398 63.1813 507.718 63.448C508.038 63.704 508.459 63.832 508.982 63.832C509.494 63.832 509.867 63.7253 510.102 63.512C510.336 63.2987 510.454 63.0533 510.454 62.776C510.454 62.3707 510.288 62.0987 509.958 61.96C509.638 61.8107 509.19 61.6773 508.614 61.56C508.166 61.464 507.718 61.336 507.27 61.176C506.832 61.016 506.464 60.792 506.166 60.504C505.878 60.2053 505.734 59.8053 505.734 59.304C505.734 58.6107 506 58.0347 506.534 57.576C507.067 57.1067 507.814 56.872 508.774 56.872C509.659 56.872 510.374 57.0853 510.918 57.512C511.472 57.9387 511.798 58.5413 511.894 59.32H510.262C510.208 58.9787 510.048 58.712 509.782 58.52C509.526 58.328 509.179 58.232 508.742 58.232C508.315 58.232 507.984 58.3227 507.75 58.504C507.515 58.6747 507.398 58.8987 507.398 59.176C507.398 59.4533 507.558 59.672 507.878 59.832C508.208 59.992 508.64 60.136 509.174 60.264C509.707 60.3813 510.198 60.52 510.646 60.68C511.104 60.8293 511.472 61.0533 511.75 61.352C512.027 61.6507 512.166 62.088 512.166 62.664C512.176 63.3893 511.894 63.992 511.318 64.472C510.752 64.952 509.979 65.192 508.998 65.192ZM516.705 65.192C516.033 65.192 515.479 65.08 515.041 64.856C514.604 64.632 514.279 64.3387 514.065 63.976C513.852 63.6027 513.745 63.1973 513.745 62.76C513.745 61.992 514.044 61.384 514.641 60.936C515.239 60.488 516.092 60.264 517.201 60.264H519.281V60.12C519.281 59.5013 519.111 59.0373 518.769 58.728C518.439 58.4187 518.007 58.264 517.473 58.264C517.004 58.264 516.593 58.3813 516.241 58.616C515.9 58.84 515.692 59.176 515.617 59.624H513.921C513.975 59.048 514.167 58.5573 514.497 58.152C514.839 57.736 515.265 57.4213 515.777 57.208C516.3 56.984 516.871 56.872 517.489 56.872C518.599 56.872 519.457 57.1653 520.065 57.752C520.673 58.328 520.977 59.1173 520.977 60.12V65H519.505L519.361 63.64C519.137 64.0773 518.812 64.4453 518.385 64.744C517.959 65.0427 517.399 65.192 516.705 65.192ZM517.041 63.816C517.5 63.816 517.884 63.7093 518.193 63.496C518.513 63.272 518.759 62.9787 518.929 62.616C519.111 62.2533 519.223 61.8533 519.265 61.416H517.377C516.705 61.416 516.225 61.5333 515.937 61.768C515.66 62.0027 515.521 62.296 515.521 62.648C515.521 63.0107 515.655 63.2987 515.921 63.512C516.199 63.7147 516.572 63.816 517.041 63.816ZM526.127 65C525.348 65 524.729 64.8133 524.271 64.44C523.812 64.056 523.583 63.3787 523.583 62.408V58.488H522.223V57.064H523.583L523.791 55.048H525.279V57.064H527.519V58.488H525.279V62.408C525.279 62.8453 525.369 63.1493 525.551 63.32C525.743 63.48 526.068 63.56 526.527 63.56H527.439V65H526.127ZM530.227 55.56C529.907 55.56 529.641 55.464 529.427 55.272C529.225 55.0693 529.123 54.8187 529.123 54.52C529.123 54.2213 529.225 53.976 529.427 53.784C529.641 53.5813 529.907 53.48 530.227 53.48C530.547 53.48 530.809 53.5813 531.011 53.784C531.225 53.976 531.331 54.2213 531.331 54.52C531.331 54.8187 531.225 55.0693 531.011 55.272C530.809 55.464 530.547 55.56 530.227 55.56ZM529.379 65V57.064H531.075V65H529.379ZM537.026 65.192C536.269 65.192 535.586 65.0213 534.978 64.68C534.381 64.328 533.906 63.8427 533.554 63.224C533.202 62.5947 533.026 61.864 533.026 61.032C533.026 60.2 533.202 59.4747 533.554 58.856C533.917 58.2267 534.402 57.7413 535.01 57.4C535.618 57.048 536.295 56.872 537.042 56.872C537.799 56.872 538.477 57.048 539.074 57.4C539.682 57.7413 540.162 58.2267 540.514 58.856C540.877 59.4747 541.058 60.2 541.058 61.032C541.058 61.864 540.877 62.5947 540.514 63.224C540.162 63.8427 539.682 64.328 539.074 64.68C538.466 65.0213 537.783 65.192 537.026 65.192ZM537.026 63.736C537.431 63.736 537.805 63.6347 538.146 63.432C538.498 63.2293 538.781 62.9307 538.994 62.536C539.207 62.1307 539.314 61.6293 539.314 61.032C539.314 60.4347 539.207 59.9387 538.994 59.544C538.791 59.1387 538.514 58.8347 538.162 58.632C537.821 58.4293 537.447 58.328 537.042 58.328C536.637 58.328 536.258 58.4293 535.906 58.632C535.565 58.8347 535.287 59.1387 535.074 59.544C534.861 59.9387 534.754 60.4347 534.754 61.032C534.754 61.6293 534.861 62.1307 535.074 62.536C535.287 62.9307 535.565 63.2293 535.906 63.432C536.247 63.6347 536.621 63.736 537.026 63.736ZM542.892 65V57.064H544.396L544.524 58.456C544.77 57.9653 545.127 57.5813 545.596 57.304C546.076 57.016 546.626 56.872 547.244 56.872C548.204 56.872 548.956 57.1707 549.5 57.768C550.055 58.3653 550.332 59.256 550.332 60.44V65H548.652V60.616C548.652 59.08 548.023 58.312 546.764 58.312C546.135 58.312 545.612 58.536 545.196 58.984C544.791 59.432 544.588 60.072 544.588 60.904V65H542.892Z" fill="black"/>
<path d="M129.138 68.6692V39.1641C129.138 39.1641 120.928 36.4315 115.103 36.3081C109.588 36.1912 106.119 36.8127 101.285 39.1641C92.0967 43.6336 90.6639 43.468 83.3885 42.6274L83.3532 42.6233C79.0676 42.1281 73 39.1641 73 39.1641V70.5006C73 70.5006 82.2642 72.2464 88.9776 72.131C99.0199 71.9583 103.679 65.3774 113.723 65.4135C119.912 65.4357 129.138 68.6692 129.138 68.6692Z" fill="#E8A263"/>
<path d="M129.138 70.8833V41.7303C129.138 41.3064 128.875 40.9306 128.472 40.7975C126.403 40.1136 119.933 38.1018 115.103 37.9932C109.588 37.8693 106.119 38.5286 101.285 41.0229C92.0967 45.7641 86.405 45.0665 83.3679 44.6942L83.3533 44.6924C80.3781 44.3278 76.5441 42.7009 74.4776 41.7401C73.7978 41.424 73 41.9177 73 42.6674V73.4448C73 73.9215 73.3319 74.3303 73.8007 74.4167C76.1905 74.8569 83.4491 76.0951 88.9777 75.9942C99.02 75.811 103.679 68.83 113.723 68.8683C118.467 68.8864 124.994 70.9057 127.785 71.8479C128.445 72.0709 129.138 71.5803 129.138 70.8833Z" stroke="#403C3B" stroke-width="0.863657"/>
<path d="M124.5 35.5001C124.5 35.5001 121.36 33.8202 115.535 33.6893C110.02 33.5653 106.55 34.2246 101.717 36.719C92.5137 41.4678 88.5458 41.3868 83.7851 40.3885C80.819 39.7665 76.9163 38.2099 74.8528 37.337C74.1831 37.0537 73.4318 37.5443 73.4318 38.2715V41.6639" stroke="#403C3B" stroke-width="0.863657"/>
<path d="M76.8864 38.2096V34.6409C76.8864 33.9616 77.5502 33.4763 78.2007 33.6721C80.2751 34.2965 84.3885 35.4573 87.4662 35.8345C94.7723 36.73 95.9231 33.9153 105.603 30.2349C113.592 27.1975 117.478 28.0653 118.99 28.2773C123.826 28.9559 126.859 30.2608 127.989 30.8197C128.305 30.9759 128.49 31.3002 128.49 31.6526V40.3685" stroke="#403C3B" stroke-width="0.863657"/>
<g clip-path="url(#clip0_1_4891)">
<path d="M95.563 54.2156C95.563 54.2156 96.7232 54.2156 97.8931 54.2156M100.889 64.8674L96.2288 60.2072C96.2288 60.2072 97.2274 60.2072 97.8931 60.2072C98.5588 60.2072 101.555 60.2484 101.555 57.2114C101.555 54.1745 98.5588 54.2156 97.8931 54.2156M103.552 54.2156C103.552 54.2156 99.843 54.2156 97.8931 54.2156M95.563 57.2114H103.552" stroke="black" stroke-width="1.33147"/>
</g>
<path d="M158.274 44V32.8H159.97V44H158.274ZM162.178 44V36.064H163.682L163.81 37.456C164.056 36.9653 164.413 36.5813 164.882 36.304C165.362 36.016 165.912 35.872 166.53 35.872C167.49 35.872 168.242 36.1707 168.786 36.768C169.341 37.3653 169.618 38.256 169.618 39.44V44H167.938V39.616C167.938 38.08 167.309 37.312 166.05 37.312C165.421 37.312 164.898 37.536 164.482 37.984C164.077 38.432 163.874 39.072 163.874 39.904V44H162.178ZM172.016 44V37.488H170.88V36.064H172.016V34.912C172.016 34.048 172.229 33.4293 172.656 33.056C173.093 32.672 173.707 32.48 174.496 32.48H175.328V33.92H174.752C174.379 33.92 174.112 34 173.952 34.16C173.792 34.3093 173.712 34.5653 173.712 34.928V36.064H175.536V37.488H173.712V44H172.016ZM177.152 44V32.48H178.848V44H177.152ZM183.935 44.192C182.975 44.192 182.217 43.8933 181.663 43.296C181.119 42.6987 180.847 41.808 180.847 40.624V36.064H182.543V40.448C182.543 41.984 183.172 42.752 184.431 42.752C185.06 42.752 185.577 42.528 185.983 42.08C186.388 41.632 186.591 40.992 186.591 40.16V36.064H188.287V44H186.783L186.655 42.608C186.409 43.0987 186.047 43.488 185.567 43.776C185.097 44.0533 184.553 44.192 183.935 44.192ZM194.156 44.192C193.377 44.192 192.684 44.0213 192.076 43.68C191.479 43.328 191.009 42.8427 190.668 42.224C190.327 41.6053 190.156 40.8853 190.156 40.064C190.156 39.232 190.321 38.5013 190.652 37.872C190.993 37.2427 191.463 36.752 192.06 36.4C192.668 36.048 193.372 35.872 194.172 35.872C194.951 35.872 195.628 36.048 196.204 36.4C196.78 36.7413 197.228 37.2 197.548 37.776C197.868 38.352 198.028 38.9867 198.028 39.68C198.028 39.7867 198.023 39.904 198.012 40.032C198.012 40.1493 198.007 40.2827 197.996 40.432H191.82C191.873 41.2 192.124 41.7867 192.572 42.192C193.031 42.5867 193.559 42.784 194.156 42.784C194.636 42.784 195.036 42.6773 195.356 42.464C195.687 42.24 195.932 41.9413 196.092 41.568H197.788C197.575 42.3147 197.148 42.9387 196.508 43.44C195.879 43.9413 195.095 44.192 194.156 44.192ZM194.156 37.264C193.591 37.264 193.089 37.4347 192.652 37.776C192.215 38.1067 191.948 38.608 191.852 39.28H196.332C196.3 38.6613 196.081 38.1707 195.676 37.808C195.271 37.4453 194.764 37.264 194.156 37.264ZM199.788 44V36.064H201.292L201.42 37.456C201.665 36.9653 202.022 36.5813 202.492 36.304C202.972 36.016 203.521 35.872 204.14 35.872C205.1 35.872 205.852 36.1707 206.396 36.768C206.95 37.3653 207.228 38.256 207.228 39.44V44H205.548V39.616C205.548 38.08 204.918 37.312 203.66 37.312C203.03 37.312 202.508 37.536 202.092 37.984C201.686 38.432 201.484 39.072 201.484 39.904V44H199.788ZM212.985 44.192C212.207 44.192 211.508 44.016 210.889 43.664C210.281 43.312 209.801 42.8267 209.449 42.208C209.108 41.5787 208.937 40.8533 208.937 40.032C208.937 39.2107 209.108 38.4907 209.449 37.872C209.801 37.2427 210.281 36.752 210.889 36.4C211.508 36.048 212.207 35.872 212.985 35.872C213.967 35.872 214.788 36.128 215.449 36.64C216.121 37.152 216.553 37.8453 216.745 38.72H214.969C214.863 38.2827 214.628 37.9413 214.265 37.696C213.903 37.4507 213.476 37.328 212.985 37.328C212.569 37.328 212.185 37.4347 211.833 37.648C211.481 37.8507 211.199 38.1547 210.985 38.56C210.772 38.9547 210.665 39.4453 210.665 40.032C210.665 40.6187 210.772 41.1147 210.985 41.52C211.199 41.9147 211.481 42.2187 211.833 42.432C212.185 42.6453 212.569 42.752 212.985 42.752C213.476 42.752 213.903 42.6293 214.265 42.384C214.628 42.1387 214.863 41.792 214.969 41.344H216.745C216.564 42.1973 216.137 42.8853 215.465 43.408C214.793 43.9307 213.967 44.192 212.985 44.192ZM222.297 44.192C221.518 44.192 220.825 44.0213 220.217 43.68C219.619 43.328 219.15 42.8427 218.809 42.224C218.467 41.6053 218.297 40.8853 218.297 40.064C218.297 39.232 218.462 38.5013 218.793 37.872C219.134 37.2427 219.603 36.752 220.201 36.4C220.809 36.048 221.513 35.872 222.313 35.872C223.091 35.872 223.769 36.048 224.345 36.4C224.921 36.7413 225.369 37.2 225.689 37.776C226.009 38.352 226.169 38.9867 226.169 39.68C226.169 39.7867 226.163 39.904 226.153 40.032C226.153 40.1493 226.147 40.2827 226.137 40.432H219.961C220.014 41.2 220.265 41.7867 220.713 42.192C221.171 42.5867 221.699 42.784 222.297 42.784C222.777 42.784 223.177 42.6773 223.497 42.464C223.827 42.24 224.073 41.9413 224.233 41.568H225.929C225.715 42.3147 225.289 42.9387 224.649 43.44C224.019 43.9413 223.235 44.192 222.297 44.192ZM222.297 37.264C221.731 37.264 221.23 37.4347 220.793 37.776C220.355 38.1067 220.089 38.608 219.993 39.28H224.473C224.441 38.6613 224.222 38.1707 223.817 37.808C223.411 37.4453 222.905 37.264 222.297 37.264ZM158.21 66V54.48H159.906V59.344C160.172 58.8853 160.54 58.528 161.01 58.272C161.49 58.0053 162.018 57.872 162.594 57.872C163.543 57.872 164.29 58.1707 164.834 58.768C165.378 59.3653 165.65 60.256 165.65 61.44V66H163.97V61.616C163.97 60.08 163.356 59.312 162.13 59.312C161.49 59.312 160.956 59.536 160.53 59.984C160.114 60.432 159.906 61.072 159.906 61.904V66H158.21ZM168.607 56.56C168.287 56.56 168.021 56.464 167.807 56.272C167.605 56.0693 167.503 55.8187 167.503 55.52C167.503 55.2213 167.605 54.976 167.807 54.784C168.021 54.5813 168.287 54.48 168.607 54.48C168.927 54.48 169.189 54.5813 169.391 54.784C169.605 54.976 169.711 55.2213 169.711 55.52C169.711 55.8187 169.605 56.0693 169.391 56.272C169.189 56.464 168.927 56.56 168.607 56.56ZM167.759 66V58.064H169.455V66H167.759ZM174.942 63.568C174.526 63.568 174.142 63.52 173.79 63.424L173.102 64.096C173.219 64.1707 173.363 64.2347 173.534 64.288C173.705 64.3413 173.945 64.3893 174.254 64.432C174.563 64.4747 174.985 64.5173 175.518 64.56C176.574 64.656 177.337 64.912 177.806 65.328C178.275 65.7333 178.51 66.2773 178.51 66.96C178.51 67.4293 178.382 67.872 178.126 68.288C177.881 68.7147 177.491 69.056 176.958 69.312C176.435 69.5787 175.763 69.712 174.942 69.712C173.833 69.712 172.931 69.4987 172.238 69.072C171.555 68.656 171.214 68.0213 171.214 67.168C171.214 66.8373 171.299 66.5067 171.47 66.176C171.651 65.856 171.934 65.552 172.318 65.264C172.094 65.168 171.897 65.0667 171.726 64.96C171.566 64.8427 171.422 64.7253 171.294 64.608V64.224L172.67 62.816C172.051 62.2827 171.742 61.584 171.742 60.72C171.742 60.1973 171.865 59.7227 172.11 59.296C172.366 58.8587 172.734 58.512 173.214 58.256C173.694 58 174.27 57.872 174.942 57.872C175.39 57.872 175.806 57.936 176.19 58.064H179.15V59.184L177.742 59.264C177.998 59.7013 178.126 60.1867 178.126 60.72C178.126 61.2533 177.998 61.7333 177.742 62.16C177.497 62.5867 177.134 62.928 176.654 63.184C176.185 63.44 175.614 63.568 174.942 63.568ZM174.942 62.24C175.433 62.24 175.827 62.112 176.126 61.856C176.435 61.5893 176.59 61.216 176.59 60.736C176.59 60.2453 176.435 59.872 176.126 59.616C175.827 59.36 175.433 59.232 174.942 59.232C174.441 59.232 174.035 59.36 173.726 59.616C173.427 59.872 173.278 60.2453 173.278 60.736C173.278 61.216 173.427 61.5893 173.726 61.856C174.035 62.112 174.441 62.24 174.942 62.24ZM172.814 67.008C172.814 67.4667 173.017 67.808 173.422 68.032C173.827 68.2667 174.334 68.384 174.942 68.384C175.529 68.384 176.003 68.256 176.366 68C176.729 67.7547 176.91 67.424 176.91 67.008C176.91 66.6987 176.787 66.432 176.542 66.208C176.297 65.9947 175.833 65.8613 175.15 65.808C174.638 65.776 174.185 65.728 173.79 65.664C173.417 65.8667 173.161 66.0853 173.022 66.32C172.883 66.5547 172.814 66.784 172.814 67.008ZM180.663 66V54.48H182.359V59.344C182.625 58.8853 182.993 58.528 183.463 58.272C183.943 58.0053 184.471 57.872 185.047 57.872C185.996 57.872 186.743 58.1707 187.287 58.768C187.831 59.3653 188.103 60.256 188.103 61.44V66H186.423V61.616C186.423 60.08 185.809 59.312 184.583 59.312C183.943 59.312 183.409 59.536 182.983 59.984C182.567 60.432 182.359 61.072 182.359 61.904V66H180.663ZM193.812 66.192C193.034 66.192 192.34 66.0213 191.732 65.68C191.135 65.328 190.666 64.8427 190.324 64.224C189.983 63.6053 189.812 62.8853 189.812 62.064C189.812 61.232 189.978 60.5013 190.308 59.872C190.65 59.2427 191.119 58.752 191.716 58.4C192.324 58.048 193.028 57.872 193.828 57.872C194.607 57.872 195.284 58.048 195.86 58.4C196.436 58.7413 196.884 59.2 197.204 59.776C197.524 60.352 197.684 60.9867 197.684 61.68C197.684 61.7867 197.679 61.904 197.668 62.032C197.668 62.1493 197.663 62.2827 197.652 62.432H191.476C191.53 63.2 191.78 63.7867 192.228 64.192C192.687 64.5867 193.215 64.784 193.812 64.784C194.292 64.784 194.692 64.6773 195.012 64.464C195.343 64.24 195.588 63.9413 195.748 63.568H197.444C197.231 64.3147 196.804 64.9387 196.164 65.44C195.535 65.9413 194.751 66.192 193.812 66.192ZM193.812 59.264C193.247 59.264 192.746 59.4347 192.308 59.776C191.871 60.1067 191.604 60.608 191.508 61.28H195.988C195.956 60.6613 195.738 60.1707 195.332 59.808C194.927 59.4453 194.42 59.264 193.812 59.264ZM199.444 66V58.064H200.964L201.108 59.568C201.385 59.0453 201.769 58.6347 202.26 58.336C202.761 58.0267 203.364 57.872 204.068 57.872V59.648H203.604C203.135 59.648 202.713 59.728 202.34 59.888C201.977 60.0373 201.684 60.2987 201.46 60.672C201.247 61.0347 201.14 61.5413 201.14 62.192V66H199.444ZM212.721 66.192C211.719 66.192 210.892 65.9467 210.241 65.456C209.591 64.9653 209.217 64.3147 209.121 63.504H210.833C210.919 63.8667 211.121 64.1813 211.441 64.448C211.761 64.704 212.183 64.832 212.705 64.832C213.217 64.832 213.591 64.7253 213.825 64.512C214.06 64.2987 214.177 64.0533 214.177 63.776C214.177 63.3707 214.012 63.0987 213.681 62.96C213.361 62.8107 212.913 62.6773 212.337 62.56C211.889 62.464 211.441 62.336 210.993 62.176C210.556 62.016 210.188 61.792 209.889 61.504C209.601 61.2053 209.457 60.8053 209.457 60.304C209.457 59.6107 209.724 59.0347 210.257 58.576C210.791 58.1067 211.537 57.872 212.497 57.872C213.383 57.872 214.097 58.0853 214.641 58.512C215.196 58.9387 215.521 59.5413 215.617 60.32H213.985C213.932 59.9787 213.772 59.712 213.505 59.52C213.249 59.328 212.903 59.232 212.465 59.232C212.039 59.232 211.708 59.3227 211.473 59.504C211.239 59.6747 211.121 59.8987 211.121 60.176C211.121 60.4533 211.281 60.672 211.601 60.832C211.932 60.992 212.364 61.136 212.897 61.264C213.431 61.3813 213.921 61.52 214.369 61.68C214.828 61.8293 215.196 62.0533 215.473 62.352C215.751 62.6507 215.889 63.088 215.889 63.664C215.9 64.3893 215.617 64.992 215.041 65.472C214.476 65.952 213.703 66.192 212.721 66.192ZM217.741 69.52V58.064H219.261L219.437 59.296C219.693 58.9227 220.045 58.592 220.493 58.304C220.941 58.016 221.517 57.872 222.221 57.872C222.989 57.872 223.666 58.0533 224.253 58.416C224.84 58.7787 225.298 59.2747 225.629 59.904C225.97 60.5333 226.141 61.248 226.141 62.048C226.141 62.848 225.97 63.5627 225.629 64.192C225.298 64.8107 224.84 65.3013 224.253 65.664C223.666 66.016 222.984 66.192 222.205 66.192C221.586 66.192 221.037 66.0693 220.557 65.824C220.088 65.5787 219.714 65.232 219.437 64.784V69.52H217.741ZM221.917 64.72C222.642 64.72 223.24 64.4747 223.709 63.984C224.178 63.4827 224.413 62.832 224.413 62.032C224.413 61.5093 224.306 61.0453 224.093 60.64C223.88 60.2347 223.586 59.92 223.213 59.696C222.84 59.4613 222.408 59.344 221.917 59.344C221.192 59.344 220.594 59.5947 220.125 60.096C219.666 60.5973 219.437 61.2427 219.437 62.032C219.437 62.832 219.666 63.4827 220.125 63.984C220.594 64.4747 221.192 64.72 221.917 64.72ZM231.687 66.192C230.909 66.192 230.215 66.0213 229.607 65.68C229.01 65.328 228.541 64.8427 228.199 64.224C227.858 63.6053 227.687 62.8853 227.687 62.064C227.687 61.232 227.853 60.5013 228.183 59.872C228.525 59.2427 228.994 58.752 229.591 58.4C230.199 58.048 230.903 57.872 231.703 57.872C232.482 57.872 233.159 58.048 233.735 58.4C234.311 58.7413 234.759 59.2 235.079 59.776C235.399 60.352 235.559 60.9867 235.559 61.68C235.559 61.7867 235.554 61.904 235.543 62.032C235.543 62.1493 235.538 62.2827 235.527 62.432H229.351C229.405 63.2 229.655 63.7867 230.103 64.192C230.562 64.5867 231.09 64.784 231.687 64.784C232.167 64.784 232.567 64.6773 232.887 64.464C233.218 64.24 233.463 63.9413 233.623 63.568H235.319C235.106 64.3147 234.679 64.9387 234.039 65.44C233.41 65.9413 232.626 66.192 231.687 66.192ZM231.687 59.264C231.122 59.264 230.621 59.4347 230.183 59.776C229.746 60.1067 229.479 60.608 229.383 61.28H233.863C233.831 60.6613 233.613 60.1707 233.207 59.808C232.802 59.4453 232.295 59.264 231.687 59.264ZM237.319 66V58.064H238.823L238.951 59.456C239.196 58.9653 239.554 58.5813 240.023 58.304C240.503 58.016 241.052 57.872 241.671 57.872C242.631 57.872 243.383 58.1707 243.927 58.768C244.482 59.3653 244.759 60.256 244.759 61.44V66H243.079V61.616C243.079 60.08 242.45 59.312 241.191 59.312C240.562 59.312 240.039 59.536 239.623 59.984C239.218 60.432 239.015 61.072 239.015 61.904V66H237.319ZM250.373 66.192C249.605 66.192 248.927 66.0107 248.341 65.648C247.754 65.2853 247.295 64.7893 246.965 64.16C246.634 63.5307 246.469 62.816 246.469 62.016C246.469 61.216 246.634 60.5067 246.965 59.888C247.295 59.2587 247.754 58.768 248.341 58.416C248.938 58.0533 249.621 57.872 250.389 57.872C251.018 57.872 251.567 57.9947 252.037 58.24C252.517 58.4853 252.89 58.832 253.157 59.28V54.48H254.853V66H253.333L253.157 64.768C252.901 65.1413 252.549 65.472 252.101 65.76C251.653 66.048 251.077 66.192 250.373 66.192ZM250.677 64.72C251.402 64.72 251.994 64.4693 252.453 63.968C252.922 63.4667 253.157 62.8213 253.157 62.032C253.157 61.232 252.922 60.5867 252.453 60.096C251.994 59.5947 251.402 59.344 250.677 59.344C249.951 59.344 249.354 59.5947 248.885 60.096C248.415 60.5867 248.181 61.232 248.181 62.032C248.181 62.5547 248.287 63.0187 248.501 63.424C248.714 63.8293 249.007 64.1493 249.381 64.384C249.765 64.608 250.197 64.72 250.677 64.72Z" fill="black"/>
<defs>
<clipPath id="clip0_1_4891">
<rect width="7.98883" height="10.6518" fill="white" transform="translate(95.563 53.5498)"/>
</clipPath>
</defs>
</svg>
