<svg width="559" height="340" viewBox="0 0 559 340" fill="none" xmlns="http://www.w3.org/2000/svg">
<g clip-path="url(#clip0_1784_27169)">
<line x1="35.2613" y1="0.682222" x2="35.0648" y2="302.255" stroke="#68655E" stroke-width="0.661329"/>
<line x1="35.25" y1="301.669" x2="555.25" y2="301.669" stroke="#68655E" stroke-width="0.661329"/>
<path d="M14.25 62.1086H6.57859L6.92248 63.6032H5.89081L4.9914 61.5531V60.6537H14.25V62.1086ZM14.4087 54.5401C14.4087 55.3778 14.2103 56.1008 13.8135 56.7093C13.4079 57.3089 12.848 57.7718 12.1337 58.0981C11.4107 58.4155 10.573 58.5742 9.6207 58.5742C8.66839 58.5742 7.83511 58.4155 7.12088 58.0981C6.39783 57.7718 5.8379 57.3089 5.4411 56.7093C5.03549 56.1008 4.83268 55.3778 4.83268 54.5401C4.83268 53.7024 5.03549 52.9838 5.4411 52.3842C5.8379 51.7846 6.39783 51.3261 7.12088 51.0086C7.83511 50.6824 8.66839 50.5192 9.6207 50.5192C10.573 50.5192 11.4107 50.6824 12.1337 51.0086C12.848 51.3261 13.4079 51.7846 13.8135 52.3842C14.2103 52.9838 14.4087 53.7024 14.4087 54.5401ZM13.1522 54.5401C13.1522 54.0375 13.0111 53.5922 12.7289 53.2042C12.4468 52.8074 12.0412 52.4988 11.5121 52.2784C10.983 52.0579 10.3526 51.9477 9.6207 51.9477C8.88883 51.9477 8.25836 52.0579 7.7293 52.2784C7.20024 52.4988 6.79462 52.8074 6.51246 53.2042C6.23029 53.5922 6.08921 54.0375 6.08921 54.5401C6.08921 55.0515 6.23029 55.5012 6.51246 55.8892C6.79462 56.2772 7.20024 56.5814 7.7293 56.8019C8.25836 57.0223 8.88883 57.1325 9.6207 57.1325C10.3526 57.1325 10.983 57.0223 11.5121 56.8019C12.0412 56.5814 12.4468 56.2772 12.7289 55.8892C13.0111 55.5012 13.1522 55.0515 13.1522 54.5401ZM14.4087 44.724C14.4087 45.5617 14.2103 46.2848 13.8135 46.8932C13.4079 47.4928 12.848 47.9557 12.1337 48.282C11.4107 48.5994 10.573 48.7581 9.6207 48.7581C8.66839 48.7581 7.83511 48.5994 7.12088 48.282C6.39783 47.9557 5.8379 47.4928 5.4411 46.8932C5.03549 46.2848 4.83268 45.5617 4.83268 44.724C4.83268 43.8863 5.03549 43.1677 5.4411 42.5681C5.8379 41.9685 6.39783 41.51 7.12088 41.1925C7.83511 40.8663 8.66839 40.7032 9.6207 40.7032C10.573 40.7032 11.4107 40.8663 12.1337 41.1925C12.848 41.51 13.4079 41.9685 13.8135 42.5681C14.2103 43.1677 14.4087 43.8863 14.4087 44.724ZM13.1522 44.724C13.1522 44.2214 13.0111 43.7761 12.7289 43.3881C12.4468 42.9913 12.0412 42.6827 11.5121 42.4623C10.983 42.2418 10.3526 42.1316 9.6207 42.1316C8.88883 42.1316 8.25836 42.2418 7.7293 42.4623C7.20024 42.6827 6.79462 42.9913 6.51246 43.3881C6.23029 43.7761 6.08921 44.2214 6.08921 44.724C6.08921 45.2355 6.23029 45.6852 6.51246 46.0731C6.79462 46.4611 7.20024 46.7653 7.7293 46.9858C8.25836 47.2062 8.88883 47.3164 9.6207 47.3164C10.3526 47.3164 10.983 47.2062 11.5121 46.9858C12.0412 46.7653 12.4468 46.4611 12.7289 46.0731C13.0111 45.6852 13.1522 45.2355 13.1522 44.724ZM9.40907 36.8258C9.40907 37.2402 9.31649 37.615 9.13132 37.9501C8.94614 38.2763 8.68602 38.5364 8.35095 38.7304C8.00706 38.9244 7.59703 39.0214 7.12088 39.0214C6.65354 39.0214 6.25233 38.9244 5.91726 38.7304C5.57337 38.5364 5.30884 38.2719 5.12367 37.9368C4.93849 37.6018 4.84591 37.227 4.84591 36.8126C4.84591 36.407 4.93849 36.041 5.12367 35.7148C5.30884 35.3797 5.57337 35.1152 5.91726 34.9212C6.25233 34.7272 6.65354 34.6302 7.12088 34.6302C7.59703 34.6302 8.00706 34.7272 8.35095 34.9212C8.68602 35.1152 8.94614 35.3797 9.13132 35.7148C9.31649 36.041 9.40907 36.4114 9.40907 36.8258ZM14.25 37.4871L4.9914 32.1833V30.8077L14.25 36.0983V37.4871ZM8.40386 36.8258C8.40386 36.5436 8.29804 36.3012 8.08642 36.0983C7.86597 35.8867 7.54413 35.7809 7.12088 35.7809C6.69763 35.7809 6.38019 35.8823 6.16857 36.0851C5.94812 36.2879 5.8379 36.5348 5.8379 36.8258C5.8379 37.108 5.94812 37.3549 6.16857 37.5665C6.38019 37.7781 6.69763 37.8839 7.12088 37.8839C7.54413 37.8839 7.86597 37.7825 8.08642 37.5797C8.29804 37.3681 8.40386 37.1168 8.40386 36.8258ZM14.4087 31.3897C14.4087 31.8041 14.3161 32.1789 14.131 32.5139C13.9458 32.8402 13.6857 33.1003 13.3506 33.2943C13.0067 33.4883 12.5967 33.5853 12.1205 33.5853C11.6532 33.5853 11.2476 33.4883 10.9037 33.2943C10.5598 33.1003 10.2953 32.8358 10.1101 32.5007C9.92491 32.1656 9.83232 31.7909 9.83232 31.3765C9.83232 30.9708 9.92491 30.6049 10.1101 30.2787C10.2953 29.9436 10.5598 29.679 10.9037 29.4851C11.2476 29.2911 11.6532 29.1941 12.1205 29.1941C12.5967 29.1941 13.0067 29.2911 13.3506 29.4851C13.6857 29.679 13.9458 29.9436 14.131 30.2787C14.3161 30.6049 14.4087 30.9753 14.4087 31.3897ZM13.3903 31.3897C13.3903 31.1075 13.2845 30.865 13.0728 30.6622C12.8612 30.4506 12.5438 30.3448 12.1205 30.3448C11.6973 30.3448 11.3798 30.4462 11.1682 30.649C10.9478 30.8518 10.8375 31.0987 10.8375 31.3897C10.8375 31.6718 10.9478 31.9187 11.1682 32.1304C11.3798 32.342 11.6973 32.4478 12.1205 32.4478C12.5438 32.4478 12.8612 32.3464 13.0728 32.1436C13.2845 31.932 13.3903 31.6807 13.3903 31.3897Z" fill="#625E56"/>
<path d="M14.4087 143.401C14.4087 144.054 14.2941 144.618 14.0648 145.094C13.8267 145.57 13.5049 145.95 13.0993 146.232C12.6849 146.505 12.2175 146.673 11.6973 146.734V145.359C12.1382 145.271 12.5041 145.05 12.7951 144.697C13.0772 144.345 13.2183 143.908 13.2183 143.388C13.2183 143 13.1257 142.665 12.9406 142.383C12.7466 142.101 12.4909 141.88 12.1734 141.721C11.856 141.563 11.4989 141.483 11.1021 141.483C10.476 141.483 9.97782 141.66 9.60747 142.012C9.22831 142.365 9.03873 142.81 9.03873 143.348C9.03873 143.807 9.14895 144.199 9.3694 144.526C9.58102 144.852 9.84996 145.09 10.1762 145.24V146.576L4.9914 145.782V140.782H6.22147V144.724L8.69484 145.2C8.46558 144.997 8.276 144.72 8.1261 144.367C7.96738 144.005 7.88802 143.6 7.88802 143.15C7.88802 142.524 8.03351 141.986 8.3245 141.536C8.60666 141.087 8.99023 140.743 9.47521 140.505C9.96018 140.258 10.4981 140.134 11.0888 140.134C11.7061 140.134 12.266 140.267 12.7686 140.531C13.2712 140.796 13.6724 141.175 13.9722 141.669C14.2632 142.154 14.4087 142.731 14.4087 143.401ZM14.4087 134.246C14.4087 135.083 14.2103 135.806 13.8135 136.415C13.4079 137.014 12.848 137.477 12.1337 137.804C11.4107 138.121 10.573 138.28 9.6207 138.28C8.66839 138.28 7.83511 138.121 7.12088 137.804C6.39783 137.477 5.8379 137.014 5.4411 136.415C5.03549 135.806 4.83268 135.083 4.83268 134.246C4.83268 133.408 5.03549 132.689 5.4411 132.09C5.8379 131.49 6.39783 131.032 7.12088 130.714C7.83511 130.388 8.66839 130.225 9.6207 130.225C10.573 130.225 11.4107 130.388 12.1337 130.714C12.848 131.032 13.4079 131.49 13.8135 132.09C14.2103 132.689 14.4087 133.408 14.4087 134.246ZM13.1522 134.246C13.1522 133.743 13.0111 133.298 12.7289 132.91C12.4468 132.513 12.0412 132.204 11.5121 131.984C10.983 131.763 10.3526 131.653 9.6207 131.653C8.88883 131.653 8.25836 131.763 7.7293 131.984C7.20024 132.204 6.79462 132.513 6.51246 132.91C6.23029 133.298 6.08921 133.743 6.08921 134.246C6.08921 134.757 6.23029 135.207 6.51246 135.595C6.79462 135.983 7.20024 136.287 7.7293 136.507C8.25836 136.728 8.88883 136.838 9.6207 136.838C10.3526 136.838 10.983 136.728 11.5121 136.507C12.0412 136.287 12.4468 135.983 12.7289 135.595C13.0111 135.207 13.1522 134.757 13.1522 134.246ZM9.40907 126.347C9.40907 126.762 9.31649 127.137 9.13132 127.472C8.94614 127.798 8.68602 128.058 8.35095 128.252C8.00706 128.446 7.59703 128.543 7.12088 128.543C6.65354 128.543 6.25233 128.446 5.91726 128.252C5.57337 128.058 5.30884 127.794 5.12367 127.458C4.93849 127.123 4.84591 126.749 4.84591 126.334C4.84591 125.929 4.93849 125.563 5.12367 125.236C5.30884 124.901 5.57337 124.637 5.91726 124.443C6.25233 124.249 6.65354 124.152 7.12088 124.152C7.59703 124.152 8.00706 124.249 8.35095 124.443C8.68602 124.637 8.94614 124.901 9.13132 125.236C9.31649 125.563 9.40907 125.933 9.40907 126.347ZM14.25 127.009L4.9914 121.705V120.329L14.25 125.62V127.009ZM8.40386 126.347C8.40386 126.065 8.29804 125.823 8.08642 125.62C7.86597 125.408 7.54413 125.303 7.12088 125.303C6.69763 125.303 6.38019 125.404 6.16857 125.607C5.94812 125.81 5.8379 126.056 5.8379 126.347C5.8379 126.63 5.94812 126.877 6.16857 127.088C6.38019 127.3 6.69763 127.406 7.12088 127.406C7.54413 127.406 7.86597 127.304 8.08642 127.101C8.29804 126.89 8.40386 126.638 8.40386 126.347ZM14.4087 120.911C14.4087 121.326 14.3161 121.701 14.131 122.036C13.9458 122.362 13.6857 122.622 13.3506 122.816C13.0067 123.01 12.5967 123.107 12.1205 123.107C11.6532 123.107 11.2476 123.01 10.9037 122.816C10.5598 122.622 10.2953 122.357 10.1101 122.022C9.92491 121.687 9.83232 121.313 9.83232 120.898C9.83232 120.492 9.92491 120.127 10.1101 119.8C10.2953 119.465 10.5598 119.201 10.9037 119.007C11.2476 118.813 11.6532 118.716 12.1205 118.716C12.5967 118.716 13.0067 118.813 13.3506 119.007C13.6857 119.201 13.9458 119.465 14.131 119.8C14.3161 120.127 14.4087 120.497 14.4087 120.911ZM13.3903 120.911C13.3903 120.629 13.2845 120.387 13.0728 120.184C12.8612 119.972 12.5438 119.866 12.1205 119.866C11.6973 119.866 11.3798 119.968 11.1682 120.171C10.9478 120.373 10.8375 120.62 10.8375 120.911C10.8375 121.193 10.9478 121.44 11.1682 121.652C11.3798 121.864 11.6973 121.969 12.1205 121.969C12.5438 121.969 12.8612 121.868 13.0728 121.665C13.2845 121.454 13.3903 121.202 13.3903 120.911Z" fill="#625E56"/>
<path d="M14.4087 262.069C14.4087 262.987 14.2103 263.78 13.8135 264.45C13.4079 265.112 12.848 265.623 12.1337 265.985C11.4107 266.346 10.5774 266.527 9.63393 266.527C8.68161 266.527 7.84834 266.346 7.1341 265.985C6.41105 265.623 5.84672 265.112 5.4411 264.45C5.03549 263.78 4.83268 262.987 4.83268 262.069C4.83268 260.985 5.09721 260.099 5.62628 259.411C6.15534 258.723 6.89603 258.287 7.84834 258.102V259.662C7.31046 259.786 6.8828 260.05 6.56536 260.456C6.24792 260.861 6.08921 261.404 6.08921 262.083C6.08921 263.009 6.40664 263.74 7.04152 264.278C7.66758 264.816 8.53171 265.085 9.63393 265.085C10.7273 265.085 11.5871 264.816 12.2131 264.278C12.8392 263.74 13.1522 263.009 13.1522 262.083C13.1522 261.404 13.0023 260.861 12.7025 260.456C12.4027 260.05 11.9927 259.786 11.4724 259.662V258.102C12.3895 258.287 13.1081 258.723 13.6284 259.411C14.1486 260.099 14.4087 260.985 14.4087 262.069ZM14.25 256.794L4.9914 253.382V251.848L14.25 248.462V249.943L11.9883 250.737L11.9883 254.519L14.25 255.313V256.794ZM10.8772 254.123L10.8772 251.133L6.65795 252.628L10.8772 254.123ZM14.25 246.642H4.9914L4.9914 243.401C4.9914 242.678 5.11485 242.078 5.36174 241.602C5.59982 241.126 5.93049 240.773 6.35374 240.544C6.76817 240.306 7.23992 240.187 7.76898 240.187C8.27159 240.187 8.73452 240.302 9.15777 240.531C9.5722 240.751 9.90287 241.1 10.1498 241.576C10.3967 242.052 10.5201 242.66 10.5201 243.401V245.239H14.25V246.642ZM9.3694 245.239V243.467C9.3694 242.806 9.22831 242.334 8.94614 242.052C8.65516 241.761 8.26277 241.615 7.76898 241.615C7.25755 241.615 6.86076 241.761 6.57859 242.052C6.2876 242.334 6.14211 242.806 6.14211 243.467V245.239H9.3694ZM14.25 239.939L4.9914 236.527V234.993L14.25 231.607V233.088L11.9883 233.882V237.664L14.25 238.458V239.939ZM10.8772 237.268V234.278L6.65795 235.773L10.8772 237.268ZM14.4087 226.189C14.4087 227.106 14.2103 227.9 13.8135 228.57C13.4079 229.231 12.848 229.743 12.1337 230.104C11.4107 230.466 10.5774 230.647 9.63393 230.647C8.68161 230.647 7.84834 230.466 7.1341 230.104C6.41105 229.743 5.84672 229.231 5.4411 228.57C5.03549 227.9 4.83268 227.106 4.83268 226.189C4.83268 225.105 5.09721 224.219 5.62628 223.531C6.15534 222.843 6.89603 222.407 7.84834 222.221V223.782C7.31046 223.906 6.8828 224.17 6.56536 224.576C6.24792 224.981 6.08921 225.524 6.08921 226.203C6.08921 227.128 6.40664 227.86 7.04152 228.398C7.66758 228.936 8.53171 229.205 9.63393 229.205C10.7273 229.205 11.5871 228.936 12.2131 228.398C12.8392 227.86 13.1522 227.128 13.1522 226.203C13.1522 225.524 13.0023 224.981 12.7025 224.576C12.4027 224.17 11.9927 223.906 11.4724 223.782L11.4724 222.221C12.3895 222.407 13.1081 222.843 13.6284 223.531C14.1486 224.219 14.4087 225.105 14.4087 226.189ZM14.25 220.151H4.9914V218.749H14.25V220.151ZM14.25 214.172H6.12889L6.12889 216.91H4.9914L4.9914 210.045H6.12889V212.77H14.25V214.172ZM14.25 205.85H10.8375L4.9914 208.919V207.331L9.46198 205.149L4.9914 202.98L4.9914 201.406L10.8375 204.448H14.25V205.85Z" fill="#625E56"/>
<path d="M61.1891 134V124.741H64.4296C65.1526 124.741 65.7523 124.865 66.2284 125.112C66.7046 125.35 67.0573 125.68 67.2865 126.104C67.5246 126.518 67.6437 126.99 67.6437 127.519C67.6437 128.022 67.529 128.485 67.2998 128.908C67.0793 129.322 66.731 129.653 66.2549 129.9C65.7787 130.147 65.1703 130.27 64.4296 130.27H62.5911V134H61.1891ZM62.5911 129.119H64.3635C65.0248 129.119 65.4965 128.978 65.7787 128.696C66.0697 128.405 66.2152 128.013 66.2152 127.519C66.2152 127.008 66.0697 126.611 65.7787 126.329C65.4965 126.038 65.0248 125.892 64.3635 125.892H62.5911V129.119ZM69.5585 134V124.741H72.7461C73.478 124.741 74.0776 124.865 74.5449 125.112C75.0211 125.359 75.3738 125.694 75.6031 126.117C75.8323 126.531 75.9469 126.994 75.9469 127.506C75.9469 128.079 75.7926 128.599 75.484 129.066C75.1842 129.534 74.7125 129.869 74.0688 130.072L76.0395 134H74.4127L72.6138 130.27H70.9605V134H69.5585ZM70.9605 129.212H72.6668C73.3016 129.212 73.7646 129.058 74.0555 128.749C74.3553 128.44 74.5052 128.039 74.5052 127.545C74.5052 127.052 74.3598 126.659 74.0688 126.368C73.7778 126.068 73.306 125.919 72.6535 125.919H70.9605V129.212ZM82.4068 134.159C81.4897 134.159 80.6873 133.956 79.9995 133.55C79.3118 133.145 78.7739 132.585 78.3859 131.871C77.9979 131.147 77.8039 130.314 77.8039 129.371C77.8039 128.427 77.9979 127.598 78.3859 126.884C78.7739 126.161 79.3118 125.597 79.9995 125.191C80.6873 124.785 81.4897 124.583 82.4068 124.583C83.3238 124.583 84.1262 124.785 84.814 125.191C85.5018 125.597 86.0353 126.161 86.4144 126.884C86.8024 127.598 86.9964 128.427 86.9964 129.371C86.9964 130.314 86.8024 131.147 86.4144 131.871C86.0353 132.585 85.5018 133.145 84.814 133.55C84.1262 133.956 83.3238 134.159 82.4068 134.159ZM82.4068 132.902C83.0417 132.902 83.5928 132.761 84.0601 132.479C84.5363 132.197 84.9066 131.791 85.1711 131.262C85.4357 130.733 85.5679 130.103 85.5679 129.371C85.5679 128.639 85.4357 128.008 85.1711 127.479C84.9066 126.95 84.5363 126.545 84.0601 126.262C83.5928 125.98 83.0417 125.839 82.4068 125.839C81.7719 125.839 81.2164 125.98 80.7402 126.262C80.2641 126.545 79.8937 126.95 79.6292 127.479C79.3735 128.008 79.2456 128.639 79.2456 129.371C79.2456 130.103 79.3735 130.733 79.6292 131.262C79.8937 131.791 80.2641 132.197 80.7402 132.479C81.2164 132.761 81.7719 132.902 82.4068 132.902ZM89.0873 134V124.741H94.8938V125.879H90.4894V128.802H94.1399V129.926H90.4894V134H89.0873ZM96.798 134V124.741H98.2V134H96.798ZM102.777 134V125.879H100.039V124.741H106.904V125.879H104.179V134H102.777Z" fill="#625E56"/>
<path d="M126.424 330V318.423H128.177V328.611H133.437V330H126.424ZM139.817 330.198C138.99 330.198 138.241 330.039 137.568 329.719C136.907 329.388 136.377 328.886 135.98 328.214C135.594 327.541 135.402 326.687 135.402 325.65V318.423H137.155V325.667C137.155 326.681 137.397 327.426 137.882 327.9C138.367 328.374 139.023 328.611 139.85 328.611C140.666 328.611 141.317 328.374 141.802 327.9C142.287 327.426 142.53 326.681 142.53 325.667V318.423H144.283V325.65C144.283 326.687 144.079 327.541 143.671 328.214C143.274 328.886 142.734 329.388 142.05 329.719C141.377 330.039 140.633 330.198 139.817 330.198ZM147.193 330V318.423H148.946L154.751 327.139V318.423H156.504V330H154.751L148.946 321.284V330H147.193ZM164.675 330.198C163.529 330.198 162.536 329.95 161.699 329.454C160.872 328.947 160.232 328.247 159.78 327.354C159.328 326.45 159.102 325.408 159.102 324.228C159.102 323.037 159.328 321.995 159.78 321.102C160.232 320.198 160.872 319.493 161.699 318.985C162.536 318.478 163.529 318.225 164.675 318.225C166.032 318.225 167.14 318.555 168 319.217C168.86 319.878 169.405 320.805 169.637 321.995H167.685C167.531 321.323 167.2 320.788 166.693 320.391C166.186 319.994 165.508 319.796 164.659 319.796C163.501 319.796 162.586 320.193 161.914 320.987C161.241 321.769 160.905 322.85 160.905 324.228C160.905 325.595 161.241 326.67 161.914 327.453C162.586 328.236 163.501 328.627 164.659 328.627C165.508 328.627 166.186 328.44 166.693 328.065C167.2 327.69 167.531 327.177 167.685 326.527H169.637C169.405 327.674 168.86 328.572 168 329.223C167.14 329.873 166.032 330.198 164.675 330.198ZM172.226 330V318.423H173.979V323.385H179.585V318.423H181.338V330H179.585V324.823H173.979V330H172.226Z" fill="#625E56"/>
<path d="M329.916 330V318.423H333.671C335.027 318.423 336.14 318.66 337.011 319.134C337.893 319.608 338.544 320.281 338.963 321.152C339.393 322.012 339.608 323.037 339.608 324.228C339.608 325.408 339.393 326.433 338.963 327.304C338.544 328.164 337.893 328.831 337.011 329.305C336.14 329.768 335.027 330 333.671 330H329.916ZM331.67 328.512H333.605C334.652 328.512 335.479 328.341 336.085 327.999C336.703 327.657 337.144 327.166 337.408 326.527C337.684 325.887 337.822 325.121 337.822 324.228C337.822 323.335 337.684 322.563 337.408 321.913C337.144 321.262 336.703 320.766 336.085 320.424C335.479 320.071 334.652 319.895 333.605 319.895H331.67V328.512ZM342.207 330V318.423H343.96V330H342.207ZM346.97 330V318.423H348.724L354.529 327.139V318.423H356.282V330H354.529L348.724 321.284V330H346.97ZM359.293 330V318.423H361.046L366.851 327.139V318.423H368.604V330H366.851L361.046 321.284V330H359.293ZM371.615 330V318.423H378.975V319.845H373.368V323.451H378.479V324.84H373.368V328.578H378.975V330H371.615ZM381.725 330V318.423H385.711C386.626 318.423 387.376 318.577 387.96 318.886C388.556 319.195 388.997 319.614 389.283 320.143C389.57 320.661 389.713 321.24 389.713 321.88C389.713 322.596 389.52 323.247 389.134 323.831C388.76 324.415 388.17 324.834 387.365 325.088L389.829 330H387.795L385.546 325.336H383.478V330H381.725ZM383.478 324.013H385.612C386.406 324.013 386.984 323.82 387.348 323.434C387.723 323.048 387.911 322.547 387.911 321.929C387.911 321.312 387.729 320.821 387.365 320.457C387.001 320.082 386.411 319.895 385.595 319.895H383.478V324.013Z" fill="#625E56"/>
<path d="M155.883 85.374C145.972 102.816 74.4287 304.51 74.4287 304.51H542.324C542.324 304.51 452.256 61.3029 434.085 31.0989C415.915 0.89481 371.937 20.6871 360.787 36.0019C349.637 51.3167 298.273 181.948 291.666 190.456C285.058 198.964 274.196 201.209 262.802 188.676C251.409 176.143 213.525 105.838 201.657 85.374C182.66 52.6176 165.795 67.9323 155.883 85.374Z" fill="url(#paint0_linear_1784_27169)"/>
<path d="M162.539 99.4262C153.424 114.997 88.1006 304.51 88.1006 304.51H518.397C518.397 304.51 439.402 72.4615 422.691 45.4967C405.981 18.5319 378.257 29.9255 369.521 46.2563C360.786 62.5871 305.718 222.097 299.641 229.693C293.564 237.288 285.969 245.643 266.6 229.693C247.231 213.742 208.013 117.696 197.099 99.4262C179.643 70.2062 171.666 83.8331 162.56 99.3887L162.539 99.4262Z" fill="url(#paint1_linear_1784_27169)"/>
<line x1="60.25" y1="13.6693" x2="486.25" y2="13.6693" stroke="#6E695C" stroke-width="0.661329" stroke-dasharray="4.63 4.63"/>
<line x1="60.25" y1="146.669" x2="486.25" y2="146.669" stroke="#6E695C" stroke-width="0.661329" stroke-dasharray="4.63 4.63"/>
</g>
<defs>
<linearGradient id="paint0_linear_1784_27169" x1="308.376" y1="9.63924" x2="308.376" y2="304.51" gradientUnits="userSpaceOnUse">
<stop stop-color="#E9E3D9"/>
<stop offset="1" stop-color="#D8B448" stop-opacity="0.02"/>
</linearGradient>
<linearGradient id="paint1_linear_1784_27169" x1="303.249" y1="41.2633" x2="303.249" y2="304.51" gradientUnits="userSpaceOnUse">
<stop stop-color="#D8B448" stop-opacity="0.96"/>
<stop offset="1" stop-color="#D8B448" stop-opacity="0.02"/>
</linearGradient>
<clipPath id="clip0_1784_27169">
<rect x="0.75" y="0.682007" width="557.5" height="338.6" rx="7.93594" fill="white"/>
</clipPath>
</defs>
</svg>
