<svg width="559" height="313" viewBox="0 0 559 313" fill="none" xmlns="http://www.w3.org/2000/svg">
<g clip-path="url(#clip0_1784_27152)">
<line x1="1.0971" y1="34.3293" x2="1.0971" y2="284.954" stroke="#68655E" stroke-width="0.694193"/>
<line x1="0.929688" y1="284.586" x2="505.608" y2="284.586" stroke="#68655E" stroke-width="0.694193"/>
<path d="M33.017 310.734V301.015H34.7525L38.043 307.485L41.3195 301.015H43.055V310.734H41.5833V303.556L38.6122 309.346H37.4737L34.4887 303.57V310.734H33.017Z" fill="#202937"/>
<path d="M112.16 310.734V302.209H109.286V301.015H116.492V302.209H113.632V310.734H112.16Z" fill="#202937"/>
<path d="M183.734 310.748L181.11 301.015H182.693L184.622 309.068L186.844 301.015H188.468L190.62 309.068L192.55 301.015H194.133L191.467 310.734H189.746L187.621 303.112L185.428 310.734L183.734 310.748Z" fill="#202937"/>
<path d="M261.892 310.734V302.209H259.018V301.015H266.223V302.209H263.363V310.734H261.892Z" fill="#202937"/>
<path d="M331.48 310.734V301.015H337.575V302.209H332.952V305.278H336.784V306.458H332.952V310.734H331.48Z" fill="#202937"/>
<path d="M406.553 310.901C405.841 310.901 405.216 310.776 404.679 310.526C404.142 310.276 403.721 309.92 403.416 309.457C403.119 308.994 402.967 308.443 402.957 307.805H404.512C404.522 308.323 404.702 308.763 405.054 309.124C405.406 309.485 405.901 309.665 406.539 309.665C407.104 309.665 407.544 309.531 407.858 309.262C408.182 308.985 408.344 308.633 408.344 308.207C408.344 307.865 408.266 307.587 408.108 307.374C407.96 307.161 407.752 306.985 407.483 306.847C407.224 306.708 406.924 306.583 406.581 306.472C406.239 306.361 405.878 306.24 405.498 306.111C404.748 305.861 404.184 305.537 403.804 305.139C403.434 304.741 403.249 304.218 403.249 303.57C403.24 303.024 403.365 302.547 403.624 302.14C403.892 301.733 404.262 301.418 404.734 301.196C405.216 300.965 405.776 300.849 406.414 300.849C407.044 300.849 407.595 300.965 408.067 301.196C408.548 301.427 408.923 301.751 409.191 302.168C409.46 302.575 409.598 303.052 409.608 303.598H408.053C408.053 303.348 407.988 303.112 407.858 302.89C407.729 302.658 407.539 302.469 407.289 302.321C407.039 302.172 406.734 302.098 406.373 302.098C405.91 302.089 405.526 302.205 405.22 302.445C404.924 302.686 404.776 303.019 404.776 303.445C404.776 303.825 404.887 304.116 405.109 304.32C405.331 304.523 405.637 304.695 406.026 304.833C406.414 304.963 406.859 305.116 407.359 305.292C407.84 305.449 408.27 305.639 408.65 305.861C409.029 306.083 409.33 306.375 409.552 306.736C409.784 307.097 409.899 307.555 409.899 308.11C409.899 308.601 409.774 309.059 409.524 309.485C409.275 309.901 408.9 310.244 408.4 310.512C407.9 310.771 407.284 310.901 406.553 310.901Z" fill="#202937"/>
<path d="M479.419 310.901C478.706 310.901 478.081 310.776 477.544 310.526C477.007 310.276 476.586 309.92 476.281 309.457C475.985 308.994 475.832 308.443 475.823 307.805H477.378C477.387 308.323 477.567 308.763 477.919 309.124C478.271 309.485 478.766 309.665 479.405 309.665C479.969 309.665 480.409 309.531 480.724 309.262C481.048 308.985 481.21 308.633 481.21 308.207C481.21 307.865 481.131 307.587 480.974 307.374C480.825 307.161 480.617 306.985 480.349 306.847C480.09 306.708 479.789 306.583 479.446 306.472C479.104 306.361 478.743 306.24 478.363 306.111C477.614 305.861 477.049 305.537 476.67 305.139C476.299 304.741 476.114 304.218 476.114 303.57C476.105 303.024 476.23 302.547 476.489 302.14C476.757 301.733 477.128 301.418 477.6 301.196C478.081 300.965 478.641 300.849 479.28 300.849C479.909 300.849 480.46 300.965 480.932 301.196C481.413 301.427 481.788 301.751 482.056 302.168C482.325 302.575 482.464 303.052 482.473 303.598H480.918C480.918 303.348 480.853 303.112 480.724 302.89C480.594 302.658 480.404 302.469 480.154 302.321C479.904 302.172 479.599 302.098 479.238 302.098C478.775 302.089 478.391 302.205 478.086 302.445C477.789 302.686 477.641 303.019 477.641 303.445C477.641 303.825 477.752 304.116 477.975 304.32C478.197 304.523 478.502 304.695 478.891 304.833C479.28 304.963 479.724 305.116 480.224 305.292C480.705 305.449 481.135 305.639 481.515 305.861C481.894 306.083 482.195 306.375 482.417 306.736C482.649 307.097 482.765 307.555 482.765 308.11C482.765 308.601 482.64 309.059 482.39 309.485C482.14 309.901 481.765 310.244 481.265 310.512C480.765 310.771 480.15 310.901 479.419 310.901Z" fill="#202937"/>
<path d="M58.0868 181.655C35.3856 184.452 0.929688 169.64 0.929688 169.64V284.239H505.608V139.604C496.168 145.11 489.479 147.071 478.285 147.613C462.136 148.396 452.745 143.405 439.029 135.599C411.934 120.178 426.945 92.9122 397.261 71.5208C376.157 56.3129 354.451 54.0218 331.624 67.516C308.057 81.4479 284.343 149.748 270.852 150.553C250.96 151.74 238.177 121.298 218.252 120.724C184.311 119.745 175.516 156.616 141.851 160.672C129.084 162.211 138.38 152.745 108.335 157.625C86.516 161.17 80.0497 178.949 58.0868 181.655Z" fill="url(#paint0_linear_1784_27152)"/>
<path d="M54.5128 127.089C31.8117 129.886 0.929688 139.103 0.929688 139.103V248.831L505.608 253.694V123.541C496.168 129.047 482.533 130.287 471.34 130.83C455.19 131.613 447.352 130.483 438.629 121.112C416.727 97.5821 423.764 87.3172 394.08 65.9272C372.977 50.7203 350.863 52.4339 328.036 65.9272C304.468 79.8583 284.343 119.212 270.852 120.017C250.96 121.203 238.177 90.7635 218.252 90.1892C184.311 89.2109 174.975 123.033 141.31 127.089C128.544 128.627 121.012 125.03 108.335 127.089C86.516 130.633 76.4757 124.383 54.5128 127.089Z" fill="url(#paint1_linear_1784_27152)"/>
<line x1="100.199" y1="138.805" x2="505.608" y2="138.805" stroke="#6E695C" stroke-width="0.694193" stroke-dasharray="4.86 4.86"/>
<path d="M12.8257 140.045V132.27H15.758C16.5651 132.27 17.176 132.459 17.5907 132.837C18.0053 133.214 18.2126 133.688 18.2126 134.258C18.2126 134.755 18.0794 135.151 17.8128 135.447C17.5462 135.736 17.2241 135.932 16.8465 136.036C17.1427 136.095 17.4055 136.213 17.6351 136.391C17.872 136.569 18.0571 136.791 18.1904 137.057C18.3237 137.324 18.3904 137.613 18.3904 137.924C18.3904 138.324 18.2904 138.687 18.0905 139.012C17.8979 139.331 17.6129 139.582 17.2352 139.768C16.8576 139.953 16.3948 140.045 15.8468 140.045H12.8257ZM14.0031 135.602H15.6136C16.0653 135.602 16.4096 135.499 16.6465 135.291C16.8835 135.077 17.002 134.784 17.002 134.414C17.002 134.051 16.8835 133.762 16.6465 133.548C16.417 133.333 16.0653 133.226 15.5914 133.226H14.0031V135.602ZM14.0031 139.079H15.6913C16.1652 139.079 16.5318 138.968 16.7909 138.746C17.0575 138.524 17.1908 138.213 17.1908 137.813C17.1908 137.413 17.0538 137.098 16.7798 136.869C16.5059 136.632 16.1356 136.513 15.6691 136.513H14.0031V139.079ZM20.1251 140.045V132.27H22.802C23.4165 132.27 23.9201 132.374 24.3125 132.581C24.7124 132.789 25.0086 133.07 25.2011 133.425C25.3936 133.773 25.4899 134.162 25.4899 134.592C25.4899 135.073 25.3603 135.51 25.1011 135.902C24.8494 136.295 24.4532 136.576 23.9127 136.746L25.5676 140.045H24.2014L22.6909 136.913H21.3025V140.045H20.1251ZM21.3025 136.025H22.7353C23.2685 136.025 23.6572 135.895 23.9016 135.636C24.1533 135.377 24.2792 135.04 24.2792 134.625C24.2792 134.21 24.157 133.881 23.9127 133.637C23.6683 133.385 23.2722 133.259 22.7242 133.259H21.3025V136.025ZM27.327 140.045V132.27H32.2696V133.226H28.5043V135.647H31.9364V136.58H28.5043V139.09H32.2696V140.045H27.327ZM33.6168 140.045L36.4824 132.27H37.7708L40.6142 140.045H39.3703L38.7038 138.146H35.5272L34.8608 140.045H33.6168ZM35.8604 137.213H38.3706L37.1155 133.67L35.8604 137.213ZM42.1428 140.045V132.27H43.3201V135.602L46.3857 132.27H47.8407L44.964 135.369L47.9074 140.045H46.4745L44.1198 136.269L43.3201 137.135V140.045H42.1428ZM49.3771 140.045V132.27H54.3198V133.226H50.5545V135.647H53.9866V136.58H50.5545V139.09H54.3198V140.045H49.3771ZM58.4659 140.045L55.5892 132.27H56.8443L59.1768 138.824L61.5204 132.27H62.7644L59.8876 140.045H58.4659ZM64.2038 140.045V132.27H69.1464V133.226H65.3811V135.647H68.8132V136.58H65.3811V139.09H69.1464V140.045H64.2038ZM70.9934 140.045V132.27H72.1708L76.0694 138.124V132.27H77.2467V140.045H76.0694L72.1708 134.192V140.045H70.9934Z" fill="#625E56"/>
<path d="M16.4004 73.1097H8.62543V70.3885C8.62543 69.7813 8.7291 69.2778 8.93643 68.8779C9.13636 68.4781 9.41403 68.1819 9.76946 67.9893C10.1175 67.7894 10.5136 67.6895 10.9579 67.6895C11.38 67.6895 11.7687 67.7857 12.1242 67.9782C12.4722 68.1634 12.7499 68.4558 12.9572 68.8557C13.1645 69.2556 13.2682 69.7665 13.2682 70.3885V71.9324H16.4004V73.1097ZM12.3019 71.9324V70.444C12.3019 69.8887 12.1834 69.4925 11.9464 69.2556C11.7021 69.0112 11.3726 68.889 10.9579 68.889C10.5284 68.889 10.1952 69.0112 9.95828 69.2556C9.71393 69.4925 9.59175 69.8887 9.59175 70.444V71.9324H12.3019ZM16.4004 66.0814H8.62543V63.4046C8.62543 62.79 8.7291 62.2865 8.93643 61.8941C9.14376 61.4942 9.42514 61.198 9.78057 61.0055C10.1286 60.813 10.5173 60.7167 10.9468 60.7167C11.4281 60.7167 11.865 60.8463 12.2574 61.1055C12.6499 61.3572 12.9313 61.7534 13.1016 62.2939L16.4004 60.639V62.0051L13.2682 63.5157V64.9041H16.4004V66.0814ZM12.3796 64.9041V63.4713C12.3796 62.9381 12.25 62.5494 11.9909 62.305C11.7317 62.0533 11.3948 61.9274 10.9801 61.9274C10.5655 61.9274 10.236 62.0496 9.9916 62.2939C9.73984 62.5383 9.61396 62.9344 9.61396 63.4824V64.9041H12.3796ZM16.5337 55.292C16.5337 56.0621 16.3634 56.736 16.0227 57.3135C15.6821 57.8911 15.2119 58.3428 14.6121 58.6686C14.005 58.9944 13.3052 59.1573 12.5129 59.1573C11.7206 59.1573 11.0246 58.9944 10.4248 58.6686C9.81759 58.3428 9.34369 57.8911 9.00307 57.3135C8.66246 56.736 8.49215 56.0621 8.49215 55.292C8.49215 54.5219 8.66246 53.8481 9.00307 53.2706C9.34369 52.693 9.81759 52.245 10.4248 51.9266C11.0246 51.6008 11.7206 51.4379 12.5129 51.4379C13.3052 51.4379 14.005 51.6008 14.6121 51.9266C15.2119 52.245 15.6821 52.693 16.0227 53.2706C16.3634 53.8481 16.5337 54.5219 16.5337 55.292ZM15.4785 55.292C15.4785 54.7589 15.36 54.2961 15.1231 53.9037C14.8861 53.5038 14.5455 53.1928 14.1012 52.9707C13.6569 52.7485 13.1275 52.6374 12.5129 52.6374C11.8983 52.6374 11.3689 52.7485 10.9246 52.9707C10.4803 53.1928 10.1397 53.5038 9.90275 53.9037C9.66579 54.2961 9.54732 54.7589 9.54732 55.292C9.54732 55.8252 9.66579 56.2917 9.90275 56.6915C10.1397 57.0914 10.4803 57.4024 10.9246 57.6245C11.3689 57.8393 11.8983 57.9466 12.5129 57.9466C13.1275 57.9466 13.6569 57.8393 14.1012 57.6245C14.5455 57.4024 14.8861 57.0914 15.1231 56.6915C15.36 56.2917 15.4785 55.8252 15.4785 55.292ZM16.4004 49.682H8.62543V44.806H9.58064V48.5047H12.0353V45.4391H12.9794V48.5047H16.4004V49.682ZM16.4004 43.2069H8.62543V42.0296H16.4004V43.2069ZM16.4004 38.186H9.58064V40.4852H8.62543L8.62543 34.7206H9.58064V37.0086H16.4004V38.186Z" fill="#625E56"/>
</g>
<defs>
<linearGradient id="paint0_linear_1784_27152" x1="253.269" y1="58.5358" x2="253.616" y2="303.329" gradientUnits="userSpaceOnUse">
<stop stop-color="#DCBD64"/>
<stop offset="1" stop-color="#DCBD64" stop-opacity="0"/>
</linearGradient>
<linearGradient id="paint1_linear_1784_27152" x1="253.269" y1="28.0054" x2="253.269" y2="253.694" gradientUnits="userSpaceOnUse">
<stop stop-color="#F0E4C1"/>
<stop offset="1" stop-color="#DCBD64" stop-opacity="0"/>
</linearGradient>
<clipPath id="clip0_1784_27152">
<rect x="0.75" width="557.5" height="312.682" rx="7.61092" fill="white"/>
</clipPath>
</defs>
</svg>
