<svg width="601" height="166" viewBox="0 0 601 166" fill="none" xmlns="http://www.w3.org/2000/svg">
<path d="M30.0779 77V76.386L31.1831 76.0176C32.0017 75.7311 32.5543 75.3422 32.8409 74.851C33.1274 74.3598 33.2707 73.7049 33.2707 72.8862C33.3116 70.4302 33.3321 67.9537 33.3321 65.4568C33.3321 62.9599 33.3321 60.4629 33.3321 57.966V55.51C33.3321 53.054 33.3321 50.598 33.3321 48.142C33.3321 45.6451 33.3116 43.1686 33.2707 40.7126C33.2707 39.8939 33.1479 39.239 32.9023 38.7478C32.6976 38.2566 32.2064 37.8677 31.4287 37.5812L30.0779 37.09V36.476H59.7955L60.2253 46.6684H59.6113L56.1115 40.2214C55.7021 39.4437 55.2314 38.8297 54.6993 38.3794C54.1671 37.9291 53.4303 37.704 52.4889 37.704H42.6035C42.5625 40.6103 42.5421 43.5779 42.5421 46.607C42.5421 49.6361 42.5421 52.6447 42.5421 55.6328H48.9277C49.8691 55.6328 50.565 55.4281 51.0153 55.0188C51.4655 54.6095 51.8953 54.0159 52.3047 53.2382L53.5941 50.905H54.2081V61.65H53.5941L52.2433 59.3168C51.8339 58.58 51.4041 57.9865 50.9539 57.5362C50.5445 57.0859 49.8691 56.8608 48.9277 56.8608H42.5421C42.5421 59.7261 42.5421 62.4687 42.5421 65.0884C42.5421 67.6672 42.5625 70.2051 42.6035 72.702C42.6035 74.2984 43.3812 75.3422 44.9367 75.8334L46.7787 76.386V77H30.0779ZM75.287 46.5456C77.9476 46.5456 80.2194 47.0982 82.1024 48.2034C83.9853 49.2677 85.418 50.7413 86.4004 52.6242C87.4237 54.4662 87.9354 56.5743 87.9354 58.9484C87.9354 59.3987 87.9149 59.8694 87.874 60.3606C87.833 60.8109 87.7512 61.2202 87.6284 61.5886H69.3312C69.3721 66.0094 70.1498 69.2022 71.6644 71.167C73.2198 73.0909 75.5121 74.0528 78.5412 74.0528C80.5878 74.0528 82.2456 73.7253 83.5146 73.0704C84.7835 72.4155 85.9706 71.4535 87.0758 70.1846L87.6898 70.7372C86.4208 72.9885 84.7221 74.7487 82.5936 76.0176C80.506 77.2865 77.9886 77.921 75.0414 77.921C72.1351 77.921 69.5563 77.307 67.305 76.079C65.0536 74.8101 63.2935 73.009 62.0246 70.6758C60.7556 68.3426 60.1212 65.5591 60.1212 62.3254C60.1212 58.9689 60.858 56.124 62.3316 53.7908C63.8052 51.4167 65.6881 49.6156 67.9804 48.3876C70.3136 47.1596 72.7491 46.5456 75.287 46.5456ZM75.1028 47.7736C73.9157 47.7736 72.8924 48.142 72.0328 48.8788C71.2141 49.5747 70.5592 50.8436 70.068 52.6856C69.6177 54.4867 69.3721 57.045 69.3312 60.3606H79.8306C80.2399 55.8989 80.0762 52.6856 79.3394 50.7208C78.6026 48.756 77.1904 47.7736 75.1028 47.7736ZM99.7198 77.921C97.3457 77.921 95.34 77.2456 93.7026 75.8948C92.1062 74.544 91.308 72.5997 91.308 70.0618C91.308 68.1379 92.2904 66.3778 94.2552 64.7814C96.22 63.1441 99.3105 61.9161 103.527 61.0974C104.182 60.9746 104.918 60.8518 105.737 60.729C106.556 60.5653 107.415 60.4015 108.316 60.2378V55.3872C108.316 52.6037 107.968 50.6594 107.272 49.5542C106.617 48.4081 105.573 47.835 104.141 47.835C103.158 47.835 102.381 48.1625 101.807 48.8174C101.234 49.4314 100.866 50.5161 100.702 52.0716L100.579 52.747C100.498 54.5071 100.068 55.7965 99.29 56.6152C98.5123 57.4339 97.5504 57.8432 96.4042 57.8432C95.34 57.8432 94.4599 57.5157 93.764 56.8608C93.0682 56.2059 92.7202 55.3258 92.7202 54.2206C92.7202 52.5423 93.2933 51.1301 94.4394 49.984C95.6265 48.8379 97.182 47.9783 99.1058 47.4052C101.03 46.8321 103.117 46.5456 105.369 46.5456C109.012 46.5456 111.816 47.4461 113.78 49.2472C115.786 51.0073 116.789 53.8931 116.789 57.9046V71.474C116.789 73.316 117.649 74.237 119.368 74.237H120.719L121.271 74.7282C120.494 75.7106 119.634 76.4679 118.692 77C117.792 77.5321 116.503 77.7982 114.824 77.7982C113.023 77.7982 111.591 77.3889 110.526 76.5702C109.503 75.7106 108.828 74.5849 108.5 73.1932C107.272 74.5031 106.003 75.6287 104.693 76.5702C103.424 77.4707 101.767 77.921 99.7198 77.921ZM103.465 74.1756C104.284 74.1756 105.041 73.9914 105.737 73.623C106.474 73.2137 107.333 72.5997 108.316 71.781V61.4658C107.907 61.5477 107.497 61.6295 107.088 61.7114C106.679 61.7933 106.208 61.8751 105.676 61.957C103.793 62.4482 102.278 63.2873 101.132 64.4744C100.027 65.6205 99.4742 67.176 99.4742 69.1408C99.4742 70.8191 99.8631 72.088 100.641 72.9476C101.419 73.7663 102.36 74.1756 103.465 74.1756ZM133.157 77.921C131.151 77.921 129.35 77.6754 127.754 77.1842C126.157 76.7339 124.684 76.1609 123.333 75.465L123.394 68.1584H124.008L126.096 71.8424C126.996 73.4797 127.979 74.7077 129.043 75.5264C130.148 76.3041 131.54 76.693 133.218 76.693C135.183 76.693 136.759 76.2632 137.946 75.4036C139.174 74.5031 139.788 73.316 139.788 71.8424C139.788 70.4916 139.358 69.3864 138.499 68.5268C137.639 67.6672 136.043 66.8895 133.71 66.1936L131.131 65.3954C128.634 64.6586 126.669 63.5125 125.236 61.957C123.804 60.4015 123.087 58.4981 123.087 56.2468C123.087 53.5452 124.152 51.2529 126.28 49.37C128.409 47.4871 131.458 46.5456 135.429 46.5456C137.025 46.5456 138.519 46.7298 139.911 47.0982C141.344 47.4257 142.715 47.9373 144.025 48.6332L143.656 55.2644H143.042L140.893 51.4576C140.116 50.1068 139.338 49.1653 138.56 48.6332C137.823 48.0601 136.698 47.7736 135.183 47.7736C133.791 47.7736 132.482 48.1625 131.254 48.9402C130.026 49.7179 129.412 50.8231 129.412 52.2558C129.412 53.6475 129.923 54.7527 130.947 55.5714C132.011 56.3901 133.566 57.1473 135.613 57.8432L138.376 58.6414C141.323 59.5419 143.431 60.7904 144.7 62.3868C145.969 63.9423 146.604 65.8252 146.604 68.0356C146.604 71.0237 145.416 73.4183 143.042 75.2194C140.709 77.0205 137.414 77.921 133.157 77.921ZM160.943 77.921C158.324 77.921 156.277 77.2661 154.803 75.9562C153.371 74.6463 152.654 72.5587 152.654 69.6934V48.6946H148.418V48.0806L149.891 47.835C151.16 47.5485 152.245 47.1391 153.146 46.607C154.087 46.0749 155.008 45.3585 155.909 44.458L160.943 38.8706H161.557L161.373 47.4666H168.25V48.6946H161.312V70.7986C161.312 72.2313 161.619 73.316 162.233 74.0528C162.888 74.7896 163.706 75.158 164.689 75.158C165.548 75.158 166.306 74.9533 166.961 74.544C167.615 74.0937 168.27 73.5002 168.925 72.7634L169.539 73.3774C168.721 74.7691 167.595 75.8743 166.162 76.693C164.73 77.5117 162.99 77.921 160.943 77.921ZM190.483 91.736C188.846 91.736 187.536 91.3267 186.553 90.508C185.612 89.6893 185.141 88.6455 185.141 87.3766C185.141 86.2305 185.55 85.3095 186.369 84.6136C187.188 83.9177 188.109 83.5698 189.132 83.5698C190.155 83.5698 191.015 83.7745 191.711 84.1838C192.407 84.6341 193.021 85.2685 193.553 86.0872L193.983 86.5784C194.883 87.8064 195.784 87.7859 196.684 86.517C197.053 85.903 197.462 85.0843 197.912 84.061C198.404 83.0786 198.956 81.7483 199.57 80.07L187.659 51.5804C187.372 50.8027 187.065 50.1887 186.738 49.7384C186.41 49.2472 185.878 48.8379 185.141 48.5104L184.036 48.0806V47.4666H199.325V48.0192L198.097 48.5104C197.196 48.7969 196.725 49.2677 196.684 49.9226C196.684 50.5366 196.848 51.3143 197.176 52.2558L203.561 68.8338L209.64 52.0716C209.967 51.1301 210.09 50.3524 210.008 49.7384C209.926 49.0835 209.415 48.6332 208.473 48.3876L207.184 48.0806V47.4666H215.718V48.0806L214.368 48.5104C213.426 48.7969 212.771 49.2063 212.403 49.7384C212.034 50.2705 211.686 51.0073 211.359 51.9488L201.474 78.9034C199.877 83.2014 198.281 86.4147 196.684 88.5432C195.088 90.6717 193.021 91.736 190.483 91.736ZM231.668 77.921C228.557 77.921 225.855 77.2865 223.563 76.0176C221.271 74.7077 219.49 72.8657 218.221 70.4916C216.993 68.1175 216.379 65.334 216.379 62.1412C216.379 58.9484 217.034 56.1854 218.344 53.8522C219.695 51.519 221.516 49.7179 223.809 48.449C226.142 47.1801 228.762 46.5456 231.668 46.5456C234.574 46.5456 237.173 47.1801 239.466 48.449C241.758 49.677 243.559 51.4576 244.869 53.7908C246.22 56.124 246.895 58.9075 246.895 62.1412C246.895 65.3749 246.261 68.1789 244.992 70.553C243.764 72.8862 242.004 74.7077 239.711 76.0176C237.46 77.2865 234.779 77.921 231.668 77.921ZM231.668 76.693C233.101 76.693 234.247 76.2837 235.106 75.465C235.966 74.6463 236.58 73.1932 236.948 71.1056C237.358 69.018 237.562 66.0708 237.562 62.264C237.562 58.4163 237.358 55.4486 236.948 53.361C236.58 51.2734 235.966 49.8203 235.106 49.0016C234.247 48.1829 233.101 47.7736 231.668 47.7736C230.235 47.7736 229.069 48.1829 228.168 49.0016C227.309 49.8203 226.674 51.2734 226.265 53.361C225.896 55.4486 225.712 58.4163 225.712 62.264C225.712 66.0708 225.896 69.018 226.265 71.1056C226.674 73.1932 227.309 74.6463 228.168 75.465C229.069 76.2837 230.235 76.693 231.668 76.693ZM260.466 77.921C258.869 77.921 257.396 77.614 256.045 77C254.735 76.386 253.691 75.4036 252.913 74.0528C252.177 72.6611 251.829 70.8395 251.87 68.5882L252.054 52.8084C252.054 51.8669 251.89 51.1915 251.563 50.7822C251.235 50.3729 250.723 50.0863 250.028 49.9226L249.291 49.677V49.063L260.281 46.914L260.895 47.528L260.588 56.2468V71.0442C260.588 72.3541 260.957 73.316 261.694 73.93C262.471 74.544 263.433 74.851 264.579 74.851C265.725 74.851 266.749 74.6873 267.649 74.3598C268.55 74.0323 269.45 73.5411 270.351 72.8862L270.597 52.8698C270.597 51.9283 270.453 51.2734 270.167 50.905C269.88 50.4957 269.348 50.2091 268.57 50.0454L267.956 49.8612V49.2472L278.701 46.914L279.315 47.528L279.131 56.2468V72.8862C279.131 73.7867 279.254 74.4826 279.5 74.9738C279.745 75.465 280.277 75.8743 281.096 76.2018L281.71 76.386V77L270.965 77.614L270.412 73.9914C269.062 75.0966 267.588 76.0381 265.992 76.8158C264.436 77.5526 262.594 77.921 260.466 77.921ZM284.189 77V76.386L285.11 76.1404C285.929 75.8948 286.482 75.5264 286.768 75.0352C287.096 74.544 287.259 73.9095 287.259 73.1318V53.9136C287.259 53.0131 287.096 52.3581 286.768 51.9488C286.482 51.4985 285.929 51.1915 285.11 51.0278L284.189 50.7822V50.1682L294.75 46.607L295.364 47.221L295.917 52.5014V52.9926C296.49 51.8465 297.227 50.8027 298.127 49.8612C299.069 48.8788 300.092 48.0806 301.197 47.4666C302.343 46.8526 303.469 46.5456 304.574 46.5456C306.13 46.5456 307.317 46.9754 308.135 47.835C308.954 48.6946 309.363 49.7793 309.363 51.0892C309.363 52.4809 308.954 53.5657 308.135 54.3434C307.358 55.0802 306.416 55.4486 305.311 55.4486C303.592 55.4486 302.077 54.589 300.767 52.8698L300.645 52.747C300.235 52.1739 299.765 51.8669 299.232 51.826C298.7 51.7441 298.209 51.9897 297.759 52.5628C297.349 52.9312 297.002 53.3815 296.715 53.9136C296.469 54.4048 296.224 54.9779 295.978 55.6328V72.7634C295.978 74.4007 296.695 75.4241 298.127 75.8334L300.092 76.386V77H284.189ZM335.285 77.921C333.28 77.921 331.478 77.6754 329.882 77.1842C328.286 76.7339 326.812 76.1609 325.461 75.465L325.523 68.1584H326.137L328.224 71.8424C329.125 73.4797 330.107 74.7077 331.171 75.5264C332.277 76.3041 333.668 76.693 335.347 76.693C337.311 76.693 338.887 76.2632 340.074 75.4036C341.302 74.5031 341.916 73.316 341.916 71.8424C341.916 70.4916 341.487 69.3864 340.627 68.5268C339.767 67.6672 338.171 66.8895 335.838 66.1936L333.259 65.3954C330.762 64.6586 328.797 63.5125 327.365 61.957C325.932 60.4015 325.216 58.4981 325.216 56.2468C325.216 53.5452 326.28 51.2529 328.408 49.37C330.537 47.4871 333.587 46.5456 337.557 46.5456C339.153 46.5456 340.648 46.7298 342.039 47.0982C343.472 47.4257 344.843 47.9373 346.153 48.6332L345.785 55.2644H345.171L343.022 51.4576C342.244 50.1068 341.466 49.1653 340.688 48.6332C339.952 48.0601 338.826 47.7736 337.311 47.7736C335.92 47.7736 334.61 48.1625 333.382 48.9402C332.154 49.7179 331.54 50.8231 331.54 52.2558C331.54 53.6475 332.052 54.7527 333.075 55.5714C334.139 56.3901 335.695 57.1473 337.741 57.8432L340.504 58.6414C343.451 59.5419 345.56 60.7904 346.828 62.3868C348.097 63.9423 348.732 65.8252 348.732 68.0356C348.732 71.0237 347.545 73.4183 345.171 75.2194C342.837 77.0205 339.542 77.921 335.285 77.921ZM366.817 46.5456C369.478 46.5456 371.75 47.0982 373.632 48.2034C375.515 49.2677 376.948 50.7413 377.93 52.6242C378.954 54.4662 379.465 56.5743 379.465 58.9484C379.465 59.3987 379.445 59.8694 379.404 60.3606C379.363 60.8109 379.281 61.2202 379.158 61.5886H360.861C360.902 66.0094 361.68 69.2022 363.194 71.167C364.75 73.0909 367.042 74.0528 370.071 74.0528C372.118 74.0528 373.776 73.7253 375.045 73.0704C376.314 72.4155 377.501 71.4535 378.606 70.1846L379.22 70.7372C377.951 72.9885 376.252 74.7487 374.124 76.0176C372.036 77.2865 369.519 77.921 366.571 77.921C363.665 77.921 361.086 77.307 358.835 76.079C356.584 74.8101 354.824 73.009 353.555 70.6758C352.286 68.3426 351.651 65.5591 351.651 62.3254C351.651 58.9689 352.388 56.124 353.862 53.7908C355.335 51.4167 357.218 49.6156 359.51 48.3876C361.844 47.1596 364.279 46.5456 366.817 46.5456ZM366.633 47.7736C365.446 47.7736 364.422 48.142 363.563 48.8788C362.744 49.5747 362.089 50.8436 361.598 52.6856C361.148 54.4867 360.902 57.045 360.861 60.3606H371.361C371.77 55.8989 371.606 52.6856 370.869 50.7208C370.133 48.756 368.72 47.7736 366.633 47.7736ZM382.525 77V76.386L383.385 76.1404C384.818 75.7311 385.534 74.7282 385.534 73.1318V53.9136C385.534 53.0131 385.391 52.3581 385.104 51.9488C384.818 51.4985 384.265 51.1915 383.446 51.0278L382.525 50.7822V50.1682L393.025 46.607L393.639 47.221L394.13 50.905C395.563 49.6361 397.179 48.5923 398.981 47.7736C400.782 46.9549 402.562 46.5456 404.322 46.5456C407.024 46.5456 409.091 47.2824 410.524 48.756C411.997 50.2296 412.734 52.4809 412.734 55.51V73.1932C412.734 74.7896 413.512 75.7925 415.067 76.2018L415.62 76.386V77H401.13V76.386L401.928 76.1404C403.36 75.6901 404.077 74.6873 404.077 73.1318V53.5452C404.077 50.9255 402.767 49.6156 400.147 49.6156C398.346 49.6156 396.381 50.5161 394.253 52.3172V73.1932C394.253 74.7896 394.969 75.7925 396.402 76.2018L396.954 76.386V77H382.525ZM428.644 77.921C426.639 77.921 424.838 77.6754 423.241 77.1842C421.645 76.7339 420.171 76.1609 418.82 75.465L418.882 68.1584H419.496L421.583 71.8424C422.484 73.4797 423.466 74.7077 424.531 75.5264C425.636 76.3041 427.028 76.693 428.706 76.693C430.671 76.693 432.247 76.2632 433.434 75.4036C434.662 74.5031 435.276 73.316 435.276 71.8424C435.276 70.4916 434.846 69.3864 433.986 68.5268C433.127 67.6672 431.53 66.8895 429.197 66.1936L426.618 65.3954C424.121 64.6586 422.157 63.5125 420.724 61.957C419.291 60.4015 418.575 58.4981 418.575 56.2468C418.575 53.5452 419.639 51.2529 421.768 49.37C423.896 47.4871 426.946 46.5456 430.916 46.5456C432.513 46.5456 434.007 46.7298 435.398 47.0982C436.831 47.4257 438.202 47.9373 439.512 48.6332L439.144 55.2644H438.53L436.381 51.4576C435.603 50.1068 434.825 49.1653 434.048 48.6332C433.311 48.0601 432.185 47.7736 430.671 47.7736C429.279 47.7736 427.969 48.1625 426.741 48.9402C425.513 49.7179 424.899 50.8231 424.899 52.2558C424.899 53.6475 425.411 54.7527 426.434 55.5714C427.498 56.3901 429.054 57.1473 431.1 57.8432L433.863 58.6414C436.811 59.5419 438.919 60.7904 440.188 62.3868C441.457 63.9423 442.091 65.8252 442.091 68.0356C442.091 71.0237 440.904 73.4183 438.53 75.2194C436.197 77.0205 432.902 77.921 428.644 77.921ZM460.176 46.5456C462.837 46.5456 465.109 47.0982 466.992 48.2034C468.875 49.2677 470.307 50.7413 471.29 52.6242C472.313 54.4662 472.825 56.5743 472.825 58.9484C472.825 59.3987 472.804 59.8694 472.763 60.3606C472.722 60.8109 472.64 61.2202 472.518 61.5886H454.22C454.261 66.0094 455.039 69.2022 456.554 71.167C458.109 73.0909 460.401 74.0528 463.43 74.0528C465.477 74.0528 467.135 73.7253 468.404 73.0704C469.673 72.4155 470.86 71.4535 471.965 70.1846L472.579 70.7372C471.31 72.9885 469.611 74.7487 467.483 76.0176C465.395 77.2865 462.878 77.921 459.931 77.921C457.024 77.921 454.446 77.307 452.194 76.079C449.943 74.8101 448.183 73.009 446.914 70.6758C445.645 68.3426 445.01 65.5591 445.01 62.3254C445.01 58.9689 445.747 56.124 447.221 53.7908C448.694 51.4167 450.577 49.6156 452.87 48.3876C455.203 47.1596 457.638 46.5456 460.176 46.5456ZM459.992 47.7736C458.805 47.7736 457.782 48.142 456.922 48.8788C456.103 49.5747 455.448 50.8436 454.957 52.6856C454.507 54.4867 454.261 57.045 454.22 60.3606H464.72C465.129 55.8989 464.965 52.6856 464.229 50.7208C463.492 48.756 462.08 47.7736 459.992 47.7736ZM486.507 77.921C484.501 77.921 482.7 77.6754 481.104 77.1842C479.507 76.7339 478.034 76.1609 476.683 75.465L476.744 68.1584H477.358L479.446 71.8424C480.346 73.4797 481.329 74.7077 482.393 75.5264C483.498 76.3041 484.89 76.693 486.568 76.693C488.533 76.693 490.109 76.2632 491.296 75.4036C492.524 74.5031 493.138 73.316 493.138 71.8424C493.138 70.4916 492.708 69.3864 491.849 68.5268C490.989 67.6672 489.393 66.8895 487.059 66.1936L484.481 65.3954C481.984 64.6586 480.019 63.5125 478.586 61.957C477.153 60.4015 476.437 58.4981 476.437 56.2468C476.437 53.5452 477.501 51.2529 479.63 49.37C481.758 47.4871 484.808 46.5456 488.779 46.5456C490.375 46.5456 491.869 46.7298 493.261 47.0982C494.693 47.4257 496.065 47.9373 497.375 48.6332L497.006 55.2644H496.392L494.243 51.4576C493.465 50.1068 492.688 49.1653 491.91 48.6332C491.173 48.0601 490.047 47.7736 488.533 47.7736C487.141 47.7736 485.831 48.1625 484.603 48.9402C483.375 49.7179 482.761 50.8231 482.761 52.2558C482.761 53.6475 483.273 54.7527 484.296 55.5714C485.361 56.3901 486.916 57.1473 488.963 57.8432L491.726 58.6414C494.673 59.5419 496.781 60.7904 498.05 62.3868C499.319 63.9423 499.953 65.8252 499.953 68.0356C499.953 71.0237 498.766 73.4183 496.392 75.2194C494.059 77.0205 490.764 77.921 486.507 77.921ZM505.901 86.7626L505.533 85.903C506.925 85.0434 507.969 83.9996 508.664 82.7716C509.401 81.5845 509.913 80.0905 510.199 78.2894L508.173 77.4298C506.986 76.8567 506.065 76.1199 505.41 75.2194C504.796 74.2779 504.489 73.3365 504.489 72.395C504.489 70.9623 504.96 69.7753 505.901 68.8338C506.843 67.8514 508.071 67.3602 509.585 67.3602C511.141 67.3602 512.389 67.9128 513.331 69.018C514.313 70.0823 514.804 71.6377 514.804 73.6844C514.804 75.9357 514.334 77.9415 513.392 79.7016C512.492 81.5027 511.366 82.9967 510.015 84.1838C508.664 85.4118 507.293 86.2714 505.901 86.7626ZM532.83 77V76.386L534.365 75.8334C535.184 75.5059 535.818 75.1171 536.269 74.6668C536.719 74.1756 537.087 73.5002 537.374 72.6406L550.022 36.3532H555.241L567.705 72.8862C568.033 73.7867 568.401 74.4826 568.811 74.9738C569.22 75.4241 569.854 75.8129 570.714 76.1404L571.451 76.386V77H555.855V76.386L556.776 76.079C557.636 75.7515 558.147 75.3013 558.311 74.7282C558.516 74.1142 558.495 73.3979 558.25 72.5792L555.364 63.7376H541.733L538.786 72.395C538.499 73.2955 538.397 74.0119 538.479 74.544C538.602 75.0761 539.093 75.5059 539.953 75.8334L541.303 76.386V77H532.83ZM542.163 62.5096H554.996L548.794 43.4142L542.163 62.5096ZM21.5034 151V150.386L22.3016 150.202C23.0794 149.997 23.6934 149.649 24.1436 149.158C24.5939 148.626 24.819 147.95 24.819 147.132C24.819 145.617 24.819 144.123 24.819 142.65C24.86 141.135 24.8804 139.621 24.8804 138.106V122.695H21.442V122.019L22.7928 121.774C23.6115 121.692 24.205 121.405 24.5734 120.914C24.9418 120.423 25.2079 119.747 25.3716 118.888C25.781 117.291 26.3745 115.9 27.1522 114.713C27.9709 113.485 28.8919 112.359 29.9152 111.336C31.4707 109.862 33.108 108.839 34.8272 108.266C36.5874 107.652 38.3066 107.345 39.9848 107.345C41.6222 107.345 43.1162 107.693 44.467 108.388C45.8178 109.043 46.4932 110.149 46.4932 111.704C46.4932 112.809 46.1658 113.689 45.5108 114.344C44.8559 114.958 43.9349 115.265 42.7478 115.265C41.7654 115.265 40.8649 114.999 40.0462 114.467C39.2276 113.935 38.4294 112.993 37.6516 111.643L36.792 110.599C36.3418 110.026 35.8915 109.76 35.4412 109.801C34.991 109.801 34.6635 110.128 34.4588 110.783C34.1723 112.216 33.9472 113.894 33.7834 115.818C33.6606 117.742 33.5992 119.625 33.5992 121.467H40.476V122.695H33.5992V147.009C33.5992 148.564 34.4179 149.567 36.0552 150.018L37.5902 150.386V151H21.5034ZM57.2416 151.921C54.1306 151.921 51.429 151.287 49.1368 150.018C46.8445 148.708 45.0639 146.866 43.795 144.492C42.567 142.117 41.953 139.334 41.953 136.141C41.953 132.948 42.6079 130.185 43.9178 127.852C45.2686 125.519 47.0901 123.718 49.3824 122.449C51.7156 121.18 54.3353 120.546 57.2416 120.546C60.1478 120.546 62.7471 121.18 65.0394 122.449C67.3316 123.677 69.1327 125.458 70.4426 127.791C71.7934 130.124 72.4688 132.907 72.4688 136.141C72.4688 139.375 71.8343 142.179 70.5654 144.553C69.3374 146.886 67.5772 148.708 65.285 150.018C63.0336 151.287 60.3525 151.921 57.2416 151.921ZM57.2416 150.693C58.6742 150.693 59.8204 150.284 60.68 149.465C61.5396 148.646 62.1536 147.193 62.522 145.106C62.9313 143.018 63.136 140.071 63.136 136.264C63.136 132.416 62.9313 129.449 62.522 127.361C62.1536 125.273 61.5396 123.82 60.68 123.002C59.8204 122.183 58.6742 121.774 57.2416 121.774C55.8089 121.774 54.6423 122.183 53.7418 123.002C52.8822 123.82 52.2477 125.273 51.8384 127.361C51.47 129.449 51.2858 132.416 51.2858 136.264C51.2858 140.071 51.47 143.018 51.8384 145.106C52.2477 147.193 52.8822 148.646 53.7418 149.465C54.6423 150.284 55.8089 150.693 57.2416 150.693ZM91.0595 151.921C87.9486 151.921 85.247 151.287 82.9547 150.018C80.6625 148.708 78.8819 146.866 77.6129 144.492C76.3849 142.117 75.7709 139.334 75.7709 136.141C75.7709 132.948 76.4259 130.185 77.7357 127.852C79.0865 125.519 80.9081 123.718 83.2003 122.449C85.5335 121.18 88.1533 120.546 91.0595 120.546C93.9658 120.546 96.5651 121.18 98.8573 122.449C101.15 123.677 102.951 125.458 104.261 127.791C105.611 130.124 106.287 132.907 106.287 136.141C106.287 139.375 105.652 142.179 104.383 144.553C103.155 146.886 101.395 148.708 99.1029 150.018C96.8516 151.287 94.1705 151.921 91.0595 151.921ZM91.0595 150.693C92.4922 150.693 93.6384 150.284 94.498 149.465C95.3576 148.646 95.9716 147.193 96.34 145.106C96.7493 143.018 96.9539 140.071 96.9539 136.264C96.9539 132.416 96.7493 129.449 96.34 127.361C95.9716 125.273 95.3576 123.82 94.498 123.002C93.6384 122.183 92.4922 121.774 91.0595 121.774C89.6269 121.774 88.4603 122.183 87.5597 123.002C86.7001 123.82 86.0657 125.273 85.6563 127.361C85.2879 129.449 85.1037 132.416 85.1037 136.264C85.1037 140.071 85.2879 143.018 85.6563 145.106C86.0657 147.193 86.7001 148.646 87.5597 149.465C88.4603 150.284 89.6269 150.693 91.0595 150.693ZM122.36 151.921C119.945 151.921 117.776 151.389 115.852 150.325C113.928 149.219 112.393 147.541 111.247 145.29C110.142 142.998 109.589 140.071 109.589 136.51C109.589 132.907 110.223 129.94 111.492 127.607C112.761 125.232 114.44 123.472 116.527 122.326C118.615 121.139 120.887 120.546 123.343 120.546C124.775 120.546 126.146 120.689 127.456 120.975C128.766 121.262 129.933 121.692 130.956 122.265V114.283C130.956 113.423 130.813 112.789 130.526 112.379C130.281 111.97 129.728 111.684 128.869 111.52L127.702 111.274V110.66L138.877 107.959L139.552 108.511L139.307 117.107V147.132C139.307 147.95 139.45 148.626 139.736 149.158C140.023 149.649 140.555 149.997 141.333 150.202L141.885 150.386V151L131.386 151.675L130.833 149.465C129.728 150.202 128.459 150.795 127.027 151.246C125.635 151.696 124.079 151.921 122.36 151.921ZM125.921 149.649C127.641 149.649 129.216 149.138 130.649 148.114V123.738C129.135 122.756 127.579 122.265 125.983 122.265C124.018 122.265 122.34 123.411 120.948 125.703C119.556 127.955 118.86 131.516 118.86 136.387C118.86 141.258 119.515 144.696 120.825 146.702C122.135 148.667 123.834 149.649 125.921 149.649ZM158.156 151V150.386L158.893 150.14C160.366 149.649 161.103 148.626 161.103 147.07V114.221C161.103 113.403 160.939 112.789 160.612 112.379C160.284 111.929 159.711 111.602 158.893 111.397L158.094 111.213V110.599L169.331 107.959L170.067 108.511L169.822 117.107V138.106C169.822 139.621 169.822 141.135 169.822 142.65C169.863 144.123 169.883 145.597 169.883 147.07C169.883 147.889 170.047 148.564 170.374 149.097C170.702 149.588 171.255 149.956 172.032 150.202L172.83 150.386V151H158.156ZM191.074 151.921C187.963 151.921 185.262 151.287 182.97 150.018C180.677 148.708 178.897 146.866 177.628 144.492C176.4 142.117 175.786 139.334 175.786 136.141C175.786 132.948 176.441 130.185 177.751 127.852C179.101 125.519 180.923 123.718 183.215 122.449C185.548 121.18 188.168 120.546 191.074 120.546C193.981 120.546 196.58 121.18 198.872 122.449C201.164 123.677 202.966 125.458 204.275 127.791C205.626 130.124 206.302 132.907 206.302 136.141C206.302 139.375 205.667 142.179 204.398 144.553C203.17 146.886 201.41 148.708 199.118 150.018C196.866 151.287 194.185 151.921 191.074 151.921ZM191.074 150.693C192.507 150.693 193.653 150.284 194.513 149.465C195.372 148.646 195.986 147.193 196.355 145.106C196.764 143.018 196.969 140.071 196.969 136.264C196.969 132.416 196.764 129.449 196.355 127.361C195.986 125.273 195.372 123.82 194.513 123.002C193.653 122.183 192.507 121.774 191.074 121.774C189.642 121.774 188.475 122.183 187.575 123.002C186.715 123.82 186.081 125.273 185.671 127.361C185.303 129.449 185.119 132.416 185.119 136.264C185.119 140.071 185.303 143.018 185.671 145.106C186.081 147.193 186.715 148.646 187.575 149.465C188.475 150.284 189.642 150.693 191.074 150.693ZM222.392 151.184L211.524 125.089C210.951 123.697 209.969 122.776 208.577 122.326L207.718 122.081V121.467H223.62V122.081L222.515 122.326C220.919 122.736 220.427 123.8 221.041 125.519L227.488 142.65L233.506 125.642C233.833 124.823 233.915 124.148 233.751 123.616C233.587 123.083 233.096 122.695 232.278 122.449L230.743 122.081V121.467H239.646V122.081L237.865 122.51C237.087 122.715 236.473 123.022 236.023 123.431C235.614 123.841 235.266 124.455 234.979 125.273L225.953 151.184H222.392ZM254.99 120.546C257.651 120.546 259.922 121.098 261.805 122.203C263.688 123.268 265.121 124.741 266.103 126.624C267.127 128.466 267.638 130.574 267.638 132.948C267.638 133.399 267.618 133.869 267.577 134.361C267.536 134.811 267.454 135.22 267.331 135.589H249.034C249.075 140.009 249.853 143.202 251.367 145.167C252.923 147.091 255.215 148.053 258.244 148.053C260.291 148.053 261.949 147.725 263.217 147.07C264.486 146.415 265.673 145.454 266.779 144.185L267.393 144.737C266.124 146.989 264.425 148.749 262.296 150.018C260.209 151.287 257.691 151.921 254.744 151.921C251.838 151.921 249.259 151.307 247.008 150.079C244.757 148.81 242.996 147.009 241.727 144.676C240.459 142.343 239.824 139.559 239.824 136.325C239.824 132.969 240.561 130.124 242.034 127.791C243.508 125.417 245.391 123.616 247.683 122.388C250.016 121.16 252.452 120.546 254.99 120.546ZM254.806 121.774C253.619 121.774 252.595 122.142 251.736 122.879C250.917 123.575 250.262 124.844 249.771 126.686C249.321 128.487 249.075 131.045 249.034 134.361H259.533C259.943 129.899 259.779 126.686 259.042 124.721C258.305 122.756 256.893 121.774 254.806 121.774ZM270.698 151V150.386L271.619 150.14C272.438 149.895 272.99 149.526 273.277 149.035C273.604 148.544 273.768 147.91 273.768 147.132V127.914C273.768 127.013 273.604 126.358 273.277 125.949C272.99 125.499 272.438 125.192 271.619 125.028L270.698 124.782V124.168L281.259 120.607L281.873 121.221L282.426 126.501V126.993C282.999 125.846 283.735 124.803 284.636 123.861C285.577 122.879 286.601 122.081 287.706 121.467C288.852 120.853 289.978 120.546 291.083 120.546C292.638 120.546 293.826 120.975 294.644 121.835C295.463 122.695 295.872 123.779 295.872 125.089C295.872 126.481 295.463 127.566 294.644 128.343C293.866 129.08 292.925 129.449 291.82 129.449C290.101 129.449 288.586 128.589 287.276 126.87L287.153 126.747C286.744 126.174 286.273 125.867 285.741 125.826C285.209 125.744 284.718 125.99 284.268 126.563C283.858 126.931 283.51 127.381 283.224 127.914C282.978 128.405 282.733 128.978 282.487 129.633V146.763C282.487 148.401 283.203 149.424 284.636 149.833L286.601 150.386V151H270.698ZM303.92 106.117C305.435 106.117 306.642 106.669 307.543 107.774C308.484 108.839 308.955 110.251 308.955 112.011C308.955 114.303 308.28 116.452 306.929 118.458C305.578 120.423 303.9 121.896 301.894 122.879L301.526 122.142C302.385 121.487 303.143 120.648 303.798 119.625C304.453 118.601 304.923 117.332 305.21 115.818L303.92 115.511C302.488 115.183 301.362 114.59 300.543 113.73C299.766 112.83 299.377 111.765 299.377 110.537C299.377 109.228 299.807 108.163 300.666 107.345C301.567 106.526 302.651 106.117 303.92 106.117ZM317.897 151.921C315.891 151.921 314.09 151.675 312.493 151.184C310.897 150.734 309.423 150.161 308.073 149.465L308.134 142.158H308.748L310.836 145.842C311.736 147.48 312.719 148.708 313.783 149.526C314.888 150.304 316.28 150.693 317.958 150.693C319.923 150.693 321.499 150.263 322.686 149.404C323.914 148.503 324.528 147.316 324.528 145.842C324.528 144.492 324.098 143.386 323.238 142.527C322.379 141.667 320.782 140.889 318.449 140.194L315.87 139.395C313.373 138.659 311.409 137.512 309.976 135.957C308.543 134.402 307.827 132.498 307.827 130.247C307.827 127.545 308.891 125.253 311.02 123.37C313.148 121.487 316.198 120.546 320.168 120.546C321.765 120.546 323.259 120.73 324.651 121.098C326.083 121.426 327.455 121.937 328.764 122.633L328.396 129.264H327.782L325.633 125.458C324.855 124.107 324.078 123.165 323.3 122.633C322.563 122.06 321.437 121.774 319.923 121.774C318.531 121.774 317.221 122.162 315.993 122.94C314.765 123.718 314.151 124.823 314.151 126.256C314.151 127.648 314.663 128.753 315.686 129.571C316.75 130.39 318.306 131.147 320.353 131.843L323.116 132.641C326.063 133.542 328.171 134.79 329.44 136.387C330.709 137.942 331.343 139.825 331.343 142.036C331.343 145.024 330.156 147.418 327.782 149.219C325.449 151.02 322.154 151.921 317.897 151.921ZM347.388 165.122V164.508L348.125 164.262C349.64 163.853 350.397 162.871 350.397 161.315V127.914C350.397 127.013 350.233 126.338 349.906 125.887C349.619 125.437 349.067 125.13 348.248 124.966L347.388 124.782V124.168L357.826 120.607L358.44 121.221L358.993 123.124C360.344 122.306 361.838 121.671 363.475 121.221C365.153 120.771 366.873 120.546 368.633 120.546C372.153 120.546 374.936 121.896 376.983 124.598C379.071 127.259 380.114 131.086 380.114 136.08C380.114 140.992 378.968 144.86 376.676 147.684C374.425 150.509 371.232 151.921 367.098 151.921C363.864 151.921 361.142 151.45 358.931 150.509V161.131C358.931 162.768 359.668 163.792 361.142 164.201L362.308 164.508V165.122H347.388ZM364.15 150.14C366.197 150.14 367.814 149.076 369.001 146.948C370.229 144.819 370.843 141.278 370.843 136.325C370.843 131.372 370.27 127.914 369.124 125.949C367.978 123.943 366.32 122.94 364.15 122.94C362.636 122.94 360.958 123.431 359.116 124.414V149.158C360.671 149.813 362.349 150.14 364.15 150.14ZM391.49 151.921C389.116 151.921 387.11 151.246 385.473 149.895C383.876 148.544 383.078 146.6 383.078 144.062C383.078 142.138 384.06 140.378 386.025 138.781C387.99 137.144 391.08 135.916 395.297 135.097C395.951 134.975 396.688 134.852 397.507 134.729C398.326 134.565 399.185 134.402 400.086 134.238V129.387C400.086 126.604 399.738 124.659 399.042 123.554C398.387 122.408 397.343 121.835 395.911 121.835C394.928 121.835 394.15 122.162 393.577 122.817C393.004 123.431 392.636 124.516 392.472 126.072L392.349 126.747C392.267 128.507 391.838 129.797 391.06 130.615C390.282 131.434 389.32 131.843 388.174 131.843C387.11 131.843 386.23 131.516 385.534 130.861C384.838 130.206 384.49 129.326 384.49 128.221C384.49 126.542 385.063 125.13 386.209 123.984C387.396 122.838 388.952 121.978 390.876 121.405C392.8 120.832 394.887 120.546 397.139 120.546C400.782 120.546 403.586 121.446 405.55 123.247C407.556 125.007 408.559 127.893 408.559 131.905V145.474C408.559 147.316 409.419 148.237 411.138 148.237H412.489L413.041 148.728C412.263 149.711 411.404 150.468 410.462 151C409.562 151.532 408.272 151.798 406.594 151.798C404.793 151.798 403.36 151.389 402.296 150.57C401.273 149.711 400.597 148.585 400.27 147.193C399.042 148.503 397.773 149.629 396.463 150.57C395.194 151.471 393.536 151.921 391.49 151.921ZM395.235 148.176C396.054 148.176 396.811 147.991 397.507 147.623C398.244 147.214 399.103 146.6 400.086 145.781V135.466C399.676 135.548 399.267 135.63 398.858 135.711C398.448 135.793 397.978 135.875 397.446 135.957C395.563 136.448 394.048 137.287 392.902 138.474C391.797 139.621 391.244 141.176 391.244 143.141C391.244 144.819 391.633 146.088 392.411 146.948C393.188 147.766 394.13 148.176 395.235 148.176ZM414.185 151V150.386L415.106 150.14C415.924 149.895 416.477 149.526 416.764 149.035C417.091 148.544 417.255 147.91 417.255 147.132V127.914C417.255 127.013 417.091 126.358 416.764 125.949C416.477 125.499 415.924 125.192 415.106 125.028L414.185 124.782V124.168L424.746 120.607L425.36 121.221L425.912 126.501V126.993C426.485 125.846 427.222 124.803 428.123 123.861C429.064 122.879 430.087 122.081 431.193 121.467C432.339 120.853 433.464 120.546 434.57 120.546C436.125 120.546 437.312 120.975 438.131 121.835C438.949 122.695 439.359 123.779 439.359 125.089C439.359 126.481 438.949 127.566 438.131 128.343C437.353 129.08 436.412 129.449 435.306 129.449C433.587 129.449 432.073 128.589 430.763 126.87L430.64 126.747C430.231 126.174 429.76 125.867 429.228 125.826C428.696 125.744 428.204 125.99 427.754 126.563C427.345 126.931 426.997 127.381 426.71 127.914C426.465 128.405 426.219 128.978 425.974 129.633V146.763C425.974 148.401 426.69 149.424 428.123 149.833L430.087 150.386V151H414.185ZM448.932 151.921C446.558 151.921 444.552 151.246 442.915 149.895C441.319 148.544 440.521 146.6 440.521 144.062C440.521 142.138 441.503 140.378 443.468 138.781C445.433 137.144 448.523 135.916 452.739 135.097C453.394 134.975 454.131 134.852 454.95 134.729C455.768 134.565 456.628 134.402 457.528 134.238V129.387C457.528 126.604 457.18 124.659 456.485 123.554C455.83 122.408 454.786 121.835 453.353 121.835C452.371 121.835 451.593 122.162 451.02 122.817C450.447 123.431 450.078 124.516 449.915 126.072L449.792 126.747C449.71 128.507 449.28 129.797 448.503 130.615C447.725 131.434 446.763 131.843 445.617 131.843C444.552 131.843 443.672 131.516 442.977 130.861C442.281 130.206 441.933 129.326 441.933 128.221C441.933 126.542 442.506 125.13 443.652 123.984C444.839 122.838 446.394 121.978 448.318 121.405C450.242 120.832 452.33 120.546 454.581 120.546C458.224 120.546 461.028 121.446 462.993 123.247C464.999 125.007 466.002 127.893 466.002 131.905V145.474C466.002 147.316 466.861 148.237 468.58 148.237H469.931L470.484 148.728C469.706 149.711 468.846 150.468 467.905 151C467.004 151.532 465.715 151.798 464.037 151.798C462.236 151.798 460.803 151.389 459.739 150.57C458.715 149.711 458.04 148.585 457.713 147.193C456.485 148.503 455.216 149.629 453.906 150.57C452.637 151.471 450.979 151.921 448.932 151.921ZM452.678 148.176C453.496 148.176 454.254 147.991 454.95 147.623C455.686 147.214 456.546 146.6 457.528 145.781V135.466C457.119 135.548 456.71 135.63 456.3 135.711C455.891 135.793 455.42 135.875 454.888 135.957C453.005 136.448 451.491 137.287 450.345 138.474C449.239 139.621 448.687 141.176 448.687 143.141C448.687 144.819 449.076 146.088 449.853 146.948C450.631 147.766 451.573 148.176 452.678 148.176ZM484.764 151.921C482.349 151.921 480.179 151.389 478.256 150.325C476.332 149.219 474.797 147.541 473.651 145.29C472.545 142.998 471.993 140.071 471.993 136.51C471.993 132.907 472.627 129.94 473.896 127.607C475.165 125.232 476.843 123.472 478.931 122.326C481.019 121.139 483.29 120.546 485.746 120.546C487.179 120.546 488.55 120.689 489.86 120.975C491.17 121.262 492.337 121.692 493.36 122.265V114.283C493.36 113.423 493.217 112.789 492.93 112.379C492.685 111.97 492.132 111.684 491.272 111.52L490.106 111.274V110.66L501.281 107.959L501.956 108.511L501.71 117.107V147.132C501.71 147.95 501.854 148.626 502.14 149.158C502.427 149.649 502.959 149.997 503.737 150.202L504.289 150.386V151L493.79 151.675L493.237 149.465C492.132 150.202 490.863 150.795 489.43 151.246C488.039 151.696 486.483 151.921 484.764 151.921ZM488.325 149.649C490.044 149.649 491.62 149.138 493.053 148.114V123.738C491.538 122.756 489.983 122.265 488.387 122.265C486.422 122.265 484.744 123.411 483.352 125.703C481.96 127.955 481.264 131.516 481.264 136.387C481.264 141.258 481.919 144.696 483.229 146.702C484.539 148.667 486.238 149.649 488.325 149.649ZM514.372 117.353C512.981 117.353 511.793 116.923 510.811 116.063C509.87 115.163 509.399 114.037 509.399 112.686C509.399 111.295 509.87 110.169 510.811 109.309C511.793 108.45 512.981 108.02 514.372 108.02C515.764 108.02 516.931 108.45 517.872 109.309C518.814 110.169 519.284 111.295 519.284 112.686C519.284 114.037 518.814 115.163 517.872 116.063C516.931 116.923 515.764 117.353 514.372 117.353ZM507.127 151V150.386L507.987 150.14C508.805 149.895 509.358 149.526 509.644 149.035C509.972 148.544 510.136 147.889 510.136 147.07V127.852C510.136 126.993 509.972 126.358 509.644 125.949C509.358 125.499 508.805 125.192 507.987 125.028L507.127 124.844V124.23L518.363 120.607L518.977 121.221L518.793 129.94V147.132C518.793 147.95 518.936 148.605 519.223 149.097C519.55 149.588 520.103 149.956 520.881 150.202L521.495 150.386V151H507.127ZM534.835 151.921C532.83 151.921 531.028 151.675 529.432 151.184C527.836 150.734 526.362 150.161 525.011 149.465L525.073 142.158H525.687L527.774 145.842C528.675 147.48 529.657 148.708 530.721 149.526C531.827 150.304 533.218 150.693 534.897 150.693C536.861 150.693 538.437 150.263 539.624 149.404C540.852 148.503 541.466 147.316 541.466 145.842C541.466 144.492 541.037 143.386 540.177 142.527C539.317 141.667 537.721 140.889 535.388 140.194L532.809 139.395C530.312 138.659 528.347 137.512 526.915 135.957C525.482 134.402 524.766 132.498 524.766 130.247C524.766 127.545 525.83 125.253 527.958 123.37C530.087 121.487 533.137 120.546 537.107 120.546C538.703 120.546 540.198 120.73 541.589 121.098C543.022 121.426 544.393 121.937 545.703 122.633L545.335 129.264H544.721L542.572 125.458C541.794 124.107 541.016 123.165 540.238 122.633C539.502 122.06 538.376 121.774 536.861 121.774C535.47 121.774 534.16 122.162 532.932 122.94C531.704 123.718 531.09 124.823 531.09 126.256C531.09 127.648 531.602 128.753 532.625 129.571C533.689 130.39 535.245 131.147 537.291 131.843L540.054 132.641C543.001 133.542 545.11 134.79 546.378 136.387C547.647 137.942 548.282 139.825 548.282 142.036C548.282 145.024 547.095 147.418 544.721 149.219C542.387 151.02 539.092 151.921 534.835 151.921ZM566.367 120.546C569.028 120.546 571.3 121.098 573.182 122.203C575.065 123.268 576.498 124.741 577.48 126.624C578.504 128.466 579.015 130.574 579.015 132.948C579.015 133.399 578.995 133.869 578.954 134.361C578.913 134.811 578.831 135.22 578.708 135.589H560.411C560.452 140.009 561.23 143.202 562.744 145.167C564.3 147.091 566.592 148.053 569.621 148.053C571.668 148.053 573.326 147.725 574.595 147.07C575.864 146.415 577.051 145.454 578.156 144.185L578.77 144.737C577.501 146.989 575.802 148.749 573.674 150.018C571.586 151.287 569.069 151.921 566.121 151.921C563.215 151.921 560.636 151.307 558.385 150.079C556.134 148.81 554.374 147.009 553.105 144.676C551.836 142.343 551.201 139.559 551.201 136.325C551.201 132.969 551.938 130.124 553.412 127.791C554.885 125.417 556.768 123.616 559.06 122.388C561.394 121.16 563.829 120.546 566.367 120.546ZM566.183 121.774C564.996 121.774 563.972 122.142 563.113 122.879C562.294 123.575 561.639 124.844 561.148 126.686C560.698 128.487 560.452 131.045 560.411 134.361H570.911C571.32 129.899 571.156 126.686 570.419 124.721C569.683 122.756 568.27 121.774 566.183 121.774Z" fill="#202937"/>
<path d="M497.219 35.664C497.219 35.664 501.087 21.5086 498.151 12.6736" stroke="#BFA054" stroke-width="4" stroke-linecap="round"/>
<path d="M504.775 42.9977C504.775 42.9977 526.354 33.0024 532.957 33.8457" stroke="#BFA054" stroke-width="4" stroke-linecap="round"/>
<path d="M483.712 38.483C483.712 38.483 477.945 23.9309 474.43 22.2354" stroke="#BFA054" stroke-width="4" stroke-linecap="round"/>
</svg>
