<svg width="57" height="56" viewBox="0 0 57 56" fill="none" xmlns="http://www.w3.org/2000/svg">
<path d="M0.681152 27.9945C0.681152 5.74753 6.24289 0.185791 28.4898 0.185791C50.7368 0.185791 56.2985 5.74753 56.2985 27.9945C56.2985 50.2414 50.7368 55.8032 28.4898 55.8032C6.24289 55.8032 0.681152 50.2414 0.681152 27.9945Z" fill="#E9DEC6"/>
<path d="M27.1391 13.3032C27.2154 13.1927 27.3512 13.0738 27.4446 13.0398C27.5379 12.9973 27.6822 12.9889 27.7585 13.0143C27.8349 13.0398 27.9622 13.1163 28.0471 13.1927C28.1744 13.3116 28.1998 13.49 28.1998 15.962L28.7005 16.4887C28.9806 16.786 29.2945 17.1852 29.4049 17.3806C29.5831 17.7289 29.5916 17.8563 29.6764 23.0126H33.7498L33.7752 21.9677C33.7922 20.9569 33.7837 20.9314 33.6055 20.8719C33.4952 20.8379 33.283 20.6935 33.1218 20.5576C32.9691 20.4132 32.7654 20.1499 32.6805 19.98C32.5532 19.7251 32.5193 19.4703 32.5193 18.7652C32.5193 17.8988 32.5278 17.8648 33.0115 17.3211L34.2335 17.2957C35.2858 17.2702 35.481 17.2872 35.7271 17.4231C35.8798 17.508 36.0665 17.7119 36.1429 17.8733C36.2447 18.0942 36.2702 18.3575 36.2447 18.9351C36.2108 19.5637 36.1683 19.7676 35.9901 20.0819C35.8628 20.3028 35.6083 20.5746 34.9888 20.9739L34.9803 23.0551H36.406C37.5686 23.0551 37.9165 23.0805 38.3747 23.2165C38.6972 23.3184 39.1385 23.5392 39.4355 23.7601C39.7156 23.964 40.0465 24.2613 40.1653 24.4227C40.2841 24.5841 40.4878 24.9154 40.6151 25.1617C40.7509 25.4421 40.8357 25.7394 40.8357 25.9857C40.8357 26.1981 40.7848 26.4954 40.7254 26.6483C40.6575 26.7927 40.4708 27.0476 40.3011 27.2005C40.1229 27.3449 39.8853 27.4978 39.758 27.5402C39.6222 27.5742 38.1202 27.5997 36.4144 27.5997C33.4188 27.5997 33.2915 27.5912 33.1218 27.4298C33.0115 27.3279 32.9351 27.158 32.9351 27.0051C32.9351 26.8522 33.0115 26.6823 33.1218 26.5803C33.2915 26.4189 33.4528 26.4105 36.3975 26.368C39.0282 26.334 39.5119 26.3085 39.5883 26.1981C39.6307 26.1301 39.6477 25.9772 39.6222 25.8583C39.5968 25.7394 39.427 25.459 39.2403 25.2212C39.0536 24.9749 38.7227 24.686 37.9929 24.2868L27.7925 24.2698C17.8976 24.2443 17.5667 24.2528 17.1423 24.4057C16.8793 24.5076 16.5398 24.7285 16.3107 24.9409C16.0985 25.1532 15.8524 25.4845 15.7591 25.6799C15.6318 25.9602 15.6148 26.0707 15.6827 26.1811C15.7676 26.317 16.3786 26.3255 23.193 26.368C28.4035 26.402 30.6608 26.4359 30.7796 26.5039C30.873 26.5549 30.9748 26.6653 31.0172 26.7417C31.0512 26.8182 31.0766 27.4213 31.0766 28.0924C31.0766 28.755 31.0342 29.4431 30.9918 29.6214C30.9409 29.7913 30.7626 30.0971 30.5929 30.2925C30.4147 30.4794 30.1177 30.7088 29.931 30.7937C29.7019 30.9041 29.3879 30.9551 28.2762 30.9551V39.6197L29.7867 40.8259C30.6099 41.48 31.3567 42.1086 31.4331 42.2021C31.5264 42.3125 31.5858 42.5249 31.5858 42.7457C31.5858 43.0006 31.5264 43.1705 31.3821 43.3404C31.1954 43.5527 31.1106 43.5782 30.3808 43.6292C29.948 43.6547 28.4799 43.6886 27.1306 43.6886C25.7388 43.6971 24.5338 43.6632 24.3556 43.6122C24.1349 43.5527 23.9822 43.4423 23.8634 43.2554C23.77 43.1025 23.6937 42.8732 23.6937 42.7457C23.6937 42.6098 23.7361 42.4229 23.787 42.321C23.8379 42.2106 24.5932 41.548 27.0457 39.5687L27.0881 30.9551H26.4771C26.1377 30.9551 25.7134 30.9126 25.5437 30.8702C25.3654 30.8192 25.0854 30.6578 24.9157 30.5134C24.746 30.3605 24.5253 30.0802 24.432 29.8933C24.2962 29.6384 24.2453 29.3241 24.1604 27.6507L15.5639 27.5997L15.1905 27.3449C14.9784 27.192 14.7492 26.9286 14.6304 26.7078C14.5286 26.4954 14.4437 26.1726 14.4437 25.9857C14.4437 25.7818 14.5371 25.4421 14.6898 25.1362C14.8256 24.8559 15.1311 24.4227 15.3687 24.1848C15.6488 23.8875 16.0307 23.6242 17.1084 23.0975L20.2992 23.0551V20.9739L19.9598 20.787C19.7731 20.6765 19.527 20.4642 19.4166 20.3198C19.3063 20.1669 19.179 19.9035 19.1196 19.7421C19.0687 19.5807 19.0263 19.1305 19.0263 18.7482C19.0263 18.2895 19.0687 17.9497 19.1536 17.7883C19.2215 17.6439 19.3997 17.474 19.5354 17.4061C19.7221 17.3126 20.0786 17.2787 20.8932 17.2787C21.7079 17.2787 22.0643 17.3126 22.251 17.4061C22.3953 17.474 22.565 17.6185 22.6329 17.7289C22.7262 17.8648 22.7602 18.1451 22.7602 18.7482C22.7602 19.2409 22.7178 19.6827 22.6499 19.8526C22.582 19.997 22.4207 20.2603 22.2765 20.4217C22.1407 20.5831 21.9031 20.7785 21.4788 20.9739L21.5297 23.0126H25.6031L25.6455 20.3792C25.6879 17.9667 25.7049 17.7204 25.8576 17.4061C25.951 17.2192 26.248 16.8369 26.9948 16.0469L27.0033 14.7727C27.0033 13.7449 27.0287 13.4646 27.1391 13.3032Z" fill="black"/>
<path d="M6.48371 19.0201C6.60252 18.8757 6.86559 18.6803 7.06926 18.5784C7.31536 18.4509 7.5954 18.383 7.89242 18.383C8.13003 18.383 8.47796 18.4424 8.65617 18.5189C8.8259 18.5868 9.08048 18.7482 9.20777 18.8757C9.34355 19.0031 9.53025 19.2579 9.63208 19.4448C9.77635 19.7251 9.81878 19.963 9.83575 20.7785C9.86121 21.7469 9.85272 21.7893 9.64905 21.9932C9.53873 22.1121 9.36052 22.2056 9.2502 22.2056C9.13988 22.2056 8.97865 22.1461 8.8853 22.0697C8.74103 21.9592 8.70709 21.8148 8.67314 20.9654C8.63071 20.0224 8.62223 19.9715 8.40159 19.7761C8.25732 19.6572 8.05365 19.5722 7.90939 19.5722C7.73967 19.5722 7.56994 19.6487 7.23049 19.997L7.27293 32.2718L7.46811 32.6286C7.56994 32.8324 7.79907 33.1382 7.97728 33.3081C8.147 33.478 8.50342 33.7159 9.22475 34.0557H17.0066L17.2187 33.8008C17.3884 33.597 17.4224 33.4865 17.38 33.2487C17.3545 33.0873 17.2442 32.8834 17.1423 32.7985C16.9641 32.654 16.6841 32.6456 13.383 32.654C11.3633 32.654 9.69148 32.6201 9.52176 32.5691C9.36052 32.5266 9.11442 32.3737 8.71557 31.966L8.67314 24.3293L8.91076 24.1594C9.03805 24.0574 9.20777 23.981 9.29263 23.9895C9.36901 23.9895 9.53025 24.0829 9.86121 24.4142V31.3798H13.1963C15.1396 31.3798 16.718 31.4138 16.9896 31.4648C17.2442 31.5158 17.6006 31.6517 17.7788 31.7621C17.9485 31.881 18.1946 32.1529 18.3219 32.3822C18.4577 32.6116 18.568 32.9599 18.5935 33.2062C18.6189 33.546 18.585 33.7329 18.4068 34.1236C18.2795 34.3955 18.0589 34.7013 17.9061 34.8117C17.7533 34.9306 17.4563 35.0835 17.2442 35.16C17.032 35.2279 16.7011 35.2874 16.5059 35.2874C16.1919 35.2874 16.1495 35.3129 16.1919 35.4403C16.2174 35.5168 16.8538 37.2157 17.5921 39.2204C18.3304 41.2167 18.9414 42.9496 18.9414 43.0855C18.9414 43.2129 18.8735 43.3828 18.7887 43.4678C18.7123 43.5527 18.5341 43.6207 18.3898 43.6207C18.254 43.6207 18.0673 43.5527 17.991 43.4678C17.9061 43.3828 17.2527 41.7264 16.5398 39.7896C15.8185 37.8528 15.1651 36.1199 15.0887 35.9415C15.0123 35.7716 14.8256 35.5507 14.6814 35.4573C14.4268 35.3044 14.2486 35.2874 11.1341 35.2874L10.8456 35.5592C10.5825 35.8141 10.4383 36.1878 9.30112 39.6197C8.60525 41.7009 7.98576 43.4508 7.92636 43.5018C7.86696 43.5612 7.68875 43.6122 7.54448 43.6122C7.39173 43.6122 7.20504 43.5442 7.12017 43.4593C7.03531 43.3828 6.97591 43.2214 6.97591 43.1025C6.97591 42.9836 7.54448 41.1742 9.47933 35.2789L9.26718 35.2364C9.14837 35.2109 8.86833 35.1345 8.63071 35.058C8.40159 34.9901 8.07063 34.8542 7.90939 34.7607C7.74815 34.6588 7.44265 34.4209 7.24747 34.2341C7.0438 34.0387 6.77224 33.7329 6.63646 33.546C6.50917 33.3591 6.31399 32.9599 6 32.1019V25.9857C6 20.5661 6.01697 19.8356 6.13578 19.5722C6.21215 19.4108 6.36491 19.156 6.48371 19.0201Z" fill="black"/>
<path d="M46.1566 18.8757C46.2839 18.7482 46.53 18.5868 46.6912 18.5104C46.8864 18.4254 47.1749 18.3915 47.5483 18.4C47.9896 18.417 48.1763 18.4764 48.4563 18.6548C48.6515 18.7907 48.9061 19.0371 49.0249 19.207C49.1352 19.3853 49.271 19.7421 49.3219 19.997C49.3728 20.2943 49.4068 22.4859 49.4068 25.9008C49.4068 28.8909 49.3728 31.5837 49.3304 31.8895C49.2964 32.2038 49.1522 32.688 48.9994 33.0108C48.8467 33.3336 48.5497 33.7838 48.329 34.0217C48.0999 34.2595 47.752 34.5569 47.5398 34.6928C47.3277 34.8287 46.9712 34.9901 46.7336 35.058C46.5045 35.1345 46.216 35.2109 45.885 35.2789L47.1325 39.0845C47.8199 41.1742 48.3884 42.9836 48.3884 43.1025C48.3884 43.2214 48.3205 43.3828 48.2357 43.4678C48.1508 43.5527 47.9726 43.6207 47.8199 43.6122C47.6671 43.6122 47.4889 43.5612 47.4295 43.5018C47.3701 43.4508 46.7591 41.7009 46.0632 39.6197C44.9261 36.1878 44.7818 35.8141 44.2302 35.2874H42.6178C41.4128 35.2874 40.9461 35.3214 40.7763 35.4063C40.6406 35.4658 40.4963 35.5762 40.4369 35.6357C40.3775 35.7036 39.6986 37.4535 38.9263 39.5347C38.1541 41.6159 37.4498 43.3828 37.3734 43.4678C37.297 43.5527 37.1188 43.6122 36.9745 43.6122C36.8387 43.6122 36.6521 43.5442 36.5672 43.4593C36.4823 43.3828 36.4144 43.2129 36.4229 43.0855C36.4229 42.9496 37.0339 41.2167 37.7722 39.2204C38.5105 37.2157 39.147 35.5168 39.1724 35.4403C39.2149 35.3129 39.1724 35.2874 38.9094 35.2874C38.7312 35.2874 38.4341 35.2449 38.2475 35.194C38.0608 35.143 37.7468 34.9901 37.5516 34.8542C37.2885 34.6758 37.1188 34.4719 36.9576 34.1236C36.7793 33.7329 36.7454 33.546 36.7709 33.2062C36.7963 32.9599 36.9066 32.6116 37.0424 32.3822C37.1697 32.1529 37.4158 31.881 37.594 31.7621C37.7637 31.6517 38.1202 31.5158 38.3747 31.4648C38.6463 31.4138 40.2247 31.3798 45.5031 31.3798L45.5286 25.5865L45.5286 25.5752C45.5456 19.827 45.5457 19.7844 45.7323 19.4448C45.8256 19.2579 46.0208 19.0031 46.1566 18.8757Z" fill="black"/>
<path d="M16.2004 25.1872C16.4465 24.9069 16.7774 24.6435 17.032 24.5246L17.4563 24.3292H37.1867L37.4922 24.6435C37.6619 24.8219 37.8995 25.1532 38.0098 25.3911C38.1201 25.6204 38.1965 25.9262 38.1626 26.3255L35.6422 26.3679C33.2491 26.4104 33.1133 26.4189 32.9945 26.5803C32.9181 26.6738 32.8587 26.8182 32.8587 26.8946C32.8587 27.0305 32.7569 27.0475 32.0101 27.0475C31.1615 27.0475 31.1615 27.0475 31.0936 26.8182C31.0596 26.6992 30.9578 26.5463 30.8645 26.4784C30.7287 26.3849 29.3879 26.3679 23.3542 26.3679C17.5666 26.3679 15.9797 26.351 15.8524 26.266C15.7421 26.1811 15.7082 26.0876 15.7506 25.9007C15.776 25.7563 15.9797 25.442 16.2004 25.1872Z" fill="#685E68"/>
<path d="M7.26457 20.2773C7.29003 20.1244 7.39186 19.9206 7.48521 19.8271C7.57856 19.7337 7.69737 19.6572 7.7398 19.6572C7.79071 19.6572 7.85012 19.7252 7.89255 19.8016C7.92649 19.8866 7.96044 22.5539 7.96892 25.7309C7.9859 28.9079 8.01136 31.5923 8.03681 31.6942C8.07076 31.8301 8.18108 31.9236 8.42718 31.9915C8.62236 32.051 8.80906 32.1529 8.83451 32.2209C8.85997 32.2803 9.02121 32.4162 9.18245 32.5182C9.47098 32.6881 9.59827 32.6966 16.5994 32.7815L16.6842 33.0788C16.7351 33.2827 16.7267 33.4781 16.5654 34.0132L9.22488 33.9708L8.76662 33.7584C8.51204 33.6395 8.15562 33.3761 7.96892 33.1638C7.77374 32.9514 7.54462 32.6116 7.45127 32.3993C7.28154 32.0255 7.27306 31.8556 7.2476 26.2831C7.23063 23.1316 7.23911 20.4217 7.26457 20.2773Z" fill="#FE1A1A"/>
<path d="M7.96894 25.7309C7.96045 22.486 7.91802 19.8866 7.87559 19.8101V19.8016C7.8077 19.6827 7.83316 19.6572 8.01986 19.6572C8.17261 19.6572 8.30839 19.7422 8.41871 19.8866C8.57146 20.0905 8.59692 20.2519 8.58843 20.9739C8.58843 21.7554 8.59692 21.8404 8.77512 22.0018C8.88544 22.1037 9.0382 22.2056 9.11457 22.2396C9.25035 22.2821 9.26732 22.4095 9.26732 23.14C9.26732 23.9301 9.25884 23.9895 9.0976 23.9895C9.00425 23.9895 8.8515 24.0915 8.75815 24.2189C8.58843 24.4482 8.57994 24.5672 8.58843 28.084C8.58843 30.335 8.62237 31.7876 8.67329 31.8896C8.71572 31.983 8.73269 32.0595 8.69026 32.0595C8.65632 32.0595 8.50357 32.0255 8.35082 31.9745C8.18109 31.9236 8.06229 31.8216 8.03683 31.6942C8.01137 31.5923 7.98591 28.9079 7.96894 25.7309Z" fill="#D92525"/>
<path d="M16.5654 32.7475L13.2304 32.7221L9.90379 32.6966L17.0067 32.7051L17.1679 32.9174C17.2613 33.0364 17.3377 33.2317 17.3292 33.3592C17.3292 33.4951 17.2358 33.6904 17.117 33.8094C17.0067 33.9283 16.837 34.0217 16.7352 34.0217C16.6079 34.0217 16.5824 33.9793 16.6163 33.8688C16.6418 33.7924 16.6842 33.6055 16.7097 33.4696C16.7267 33.3337 16.7097 33.1128 16.5654 32.7475Z" fill="#D92525"/>
<path d="M36.3125 19.0625C36.2955 19.2239 36.2785 19.071 36.2785 18.7227C36.2785 18.3744 36.2955 18.2385 36.3125 18.4254C36.3294 18.6122 36.3294 18.9011 36.3125 19.0625Z" fill="black" fill-opacity="0.3"/>
<path d="M45.4775 28.534C45.4691 30.1225 45.4606 28.8653 45.4606 25.7308C45.4606 22.5962 45.4691 21.2966 45.4775 22.8426C45.4945 24.3886 45.4945 26.9455 45.4775 28.534Z" fill="black" fill-opacity="0.3"/>
<path d="M9.92048 21.3135C9.90351 21.5514 9.89502 21.373 9.89502 20.9313C9.89502 20.4896 9.90351 20.2942 9.92048 20.5066C9.93745 20.7189 9.93745 21.0757 9.92048 21.3135Z" fill="black" fill-opacity="0.3"/>
<path d="M35.0395 22.4603C35.0226 22.7661 35.0141 22.5538 35.0141 21.9931C35.0141 21.4325 35.0226 21.1861 35.0395 21.441C35.0565 21.6958 35.0565 22.1545 35.0395 22.4603Z" fill="black" fill-opacity="0.3"/>
<path d="M9.92048 29.7233C9.91199 30.6577 9.90351 29.8592 9.90351 27.9394C9.90351 26.0196 9.91199 25.2551 9.92048 26.2405C9.93745 27.2258 9.93745 28.7889 9.92048 29.7233Z" fill="black" fill-opacity="0.3"/>
<path d="M31.1359 28.7039C31.1189 29.0352 31.1104 28.7804 31.1104 28.1518C31.1104 27.5232 31.1189 27.2513 31.1359 27.5571C31.1529 27.8629 31.1529 28.3726 31.1359 28.7039Z" fill="black" fill-opacity="0.3"/>
<path d="M13.5526 35.3468C13.1283 35.3638 12.4663 35.3638 12.0675 35.3468C11.6686 35.3383 12.0166 35.3213 12.8312 35.3213C13.6459 35.3213 13.9684 35.3383 13.5526 35.3468Z" fill="black" fill-opacity="0.3"/>
<path d="M43.2542 35.3468C42.8299 35.3638 42.1679 35.3638 41.7691 35.3468C41.3702 35.3383 41.7182 35.3213 42.5328 35.3213C43.3475 35.3213 43.67 35.3383 43.2542 35.3468Z" fill="black" fill-opacity="0.3"/>
<path d="M26.9777 15.3674C26.9692 15.6902 26.9522 15.4099 26.9522 14.7303C26.9522 14.0507 26.9692 13.7874 26.9777 14.1356C26.9947 14.4839 26.9947 15.0446 26.9777 15.3674Z" fill="black" fill-opacity="0.1"/>
<path d="M24.1518 27.7271L20.036 27.7017L15.9287 27.6847L24.2027 27.6422L24.1688 29.2137L24.1518 27.7271Z" fill="black" fill-opacity="0.1"/>
<path d="M37.9079 27.7017C37.1102 27.7102 35.7948 27.7102 34.9802 27.7017C34.157 27.6847 34.8104 27.6762 36.4228 27.6762C38.0267 27.6762 38.6971 27.6847 37.9079 27.7017Z" fill="black" fill-opacity="0.1"/>
<path d="M28.3355 37.4026C28.327 38.6003 28.31 37.6404 28.31 35.2789C28.31 32.9259 28.327 31.949 28.3355 33.1128C28.3525 34.285 28.3525 36.2133 28.3355 37.4026Z" fill="black" fill-opacity="0.1"/>
<path d="M28.2506 15.3674C28.2421 15.7411 28.2252 15.4778 28.2252 14.7728C28.2252 14.0677 28.2421 13.7704 28.2506 14.0932C28.2676 14.416 28.2676 14.9936 28.2506 15.3674Z" fill="black" fill-opacity="0.9"/>
<path d="M32.4937 19.0626C32.4767 19.224 32.4598 19.0711 32.4598 18.7228C32.4598 18.3745 32.4767 18.2386 32.4937 18.4255C32.5107 18.6124 32.5107 18.9012 32.4937 19.0626Z" fill="black" fill-opacity="0.9"/>
<path d="M19.7475 23.0296C19.425 23.0466 18.848 23.0466 18.4746 23.0296C18.1012 23.0211 18.3727 23.0041 19.0686 23.0041C19.7729 23.0041 20.0785 23.0211 19.7475 23.0296Z" fill="black" fill-opacity="0.9"/>
<path d="M24.627 23.0296C24.0924 23.0466 23.1759 23.0466 22.5904 23.0296C22.0048 23.0211 22.4461 23.0041 23.5663 23.0041C24.6864 23.0041 25.1617 23.0211 24.627 23.0296Z" fill="black" fill-opacity="0.9"/>
<path d="M32.7738 23.0296C32.2391 23.0466 31.3226 23.0466 30.7371 23.0296C30.1515 23.0211 30.5928 23.0041 31.713 23.0041C32.8332 23.0041 33.3084 23.0211 32.7738 23.0296Z" fill="black" fill-opacity="0.9"/>
<path d="M36.8896 23.0296C36.5671 23.0466 35.99 23.0466 35.6166 23.0296C35.2432 23.0211 35.5148 23.0041 36.2107 23.0041C36.915 23.0041 37.2205 23.0211 36.8896 23.0296Z" fill="black" fill-opacity="0.9"/>
<path d="M27.0626 37.4536C27.0541 38.6173 27.0456 37.6235 27.0456 35.2449C27.0456 32.8579 27.0541 31.9065 27.0626 33.1213C27.0795 34.336 27.0795 36.2813 27.0626 37.4536Z" fill="black" fill-opacity="0.9"/>
<path d="M37.1867 24.3292L27.4531 24.3037L17.7109 24.2867H27.7671C37.7892 24.2867 37.8232 24.2867 38.205 24.4651C38.4172 24.5586 38.7142 24.754 38.8755 24.8899C39.0367 25.0258 39.2488 25.2721 39.3507 25.4335C39.461 25.5949 39.5543 25.8073 39.5713 25.9092C39.5883 26.0027 39.5459 26.1556 39.478 26.232C39.3761 26.3425 39.2149 26.3764 38.1626 26.3679L38.1966 26.1301C38.2135 26.0027 38.1372 25.6969 38.0183 25.4335C37.8995 25.1787 37.6619 24.8219 37.1867 24.3292Z" fill="#575059"/>
<path d="M8.64753 21.3986C8.63056 21.5855 8.62207 21.3901 8.62207 20.9739C8.62207 20.5577 8.63056 20.3963 8.64753 20.6341C8.6645 20.8635 8.6645 21.2118 8.64753 21.3986Z" fill="#351314"/>
<path d="M8.64753 29.8509C8.63904 30.8532 8.63056 30.0547 8.63056 28.067C8.63056 26.0792 8.63904 25.2552 8.64753 26.2406C8.6645 27.226 8.6645 28.8485 8.64753 29.8509Z" fill="#351314"/>
<path d="M15.0376 34.0727C14.0787 34.0897 12.4748 34.0897 11.4734 34.0727C10.4721 34.0642 11.2528 34.0557 13.2131 34.0557C15.1734 34.0557 15.9966 34.0642 15.0376 34.0727Z" fill="#351314"/>
<path d="M21.3602 17.2531C21.0802 17.2701 20.6389 17.2701 20.3843 17.2531C20.1297 17.2362 20.3589 17.2277 20.8935 17.2277C21.4281 17.2277 21.6403 17.2362 21.3602 17.2531Z" fill="black" fill-opacity="0.5"/>
<path d="M34.8532 17.2531C34.5732 17.2701 34.1319 17.2701 33.8773 17.2531C33.6227 17.2362 33.8519 17.2277 34.3865 17.2277C34.9211 17.2277 35.1333 17.2362 34.8532 17.2531Z" fill="black" fill-opacity="0.5"/>
<path d="M29.6936 21.8233C29.6852 22.4774 29.6682 21.9592 29.6682 20.6765C29.6682 19.3938 29.6852 18.8586 29.6936 19.4872C29.7106 20.1159 29.7106 21.1692 29.6936 21.8233Z" fill="black" fill-opacity="0.5"/>
<path d="M20.274 22.4604C20.257 22.7662 20.2485 22.5538 20.2485 21.9932C20.2485 21.4325 20.257 21.1862 20.274 21.441C20.291 21.6959 20.291 22.1546 20.274 22.4604Z" fill="black" fill-opacity="0.5"/>
<path d="M21.5465 22.4604C21.5295 22.7662 21.521 22.5539 21.521 21.9932C21.521 21.4326 21.5295 21.1862 21.5465 21.4411C21.5634 21.6959 21.5634 22.1546 21.5465 22.4604Z" fill="black" fill-opacity="0.6"/>
<path d="M25.6202 21.7809C25.6117 22.4604 25.5947 21.9253 25.5947 20.5916C25.5947 19.2579 25.6117 18.7058 25.6202 19.3599C25.6372 20.014 25.6372 21.1013 25.6202 21.7809Z" fill="black" fill-opacity="0.8"/>
<path d="M33.7669 22.4604C33.7499 22.7662 33.7415 22.5539 33.7415 21.9932C33.7415 21.4326 33.7499 21.1862 33.7669 21.4411C33.7839 21.6959 33.7839 22.1546 33.7669 22.4604Z" fill="black" fill-opacity="0.8"/>
<path d="M20.469 19.5722C20.3417 19.4448 20.2993 19.2919 20.2993 18.9776V18.5529H21.4874V18.9521C21.4874 19.1815 21.428 19.4448 21.3601 19.5467C21.2667 19.6911 21.1479 19.7421 20.9358 19.7421C20.7491 19.7421 20.5709 19.6742 20.469 19.5722Z" fill="#FE1A1A"/>
<path d="M33.9366 19.5892C33.8263 19.4873 33.7838 19.3174 33.7923 19.0031V18.5529H34.9804V18.9096C34.9889 19.1475 34.9295 19.3599 34.8107 19.5043C34.6834 19.6826 34.5731 19.7421 34.3609 19.7421C34.2166 19.7421 34.0215 19.6742 33.9366 19.5892Z" fill="#FE1A1A"/>
<path d="M46.7847 20.0819L46.9883 19.8695C47.1071 19.7591 47.2429 19.6657 47.2938 19.6657C47.3532 19.6657 47.4126 19.7506 47.4296 19.8525C47.4466 19.9545 47.4551 22.7237 47.4551 25.9942C47.4551 30.9381 47.4381 32.0084 47.3363 32.3652C47.2684 32.5946 47.0902 32.9768 46.9289 33.2062C46.7762 33.4355 46.547 33.6989 46.4113 33.8008C46.1821 33.9707 46.0633 33.9792 42.4228 33.9962C40.0382 34.0132 38.5955 33.9877 38.4597 33.9367C38.3494 33.8858 38.2051 33.7583 38.1457 33.6394C38.0863 33.5205 38.0354 33.3761 38.0354 33.3166C38.0354 33.2572 38.1118 33.1043 38.3749 32.7475L42.1342 32.722C45.8003 32.705 45.8936 32.6965 46.1821 32.5181C46.3519 32.4162 46.547 32.2038 46.6319 32.0339C46.7677 31.7451 46.7762 31.2694 46.7847 20.0819Z" fill="#FE1A1A"/>
<path d="M47.4125 32.2718V25.9688V25.9603C47.4125 19.7167 47.4125 19.6572 47.5823 19.6572C47.6756 19.6487 47.8284 19.7337 47.9217 19.8356C48.0914 20.014 48.0914 20.1329 48.0914 32.017L47.8963 32.4417C47.7859 32.6711 47.5992 32.9769 47.4719 33.1128C47.3447 33.2487 47.0901 33.4696 46.9034 33.6055C46.7167 33.7414 46.5385 33.8433 46.5045 33.8433C46.4621 33.8433 46.5554 33.6989 46.7082 33.5205C46.8525 33.3506 47.0731 32.9939 47.4125 32.2718Z" fill="#D92525"/>
<path d="M43.8059 32.722C42.847 32.739 41.2686 32.739 40.2842 32.722C39.2998 32.7135 40.089 32.705 42.0238 32.705C43.9587 32.705 44.7649 32.7135 43.8059 32.722Z" fill="#D92525"/>
<path d="M25.7305 29.5196C25.5354 29.3666 25.5184 29.2902 25.4929 28.5427L25.459 27.7272H28.3613V28.5766C28.3613 29.0438 28.3443 29.4856 28.3188 29.5535C28.2849 29.6555 28.0727 29.681 27.1138 29.681C26.0785 29.6894 25.9172 29.6725 25.7305 29.5196Z" fill="#CBE2FF"/>
<path d="M25.7136 42.2956L26.4264 41.7264C26.8168 41.4121 27.1477 41.1573 27.1562 41.1573C27.1647 41.1488 27.5042 41.4036 28.6158 42.2956L27.92 42.321C27.5296 42.338 26.8847 42.338 25.7136 42.2956Z" fill="#CBE2FF"/>
<path d="M28.5309 29.7404C28.0896 29.7574 27.3258 29.7574 26.8336 29.7404C26.3414 29.7319 26.7063 29.715 27.6398 29.715C28.5733 29.715 28.9721 29.7319 28.5309 29.7404Z" fill="#575059"/>
<path d="M27.4702 17.6609C27.4023 17.4995 27.3684 17.3466 27.4023 17.3212C27.4278 17.2957 27.5296 17.2787 27.6145 17.2787C27.6993 17.2787 27.8436 17.3551 27.9369 17.4486C28.0303 17.542 28.1661 17.7544 28.2339 17.9158C28.3358 18.1536 28.3612 18.6633 28.3612 22.9701H27.5975V20.4642C27.5975 18.4255 27.572 17.8988 27.4702 17.6609Z" fill="#C48879"/>
<path d="M26.8931 21.8233C26.8846 22.4774 26.8677 21.9593 26.8677 20.6766C26.8677 19.3939 26.8846 18.8587 26.8931 19.4873C26.9101 20.1159 26.9101 21.1693 26.8931 21.8233Z" fill="#C48879"/>
<path d="M28.3608 27.7272L26.9012 27.7017H26.8927C25.4925 27.6847 25.4755 27.6762 26.5788 27.6593C27.2067 27.6508 28.1911 27.6678 29.8035 27.7697V28.5172C29.8035 29.1883 29.7865 29.2732 29.5913 29.4686C29.4131 29.647 29.3113 29.681 28.3184 29.681L28.3608 27.7272Z" fill="#BED8FB"/>
<path d="M27.1388 41.1318L27.3849 40.9364L27.631 40.7411L27.979 41.0129C28.1742 41.1658 28.6069 41.5141 29.5913 42.2956L29.0822 42.3466C28.8106 42.3805 27.9111 42.3975 25.6113 42.389L28.6154 42.2956L27.1388 41.1318Z" fill="#BED8FB"/>
<path d="M26.9185 20.5916C26.9185 18.3575 26.9269 18.1876 27.0967 17.8309C27.19 17.6185 27.3088 17.4486 27.3513 17.4486C27.3937 17.4486 27.4701 17.576 27.5125 17.7204C27.5634 17.8818 27.5974 19.0371 27.5974 22.9702H26.9185V20.5916Z" fill="#D8AB8C"/>
<path d="M21.2327 18.5274C21.0205 18.5444 20.6981 18.5444 20.5114 18.5274C20.3247 18.5104 20.4944 18.4934 20.8932 18.4934C21.2921 18.4934 21.4448 18.5104 21.2327 18.5274Z" fill="#351314"/>
<path d="M34.9633 18.5614L34.3184 18.5274L33.6734 18.5019L35.0227 18.5104V19.2324L34.9633 18.5614Z" fill="#351314"/>
<path d="M46.7591 28.6955C46.7421 30.284 46.7336 29.0268 46.7336 25.8923C46.7336 22.7662 46.7421 21.4665 46.7591 23.0041C46.7676 24.5501 46.7676 27.107 46.7591 28.6955Z" fill="#351314"/>
<path d="M29.8631 28.7805C29.8461 29.0183 29.8377 28.8484 29.8377 28.3982C29.8377 27.9565 29.8461 27.7696 29.8631 27.9735C29.8886 28.1858 29.8886 28.5511 29.8631 28.7805Z" fill="#351314"/>
<path d="M43.9756 34.0727C43.0167 34.0896 41.4128 34.0896 40.4114 34.0727C39.4101 34.0557 40.1908 34.0472 42.1511 34.0472C44.1114 34.0472 44.9346 34.0557 43.9756 34.0727Z" fill="#351314"/>
<path d="M28.4205 21.8233C28.412 22.4774 28.395 21.9592 28.395 20.6765C28.395 19.3938 28.412 18.8587 28.4205 19.4873C28.4375 20.1159 28.4375 21.1692 28.4205 21.8233Z" fill="#5E2E2D"/>
<path d="M27.9791 23.0296C27.7499 23.0466 27.385 23.0466 27.1729 23.0296C26.9607 23.0126 27.1559 23.0042 27.5972 23.0042C28.0385 23.0042 28.2167 23.0126 27.9791 23.0296Z" fill="#0E0808"/>
<path d="M29.4641 27.7017C29.252 27.7187 28.9295 27.7187 28.7428 27.7017C28.5561 27.6847 28.7258 27.6677 29.1247 27.6677C29.5235 27.6677 29.6763 27.6847 29.4641 27.7017Z" fill="#B1C4DD"/>
<path d="M29.0992 42.3635C29.3708 42.3465 29.532 42.3041 29.4981 42.2531C29.4726 42.2021 29.4811 42.1682 29.515 42.1682C29.5575 42.1682 29.6254 42.2276 29.6763 42.2956C29.7527 42.4145 29.6933 42.4315 29.2095 42.4145C28.6749 42.389 28.6749 42.389 29.0992 42.3635Z" fill="#B1C4DD"/>
</svg>
