<svg width="57" height="56" viewBox="0 0 57 56" fill="none" xmlns="http://www.w3.org/2000/svg">
<path d="M0.994141 27.9945C0.994141 5.74753 6.55588 0.185791 28.8028 0.185791C51.0498 0.185791 56.6115 5.74753 56.6115 27.9945C56.6115 50.2414 51.0498 55.8032 28.8028 55.8032C6.55588 55.8032 0.994141 50.2414 0.994141 27.9945Z" fill="#E9DEC6"/>
<path d="M17.8777 10.0994C16.0131 9.44903 16.1613 10.8763 16.4684 11.6713L18.6089 17.0824L15.1277 22.672H12.9703L12.2349 24.3881L13.7548 28.0654L11.0581 29.0461L12.2839 29.7815L12.2407 31.4007L13.9752 32.5931L25.2491 21.0482L25.7369 19.5847L23.6231 16.2784C24.0386 15.0137 24.8589 12.3217 24.8155 11.6713C24.7613 10.8583 20.2084 10.9125 17.8777 10.0994Z" fill="#FF924C"/>
<path d="M21.257 48.2174L19.0506 42.5788L18.2148 39.3653L30.3553 34.4812L24.9343 40.3233V44.8342L22.6298 47.9722L21.257 48.2174Z" fill="#80D99F"/>
<path d="M33.1223 24.7311L25.1792 21.2499L15.8633 30.9581L16.5497 35.1258L18.4229 39.2647L25.3854 37.0093L27.285 35.9231L30.355 34.3415L32.4849 32.6252L34.152 31.3013H35.2797L35.2307 30.1246L35.0345 26.8885L36.7016 26.2021L39.2022 27.1827L38.957 28.9969L40.5751 30.1246L40.8202 28.5556L42.095 27.624L43.0757 24.584L45.2821 23.7015L44.7427 22.0835L41.948 21.1519L39.3003 23.0641L38.859 24.1918L37.1919 24.7311C36.3584 24.1428 34.6325 22.966 34.3971 22.966C34.1618 22.966 33.4492 24.1428 33.1223 24.7311Z" fill="#F7EBC9"/>
<path d="M22.6811 24.4222C22.9802 24.2807 23.4208 24.1155 23.6726 24.0526H23.6648C23.9166 23.9896 24.3651 23.9346 24.672 23.9346C24.971 23.9346 25.451 23.9818 25.7343 24.0526C26.0176 24.1155 26.4897 24.3042 26.7966 24.4616C27.135 24.6425 27.5363 24.9492 27.8511 25.2638C28.1973 25.6178 28.4412 25.9639 28.6537 26.4043C28.8583 26.8238 28.9921 27.2433 29.055 27.6628C29.1258 28.1584 29.1258 28.4336 29.055 28.9606C28.9842 29.4326 28.8662 29.8101 28.6537 30.2584C28.4412 30.6989 28.1973 31.045 27.8511 31.3989C27.5363 31.7136 27.135 32.0203 26.7966 32.2012C26.4897 32.3585 26.0176 32.5473 25.7343 32.6102C25.451 32.681 24.9946 32.7361 24.7113 32.7361C24.428 32.7361 23.9795 32.681 23.7041 32.6181C23.4366 32.5552 22.9802 32.3821 22.6811 32.2484C22.327 32.0675 21.9808 31.8158 21.6031 31.4383C21.249 31.0843 20.9578 30.7068 20.8004 30.3764C20.6588 30.0933 20.4935 29.6528 20.4227 29.3932C20.3598 29.1337 20.3047 28.6539 20.3047 28.3314C20.3047 28.0089 20.3598 27.5291 20.4227 27.2696C20.4935 27.01 20.6588 26.5695 20.8004 26.2864C20.9578 25.956 21.249 25.5785 21.6031 25.2245C21.9808 24.847 22.327 24.5953 22.6811 24.4222Z" fill="#43586E"/>
<path d="M22.681 25.8539C22.8698 25.7044 23.2318 25.4921 23.4915 25.3898C23.7511 25.2797 23.9872 25.1853 24.0266 25.1853C24.058 25.1853 24.0816 25.6494 24.0816 27.2303L23.6724 26.9944C23.4442 26.8607 23.0508 26.6404 22.8069 26.4988C22.555 26.3651 22.3505 26.2236 22.3505 26.1921C22.3505 26.1528 22.5 26.0033 22.681 25.8539Z" fill="#FBF5D9"/>
<path d="M25.3958 27.1989C25.3643 27.2146 25.3407 26.7663 25.3485 26.2L25.3486 26.1988C25.3564 25.1853 25.3565 25.1775 25.5217 25.2246C25.6161 25.2561 25.8758 25.3583 26.0882 25.4606C26.3086 25.5707 26.6155 25.7595 26.7807 25.8932C26.9381 26.019 27.0561 26.1528 27.0404 26.1921C27.0246 26.2236 26.6627 26.4595 26.2377 26.7112C25.805 26.9629 25.4351 27.191 25.3958 27.1989Z" fill="#FBF5D9"/>
<path d="M21.4849 28.3315C21.4849 28.1978 21.5242 27.9146 21.5714 27.6944C21.6265 27.4742 21.7052 27.309 21.7524 27.3247C21.7996 27.3405 22.2009 27.5607 22.6495 27.8203C23.0901 28.0798 23.4521 28.3079 23.4521 28.3315C23.4521 28.3551 23.0901 28.5832 22.6495 28.8428C22.2009 29.1023 21.7996 29.3226 21.7445 29.3383C21.6816 29.3462 21.6108 29.2046 21.5636 28.9608C21.5163 28.7484 21.4849 28.4574 21.4849 28.3315Z" fill="#FBF5D9"/>
<path d="M25.9545 28.3315C25.9466 28.3079 26.3086 28.0719 26.765 27.8045C27.2135 27.5371 27.6306 27.3169 27.6935 27.309C27.7722 27.309 27.8194 27.427 27.8509 27.6865C27.8745 27.891 27.8902 28.1821 27.8902 28.3315C27.8902 28.481 27.8666 28.772 27.8352 28.9843C27.8037 29.1889 27.7486 29.354 27.7014 29.354C27.6542 29.354 27.2528 29.1338 26.7964 28.8664C26.34 28.5911 25.9623 28.3551 25.9545 28.3315Z" fill="#FBF5D9"/>
<path d="M22.3505 30.4788C22.3583 30.4395 22.736 30.1956 23.2003 29.9282L24.0423 29.4405L24.058 30.4395C24.0738 30.9901 24.0738 31.4463 24.058 31.462C24.0502 31.4699 23.8298 31.3991 23.5702 31.3047C23.3105 31.2103 22.9328 30.9979 22.7282 30.8327C22.5157 30.6676 22.3505 30.5103 22.3505 30.4788Z" fill="#FBF5D9"/>
<path d="M25.3407 31.4777L25.3485 30.4552V29.4248L25.5217 29.5192C25.6161 29.5743 25.923 29.7552 26.2063 29.9282C26.4896 30.0934 26.7964 30.2822 26.8987 30.3451C27.064 30.4473 27.064 30.4631 26.9381 30.6204C26.8594 30.7069 26.6391 30.8878 26.4423 31.0137C26.2456 31.1395 25.923 31.2968 25.3407 31.4777Z" fill="#FBF5D9"/>
<path fill-rule="evenodd" clip-rule="evenodd" d="M18.5651 7.71922C18.7136 7.71141 18.8777 7.74267 18.9168 7.78175C18.9559 7.82083 19.6984 8.1569 22.1212 9.21203L23.2154 9.15732C23.8172 9.12605 24.4659 9.10261 24.6613 9.09479C24.9505 9.09479 25.1303 9.15732 25.6774 9.48558C26.0447 9.70442 26.4199 9.97797 26.5215 10.103C26.6153 10.2281 26.7012 10.3844 26.6934 10.4469C26.6934 10.5094 26.373 11.2207 25.99 12.0335C25.5992 12.8385 25.2866 13.5341 25.2866 13.5732C25.2866 13.6123 25.3726 13.8155 25.482 14.0187C25.5914 14.2297 25.6774 14.472 25.6774 14.5658C25.6774 14.6674 25.5914 14.8315 25.482 14.941C25.3804 15.0504 25.2397 15.1363 25.1694 15.1363C25.1068 15.1363 25.0521 15.152 25.0521 15.1754C25.0521 15.1989 25.2944 15.574 25.5914 16.0117C26.0916 16.762 26.1541 16.8245 26.5449 16.973C26.8576 17.0903 26.9904 17.1919 27.0764 17.3638C27.1702 17.5749 27.1624 17.6843 26.967 18.4189C26.8497 18.8723 26.7481 19.2865 26.7403 19.349C26.7325 19.4194 28.0612 20.0212 34.3138 22.6942L34.7827 21.7484C35.0953 21.1232 35.3142 20.7637 35.447 20.6933C35.5565 20.6308 35.7284 20.6074 35.8378 20.6308C35.9472 20.6542 36.4943 21.045 38.0653 22.3268L39.0032 22.2877L39.0579 21.8969C39.097 21.6859 39.183 21.4436 39.2533 21.3655C39.3315 21.2873 39.9176 20.8887 40.5663 20.4745C41.2619 20.029 41.8716 19.5835 42.3874 19.0051L43.7395 18.9504C44.5445 18.9192 45.1776 18.927 45.2949 18.966C45.4199 19.0129 45.7482 19.4194 46.2093 20.0993C46.7329 20.8496 46.9362 21.2248 46.9362 21.3889C46.9362 21.5218 46.8814 21.8813 46.8111 22.1939C46.7486 22.4988 46.647 22.8114 46.5844 22.8739C46.5297 22.9364 46.0217 23.1475 45.459 23.3429C44.4351 23.6946 44.4351 23.6946 44.3882 23.9681C44.3648 24.1166 44.2475 24.3823 44.1303 24.5465C43.9662 24.7966 43.888 25.0779 43.7552 25.9533C43.6535 26.5629 43.5363 27.1335 43.4816 27.2273C43.4269 27.3289 43.3018 27.4383 43.2002 27.4852C43.1064 27.5243 42.8642 27.5399 42.2858 27.4696L42.1138 28.5481C41.9654 29.5016 41.9185 29.658 41.7465 29.8143C41.6371 29.9081 41.4651 29.9862 41.3635 29.9862C41.2698 29.9862 41.1213 29.9393 41.0353 29.8846C40.9493 29.8221 40.6054 29.4 39.6675 28.1104H39.2377C38.8625 28.1104 38.7922 28.087 38.6515 27.8994C38.5577 27.7744 38.4874 27.5946 38.4952 27.4852C38.4952 27.3758 38.6906 27.0006 39.3549 26.0002L38.9407 25.9611C38.6359 25.9299 38.3936 25.8361 37.44 25.2343L36.8148 25.5078C36.4709 25.6563 36.1817 25.7814 36.1661 25.7892C36.1505 25.797 36.3927 26.7271 36.6897 27.8603C36.9946 28.9858 37.2447 29.9706 37.2447 30.0487C37.2525 30.1191 37.1587 30.2754 37.0493 30.4005C36.9398 30.5177 36.7679 30.6115 36.6585 30.6115C36.5491 30.6115 36.2052 30.5568 35.3298 30.377L34.8999 30.7131C34.4779 31.0413 34.4701 31.057 34.4075 31.5572C34.3763 31.8307 34.3059 32.1199 34.2512 32.1981C34.1965 32.284 33.626 32.6358 31.8127 33.6362L31.5392 34.1911C31.3516 34.5741 31.0859 34.9336 30.7185 35.3087C30.4137 35.6135 30.0073 35.9418 29.7963 36.0512C29.5384 36.1841 29.2961 36.4107 28.9756 36.8328C28.7333 37.1532 28.4754 37.4346 28.4129 37.4502C28.3504 37.4659 28.155 37.5049 27.983 37.5284C27.8111 37.5597 27.5532 37.6378 27.4125 37.7082C27.1858 37.8254 27.1311 37.9348 26.5606 39.6386L26.7091 40.1076C26.795 40.3655 26.8576 40.6859 26.8576 40.811C26.8576 40.9361 26.7325 41.7645 26.5762 42.6477C26.4121 43.5309 26.2401 44.3203 26.1854 44.4062C26.1307 44.4922 25.7634 44.9455 25.3726 45.4223C24.974 45.899 24.5675 46.4461 24.4581 46.6572C24.3565 46.8604 24.1924 47.0714 24.0908 47.1339C23.997 47.1886 23.6922 47.3215 23.4108 47.4153C23.1295 47.5169 22.8715 47.6263 22.8246 47.6654C22.7856 47.6967 22.6449 47.7279 22.512 47.7279C22.387 47.7357 22.1994 47.6732 22.0978 47.595C21.9649 47.4934 21.2459 45.6255 16.5486 32.9171L16.6737 32.2137C16.7909 31.5103 16.7909 31.5103 16.4158 30.6818L15.9624 31.2289C15.5638 31.7213 15.4857 31.7838 15.2434 31.7838C15.0714 31.7838 14.665 31.6353 14.1257 31.3618C13.6646 31.1273 13.2113 30.8538 13.1253 30.76C13.0315 30.6584 12.7424 30.2363 12.4766 29.8299C12.2109 29.4235 11.9921 29.0171 11.9999 28.9311C11.9999 28.8451 12.0546 28.6966 12.1171 28.6028C12.1796 28.5012 12.2265 28.4074 12.2109 28.3918C12.2031 28.3762 11.9842 28.2589 11.7263 28.1339C11.4684 28.001 11.2339 27.8447 11.1948 27.7666C11.1636 27.6962 11.1401 27.5477 11.1401 27.4305C11.1401 27.3054 11.187 27.1413 11.2496 27.0553C11.3199 26.9537 11.8748 26.7114 12.758 26.391C13.7819 26.0158 14.157 25.8439 14.1648 25.7501C14.1805 25.6719 13.9929 25.1952 13.7506 24.695C13.4458 24.0385 13.2269 23.6946 13.0159 23.4992C12.8127 23.3194 12.7111 23.1553 12.7033 23.0302C12.7033 22.9208 12.8596 22.3503 13.055 21.7641C13.3364 20.9043 13.4536 20.6542 13.6177 20.5292C13.7428 20.4354 13.9069 20.3651 13.9929 20.3729C14.0788 20.3729 14.4306 20.4667 15.3997 20.7793L15.5717 20.5917C15.6654 20.4979 16.1969 19.9039 16.7596 19.2787C17.5647 18.3799 17.7835 18.0907 17.8069 17.8718C17.8304 17.7233 18.1508 17.0512 18.5182 16.3869C19.0731 15.3786 19.1747 15.152 19.0965 15.0582C19.0418 14.9957 18.6823 14.5971 18.2915 14.175C17.9086 13.753 17.549 13.3309 17.4943 13.2371C17.4318 13.1277 17.4005 12.6744 17.3927 10.8377L16.9863 10.4704C16.7596 10.2593 16.5017 10.017 16.4001 9.92326C16.2985 9.82165 16.1969 9.66534 16.1735 9.57155C16.15 9.46995 16.1735 9.29018 16.2282 9.16513C16.3063 9.001 16.619 8.75871 17.3146 8.32885C18.0102 7.89898 18.3697 7.72704 18.5651 7.71922V7.71922ZM17.9398 9.47776C17.9164 9.50121 18.0571 9.67315 18.2524 9.86855L18.6042 10.2203L18.6823 12.7057C19.0575 13.1043 19.4873 13.5732 19.8859 14.0031C20.4799 14.6518 20.5972 14.8237 20.5972 15.0426C20.5972 15.2145 20.3471 15.7382 19.8156 16.7229C19.2685 17.7077 19.034 18.2236 19.034 18.4033C19.034 18.5674 18.9559 18.7394 18.8152 18.9113C18.6979 19.0442 18.0258 19.7945 17.3224 20.5683C16.619 21.342 15.9468 22.022 15.8374 22.0845C15.6576 22.1783 15.5638 22.1705 15.0324 22.0064C14.6963 21.9048 14.4149 21.8344 14.3915 21.8579C14.3758 21.8813 14.3055 22.0923 14.2352 22.3268C14.1023 22.7489 14.1023 22.7645 14.2508 22.913C14.3368 22.999 14.6416 23.5617 14.9229 24.1635C15.4153 25.2186 15.4388 25.2812 15.4388 25.883C15.4466 26.3754 15.4153 26.5473 15.2981 26.7036C15.1965 26.8365 14.9073 26.985 14.4149 27.1569C14.0085 27.3054 13.6255 27.4461 13.563 27.4852C13.477 27.5243 13.5317 27.5868 13.7975 27.7275C14.0007 27.8369 14.1961 28.0167 14.2586 28.1495C14.329 28.3137 14.3446 28.4465 14.2977 28.5794C14.2586 28.6888 14.0945 28.8608 13.9304 28.9702L13.6412 29.1656C13.9929 29.7986 14.1336 29.9237 14.5243 30.1191L15.0089 30.3614C15.853 29.2594 16.2047 28.8139 16.3376 28.6732C16.4705 28.5247 16.6502 28.3684 16.744 28.3371C16.8534 28.2902 17.0097 28.298 17.1348 28.3527C17.2598 28.3996 17.3927 28.4934 17.4474 28.5638C17.5021 28.6419 17.5412 28.9624 17.549 29.3453C17.549 29.9081 17.5881 30.0722 17.8382 30.6975L18.1352 31.4087L17.8773 32.839C21.6054 42.8978 22.7309 45.9068 22.7777 46.0319C22.8559 46.2273 22.8872 46.2351 23.0982 46.1648C23.2311 46.1179 23.3561 46.0085 23.3874 45.9147C23.4186 45.8131 23.7703 45.3285 24.1768 44.8361C24.5832 44.3437 24.9583 43.8904 25.0052 43.8279C25.0521 43.7653 25.2006 43.0776 25.3413 42.3038L25.5836 40.8892L25.2163 39.6386L26.0682 37.0204C26.8263 36.5514 27.2249 36.3639 27.4516 36.3091C27.8189 36.2075 27.897 36.145 28.2331 35.6917C28.5145 35.3165 28.7099 35.1368 28.9991 35.0039C29.2179 34.9023 29.5774 34.6366 29.8041 34.4177C30.0855 34.1364 30.273 33.855 30.4215 33.5033C30.5309 33.2219 30.7029 32.9171 30.7889 32.8155C30.8827 32.7217 31.4298 32.3856 32.0081 32.0652C32.7975 31.6353 33.0789 31.4478 33.118 31.3071C33.1492 31.2055 33.1961 30.9476 33.2352 30.7287C33.2977 30.3614 33.329 30.3145 33.9621 29.8065C34.3294 29.5095 34.7358 29.2203 34.8609 29.1499C35.0172 29.0718 35.1917 29.0483 35.3845 29.0796C35.5486 29.103 35.6815 29.103 35.6815 29.0718C35.6815 29.0327 35.4705 28.2433 35.2126 27.3132C34.9546 26.3754 34.7436 25.5156 34.7436 25.3984C34.7436 25.2733 34.7905 25.117 34.8452 25.0467C34.8999 24.9763 35.4783 24.6793 36.127 24.398C36.7835 24.1166 37.4166 23.89 37.5338 23.89C37.6589 23.89 38.0184 24.0619 38.3545 24.2807C38.9407 24.6559 38.9954 24.6715 39.8786 24.7888C40.6132 24.8747 40.8321 24.9294 40.9571 25.0623C41.0509 25.1561 41.1134 25.328 41.1056 25.4765C41.1056 25.6407 40.9728 25.922 40.7148 26.3128L40.3162 26.899C40.793 27.493 40.9337 27.6024 40.9571 27.5477C40.9728 27.493 41.0275 27.2195 41.0744 26.9381C41.1265 26.5994 41.2124 26.3701 41.3323 26.2503C41.4808 26.0862 41.5667 26.0705 41.9575 26.094C42.3561 26.1174 42.4108 26.1018 42.4421 25.9611C42.4656 25.8751 42.5359 25.4687 42.5984 25.0623C42.6844 24.5308 42.7704 24.2417 42.9111 24.0463C43.0205 23.8978 43.1299 23.593 43.1612 23.3741C43.2002 23.1475 43.294 22.8974 43.38 22.8036C43.4738 22.702 43.8958 22.5144 44.396 22.3503C44.8728 22.2018 45.3339 22.022 45.4277 21.9673C45.5371 21.8969 45.6075 21.7797 45.6075 21.6625C45.6075 21.5531 45.4199 21.1935 45.1776 20.8418L44.7477 20.2166C43.083 20.2166 43.0205 20.2244 42.9111 20.3963C42.8407 20.4901 42.2389 20.92 41.5589 21.3577L40.3319 22.1471C40.2303 23.1162 40.1756 23.2569 40.0192 23.4054C39.8395 23.5695 39.7535 23.5773 38.6906 23.5773H37.5573C36.3771 22.6082 36.002 22.3346 35.9707 22.3503C35.9316 22.3581 35.7519 22.702 35.5565 23.1084C35.3689 23.5148 35.1422 23.9212 35.0563 24.0072C34.9546 24.1088 34.8061 24.1557 34.642 24.1479C34.5092 24.1401 32.5083 23.3272 30.2105 22.3424C27.9127 21.3577 25.904 20.4979 25.7555 20.4276C25.5836 20.3494 25.4429 20.2087 25.3726 20.0446C25.271 19.8101 25.2788 19.7164 25.5054 18.9113L25.7555 18.0282C25.2319 17.7781 25.0209 17.5123 24.294 16.3869C23.7 15.4724 23.4108 14.9488 23.4108 14.8081C23.4108 14.683 23.4421 14.5267 23.4812 14.4564C23.5124 14.3782 23.6609 14.261 23.7938 14.1985C23.9736 14.1125 24.0283 14.05 23.9892 13.964C23.9657 13.9015 23.9188 13.7764 23.8954 13.6904C23.8798 13.6045 23.9657 13.3075 24.0986 13.0261C24.2237 12.7447 24.5285 12.1038 24.7708 11.6036L25.2084 10.6814C24.6301 10.3609 24.5676 10.3609 23.2936 10.4313C22.5667 10.4782 21.8789 10.4782 21.7695 10.4469C21.6601 10.4156 20.9254 10.0952 20.1282 9.75131C19.331 9.3996 18.6432 9.11824 18.6042 9.11824C18.5651 9.11824 18.4009 9.1964 18.2524 9.28237C18.1039 9.37616 17.9633 9.46213 17.9398 9.47776V9.47776Z" fill="black"/>
</svg>
