<svg width="41" height="41" viewBox="0 0 41 41" fill="none" xmlns="http://www.w3.org/2000/svg">
<circle cx="20.5" cy="20.5" r="20.5" fill="#4D545F"/>
<path d="M21 12.8018C23.67 12.8018 23.9862 12.8118 25.041 12.8599C25.6751 12.8677 26.3033 12.9841 26.8981 13.2042C27.3294 13.3705 27.7212 13.6253 28.0481 13.9522C28.375 14.2791 28.6298 14.6709 28.7962 15.1022C29.0163 15.697 29.1327 16.3251 29.1405 16.9592C29.1881 18.014 29.1986 18.3301 29.1986 21C29.1986 23.6699 29.1886 23.986 29.1405 25.0408C29.1327 25.6749 29.0163 26.303 28.7962 26.8978C28.6298 27.3291 28.375 27.7209 28.0481 28.0478C27.7212 28.3747 27.3294 28.6295 26.8981 28.7958C26.3033 29.0159 25.6751 29.1323 25.041 29.1401C23.9867 29.1877 23.6705 29.1982 21 29.1982C18.3295 29.1982 18.0133 29.1882 16.959 29.1401C16.3249 29.1323 15.6967 29.0159 15.1019 28.7958C14.6706 28.6295 14.2788 28.3747 13.9519 28.0478C13.625 27.7209 13.3702 27.3291 13.2038 26.8978C12.9837 26.303 12.8673 25.6749 12.8595 25.0408C12.8119 23.986 12.8014 23.6699 12.8014 21C12.8014 18.3301 12.8114 18.014 12.8595 16.9592C12.8673 16.3251 12.9837 15.697 13.2038 15.1022C13.3702 14.6709 13.625 14.2791 13.9519 13.9522C14.2788 13.6253 14.6706 13.3705 15.1019 13.2042C15.6967 12.9841 16.3249 12.8677 16.959 12.8599C18.0138 12.8123 18.33 12.8018 21 12.8018V12.8018ZM21 11C18.2857 11 17.9438 11.0114 16.8771 11.06C16.0472 11.0765 15.226 11.2336 14.4486 11.5247C13.7817 11.776 13.1776 12.1697 12.6786 12.6785C12.1693 13.1777 11.7752 13.7821 11.5238 14.4494C11.2327 15.2268 11.0756 16.0479 11.059 16.8778C11.0114 17.9435 11 18.2854 11 20.9995C11 23.7137 11.0114 24.0556 11.06 25.1222C11.0765 25.9521 11.2337 26.7733 11.5248 27.5506C11.7759 28.2179 12.1697 28.8222 12.6786 29.3215C13.1779 29.8304 13.7823 30.2241 14.4495 30.4753C15.227 30.7664 16.0481 30.9235 16.8781 30.94C17.9448 30.9876 18.2852 31 21.001 31C23.7167 31 24.0571 30.9886 25.1238 30.94C25.9538 30.9235 26.775 30.7664 27.5524 30.4753C28.2165 30.2179 28.8195 29.8247 29.323 29.3209C29.8264 28.8172 30.2192 28.2139 30.4762 27.5497C30.7673 26.7723 30.9244 25.9512 30.941 25.1212C30.9886 24.0556 31 23.7137 31 20.9995C31 18.2854 30.9886 17.9435 30.94 16.8769C30.9235 16.0469 30.7663 15.2258 30.4752 14.4484C30.2241 13.7812 29.8303 13.1768 29.3214 12.6775C28.8221 12.1687 28.2177 11.7749 27.5505 11.5238C26.773 11.2327 25.9519 11.0756 25.1219 11.059C24.0562 11.0114 23.7143 11 21 11Z" fill="#E9EAEB"/>
<path d="M21 16C20.0111 16 19.0444 16.2932 18.2222 16.8427C17.3999 17.3921 16.759 18.173 16.3806 19.0866C16.0022 20.0002 15.9031 21.0055 16.0961 21.9754C16.289 22.9454 16.7652 23.8363 17.4645 24.5355C18.1637 25.2348 19.0546 25.711 20.0246 25.9039C20.9945 26.0969 21.9998 25.9978 22.9134 25.6194C23.827 25.241 24.6079 24.6001 25.1573 23.7778C25.7068 22.9556 26 21.9889 26 21C26 19.6739 25.4732 18.4021 24.5355 17.4645C23.5979 16.5268 22.3261 16 21 16ZM21 24.2455C20.3581 24.2455 19.7306 24.0552 19.1969 23.6986C18.6631 23.3419 18.2472 22.8351 18.0015 22.242C17.7559 21.649 17.6916 20.9964 17.8168 20.3668C17.942 19.7372 18.2512 19.1589 18.7051 18.705C19.159 18.2512 19.7373 17.942 20.3668 17.8168C20.9964 17.6916 21.649 17.7559 22.242 18.0015C22.8351 18.2472 23.342 18.6631 23.6986 19.1969C24.0552 19.7306 24.2455 20.3581 24.2455 21C24.2455 21.8608 23.9036 22.6863 23.295 23.2949C22.6863 23.9036 21.8608 24.2455 21 24.2455V24.2455Z" fill="#E9EAEB"/>
<path d="M26 16C26.5523 16 27 15.5523 27 15C27 14.4477 26.5523 14 26 14C25.4477 14 25 14.4477 25 15C25 15.5523 25.4477 16 26 16Z" fill="#4D545F"/>
</svg>
