<svg width="41" height="41" viewBox="0 0 41 41" fill="none" xmlns="http://www.w3.org/2000/svg">
<circle cx="20.5" cy="20.5" r="20.5" fill="#4D545F"/>
<path d="M28.5466 10.2684H12.4536C12.2727 10.2659 12.0931 10.2991 11.925 10.366C11.7569 10.4329 11.6037 10.5323 11.474 10.6584C11.3443 10.7846 11.2407 10.935 11.1692 11.1012C11.0977 11.2674 11.0596 11.446 11.0571 11.6269V27.9099C11.0596 28.0908 11.0977 28.2695 11.1692 28.4356C11.2407 28.6018 11.3443 28.7523 11.474 28.8784C11.6037 29.0046 11.7569 29.104 11.925 29.1709C12.0931 29.2378 12.2727 29.2709 12.4536 29.2684H28.5466C28.7275 29.2709 28.9071 29.2378 29.0752 29.1709C29.2433 29.104 29.3966 29.0046 29.5263 28.8784C29.6559 28.7523 29.7595 28.6018 29.831 28.4356C29.9025 28.2695 29.9406 28.0908 29.9431 27.9099V11.6269C29.9406 11.446 29.9025 11.2674 29.831 11.1012C29.7595 10.935 29.6559 10.7846 29.5263 10.6584C29.3966 10.5323 29.2433 10.4329 29.0752 10.366C28.9071 10.2991 28.7275 10.2659 28.5466 10.2684ZM16.7856 26.1714H13.9356V17.6214H16.7856V26.1714ZM15.3606 16.4244C14.9676 16.4244 14.5906 16.2683 14.3127 15.9904C14.0348 15.7124 13.8786 15.3355 13.8786 14.9424C13.8786 14.5494 14.0348 14.1724 14.3127 13.8945C14.5906 13.6166 14.9676 13.4604 15.3606 13.4604C15.5693 13.4368 15.7807 13.4575 15.9809 13.5211C16.181 13.5848 16.3655 13.69 16.5221 13.83C16.6788 13.9699 16.8042 14.1413 16.89 14.333C16.9758 14.5247 17.0202 14.7324 17.0202 14.9424C17.0202 15.1525 16.9758 15.3602 16.89 15.5519C16.8042 15.7436 16.6788 15.915 16.5221 16.0549C16.3655 16.1948 16.181 16.3001 15.9809 16.3637C15.7807 16.4274 15.5693 16.4481 15.3606 16.4244ZM27.0646 26.1714H24.2146V21.5829C24.2146 20.4334 23.8061 19.6829 22.7706 19.6829C22.4501 19.6853 22.1381 19.7858 21.8765 19.9709C21.6149 20.1561 21.4164 20.417 21.3076 20.7184C21.2333 20.9417 21.2011 21.1769 21.2126 21.4119V26.1619H18.3626V17.6119H21.2126V18.8184C21.4715 18.3692 21.8481 17.9991 22.3017 17.748C22.7554 17.4969 23.269 17.3743 23.7871 17.3934C25.6871 17.3934 27.0646 18.6189 27.0646 21.2504V26.1714Z" fill="#E9EAEB"/>
</svg>
