<svg width="131" height="56" viewBox="0 0 131 56" fill="none" xmlns="http://www.w3.org/2000/svg">
<path fill-rule="evenodd" clip-rule="evenodd" d="M28.0001 7.74646C39.1858 7.74646 48.2536 16.8143 48.2536 28C48.2536 39.1857 39.1858 48.2535 28.0001 48.2535C16.8144 48.2535 7.74658 39.1857 7.74658 28C7.74658 16.8143 16.8144 7.74646 28.0001 7.74646Z" fill="white"/>
<mask id="mask0_1_12939" style="mask-type:alpha" maskUnits="userSpaceOnUse" x="7" y="7" width="42" height="42">
<path fill-rule="evenodd" clip-rule="evenodd" d="M28.0001 7.74646C39.1858 7.74646 48.2536 16.8143 48.2536 28C48.2536 39.1857 39.1858 48.2535 28.0001 48.2535C16.8144 48.2535 7.74658 39.1857 7.74658 28C7.74658 16.8143 16.8144 7.74646 28.0001 7.74646Z" fill="white"/>
</mask>
<g mask="url(#mask0_1_12939)">
<path fill-rule="evenodd" clip-rule="evenodd" d="M21.6434 25.5778H24.4588C23.5819 25.3782 22.4701 25.3894 21.6434 25.5778ZM35.0094 26.9229V29.8425C35.7594 29.7244 36.4736 29.4545 36.9876 29.039C37.5453 28.5882 37.5233 28.2953 37.0156 27.8271C36.4895 27.342 35.826 27.0444 35.0094 26.9229ZM40.4283 33.7373L40.4071 33.5731C40.5781 33.0234 40.5916 30.7603 40.5905 30.2435C40.5863 28.1547 40.5148 28.7357 40.7303 26.588C40.939 25.2916 41.15 23.9985 41.3815 22.7227C41.4625 22.2763 41.8049 20.2119 41.8212 19.7777C41.8358 19.3893 41.8395 19.0607 41.5938 18.8892L38.7781 20.1147C38.2216 20.4692 36.6234 21.4709 36.4236 21.8603L37.2845 23.0848C37.5243 23.5453 37.2884 23.5534 37.2881 23.5537C35.7202 22.7129 36.5642 23.1423 35.3404 22.2534C33.409 20.8503 30.5065 19.5734 27.9846 19.4419C27.037 19.3925 25.8262 19.6181 24.9793 19.8602C23.4514 20.2969 23.2325 20.6464 22.8228 19.3215C22.5672 18.4949 22.1719 17.6988 21.8319 16.9139C21.5328 16.2232 21.0886 15.1003 20.4171 14.96L17.5587 21.5835C16.7054 23.9215 15.5167 25.786 14.6142 28.0922C13.4298 31.1189 12.7054 35.5765 11.5465 39.2109C11.3496 39.8287 10.424 42.377 10.4715 42.821C10.6524 43.3102 12.8506 44.3036 13.4151 44.5673C22.6062 53.5505 40.9383 47.4613 41.9466 44.1158C41.8739 43.3223 39.7914 41.1342 39.5019 39.6489C39.253 38.3719 40.6125 34.674 40.4283 33.7373H40.4283ZM40.8336 20.5439L40.7631 20.9124L40.7129 20.9132C41.0404 20.9149 40.7812 21.6061 40.7281 22.3638C40.6722 23.162 40.8154 24.8505 39.1351 24.0699C38.6852 23.8609 38.3853 23.5681 38.098 23.2778C37.2005 22.3711 37.9534 21.4416 38.7057 20.9874C39.1028 20.7476 39.454 20.5672 39.9008 20.3538C40.1799 20.2204 41.4155 19.9074 40.8336 20.5439V20.5439ZM21.2479 20.2165C21.0798 20.2138 21.1582 20.1917 20.9494 20.2583C20.9325 20.2637 20.9115 20.2756 20.8982 20.2806C20.8849 20.2856 20.8582 20.3211 20.8489 20.3065C20.8396 20.292 20.8171 20.3254 20.801 20.3346C20.4843 20.3927 20.1446 20.3949 19.8268 20.4512C19.4638 20.5155 19.2517 20.686 18.9708 20.6739C19.0671 20.1876 19.6964 16.4018 20.3227 16.2141C20.9847 16.0158 21.1511 17.5603 21.3053 18.0742C21.5679 18.9492 22.0382 19.3186 21.4952 20.2195L21.2479 20.2165V20.2165Z" fill="white"/>
<path fill-rule="evenodd" clip-rule="evenodd" d="M9.43994 42.226C9.66035 42.3861 10.1863 42.8321 10.4714 42.8209C10.4239 42.377 11.3495 39.8286 11.5465 39.2109C12.7053 35.5764 13.4297 31.1189 14.6141 28.0922C15.5166 25.786 16.7053 23.9214 17.5587 21.5835L20.417 14.9599C21.0885 15.1003 21.5327 16.2231 21.8318 16.9138C22.1718 17.6988 22.5671 18.4948 22.8227 19.3214C23.2325 20.6464 23.4513 20.2968 24.9792 19.8601C25.8261 19.618 27.037 19.3924 27.9846 19.4418C30.5065 19.5734 33.4089 20.8502 35.3404 22.2533C36.5641 23.1423 35.7201 22.7129 37.2881 23.5537C37.2884 23.5534 37.5242 23.5452 37.2844 23.0847L36.4236 21.8602C36.6233 21.4708 38.2215 20.4691 38.7781 20.1146L41.5938 18.8891C41.8394 19.0606 41.8357 19.3892 41.8211 19.7776C41.8049 20.2118 41.4625 22.2762 41.3815 22.7226C41.1499 23.9984 40.9389 25.2916 40.7302 26.5879C40.5147 28.7356 40.5862 28.1546 40.5904 30.2434C40.5911 30.5757 40.5752 31.63 40.5183 32.4866C40.4789 33.0802 40.3735 33.5775 40.3271 34.1736C40.2221 35.5202 39.283 38.5262 39.5019 39.6489C39.7914 41.1342 41.8738 43.3223 41.9465 44.1158C42.3028 44.2392 42.8531 43.7634 43.1726 43.596C43.11 42.4248 40.9104 41.2201 40.8285 38.943C40.7924 37.937 41.0655 36.8452 41.2644 35.8972C41.5906 34.3421 41.8943 31.1708 41.9258 29.5501C41.9513 28.2317 41.8281 27.4987 42.0457 26.159C42.3737 24.1399 42.6974 22.1103 43.0449 20.0975C43.2346 18.9991 43.4394 17.8515 42.1021 17.8099C40.4997 17.7601 38.4288 19.1395 37.3163 20.0392C36.9796 20.3115 36.7128 20.6314 36.4317 20.9196C35.9085 21.456 35.7709 21.2705 35.2839 20.9234C33.5077 19.6574 29.5095 18.469 27.0983 18.552C25.9195 18.5926 25.2339 18.8432 24.1334 19.1537C23.7017 18.074 23.2107 16.9219 22.7244 15.8355C22.1915 14.645 21.7179 13.5625 20.1022 13.6314C19.726 13.8481 19.4077 13.7186 18.8661 14.7632C18.1457 16.1528 17.1938 18.5344 16.7849 20.056C16.4174 21.4232 16.0013 22.4834 15.4067 23.5928C14.7874 24.7483 14.4123 25.7121 13.9012 27.0014C12.5025 30.5303 12.4169 30.6676 11.5574 34.4915C11.2569 35.8282 10.9389 37.1391 10.5323 38.386C10.2857 39.1423 9.47018 41.5288 9.43994 42.226V42.226Z" fill="#231F20"/>
<path fill-rule="evenodd" clip-rule="evenodd" d="M27.5417 31.708C27.6322 31.6909 29.3739 31.9113 29.6658 32.2607C29.2965 32.6341 28.6982 33.3025 28.1701 33.4228C27.9578 33.2803 27.0589 31.7992 27.5417 31.708V31.708ZM27.5628 34.1524C27.5818 34.7644 26.784 35.0851 26.1031 35.0051C25.8055 34.9702 25.4702 34.836 25.1731 34.7422C23.894 34.3383 23.6887 34.5209 23.3401 33.394C23.2141 32.9867 22.6765 32.93 22.5004 33.2457C22.2235 33.7422 22.5905 34.4205 22.9871 34.7336C23.7975 35.3733 25.9225 36.0921 26.8715 35.8857C27.242 35.8051 27.443 35.592 27.8868 35.6917C28.2514 35.7735 28.4706 36.0451 28.703 36.2028C29.8507 36.9818 33.9609 37.3292 34.0737 35.0994C34.0946 34.6846 33.9505 34.3416 33.7725 34.0966C33.4704 33.6807 33.0212 33.587 32.5467 33.5908C32.9233 34.0952 33.4058 34.5584 33.1802 35.1916C32.9791 35.7563 32.0924 35.7333 31.4365 35.7763C30.3921 35.8449 27.7574 35.7219 28.6412 34.3711C28.9696 33.8692 29.2766 33.4776 29.8139 33.2119C30.1729 33.0343 31.0303 32.4514 30.5936 31.8544C30.1695 31.2745 28.2133 30.8854 27.1147 30.8859C26.6165 30.8861 26.4262 31.1138 26.4695 31.6258C26.4906 31.8757 26.5944 32.0587 26.6719 32.2363C26.8658 32.6805 27.5547 33.8927 27.5628 34.1524V34.1524Z" fill="#231F20"/>
<path fill-rule="evenodd" clip-rule="evenodd" d="M32.2661 28.5417C32.3814 28.3131 33.2239 27.9809 33.5231 27.9699L33.5081 28.9643C33.2507 28.9837 32.4492 28.6794 32.2661 28.5417V28.5417ZM34.6782 27.9435C35.0346 28.0528 35.691 28.1851 35.9399 28.4787L35.7876 28.594C35.7754 28.6014 35.646 28.6632 35.6166 28.6765C35.4807 28.7382 35.3829 28.7792 35.2602 28.8278C35.0054 28.9286 34.8332 29.0211 34.5245 29.0503L34.6782 27.9435V27.9435ZM29.9387 30.7482L30.0661 31.0525C30.3974 31.1147 30.6363 30.9994 30.7309 30.7236C30.8332 30.4254 30.6787 30.0593 30.8063 29.7924C30.8831 29.6316 31.1747 29.4845 31.3978 29.3744C31.8193 29.1663 31.9059 29.3255 32.2069 29.4881C33.4991 30.1866 35.7879 30.0086 36.9873 29.0391C37.545 28.5883 37.523 28.2955 37.0153 27.8272C36.258 27.129 35.216 26.819 33.8429 26.8639C31.2509 27.1847 31.245 28.292 30.724 28.5737C30.4017 28.7481 30.315 28.7308 30.1419 29.001C29.9111 29.3614 29.8114 30.2859 29.9387 30.7482V30.7482Z" fill="#231F20"/>
<path fill-rule="evenodd" clip-rule="evenodd" d="M24.4223 26.6664C24.8499 26.7343 25.5645 27.4007 25.5834 27.8926C25.0884 27.9285 24.6325 27.9373 24.1558 27.8285L24.4223 26.6664V26.6664ZM22.0733 26.5245C22.3546 26.3705 23.0333 26.3211 23.3885 26.3412C23.3422 26.7365 23.1682 26.9344 23.1316 27.5333C22.7611 27.4134 22.168 26.8809 22.0733 26.5245V26.5245ZM20.9246 25.8271C20.7412 27.5998 22.6235 28.4622 23.7738 28.581C24.4465 28.6505 25.9121 28.3715 26.0974 29.0533C26.2259 29.526 25.9374 29.9351 26.3699 30.1502C26.7997 30.3639 27.2253 30.2421 27.183 29.6779C27.145 29.1725 26.8309 29.085 26.5954 28.8531C26.0717 28.3373 27.5865 27.7814 25.5513 26.0545C24.6268 25.27 21.9884 25.2649 20.9246 25.8271V25.8271Z" fill="#231F20"/>
<path fill-rule="evenodd" clip-rule="evenodd" d="M25.1293 38.2735C25.3532 38.3656 25.3497 38.2816 25.5637 38.3377C25.7791 38.3942 25.6967 38.4326 25.8677 38.5333C26.1435 38.6958 26.3991 38.5281 26.7189 38.6922C27.1402 38.9084 26.8109 38.9322 27.4196 38.8739C27.7968 38.8378 27.9724 39.041 28.3207 38.8415C28.4598 38.7618 28.5049 38.6708 28.6066 38.6208C28.8913 38.4808 28.7678 38.6172 29.0395 38.5585C29.2919 38.504 29.3944 38.261 29.5903 38.0933C29.7599 37.948 30.1589 37.8845 29.9379 37.5627C29.3882 36.7625 28.6081 39 26.1161 37.4653C25.8532 37.3034 25.1371 36.6321 24.9213 36.7045C24.6697 36.7891 24.7151 37.2728 24.7771 37.5439C24.806 37.6705 24.8549 37.8015 24.9025 37.9236C24.9828 38.1292 24.9764 38.1575 25.1293 38.2735V38.2735Z" fill="#231F20"/>
<path fill-rule="evenodd" clip-rule="evenodd" d="M40.7131 20.9132L40.7632 20.9125L40.8337 20.5439C39.6141 20.7992 38.5283 21.5333 38.0386 22.3015L38.8643 23.2681C39.1264 23.4332 39.7225 23.8292 40.0643 23.7905L40.7131 20.9132V20.9132Z" fill="#FF1846"/>
<path fill-rule="evenodd" clip-rule="evenodd" d="M40.7127 20.9133L40.0639 23.7905C39.7221 23.8293 39.1261 23.4333 38.8639 23.2681L38.0382 22.3016C38.528 21.5333 39.6137 20.7993 40.8334 20.544C41.4153 19.9074 40.1796 20.2205 39.9006 20.3538C39.4537 20.5673 39.1026 20.7477 38.7054 20.9875C37.9532 21.4417 37.2002 22.3712 38.0977 23.2779C38.3851 23.5682 38.685 23.861 39.1348 24.07C40.8151 24.8506 40.6719 23.1621 40.7279 22.3639C40.7809 21.6062 41.0401 20.915 40.7127 20.9133V20.9133Z" fill="#242021"/>
<path fill-rule="evenodd" clip-rule="evenodd" d="M20.8011 20.3348C20.8171 20.3255 20.8396 20.2922 20.8489 20.3067C20.8583 20.3213 20.8849 20.2858 20.8982 20.2808C20.9115 20.2758 20.9325 20.2639 20.9494 20.2585C21.1582 20.1919 21.0798 20.214 21.2479 20.2167C21.2094 19.5038 21.5832 19.8233 21.0215 18.3586C20.7619 17.6814 20.7079 17.3387 20.5432 16.6367C20.3507 16.7012 20.3798 16.7124 20.2813 16.9314C19.904 17.7697 19.6618 19.1858 19.4663 20.1042C20.4441 20.1674 20.7275 19.9339 20.8011 20.3348Z" fill="#FF1846"/>
<path fill-rule="evenodd" clip-rule="evenodd" d="M20.801 20.3346C20.7274 19.9337 20.444 20.1672 19.4662 20.104C19.6617 19.1856 19.9039 17.7695 20.2811 16.9312C20.3797 16.7122 20.3506 16.701 20.5431 16.6365C20.7078 17.3385 20.7618 17.6812 21.0214 18.3584C21.5831 19.8231 21.2093 19.5036 21.2478 20.2165L21.4952 20.2195C22.0382 19.3186 21.5678 18.9492 21.3052 18.0742C21.151 17.5603 20.9846 16.0158 20.3227 16.2141C19.6964 16.4018 19.067 20.1875 18.9707 20.6739C19.2516 20.686 19.4637 20.5155 19.8268 20.4512C20.1446 20.3949 20.4842 20.3927 20.801 20.3346V20.3346Z" fill="#242021"/>
<path fill-rule="evenodd" clip-rule="evenodd" d="M28.1699 33.4226C28.698 33.3023 29.2963 32.6339 29.6656 32.2605C29.3736 31.9112 27.6319 31.6908 27.5415 31.7078C27.0586 31.799 27.9575 33.2801 28.1699 33.4226Z" fill="#FF1846"/>
<path fill-rule="evenodd" clip-rule="evenodd" d="M24.1558 27.8284C24.6325 27.9372 25.0884 27.9285 25.5833 27.8925C25.5644 27.4006 24.8499 26.7342 24.4223 26.6664L24.1558 27.8284V27.8284Z" fill="#FDFDFD"/>
<path fill-rule="evenodd" clip-rule="evenodd" d="M22.0732 26.5246C22.1679 26.881 22.761 27.4135 23.1315 27.5334C23.1681 26.9345 23.3422 26.7366 23.3885 26.3413C23.0332 26.3212 22.3546 26.3706 22.0732 26.5246V26.5246Z" fill="#FDFDFD"/>
<path fill-rule="evenodd" clip-rule="evenodd" d="M34.5249 29.0502C34.8336 29.021 35.0058 28.9285 35.2606 28.8277C35.3833 28.7792 35.4811 28.7382 35.617 28.6765C35.6464 28.6632 35.7758 28.6013 35.788 28.594L35.9403 28.4787C35.6914 28.185 35.035 28.0528 34.6786 27.9435L34.5249 29.0502V29.0502Z" fill="#FDFDFD"/>
<path fill-rule="evenodd" clip-rule="evenodd" d="M32.2661 28.5415C32.4492 28.6792 33.2507 28.9835 33.5081 28.9641L33.5231 27.9697C33.2239 27.9807 32.3814 28.3129 32.2661 28.5415V28.5415Z" fill="#FDFDFD"/>
<path fill-rule="evenodd" clip-rule="evenodd" d="M25.0994 33.5163C24.947 33.579 24.7987 33.6509 24.9042 33.9431C24.9696 34.1244 25.186 34.1818 25.3524 34.1106C25.7005 33.9619 25.5469 33.3322 25.0994 33.5163Z" fill="#242021"/>
<path fill-rule="evenodd" clip-rule="evenodd" d="M24.0204 32.9193L24.0112 33.2885C24.2673 33.4939 24.3766 33.5003 24.615 33.3141C24.7225 32.8714 24.5781 32.7886 24.1802 32.7978C24.1656 32.8128 24.0353 32.9107 24.0204 32.9193Z" fill="#242021"/>
<path fill-rule="evenodd" clip-rule="evenodd" d="M29.9462 34.7132C29.9074 35.2078 30.1325 35.2659 30.5255 35.1227C30.613 34.8199 30.5785 34.748 30.4099 34.5541L30.1245 34.5571L29.9462 34.7132Z" fill="#242021"/>
<path fill-rule="evenodd" clip-rule="evenodd" d="M32.1264 34.6468L32.1048 34.1651L31.6393 34.1608C31.3199 34.6403 31.6774 34.9733 32.1264 34.6468Z" fill="#242021"/>
</g>
<path d="M59 33.3303V18.9519H65.2089C66.3808 18.9519 67.306 19.1402 67.9845 19.5168C68.6629 19.8865 69.1461 20.3692 69.4339 20.9649C69.7217 21.5537 69.8656 22.1699 69.8656 22.8135C69.8656 23.4571 69.7252 24.0459 69.4442 24.58C69.1632 25.1072 68.704 25.5146 68.0667 25.8022C68.5875 25.987 69.0159 26.2541 69.3517 26.6032C69.6943 26.9456 69.9445 27.3359 70.1021 27.7741C70.2666 28.2054 70.3488 28.6436 70.3488 29.0886C70.3488 29.5953 70.2631 30.102 70.0918 30.6086C69.9273 31.1085 69.6566 31.5638 69.2797 31.9746C68.9028 32.3854 68.4025 32.7141 67.7789 32.9605C67.1621 33.207 66.4014 33.3303 65.4968 33.3303H59ZM61.6624 30.8346H65.6715C66.1855 30.8346 66.5864 30.7456 66.8743 30.5676C67.1689 30.3895 67.3745 30.167 67.491 29.9C67.6144 29.6261 67.6761 29.3557 67.6761 29.0886C67.6761 28.76 67.6041 28.4485 67.4602 28.1541C67.3231 27.8528 67.0661 27.6063 66.6892 27.4146C66.3191 27.2229 65.7812 27.127 65.0753 27.127H61.6624V30.8346ZM61.6624 24.7341H64.88C65.6612 24.7341 66.2369 24.5834 66.607 24.2822C66.9839 23.9741 67.1724 23.5667 67.1724 23.06C67.1724 22.7998 67.1244 22.5465 67.0284 22.3C66.9325 22.0467 66.7475 21.8378 66.4733 21.6735C66.1992 21.5092 65.7949 21.427 65.2603 21.427H61.6624V24.7341Z" fill="white"/>
<path d="M73.4004 33.3303V19.6605L75.9703 18.5V33.3303H73.4004Z" fill="white"/>
<path d="M83.0739 33.5768C81.9021 33.5768 80.994 33.2139 80.3498 32.4881C79.7056 31.7555 79.3835 30.7216 79.3835 29.3865V22.8341H81.9535V28.5854C81.9535 29.4686 82.1042 30.1123 82.4058 30.5162C82.7073 30.9202 83.1836 31.1222 83.8346 31.1222C84.5337 31.1222 85.0476 30.9202 85.3766 30.5162C85.7124 30.1054 85.8803 29.4755 85.8803 28.6265V22.8341H88.4399V33.3303H85.8803V32.3443C85.5582 32.7551 85.1607 33.0632 84.6879 33.2686C84.2218 33.4741 83.6839 33.5768 83.0739 33.5768Z" fill="white"/>
<path d="M95.9859 33.5768C94.9785 33.5768 94.1081 33.3508 93.3748 32.8989C92.6484 32.447 92.0865 31.8103 91.689 30.9886C91.2983 30.1602 91.103 29.1879 91.103 28.0719C91.103 26.9422 91.3018 25.9665 91.6993 25.1449C92.1036 24.3232 92.669 23.6933 93.3954 23.2551C94.1287 22.8101 94.9922 22.5876 95.9859 22.5876C96.8357 22.5876 97.6067 22.7656 98.2988 23.1216C98.991 23.4777 99.5427 24.0254 99.9539 24.7649C100.365 25.4975 100.571 26.4321 100.571 27.5686C100.571 27.7467 100.564 27.9658 100.55 28.2259C100.543 28.4793 100.526 28.736 100.499 28.9962H93.6421C93.6695 29.4755 93.7792 29.8966 93.9711 30.2595C94.1698 30.6155 94.4405 30.8928 94.7832 31.0914C95.1258 31.2899 95.5302 31.3892 95.9962 31.3892C96.4964 31.3892 96.9316 31.307 97.3017 31.1427C97.6718 30.9715 98.0213 30.7011 98.3502 30.3314L99.8305 31.8616C99.3782 32.3751 98.8334 32.7894 98.196 33.1043C97.5587 33.4193 96.822 33.5768 95.9859 33.5768ZM93.6524 26.9935H98.0829C98.0487 26.5348 97.9459 26.1411 97.7746 25.8124C97.6032 25.4769 97.3634 25.2202 97.055 25.0422C96.7466 24.8641 96.3731 24.7751 95.9345 24.7751C95.3314 24.7751 94.8174 24.96 94.3925 25.3297C93.9676 25.6995 93.7209 26.2541 93.6524 26.9935Z" fill="white"/>
<path d="M107.442 33.5768C106.092 33.5768 105.033 33.0906 104.266 32.1184C103.498 31.1461 103.114 29.7973 103.114 28.0719C103.114 26.9764 103.296 26.0178 103.659 25.1962C104.022 24.3746 104.529 23.7344 105.18 23.2757C105.838 22.8169 106.602 22.5876 107.473 22.5876C108.405 22.5876 109.169 22.9299 109.765 23.6146V19.6605L112.325 18.5V33.3303H109.765V32.4676C109.258 33.207 108.484 33.5768 107.442 33.5768ZM107.863 31.1222C108.302 31.1222 108.676 31.0468 108.984 30.8962C109.292 30.7387 109.553 30.5059 109.765 30.1978V25.9562C109.553 25.6686 109.275 25.4427 108.933 25.2784C108.597 25.1141 108.24 25.0319 107.863 25.0319C107.171 25.0319 106.637 25.2955 106.26 25.8227C105.883 26.3431 105.694 27.0928 105.694 28.0719C105.694 28.7155 105.78 29.2667 105.951 29.7254C106.123 30.1773 106.369 30.5231 106.692 30.7627C107.014 31.0023 107.404 31.1222 107.863 31.1222Z" fill="white"/>
<path d="M115.761 33.3303V22.8341H118.331V33.3303H115.761ZM117.046 21.5195C116.635 21.5195 116.279 21.3723 115.977 21.0778C115.682 20.7766 115.535 20.4205 115.535 20.0097C115.535 19.5989 115.682 19.2497 115.977 18.9622C116.272 18.6677 116.628 18.5205 117.046 18.5205C117.478 18.5205 117.838 18.6643 118.126 18.9519C118.413 19.2395 118.557 19.5921 118.557 20.0097C118.557 20.4274 118.41 20.7834 118.115 21.0778C117.828 21.3723 117.471 21.5195 117.046 21.5195Z" fill="white"/>
<path d="M121.769 37.5V22.8341H124.339V23.6043C124.914 22.9265 125.685 22.5876 126.652 22.5876C127.549 22.5876 128.324 22.8101 128.975 23.2551C129.626 23.6933 130.126 24.3232 130.476 25.1449C130.825 25.9665 131 26.9456 131 28.0822C131 29.1845 130.818 30.1499 130.455 30.9784C130.092 31.8 129.581 32.4402 128.924 32.8989C128.266 33.3508 127.498 33.5768 126.621 33.5768C126.141 33.5768 125.709 33.4912 125.326 33.32C124.942 33.142 124.613 32.8818 124.339 32.5395V36.3395L121.769 37.5ZM126.24 31.1222C126.94 31.1222 127.477 30.8586 127.854 30.3314C128.231 29.7973 128.42 29.0476 128.42 28.0822C128.42 27.1168 128.228 26.367 127.844 25.833C127.46 25.2989 126.926 25.0319 126.24 25.0319C125.822 25.0319 125.456 25.1072 125.141 25.2578C124.832 25.4085 124.565 25.6378 124.339 25.9459V30.1876C124.524 30.482 124.784 30.7114 125.12 30.8757C125.463 31.04 125.836 31.1222 126.24 31.1222Z" fill="white"/>
</svg>
