<svg width="124" height="50" viewBox="0 0 124 50" fill="none" xmlns="http://www.w3.org/2000/svg">
<g clip-path="url(#clip0_831_12507)">
<path fill-rule="evenodd" clip-rule="evenodd" d="M24.5286 5.9375C35.0567 5.9375 43.5913 14.4722 43.5913 25.0002C43.5913 35.5282 35.0567 44.0629 24.5286 44.0629C14.0006 44.0629 5.46594 35.5282 5.46594 25.0002C5.46594 14.4722 14.0006 5.9375 24.5286 5.9375Z" fill="black"/>
<mask id="mask0_831_12507" style="mask-type:alpha" maskUnits="userSpaceOnUse" x="5" y="5" width="39" height="40">
<path fill-rule="evenodd" clip-rule="evenodd" d="M24.5286 5.9375C35.0567 5.9375 43.5913 14.4722 43.5913 25.0002C43.5913 35.5282 35.0567 44.0629 24.5286 44.0629C14.0006 44.0629 5.46594 35.5282 5.46594 25.0002C5.46594 14.4722 14.0006 5.9375 24.5286 5.9375Z" fill="black"/>
</mask>
<g mask="url(#mask0_831_12507)">
<path fill-rule="evenodd" clip-rule="evenodd" d="M18.5459 22.7206H21.1958C20.3704 22.5327 19.324 22.5432 18.5459 22.7206ZM31.1261 23.9866V26.7345C31.832 26.6234 32.5041 26.3693 32.9879 25.9783C33.5128 25.554 33.4921 25.2784 33.0142 24.8377C32.5191 24.3811 31.8946 24.101 31.1261 23.9866ZM36.2263 30.4004L36.2064 30.2458C36.3673 29.7284 36.38 27.5984 36.379 27.112C36.375 25.146 36.3077 25.6928 36.5105 23.6714C36.707 22.4513 36.9056 21.2342 37.1235 20.0334C37.1998 19.6132 37.522 17.6702 37.5373 17.2615C37.551 16.8959 37.5545 16.5866 37.3233 16.4253L34.6732 17.5787C34.1494 17.9124 32.6451 18.8552 32.4571 19.2216L33.2674 20.3741C33.4931 20.8076 33.2711 20.8153 33.2708 20.8156C31.795 20.0242 32.5894 20.4283 31.4376 19.5916C29.6197 18.2711 26.8879 17.0693 24.5143 16.9455C23.6224 16.899 22.4827 17.1113 21.6856 17.3392C20.2476 17.7502 20.0416 18.0792 19.6559 16.8321C19.4154 16.0541 19.0433 15.3049 18.7233 14.5661C18.4418 13.916 18.0237 12.8592 17.3917 12.7271L14.7014 18.9612C13.8982 21.1617 12.7794 22.9166 11.93 25.0872C10.8152 27.936 10.1334 32.1314 9.04267 35.5522C8.85729 36.1336 7.98615 38.5321 8.03083 38.95C8.20109 39.4104 10.27 40.3455 10.8014 40.5936C19.4521 49.0486 36.7063 43.3175 37.6553 40.1687C37.5869 39.4218 35.6269 37.3624 35.3544 35.9644C35.1201 34.7625 36.3997 31.282 36.2263 30.4004H36.2263ZM36.6078 17.9827L36.5414 18.3295L36.4942 18.3302C36.8024 18.3319 36.5584 18.9825 36.5085 19.6955C36.4559 20.4469 36.5906 22.0361 35.0091 21.3014C34.5857 21.1047 34.3034 20.8291 34.033 20.5559C33.1883 19.7025 33.897 18.8276 34.605 18.4001C34.9788 18.1744 35.3093 18.0046 35.7299 17.8037C35.9925 17.6782 37.1555 17.3836 36.6078 17.9827ZM18.1736 17.6745C18.0154 17.672 18.0892 17.6512 17.8927 17.7139C17.8768 17.7189 17.857 17.7302 17.8445 17.7349C17.832 17.7396 17.8069 17.773 17.7981 17.7593C17.7893 17.7456 17.7681 17.777 17.7531 17.7857C17.4549 17.8404 17.1352 17.8424 16.8361 17.8954C16.4944 17.956 16.2948 18.1164 16.0304 18.105C16.121 17.6473 16.7134 14.0841 17.3029 13.9075C17.9259 13.7208 18.0825 15.1745 18.2277 15.6582C18.4748 16.4818 18.9175 16.8294 18.4064 17.6773L18.1736 17.6745Z" fill="white"/>
<path fill-rule="evenodd" clip-rule="evenodd" d="M7.06 38.3899C7.26744 38.5407 7.76248 38.9604 8.03082 38.9499C7.98613 38.532 8.85727 36.1335 9.04266 35.5521C10.1334 32.1313 10.8152 27.9358 11.93 25.0871C12.7794 22.9165 13.8982 21.1615 14.7014 18.9611L17.3917 12.7269C18.0237 12.8591 18.4418 13.9159 18.7233 14.566C19.0433 15.3048 19.4154 16.054 19.6559 16.832C20.0416 18.0791 20.2476 17.7501 21.6856 17.339C22.4827 17.1112 23.6224 16.8989 24.5143 16.9454C26.8879 17.0692 29.6197 18.2709 31.4376 19.5915C32.5894 20.4282 31.795 20.0241 33.2708 20.8154C33.271 20.8151 33.4931 20.8075 33.2674 20.374L32.4571 19.2215C32.6451 18.8551 34.1493 17.9123 34.6732 17.5786L37.3233 16.4252C37.5545 16.5865 37.551 16.8958 37.5373 17.2614C37.522 17.6701 37.1997 19.6131 37.1235 20.0332C36.9056 21.2341 36.707 22.4511 36.5105 23.6713C36.3077 25.6927 36.375 25.1459 36.379 27.1119C36.3796 27.4246 36.3646 28.4169 36.3111 29.2231C36.274 29.7818 36.1748 30.2499 36.1311 30.8109C36.0323 32.0784 35.1484 34.9076 35.3544 35.9643C35.6269 37.3623 37.5869 39.4217 37.6553 40.1686C37.9907 40.2848 38.5086 39.8369 38.8094 39.6793C38.7504 38.577 36.6801 37.4432 36.6031 35.2999C36.569 34.353 36.8261 33.3254 37.0133 32.4332C37.3203 30.9696 37.6062 27.9847 37.6358 26.4593C37.6599 25.2184 37.5439 24.5285 37.7487 23.2676C38.0574 21.3672 38.3621 19.457 38.6892 17.5625C38.8676 16.5287 39.0604 15.4486 37.8018 15.4094C36.2936 15.3625 34.3444 16.6608 33.2973 17.5076C32.9805 17.7639 32.7294 18.065 32.4648 18.3362C31.9723 18.8411 31.8428 18.6665 31.3844 18.3398C29.7126 17.1483 25.9496 16.0297 23.6801 16.1079C22.5706 16.1461 21.9253 16.382 20.8895 16.6741C20.4832 15.6579 20.0211 14.5736 19.5634 13.551C19.0618 12.4305 18.616 11.4117 17.0953 11.4766C16.7412 11.6805 16.4417 11.5586 15.932 12.5418C15.2539 13.8497 14.358 16.0912 13.9731 17.5234C13.6273 18.8103 13.2356 19.8081 12.6759 20.8523C12.093 21.9398 11.74 22.8469 11.259 24.0605C9.94249 27.3819 9.86193 27.5111 9.05295 31.1102C8.77016 32.3683 8.47084 33.6021 8.08814 34.7757C7.85603 35.4875 7.08846 37.7337 7.06 38.3899Z" fill="#231F20"/>
<path fill-rule="evenodd" clip-rule="evenodd" d="M24.0974 28.4901C24.1826 28.4741 25.8218 28.6815 26.0966 29.0103C25.749 29.3617 25.1859 29.9908 24.6888 30.1041C24.489 29.97 23.6429 28.5759 24.0974 28.4901ZM24.1172 30.7908C24.1351 31.3668 23.3842 31.6686 22.7434 31.5934C22.4632 31.5605 22.1477 31.4342 21.868 31.3459C20.6642 30.9658 20.4709 31.1376 20.1428 30.077C20.0242 29.6936 19.5182 29.6403 19.3525 29.9374C19.0919 30.4047 19.4372 31.0432 19.8105 31.3378C20.5733 31.9399 22.5733 32.6164 23.4665 32.4221C23.8153 32.3463 24.0044 32.1458 24.4222 32.2396C24.7653 32.3166 24.9717 32.5722 25.1904 32.7206C26.2706 33.4538 30.1392 33.7808 30.2453 31.6821C30.265 31.2917 30.1294 30.9688 29.9619 30.7382C29.6775 30.3468 29.2547 30.2587 28.8081 30.2622C29.1626 30.737 29.6167 31.1729 29.4044 31.7689C29.2151 32.3004 28.3805 32.2787 27.7632 32.3192C26.7802 32.3838 24.3004 32.268 25.1322 30.9966C25.4413 30.5243 25.7302 30.1557 26.236 29.9055C26.5739 29.7384 27.3808 29.1898 26.9699 28.6279C26.5706 28.0821 24.7295 27.7158 23.6955 27.7163C23.2266 27.7165 23.0475 27.9308 23.0882 28.4127C23.1081 28.648 23.2058 28.8202 23.2787 28.9874C23.4612 29.4055 24.1096 30.5463 24.1172 30.7908Z" fill="#231F20"/>
<path fill-rule="evenodd" clip-rule="evenodd" d="M28.5443 25.51C28.6529 25.2948 29.4458 24.9821 29.7274 24.9718L29.7133 25.9076C29.4711 25.9259 28.7167 25.6395 28.5443 25.51ZM30.8146 24.9469C31.1501 25.0498 31.7679 25.1743 32.0022 25.4507L31.8588 25.5592C31.8473 25.5661 31.7255 25.6243 31.6979 25.6368C31.5699 25.6949 31.4779 25.7335 31.3623 25.7792C31.1226 25.874 30.9605 25.9611 30.6699 25.9886L30.8146 24.9469ZM26.3538 27.5867L26.4737 27.8731C26.7855 27.9316 27.0103 27.8231 27.0994 27.5636C27.1957 27.2828 27.0503 26.9383 27.1704 26.6871C27.2427 26.5358 27.5171 26.3973 27.7271 26.2937C28.1238 26.0978 28.2053 26.2476 28.4886 26.4007C29.7048 27.0581 31.8591 26.8905 32.988 25.9781C33.5129 25.5538 33.4922 25.2782 33.0143 24.8375C32.3015 24.1803 31.3208 23.8885 30.0284 23.9308C27.5888 24.2327 27.5833 25.2749 27.0929 25.5401C26.7895 25.7042 26.7079 25.6879 26.545 25.9422C26.3277 26.2814 26.2339 27.1516 26.3538 27.5867Z" fill="#231F20"/>
<path fill-rule="evenodd" clip-rule="evenodd" d="M21.1615 23.7454C21.564 23.8092 22.2366 24.4364 22.2543 24.8994C21.7885 24.9332 21.3594 24.9415 20.9107 24.8391L21.1615 23.7454ZM18.9506 23.6117C19.2154 23.4668 19.8542 23.4203 20.1886 23.4392C20.1449 23.8113 19.9811 23.9976 19.9467 24.5612C19.598 24.4484 19.0398 23.9472 18.9506 23.6117ZM17.8695 22.9554C17.6968 24.6238 19.4685 25.4356 20.5512 25.5473C21.1843 25.6127 22.5637 25.3502 22.7381 25.9919C22.859 26.4368 22.5876 26.8218 22.9946 27.0243C23.3992 27.2254 23.7998 27.1108 23.7599 26.5797C23.7241 26.1041 23.4285 26.0217 23.2069 25.8034C22.714 25.318 24.1397 24.7948 22.2242 23.1694C21.354 22.431 18.8707 22.4262 17.8695 22.9554Z" fill="#231F20"/>
<path fill-rule="evenodd" clip-rule="evenodd" d="M21.8269 34.6698C22.0376 34.7565 22.0343 34.6774 22.2357 34.7302C22.4385 34.7834 22.3609 34.8195 22.5218 34.9144C22.7814 35.0673 23.0219 34.9095 23.323 35.0639C23.7195 35.2674 23.4096 35.2898 23.9825 35.2349C24.3375 35.2009 24.5028 35.3922 24.8306 35.2044C24.9616 35.1294 25.004 35.0437 25.0997 34.9967C25.3677 34.8649 25.2514 34.9933 25.5072 34.938C25.7447 34.8867 25.8412 34.6581 26.0255 34.5002C26.1852 34.3635 26.5607 34.3037 26.3527 34.0008C25.8353 33.2477 25.1011 35.3536 22.7556 33.9091C22.5082 33.7567 21.8342 33.1249 21.6311 33.1931C21.3942 33.2727 21.437 33.7279 21.4953 33.9832C21.5225 34.1023 21.5686 34.2256 21.6134 34.3405C21.6889 34.534 21.683 34.5606 21.8269 34.6698Z" fill="#231F20"/>
<path fill-rule="evenodd" clip-rule="evenodd" d="M36.4943 18.3302L36.5415 18.3295L36.6079 17.9827C35.4599 18.2229 34.438 18.9138 33.9771 19.6369L34.7542 20.5466C35.0009 20.702 35.562 21.0748 35.8836 21.0383L36.4943 18.3302Z" fill="#FF1846"/>
<path fill-rule="evenodd" clip-rule="evenodd" d="M36.4942 18.3303L35.8836 21.0384C35.5619 21.0749 35.0009 20.7021 34.7541 20.5467L33.977 19.637C34.438 18.9139 35.4599 18.223 36.6078 17.9828C37.1555 17.3836 35.9925 17.6783 35.7299 17.8038C35.3093 18.0047 34.9788 18.1745 34.605 18.4002C33.897 18.8277 33.1883 19.7025 34.033 20.5559C34.3035 20.8291 34.5857 21.1047 35.0091 21.3014C36.5907 22.0362 36.4559 20.4469 36.5085 19.6956C36.5585 18.9825 36.8024 18.3319 36.4942 18.3303Z" fill="#242021"/>
<path fill-rule="evenodd" clip-rule="evenodd" d="M17.7531 17.7856C17.7682 17.7769 17.7894 17.7454 17.7981 17.7591C17.807 17.7729 17.8321 17.7395 17.8445 17.7348C17.8571 17.7301 17.8769 17.7188 17.8928 17.7138C18.0893 17.6511 18.0155 17.6719 18.1737 17.6744C18.1374 17.0034 18.4892 17.3042 17.9606 15.9255C17.7162 15.2882 17.6655 14.9657 17.5104 14.3049C17.3292 14.3656 17.3566 14.3762 17.2639 14.5823C16.9088 15.3713 16.6808 16.7042 16.4968 17.5685C17.4171 17.628 17.6839 17.4083 17.7531 17.7856Z" fill="#FF1846"/>
<path fill-rule="evenodd" clip-rule="evenodd" d="M17.7531 17.7857C17.6838 17.4085 17.4171 17.6282 16.4968 17.5687C16.6807 16.7044 16.9088 15.3715 17.2638 14.5825C17.3566 14.3763 17.3291 14.3658 17.5103 14.3051C17.6654 14.9659 17.7161 15.2884 17.9605 15.9257C18.4892 17.3043 18.1374 17.0036 18.1736 17.6746L18.4064 17.6774C18.9175 16.8295 18.4748 16.4818 18.2277 15.6583C18.0825 15.1746 17.9259 13.7209 17.3029 13.9076C16.7134 14.0842 16.121 17.6474 16.0304 18.1051C16.2948 18.1165 16.4944 17.956 16.8361 17.8955C17.1352 17.8425 17.4549 17.8405 17.7531 17.7857Z" fill="#242021"/>
<path fill-rule="evenodd" clip-rule="evenodd" d="M24.6888 30.1041C25.1859 29.9908 25.7489 29.3618 26.0965 29.0103C25.8218 28.6815 24.1825 28.4741 24.0973 28.4901C23.6429 28.5759 24.4889 29.97 24.6888 30.1041Z" fill="#FF1846"/>
<path fill-rule="evenodd" clip-rule="evenodd" d="M20.9107 24.8391C21.3594 24.9415 21.7885 24.9332 22.2543 24.8994C22.2365 24.4364 21.564 23.8092 21.1615 23.7454L20.9107 24.8391Z" fill="#FDFDFD"/>
<path fill-rule="evenodd" clip-rule="evenodd" d="M18.9506 23.6118C19.0397 23.9473 19.598 24.4485 19.9467 24.5613C19.9811 23.9977 20.1449 23.8114 20.1885 23.4393C19.8542 23.4204 19.2154 23.4669 18.9506 23.6118Z" fill="#FDFDFD"/>
<path fill-rule="evenodd" clip-rule="evenodd" d="M30.6699 25.9887C30.9604 25.9612 31.1225 25.8741 31.3623 25.7793C31.4779 25.7336 31.5699 25.695 31.6978 25.6369C31.7254 25.6244 31.8473 25.5662 31.8588 25.5593L32.0021 25.4507C31.7679 25.1744 31.15 25.0499 30.8146 24.947L30.6699 25.9887Z" fill="#FDFDFD"/>
<path fill-rule="evenodd" clip-rule="evenodd" d="M28.5444 25.5101C28.7168 25.6397 29.4711 25.9261 29.7134 25.9078L29.7275 24.9719C29.4459 24.9823 28.653 25.295 28.5444 25.5101Z" fill="#FDFDFD"/>
<path fill-rule="evenodd" clip-rule="evenodd" d="M21.799 30.1923C21.6555 30.2514 21.516 30.319 21.6153 30.5941C21.6768 30.7646 21.8805 30.8187 22.0371 30.7517C22.3647 30.6117 22.2201 30.0191 21.799 30.1923Z" fill="#242021"/>
<path fill-rule="evenodd" clip-rule="evenodd" d="M20.7832 29.6304L20.7745 29.9778C21.0155 30.1712 21.1184 30.1772 21.3428 30.002C21.4439 29.5853 21.308 29.5074 20.9336 29.516C20.9198 29.5301 20.7971 29.6223 20.7832 29.6304Z" fill="#242021"/>
<path fill-rule="evenodd" clip-rule="evenodd" d="M26.3604 31.3189C26.3238 31.7845 26.5357 31.8392 26.9057 31.7044C26.988 31.4194 26.9556 31.3517 26.7968 31.1692L26.5282 31.1721L26.3604 31.3189Z" fill="#242021"/>
<path fill-rule="evenodd" clip-rule="evenodd" d="M28.4128 31.256L28.3924 30.8027L27.9543 30.7986C27.6537 31.2499 27.9901 31.5633 28.4128 31.256Z" fill="#242021"/>
</g>
</g>
<path d="M52 30.3303V15.9519H58.2089C59.3808 15.9519 60.306 16.1402 60.9845 16.5168C61.6629 16.8865 62.1461 17.3692 62.4339 17.9649C62.7217 18.5537 62.8656 19.1699 62.8656 19.8135C62.8656 20.4571 62.7252 21.0459 62.4442 21.58C62.1632 22.1072 61.704 22.5146 61.0667 22.8022C61.5875 22.987 62.0159 23.2541 62.3517 23.6032C62.6943 23.9456 62.9445 24.3359 63.1021 24.7741C63.2666 25.2054 63.3488 25.6436 63.3488 26.0886C63.3488 26.5953 63.2631 27.102 63.0918 27.6086C62.9273 28.1085 62.6566 28.5638 62.2797 28.9746C61.9028 29.3854 61.4025 29.7141 60.7789 29.9605C60.1621 30.207 59.4014 30.3303 58.4968 30.3303H52ZM54.6624 27.8346H58.6715C59.1855 27.8346 59.5864 27.7456 59.8743 27.5676C60.1689 27.3895 60.3745 27.167 60.491 26.9C60.6144 26.6261 60.6761 26.3557 60.6761 26.0886C60.6761 25.76 60.6041 25.4485 60.4602 25.1541C60.3231 24.8528 60.0661 24.6063 59.6892 24.4146C59.3191 24.2229 58.7812 24.127 58.0753 24.127H54.6624V27.8346ZM54.6624 21.7341H57.88C58.6612 21.7341 59.2369 21.5834 59.607 21.2822C59.9839 20.9741 60.1724 20.5667 60.1724 20.06C60.1724 19.7998 60.1244 19.5465 60.0284 19.3C59.9325 19.0467 59.7475 18.8378 59.4733 18.6735C59.1992 18.5092 58.7949 18.427 58.2603 18.427H54.6624V21.7341Z" fill="black"/>
<path d="M66.4004 30.3303V16.6605L68.9703 15.5V30.3303H66.4004Z" fill="black"/>
<path d="M76.0739 30.5768C74.9021 30.5768 73.994 30.2139 73.3498 29.4881C72.7056 28.7555 72.3835 27.7216 72.3835 26.3865V19.8341H74.9535V25.5854C74.9535 26.4686 75.1042 27.1123 75.4058 27.5162C75.7073 27.9202 76.1836 28.1222 76.8346 28.1222C77.5337 28.1222 78.0476 27.9202 78.3766 27.5162C78.7124 27.1054 78.8803 26.4755 78.8803 25.6265V19.8341H81.4399V30.3303H78.8803V29.3443C78.5582 29.7551 78.1607 30.0632 77.6879 30.2686C77.2218 30.4741 76.6839 30.5768 76.0739 30.5768Z" fill="black"/>
<path d="M88.9859 30.5768C87.9785 30.5768 87.1081 30.3508 86.3748 29.8989C85.6484 29.447 85.0865 28.8103 84.689 27.9886C84.2983 27.1602 84.103 26.1879 84.103 25.0719C84.103 23.9422 84.3018 22.9665 84.6993 22.1449C85.1036 21.3232 85.669 20.6933 86.3954 20.2551C87.1287 19.8101 87.9922 19.5876 88.9859 19.5876C89.8357 19.5876 90.6067 19.7656 91.2988 20.1216C91.991 20.4777 92.5427 21.0254 92.9539 21.7649C93.365 22.4975 93.5706 23.4321 93.5706 24.5686C93.5706 24.7467 93.5638 24.9658 93.5501 25.2259C93.5432 25.4793 93.5261 25.736 93.4987 25.9962H86.6421C86.6695 26.4755 86.7792 26.8966 86.9711 27.2595C87.1698 27.6155 87.4405 27.8928 87.7832 28.0914C88.1258 28.2899 88.5302 28.3892 88.9962 28.3892C89.4964 28.3892 89.9316 28.307 90.3017 28.1427C90.6718 27.9715 91.0213 27.7011 91.3502 27.3314L92.8305 28.8616C92.3782 29.3751 91.8334 29.7894 91.196 30.1043C90.5587 30.4193 89.822 30.5768 88.9859 30.5768ZM86.6524 23.9935H91.083C91.0487 23.5348 90.9459 23.1411 90.7746 22.8124C90.6032 22.4769 90.3634 22.2202 90.055 22.0422C89.7466 21.8641 89.3731 21.7751 88.9345 21.7751C88.3314 21.7751 87.8174 21.96 87.3925 22.3297C86.9676 22.6995 86.7209 23.2541 86.6524 23.9935Z" fill="black"/>
<path d="M100.442 30.5768C99.0919 30.5768 98.0331 30.0906 97.2655 29.1184C96.498 28.1461 96.1142 26.7973 96.1142 25.0719C96.1142 23.9764 96.2958 23.0178 96.659 22.1962C97.0223 21.3746 97.5294 20.7344 98.1804 20.2757C98.8383 19.8169 99.6025 19.5876 100.473 19.5876C101.405 19.5876 102.169 19.9299 102.765 20.6146V16.6605L105.325 15.5V30.3303H102.765V29.4676C102.258 30.207 101.484 30.5768 100.442 30.5768ZM100.863 28.1222C101.302 28.1222 101.676 28.0468 101.984 27.8962C102.292 27.7387 102.553 27.5059 102.765 27.1978V22.9562C102.553 22.6686 102.275 22.4427 101.933 22.2784C101.597 22.1141 101.24 22.0319 100.863 22.0319C100.171 22.0319 99.6367 22.2955 99.2598 22.8227C98.8829 23.3431 98.6944 24.0928 98.6944 25.0719C98.6944 25.7155 98.7801 26.2667 98.9514 26.7254C99.1227 27.1773 99.3695 27.5231 99.6916 27.7627C100.014 28.0023 100.404 28.1222 100.863 28.1222Z" fill="black"/>
<path d="M108.761 30.3303V19.8341H111.331V30.3303H108.761ZM110.046 18.5195C109.635 18.5195 109.279 18.3723 108.977 18.0778C108.682 17.7766 108.535 17.4205 108.535 17.0097C108.535 16.5989 108.682 16.2497 108.977 15.9622C109.272 15.6677 109.628 15.5205 110.046 15.5205C110.478 15.5205 110.838 15.6643 111.126 15.9519C111.413 16.2395 111.557 16.5921 111.557 17.0097C111.557 17.4274 111.41 17.7834 111.115 18.0778C110.828 18.3723 110.471 18.5195 110.046 18.5195Z" fill="black"/>
<path d="M114.769 34.5V19.8341H117.339V20.6043C117.914 19.9265 118.685 19.5876 119.652 19.5876C120.549 19.5876 121.324 19.8101 121.975 20.2551C122.626 20.6933 123.126 21.3232 123.476 22.1449C123.825 22.9665 124 23.9456 124 25.0822C124 26.1845 123.818 27.1499 123.455 27.9784C123.092 28.8 122.581 29.4402 121.924 29.8989C121.266 30.3508 120.498 30.5768 119.621 30.5768C119.141 30.5768 118.709 30.4912 118.326 30.32C117.942 30.142 117.613 29.8818 117.339 29.5395V33.3395L114.769 34.5ZM119.241 28.1222C119.94 28.1222 120.477 27.8586 120.854 27.3314C121.231 26.7973 121.42 26.0476 121.42 25.0822C121.42 24.1168 121.228 23.367 120.844 22.833C120.46 22.2989 119.926 22.0319 119.241 22.0319C118.822 22.0319 118.456 22.1072 118.141 22.2578C117.832 22.4085 117.565 22.6378 117.339 22.9459V27.1876C117.524 27.482 117.784 27.7114 118.12 27.8757C118.463 28.04 118.836 28.1222 119.241 28.1222Z" fill="black"/>
<defs>
<clipPath id="clip0_831_12507">
<rect width="48.9426" height="48.9426" fill="white" transform="translate(0.057373 0.528809)"/>
</clipPath>
</defs>
</svg>
