<svg width="328" height="58" viewBox="0 0 328 58" fill="none" xmlns="http://www.w3.org/2000/svg">
<rect width="328" height="58" rx="8" fill="white"/>
<path d="M18.9472 21V12.04H21.6992C23.2779 12.04 24.4384 12.4411 25.1808 13.2432C25.9317 14.0453 26.3072 15.1461 26.3072 16.5456C26.3072 17.9195 25.9317 19.0075 25.1808 19.8096C24.4384 20.6032 23.2779 21 21.6992 21H18.9472ZM20.0224 20.104H21.6736C22.544 20.104 23.2352 19.9632 23.7472 19.6816C24.2677 19.3915 24.6389 18.9819 24.8608 18.4528C25.0827 17.9152 25.1936 17.2795 25.1936 16.5456C25.1936 15.7947 25.0827 15.1504 24.8608 14.6128C24.6389 14.0752 24.2677 13.6613 23.7472 13.3712C23.2352 13.0811 22.544 12.936 21.6736 12.936H20.0224V20.104ZM30.6885 21.1536C30.0912 21.1536 29.5536 21.0171 29.0757 20.744C28.5978 20.4709 28.2181 20.0869 27.9365 19.592C27.6634 19.0885 27.5269 18.4997 27.5269 17.8256C27.5269 17.1515 27.6677 16.5669 27.9493 16.072C28.2309 15.5685 28.6106 15.1803 29.0885 14.9072C29.5749 14.6341 30.1168 14.4976 30.7141 14.4976C31.3114 14.4976 31.849 14.6341 32.3269 14.9072C32.8048 15.1803 33.1802 15.5685 33.4533 16.072C33.7349 16.5669 33.8757 17.1515 33.8757 17.8256C33.8757 18.4997 33.7349 19.0885 33.4533 19.592C33.1717 20.0869 32.7877 20.4709 32.3013 20.744C31.8234 21.0171 31.2858 21.1536 30.6885 21.1536ZM30.6885 20.232C31.0554 20.232 31.3968 20.1424 31.7125 19.9632C32.0282 19.784 32.2842 19.5152 32.4805 19.1568C32.6768 18.7984 32.7749 18.3547 32.7749 17.8256C32.7749 17.2965 32.6768 16.8528 32.4805 16.4944C32.2928 16.136 32.041 15.8672 31.7253 15.688C31.4096 15.5088 31.0725 15.4192 30.7141 15.4192C30.3472 15.4192 30.0058 15.5088 29.6901 15.688C29.3744 15.8672 29.1184 16.136 28.9221 16.4944C28.7258 16.8528 28.6277 17.2965 28.6277 17.8256C28.6277 18.3547 28.7258 18.7984 28.9221 19.1568C29.1184 19.5152 29.3701 19.784 29.6773 19.9632C29.993 20.1424 30.3301 20.232 30.6885 20.232ZM36.4132 21L34.5572 14.6512H35.6324L36.9764 19.6304L38.4612 14.6512H39.6772L41.1748 19.6304L42.506 14.6512H43.594L41.738 21H40.6372L39.0756 15.7648L37.514 21H36.4132ZM44.7832 21V14.6512H45.756L45.82 15.7904C46.0248 15.3893 46.3192 15.0736 46.7032 14.8432C47.0872 14.6128 47.5224 14.4976 48.0088 14.4976C48.7597 14.4976 49.3571 14.728 49.8008 15.1888C50.2531 15.6411 50.4792 16.3408 50.4792 17.288V21H49.404V17.4032C49.404 16.0805 48.8579 15.4192 47.7656 15.4192C47.2195 15.4192 46.7629 15.6197 46.396 16.0208C46.0376 16.4133 45.8584 16.9765 45.8584 17.7104V21H44.7832ZM52.1082 21V11.784H53.1834V21H52.1082ZM57.8385 21.1536C57.2412 21.1536 56.7036 21.0171 56.2257 20.744C55.7478 20.4709 55.3681 20.0869 55.0865 19.592C54.8134 19.0885 54.6769 18.4997 54.6769 17.8256C54.6769 17.1515 54.8177 16.5669 55.0993 16.072C55.3809 15.5685 55.7606 15.1803 56.2385 14.9072C56.7249 14.6341 57.2668 14.4976 57.8641 14.4976C58.4614 14.4976 58.999 14.6341 59.4769 14.9072C59.9548 15.1803 60.3302 15.5685 60.6033 16.072C60.8849 16.5669 61.0257 17.1515 61.0257 17.8256C61.0257 18.4997 60.8849 19.0885 60.6033 19.592C60.3217 20.0869 59.9377 20.4709 59.4513 20.744C58.9734 21.0171 58.4358 21.1536 57.8385 21.1536ZM57.8385 20.232C58.2054 20.232 58.5468 20.1424 58.8625 19.9632C59.1782 19.784 59.4342 19.5152 59.6305 19.1568C59.8268 18.7984 59.9249 18.3547 59.9249 17.8256C59.9249 17.2965 59.8268 16.8528 59.6305 16.4944C59.4428 16.136 59.191 15.8672 58.8753 15.688C58.5596 15.5088 58.2225 15.4192 57.8641 15.4192C57.4972 15.4192 57.1558 15.5088 56.8401 15.688C56.5244 15.8672 56.2684 16.136 56.0721 16.4944C55.8758 16.8528 55.7777 17.2965 55.7777 17.8256C55.7777 18.3547 55.8758 18.7984 56.0721 19.1568C56.2684 19.5152 56.5201 19.784 56.8273 19.9632C57.143 20.1424 57.4801 20.232 57.8385 20.232ZM64.6327 21.1536C64.1036 21.1536 63.6642 21.064 63.3143 20.8848C62.9644 20.7056 62.7042 20.4667 62.5335 20.168C62.3628 19.8693 62.2775 19.5451 62.2775 19.1952C62.2775 18.5467 62.525 18.0475 63.0199 17.6976C63.5148 17.3477 64.189 17.1728 65.0423 17.1728H66.7575V17.096C66.7575 16.5413 66.6124 16.1232 66.3223 15.8416C66.0322 15.5515 65.6439 15.4064 65.1575 15.4064C64.7394 15.4064 64.3767 15.5131 64.0695 15.7264C63.7708 15.9312 63.5831 16.2341 63.5063 16.6352H62.4055C62.4482 16.1744 62.6018 15.7861 62.8663 15.4704C63.1394 15.1547 63.4764 14.9157 63.8775 14.7536C64.2786 14.5829 64.7052 14.4976 65.1575 14.4976C66.045 14.4976 66.7106 14.7365 67.1543 15.2144C67.6066 15.6837 67.8327 16.3109 67.8327 17.096V21H66.8727L66.8087 19.8608C66.6295 20.2192 66.365 20.5264 66.0151 20.7824C65.6738 21.0299 65.213 21.1536 64.6327 21.1536ZM64.7991 20.2448C65.2087 20.2448 65.5586 20.1381 65.8487 19.9248C66.1474 19.7115 66.3735 19.4341 66.5271 19.0928C66.6807 18.7515 66.7575 18.3931 66.7575 18.0176V18.0048H65.1319C64.5004 18.0048 64.0524 18.1157 63.7879 18.3376C63.5319 18.5509 63.4039 18.8197 63.4039 19.144C63.4039 19.4768 63.5234 19.7456 63.7623 19.9504C64.0098 20.1467 64.3554 20.2448 64.7991 20.2448ZM72.3257 21.1536C71.6942 21.1536 71.1396 21.0085 70.6617 20.7184C70.1924 20.4283 69.8254 20.0315 69.5609 19.528C69.3049 19.0245 69.1769 18.4528 69.1769 17.8128C69.1769 17.1728 69.3092 16.6053 69.5737 16.1104C69.8382 15.6069 70.2052 15.2144 70.6745 14.9328C71.1438 14.6427 71.6985 14.4976 72.3385 14.4976C72.859 14.4976 73.3198 14.6043 73.7209 14.8176C74.122 15.0309 74.4334 15.3296 74.6553 15.7136V11.784H75.7305V21H74.7577L74.6553 19.9504C74.4505 20.2576 74.1561 20.5349 73.7721 20.7824C73.3881 21.0299 72.906 21.1536 72.3257 21.1536ZM72.4409 20.2192C72.8676 20.2192 73.243 20.1211 73.5673 19.9248C73.9001 19.72 74.1561 19.4384 74.3353 19.08C74.523 18.7216 74.6169 18.3035 74.6169 17.8256C74.6169 17.3477 74.523 16.9296 74.3353 16.5712C74.1561 16.2128 73.9001 15.9355 73.5673 15.7392C73.243 15.5344 72.8676 15.432 72.4409 15.432C72.0228 15.432 71.6473 15.5344 71.3145 15.7392C70.9902 15.9355 70.7342 16.2128 70.5465 16.5712C70.3673 16.9296 70.2777 17.3477 70.2777 17.8256C70.2777 18.3035 70.3673 18.7216 70.5465 19.08C70.7342 19.4384 70.9902 19.72 71.3145 19.9248C71.6473 20.1211 72.0228 20.2192 72.4409 20.2192ZM79.9152 21.1536C79.1557 21.1536 78.5243 20.9616 78.0208 20.5776C77.5173 20.1936 77.2229 19.6731 77.1376 19.016H78.2384C78.3067 19.3488 78.4816 19.6389 78.7632 19.8864C79.0533 20.1253 79.4416 20.2448 79.928 20.2448C80.3803 20.2448 80.7131 20.1509 80.9264 19.9632C81.1397 19.7669 81.2464 19.5365 81.2464 19.272C81.2464 18.888 81.1056 18.632 80.824 18.504C80.5509 18.376 80.1627 18.2608 79.6592 18.1584C79.3179 18.0901 78.9765 17.992 78.6352 17.864C78.2939 17.736 78.008 17.5568 77.7776 17.3264C77.5472 17.0875 77.432 16.776 77.432 16.392C77.432 15.8373 77.6368 15.3851 78.0464 15.0352C78.4645 14.6768 79.0277 14.4976 79.736 14.4976C80.4101 14.4976 80.9605 14.6683 81.3872 15.0096C81.8224 15.3424 82.0741 15.8203 82.1424 16.4432H81.08C81.0373 16.1189 80.8965 15.8672 80.6576 15.688C80.4272 15.5003 80.1157 15.4064 79.7232 15.4064C79.3392 15.4064 79.0405 15.4875 78.8272 15.6496C78.6224 15.8117 78.52 16.0251 78.52 16.2896C78.52 16.5456 78.6523 16.7461 78.9168 16.8912C79.1899 17.0363 79.5568 17.16 80.0176 17.2624C80.4101 17.3477 80.7813 17.4544 81.1312 17.5824C81.4896 17.7019 81.7797 17.8853 82.0016 18.1328C82.232 18.3717 82.3472 18.7216 82.3472 19.1824C82.3557 19.7541 82.1381 20.2277 81.6944 20.6032C81.2592 20.9701 80.6661 21.1536 79.9152 21.1536Z" fill="#4D545F"/>
<path d="M21.229 37.544L21.341 35.272C21.661 35.0907 22.0557 34.936 22.525 34.808C23.005 34.68 23.5437 34.616 24.141 34.616C24.9943 34.616 25.6823 34.7387 26.205 34.984C26.7277 35.2187 27.1117 35.544 27.357 35.96C27.6023 36.376 27.725 36.8453 27.725 37.368C27.725 38.104 27.3677 38.824 26.653 39.528C25.9383 40.2213 24.9623 40.9893 23.725 41.832C23.4903 42.0027 23.213 42.2107 22.893 42.456C22.573 42.7013 22.2743 42.9413 21.997 43.176H27.997V45H20.957V43.656C21.341 43.2827 21.7143 42.9147 22.077 42.552C22.4503 42.1787 22.8023 41.8267 23.133 41.496C23.901 40.7067 24.4717 40.008 24.845 39.4C25.229 38.7813 25.421 38.12 25.421 37.416C25.421 36.68 25.2877 36.088 25.021 35.64C24.7543 35.1813 24.3543 34.952 23.821 34.952C23.4903 34.952 23.181 35.0373 22.893 35.208C22.6157 35.368 22.3703 35.6507 22.157 36.056L21.389 37.544H21.229ZM32.445 45V44.84L32.765 44.728C33.1277 44.6107 33.309 44.3067 33.309 43.816V35.624C33.309 35.4107 33.2823 35.24 33.229 35.112C33.1863 34.984 33.0637 34.8773 32.861 34.792L32.445 34.6V34.44H35.533L38.493 42.184L41.277 34.44H44.429V34.6L44.173 34.696C43.9703 34.7707 43.8317 34.8773 43.757 35.016C43.6823 35.144 43.645 35.3147 43.645 35.528V43.896C43.645 44.1093 43.6717 44.2747 43.725 44.392C43.7783 44.5093 43.9063 44.6107 44.109 44.696L44.429 44.84V45H40.445V44.84L40.781 44.696C40.9837 44.6107 41.1117 44.5093 41.165 44.392C41.2183 44.2747 41.245 44.1093 41.245 43.896V40.296L41.277 35.72L37.933 45H37.133L33.645 35.832L33.693 39.816V43.848C33.693 44.0827 33.725 44.2747 33.789 44.424C33.8637 44.5627 34.0023 44.664 34.205 44.728L34.557 44.84V45H32.445ZM47.0213 36.232C46.6586 36.232 46.3493 36.12 46.0933 35.896C45.8479 35.6613 45.7253 35.368 45.7253 35.016C45.7253 34.6533 45.8479 34.36 46.0933 34.136C46.3493 33.912 46.6586 33.8 47.0213 33.8C47.3839 33.8 47.6879 33.912 47.9333 34.136C48.1786 34.36 48.3013 34.6533 48.3013 35.016C48.3013 35.368 48.1786 35.6613 47.9333 35.896C47.6879 36.12 47.3839 36.232 47.0213 36.232ZM45.1333 45V44.84L45.3573 44.776C45.5706 44.712 45.7146 44.616 45.7893 44.488C45.8746 44.36 45.9173 44.1893 45.9173 43.976V38.968C45.9173 38.744 45.8746 38.5787 45.7893 38.472C45.7146 38.3547 45.5706 38.2747 45.3573 38.232L45.1333 38.184V38.024L48.0613 37.08L48.2213 37.24L48.1733 39.512V43.992C48.1733 44.2053 48.2106 44.376 48.2853 44.504C48.3706 44.632 48.5146 44.728 48.7173 44.792L48.8773 44.84V45H45.1333ZM49.6336 45V44.84L49.8256 44.776C50.2096 44.648 50.4016 44.3813 50.4016 43.976V35.416C50.4016 35.2027 50.359 35.0427 50.2736 34.936C50.1883 34.8187 50.039 34.7333 49.8256 34.68L49.6176 34.632V34.472L52.5456 33.784L52.7376 33.928L52.6736 36.168V41.64C52.6736 42.0347 52.6736 42.4293 52.6736 42.824C52.6843 43.208 52.6896 43.592 52.6896 43.976C52.6896 44.1893 52.7323 44.3653 52.8176 44.504C52.903 44.632 53.047 44.728 53.2496 44.792L53.4576 44.84V45H49.6336ZM54.2118 45V44.84L54.4038 44.776C54.7878 44.648 54.9798 44.3813 54.9798 43.976V35.416C54.9798 35.2027 54.9371 35.0427 54.8518 34.936C54.7664 34.8187 54.6171 34.7333 54.4038 34.68L54.1958 34.632V34.472L57.1238 33.784L57.3158 33.928L57.2518 36.168V41.64C57.2518 42.0347 57.2518 42.4293 57.2518 42.824C57.2624 43.208 57.2678 43.592 57.2678 43.976C57.2678 44.1893 57.3104 44.3653 57.3958 44.504C57.4811 44.632 57.6251 44.728 57.8278 44.792L58.0358 44.84V45H54.2118ZM60.6619 36.232C60.2992 36.232 59.9899 36.12 59.7339 35.896C59.4885 35.6613 59.3659 35.368 59.3659 35.016C59.3659 34.6533 59.4885 34.36 59.7339 34.136C59.9899 33.912 60.2992 33.8 60.6619 33.8C61.0245 33.8 61.3285 33.912 61.5739 34.136C61.8192 34.36 61.9419 34.6533 61.9419 35.016C61.9419 35.368 61.8192 35.6613 61.5739 35.896C61.3285 36.12 61.0245 36.232 60.6619 36.232ZM58.7739 45V44.84L58.9979 44.776C59.2112 44.712 59.3552 44.616 59.4299 44.488C59.5152 44.36 59.5579 44.1893 59.5579 43.976V38.968C59.5579 38.744 59.5152 38.5787 59.4299 38.472C59.3552 38.3547 59.2112 38.2747 58.9979 38.232L58.7739 38.184V38.024L61.7019 37.08L61.8619 37.24L61.8139 39.512V43.992C61.8139 44.2053 61.8512 44.376 61.9259 44.504C62.0112 44.632 62.1552 44.728 62.3579 44.792L62.5179 44.84V45H58.7739ZM67.2743 45.24C66.4636 45.24 65.7596 45.0747 65.1623 44.744C64.5649 44.4027 64.1009 43.9227 63.7703 43.304C63.4503 42.6853 63.2903 41.96 63.2903 41.128C63.2903 40.296 63.4609 39.576 63.8023 38.968C64.1543 38.36 64.6289 37.8907 65.2263 37.56C65.8343 37.2293 66.5169 37.064 67.2743 37.064C68.0316 37.064 68.7089 37.2293 69.3063 37.56C69.9036 37.88 70.3729 38.344 70.7143 38.952C71.0663 39.56 71.2423 40.2853 71.2423 41.128C71.2423 41.9707 71.0769 42.7013 70.7463 43.32C70.4263 43.928 69.9676 44.4027 69.3703 44.744C68.7836 45.0747 68.0849 45.24 67.2743 45.24ZM67.2743 44.92C67.6476 44.92 67.9463 44.8133 68.1703 44.6C68.3943 44.3867 68.5543 44.008 68.6503 43.464C68.7569 42.92 68.8103 42.152 68.8103 41.16C68.8103 40.1573 68.7569 39.384 68.6503 38.84C68.5543 38.296 68.3943 37.9173 68.1703 37.704C67.9463 37.4907 67.6476 37.384 67.2743 37.384C66.9009 37.384 66.5969 37.4907 66.3623 37.704C66.1383 37.9173 65.9729 38.296 65.8663 38.84C65.7703 39.384 65.7223 40.1573 65.7223 41.16C65.7223 42.152 65.7703 42.92 65.8663 43.464C65.9729 44.008 66.1383 44.3867 66.3623 44.6C66.5969 44.8133 66.9009 44.92 67.2743 44.92ZM71.945 45V44.84L72.169 44.776C72.5423 44.6693 72.729 44.408 72.729 43.992V38.984C72.729 38.7493 72.6917 38.5787 72.617 38.472C72.5423 38.3547 72.3983 38.2747 72.185 38.232L71.945 38.168V38.008L74.681 37.08L74.841 37.24L74.969 38.2C75.3423 37.8693 75.7637 37.5973 76.233 37.384C76.7023 37.1707 77.1663 37.064 77.625 37.064C78.329 37.064 78.8677 37.256 79.241 37.64C79.625 38.024 79.817 38.6107 79.817 39.4V44.008C79.817 44.424 80.0197 44.6853 80.425 44.792L80.569 44.84V45H76.793V44.84L77.001 44.776C77.3743 44.6587 77.561 44.3973 77.561 43.992V38.888C77.561 38.2053 77.2197 37.864 76.537 37.864C76.0677 37.864 75.5557 38.0987 75.001 38.568V44.008C75.001 44.424 75.1877 44.6853 75.561 44.792L75.705 44.84V45H71.945Z" fill="#202937"/>
<line x1="99.5" y1="10.5" x2="99.5" y2="47.5" stroke="#E9EAEB"/>
<path d="M116.166 21V12.04H119.059C119.758 12.04 120.33 12.1552 120.774 12.3856C121.218 12.616 121.546 12.9317 121.76 13.3328C121.973 13.7339 122.08 14.1776 122.08 14.664C122.08 15.2272 121.926 15.7349 121.619 16.1872C121.32 16.6395 120.851 16.9595 120.211 17.1472L122.169 21H120.902L119.084 17.3008H119.008H117.241V21H116.166ZM117.241 16.456H118.982C119.673 16.456 120.177 16.2896 120.492 15.9568C120.808 15.624 120.966 15.1973 120.966 14.6768C120.966 14.1477 120.808 13.7296 120.492 13.4224C120.185 13.1067 119.677 12.9488 118.969 12.9488H117.241V16.456ZM125.626 21.1536C125.097 21.1536 124.658 21.064 124.308 20.8848C123.958 20.7056 123.698 20.4667 123.527 20.168C123.357 19.8693 123.271 19.5451 123.271 19.1952C123.271 18.5467 123.519 18.0475 124.014 17.6976C124.509 17.3477 125.183 17.1728 126.036 17.1728H127.751V17.096C127.751 16.5413 127.606 16.1232 127.316 15.8416C127.026 15.5515 126.638 15.4064 126.151 15.4064C125.733 15.4064 125.37 15.5131 125.063 15.7264C124.765 15.9312 124.577 16.2341 124.5 16.6352H123.399C123.442 16.1744 123.596 15.7861 123.86 15.4704C124.133 15.1547 124.47 14.9157 124.871 14.7536C125.272 14.5829 125.699 14.4976 126.151 14.4976C127.039 14.4976 127.704 14.7365 128.148 15.2144C128.6 15.6837 128.826 16.3109 128.826 17.096V21H127.866L127.802 19.8608C127.623 20.2192 127.359 20.5264 127.009 20.7824C126.668 21.0299 126.207 21.1536 125.626 21.1536ZM125.793 20.2448C126.202 20.2448 126.552 20.1381 126.842 19.9248C127.141 19.7115 127.367 19.4341 127.521 19.0928C127.674 18.7515 127.751 18.3931 127.751 18.0176V18.0048H126.126C125.494 18.0048 125.046 18.1157 124.782 18.3376C124.526 18.5509 124.398 18.8197 124.398 19.144C124.398 19.4768 124.517 19.7456 124.756 19.9504C125.004 20.1467 125.349 20.2448 125.793 20.2448ZM132.773 21C132.193 21 131.736 20.8592 131.404 20.5776C131.071 20.296 130.904 19.7883 130.904 19.0544V15.56H129.804V14.6512H130.904L131.045 13.128H131.98V14.6512H133.848V15.56H131.98V19.0544C131.98 19.4555 132.061 19.7285 132.223 19.8736C132.385 20.0101 132.671 20.0784 133.08 20.0784H133.746V21H132.773ZM135.867 13.2432C135.654 13.2432 135.475 13.1749 135.33 13.0384C135.193 12.8933 135.125 12.7141 135.125 12.5008C135.125 12.296 135.193 12.1253 135.33 11.9888C135.475 11.8523 135.654 11.784 135.867 11.784C136.072 11.784 136.247 11.8523 136.392 11.9888C136.537 12.1253 136.61 12.296 136.61 12.5008C136.61 12.7141 136.537 12.8933 136.392 13.0384C136.247 13.1749 136.072 13.2432 135.867 13.2432ZM135.33 21V14.6512H136.405V21H135.33ZM138.277 21V14.6512H139.25L139.314 15.7904C139.519 15.3893 139.813 15.0736 140.197 14.8432C140.581 14.6128 141.016 14.4976 141.503 14.4976C142.253 14.4976 142.851 14.728 143.295 15.1888C143.747 15.6411 143.973 16.3408 143.973 17.288V21H142.898V17.4032C142.898 16.0805 142.352 15.4192 141.259 15.4192C140.713 15.4192 140.257 15.6197 139.89 16.0208C139.531 16.4133 139.352 16.9765 139.352 17.7104V21H138.277ZM148.111 19.0032C147.752 19.0032 147.424 18.9563 147.125 18.8624L146.485 19.464C146.579 19.5323 146.694 19.592 146.831 19.6432C146.976 19.6859 147.181 19.7285 147.445 19.7712C147.71 19.8053 148.081 19.8437 148.559 19.8864C149.412 19.9461 150.022 20.1424 150.389 20.4752C150.756 20.808 150.94 21.2432 150.94 21.7808C150.94 22.1477 150.837 22.4976 150.632 22.8304C150.436 23.1632 150.129 23.4363 149.711 23.6496C149.301 23.8629 148.772 23.9696 148.124 23.9696C147.552 23.9696 147.044 23.8928 146.6 23.7392C146.157 23.5941 145.811 23.368 145.564 23.0608C145.316 22.7621 145.192 22.3824 145.192 21.9216C145.192 21.6827 145.256 21.4224 145.384 21.1408C145.512 20.8677 145.751 20.6075 146.101 20.36C145.913 20.2832 145.751 20.2021 145.615 20.1168C145.487 20.0229 145.367 19.9205 145.256 19.8096V19.5152L146.344 18.44C145.841 18.0133 145.589 17.4501 145.589 16.7504C145.589 16.3323 145.687 15.9525 145.884 15.6112C146.08 15.2699 146.366 15.0011 146.741 14.8048C147.117 14.6 147.573 14.4976 148.111 14.4976C148.478 14.4976 148.81 14.5488 149.109 14.6512H151.452V15.4576L150.261 15.5088C150.509 15.8672 150.632 16.2811 150.632 16.7504C150.632 17.1685 150.53 17.5483 150.325 17.8896C150.129 18.2309 149.843 18.504 149.468 18.7088C149.101 18.9051 148.648 19.0032 148.111 19.0032ZM148.111 18.12C148.563 18.12 148.921 18.0048 149.186 17.7744C149.459 17.5355 149.596 17.1941 149.596 16.7504C149.596 16.3152 149.459 15.9824 149.186 15.752C148.921 15.5131 148.563 15.3936 148.111 15.3936C147.65 15.3936 147.283 15.5131 147.01 15.752C146.745 15.9824 146.613 16.3152 146.613 16.7504C146.613 17.1941 146.745 17.5355 147.01 17.7744C147.283 18.0048 147.65 18.12 148.111 18.12ZM146.242 21.8192C146.242 22.2459 146.421 22.5616 146.78 22.7664C147.138 22.9797 147.586 23.0864 148.124 23.0864C148.653 23.0864 149.075 22.9712 149.391 22.7408C149.715 22.5104 149.877 22.2032 149.877 21.8192C149.877 21.5461 149.766 21.3072 149.544 21.1024C149.322 20.9061 148.913 20.7909 148.316 20.7568C147.846 20.7227 147.441 20.68 147.1 20.6288C146.75 20.8165 146.519 21.0171 146.408 21.2304C146.297 21.4523 146.242 21.6485 146.242 21.8192Z" fill="#4D545F"/>
<path d="M127.131 45V42.408H122.923V41.496L127.611 34.728H129.179V41.224H130.699V42.408H129.179V45H127.131ZM123.627 41.224H127.131V36.184L123.627 41.224ZM133.548 45.24C133.164 45.24 132.839 45.1067 132.572 44.84C132.306 44.5733 132.172 44.2533 132.172 43.88C132.172 43.5067 132.306 43.1813 132.572 42.904C132.839 42.6267 133.164 42.488 133.548 42.488C133.932 42.488 134.258 42.6267 134.524 42.904C134.791 43.1813 134.924 43.5067 134.924 43.88C134.924 44.2533 134.791 44.5733 134.524 44.84C134.258 45.1067 133.932 45.24 133.548 45.24ZM139.849 45.24C139.231 45.24 138.676 45.1813 138.185 45.064C137.705 44.9573 137.279 44.776 136.905 44.52L137.017 42.504H137.177L137.913 43.816C138.127 44.2 138.388 44.4827 138.697 44.664C139.007 44.8347 139.348 44.92 139.721 44.92C140.948 44.92 141.561 43.9867 141.561 42.12C141.561 41.2773 141.396 40.6373 141.065 40.2C140.745 39.7627 140.265 39.544 139.625 39.544C139.327 39.544 139.028 39.5867 138.729 39.672C138.441 39.7467 138.175 39.848 137.929 39.976L137.641 39.8L137.993 34.856H143.593V36.68H138.313L138.089 39.448C138.335 39.2667 138.665 39.096 139.081 38.936C139.497 38.776 139.935 38.696 140.393 38.696C141.087 38.696 141.7 38.8187 142.233 39.064C142.777 39.3093 143.199 39.672 143.497 40.152C143.807 40.6213 143.961 41.2027 143.961 41.896C143.961 42.6107 143.78 43.2187 143.417 43.72C143.065 44.2213 142.58 44.6 141.961 44.856C141.343 45.112 140.639 45.24 139.849 45.24Z" fill="#202937"/>
<line x1="168.5" y1="10.5" x2="168.5" y2="47.5" stroke="#E9EAEB"/>
<path d="M191.953 21V12.04H194.897C195.597 12.04 196.173 12.1552 196.625 12.3856C197.078 12.616 197.411 12.9275 197.624 13.32C197.846 13.7125 197.957 14.1563 197.957 14.6512C197.957 15.1376 197.85 15.5771 197.637 15.9696C197.423 16.3621 197.091 16.6779 196.638 16.9168C196.186 17.1472 195.606 17.2624 194.897 17.2624H193.029V21H191.953ZM193.029 16.3536H194.872C195.589 16.3536 196.096 16.2043 196.395 15.9056C196.702 15.5984 196.856 15.1803 196.856 14.6512C196.856 14.1136 196.702 13.6955 196.395 13.3968C196.096 13.0896 195.589 12.936 194.872 12.936H193.029V16.3536ZM201.82 21.1536C201.222 21.1536 200.685 21.0171 200.207 20.744C199.729 20.4709 199.349 20.0869 199.068 19.592C198.795 19.0885 198.658 18.4997 198.658 17.8256C198.658 17.1515 198.799 16.5669 199.081 16.072C199.362 15.5685 199.742 15.1803 200.22 14.9072C200.706 14.6341 201.248 14.4976 201.845 14.4976C202.443 14.4976 202.98 14.6341 203.458 14.9072C203.936 15.1803 204.311 15.5685 204.585 16.072C204.866 16.5669 205.007 17.1515 205.007 17.8256C205.007 18.4997 204.866 19.0885 204.585 19.592C204.303 20.0869 203.919 20.4709 203.433 20.744C202.955 21.0171 202.417 21.1536 201.82 21.1536ZM201.82 20.232C202.187 20.232 202.528 20.1424 202.844 19.9632C203.159 19.784 203.415 19.5152 203.612 19.1568C203.808 18.7984 203.906 18.3547 203.906 17.8256C203.906 17.2965 203.808 16.8528 203.612 16.4944C203.424 16.136 203.172 15.8672 202.857 15.688C202.541 15.5088 202.204 15.4192 201.845 15.4192C201.478 15.4192 201.137 15.5088 200.821 15.688C200.506 15.8672 200.25 16.136 200.053 16.4944C199.857 16.8528 199.759 17.2965 199.759 17.8256C199.759 18.3547 199.857 18.7984 200.053 19.1568C200.25 19.5152 200.501 19.784 200.809 19.9632C201.124 20.1424 201.461 20.232 201.82 20.232ZM208.934 21.1536C208.174 21.1536 207.543 20.9616 207.04 20.5776C206.536 20.1936 206.242 19.6731 206.156 19.016H207.257C207.325 19.3488 207.5 19.6389 207.782 19.8864C208.072 20.1253 208.46 20.2448 208.947 20.2448C209.399 20.2448 209.732 20.1509 209.945 19.9632C210.158 19.7669 210.265 19.5365 210.265 19.272C210.265 18.888 210.124 18.632 209.843 18.504C209.57 18.376 209.181 18.2608 208.678 18.1584C208.337 18.0901 207.995 17.992 207.654 17.864C207.313 17.736 207.027 17.5568 206.796 17.3264C206.566 17.0875 206.451 16.776 206.451 16.392C206.451 15.8373 206.656 15.3851 207.065 15.0352C207.483 14.6768 208.046 14.4976 208.755 14.4976C209.429 14.4976 209.979 14.6683 210.406 15.0096C210.841 15.3424 211.093 15.8203 211.161 16.4432H210.099C210.056 16.1189 209.915 15.8672 209.676 15.688C209.446 15.5003 209.134 15.4064 208.742 15.4064C208.358 15.4064 208.059 15.4875 207.846 15.6496C207.641 15.8117 207.539 16.0251 207.539 16.2896C207.539 16.5456 207.671 16.7461 207.936 16.8912C208.209 17.0363 208.576 17.16 209.036 17.2624C209.429 17.3477 209.8 17.4544 210.15 17.5824C210.508 17.7019 210.798 17.8853 211.02 18.1328C211.251 18.3717 211.366 18.7216 211.366 19.1824C211.374 19.7541 211.157 20.2277 210.713 20.6032C210.278 20.9701 209.685 21.1536 208.934 21.1536ZM213.555 13.2432C213.341 13.2432 213.162 13.1749 213.017 13.0384C212.881 12.8933 212.812 12.7141 212.812 12.5008C212.812 12.296 212.881 12.1253 213.017 11.9888C213.162 11.8523 213.341 11.784 213.555 11.784C213.76 11.784 213.934 11.8523 214.08 11.9888C214.225 12.1253 214.297 12.296 214.297 12.5008C214.297 12.7141 214.225 12.8933 214.08 13.0384C213.934 13.1749 213.76 13.2432 213.555 13.2432ZM213.017 21V14.6512H214.092V21H213.017ZM218.473 21C217.893 21 217.436 20.8592 217.104 20.5776C216.771 20.296 216.604 19.7883 216.604 19.0544V15.56H215.504V14.6512H216.604L216.745 13.128H217.68V14.6512H219.548V15.56H217.68V19.0544C217.68 19.4555 217.761 19.7285 217.923 19.8736C218.085 20.0101 218.371 20.0784 218.78 20.0784H219.446V21H218.473ZM221.567 13.2432C221.354 13.2432 221.175 13.1749 221.03 13.0384C220.893 12.8933 220.825 12.7141 220.825 12.5008C220.825 12.296 220.893 12.1253 221.03 11.9888C221.175 11.8523 221.354 11.784 221.567 11.784C221.772 11.784 221.947 11.8523 222.092 11.9888C222.237 12.1253 222.31 12.296 222.31 12.5008C222.31 12.7141 222.237 12.8933 222.092 13.0384C221.947 13.1749 221.772 13.2432 221.567 13.2432ZM221.03 21V14.6512H222.105V21H221.03ZM226.87 21.1536C226.272 21.1536 225.735 21.0171 225.257 20.744C224.779 20.4709 224.399 20.0869 224.118 19.592C223.845 19.0885 223.708 18.4997 223.708 17.8256C223.708 17.1515 223.849 16.5669 224.131 16.072C224.412 15.5685 224.792 15.1803 225.27 14.9072C225.756 14.6341 226.298 14.4976 226.895 14.4976C227.493 14.4976 228.03 14.6341 228.508 14.9072C228.986 15.1803 229.361 15.5685 229.635 16.072C229.916 16.5669 230.057 17.1515 230.057 17.8256C230.057 18.4997 229.916 19.0885 229.635 19.592C229.353 20.0869 228.969 20.4709 228.483 20.744C228.005 21.0171 227.467 21.1536 226.87 21.1536ZM226.87 20.232C227.237 20.232 227.578 20.1424 227.894 19.9632C228.209 19.784 228.465 19.5152 228.662 19.1568C228.858 18.7984 228.956 18.3547 228.956 17.8256C228.956 17.2965 228.858 16.8528 228.662 16.4944C228.474 16.136 228.222 15.8672 227.907 15.688C227.591 15.5088 227.254 15.4192 226.895 15.4192C226.528 15.4192 226.187 15.5088 225.871 15.688C225.556 15.8672 225.3 16.136 225.103 16.4944C224.907 16.8528 224.809 17.2965 224.809 17.8256C224.809 18.3547 224.907 18.7984 225.103 19.1568C225.3 19.5152 225.551 19.784 225.859 19.9632C226.174 20.1424 226.511 20.232 226.87 20.232ZM231.552 21V14.6512H232.525L232.589 15.7904C232.794 15.3893 233.088 15.0736 233.472 14.8432C233.856 14.6128 234.291 14.4976 234.778 14.4976C235.528 14.4976 236.126 14.728 236.57 15.1888C237.022 15.6411 237.248 16.3408 237.248 17.288V21H236.173V17.4032C236.173 16.0805 235.627 15.4192 234.534 15.4192C233.988 15.4192 233.532 15.6197 233.165 16.0208C232.806 16.4133 232.627 16.9765 232.627 17.7104V21H231.552Z" fill="#4D545F"/>
<path d="M188.662 45V42.408H184.454V41.496L189.142 34.728H190.71V41.224H192.23V42.408H190.71V45H188.662ZM185.158 41.224H188.662V36.184L185.158 41.224ZM196.04 45.24C195.357 45.24 194.824 45.0693 194.44 44.728C194.066 44.3867 193.88 43.8427 193.88 43.096V37.624H192.776V37.464L193.16 37.4C193.49 37.3253 193.773 37.2187 194.008 37.08C194.253 36.9413 194.493 36.7547 194.728 36.52L196.04 35.064H196.2L196.152 37.304H197.944V37.624H196.136V43.384C196.136 43.7573 196.216 44.04 196.376 44.232C196.546 44.424 196.76 44.52 197.016 44.52C197.24 44.52 197.437 44.4667 197.608 44.36C197.778 44.2427 197.949 44.088 198.12 43.896L198.28 44.056C198.066 44.4187 197.773 44.7067 197.4 44.92C197.026 45.1333 196.573 45.24 196.04 45.24ZM198.829 45V44.84L199.021 44.776C199.405 44.648 199.597 44.3813 199.597 43.976V35.432C199.597 35.208 199.56 35.0427 199.485 34.936C199.41 34.8293 199.266 34.7493 199.053 34.696L198.813 34.632V34.472L201.629 33.784L201.885 33.928L201.821 36.184V38.184C202.194 37.8747 202.594 37.6133 203.021 37.4C203.458 37.176 203.938 37.064 204.461 37.064C205.154 37.064 205.704 37.2613 206.109 37.656C206.525 38.0507 206.733 38.6587 206.733 39.48V43.992C206.733 44.2053 206.776 44.376 206.861 44.504C206.946 44.632 207.096 44.728 207.309 44.792L207.437 44.84V45H203.693V44.84L203.885 44.792C204.269 44.664 204.461 44.392 204.461 43.976V38.952C204.461 38.5253 204.386 38.232 204.237 38.072C204.098 37.912 203.848 37.832 203.485 37.832C203.25 37.832 202.994 37.88 202.717 37.976C202.44 38.0613 202.157 38.216 201.869 38.44V44.008C201.869 44.424 202.061 44.6907 202.445 44.808L202.573 44.84V45H198.829ZM211.547 45V44.84L211.867 44.728C212.229 44.6107 212.411 44.3067 212.411 43.816V35.624C212.411 35.4107 212.384 35.24 212.331 35.112C212.288 34.984 212.165 34.8773 211.963 34.792L211.547 34.6V34.44H214.635L217.595 42.184L220.379 34.44H223.531V34.6L223.275 34.696C223.072 34.7707 222.933 34.8773 222.859 35.016C222.784 35.144 222.747 35.3147 222.747 35.528V43.896C222.747 44.1093 222.773 44.2747 222.827 44.392C222.88 44.5093 223.008 44.6107 223.211 44.696L223.531 44.84V45H219.547V44.84L219.883 44.696C220.085 44.6107 220.213 44.5093 220.267 44.392C220.32 44.2747 220.347 44.1093 220.347 43.896V40.296L220.379 35.72L217.035 45H216.235L212.747 35.832L212.795 39.816V43.848C212.795 44.0827 212.827 44.2747 212.891 44.424C212.965 44.5627 213.104 44.664 213.307 44.728L213.659 44.84V45H211.547ZM227.829 45.24C227.018 45.24 226.314 45.0747 225.717 44.744C225.12 44.4027 224.656 43.9227 224.325 43.304C224.005 42.6853 223.845 41.96 223.845 41.128C223.845 40.296 224.016 39.576 224.357 38.968C224.709 38.36 225.184 37.8907 225.781 37.56C226.389 37.2293 227.072 37.064 227.829 37.064C228.586 37.064 229.264 37.2293 229.861 37.56C230.458 37.88 230.928 38.344 231.269 38.952C231.621 39.56 231.797 40.2853 231.797 41.128C231.797 41.9707 231.632 42.7013 231.301 43.32C230.981 43.928 230.522 44.4027 229.925 44.744C229.338 45.0747 228.64 45.24 227.829 45.24ZM227.829 44.92C228.202 44.92 228.501 44.8133 228.725 44.6C228.949 44.3867 229.109 44.008 229.205 43.464C229.312 42.92 229.365 42.152 229.365 41.16C229.365 40.1573 229.312 39.384 229.205 38.84C229.109 38.296 228.949 37.9173 228.725 37.704C228.501 37.4907 228.202 37.384 227.829 37.384C227.456 37.384 227.152 37.4907 226.917 37.704C226.693 37.9173 226.528 38.296 226.421 38.84C226.325 39.384 226.277 40.1573 226.277 41.16C226.277 42.152 226.325 42.92 226.421 43.464C226.528 44.008 226.693 44.3867 226.917 44.6C227.152 44.8133 227.456 44.92 227.829 44.92ZM235.268 45.24C234.745 45.24 234.276 45.176 233.86 45.048C233.444 44.9307 233.06 44.7813 232.708 44.6L232.724 42.696H232.884L233.428 43.656C233.662 44.0827 233.918 44.4027 234.196 44.616C234.484 44.8187 234.846 44.92 235.284 44.92C235.796 44.92 236.206 44.808 236.516 44.584C236.836 44.3493 236.996 44.04 236.996 43.656C236.996 43.304 236.884 43.016 236.66 42.792C236.436 42.568 236.02 42.3653 235.412 42.184L234.74 41.976C234.089 41.784 233.577 41.4853 233.204 41.08C232.83 40.6747 232.644 40.1787 232.644 39.592C232.644 38.888 232.921 38.2907 233.476 37.8C234.03 37.3093 234.825 37.064 235.86 37.064C236.276 37.064 236.665 37.112 237.028 37.208C237.401 37.2933 237.758 37.4267 238.1 37.608L238.004 39.336H237.844L237.284 38.344C237.081 37.992 236.878 37.7467 236.676 37.608C236.484 37.4587 236.19 37.384 235.796 37.384C235.433 37.384 235.092 37.4853 234.772 37.688C234.452 37.8907 234.292 38.1787 234.292 38.552C234.292 38.9147 234.425 39.2027 234.692 39.416C234.969 39.6293 235.374 39.8267 235.908 40.008L236.628 40.216C237.396 40.4507 237.945 40.776 238.276 41.192C238.606 41.5973 238.772 42.088 238.772 42.664C238.772 43.4427 238.462 44.0667 237.844 44.536C237.236 45.0053 236.377 45.24 235.268 45.24ZM242.508 45.24C241.826 45.24 241.292 45.0693 240.908 44.728C240.535 44.3867 240.348 43.8427 240.348 43.096V37.624H239.244V37.464L239.628 37.4C239.959 37.3253 240.242 37.2187 240.476 37.08C240.722 36.9413 240.962 36.7547 241.196 36.52L242.508 35.064H242.668L242.62 37.304H244.412V37.624H242.604V43.384C242.604 43.7573 242.684 44.04 242.844 44.232C243.015 44.424 243.228 44.52 243.484 44.52C243.708 44.52 243.906 44.4667 244.076 44.36C244.247 44.2427 244.418 44.088 244.588 43.896L244.748 44.056C244.535 44.4187 244.242 44.7067 243.868 44.92C243.495 45.1333 243.042 45.24 242.508 45.24Z" fill="#202937"/>
<line x1="261.5" y1="10.5" x2="261.5" y2="47.5" stroke="#E9EAEB"/>
<path d="M281.697 21V12.04H284.641C285.341 12.04 285.917 12.1552 286.369 12.3856C286.821 12.616 287.154 12.9275 287.368 13.32C287.589 13.7125 287.7 14.1563 287.7 14.6512C287.7 15.1376 287.594 15.5771 287.38 15.9696C287.167 16.3621 286.834 16.6779 286.382 16.9168C285.93 17.1472 285.349 17.2624 284.641 17.2624H282.772V21H281.697ZM282.772 16.3536H284.616C285.332 16.3536 285.84 16.2043 286.139 15.9056C286.446 15.5984 286.6 15.1803 286.6 14.6512C286.6 14.1136 286.446 13.6955 286.139 13.3968C285.84 13.0896 285.332 12.936 284.616 12.936H282.772V16.3536ZM289.046 21V11.784H290.121V21H289.046ZM293.995 21.1536C293.466 21.1536 293.027 21.064 292.677 20.8848C292.327 20.7056 292.067 20.4667 291.896 20.168C291.725 19.8693 291.64 19.5451 291.64 19.1952C291.64 18.5467 291.887 18.0475 292.382 17.6976C292.877 17.3477 293.551 17.1728 294.405 17.1728H296.12V17.096C296.12 16.5413 295.975 16.1232 295.685 15.8416C295.395 15.5515 295.006 15.4064 294.52 15.4064C294.102 15.4064 293.739 15.5131 293.432 15.7264C293.133 15.9312 292.946 16.2341 292.869 16.6352H291.768C291.811 16.1744 291.964 15.7861 292.229 15.4704C292.502 15.1547 292.839 14.9157 293.24 14.7536C293.641 14.5829 294.068 14.4976 294.52 14.4976C295.407 14.4976 296.073 14.7365 296.517 15.2144C296.969 15.6837 297.195 16.3109 297.195 17.096V21H296.235L296.171 19.8608C295.992 20.2192 295.727 20.5264 295.378 20.7824C295.036 21.0299 294.575 21.1536 293.995 21.1536ZM294.162 20.2448C294.571 20.2448 294.921 20.1381 295.211 19.9248C295.51 19.7115 295.736 19.4341 295.89 19.0928C296.043 18.7515 296.12 18.3931 296.12 18.0176V18.0048H294.494C293.863 18.0048 293.415 18.1157 293.15 18.3376C292.894 18.5509 292.766 18.8197 292.766 19.144C292.766 19.4768 292.886 19.7456 293.125 19.9504C293.372 20.1467 293.718 20.2448 294.162 20.2448ZM298.808 21V14.6512H299.781L299.845 15.7904C300.05 15.3893 300.344 15.0736 300.728 14.8432C301.112 14.6128 301.547 14.4976 302.034 14.4976C302.785 14.4976 303.382 14.728 303.826 15.1888C304.278 15.6411 304.504 16.3408 304.504 17.288V21H303.429V17.4032C303.429 16.0805 302.883 15.4192 301.791 15.4192C301.244 15.4192 300.788 15.6197 300.421 16.0208C300.063 16.4133 299.883 16.9765 299.883 17.7104V21H298.808Z" fill="#4D545F"/>
<path d="M277.782 45V44.84L278.07 44.744C278.283 44.6693 278.427 44.568 278.502 44.44C278.576 44.312 278.614 44.1413 278.614 43.928C278.624 43.288 278.63 42.6427 278.63 41.992C278.63 41.3413 278.63 40.6907 278.63 40.04V39.4C278.63 38.76 278.63 38.12 278.63 37.48C278.63 36.8293 278.624 36.184 278.614 35.544C278.614 35.3307 278.582 35.16 278.518 35.032C278.464 34.904 278.336 34.8027 278.134 34.728L277.782 34.6V34.44H285.526L285.638 37.096H285.478L284.566 35.416C284.459 35.2133 284.336 35.0533 284.198 34.936C284.059 34.8187 283.867 34.76 283.622 34.76H281.046C281.035 35.5173 281.03 36.2907 281.03 37.08C281.03 37.8693 281.03 38.6533 281.03 39.432H282.694C282.939 39.432 283.12 39.3787 283.238 39.272C283.355 39.1653 283.467 39.0107 283.574 38.808L283.91 38.2H284.07V41H283.91L283.558 40.392C283.451 40.2 283.339 40.0453 283.222 39.928C283.115 39.8107 282.939 39.752 282.694 39.752H281.03C281.03 40.4987 281.03 41.2133 281.03 41.896C281.03 42.568 281.035 43.2293 281.046 43.88C281.046 44.296 281.248 44.568 281.654 44.696L282.134 44.84V45H277.782ZM285.859 45V44.84L286.099 44.776C286.312 44.712 286.456 44.616 286.531 44.488C286.616 44.36 286.659 44.1947 286.659 43.992V38.984C286.659 38.7493 286.616 38.5787 286.531 38.472C286.456 38.3547 286.312 38.2747 286.099 38.232L285.859 38.168V38.008L288.611 37.08L288.771 37.24L288.915 38.616V38.744C289.064 38.4453 289.256 38.1733 289.491 37.928C289.736 37.672 290.003 37.464 290.291 37.304C290.59 37.144 290.883 37.064 291.171 37.064C291.576 37.064 291.886 37.176 292.099 37.4C292.312 37.624 292.419 37.9067 292.419 38.248C292.419 38.6107 292.312 38.8933 292.099 39.096C291.896 39.288 291.651 39.384 291.363 39.384C290.915 39.384 290.52 39.16 290.179 38.712L290.147 38.68C290.04 38.5307 289.918 38.4507 289.779 38.44C289.64 38.4187 289.512 38.4827 289.395 38.632C289.288 38.728 289.198 38.8453 289.123 38.984C289.059 39.112 288.995 39.2613 288.931 39.432V43.896C288.931 44.3227 289.118 44.5893 289.491 44.696L290.003 44.84V45H285.859ZM296.688 37.064C297.381 37.064 297.973 37.208 298.464 37.496C298.954 37.7733 299.328 38.1573 299.584 38.648C299.85 39.128 299.984 39.6773 299.984 40.296C299.984 40.4133 299.978 40.536 299.968 40.664C299.957 40.7813 299.936 40.888 299.904 40.984H295.136C295.146 42.136 295.349 42.968 295.744 43.48C296.149 43.9813 296.746 44.232 297.536 44.232C298.069 44.232 298.501 44.1467 298.832 43.976C299.162 43.8053 299.472 43.5547 299.76 43.224L299.92 43.368C299.589 43.9547 299.146 44.4133 298.592 44.744C298.048 45.0747 297.392 45.24 296.624 45.24C295.866 45.24 295.194 45.08 294.608 44.76C294.021 44.4293 293.562 43.96 293.232 43.352C292.901 42.744 292.736 42.0187 292.736 41.176C292.736 40.3013 292.928 39.56 293.312 38.952C293.696 38.3333 294.186 37.864 294.784 37.544C295.392 37.224 296.026 37.064 296.688 37.064ZM296.64 37.384C296.33 37.384 296.064 37.48 295.84 37.672C295.626 37.8533 295.456 38.184 295.328 38.664C295.21 39.1333 295.146 39.8 295.136 40.664H297.872C297.978 39.5013 297.936 38.664 297.744 38.152C297.552 37.64 297.184 37.384 296.64 37.384ZM304.797 37.064C305.49 37.064 306.082 37.208 306.573 37.496C307.064 37.7733 307.437 38.1573 307.693 38.648C307.96 39.128 308.093 39.6773 308.093 40.296C308.093 40.4133 308.088 40.536 308.077 40.664C308.066 40.7813 308.045 40.888 308.013 40.984H303.245C303.256 42.136 303.458 42.968 303.853 43.48C304.258 43.9813 304.856 44.232 305.645 44.232C306.178 44.232 306.61 44.1467 306.941 43.976C307.272 43.8053 307.581 43.5547 307.869 43.224L308.029 43.368C307.698 43.9547 307.256 44.4133 306.701 44.744C306.157 45.0747 305.501 45.24 304.733 45.24C303.976 45.24 303.304 45.08 302.717 44.76C302.13 44.4293 301.672 43.96 301.341 43.352C301.01 42.744 300.845 42.0187 300.845 41.176C300.845 40.3013 301.037 39.56 301.421 38.952C301.805 38.3333 302.296 37.864 302.893 37.544C303.501 37.224 304.136 37.064 304.797 37.064ZM304.749 37.384C304.44 37.384 304.173 37.48 303.949 37.672C303.736 37.8533 303.565 38.184 303.437 38.664C303.32 39.1333 303.256 39.8 303.245 40.664H305.981C306.088 39.5013 306.045 38.664 305.853 38.152C305.661 37.64 305.293 37.384 304.749 37.384Z" fill="#202937"/>
</svg>
