<svg width="333" height="153" viewBox="0 0 333 153" fill="none" xmlns="http://www.w3.org/2000/svg">
<path d="M8.92448 49V48.6094L9.62756 48.375C10.1484 48.1928 10.4999 47.9454 10.6822 47.6329C10.8645 47.3204 10.9556 46.9038 10.9556 46.383C10.9816 44.8206 10.9947 43.2452 10.9947 41.6567C10.9947 40.0683 10.9947 38.4798 10.9947 36.8914V35.329C10.9947 33.7666 10.9947 32.2042 10.9947 30.6418C10.9947 29.0534 10.9816 27.4779 10.9556 25.9155C10.9556 25.3947 10.8775 24.9781 10.7212 24.6656C10.591 24.3531 10.2786 24.1058 9.7838 23.9235L8.92448 23.611V23.2204H27.8295L28.1029 29.7044H27.7123L25.4859 25.6031C25.2255 25.1083 24.9261 24.7177 24.5875 24.4313C24.249 24.1448 23.7803 24.0016 23.1814 24.0016H16.8927C16.8667 25.8504 16.8537 27.7383 16.8537 29.6653C16.8537 31.5923 16.8537 33.5062 16.8537 35.4071H20.9159C21.5148 35.4071 21.9575 35.2769 22.2439 35.0165C22.5304 34.7561 22.8038 34.3785 23.0642 33.8838L23.8845 32.3995H24.2751V39.235H23.8845L23.0251 37.7507C22.7647 37.282 22.4913 36.9044 22.2049 36.618C21.9445 36.3315 21.5148 36.1883 20.9159 36.1883H16.8537C16.8537 38.0111 16.8537 39.7558 16.8537 41.4224C16.8537 43.0629 16.8667 44.6774 16.8927 46.2658C16.8927 47.2814 17.3875 47.9454 18.377 48.2579L19.5488 48.6094V49H8.92448ZM37.6845 29.6262C39.3771 29.6262 40.8224 29.9778 42.0202 30.6809C43.218 31.3579 44.1294 32.2953 44.7544 33.4932C45.4054 34.665 45.7309 36.006 45.7309 37.5164C45.7309 37.8028 45.7179 38.1023 45.6918 38.4147C45.6658 38.7012 45.6137 38.9616 45.5356 39.1959H33.8957C33.9218 42.0083 34.4165 44.0394 35.38 45.2893C36.3695 46.5132 37.8278 47.1251 39.7547 47.1251C41.0567 47.1251 42.1113 46.9168 42.9186 46.5002C43.7258 46.0835 44.481 45.4716 45.1841 44.6643L45.5747 45.0159C44.7674 46.4481 43.6868 47.5678 42.3327 48.375C41.0046 49.1823 39.4032 49.5859 37.5283 49.5859C35.6795 49.5859 34.0389 49.1953 32.6067 48.4141C31.1745 47.6069 30.0548 46.4611 29.2476 44.9768C28.4403 43.4925 28.0367 41.7218 28.0367 39.6647C28.0367 37.5294 28.5054 35.7196 29.4429 34.2353C30.3803 32.725 31.5782 31.5792 33.0364 30.798C34.5207 30.0168 36.0701 29.6262 37.6845 29.6262ZM37.5674 30.4074C36.8122 30.4074 36.1612 30.6418 35.6144 31.1105C35.0936 31.5532 34.6769 32.3604 34.3644 33.5322C34.078 34.678 33.9218 36.3055 33.8957 38.4147H40.575C40.8354 35.5764 40.7312 33.5322 40.2625 32.2823C39.7938 31.0324 38.8954 30.4074 37.5674 30.4074ZM53.2277 49.5859C51.7174 49.5859 50.4414 49.1562 49.3998 48.2969C48.3842 47.4376 47.8765 46.2007 47.8765 44.5862C47.8765 43.3623 48.5014 42.2426 49.7513 41.2271C51.0013 40.1855 52.9673 39.4043 55.6494 38.8835C56.066 38.8053 56.5348 38.7272 57.0556 38.6491C57.5764 38.5449 58.1232 38.4408 58.6961 38.3366V35.2509C58.6961 33.4802 58.4747 32.2433 58.0321 31.5402C57.6154 30.8111 56.9514 30.4465 56.04 30.4465C55.415 30.4465 54.9203 30.6548 54.5557 31.0715C54.1912 31.4621 53.9568 32.1521 53.8526 33.1416L53.7745 33.5713C53.7224 34.691 53.449 35.5113 52.9543 36.0321C52.4595 36.5529 51.8476 36.8133 51.1184 36.8133C50.4414 36.8133 49.8815 36.605 49.4389 36.1883C48.9962 35.7717 48.7748 35.2118 48.7748 34.5087C48.7748 33.4411 49.1394 32.5427 49.8685 31.8136C50.6237 31.0845 51.6132 30.5376 52.8371 30.1731C54.061 29.8085 55.389 29.6262 56.8212 29.6262C59.1388 29.6262 60.9225 30.1991 62.1724 31.3449C63.4484 32.4646 64.0864 34.3004 64.0864 36.8523V45.4846C64.0864 46.6564 64.6332 47.2423 65.7269 47.2423H66.5862L66.9377 47.5548C66.443 48.1797 65.8961 48.6615 65.2972 49C64.7243 49.3385 63.9041 49.5078 62.8364 49.5078C61.6907 49.5078 60.7793 49.2474 60.1022 48.7266C59.4512 48.1797 59.0216 47.4636 58.8133 46.5783C58.0321 47.4116 57.2248 48.1277 56.3915 48.7266C55.5843 49.2995 54.5297 49.5859 53.2277 49.5859ZM55.6103 47.2032C56.1311 47.2032 56.6129 47.0861 57.0556 46.8517C57.5243 46.5913 58.0711 46.2007 58.6961 45.6799V39.1178C58.4357 39.1699 58.1753 39.222 57.9149 39.2741C57.6545 39.3261 57.355 39.3782 57.0165 39.4303C55.8187 39.7428 54.8552 40.2766 54.1261 41.0318C53.423 41.7609 53.0714 42.7504 53.0714 44.0003C53.0714 45.068 53.3188 45.8752 53.8136 46.422C54.3083 46.9428 54.9073 47.2032 55.6103 47.2032ZM74.4989 49.5859C73.2229 49.5859 72.0772 49.4297 71.0616 49.1172C70.0461 48.8307 69.1086 48.4662 68.2493 48.0235L68.2884 43.3754H68.679L70.007 45.719C70.5799 46.7606 71.2048 47.5418 71.8819 48.0626C72.585 48.5573 73.4703 48.8047 74.538 48.8047C75.7879 48.8047 76.7904 48.5313 77.5456 47.9844C78.3268 47.4116 78.7174 46.6564 78.7174 45.719C78.7174 44.8596 78.444 44.1566 77.8971 43.6097C77.3503 43.0629 76.3347 42.5681 74.8504 42.1254L73.2099 41.6177C71.6215 41.1489 70.3716 40.4198 69.4602 39.4303C68.5488 38.4408 68.0931 37.2299 68.0931 35.7977C68.0931 34.0791 68.7701 32.6208 70.1242 31.423C71.4783 30.2252 73.4182 29.6262 75.9441 29.6262C76.9597 29.6262 77.9101 29.7434 78.7955 29.9778C79.7069 30.1861 80.5792 30.5116 81.4125 30.9543L81.1782 35.1728H80.7876L79.4205 32.751C78.9257 31.8917 78.4309 31.2928 77.9362 30.9543C77.4675 30.5897 76.7514 30.4074 75.7879 30.4074C74.9025 30.4074 74.0692 30.6548 73.288 31.1496C72.5068 31.6443 72.1162 32.3474 72.1162 33.2588C72.1162 34.1442 72.4417 34.8473 73.0927 35.3681C73.7698 35.8889 74.7593 36.3706 76.0613 36.8133L77.819 37.3211C79.6939 37.8939 81.0349 38.6882 81.8422 39.7037C82.6494 40.6932 83.053 41.8911 83.053 43.2972C83.053 45.1982 82.2979 46.7215 80.7876 47.8673C79.3033 49.013 77.2071 49.5859 74.4989 49.5859ZM92.1754 49.5859C90.5088 49.5859 89.2068 49.1693 88.2694 48.336C87.358 47.5027 86.9023 46.1747 86.9023 44.3519V30.9933H84.2071V30.6027L85.1446 30.4465C85.9518 30.2642 86.6419 30.0038 87.2148 29.6653C87.8137 29.3268 88.3996 28.8711 88.9725 28.2982L92.1754 24.7437H92.566L92.4488 30.2121H96.8235V30.9933H92.4097V45.0549C92.4097 45.9663 92.605 46.6564 92.9956 47.1251C93.4123 47.5938 93.9331 47.8282 94.558 47.8282C95.1049 47.8282 95.5866 47.698 96.0033 47.4376C96.4199 47.1512 96.8365 46.7736 97.2532 46.3049L97.6438 46.6955C97.123 47.5808 96.4069 48.2839 95.4955 48.8047C94.5841 49.3255 93.4774 49.5859 92.1754 49.5859ZM110.967 58.3744C109.926 58.3744 109.092 58.114 108.467 57.5932C107.868 57.0724 107.569 56.4084 107.569 55.6011C107.569 54.872 107.829 54.2861 108.35 53.8434C108.871 53.4008 109.457 53.1794 110.108 53.1794C110.759 53.1794 111.306 53.3096 111.748 53.57C112.191 53.8565 112.582 54.2601 112.92 54.7809L113.194 55.0934C113.767 55.8746 114.339 55.8615 114.912 55.0543C115.147 54.6637 115.407 54.1429 115.693 53.4919C116.006 52.8669 116.357 52.0206 116.748 50.953L109.17 32.8292C108.988 32.3344 108.793 31.9438 108.585 31.6574C108.376 31.3449 108.038 31.0845 107.569 30.8762L106.866 30.6027V30.2121H116.592V30.5637L115.811 30.8762C115.238 31.0584 114.938 31.3579 114.912 31.7745C114.912 32.1651 115.016 32.6599 115.225 33.2588L119.287 43.805L123.154 33.1416C123.362 32.5427 123.44 32.048 123.388 31.6574C123.336 31.2407 123.011 30.9543 122.412 30.798L121.592 30.6027V30.2121H127.021V30.6027L126.162 30.8762C125.563 31.0584 125.146 31.3188 124.912 31.6574C124.677 31.9959 124.456 32.4646 124.248 33.0635L117.959 50.2109C116.943 52.9451 115.928 54.9892 114.912 56.3433C113.897 57.6974 112.582 58.3744 110.967 58.3744ZM137.167 49.5859C135.188 49.5859 133.47 49.1823 132.011 48.375C130.553 47.5418 129.42 46.37 128.613 44.8596C127.832 43.3493 127.441 41.5786 127.441 39.5475C127.441 37.5164 127.858 35.7587 128.691 34.2744C129.551 32.7901 130.709 31.6443 132.168 30.8371C133.652 30.0299 135.318 29.6262 137.167 29.6262C139.016 29.6262 140.67 30.0299 142.128 30.8371C143.586 31.6183 144.732 32.751 145.565 34.2353C146.425 35.7196 146.854 37.4903 146.854 39.5475C146.854 41.6046 146.451 43.3884 145.643 44.8987C144.862 46.383 143.742 47.5418 142.284 48.375C140.852 49.1823 139.146 49.5859 137.167 49.5859ZM137.167 48.8047C138.079 48.8047 138.808 48.5443 139.355 48.0235C139.902 47.5027 140.292 46.5783 140.526 45.2502C140.787 43.9222 140.917 42.0473 140.917 39.6256C140.917 37.1778 140.787 35.2899 140.526 33.9619C140.292 32.6339 139.902 31.7094 139.355 31.1886C138.808 30.6678 138.079 30.4074 137.167 30.4074C136.256 30.4074 135.514 30.6678 134.941 31.1886C134.394 31.7094 133.99 32.6339 133.73 33.9619C133.496 35.2899 133.378 37.1778 133.378 39.6256C133.378 42.0473 133.496 43.9222 133.73 45.2502C133.99 46.5783 134.394 47.5027 134.941 48.0235C135.514 48.5443 136.256 48.8047 137.167 48.8047ZM155.487 49.5859C154.472 49.5859 153.534 49.3906 152.675 49C151.841 48.6094 151.177 47.9844 150.683 47.1251C150.214 46.2398 149.993 45.081 150.019 43.6488L150.136 33.6104C150.136 33.0114 150.032 32.5818 149.823 32.3214C149.615 32.061 149.29 31.8787 148.847 31.7745L148.378 31.6183V31.2277L155.37 29.8606L155.76 30.2512L155.565 35.7977V45.2112C155.565 46.0445 155.8 46.6564 156.268 47.047C156.763 47.4376 157.375 47.6329 158.104 47.6329C158.833 47.6329 159.484 47.5287 160.057 47.3204C160.63 47.1121 161.203 46.7996 161.776 46.383L161.932 33.6494C161.932 33.0505 161.841 32.6339 161.659 32.3995C161.476 32.1391 161.138 31.9568 160.643 31.8527L160.252 31.7355V31.3449L167.088 29.8606L167.478 30.2512L167.361 35.7977V46.383C167.361 46.9559 167.439 47.3985 167.596 47.711C167.752 48.0235 168.09 48.2839 168.611 48.4922L169.002 48.6094V49L162.166 49.3906L161.815 47.0861C160.955 47.7891 160.018 48.3881 159.002 48.8828C158.013 49.3515 156.841 49.5859 155.487 49.5859ZM170.579 49V48.6094L171.165 48.4532C171.686 48.2969 172.037 48.0626 172.22 47.7501C172.428 47.4376 172.532 47.034 172.532 46.5392V34.3134C172.532 33.7406 172.428 33.3239 172.22 33.0635C172.037 32.7771 171.686 32.5818 171.165 32.4776L170.579 32.3214V31.9308L177.297 29.6653L177.688 30.0559L178.04 33.4151V33.7275C178.404 32.9984 178.873 32.3344 179.446 31.7355C180.045 31.1105 180.696 30.6027 181.399 30.2121C182.128 29.8215 182.844 29.6262 183.547 29.6262C184.537 29.6262 185.292 29.8997 185.813 30.4465C186.333 30.9933 186.594 31.6834 186.594 32.5167C186.594 33.402 186.333 34.0921 185.813 34.5869C185.318 35.0556 184.719 35.2899 184.016 35.2899C182.922 35.2899 181.959 34.7431 181.125 33.6494L181.047 33.5713C180.787 33.2067 180.487 33.0114 180.149 32.9854C179.81 32.9333 179.498 33.0896 179.211 33.4541C178.951 33.6885 178.73 33.9749 178.547 34.3134C178.391 34.6259 178.235 34.9905 178.079 35.4071V46.3049C178.079 47.3465 178.534 47.9975 179.446 48.2579L180.696 48.6094V49H170.579ZM203.084 49.5859C201.808 49.5859 200.662 49.4297 199.647 49.1172C198.631 48.8307 197.694 48.4662 196.835 48.0235L196.874 43.3754H197.264L198.592 45.719C199.165 46.7606 199.79 47.5418 200.467 48.0626C201.17 48.5573 202.056 48.8047 203.123 48.8047C204.373 48.8047 205.376 48.5313 206.131 47.9844C206.912 47.4116 207.303 46.6564 207.303 45.719C207.303 44.8596 207.029 44.1566 206.482 43.6097C205.935 43.0629 204.92 42.5681 203.436 42.1254L201.795 41.6177C200.207 41.1489 198.957 40.4198 198.045 39.4303C197.134 38.4408 196.678 37.2299 196.678 35.7977C196.678 34.0791 197.355 32.6208 198.709 31.423C200.063 30.2252 202.003 29.6262 204.529 29.6262C205.545 29.6262 206.495 29.7434 207.381 29.9778C208.292 30.1861 209.164 30.5116 209.998 30.9543L209.763 35.1728H209.373L208.006 32.751C207.511 31.8917 207.016 31.2928 206.521 30.9543C206.053 30.5897 205.337 30.4074 204.373 30.4074C203.488 30.4074 202.654 30.6548 201.873 31.1496C201.092 31.6443 200.701 32.3474 200.701 33.2588C200.701 34.1442 201.027 34.8473 201.678 35.3681C202.355 35.8889 203.345 36.3706 204.647 36.8133L206.404 37.3211C208.279 37.8939 209.62 38.6882 210.427 39.7037C211.235 40.6932 211.638 41.8911 211.638 43.2972C211.638 45.1982 210.883 46.7215 209.373 47.8673C207.888 49.013 205.792 49.5859 203.084 49.5859ZM223.143 29.6262C224.836 29.6262 226.281 29.9778 227.479 30.6809C228.677 31.3579 229.588 32.2953 230.213 33.4932C230.864 34.665 231.19 36.006 231.19 37.5164C231.19 37.8028 231.177 38.1023 231.151 38.4147C231.125 38.7012 231.072 38.9616 230.994 39.1959H219.354C219.38 42.0083 219.875 44.0394 220.839 45.2893C221.828 46.5132 223.286 47.1251 225.213 47.1251C226.515 47.1251 227.57 46.9168 228.377 46.5002C229.185 46.0835 229.94 45.4716 230.643 44.6643L231.033 45.0159C230.226 46.4481 229.145 47.5678 227.791 48.375C226.463 49.1823 224.862 49.5859 222.987 49.5859C221.138 49.5859 219.498 49.1953 218.065 48.4141C216.633 47.6069 215.514 46.4611 214.706 44.9768C213.899 43.4925 213.495 41.7218 213.495 39.6647C213.495 37.5294 213.964 35.7196 214.902 34.2353C215.839 32.725 217.037 31.5792 218.495 30.798C219.979 30.0168 221.529 29.6262 223.143 29.6262ZM223.026 30.4074C222.271 30.4074 221.62 30.6418 221.073 31.1105C220.552 31.5532 220.136 32.3604 219.823 33.5322C219.537 34.678 219.38 36.3055 219.354 38.4147H226.034C226.294 35.5764 226.19 33.5322 225.721 32.2823C225.252 31.0324 224.354 30.4074 223.026 30.4074ZM233.136 49V48.6094L233.683 48.4532C234.594 48.1928 235.05 47.5548 235.05 46.5392V34.3134C235.05 33.7406 234.959 33.3239 234.777 33.0635C234.594 32.7771 234.243 32.5818 233.722 32.4776L233.136 32.3214V31.9308L239.815 29.6653L240.206 30.0559L240.519 32.3995C241.43 31.5923 242.459 30.9282 243.604 30.4074C244.75 29.8866 245.883 29.6262 247.003 29.6262C248.721 29.6262 250.036 30.095 250.948 31.0324C251.885 31.9698 252.354 33.402 252.354 35.329V46.5783C252.354 47.5938 252.848 48.2318 253.838 48.4922L254.19 48.6094V49H244.971V48.6094L245.479 48.4532C246.391 48.1667 246.846 47.5287 246.846 46.5392V34.0791C246.846 32.4125 246.013 31.5792 244.346 31.5792C243.201 31.5792 241.951 32.1521 240.597 33.2979V46.5783C240.597 47.5938 241.052 48.2318 241.964 48.4922L242.315 48.6094V49H233.136ZM262.475 49.5859C261.199 49.5859 260.053 49.4297 259.038 49.1172C258.022 48.8307 257.085 48.4662 256.226 48.0235L256.265 43.3754H256.655L257.983 45.719C258.556 46.7606 259.181 47.5418 259.858 48.0626C260.561 48.5573 261.447 48.8047 262.514 48.8047C263.764 48.8047 264.767 48.5313 265.522 47.9844C266.303 47.4116 266.694 46.6564 266.694 45.719C266.694 44.8596 266.42 44.1566 265.873 43.6097C265.327 43.0629 264.311 42.5681 262.827 42.1254L261.186 41.6177C259.598 41.1489 258.348 40.4198 257.436 39.4303C256.525 38.4408 256.069 37.2299 256.069 35.7977C256.069 34.0791 256.746 32.6208 258.1 31.423C259.455 30.2252 261.394 29.6262 263.92 29.6262C264.936 29.6262 265.886 29.7434 266.772 29.9778C267.683 30.1861 268.555 30.5116 269.389 30.9543L269.154 35.1728H268.764L267.397 32.751C266.902 31.8917 266.407 31.2928 265.912 30.9543C265.444 30.5897 264.728 30.4074 263.764 30.4074C262.879 30.4074 262.045 30.6548 261.264 31.1496C260.483 31.6443 260.092 32.3474 260.092 33.2588C260.092 34.1442 260.418 34.8473 261.069 35.3681C261.746 35.8889 262.736 36.3706 264.038 36.8133L265.795 37.3211C267.67 37.8939 269.011 38.6882 269.818 39.7037C270.626 40.6932 271.029 41.8911 271.029 43.2972C271.029 45.1982 270.274 46.7215 268.764 47.8673C267.28 49.013 265.183 49.5859 262.475 49.5859ZM282.534 29.6262C284.227 29.6262 285.672 29.9778 286.87 30.6809C288.068 31.3579 288.979 32.2953 289.604 33.4932C290.255 34.665 290.581 36.006 290.581 37.5164C290.581 37.8028 290.568 38.1023 290.542 38.4147C290.516 38.7012 290.463 38.9616 290.385 39.1959H278.745C278.772 42.0083 279.266 44.0394 280.23 45.2893C281.219 46.5132 282.678 47.1251 284.604 47.1251C285.906 47.1251 286.961 46.9168 287.768 46.5002C288.576 46.0835 289.331 45.4716 290.034 44.6643L290.424 45.0159C289.617 46.4481 288.537 47.5678 287.182 48.375C285.854 49.1823 284.253 49.5859 282.378 49.5859C280.529 49.5859 278.889 49.1953 277.456 48.4141C276.024 47.6069 274.905 46.4611 274.097 44.9768C273.29 43.4925 272.886 41.7218 272.886 39.6647C272.886 37.5294 273.355 35.7196 274.293 34.2353C275.23 32.725 276.428 31.5792 277.886 30.798C279.37 30.0168 280.92 29.6262 282.534 29.6262ZM282.417 30.4074C281.662 30.4074 281.011 30.6418 280.464 31.1105C279.943 31.5532 279.527 32.3604 279.214 33.5322C278.928 34.678 278.772 36.3055 278.745 38.4147H285.425C285.685 35.5764 285.581 33.5322 285.112 32.2823C284.644 31.0324 283.745 30.4074 282.417 30.4074ZM299.285 49.5859C298.009 49.5859 296.863 49.4297 295.847 49.1172C294.832 48.8307 293.894 48.4662 293.035 48.0235L293.074 43.3754H293.465L294.793 45.719C295.366 46.7606 295.991 47.5418 296.668 48.0626C297.371 48.5573 298.256 48.8047 299.324 48.8047C300.574 48.8047 301.576 48.5313 302.331 47.9844C303.112 47.4116 303.503 46.6564 303.503 45.719C303.503 44.8596 303.23 44.1566 302.683 43.6097C302.136 43.0629 301.12 42.5681 299.636 42.1254L297.996 41.6177C296.407 41.1489 295.157 40.4198 294.246 39.4303C293.334 38.4408 292.879 37.2299 292.879 35.7977C292.879 34.0791 293.556 32.6208 294.91 31.423C296.264 30.2252 298.204 29.6262 300.73 29.6262C301.745 29.6262 302.696 29.7434 303.581 29.9778C304.493 30.1861 305.365 30.5116 306.198 30.9543L305.964 35.1728H305.573L304.206 32.751C303.711 31.8917 303.217 31.2928 302.722 30.9543C302.253 30.5897 301.537 30.4074 300.574 30.4074C299.688 30.4074 298.855 30.6548 298.074 31.1496C297.293 31.6443 296.902 32.3474 296.902 33.2588C296.902 34.1442 297.227 34.8473 297.878 35.3681C298.555 35.8889 299.545 36.3706 300.847 36.8133L302.605 37.3211C304.48 37.8939 305.821 38.6882 306.628 39.7037C307.435 40.6932 307.839 41.8911 307.839 43.2972C307.839 45.1982 307.084 46.7215 305.573 47.8673C304.089 49.013 301.993 49.5859 299.285 49.5859ZM311.623 55.2105L311.388 54.6637C312.274 54.1169 312.938 53.4528 313.38 52.6716C313.849 51.9165 314.175 50.966 314.357 49.8203L313.068 49.2734C312.313 48.9089 311.727 48.4401 311.31 47.8673C310.92 47.2683 310.724 46.6694 310.724 46.0705C310.724 45.1591 311.024 44.4039 311.623 43.805C312.222 43.1801 313.003 42.8676 313.966 42.8676C314.956 42.8676 315.75 43.2191 316.349 43.9222C316.974 44.5992 317.286 45.5888 317.286 46.8908C317.286 48.323 316.987 49.5989 316.388 50.7186C315.815 51.8644 315.099 52.8149 314.24 53.57C313.38 54.3512 312.508 54.8981 311.623 55.2105ZM47.9144 96V95.6094L48.8909 95.2579C49.4117 95.0495 49.8154 94.8022 50.1018 94.5157C50.3882 94.2032 50.6226 93.7736 50.8049 93.2267L58.8512 70.1423H62.1713L70.1005 93.383C70.3088 93.9559 70.5432 94.3985 70.8036 94.711C71.064 94.9975 71.4676 95.2448 72.0145 95.4532L72.4832 95.6094V96H62.5619V95.6094L63.1478 95.4141C63.6947 95.2058 64.0202 94.9193 64.1243 94.5548C64.2545 94.1642 64.2415 93.7085 64.0853 93.1877L62.2495 87.563H53.5781L51.7033 93.0705C51.521 93.6434 51.4559 94.0991 51.508 94.4376C51.5861 94.7761 51.8986 95.0495 52.4454 95.2579L53.3047 95.6094V96H47.9144ZM53.8516 86.7818H62.0151L58.07 74.6342L53.8516 86.7818ZM82.3718 96V95.6094L82.8796 95.4922C83.3743 95.362 83.7649 95.1407 84.0514 94.8282C84.3378 94.4897 84.481 94.06 84.481 93.5392C84.481 92.5757 84.481 91.6253 84.481 90.6878C84.5071 89.7244 84.5201 88.7609 84.5201 87.7974V77.9933H82.3327V77.5637L83.192 77.4074C83.7128 77.3554 84.0904 77.1731 84.3248 76.8606C84.5591 76.5481 84.7284 76.1185 84.8326 75.5716C85.093 74.5561 85.4705 73.6707 85.9653 72.9155C86.4861 72.1343 87.072 71.4182 87.723 70.7672C88.7125 69.8298 89.7541 69.1788 90.8478 68.8142C91.9675 68.4236 93.0612 68.2283 94.1288 68.2283C95.1704 68.2283 96.1209 68.4497 96.9802 68.8924C97.8395 69.309 98.2692 70.0121 98.2692 71.0016C98.2692 71.7047 98.0609 72.2645 97.6442 72.6812C97.2276 73.0718 96.6417 73.2671 95.8865 73.2671C95.2616 73.2671 94.6887 73.0978 94.1679 72.7593C93.6471 72.4208 93.1393 71.8219 92.6446 70.9625L92.0977 70.2985C91.8113 69.934 91.5248 69.7647 91.2384 69.7907C90.952 69.7907 90.7436 69.9991 90.6134 70.4157C90.4312 71.3271 90.2879 72.3947 90.1838 73.6186C90.1057 74.8425 90.0666 76.0403 90.0666 77.2121H94.4413V77.9933H90.0666V93.4611C90.0666 94.4506 90.5874 95.0886 91.629 95.375L92.6055 95.6094V96H82.3718ZM105.107 96.5859C103.128 96.5859 101.409 96.1823 99.9509 95.375C98.4927 94.5418 97.3599 93.37 96.5527 91.8596C95.7715 90.3493 95.3809 88.5786 95.3809 86.5475C95.3809 84.5164 95.7975 82.7587 96.6308 81.2744C97.4901 79.7901 98.6489 78.6443 100.107 77.8371C101.591 77.0299 103.258 76.6262 105.107 76.6262C106.956 76.6262 108.609 77.0299 110.067 77.8371C111.526 78.6183 112.671 79.751 113.505 81.2353C114.364 82.7196 114.794 84.4903 114.794 86.5475C114.794 88.6046 114.39 90.3884 113.583 91.8987C112.802 93.383 111.682 94.5418 110.224 95.375C108.791 96.1823 107.086 96.5859 105.107 96.5859ZM105.107 95.8047C106.018 95.8047 106.747 95.5443 107.294 95.0235C107.841 94.5027 108.232 93.5783 108.466 92.2502C108.726 90.9222 108.857 89.0473 108.857 86.6256C108.857 84.1778 108.726 82.2899 108.466 80.9619C108.232 79.6339 107.841 78.7094 107.294 78.1886C106.747 77.6678 106.018 77.4074 105.107 77.4074C104.195 77.4074 103.453 77.6678 102.88 78.1886C102.334 78.7094 101.93 79.6339 101.67 80.9619C101.435 82.2899 101.318 84.1778 101.318 86.6256C101.318 89.0473 101.435 90.9222 101.67 92.2502C101.93 93.5783 102.334 94.5027 102.88 95.0235C103.453 95.5443 104.195 95.8047 105.107 95.8047ZM126.62 96.5859C124.641 96.5859 122.923 96.1823 121.464 95.375C120.006 94.5418 118.873 93.37 118.066 91.8596C117.285 90.3493 116.894 88.5786 116.894 86.5475C116.894 84.5164 117.311 82.7587 118.144 81.2744C119.004 79.7901 120.162 78.6443 121.621 77.8371C123.105 77.0299 124.772 76.6262 126.62 76.6262C128.469 76.6262 130.123 77.0299 131.581 77.8371C133.039 78.6183 134.185 79.751 135.018 81.2353C135.878 82.7196 136.307 84.4903 136.307 86.5475C136.307 88.6046 135.904 90.3884 135.096 91.8987C134.315 93.383 133.195 94.5418 131.737 95.375C130.305 96.1823 128.599 96.5859 126.62 96.5859ZM126.62 95.8047C127.532 95.8047 128.261 95.5443 128.808 95.0235C129.355 94.5027 129.745 93.5783 129.98 92.2502C130.24 90.9222 130.37 89.0473 130.37 86.6256C130.37 84.1778 130.24 82.2899 129.98 80.9619C129.745 79.6339 129.355 78.7094 128.808 78.1886C128.261 77.6678 127.532 77.4074 126.62 77.4074C125.709 77.4074 124.967 77.6678 124.394 78.1886C123.847 78.7094 123.443 79.6339 123.183 80.9619C122.949 82.2899 122.832 84.1778 122.832 86.6256C122.832 89.0473 122.949 90.9222 123.183 92.2502C123.443 93.5783 123.847 94.5027 124.394 95.0235C124.967 95.5443 125.709 95.8047 126.62 95.8047ZM146.532 96.5859C144.996 96.5859 143.616 96.2474 142.392 95.5703C141.168 94.8673 140.192 93.7996 139.463 92.3674C138.759 90.9092 138.408 89.0473 138.408 86.7818C138.408 84.4903 138.812 82.6024 139.619 81.1181C140.426 79.6078 141.494 78.4881 142.822 77.759C144.15 77.0038 145.595 76.6262 147.157 76.6262C148.069 76.6262 148.941 76.7174 149.774 76.8997C150.608 77.0819 151.35 77.3554 152.001 77.7199V72.6421C152.001 72.0953 151.91 71.6917 151.727 71.4313C151.571 71.1709 151.22 70.9886 150.673 70.8844L149.931 70.7282V70.3376L157.04 68.6189L157.469 68.9705L157.313 74.4389V93.5392C157.313 94.06 157.404 94.4897 157.586 94.8282C157.769 95.1407 158.107 95.362 158.602 95.4922L158.953 95.6094V96L152.274 96.4297L151.923 95.0235C151.22 95.4922 150.412 95.8698 149.501 96.1562C148.616 96.4427 147.626 96.5859 146.532 96.5859ZM148.798 95.1407C149.892 95.1407 150.894 94.8152 151.805 94.1642V78.6574C150.842 78.0324 149.852 77.7199 148.837 77.7199C147.587 77.7199 146.519 78.449 145.634 79.9073C144.749 81.3395 144.306 83.605 144.306 86.7037C144.306 89.8025 144.723 91.9898 145.556 93.2658C146.389 94.5157 147.47 95.1407 148.798 95.1407ZM169.304 96V95.6094L169.773 95.4532C170.71 95.1407 171.179 94.4897 171.179 93.5002V72.6031C171.179 72.0823 171.075 71.6917 170.866 71.4313C170.658 71.1448 170.294 70.9365 169.773 70.8063L169.265 70.6891V70.2985L176.413 68.6189L176.882 68.9705L176.725 74.4389V87.7974C176.725 88.7609 176.725 89.7244 176.725 90.6878C176.752 91.6253 176.765 92.5627 176.765 93.5002C176.765 94.021 176.869 94.4506 177.077 94.7891C177.285 95.1016 177.637 95.336 178.132 95.4922L178.639 95.6094V96H169.304ZM190.245 96.5859C188.266 96.5859 186.548 96.1823 185.09 95.375C183.631 94.5418 182.499 93.37 181.691 91.8596C180.91 90.3493 180.519 88.5786 180.519 86.5475C180.519 84.5164 180.936 82.7587 181.769 81.2744C182.629 79.7901 183.788 78.6443 185.246 77.8371C186.73 77.0299 188.397 76.6262 190.245 76.6262C192.094 76.6262 193.748 77.0299 195.206 77.8371C196.664 78.6183 197.81 79.751 198.643 81.2353C199.503 82.7196 199.932 84.4903 199.932 86.5475C199.932 88.6046 199.529 90.3884 198.721 91.8987C197.94 93.383 196.821 94.5418 195.362 95.375C193.93 96.1823 192.224 96.5859 190.245 96.5859ZM190.245 95.8047C191.157 95.8047 191.886 95.5443 192.433 95.0235C192.98 94.5027 193.37 93.5783 193.605 92.2502C193.865 90.9222 193.995 89.0473 193.995 86.6256C193.995 84.1778 193.865 82.2899 193.605 80.9619C193.37 79.6339 192.98 78.7094 192.433 78.1886C191.886 77.6678 191.157 77.4074 190.245 77.4074C189.334 77.4074 188.592 77.6678 188.019 78.1886C187.472 78.7094 187.069 79.6339 186.808 80.9619C186.574 82.2899 186.457 84.1778 186.457 86.6256C186.457 89.0473 186.574 90.9222 186.808 92.2502C187.069 93.5783 187.472 94.5027 188.019 95.0235C188.592 95.5443 189.334 95.8047 190.245 95.8047ZM210.168 96.1172L203.255 79.5167C202.89 78.6313 202.265 78.0454 201.38 77.759L200.833 77.6027V77.2121H210.95V77.6027L210.247 77.759C209.231 78.0194 208.919 78.6964 209.309 79.7901L213.41 90.6878L217.238 79.8682C217.447 79.3474 217.499 78.9178 217.395 78.5792C217.29 78.2407 216.978 77.9933 216.457 77.8371L215.481 77.6027V77.2121H221.144V77.6027L220.012 77.8762C219.517 78.0064 219.126 78.2017 218.84 78.4621C218.579 78.7225 218.358 79.1131 218.176 79.6339L212.434 96.1172H210.168ZM230.906 76.6262C232.598 76.6262 234.043 76.9778 235.241 77.6809C236.439 78.3579 237.351 79.2953 237.976 80.4932C238.627 81.665 238.952 83.006 238.952 84.5164C238.952 84.8028 238.939 85.1023 238.913 85.4147C238.887 85.7012 238.835 85.9616 238.757 86.1959H227.117C227.143 89.0083 227.638 91.0394 228.601 92.2893C229.591 93.5132 231.049 94.1251 232.976 94.1251C234.278 94.1251 235.332 93.9168 236.14 93.5002C236.947 93.0835 237.702 92.4716 238.405 91.6643L238.796 92.0159C237.989 93.4481 236.908 94.5678 235.554 95.375C234.226 96.1823 232.624 96.5859 230.749 96.5859C228.901 96.5859 227.26 96.1953 225.828 95.4141C224.396 94.6069 223.276 93.4611 222.469 91.9768C221.661 90.4925 221.258 88.7218 221.258 86.6647C221.258 84.5294 221.727 82.7196 222.664 81.2353C223.601 79.725 224.799 78.5792 226.258 77.798C227.742 77.0168 229.291 76.6262 230.906 76.6262ZM230.788 77.4074C230.033 77.4074 229.382 77.6418 228.835 78.1105C228.315 78.5532 227.898 79.3604 227.586 80.5322C227.299 81.678 227.143 83.3055 227.117 85.4147H233.796C234.057 82.5764 233.952 80.5322 233.484 79.2823C233.015 78.0324 232.117 77.4074 230.788 77.4074ZM240.899 96V95.6094L241.485 95.4532C242.005 95.2969 242.357 95.0626 242.539 94.7501C242.747 94.4376 242.852 94.034 242.852 93.5392V81.3134C242.852 80.7406 242.747 80.3239 242.539 80.0635C242.357 79.7771 242.005 79.5818 241.485 79.4776L240.899 79.3214V78.9308L247.617 76.6653L248.008 77.0559L248.359 80.4151V80.7275C248.724 79.9984 249.192 79.3344 249.765 78.7355C250.364 78.1105 251.015 77.6027 251.718 77.2121C252.447 76.8215 253.163 76.6262 253.867 76.6262C254.856 76.6262 255.611 76.8997 256.132 77.4465C256.653 77.9933 256.913 78.6834 256.913 79.5167C256.913 80.402 256.653 81.0921 256.132 81.5869C255.637 82.0556 255.038 82.2899 254.335 82.2899C253.242 82.2899 252.278 81.7431 251.445 80.6494L251.367 80.5713C251.106 80.2067 250.807 80.0114 250.468 79.9854C250.13 79.9333 249.817 80.0896 249.531 80.4541C249.27 80.6885 249.049 80.9749 248.867 81.3134C248.711 81.6259 248.554 81.9905 248.398 82.4071V93.3049C248.398 94.3465 248.854 94.9975 249.765 95.2579L251.015 95.6094V96H240.899ZM262.033 67.4471C262.997 67.4471 263.765 67.7987 264.338 68.5018C264.937 69.1788 265.236 70.0772 265.236 71.1969C265.236 72.6551 264.806 74.0222 263.947 75.2982C263.088 76.5481 262.02 77.4856 260.744 78.1105L260.51 77.6418C261.057 77.2252 261.538 76.6913 261.955 76.0403C262.372 75.3893 262.671 74.5821 262.853 73.6186L262.033 73.4233C261.122 73.215 260.406 72.8374 259.885 72.2906C259.39 71.7177 259.143 71.0407 259.143 70.2595C259.143 69.4262 259.416 68.7491 259.963 68.2283C260.536 67.7075 261.226 67.4471 262.033 67.4471ZM270.924 96.5859C269.648 96.5859 268.502 96.4297 267.487 96.1172C266.471 95.8307 265.534 95.4662 264.675 95.0235L264.714 90.3754H265.104L266.432 92.719C267.005 93.7606 267.63 94.5418 268.307 95.0626C269.01 95.5573 269.896 95.8047 270.963 95.8047C272.213 95.8047 273.216 95.5313 273.971 94.9844C274.752 94.4116 275.143 93.6564 275.143 92.719C275.143 91.8596 274.869 91.1566 274.322 90.6097C273.776 90.0629 272.76 89.5681 271.276 89.1254L269.635 88.6177C268.047 88.1489 266.797 87.4198 265.885 86.4303C264.974 85.4408 264.518 84.2299 264.518 82.7977C264.518 81.0791 265.195 79.6208 266.549 78.423C267.903 77.2252 269.843 76.6262 272.369 76.6262C273.385 76.6262 274.335 76.7434 275.221 76.9778C276.132 77.1861 277.004 77.5116 277.838 77.9543L277.603 82.1728H277.213L275.846 79.751C275.351 78.8917 274.856 78.2928 274.361 77.9543C273.893 77.5897 273.177 77.4074 272.213 77.4074C271.328 77.4074 270.494 77.6548 269.713 78.1496C268.932 78.6443 268.541 79.3474 268.541 80.2588C268.541 81.1442 268.867 81.8473 269.518 82.3681C270.195 82.8889 271.185 83.3706 272.487 83.8133L274.244 84.3211C276.119 84.8939 277.46 85.6882 278.267 86.7037C279.075 87.6932 279.478 88.8911 279.478 90.2972C279.478 92.1982 278.723 93.7215 277.213 94.8673C275.729 96.013 273.632 96.5859 270.924 96.5859ZM90.1324 151.984V151.593L90.6011 151.437C91.5646 151.177 92.0463 150.552 92.0463 149.562V128.313C92.0463 127.741 91.9421 127.311 91.7338 127.024C91.5515 126.738 91.2 126.543 90.6792 126.439L90.1324 126.321V125.931L96.7726 123.665L97.1632 124.056L97.5147 125.267C98.374 124.746 99.3245 124.342 100.366 124.056C101.434 123.769 102.527 123.626 103.647 123.626C105.887 123.626 107.657 124.486 108.959 126.204C110.287 127.897 110.951 130.332 110.951 133.508C110.951 136.633 110.222 139.094 108.764 140.891C107.332 142.688 105.301 143.586 102.671 143.586C100.613 143.586 98.8818 143.286 97.4756 142.688V149.445C97.4756 150.487 97.9444 151.138 98.8818 151.398L99.6239 151.593V151.984H90.1324ZM100.796 142.453C102.098 142.453 103.126 141.776 103.881 140.422C104.663 139.068 105.053 136.815 105.053 133.665C105.053 130.514 104.689 128.313 103.96 127.064C103.23 125.788 102.176 125.15 100.796 125.15C99.8323 125.15 98.7646 125.462 97.5928 126.087V141.828C98.5823 142.245 99.65 142.453 100.796 142.453ZM118.188 143.586C116.677 143.586 115.402 143.156 114.36 142.297C113.344 141.438 112.837 140.201 112.837 138.586C112.837 137.362 113.462 136.243 114.711 135.227C115.961 134.185 117.927 133.404 120.61 132.883C121.026 132.805 121.495 132.727 122.016 132.649C122.536 132.545 123.083 132.441 123.656 132.337V129.251C123.656 127.48 123.435 126.243 122.992 125.54C122.576 124.811 121.912 124.446 121 124.446C120.375 124.446 119.88 124.655 119.516 125.071C119.151 125.462 118.917 126.152 118.813 127.142L118.735 127.571C118.683 128.691 118.409 129.511 117.914 130.032C117.42 130.553 116.808 130.813 116.079 130.813C115.402 130.813 114.842 130.605 114.399 130.188C113.956 129.772 113.735 129.212 113.735 128.509C113.735 127.441 114.1 126.543 114.829 125.814C115.584 125.084 116.573 124.538 117.797 124.173C119.021 123.809 120.349 123.626 121.781 123.626C124.099 123.626 125.883 124.199 127.133 125.345C128.409 126.465 129.046 128.3 129.046 130.852V139.485C129.046 140.656 129.593 141.242 130.687 141.242H131.546L131.898 141.555C131.403 142.18 130.856 142.661 130.257 143C129.684 143.339 128.864 143.508 127.797 143.508C126.651 143.508 125.739 143.247 125.062 142.727C124.411 142.18 123.982 141.464 123.773 140.578C122.992 141.412 122.185 142.128 121.352 142.727C120.544 143.299 119.49 143.586 118.188 143.586ZM120.57 141.203C121.091 141.203 121.573 141.086 122.016 140.852C122.484 140.591 123.031 140.201 123.656 139.68V133.118C123.396 133.17 123.135 133.222 122.875 133.274C122.615 133.326 122.315 133.378 121.977 133.43C120.779 133.743 119.815 134.277 119.086 135.032C118.383 135.761 118.032 136.75 118.032 138C118.032 139.068 118.279 139.875 118.774 140.422C119.268 140.943 119.867 141.203 120.57 141.203ZM132.625 143V142.609L133.211 142.453C133.732 142.297 134.084 142.063 134.266 141.75C134.474 141.438 134.578 141.034 134.578 140.539V128.313C134.578 127.741 134.474 127.324 134.266 127.064C134.084 126.777 133.732 126.582 133.211 126.478L132.625 126.321V125.931L139.344 123.665L139.734 124.056L140.086 127.415V127.728C140.45 126.998 140.919 126.334 141.492 125.735C142.091 125.111 142.742 124.603 143.445 124.212C144.174 123.822 144.89 123.626 145.593 123.626C146.583 123.626 147.338 123.9 147.859 124.446C148.38 124.993 148.64 125.683 148.64 126.517C148.64 127.402 148.38 128.092 147.859 128.587C147.364 129.056 146.765 129.29 146.062 129.29C144.968 129.29 144.005 128.743 143.172 127.649L143.093 127.571C142.833 127.207 142.534 127.011 142.195 126.985C141.857 126.933 141.544 127.09 141.258 127.454C140.997 127.688 140.776 127.975 140.594 128.313C140.437 128.626 140.281 128.99 140.125 129.407V140.305C140.125 141.346 140.581 141.997 141.492 142.258L142.742 142.609V143H132.625ZM154.73 143.586C153.22 143.586 151.944 143.156 150.902 142.297C149.887 141.438 149.379 140.201 149.379 138.586C149.379 137.362 150.004 136.243 151.254 135.227C152.504 134.185 154.47 133.404 157.152 132.883C157.569 132.805 158.037 132.727 158.558 132.649C159.079 132.545 159.626 132.441 160.199 132.337V129.251C160.199 127.48 159.977 126.243 159.535 125.54C159.118 124.811 158.454 124.446 157.543 124.446C156.918 124.446 156.423 124.655 156.058 125.071C155.694 125.462 155.459 126.152 155.355 127.142L155.277 127.571C155.225 128.691 154.952 129.511 154.457 130.032C153.962 130.553 153.35 130.813 152.621 130.813C151.944 130.813 151.384 130.605 150.941 130.188C150.499 129.772 150.277 129.212 150.277 128.509C150.277 127.441 150.642 126.543 151.371 125.814C152.126 125.084 153.116 124.538 154.34 124.173C155.564 123.809 156.892 123.626 158.324 123.626C160.641 123.626 162.425 124.199 163.675 125.345C164.951 126.465 165.589 128.3 165.589 130.852V139.485C165.589 140.656 166.136 141.242 167.229 141.242H168.089L168.44 141.555C167.946 142.18 167.399 142.661 166.8 143C166.227 143.339 165.407 143.508 164.339 143.508C163.193 143.508 162.282 143.247 161.605 142.727C160.954 142.18 160.524 141.464 160.316 140.578C159.535 141.412 158.727 142.128 157.894 142.727C157.087 143.299 156.032 143.586 154.73 143.586ZM157.113 141.203C157.634 141.203 158.115 141.086 158.558 140.852C159.027 140.591 159.574 140.201 160.199 139.68V133.118C159.938 133.17 159.678 133.222 159.417 133.274C159.157 133.326 158.858 133.378 158.519 133.43C157.321 133.743 156.358 134.277 155.629 135.032C154.926 135.761 154.574 136.75 154.574 138C154.574 139.068 154.821 139.875 155.316 140.422C155.811 140.943 156.41 141.203 157.113 141.203ZM177.525 143.586C175.988 143.586 174.608 143.247 173.384 142.57C172.161 141.867 171.184 140.8 170.455 139.367C169.752 137.909 169.4 136.047 169.4 133.782C169.4 131.49 169.804 129.602 170.611 128.118C171.418 126.608 172.486 125.488 173.814 124.759C175.142 124.004 176.587 123.626 178.15 123.626C179.061 123.626 179.934 123.717 180.767 123.9C181.6 124.082 182.342 124.355 182.993 124.72V119.642C182.993 119.095 182.902 118.692 182.72 118.431C182.564 118.171 182.212 117.989 181.665 117.884L180.923 117.728V117.338L188.032 115.619L188.462 115.97L188.305 121.439V140.539C188.305 141.06 188.397 141.49 188.579 141.828C188.761 142.141 189.1 142.362 189.594 142.492L189.946 142.609V143L183.267 143.43L182.915 142.023C182.212 142.492 181.405 142.87 180.493 143.156C179.608 143.443 178.619 143.586 177.525 143.586ZM179.79 142.141C180.884 142.141 181.887 141.815 182.798 141.164V125.657C181.834 125.032 180.845 124.72 179.829 124.72C178.579 124.72 177.512 125.449 176.626 126.907C175.741 128.339 175.298 130.605 175.298 133.704C175.298 136.802 175.715 138.99 176.548 140.266C177.382 141.516 178.462 142.141 179.79 142.141ZM196.36 121.595C195.475 121.595 194.72 121.322 194.095 120.775C193.496 120.202 193.196 119.486 193.196 118.627C193.196 117.741 193.496 117.025 194.095 116.478C194.72 115.931 195.475 115.658 196.36 115.658C197.246 115.658 197.988 115.931 198.587 116.478C199.186 117.025 199.485 117.741 199.485 118.627C199.485 119.486 199.186 120.202 198.587 120.775C197.988 121.322 197.246 121.595 196.36 121.595ZM191.751 143V142.609L192.298 142.453C192.819 142.297 193.17 142.063 193.353 141.75C193.561 141.438 193.665 141.021 193.665 140.5V128.274C193.665 127.728 193.561 127.324 193.353 127.064C193.17 126.777 192.819 126.582 192.298 126.478L191.751 126.36V125.97L198.899 123.665L199.29 124.056L199.173 129.602V140.539C199.173 141.06 199.264 141.477 199.446 141.789C199.654 142.102 200.006 142.336 200.501 142.492L200.891 142.609V143H191.751ZM209.378 143.586C208.102 143.586 206.956 143.43 205.941 143.117C204.925 142.831 203.988 142.466 203.128 142.023L203.167 137.375H203.558L204.886 139.719C205.459 140.761 206.084 141.542 206.761 142.063C207.464 142.557 208.349 142.805 209.417 142.805C210.667 142.805 211.669 142.531 212.425 141.984C213.206 141.412 213.596 140.656 213.596 139.719C213.596 138.86 213.323 138.157 212.776 137.61C212.229 137.063 211.214 136.568 209.73 136.125L208.089 135.618C206.501 135.149 205.251 134.42 204.339 133.43C203.428 132.441 202.972 131.23 202.972 129.798C202.972 128.079 203.649 126.621 205.003 125.423C206.357 124.225 208.297 123.626 210.823 123.626C211.839 123.626 212.789 123.743 213.675 123.978C214.586 124.186 215.458 124.512 216.292 124.954L216.057 129.173H215.667L214.3 126.751C213.805 125.892 213.31 125.293 212.815 124.954C212.347 124.59 211.63 124.407 210.667 124.407C209.782 124.407 208.948 124.655 208.167 125.15C207.386 125.644 206.995 126.347 206.995 127.259C206.995 128.144 207.321 128.847 207.972 129.368C208.649 129.889 209.638 130.371 210.94 130.813L212.698 131.321C214.573 131.894 215.914 132.688 216.721 133.704C217.528 134.693 217.932 135.891 217.932 137.297C217.932 139.198 217.177 140.721 215.667 141.867C214.182 143.013 212.086 143.586 209.378 143.586ZM229.437 123.626C231.13 123.626 232.575 123.978 233.773 124.681C234.971 125.358 235.882 126.295 236.507 127.493C237.158 128.665 237.483 130.006 237.483 131.516C237.483 131.803 237.47 132.102 237.444 132.415C237.418 132.701 237.366 132.962 237.288 133.196H225.648C225.674 136.008 226.169 138.039 227.133 139.289C228.122 140.513 229.58 141.125 231.507 141.125C232.809 141.125 233.864 140.917 234.671 140.5C235.478 140.084 236.234 139.472 236.937 138.664L237.327 139.016C236.52 140.448 235.439 141.568 234.085 142.375C232.757 143.182 231.156 143.586 229.281 143.586C227.432 143.586 225.791 143.195 224.359 142.414C222.927 141.607 221.807 140.461 221 138.977C220.193 137.493 219.789 135.722 219.789 133.665C219.789 131.529 220.258 129.72 221.195 128.235C222.133 126.725 223.331 125.579 224.789 124.798C226.273 124.017 227.823 123.626 229.437 123.626ZM229.32 124.407C228.565 124.407 227.914 124.642 227.367 125.111C226.846 125.553 226.429 126.36 226.117 127.532C225.831 128.678 225.674 130.305 225.648 132.415H232.328C232.588 129.576 232.484 127.532 232.015 126.282C231.546 125.032 230.648 124.407 229.32 124.407Z" fill="#202937"/>
<path d="M305.296 24.107C305.296 24.107 307.91 14.5387 305.925 8.56665" stroke="#BFA054" stroke-width="2.7038" stroke-linecap="round"/>
<path d="M310.403 29.0642C310.403 29.0642 324.989 22.3079 329.452 22.8779" stroke="#BFA054" stroke-width="2.7038" stroke-linecap="round"/>
<path d="M296.165 26.0125C296.165 26.0125 292.267 16.176 289.891 15.0299" stroke="#BFA054" stroke-width="2.7038" stroke-linecap="round"/>
</svg>
