<svg width="1199" height="189" viewBox="0 0 1199 189" fill="none" xmlns="http://www.w3.org/2000/svg">
<rect width="1199" height="189" rx="16" fill="#FCF9F0"/>
<rect x="42" y="34" width="180" height="121" rx="16" fill="#F7F0E0"/>
<g clip-path="url(#clip0_1_3258)">
<path d="M80.7927 90.3347H82.8474V130.014C82.8474 130.354 82.9836 130.68 83.226 130.921C83.4684 131.161 83.7972 131.296 84.1401 131.296H91.4337C91.7766 131.296 92.1054 131.161 92.3478 130.921C92.5902 130.68 92.7264 130.354 92.7264 130.014C92.7264 129.674 92.5902 129.348 92.3478 129.108C92.1054 128.868 91.7766 128.733 91.4337 128.733H85.4328V90.3347H174.631C174.974 90.3347 175.303 90.1997 175.545 89.9593C175.788 89.7189 175.924 89.3929 175.924 89.053C175.924 88.713 175.788 88.387 175.545 88.1466C175.303 87.9063 174.974 87.7712 174.631 87.7712H82.0854V83.1861H182.915V87.7712H180.86C180.517 87.7712 180.188 87.9063 179.946 88.1466C179.703 88.387 179.567 88.713 179.567 89.053V128.733H173.566C173.223 128.733 172.895 128.868 172.652 129.108C172.41 129.348 172.274 129.674 172.274 130.014C172.274 130.354 172.41 130.68 172.652 130.921C172.895 131.161 173.223 131.296 173.566 131.296H180.86C181.203 131.296 181.532 131.161 181.774 130.921C182.016 130.68 182.153 130.354 182.153 130.014V90.3347H184.207C184.55 90.3347 184.879 90.1997 185.121 89.9593C185.364 89.7189 185.5 89.3929 185.5 89.053V81.9043C185.5 81.5643 185.364 81.2383 185.121 80.998C184.879 80.7576 184.55 80.6225 184.207 80.6225H157.267C157.271 80.5584 157.276 80.4979 157.276 80.4341V68.4917C157.275 66.722 156.645 65.0092 155.499 63.653C154.742 62.7585 154.328 61.6287 154.327 60.4614V55.3072C154.338 54.2266 153.935 53.1822 153.2 52.3846C152.465 51.587 151.452 51.0958 150.365 51.0101C149.785 50.97 149.203 51.0496 148.656 51.2437C148.109 51.4378 147.608 51.7424 147.185 52.138C146.763 52.5321 146.426 53.0075 146.195 53.5353C145.965 54.063 145.845 54.6318 145.844 55.2069V60.4602C145.844 61.6276 145.429 62.7575 144.672 63.6521C143.525 65.0082 142.896 66.721 142.895 68.4907V80.4332C142.895 80.4972 142.9 80.5591 142.904 80.6216H100.938V80.4614C100.935 78.4803 100.219 76.5652 98.9198 75.0603C97.6204 73.5554 95.8224 72.5593 93.8488 72.2511V70.9113C93.8488 70.5714 93.7126 70.2453 93.4702 70.005C93.2277 69.7646 92.8989 69.6295 92.5561 69.6295C92.2133 69.6295 91.8845 69.7646 91.642 70.005C91.3996 70.2453 91.2634 70.5714 91.2634 70.9113V72.2511C89.2894 72.5592 87.491 73.5555 86.1915 75.0607C84.892 76.566 84.1766 78.4815 84.174 80.463V80.6232H80.7927C80.4498 80.6232 80.121 80.7582 79.8786 80.9986C79.6362 81.239 79.5 81.565 79.5 81.9049V89.0536C79.5002 89.3934 79.6364 89.7193 79.8788 89.9595C80.1213 90.1998 80.45 90.3347 80.7927 90.3347ZM145.481 80.4332V68.4917C145.482 67.3242 145.897 66.1941 146.654 65.2994C147.8 63.9434 148.43 62.2305 148.431 60.4608V55.2069C148.431 54.9912 148.474 54.7776 148.557 54.5783C148.64 54.3791 148.762 54.198 148.916 54.0455C149.07 53.8931 149.253 53.7721 149.454 53.6897C149.655 53.6072 149.87 53.5648 150.088 53.565C150.125 53.565 150.162 53.565 150.2 53.5685C150.629 53.6157 151.025 53.8201 151.311 54.1417C151.596 54.4633 151.75 54.8789 151.743 55.3072V60.4602C151.744 62.2299 152.374 63.9427 153.52 65.2988C154.277 66.1934 154.692 67.3233 154.692 68.4907V80.4332C154.692 80.4831 154.672 80.531 154.637 80.5663C154.601 80.6016 154.553 80.6215 154.502 80.6216H145.671C145.621 80.6215 145.573 80.6017 145.538 80.5666C145.502 80.5315 145.482 80.4839 145.481 80.4341V80.4332ZM86.7587 80.462C86.7587 78.9376 87.3695 77.4756 88.4566 76.3977C89.5437 75.3198 91.0181 74.7143 92.5555 74.7143C94.0928 74.7143 95.5673 75.3198 96.6543 76.3977C97.7414 77.4756 98.3522 78.9376 98.3522 80.462V80.6222H86.7587V80.462Z" fill="#D8B448"/>
<path d="M119.486 131.296H145.514C145.857 131.296 146.186 131.161 146.428 130.921C146.671 130.68 146.807 130.354 146.807 130.014C146.807 129.674 146.671 129.348 146.428 129.108C146.186 128.868 145.857 128.733 145.514 128.733H119.486C119.143 128.733 118.815 128.868 118.572 129.108C118.33 129.348 118.194 129.674 118.194 130.014C118.194 130.354 118.33 130.68 118.572 130.921C118.815 131.161 119.143 131.296 119.486 131.296Z" fill="#D8B448"/>
<path d="M113.365 97.5023H97.5549C96.181 97.5039 94.8638 98.0458 93.8922 99.0092C92.9207 99.9725 92.3742 101.279 92.3726 102.641V106.373C92.3726 106.713 92.5088 107.039 92.7512 107.28C92.9936 107.52 93.3224 107.655 93.6652 107.655H101.909V128.733H101.256C99.7658 128.734 98.3373 129.322 97.2835 130.367C96.2298 131.411 95.6369 132.828 95.635 134.305V135.718C95.635 136.058 95.7712 136.384 96.0136 136.625C96.256 136.865 96.5848 137 96.9276 137H113.991C114.334 137 114.663 136.865 114.905 136.625C115.148 136.384 115.284 136.058 115.284 135.718V134.305C115.282 132.828 114.689 131.412 113.636 130.367C112.582 129.322 111.154 128.735 109.664 128.733H109.011V107.655H117.255C117.598 107.655 117.926 107.52 118.169 107.28C118.411 107.039 118.547 106.713 118.547 106.373V102.641C118.546 101.279 117.999 99.9725 117.028 99.0092C116.056 98.0458 114.739 97.5039 113.365 97.5023ZM107.719 131.296H109.664C110.469 131.297 111.241 131.614 111.81 132.178C112.379 132.743 112.699 133.508 112.7 134.306V134.436H98.2216V134.305C98.2225 133.507 98.5424 132.743 99.1113 132.179C99.6801 131.614 100.451 131.297 101.256 131.296H103.201C103.544 131.296 103.873 131.161 104.115 130.921C104.358 130.68 104.494 130.354 104.494 130.014V107.655H106.426V130.014C106.426 130.183 106.459 130.349 106.524 130.505C106.589 130.66 106.685 130.802 106.805 130.921C106.925 131.04 107.067 131.134 107.224 131.199C107.381 131.263 107.549 131.296 107.719 131.296ZM115.962 105.093H94.9579V102.642C94.9587 101.959 95.2326 101.305 95.7194 100.822C96.2063 100.339 96.8664 100.068 97.5549 100.067H113.365C114.054 100.068 114.714 100.339 115.201 100.822C115.687 101.305 115.961 101.959 115.962 102.642V105.093Z" fill="#D8B448"/>
<path d="M169.365 135.718V134.305C169.363 132.828 168.77 131.411 167.717 130.367C166.663 129.322 165.234 128.734 163.744 128.733H163.091V107.655H171.335C171.678 107.655 172.006 107.52 172.249 107.28C172.491 107.039 172.628 106.713 172.628 106.373V102.641C172.626 101.279 172.08 99.9724 171.108 99.0091C170.136 98.0457 168.819 97.5038 167.445 97.5023H151.635C150.261 97.5038 148.944 98.0457 147.972 99.0091C147.001 99.9724 146.454 101.279 146.453 102.641V106.373C146.453 106.713 146.589 107.039 146.831 107.28C147.074 107.52 147.402 107.655 147.745 107.655H155.989V128.733H155.336C153.846 128.734 152.417 129.322 151.364 130.367C150.31 131.411 149.717 132.828 149.715 134.305V135.718C149.715 136.058 149.852 136.384 150.094 136.625C150.336 136.865 150.665 137 151.008 137H168.071C168.241 137 168.41 136.967 168.566 136.903C168.723 136.838 168.866 136.744 168.986 136.625C169.106 136.506 169.202 136.365 169.267 136.209C169.332 136.053 169.365 135.887 169.365 135.718ZM149.038 102.641C149.038 101.958 149.312 101.304 149.799 100.821C150.286 100.338 150.946 100.067 151.635 100.066H167.445C168.133 100.067 168.793 100.338 169.28 100.821C169.767 101.304 170.041 101.958 170.042 102.641V105.092H149.038L149.038 102.641ZM166.78 134.436H152.302V134.305C152.302 133.507 152.622 132.742 153.191 132.178C153.76 131.613 154.532 131.296 155.337 131.295H157.283C157.626 131.295 157.954 131.16 158.197 130.92C158.439 130.679 158.575 130.353 158.575 130.013V107.655H160.507V130.014C160.507 130.354 160.643 130.68 160.886 130.921C161.128 131.161 161.457 131.296 161.8 131.296H163.745C164.55 131.297 165.322 131.614 165.891 132.178C166.46 132.743 166.78 133.508 166.781 134.306L166.78 134.436Z" fill="#D8B448"/>
<path d="M166.096 75.2138V77.6623C166.096 78.0023 166.232 78.3283 166.475 78.5687C166.717 78.809 167.046 78.9441 167.389 78.9441C167.731 78.9441 168.06 78.809 168.303 78.5687C168.545 78.3283 168.681 78.0023 168.681 77.6623V75.2138C170.143 74.9165 171.457 74.1284 172.401 72.9824C173.345 71.8365 173.861 70.4029 173.863 68.9233V65.1421C173.863 64.8022 173.727 64.4761 173.484 64.2358C173.242 63.9954 172.913 63.8604 172.57 63.8604H162.207C161.864 63.8604 161.536 63.9954 161.293 64.2358C161.051 64.4761 160.915 64.8022 160.915 65.1421V68.9233C160.917 70.4028 161.433 71.8364 162.377 72.9824C163.321 74.1283 164.634 74.9164 166.096 75.2138ZM163.5 66.4242H171.278V68.9236C171.268 69.9402 170.854 70.912 170.126 71.6276C169.398 72.3432 168.414 72.7446 167.389 72.7446C166.363 72.7446 165.38 72.3432 164.651 71.6276C163.923 70.912 163.509 69.9402 163.5 68.9236V66.4242Z" fill="#D8B448"/>
</g>
<path d="M247.375 71V70.607L248.672 70.2141C249.144 70.0831 249.484 69.8342 249.694 69.4675C249.903 69.0745 250.008 68.616 250.008 68.0921V49.1907C249.72 48.562 249.484 48.0904 249.301 47.7761C249.144 47.4617 248.96 47.1997 248.751 46.9901C248.541 46.7544 248.253 46.4662 247.886 46.1256L247.218 45.4576V45.0646H254.174L267.22 62.8657V48.0511C267.22 47.5272 267.128 47.0556 266.945 46.6365C266.788 46.2173 266.447 45.9422 265.923 45.8113L264.626 45.4576V45.0646H270.246V45.4576L269.185 45.8113C268.713 45.9684 268.425 46.2435 268.32 46.6365C268.215 47.0294 268.163 47.4879 268.163 48.0118V71.1179H265.962L250.951 50.4875V68.0921C250.951 68.616 251.03 69.0614 251.187 69.4282C251.344 69.7949 251.672 70.0569 252.169 70.2141L253.348 70.607V71H247.375ZM281.056 51.5092C282.759 51.5092 284.212 51.8628 285.418 52.5702C286.623 53.2513 287.54 54.1944 288.168 55.3995C288.823 56.5784 289.151 57.9275 289.151 59.447C289.151 59.7351 289.138 60.0364 289.111 60.3508C289.085 60.639 289.033 60.9009 288.954 61.1367H277.244C277.27 63.966 277.768 66.0094 278.737 67.2669C279.733 68.4982 281.2 69.1138 283.138 69.1138C284.448 69.1138 285.509 68.9042 286.321 68.4851C287.134 68.0659 287.893 67.4503 288.601 66.6381L288.994 66.9918C288.181 68.4327 287.094 69.5591 285.732 70.3713C284.396 71.1834 282.785 71.5894 280.899 71.5894C279.039 71.5894 277.388 71.1965 275.947 70.4106C274.506 69.5984 273.38 68.4458 272.568 66.9525C271.756 65.4593 271.35 63.6778 271.35 61.6083C271.35 59.4601 271.821 57.6394 272.764 56.1461C273.707 54.6267 274.912 53.474 276.379 52.6881C277.873 51.9021 279.431 51.5092 281.056 51.5092ZM280.938 52.2951C280.178 52.2951 279.523 52.5309 278.973 53.0024C278.449 53.4478 278.03 54.2599 277.716 55.4388C277.427 56.5915 277.27 58.2288 277.244 60.3508H283.964C284.226 57.4953 284.121 55.4388 283.649 54.1813C283.178 52.9238 282.274 52.2951 280.938 52.2951ZM299.758 71.1179L292.802 54.4171C292.436 53.5264 291.807 52.9369 290.916 52.6488L290.366 52.4916V52.0986H300.544V52.4916L299.836 52.6488C298.815 52.9107 298.5 53.5919 298.893 54.6922L303.019 65.6557L306.87 54.7708C307.08 54.2468 307.132 53.8145 307.028 53.474C306.923 53.1334 306.608 52.8845 306.085 52.7274L305.102 52.4916V52.0986H310.8V52.4916L309.66 52.7667C309.163 52.8976 308.77 53.0941 308.482 53.3561C308.22 53.6181 307.997 54.011 307.814 54.535L302.037 71.1179H299.758ZM320.62 51.5092C322.323 51.5092 323.777 51.8628 324.982 52.5702C326.187 53.2513 327.104 54.1944 327.733 55.3995C328.388 56.5784 328.715 57.9275 328.715 59.447C328.715 59.7351 328.702 60.0364 328.676 60.3508C328.65 60.639 328.597 60.9009 328.519 61.1367H316.809C316.835 63.966 317.333 66.0094 318.302 67.2669C319.297 68.4982 320.764 69.1138 322.703 69.1138C324.013 69.1138 325.074 68.9042 325.886 68.4851C326.698 68.0659 327.458 67.4503 328.165 66.6381L328.558 66.9918C327.746 68.4327 326.659 69.5591 325.297 70.3713C323.961 71.1834 322.349 71.5894 320.463 71.5894C318.603 71.5894 316.953 71.1965 315.512 70.4106C314.071 69.5984 312.945 68.4458 312.132 66.9525C311.32 65.4593 310.914 63.6778 310.914 61.6083C310.914 59.4601 311.386 57.6394 312.329 56.1461C313.272 54.6267 314.477 53.474 315.944 52.6881C317.437 51.9021 318.996 51.5092 320.62 51.5092ZM320.502 52.2951C319.743 52.2951 319.088 52.5309 318.538 53.0024C318.014 53.4478 317.595 54.2599 317.28 55.4388C316.992 56.5915 316.835 58.2288 316.809 60.3508H323.528C323.79 57.4953 323.685 55.4388 323.214 54.1813C322.742 52.9238 321.839 52.2951 320.502 52.2951ZM330.674 71V70.607L331.263 70.4499C331.787 70.2927 332.141 70.0569 332.324 69.7425C332.534 69.4282 332.638 69.0221 332.638 68.5244V56.2247C332.638 55.6484 332.534 55.2292 332.324 54.9672C332.141 54.6791 331.787 54.4826 331.263 54.3778L330.674 54.2206V53.8276L337.433 51.5485L337.826 51.9414L338.179 55.3209V55.6353C338.546 54.9017 339.018 54.2337 339.594 53.6312C340.196 53.0024 340.851 52.4916 341.559 52.0986C342.292 51.7057 343.013 51.5092 343.72 51.5092C344.715 51.5092 345.475 51.7843 345.999 52.3344C346.523 52.8845 346.785 53.5788 346.785 54.4171C346.785 55.3078 346.523 56.002 345.999 56.4998C345.501 56.9713 344.899 57.2071 344.192 57.2071C343.091 57.2071 342.122 56.657 341.284 55.5567L341.205 55.4781C340.943 55.1113 340.642 54.9148 340.301 54.8886C339.961 54.8362 339.646 54.9934 339.358 55.3602C339.096 55.596 338.873 55.8841 338.69 56.2247C338.533 56.5391 338.376 56.9058 338.219 57.325V68.2886C338.219 69.3365 338.677 69.9914 339.594 70.2534L340.851 70.607V71H330.674ZM362.314 71.5894C360.795 71.5894 359.511 71.1572 358.463 70.2927C357.441 69.4282 356.93 68.1838 356.93 66.5596C356.93 65.3283 357.559 64.2018 358.817 63.1801C360.074 62.1322 362.052 61.3463 364.75 60.8223C365.17 60.7437 365.641 60.6652 366.165 60.5866C366.689 60.4818 367.239 60.377 367.815 60.2722V57.1678C367.815 55.3864 367.593 54.142 367.147 53.4347C366.728 52.7012 366.06 52.3344 365.143 52.3344C364.515 52.3344 364.017 52.544 363.65 52.9631C363.283 53.3561 363.048 54.0503 362.943 55.0458L362.864 55.4781C362.812 56.6046 362.537 57.4298 362.039 57.9537C361.541 58.4777 360.926 58.7396 360.192 58.7396C359.511 58.7396 358.948 58.5301 358.502 58.1109C358.057 57.6918 357.834 57.1285 357.834 56.4212C357.834 55.3471 358.201 54.4433 358.935 53.7098C359.694 52.9762 360.69 52.4261 361.921 52.0593C363.152 51.6926 364.488 51.5092 365.929 51.5092C368.261 51.5092 370.055 52.0855 371.313 53.2382C372.596 54.3647 373.238 56.2116 373.238 58.7789V67.4634C373.238 68.6422 373.788 69.2317 374.889 69.2317H375.753L376.107 69.546C375.609 70.1748 375.059 70.6594 374.456 71C373.88 71.3406 373.055 71.5108 371.981 71.5108C370.828 71.5108 369.911 71.2489 369.23 70.7249C368.575 70.1748 368.143 69.4544 367.933 68.5636C367.147 69.402 366.335 70.1224 365.497 70.7249C364.685 71.3013 363.624 71.5894 362.314 71.5894ZM364.711 69.1924C365.235 69.1924 365.72 69.0745 366.165 68.8387C366.637 68.5767 367.187 68.1838 367.815 67.6598V61.0581C367.553 61.1105 367.292 61.1629 367.03 61.2153C366.768 61.2677 366.466 61.3201 366.126 61.3725C364.921 61.6868 363.951 62.2239 363.218 62.9836C362.51 63.7171 362.157 64.7126 362.157 65.9701C362.157 67.0442 362.406 67.8563 362.903 68.4065C363.401 68.9304 364.004 69.1924 364.711 69.1924ZM376.839 71V70.607L377.389 70.4499C378.306 70.1879 378.764 69.546 378.764 68.5244V56.2247C378.764 55.6484 378.673 55.2292 378.489 54.9672C378.306 54.6791 377.952 54.4826 377.428 54.3778L376.839 54.2206V53.8276L383.558 51.5485L383.951 51.9414L384.266 54.2992C385.183 53.4871 386.217 52.819 387.37 52.2951C388.523 51.7712 389.662 51.5092 390.789 51.5092C392.518 51.5092 393.841 51.9807 394.758 52.9238C395.701 53.8669 396.172 55.3078 396.172 57.2464V68.5636C396.172 69.5853 396.67 70.2272 397.666 70.4892L398.019 70.607V71H388.745V70.607L389.256 70.4499C390.173 70.1617 390.632 69.5199 390.632 68.5244V55.9889C390.632 54.3123 389.793 53.474 388.117 53.474C386.964 53.474 385.707 54.0503 384.344 55.203V68.5636C384.344 69.5853 384.803 70.2272 385.72 70.4892L386.073 70.607V71H376.839ZM417.978 51.5092C419.681 51.5092 421.135 51.8628 422.34 52.5702C423.545 53.2513 424.462 54.1944 425.09 55.3995C425.745 56.5784 426.073 57.9275 426.073 59.447C426.073 59.7351 426.06 60.0364 426.033 60.3508C426.007 60.639 425.955 60.9009 425.876 61.1367H414.166C414.192 63.966 414.69 66.0094 415.659 67.2669C416.655 68.4982 418.122 69.1138 420.06 69.1138C421.37 69.1138 422.431 68.9042 423.243 68.4851C424.056 68.0659 424.815 67.4503 425.523 66.6381L425.916 66.9918C425.103 68.4327 424.016 69.5591 422.654 70.3713C421.318 71.1834 419.707 71.5894 417.821 71.5894C415.961 71.5894 414.31 71.1965 412.869 70.4106C411.428 69.5984 410.302 68.4458 409.49 66.9525C408.678 65.4593 408.272 63.6778 408.272 61.6083C408.272 59.4601 408.743 57.6394 409.686 56.1461C410.629 54.6267 411.834 53.474 413.301 52.6881C414.795 51.9021 416.353 51.5092 417.978 51.5092ZM417.86 52.2951C417.1 52.2951 416.445 52.5309 415.895 53.0024C415.371 53.4478 414.952 54.2599 414.638 55.4388C414.349 56.5915 414.192 58.2288 414.166 60.3508H420.886C421.148 57.4953 421.043 55.4388 420.571 54.1813C420.1 52.9238 419.196 52.2951 417.86 52.2951ZM428.031 71V70.607L428.581 70.4499C429.079 70.3189 429.42 70.0962 429.603 69.7818C429.812 69.4675 429.93 69.0483 429.957 68.5244V56.2247C429.957 55.6484 429.865 55.2292 429.681 54.9672C429.498 54.6791 429.144 54.4826 428.62 54.3778L428.031 54.2206V53.8276L434.751 51.5485L435.144 51.9414L435.458 54.6136C436.323 53.7491 437.305 53.0155 438.405 52.413C439.532 51.8105 440.697 51.5092 441.903 51.5092C443.16 51.5092 444.169 51.7712 444.928 52.2951C445.688 52.7929 446.264 53.5788 446.657 54.6529C447.679 53.6836 448.779 52.9238 449.958 52.3737C451.163 51.7974 452.329 51.5092 453.456 51.5092C455.316 51.5092 456.678 51.9545 457.542 52.8452C458.433 53.736 458.878 55.1375 458.878 57.0499V68.5636C458.878 69.5853 459.35 70.2272 460.293 70.4892L460.725 70.607V71H451.648V70.607L452.041 70.4892C452.539 70.332 452.879 70.0962 453.063 69.7818C453.272 69.4675 453.377 69.0483 453.377 68.5244V56.4998C453.377 55.3995 453.18 54.6529 452.788 54.2599C452.395 53.8407 451.766 53.6312 450.901 53.6312C450.22 53.6312 449.552 53.7884 448.897 54.1027C448.268 54.3909 447.6 54.8362 446.893 55.4388C447.024 55.8579 447.103 56.3164 447.129 56.8141C447.181 57.3119 447.208 57.8358 447.208 58.386V68.5636C447.234 69.5853 447.705 70.2272 448.622 70.4892L448.976 70.607V71H439.859V70.607L440.409 70.4499C440.907 70.2927 441.248 70.07 441.431 69.7818C441.641 69.4675 441.745 69.0483 441.745 68.5244V56.5391C441.745 55.4912 441.549 54.7446 441.156 54.2992C440.789 53.8538 440.147 53.6312 439.23 53.6312C438.628 53.6312 438.025 53.7884 437.423 54.1027C436.82 54.3909 436.192 54.8231 435.537 55.3995V68.5636C435.537 69.5853 435.995 70.2272 436.912 70.4892L437.266 70.607V71H428.031ZM461.686 80.0381V79.6451L462.157 79.4879C463.127 79.226 463.611 78.5972 463.611 77.6017V56.2247C463.611 55.6484 463.507 55.2161 463.297 54.9279C463.114 54.6398 462.76 54.4433 462.236 54.3385L461.686 54.2206V53.8276L468.366 51.5485L468.759 51.9414L469.113 53.1596C469.977 52.6357 470.934 52.2296 471.981 51.9414C473.056 51.6533 474.156 51.5092 475.282 51.5092C477.535 51.5092 479.317 52.3737 480.627 54.1027C481.963 55.8055 482.631 58.255 482.631 61.4511C482.631 64.5948 481.897 67.0704 480.43 68.878C478.989 70.6856 476.946 71.5894 474.3 71.5894C472.23 71.5894 470.488 71.2882 469.074 70.6856V77.4838C469.074 78.5317 469.545 79.1867 470.488 79.4486L471.235 79.6451V80.0381H461.686ZM472.414 70.4499C473.724 70.4499 474.758 69.7687 475.518 68.4065C476.304 67.0442 476.697 64.7781 476.697 61.6083C476.697 58.4384 476.33 56.2247 475.597 54.9672C474.863 53.6836 473.802 53.0417 472.414 53.0417C471.444 53.0417 470.37 53.3561 469.191 53.9848V69.8211C470.187 70.2403 471.261 70.4499 472.414 70.4499ZM491.717 71.5894C490.04 71.5894 488.73 71.1703 487.787 70.332C486.87 69.4937 486.412 68.1576 486.412 66.3238V52.8845H483.7V52.4916L484.643 52.3344C485.456 52.151 486.15 51.889 486.726 51.5485C487.329 51.2079 487.918 50.7495 488.494 50.1731L491.717 46.5972H492.11L491.992 52.0986H496.393V52.8845H491.952V67.0311C491.952 67.948 492.149 68.6422 492.542 69.1138C492.961 69.5853 493.485 69.8211 494.114 69.8211C494.664 69.8211 495.149 69.6901 495.568 69.4282C495.987 69.14 496.406 68.7601 496.825 68.2886L497.218 68.6815C496.694 69.5722 495.974 70.2796 495.057 70.8035C494.14 71.3275 493.027 71.5894 491.717 71.5894ZM502.18 80.431C501.132 80.431 500.293 80.1691 499.665 79.6451C499.062 79.1212 498.761 78.4531 498.761 77.641C498.761 76.9075 499.023 76.3181 499.547 75.8727C500.071 75.4273 500.66 75.2047 501.315 75.2047C501.97 75.2047 502.52 75.3357 502.965 75.5976C503.411 75.8858 503.804 76.2919 504.144 76.8158L504.419 77.1302C504.996 77.9161 505.572 77.903 506.148 77.0909C506.384 76.6979 506.646 76.174 506.934 75.519C507.249 74.8903 507.602 74.0389 507.995 72.9648L500.372 54.7315C500.189 54.2337 499.992 53.8407 499.782 53.5526C499.573 53.2382 499.232 52.9762 498.761 52.7667L498.053 52.4916V52.0986H507.838V52.4523L507.052 52.7667C506.476 52.95 506.175 53.2513 506.148 53.6705C506.148 54.0634 506.253 54.5612 506.463 55.1637L510.55 65.7736L514.44 55.0458C514.649 54.4433 514.728 53.9455 514.676 53.5526C514.623 53.1334 514.296 52.8452 513.693 52.6881L512.868 52.4916V52.0986H518.33V52.4916L517.466 52.7667C516.863 52.95 516.444 53.212 516.208 53.5526C515.972 53.8931 515.75 54.3647 515.54 54.9672L509.214 72.2182C508.192 74.9689 507.17 77.0254 506.148 78.3876C505.127 79.7499 503.804 80.431 502.18 80.431ZM536.992 71.1179L530.037 54.4171C529.67 53.5264 529.041 52.9369 528.151 52.6488L527.6 52.4916V52.0986H537.778V52.4916L537.071 52.6488C536.049 52.9107 535.735 53.5919 536.128 54.6922L540.254 65.6557L544.105 54.7708C544.314 54.2468 544.367 53.8145 544.262 53.474C544.157 53.1334 543.843 52.8845 543.319 52.7274L542.336 52.4916V52.0986H548.034V52.4916L546.895 52.7667C546.397 52.8976 546.004 53.0941 545.716 53.3561C545.454 53.6181 545.231 54.011 545.048 54.535L539.271 71.1179H536.992ZM557.855 51.5092C559.557 51.5092 561.011 51.8628 562.216 52.5702C563.422 53.2513 564.338 54.1944 564.967 55.3995C565.622 56.5784 565.95 57.9275 565.95 59.447C565.95 59.7351 565.936 60.0364 565.91 60.3508C565.884 60.639 565.832 60.9009 565.753 61.1367H554.043C554.069 63.966 554.567 66.0094 555.536 67.2669C556.532 68.4982 557.999 69.1138 559.937 69.1138C561.247 69.1138 562.308 68.9042 563.12 68.4851C563.932 68.0659 564.692 67.4503 565.399 66.6381L565.792 66.9918C564.98 68.4327 563.893 69.5591 562.531 70.3713C561.195 71.1834 559.584 71.5894 557.697 71.5894C555.837 71.5894 554.187 71.1965 552.746 70.4106C551.305 69.5984 550.179 68.4458 549.367 66.9525C548.555 65.4593 548.148 63.6778 548.148 61.6083C548.148 59.4601 548.62 57.6394 549.563 56.1461C550.506 54.6267 551.711 53.474 553.178 52.6881C554.672 51.9021 556.23 51.5092 557.855 51.5092ZM557.737 52.2951C556.977 52.2951 556.322 52.5309 555.772 53.0024C555.248 53.4478 554.829 54.2599 554.514 55.4388C554.226 56.5915 554.069 58.2288 554.043 60.3508H560.763C561.024 57.4953 560.92 55.4388 560.448 54.1813C559.977 52.9238 559.073 52.2951 557.737 52.2951ZM567.908 71V70.607L568.458 70.4499C569.375 70.1879 569.833 69.546 569.833 68.5244V56.2247C569.833 55.6484 569.742 55.2292 569.558 54.9672C569.375 54.6791 569.021 54.4826 568.497 54.3778L567.908 54.2206V53.8276L574.628 51.5485L575.021 51.9414L575.335 54.2992C576.252 53.4871 577.287 52.819 578.439 52.2951C579.592 51.7712 580.732 51.5092 581.858 51.5092C583.587 51.5092 584.91 51.9807 585.827 52.9238C586.77 53.8669 587.242 55.3078 587.242 57.2464V68.5636C587.242 69.5853 587.739 70.2272 588.735 70.4892L589.088 70.607V71H579.815V70.607L580.325 70.4499C581.242 70.1617 581.701 69.5199 581.701 68.5244V55.9889C581.701 54.3123 580.863 53.474 579.186 53.474C578.033 53.474 576.776 54.0503 575.413 55.203V68.5636C575.413 69.5853 575.872 70.2272 576.789 70.4892L577.142 70.607V71H567.908ZM597.547 71.5894C596.525 71.5894 595.582 71.393 594.717 71C593.879 70.607 593.211 69.9783 592.713 69.1138C592.242 68.2231 592.019 67.0573 592.045 65.6164L592.163 55.5174C592.163 54.9148 592.058 54.4826 591.849 54.2206C591.639 53.9586 591.312 53.7753 590.866 53.6705L590.395 53.5133V53.1203L597.429 51.745L597.822 52.1379L597.625 57.718V67.1883C597.625 68.0266 597.861 68.6422 598.333 69.0352C598.83 69.4282 599.446 69.6246 600.179 69.6246C600.913 69.6246 601.568 69.5199 602.144 69.3103C602.721 69.1007 603.297 68.7863 603.873 68.3672L604.03 55.5567C604.03 54.9541 603.939 54.535 603.755 54.2992C603.572 54.0372 603.231 53.8538 602.734 53.7491L602.341 53.6312V53.2382L609.218 51.745L609.611 52.1379L609.493 57.718V68.3672C609.493 68.9435 609.571 69.3889 609.728 69.7032C609.886 70.0176 610.226 70.2796 610.75 70.4892L611.143 70.607V71L604.266 71.393L603.913 69.0745C603.048 69.7818 602.105 70.3844 601.083 70.8821C600.088 71.3537 598.909 71.5894 597.547 71.5894ZM622.44 51.5092C624.143 51.5092 625.597 51.8628 626.802 52.5702C628.007 53.2513 628.924 54.1944 629.552 55.3995C630.207 56.5784 630.535 57.9275 630.535 59.447C630.535 59.7351 630.522 60.0364 630.495 60.3508C630.469 60.639 630.417 60.9009 630.338 61.1367H618.628C618.654 63.966 619.152 66.0094 620.121 67.2669C621.117 68.4982 622.584 69.1138 624.522 69.1138C625.832 69.1138 626.893 68.9042 627.705 68.4851C628.518 68.0659 629.277 67.4503 629.985 66.6381L630.378 66.9918C629.565 68.4327 628.478 69.5591 627.116 70.3713C625.78 71.1834 624.169 71.5894 622.283 71.5894C620.423 71.5894 618.772 71.1965 617.331 70.4106C615.89 69.5984 614.764 68.4458 613.952 66.9525C613.14 65.4593 612.734 63.6778 612.734 61.6083C612.734 59.4601 613.205 57.6394 614.148 56.1461C615.091 54.6267 616.296 53.474 617.764 52.6881C619.257 51.9021 620.816 51.5092 622.44 51.5092ZM622.322 52.2951C621.562 52.2951 620.907 52.5309 620.357 53.0024C619.833 53.4478 619.414 54.2599 619.1 55.4388C618.811 56.5915 618.654 58.2288 618.628 60.3508H625.348C625.61 57.4953 625.505 55.4388 625.033 54.1813C624.562 52.9238 623.658 52.2951 622.322 52.2951Z" fill="black"/>
<path d="M247.184 105V93.8H254V94.904H248.528V98.84H253.184V99.928H248.528V105H247.184ZM256.467 95.304C256.2 95.304 255.976 95.2187 255.795 95.048C255.624 94.8667 255.539 94.6427 255.539 94.376C255.539 94.12 255.624 93.9067 255.795 93.736C255.976 93.5653 256.2 93.48 256.467 93.48C256.723 93.48 256.942 93.5653 257.123 93.736C257.304 93.9067 257.395 94.12 257.395 94.376C257.395 94.6427 257.304 94.8667 257.123 95.048C256.942 95.2187 256.723 95.304 256.467 95.304ZM255.795 105V97.064H257.139V105H255.795ZM259.479 105V97.064H260.695L260.775 98.488C261.031 97.9867 261.399 97.592 261.879 97.304C262.359 97.016 262.903 96.872 263.511 96.872C264.45 96.872 265.196 97.16 265.751 97.736C266.316 98.3013 266.599 99.176 266.599 100.36V105H265.255V100.504C265.255 98.8507 264.572 98.024 263.207 98.024C262.524 98.024 261.954 98.2747 261.495 98.776C261.047 99.2667 260.823 99.9707 260.823 100.888V105H259.479ZM272.235 105.192C271.446 105.192 270.753 105.011 270.155 104.648C269.569 104.285 269.11 103.789 268.779 103.16C268.459 102.531 268.299 101.816 268.299 101.016C268.299 100.216 268.465 99.5067 268.795 98.888C269.126 98.2587 269.585 97.768 270.171 97.416C270.758 97.0533 271.451 96.872 272.251 96.872C272.902 96.872 273.478 97.0053 273.979 97.272C274.481 97.5387 274.87 97.912 275.147 98.392V93.48H276.491V105H275.275L275.147 103.688C274.891 104.072 274.523 104.419 274.043 104.728C273.563 105.037 272.961 105.192 272.235 105.192ZM272.379 104.024C272.913 104.024 273.382 103.901 273.787 103.656C274.203 103.4 274.523 103.048 274.747 102.6C274.982 102.152 275.099 101.629 275.099 101.032C275.099 100.435 274.982 99.912 274.747 99.464C274.523 99.016 274.203 98.6693 273.787 98.424C273.382 98.168 272.913 98.04 272.379 98.04C271.857 98.04 271.387 98.168 270.971 98.424C270.566 98.6693 270.246 99.016 270.011 99.464C269.787 99.912 269.675 100.435 269.675 101.032C269.675 101.629 269.787 102.152 270.011 102.6C270.246 103.048 270.566 103.4 270.971 103.656C271.387 103.901 271.857 104.024 272.379 104.024ZM286.533 105.192C285.786 105.192 285.114 105.021 284.517 104.68C283.919 104.339 283.445 103.859 283.093 103.24C282.751 102.611 282.581 101.875 282.581 101.032C282.581 100.189 282.757 99.4587 283.109 98.84C283.461 98.2107 283.935 97.7253 284.533 97.384C285.141 97.0427 285.818 96.872 286.565 96.872C287.311 96.872 287.983 97.0427 288.581 97.384C289.178 97.7253 289.647 98.2107 289.989 98.84C290.341 99.4587 290.517 100.189 290.517 101.032C290.517 101.875 290.341 102.611 289.989 103.24C289.637 103.859 289.157 104.339 288.549 104.68C287.951 105.021 287.279 105.192 286.533 105.192ZM286.533 104.04C286.991 104.04 287.418 103.928 287.813 103.704C288.207 103.48 288.527 103.144 288.773 102.696C289.018 102.248 289.141 101.693 289.141 101.032C289.141 100.371 289.018 99.816 288.773 99.368C288.538 98.92 288.223 98.584 287.829 98.36C287.434 98.136 287.013 98.024 286.565 98.024C286.106 98.024 285.679 98.136 285.285 98.36C284.89 98.584 284.57 98.92 284.325 99.368C284.079 99.816 283.957 100.371 283.957 101.032C283.957 101.693 284.079 102.248 284.325 102.696C284.57 103.144 284.885 103.48 285.269 103.704C285.663 103.928 286.085 104.04 286.533 104.04ZM295.281 105.192C294.343 105.192 293.596 104.909 293.041 104.344C292.487 103.768 292.209 102.888 292.209 101.704V97.064H293.553V101.56C293.553 103.213 294.231 104.04 295.585 104.04C296.279 104.04 296.849 103.795 297.297 103.304C297.756 102.803 297.985 102.093 297.985 101.176V97.064H299.329V105H298.113L298.017 103.576C297.772 104.077 297.404 104.472 296.913 104.76C296.433 105.048 295.889 105.192 295.281 105.192ZM304.678 105C303.952 105 303.382 104.824 302.966 104.472C302.55 104.12 302.342 103.485 302.342 102.568V98.2H300.965V97.064H302.342L302.518 95.16H303.686V97.064H306.022V98.2H303.686V102.568C303.686 103.069 303.787 103.411 303.99 103.592C304.192 103.763 304.55 103.848 305.062 103.848H305.894V105H304.678ZM311.963 105V93.48H313.307V98.424C313.574 97.9333 313.953 97.5547 314.443 97.288C314.934 97.0107 315.467 96.872 316.043 96.872C316.961 96.872 317.697 97.16 318.251 97.736C318.806 98.3013 319.083 99.176 319.083 100.36V105H317.755V100.504C317.755 98.8507 317.089 98.024 315.755 98.024C315.062 98.024 314.481 98.2747 314.011 98.776C313.542 99.2667 313.307 99.9707 313.307 100.888V105H311.963ZM324.736 105.192C323.989 105.192 323.317 105.021 322.72 104.68C322.122 104.339 321.648 103.859 321.296 103.24C320.954 102.611 320.784 101.875 320.784 101.032C320.784 100.189 320.96 99.4587 321.312 98.84C321.664 98.2107 322.138 97.7253 322.736 97.384C323.344 97.0427 324.021 96.872 324.768 96.872C325.514 96.872 326.186 97.0427 326.784 97.384C327.381 97.7253 327.85 98.2107 328.192 98.84C328.544 99.4587 328.72 100.189 328.72 101.032C328.72 101.875 328.544 102.611 328.192 103.24C327.84 103.859 327.36 104.339 326.752 104.68C326.154 105.021 325.482 105.192 324.736 105.192ZM324.736 104.04C325.194 104.04 325.621 103.928 326.016 103.704C326.41 103.48 326.73 103.144 326.976 102.696C327.221 102.248 327.344 101.693 327.344 101.032C327.344 100.371 327.221 99.816 326.976 99.368C326.741 98.92 326.426 98.584 326.032 98.36C325.637 98.136 325.216 98.024 324.768 98.024C324.309 98.024 323.882 98.136 323.488 98.36C323.093 98.584 322.773 98.92 322.528 99.368C322.282 99.816 322.16 100.371 322.16 101.032C322.16 101.693 322.282 102.248 322.528 102.696C322.773 103.144 323.088 103.48 323.472 103.704C323.866 103.928 324.288 104.04 324.736 104.04ZM331.892 105L329.572 97.064H330.916L332.596 103.288L334.452 97.064H335.972L337.844 103.288L339.508 97.064H340.868L338.548 105H337.172L335.22 98.456L333.268 105H331.892ZM350.204 105.192C349.458 105.192 348.786 105.021 348.188 104.68C347.591 104.339 347.116 103.859 346.764 103.24C346.423 102.611 346.252 101.875 346.252 101.032C346.252 100.189 346.428 99.4587 346.78 98.84C347.132 98.2107 347.607 97.7253 348.204 97.384C348.812 97.0427 349.49 96.872 350.236 96.872C350.983 96.872 351.655 97.0427 352.252 97.384C352.85 97.7253 353.319 98.2107 353.66 98.84C354.012 99.4587 354.188 100.189 354.188 101.032C354.188 101.875 354.012 102.611 353.66 103.24C353.308 103.859 352.828 104.339 352.22 104.68C351.623 105.021 350.951 105.192 350.204 105.192ZM350.204 104.04C350.663 104.04 351.09 103.928 351.484 103.704C351.879 103.48 352.199 103.144 352.444 102.696C352.69 102.248 352.812 101.693 352.812 101.032C352.812 100.371 352.69 99.816 352.444 99.368C352.21 98.92 351.895 98.584 351.5 98.36C351.106 98.136 350.684 98.024 350.236 98.024C349.778 98.024 349.351 98.136 348.956 98.36C348.562 98.584 348.242 98.92 347.996 99.368C347.751 99.816 347.628 100.371 347.628 101.032C347.628 101.693 347.751 102.248 347.996 102.696C348.242 103.144 348.556 103.48 348.94 103.704C349.335 103.928 349.756 104.04 350.204 104.04ZM358.953 105.192C358.014 105.192 357.268 104.909 356.713 104.344C356.158 103.768 355.881 102.888 355.881 101.704V97.064H357.225V101.56C357.225 103.213 357.902 104.04 359.257 104.04C359.95 104.04 360.521 103.795 360.969 103.304C361.428 102.803 361.657 102.093 361.657 101.176V97.064H363.001V105H361.785L361.689 103.576C361.444 104.077 361.076 104.472 360.585 104.76C360.105 105.048 359.561 105.192 358.953 105.192ZM365.213 105V97.064H366.429L366.541 98.584C366.787 98.0613 367.16 97.6453 367.661 97.336C368.163 97.0267 368.781 96.872 369.517 96.872V98.28H369.149C368.68 98.28 368.248 98.3653 367.853 98.536C367.459 98.696 367.144 98.9733 366.909 99.368C366.675 99.7627 366.557 100.307 366.557 101V105H365.213ZM375.34 105V93.8H378.78C380.754 93.8 382.204 94.3013 383.132 95.304C384.071 96.3067 384.54 97.6827 384.54 99.432C384.54 101.149 384.071 102.509 383.132 103.512C382.204 104.504 380.754 105 378.78 105H375.34ZM376.684 103.88H378.748C379.836 103.88 380.7 103.704 381.34 103.352C381.991 102.989 382.455 102.477 382.732 101.816C383.01 101.144 383.148 100.349 383.148 99.432C383.148 98.4933 383.01 97.688 382.732 97.016C382.455 96.344 381.991 95.8267 381.34 95.464C380.7 95.1013 379.836 94.92 378.748 94.92H376.684V103.88ZM387.265 108.52L389.233 104.232H388.769L385.617 97.064H387.073L389.697 103.24L392.481 97.064H393.873L388.673 108.52H387.265ZM395.292 105V97.064H396.508L396.588 98.488C396.844 97.9867 397.212 97.592 397.692 97.304C398.172 97.016 398.716 96.872 399.324 96.872C400.262 96.872 401.009 97.16 401.564 97.736C402.129 98.3013 402.411 99.176 402.411 100.36V105H401.068V100.504C401.068 98.8507 400.385 98.024 399.02 98.024C398.337 98.024 397.766 98.2747 397.308 98.776C396.86 99.2667 396.636 99.9707 396.636 100.888V105H395.292ZM407.088 105.192C406.426 105.192 405.877 105.08 405.44 104.856C405.002 104.632 404.677 104.333 404.464 103.96C404.25 103.587 404.144 103.181 404.144 102.744C404.144 101.933 404.453 101.309 405.072 100.872C405.69 100.435 406.533 100.216 407.6 100.216H409.744V100.12C409.744 99.4267 409.562 98.904 409.2 98.552C408.837 98.1893 408.352 98.008 407.744 98.008C407.221 98.008 406.768 98.1413 406.384 98.408C406.01 98.664 405.776 99.0427 405.68 99.544H404.304C404.357 98.968 404.549 98.4827 404.88 98.088C405.221 97.6933 405.642 97.3947 406.144 97.192C406.645 96.9787 407.178 96.872 407.744 96.872C408.853 96.872 409.685 97.1707 410.24 97.768C410.805 98.3547 411.088 99.1387 411.088 100.12V105H409.888L409.808 103.576C409.584 104.024 409.253 104.408 408.816 104.728C408.389 105.037 407.813 105.192 407.088 105.192ZM407.296 104.056C407.808 104.056 408.245 103.923 408.608 103.656C408.981 103.389 409.264 103.043 409.456 102.616C409.648 102.189 409.744 101.741 409.744 101.272V101.256H407.712C406.922 101.256 406.362 101.395 406.032 101.672C405.712 101.939 405.552 102.275 405.552 102.68C405.552 103.096 405.701 103.432 406 103.688C406.309 103.933 406.741 104.056 407.296 104.056ZM413.104 105V97.064H414.32L414.416 98.216C414.672 97.7893 415.013 97.4587 415.44 97.224C415.867 96.9893 416.347 96.872 416.88 96.872C417.509 96.872 418.048 97 418.496 97.256C418.955 97.512 419.307 97.9013 419.552 98.424C419.829 97.944 420.208 97.5653 420.688 97.288C421.179 97.0107 421.707 96.872 422.272 96.872C423.221 96.872 423.979 97.16 424.544 97.736C425.109 98.3013 425.392 99.176 425.392 100.36V105H424.064V100.504C424.064 99.6827 423.899 99.064 423.568 98.648C423.237 98.232 422.763 98.024 422.144 98.024C421.504 98.024 420.971 98.2747 420.544 98.776C420.128 99.2667 419.92 99.9707 419.92 100.888V105H418.576V100.504C418.576 99.6827 418.411 99.064 418.08 98.648C417.749 98.232 417.275 98.024 416.656 98.024C416.027 98.024 415.499 98.2747 415.072 98.776C414.656 99.2667 414.448 99.9707 414.448 100.888V105H413.104ZM428.233 95.304C427.966 95.304 427.742 95.2187 427.561 95.048C427.39 94.8667 427.305 94.6427 427.305 94.376C427.305 94.12 427.39 93.9067 427.561 93.736C427.742 93.5653 427.966 93.48 428.233 93.48C428.489 93.48 428.707 93.5653 428.889 93.736C429.07 93.9067 429.161 94.12 429.161 94.376C429.161 94.6427 429.07 94.8667 428.889 95.048C428.707 95.2187 428.489 95.304 428.233 95.304ZM427.561 105V97.064H428.905V105H427.561ZM434.893 105.192C434.135 105.192 433.453 105.021 432.845 104.68C432.247 104.328 431.773 103.843 431.421 103.224C431.079 102.595 430.909 101.864 430.909 101.032C430.909 100.2 431.079 99.4747 431.421 98.856C431.773 98.2267 432.247 97.7413 432.845 97.4C433.453 97.048 434.135 96.872 434.893 96.872C435.831 96.872 436.621 97.1173 437.261 97.608C437.911 98.0987 438.322 98.7547 438.493 99.576H437.117C437.01 99.0853 436.749 98.7067 436.333 98.44C435.917 98.1627 435.431 98.024 434.877 98.024C434.429 98.024 434.007 98.136 433.613 98.36C433.218 98.584 432.898 98.92 432.653 99.368C432.407 99.816 432.285 100.371 432.285 101.032C432.285 101.693 432.407 102.248 432.653 102.696C432.898 103.144 433.218 103.485 433.613 103.72C434.007 103.944 434.429 104.056 434.877 104.056C435.431 104.056 435.917 103.923 436.333 103.656C436.749 103.379 437.01 102.989 437.117 102.488H438.493C438.333 103.288 437.927 103.939 437.277 104.44C436.626 104.941 435.831 105.192 434.893 105.192ZM444.684 105V93.8H448.364C449.239 93.8 449.959 93.944 450.524 94.232C451.089 94.52 451.505 94.9093 451.772 95.4C452.049 95.8907 452.188 96.4453 452.188 97.064C452.188 97.672 452.055 98.2213 451.788 98.712C451.521 99.2027 451.105 99.5973 450.54 99.896C449.975 100.184 449.249 100.328 448.364 100.328H446.028V105H444.684ZM446.028 99.192H448.332C449.228 99.192 449.863 99.0053 450.236 98.632C450.62 98.248 450.812 97.7253 450.812 97.064C450.812 96.392 450.62 95.8693 450.236 95.496C449.863 95.112 449.228 94.92 448.332 94.92H446.028V99.192ZM453.87 105V97.064H455.086L455.198 98.584C455.443 98.0613 455.816 97.6453 456.318 97.336C456.819 97.0267 457.438 96.872 458.174 96.872V98.28H457.806C457.336 98.28 456.904 98.3653 456.51 98.536C456.115 98.696 455.8 98.9733 455.566 99.368C455.331 99.7627 455.214 100.307 455.214 101V105H453.87ZM460.498 95.304C460.231 95.304 460.007 95.2187 459.826 95.048C459.655 94.8667 459.57 94.6427 459.57 94.376C459.57 94.12 459.655 93.9067 459.826 93.736C460.007 93.5653 460.231 93.48 460.498 93.48C460.754 93.48 460.973 93.5653 461.154 93.736C461.335 93.9067 461.426 94.12 461.426 94.376C461.426 94.6427 461.335 94.8667 461.154 95.048C460.973 95.2187 460.754 95.304 460.498 95.304ZM459.826 105V97.064H461.17V105H459.826ZM467.158 105.192C466.401 105.192 465.718 105.021 465.11 104.68C464.513 104.328 464.038 103.843 463.686 103.224C463.345 102.595 463.174 101.864 463.174 101.032C463.174 100.2 463.345 99.4747 463.686 98.856C464.038 98.2267 464.513 97.7413 465.11 97.4C465.718 97.048 466.401 96.872 467.158 96.872C468.097 96.872 468.886 97.1173 469.526 97.608C470.177 98.0987 470.588 98.7547 470.758 99.576H469.382C469.276 99.0853 469.014 98.7067 468.598 98.44C468.182 98.1627 467.697 98.024 467.142 98.024C466.694 98.024 466.273 98.136 465.878 98.36C465.484 98.584 465.164 98.92 464.918 99.368C464.673 99.816 464.55 100.371 464.55 101.032C464.55 101.693 464.673 102.248 464.918 102.696C465.164 103.144 465.484 103.485 465.878 103.72C466.273 103.944 466.694 104.056 467.142 104.056C467.697 104.056 468.182 103.923 468.598 103.656C469.014 103.379 469.276 102.989 469.382 102.488H470.758C470.598 103.288 470.193 103.939 469.542 104.44C468.892 104.941 468.097 105.192 467.158 105.192ZM473.451 95.304C473.185 95.304 472.961 95.2187 472.779 95.048C472.609 94.8667 472.523 94.6427 472.523 94.376C472.523 94.12 472.609 93.9067 472.779 93.736C472.961 93.5653 473.185 93.48 473.451 93.48C473.707 93.48 473.926 93.5653 474.107 93.736C474.289 93.9067 474.379 94.12 474.379 94.376C474.379 94.6427 474.289 94.8667 474.107 95.048C473.926 95.2187 473.707 95.304 473.451 95.304ZM472.779 105V97.064H474.123V105H472.779ZM476.463 105V97.064H477.679L477.759 98.488C478.015 97.9867 478.383 97.592 478.863 97.304C479.343 97.016 479.887 96.872 480.495 96.872C481.434 96.872 482.181 97.16 482.735 97.736C483.301 98.3013 483.583 99.176 483.583 100.36V105H482.239V100.504C482.239 98.8507 481.557 98.024 480.191 98.024C479.509 98.024 478.938 98.2747 478.479 98.776C478.031 99.2667 477.807 99.9707 477.807 100.888V105H476.463ZM488.756 102.504C488.308 102.504 487.897 102.445 487.524 102.328L486.724 103.08C486.841 103.165 486.985 103.24 487.156 103.304C487.337 103.357 487.593 103.411 487.924 103.464C488.254 103.507 488.718 103.555 489.316 103.608C490.382 103.683 491.145 103.928 491.604 104.344C492.062 104.76 492.292 105.304 492.292 105.976C492.292 106.435 492.164 106.872 491.908 107.288C491.662 107.704 491.278 108.045 490.756 108.312C490.244 108.579 489.582 108.712 488.772 108.712C488.057 108.712 487.422 108.616 486.868 108.424C486.313 108.243 485.881 107.96 485.572 107.576C485.262 107.203 485.108 106.728 485.108 106.152C485.108 105.853 485.188 105.528 485.348 105.176C485.508 104.835 485.806 104.509 486.244 104.2C486.009 104.104 485.806 104.003 485.636 103.896C485.476 103.779 485.326 103.651 485.188 103.512V103.144L486.548 101.8C485.918 101.267 485.604 100.563 485.604 99.688C485.604 99.1653 485.726 98.6907 485.972 98.264C486.217 97.8373 486.574 97.5013 487.044 97.256C487.513 97 488.084 96.872 488.756 96.872C489.214 96.872 489.63 96.936 490.004 97.064H492.932V98.072L491.444 98.136C491.753 98.584 491.908 99.1013 491.908 99.688C491.908 100.211 491.78 100.685 491.524 101.112C491.278 101.539 490.921 101.88 490.452 102.136C489.993 102.381 489.428 102.504 488.756 102.504ZM488.756 101.4C489.321 101.4 489.769 101.256 490.1 100.968C490.441 100.669 490.612 100.243 490.612 99.688C490.612 99.144 490.441 98.728 490.1 98.44C489.769 98.1413 489.321 97.992 488.756 97.992C488.18 97.992 487.721 98.1413 487.38 98.44C487.049 98.728 486.884 99.144 486.884 99.688C486.884 100.243 487.049 100.669 487.38 100.968C487.721 101.256 488.18 101.4 488.756 101.4ZM486.42 106.024C486.42 106.557 486.644 106.952 487.092 107.208C487.54 107.475 488.1 107.608 488.772 107.608C489.433 107.608 489.961 107.464 490.356 107.176C490.761 106.888 490.964 106.504 490.964 106.024C490.964 105.683 490.825 105.384 490.548 105.128C490.27 104.883 489.758 104.739 489.012 104.696C488.425 104.653 487.918 104.6 487.492 104.536C487.054 104.771 486.766 105.021 486.628 105.288C486.489 105.565 486.42 105.811 486.42 106.024ZM498.762 105V93.8H500.33L504.362 101.608L508.362 93.8H509.946V105H508.602V96.2L504.858 103.4H503.85L500.106 96.216V105H498.762ZM514.869 105.192C514.208 105.192 513.658 105.08 513.221 104.856C512.784 104.632 512.458 104.333 512.245 103.96C512.032 103.587 511.925 103.181 511.925 102.744C511.925 101.933 512.234 101.309 512.853 100.872C513.472 100.435 514.314 100.216 515.381 100.216H517.525V100.12C517.525 99.4267 517.344 98.904 516.981 98.552C516.618 98.1893 516.133 98.008 515.525 98.008C515.002 98.008 514.549 98.1413 514.165 98.408C513.792 98.664 513.557 99.0427 513.461 99.544H512.085C512.138 98.968 512.33 98.4827 512.661 98.088C513.002 97.6933 513.424 97.3947 513.925 97.192C514.426 96.9787 514.96 96.872 515.525 96.872C516.634 96.872 517.466 97.1707 518.021 97.768C518.586 98.3547 518.869 99.1387 518.869 100.12V105H517.669L517.589 103.576C517.365 104.024 517.034 104.408 516.597 104.728C516.17 105.037 515.594 105.192 514.869 105.192ZM515.077 104.056C515.589 104.056 516.026 103.923 516.389 103.656C516.762 103.389 517.045 103.043 517.237 102.616C517.429 102.189 517.525 101.741 517.525 101.272V101.256H515.493C514.704 101.256 514.144 101.395 513.813 101.672C513.493 101.939 513.333 102.275 513.333 102.68C513.333 103.096 513.482 103.432 513.781 103.688C514.09 103.933 514.522 104.056 515.077 104.056ZM520.885 105V97.064H522.101L522.213 98.584C522.459 98.0613 522.832 97.6453 523.333 97.336C523.835 97.0267 524.453 96.872 525.189 96.872V98.28H524.821C524.352 98.28 523.92 98.3653 523.525 98.536C523.131 98.696 522.816 98.9733 522.581 99.368C522.347 99.7627 522.229 100.307 522.229 101V105H520.885ZM526.698 105V93.48H528.042V100.408L531.29 97.064H532.938L529.418 100.648L533.386 105H531.674L528.042 100.888V105H526.698ZM537.75 105.192C536.993 105.192 536.321 105.021 535.734 104.68C535.147 104.328 534.683 103.843 534.342 103.224C534.011 102.605 533.846 101.875 533.846 101.032C533.846 100.2 534.011 99.4747 534.342 98.856C534.673 98.2267 535.131 97.7413 535.718 97.4C536.315 97.048 537.003 96.872 537.782 96.872C538.55 96.872 539.211 97.048 539.766 97.4C540.331 97.7413 540.763 98.1947 541.062 98.76C541.361 99.3253 541.51 99.9333 541.51 100.584C541.51 100.701 541.505 100.819 541.494 100.936C541.494 101.053 541.494 101.187 541.494 101.336H535.174C535.206 101.944 535.345 102.451 535.59 102.856C535.846 103.251 536.161 103.549 536.534 103.752C536.918 103.955 537.323 104.056 537.75 104.056C538.305 104.056 538.769 103.928 539.142 103.672C539.515 103.416 539.787 103.069 539.958 102.632H541.286C541.073 103.368 540.662 103.981 540.054 104.472C539.457 104.952 538.689 105.192 537.75 105.192ZM537.75 98.008C537.11 98.008 536.539 98.2053 536.038 98.6C535.547 98.984 535.265 99.5493 535.19 100.296H540.182C540.15 99.5813 539.905 99.0213 539.446 98.616C538.987 98.2107 538.422 98.008 537.75 98.008ZM546.162 105C545.437 105 544.866 104.824 544.45 104.472C544.034 104.12 543.826 103.485 543.826 102.568V98.2H542.45V97.064H543.826L544.002 95.16H545.17V97.064H547.506V98.2H545.17V102.568C545.17 103.069 545.271 103.411 545.474 103.592C545.677 103.763 546.034 103.848 546.546 103.848H547.378V105H546.162ZM549.213 108.52V97.064H550.429L550.557 98.376C550.813 97.992 551.176 97.6453 551.645 97.336C552.125 97.0267 552.733 96.872 553.469 96.872C554.259 96.872 554.947 97.0533 555.533 97.416C556.12 97.7787 556.573 98.2747 556.893 98.904C557.224 99.5333 557.389 100.248 557.389 101.048C557.389 101.848 557.224 102.563 556.893 103.192C556.573 103.811 556.115 104.301 555.517 104.664C554.931 105.016 554.243 105.192 553.453 105.192C552.803 105.192 552.221 105.059 551.709 104.792C551.208 104.525 550.824 104.152 550.557 103.672V108.52H549.213ZM553.309 104.024C553.843 104.024 554.312 103.901 554.717 103.656C555.123 103.4 555.443 103.048 555.677 102.6C555.912 102.152 556.029 101.629 556.029 101.032C556.029 100.435 555.912 99.912 555.677 99.464C555.443 99.016 555.123 98.6693 554.717 98.424C554.312 98.168 553.843 98.04 553.309 98.04C552.776 98.04 552.307 98.168 551.901 98.424C551.496 98.6693 551.176 99.016 550.941 99.464C550.707 99.912 550.589 100.435 550.589 101.032C550.589 101.629 550.707 102.152 550.941 102.6C551.176 103.048 551.496 103.4 551.901 103.656C552.307 103.901 552.776 104.024 553.309 104.024ZM559.26 105V93.48H560.604V105H559.26ZM565.447 105.192C564.786 105.192 564.236 105.08 563.799 104.856C563.362 104.632 563.036 104.333 562.823 103.96C562.61 103.587 562.503 103.181 562.503 102.744C562.503 101.933 562.812 101.309 563.431 100.872C564.05 100.435 564.892 100.216 565.959 100.216H568.103V100.12C568.103 99.4267 567.922 98.904 567.559 98.552C567.196 98.1893 566.711 98.008 566.103 98.008C565.58 98.008 565.127 98.1413 564.743 98.408C564.37 98.664 564.135 99.0427 564.039 99.544H562.663C562.716 98.968 562.908 98.4827 563.239 98.088C563.58 97.6933 564.002 97.3947 564.503 97.192C565.004 96.9787 565.538 96.872 566.103 96.872C567.212 96.872 568.044 97.1707 568.599 97.768C569.164 98.3547 569.447 99.1387 569.447 100.12V105H568.247L568.167 103.576C567.943 104.024 567.612 104.408 567.175 104.728C566.748 105.037 566.172 105.192 565.447 105.192ZM565.655 104.056C566.167 104.056 566.604 103.923 566.967 103.656C567.34 103.389 567.623 103.043 567.815 102.616C568.007 102.189 568.103 101.741 568.103 101.272V101.256H566.071C565.282 101.256 564.722 101.395 564.391 101.672C564.071 101.939 563.911 102.275 563.911 102.68C563.911 103.096 564.06 103.432 564.359 103.688C564.668 103.933 565.1 104.056 565.655 104.056ZM575.111 105.192C574.354 105.192 573.671 105.021 573.063 104.68C572.466 104.328 571.991 103.843 571.639 103.224C571.298 102.595 571.127 101.864 571.127 101.032C571.127 100.2 571.298 99.4747 571.639 98.856C571.991 98.2267 572.466 97.7413 573.063 97.4C573.671 97.048 574.354 96.872 575.111 96.872C576.05 96.872 576.839 97.1173 577.479 97.608C578.13 98.0987 578.541 98.7547 578.711 99.576H577.335C577.229 99.0853 576.967 98.7067 576.551 98.44C576.135 98.1627 575.65 98.024 575.095 98.024C574.647 98.024 574.226 98.136 573.831 98.36C573.437 98.584 573.117 98.92 572.871 99.368C572.626 99.816 572.503 100.371 572.503 101.032C572.503 101.693 572.626 102.248 572.871 102.696C573.117 103.144 573.437 103.485 573.831 103.72C574.226 103.944 574.647 104.056 575.095 104.056C575.65 104.056 576.135 103.923 576.551 103.656C576.967 103.379 577.229 102.989 577.335 102.488H578.711C578.551 103.288 578.146 103.939 577.495 104.44C576.845 104.941 576.05 105.192 575.111 105.192ZM584.156 105.192C583.399 105.192 582.727 105.021 582.14 104.68C581.554 104.328 581.09 103.843 580.748 103.224C580.418 102.605 580.252 101.875 580.252 101.032C580.252 100.2 580.418 99.4747 580.748 98.856C581.079 98.2267 581.538 97.7413 582.124 97.4C582.722 97.048 583.41 96.872 584.188 96.872C584.956 96.872 585.618 97.048 586.172 97.4C586.738 97.7413 587.17 98.1947 587.468 98.76C587.767 99.3253 587.916 99.9333 587.916 100.584C587.916 100.701 587.911 100.819 587.9 100.936C587.9 101.053 587.9 101.187 587.9 101.336H581.58C581.612 101.944 581.751 102.451 581.996 102.856C582.252 103.251 582.567 103.549 582.94 103.752C583.324 103.955 583.73 104.056 584.156 104.056C584.711 104.056 585.175 103.928 585.548 103.672C585.922 103.416 586.194 103.069 586.364 102.632H587.692C587.479 103.368 587.068 103.981 586.46 104.472C585.863 104.952 585.095 105.192 584.156 105.192ZM584.156 98.008C583.516 98.008 582.946 98.2053 582.444 98.6C581.954 98.984 581.671 99.5493 581.596 100.296H586.588C586.556 99.5813 586.311 99.0213 585.852 98.616C585.394 98.2107 584.828 98.008 584.156 98.008ZM250.752 127.192C249.995 127.192 249.312 127.021 248.704 126.68C248.107 126.328 247.632 125.843 247.28 125.224C246.939 124.595 246.768 123.864 246.768 123.032C246.768 122.2 246.939 121.475 247.28 120.856C247.632 120.227 248.107 119.741 248.704 119.4C249.312 119.048 249.995 118.872 250.752 118.872C251.691 118.872 252.48 119.117 253.12 119.608C253.771 120.099 254.181 120.755 254.352 121.576H252.976C252.869 121.085 252.608 120.707 252.192 120.44C251.776 120.163 251.291 120.024 250.736 120.024C250.288 120.024 249.867 120.136 249.472 120.36C249.077 120.584 248.757 120.92 248.512 121.368C248.267 121.816 248.144 122.371 248.144 123.032C248.144 123.693 248.267 124.248 248.512 124.696C248.757 125.144 249.077 125.485 249.472 125.72C249.867 125.944 250.288 126.056 250.736 126.056C251.291 126.056 251.776 125.923 252.192 125.656C252.608 125.379 252.869 124.989 252.976 124.488H254.352C254.192 125.288 253.787 125.939 253.136 126.44C252.485 126.941 251.691 127.192 250.752 127.192ZM258.869 127.192C258.208 127.192 257.658 127.08 257.221 126.856C256.784 126.632 256.458 126.333 256.245 125.96C256.032 125.587 255.925 125.181 255.925 124.744C255.925 123.933 256.234 123.309 256.853 122.872C257.472 122.435 258.314 122.216 259.381 122.216H261.525V122.12C261.525 121.427 261.344 120.904 260.981 120.552C260.618 120.189 260.133 120.008 259.525 120.008C259.002 120.008 258.549 120.141 258.165 120.408C257.792 120.664 257.557 121.043 257.461 121.544H256.085C256.138 120.968 256.33 120.483 256.661 120.088C257.002 119.693 257.424 119.395 257.925 119.192C258.426 118.979 258.96 118.872 259.525 118.872C260.634 118.872 261.466 119.171 262.021 119.768C262.586 120.355 262.869 121.139 262.869 122.12V127H261.669L261.589 125.576C261.365 126.024 261.034 126.408 260.597 126.728C260.17 127.037 259.594 127.192 258.869 127.192ZM259.077 126.056C259.589 126.056 260.026 125.923 260.389 125.656C260.762 125.389 261.045 125.043 261.237 124.616C261.429 124.189 261.525 123.741 261.525 123.272V123.256H259.493C258.704 123.256 258.144 123.395 257.813 123.672C257.493 123.939 257.333 124.275 257.333 124.68C257.333 125.096 257.482 125.432 257.781 125.688C258.09 125.933 258.522 126.056 259.077 126.056ZM264.885 127V119.064H266.101L266.181 120.488C266.437 119.987 266.805 119.592 267.285 119.304C267.765 119.016 268.309 118.872 268.917 118.872C269.856 118.872 270.603 119.16 271.157 119.736C271.723 120.301 272.005 121.176 272.005 122.36V127H270.661V122.504C270.661 120.851 269.979 120.024 268.613 120.024C267.931 120.024 267.36 120.275 266.901 120.776C266.453 121.267 266.229 121.971 266.229 122.888V127H264.885ZM278.276 127V115.48H279.62V120.424C279.887 119.933 280.265 119.555 280.756 119.288C281.247 119.011 281.78 118.872 282.356 118.872C283.273 118.872 284.009 119.16 284.564 119.736C285.119 120.301 285.396 121.176 285.396 122.36V127H284.068V122.504C284.068 120.851 283.401 120.024 282.068 120.024C281.375 120.024 280.793 120.275 280.324 120.776C279.855 121.267 279.62 121.971 279.62 122.888V127H278.276ZM291 127.192C290.243 127.192 289.571 127.021 288.984 126.68C288.397 126.328 287.933 125.843 287.592 125.224C287.261 124.605 287.096 123.875 287.096 123.032C287.096 122.2 287.261 121.475 287.592 120.856C287.923 120.227 288.381 119.741 288.968 119.4C289.565 119.048 290.253 118.872 291.032 118.872C291.8 118.872 292.461 119.048 293.016 119.4C293.581 119.741 294.013 120.195 294.312 120.76C294.611 121.325 294.76 121.933 294.76 122.584C294.76 122.701 294.755 122.819 294.744 122.936C294.744 123.053 294.744 123.187 294.744 123.336H288.424C288.456 123.944 288.595 124.451 288.84 124.856C289.096 125.251 289.411 125.549 289.784 125.752C290.168 125.955 290.573 126.056 291 126.056C291.555 126.056 292.019 125.928 292.392 125.672C292.765 125.416 293.037 125.069 293.208 124.632H294.536C294.323 125.368 293.912 125.981 293.304 126.472C292.707 126.952 291.939 127.192 291 127.192ZM291 120.008C290.36 120.008 289.789 120.205 289.288 120.6C288.797 120.984 288.515 121.549 288.44 122.296H293.432C293.4 121.581 293.155 121.021 292.696 120.616C292.237 120.211 291.672 120.008 291 120.008ZM296.542 127V115.48H297.886V127H296.542ZM300.088 130.52V119.064H301.304L301.432 120.376C301.688 119.992 302.051 119.645 302.52 119.336C303 119.027 303.608 118.872 304.344 118.872C305.134 118.872 305.822 119.053 306.408 119.416C306.995 119.779 307.448 120.275 307.768 120.904C308.099 121.533 308.264 122.248 308.264 123.048C308.264 123.848 308.099 124.563 307.768 125.192C307.448 125.811 306.99 126.301 306.392 126.664C305.806 127.016 305.118 127.192 304.328 127.192C303.678 127.192 303.096 127.059 302.584 126.792C302.083 126.525 301.699 126.152 301.432 125.672V130.52H300.088ZM304.184 126.024C304.718 126.024 305.187 125.901 305.592 125.656C305.998 125.4 306.318 125.048 306.552 124.6C306.787 124.152 306.904 123.629 306.904 123.032C306.904 122.435 306.787 121.912 306.552 121.464C306.318 121.016 305.998 120.669 305.592 120.424C305.187 120.168 304.718 120.04 304.184 120.04C303.651 120.04 303.182 120.168 302.776 120.424C302.371 120.669 302.051 121.016 301.816 121.464C301.582 121.912 301.464 122.435 301.464 123.032C301.464 123.629 301.582 124.152 301.816 124.6C302.051 125.048 302.371 125.4 302.776 125.656C303.182 125.901 303.651 126.024 304.184 126.024ZM315.186 117.304C314.919 117.304 314.695 117.219 314.514 117.048C314.343 116.867 314.258 116.643 314.258 116.376C314.258 116.12 314.343 115.907 314.514 115.736C314.695 115.565 314.919 115.48 315.186 115.48C315.442 115.48 315.66 115.565 315.842 115.736C316.023 115.907 316.114 116.12 316.114 116.376C316.114 116.643 316.023 116.867 315.842 117.048C315.66 117.219 315.442 117.304 315.186 117.304ZM314.514 127V119.064H315.858V127H314.514ZM318.198 127V119.064H319.414L319.494 120.488C319.75 119.987 320.118 119.592 320.598 119.304C321.078 119.016 321.622 118.872 322.23 118.872C323.168 118.872 323.915 119.16 324.47 119.736C325.035 120.301 325.318 121.176 325.318 122.36V127H323.974V122.504C323.974 120.851 323.291 120.024 321.926 120.024C321.243 120.024 320.672 120.275 320.214 120.776C319.766 121.267 319.542 121.971 319.542 122.888V127H318.198ZM331.002 127.192C330.245 127.192 329.562 127.021 328.954 126.68C328.357 126.328 327.882 125.843 327.53 125.224C327.189 124.595 327.018 123.864 327.018 123.032C327.018 122.2 327.189 121.475 327.53 120.856C327.882 120.227 328.357 119.741 328.954 119.4C329.562 119.048 330.245 118.872 331.002 118.872C331.941 118.872 332.73 119.117 333.37 119.608C334.021 120.099 334.431 120.755 334.602 121.576H333.226C333.119 121.085 332.858 120.707 332.442 120.44C332.026 120.163 331.541 120.024 330.986 120.024C330.538 120.024 330.117 120.136 329.722 120.36C329.327 120.584 329.007 120.92 328.762 121.368C328.517 121.816 328.394 122.371 328.394 123.032C328.394 123.693 328.517 124.248 328.762 124.696C329.007 125.144 329.327 125.485 329.722 125.72C330.117 125.944 330.538 126.056 330.986 126.056C331.541 126.056 332.026 125.923 332.442 125.656C332.858 125.379 333.119 124.989 333.226 124.488H334.602C334.442 125.288 334.037 125.939 333.386 126.44C332.735 126.941 331.941 127.192 331.002 127.192ZM336.479 127V119.064H337.695L337.807 120.584C338.052 120.061 338.426 119.645 338.927 119.336C339.428 119.027 340.047 118.872 340.783 118.872V120.28H340.415C339.946 120.28 339.514 120.365 339.119 120.536C338.724 120.696 338.41 120.973 338.175 121.368C337.94 121.763 337.823 122.307 337.823 123V127H336.479ZM345.563 127.192C344.805 127.192 344.133 127.021 343.547 126.68C342.96 126.328 342.496 125.843 342.155 125.224C341.824 124.605 341.659 123.875 341.659 123.032C341.659 122.2 341.824 121.475 342.155 120.856C342.485 120.227 342.944 119.741 343.531 119.4C344.128 119.048 344.816 118.872 345.595 118.872C346.363 118.872 347.024 119.048 347.579 119.4C348.144 119.741 348.576 120.195 348.875 120.76C349.173 121.325 349.323 121.933 349.323 122.584C349.323 122.701 349.317 122.819 349.307 122.936C349.307 123.053 349.307 123.187 349.307 123.336H342.987C343.019 123.944 343.157 124.451 343.403 124.856C343.659 125.251 343.973 125.549 344.347 125.752C344.731 125.955 345.136 126.056 345.563 126.056C346.117 126.056 346.581 125.928 346.955 125.672C347.328 125.416 347.6 125.069 347.771 124.632H349.099C348.885 125.368 348.475 125.981 347.867 126.472C347.269 126.952 346.501 127.192 345.563 127.192ZM345.563 120.008C344.923 120.008 344.352 120.205 343.851 120.6C343.36 120.984 343.077 121.549 343.003 122.296H347.995C347.963 121.581 347.717 121.021 347.259 120.616C346.8 120.211 346.235 120.008 345.563 120.008ZM353.744 127.192C353.083 127.192 352.533 127.08 352.096 126.856C351.659 126.632 351.333 126.333 351.12 125.96C350.907 125.587 350.8 125.181 350.8 124.744C350.8 123.933 351.109 123.309 351.728 122.872C352.347 122.435 353.189 122.216 354.256 122.216H356.4V122.12C356.4 121.427 356.219 120.904 355.856 120.552C355.493 120.189 355.008 120.008 354.4 120.008C353.877 120.008 353.424 120.141 353.04 120.408C352.667 120.664 352.432 121.043 352.336 121.544H350.96C351.013 120.968 351.205 120.483 351.536 120.088C351.877 119.693 352.299 119.395 352.8 119.192C353.301 118.979 353.835 118.872 354.4 118.872C355.509 118.872 356.341 119.171 356.896 119.768C357.461 120.355 357.744 121.139 357.744 122.12V127H356.544L356.464 125.576C356.24 126.024 355.909 126.408 355.472 126.728C355.045 127.037 354.469 127.192 353.744 127.192ZM353.952 126.056C354.464 126.056 354.901 125.923 355.264 125.656C355.637 125.389 355.92 125.043 356.112 124.616C356.304 124.189 356.4 123.741 356.4 123.272V123.256H354.368C353.579 123.256 353.019 123.395 352.688 123.672C352.368 123.939 352.208 124.275 352.208 124.68C352.208 125.096 352.357 125.432 352.656 125.688C352.965 125.933 353.397 126.056 353.952 126.056ZM362.8 127.192C361.851 127.192 361.062 126.952 360.432 126.472C359.803 125.992 359.435 125.341 359.328 124.52H360.704C360.79 124.936 361.008 125.299 361.36 125.608C361.723 125.907 362.208 126.056 362.816 126.056C363.382 126.056 363.798 125.939 364.064 125.704C364.331 125.459 364.464 125.171 364.464 124.84C364.464 124.36 364.288 124.04 363.936 123.88C363.595 123.72 363.11 123.576 362.48 123.448C362.054 123.363 361.627 123.24 361.2 123.08C360.774 122.92 360.416 122.696 360.128 122.408C359.84 122.109 359.696 121.72 359.696 121.24C359.696 120.547 359.952 119.981 360.464 119.544C360.987 119.096 361.691 118.872 362.576 118.872C363.419 118.872 364.107 119.085 364.64 119.512C365.184 119.928 365.499 120.525 365.584 121.304H364.256C364.203 120.899 364.027 120.584 363.728 120.36C363.44 120.125 363.051 120.008 362.56 120.008C362.08 120.008 361.707 120.109 361.44 120.312C361.184 120.515 361.056 120.781 361.056 121.112C361.056 121.432 361.222 121.683 361.552 121.864C361.894 122.045 362.352 122.2 362.928 122.328C363.419 122.435 363.883 122.568 364.32 122.728C364.768 122.877 365.131 123.107 365.408 123.416C365.696 123.715 365.84 124.152 365.84 124.728C365.851 125.443 365.579 126.035 365.024 126.504C364.48 126.963 363.739 127.192 362.8 127.192ZM371.328 127.192C370.571 127.192 369.899 127.021 369.312 126.68C368.726 126.328 368.262 125.843 367.92 125.224C367.59 124.605 367.424 123.875 367.424 123.032C367.424 122.2 367.59 121.475 367.92 120.856C368.251 120.227 368.71 119.741 369.296 119.4C369.894 119.048 370.582 118.872 371.36 118.872C372.128 118.872 372.79 119.048 373.344 119.4C373.91 119.741 374.342 120.195 374.64 120.76C374.939 121.325 375.088 121.933 375.088 122.584C375.088 122.701 375.083 122.819 375.072 122.936C375.072 123.053 375.072 123.187 375.072 123.336H368.752C368.784 123.944 368.923 124.451 369.168 124.856C369.424 125.251 369.739 125.549 370.112 125.752C370.496 125.955 370.902 126.056 371.328 126.056C371.883 126.056 372.347 125.928 372.72 125.672C373.094 125.416 373.366 125.069 373.536 124.632H374.864C374.651 125.368 374.24 125.981 373.632 126.472C373.035 126.952 372.267 127.192 371.328 127.192ZM371.328 120.008C370.688 120.008 370.118 120.205 369.616 120.6C369.126 120.984 368.843 121.549 368.768 122.296H373.76C373.728 121.581 373.483 121.021 373.024 120.616C372.566 120.211 372 120.008 371.328 120.008ZM381.968 130.52L383.936 126.232H383.472L380.32 119.064H381.776L384.4 125.24L387.184 119.064H388.576L383.376 130.52H381.968ZM392.861 127.192C392.114 127.192 391.442 127.021 390.845 126.68C390.247 126.339 389.773 125.859 389.421 125.24C389.079 124.611 388.909 123.875 388.909 123.032C388.909 122.189 389.085 121.459 389.437 120.84C389.789 120.211 390.263 119.725 390.861 119.384C391.469 119.043 392.146 118.872 392.893 118.872C393.639 118.872 394.311 119.043 394.909 119.384C395.506 119.725 395.975 120.211 396.317 120.84C396.669 121.459 396.845 122.189 396.845 123.032C396.845 123.875 396.669 124.611 396.317 125.24C395.965 125.859 395.485 126.339 394.877 126.68C394.279 127.021 393.607 127.192 392.861 127.192ZM392.861 126.04C393.319 126.04 393.746 125.928 394.141 125.704C394.535 125.48 394.855 125.144 395.101 124.696C395.346 124.248 395.469 123.693 395.469 123.032C395.469 122.371 395.346 121.816 395.101 121.368C394.866 120.92 394.551 120.584 394.157 120.36C393.762 120.136 393.341 120.024 392.893 120.024C392.434 120.024 392.007 120.136 391.613 120.36C391.218 120.584 390.898 120.92 390.653 121.368C390.407 121.816 390.285 122.371 390.285 123.032C390.285 123.693 390.407 124.248 390.653 124.696C390.898 125.144 391.213 125.48 391.597 125.704C391.991 125.928 392.413 126.04 392.861 126.04ZM401.609 127.192C400.671 127.192 399.924 126.909 399.369 126.344C398.815 125.768 398.537 124.888 398.537 123.704V119.064H399.881V123.56C399.881 125.213 400.559 126.04 401.913 126.04C402.607 126.04 403.177 125.795 403.625 125.304C404.084 124.803 404.313 124.093 404.313 123.176V119.064H405.657V127H404.441L404.345 125.576C404.1 126.077 403.732 126.472 403.241 126.76C402.761 127.048 402.217 127.192 401.609 127.192ZM407.87 127V119.064H409.086L409.198 120.584C409.443 120.061 409.816 119.645 410.318 119.336C410.819 119.027 411.438 118.872 412.174 118.872V120.28H411.806C411.336 120.28 410.904 120.365 410.51 120.536C410.115 120.696 409.8 120.973 409.566 121.368C409.331 121.763 409.214 122.307 409.214 123V127H407.87ZM421.516 127.192C420.727 127.192 420.034 127.011 419.437 126.648C418.85 126.285 418.391 125.789 418.061 125.16C417.741 124.531 417.581 123.816 417.581 123.016C417.581 122.216 417.746 121.507 418.077 120.888C418.407 120.259 418.866 119.768 419.453 119.416C420.039 119.053 420.733 118.872 421.533 118.872C422.183 118.872 422.759 119.005 423.261 119.272C423.762 119.539 424.151 119.912 424.429 120.392V115.48H425.773V127H424.557L424.429 125.688C424.173 126.072 423.805 126.419 423.325 126.728C422.845 127.037 422.242 127.192 421.516 127.192ZM421.661 126.024C422.194 126.024 422.663 125.901 423.069 125.656C423.485 125.4 423.805 125.048 424.029 124.6C424.263 124.152 424.381 123.629 424.381 123.032C424.381 122.435 424.263 121.912 424.029 121.464C423.805 121.016 423.485 120.669 423.069 120.424C422.663 120.168 422.194 120.04 421.661 120.04C421.138 120.04 420.669 120.168 420.253 120.424C419.847 120.669 419.527 121.016 419.293 121.464C419.069 121.912 418.957 122.435 418.957 123.032C418.957 123.629 419.069 124.152 419.293 124.6C419.527 125.048 419.847 125.4 420.253 125.656C420.669 125.901 421.138 126.024 421.661 126.024ZM428.779 117.304C428.513 117.304 428.289 117.219 428.107 117.048C427.937 116.867 427.851 116.643 427.851 116.376C427.851 116.12 427.937 115.907 428.107 115.736C428.289 115.565 428.513 115.48 428.779 115.48C429.035 115.48 429.254 115.565 429.435 115.736C429.617 115.907 429.707 116.12 429.707 116.376C429.707 116.643 429.617 116.867 429.435 117.048C429.254 117.219 429.035 117.304 428.779 117.304ZM428.107 127V119.064H429.451V127H428.107ZM431.792 127V119.064H433.008L433.088 120.488C433.344 119.987 433.712 119.592 434.192 119.304C434.672 119.016 435.216 118.872 435.824 118.872C436.762 118.872 437.509 119.16 438.064 119.736C438.629 120.301 438.911 121.176 438.911 122.36V127H437.568V122.504C437.568 120.851 436.885 120.024 435.52 120.024C434.837 120.024 434.266 120.275 433.808 120.776C433.36 121.267 433.136 121.971 433.136 122.888V127H431.792ZM444.516 127.192C443.758 127.192 443.086 127.021 442.5 126.68C441.913 126.328 441.449 125.843 441.108 125.224C440.777 124.605 440.612 123.875 440.612 123.032C440.612 122.2 440.777 121.475 441.108 120.856C441.438 120.227 441.897 119.741 442.484 119.4C443.081 119.048 443.769 118.872 444.548 118.872C445.316 118.872 445.977 119.048 446.532 119.4C447.097 119.741 447.529 120.195 447.828 120.76C448.126 121.325 448.276 121.933 448.276 122.584C448.276 122.701 448.27 122.819 448.26 122.936C448.26 123.053 448.26 123.187 448.26 123.336H441.94C441.972 123.944 442.11 124.451 442.356 124.856C442.612 125.251 442.926 125.549 443.3 125.752C443.684 125.955 444.089 126.056 444.516 126.056C445.07 126.056 445.534 125.928 445.908 125.672C446.281 125.416 446.553 125.069 446.724 124.632H448.052C447.838 125.368 447.428 125.981 446.82 126.472C446.222 126.952 445.454 127.192 444.516 127.192ZM444.516 120.008C443.876 120.008 443.305 120.205 442.804 120.6C442.313 120.984 442.03 121.549 441.956 122.296H446.948C446.916 121.581 446.67 121.021 446.212 120.616C445.753 120.211 445.188 120.008 444.516 120.008ZM449.897 122.92V121.784H456.233V122.92H449.897ZM459.076 117.304C458.81 117.304 458.586 117.219 458.404 117.048C458.234 116.867 458.148 116.643 458.148 116.376C458.148 116.12 458.234 115.907 458.404 115.736C458.586 115.565 458.81 115.48 459.076 115.48C459.332 115.48 459.551 115.565 459.732 115.736C459.914 115.907 460.004 116.12 460.004 116.376C460.004 116.643 459.914 116.867 459.732 117.048C459.551 117.219 459.332 117.304 459.076 117.304ZM458.404 127V119.064H459.748V127H458.404ZM462.088 127V119.064H463.304L463.384 120.488C463.64 119.987 464.008 119.592 464.488 119.304C464.968 119.016 465.512 118.872 466.12 118.872C467.059 118.872 467.806 119.16 468.36 119.736C468.926 120.301 469.208 121.176 469.208 122.36V127H467.864V122.504C467.864 120.851 467.182 120.024 465.816 120.024C465.134 120.024 464.563 120.275 464.104 120.776C463.656 121.267 463.432 121.971 463.432 122.888V127H462.088ZM478.119 127.192C477.458 127.192 476.908 127.08 476.471 126.856C476.034 126.632 475.708 126.333 475.495 125.96C475.282 125.587 475.175 125.181 475.175 124.744C475.175 123.933 475.484 123.309 476.103 122.872C476.722 122.435 477.564 122.216 478.631 122.216H480.775V122.12C480.775 121.427 480.594 120.904 480.231 120.552C479.868 120.189 479.383 120.008 478.775 120.008C478.252 120.008 477.799 120.141 477.415 120.408C477.042 120.664 476.807 121.043 476.711 121.544H475.335C475.388 120.968 475.58 120.483 475.911 120.088C476.252 119.693 476.674 119.395 477.175 119.192C477.676 118.979 478.21 118.872 478.775 118.872C479.884 118.872 480.716 119.171 481.271 119.768C481.836 120.355 482.119 121.139 482.119 122.12V127H480.919L480.839 125.576C480.615 126.024 480.284 126.408 479.847 126.728C479.42 127.037 478.844 127.192 478.119 127.192ZM478.327 126.056C478.839 126.056 479.276 125.923 479.639 125.656C480.012 125.389 480.295 125.043 480.487 124.616C480.679 124.189 480.775 123.741 480.775 123.272V123.256H478.743C477.954 123.256 477.394 123.395 477.063 123.672C476.743 123.939 476.583 124.275 476.583 124.68C476.583 125.096 476.732 125.432 477.031 125.688C477.34 125.933 477.772 126.056 478.327 126.056ZM487.053 127C486.327 127 485.757 126.824 485.341 126.472C484.925 126.12 484.717 125.485 484.717 124.568V120.2H483.34V119.064H484.717L484.893 117.16H486.061V119.064H488.397V120.2H486.061V124.568C486.061 125.069 486.162 125.411 486.365 125.592C486.567 125.763 486.925 125.848 487.437 125.848H488.269V127H487.053ZM497.938 127.192C497.149 127.192 496.456 127.011 495.858 126.648C495.272 126.285 494.813 125.789 494.482 125.16C494.162 124.531 494.002 123.816 494.002 123.016C494.002 122.216 494.168 121.507 494.498 120.888C494.829 120.259 495.288 119.768 495.874 119.416C496.461 119.053 497.154 118.872 497.954 118.872C498.605 118.872 499.181 119.005 499.682 119.272C500.184 119.539 500.573 119.912 500.85 120.392V115.48H502.194V127H500.978L500.85 125.688C500.594 126.072 500.226 126.419 499.746 126.728C499.266 127.037 498.664 127.192 497.938 127.192ZM498.082 126.024C498.616 126.024 499.085 125.901 499.49 125.656C499.906 125.4 500.226 125.048 500.45 124.6C500.685 124.152 500.802 123.629 500.802 123.032C500.802 122.435 500.685 121.912 500.45 121.464C500.226 121.016 499.906 120.669 499.49 120.424C499.085 120.168 498.616 120.04 498.082 120.04C497.56 120.04 497.09 120.168 496.674 120.424C496.269 120.669 495.949 121.016 495.714 121.464C495.49 121.912 495.378 122.435 495.378 123.032C495.378 123.629 495.49 124.152 495.714 124.6C495.949 125.048 496.269 125.4 496.674 125.656C497.09 125.901 497.56 126.024 498.082 126.024ZM507.025 127.192C506.364 127.192 505.815 127.08 505.377 126.856C504.94 126.632 504.615 126.333 504.401 125.96C504.188 125.587 504.081 125.181 504.081 124.744C504.081 123.933 504.391 123.309 505.009 122.872C505.628 122.435 506.471 122.216 507.537 122.216H509.681V122.12C509.681 121.427 509.5 120.904 509.137 120.552C508.775 120.189 508.289 120.008 507.681 120.008C507.159 120.008 506.705 120.141 506.321 120.408C505.948 120.664 505.713 121.043 505.617 121.544H504.241C504.295 120.968 504.487 120.483 504.817 120.088C505.159 119.693 505.58 119.395 506.081 119.192C506.583 118.979 507.116 118.872 507.681 118.872C508.791 118.872 509.623 119.171 510.177 119.768C510.743 120.355 511.025 121.139 511.025 122.12V127H509.825L509.745 125.576C509.521 126.024 509.191 126.408 508.753 126.728C508.327 127.037 507.751 127.192 507.025 127.192ZM507.233 126.056C507.745 126.056 508.183 125.923 508.545 125.656C508.919 125.389 509.201 125.043 509.393 124.616C509.585 124.189 509.681 123.741 509.681 123.272V123.256H507.649C506.86 123.256 506.3 123.395 505.969 123.672C505.649 123.939 505.489 124.275 505.489 124.68C505.489 125.096 505.639 125.432 505.937 125.688C506.247 125.933 506.679 126.056 507.233 126.056ZM513.671 130.52L515.639 126.232H515.175L512.023 119.064H513.479L516.103 125.24L518.887 119.064H520.279L515.079 130.52H513.671ZM524.269 127.192C523.32 127.192 522.53 126.952 521.901 126.472C521.272 125.992 520.904 125.341 520.797 124.52H522.173C522.258 124.936 522.477 125.299 522.829 125.608C523.192 125.907 523.677 126.056 524.285 126.056C524.85 126.056 525.266 125.939 525.533 125.704C525.8 125.459 525.933 125.171 525.933 124.84C525.933 124.36 525.757 124.04 525.405 123.88C525.064 123.72 524.578 123.576 523.949 123.448C523.522 123.363 523.096 123.24 522.669 123.08C522.242 122.92 521.885 122.696 521.597 122.408C521.309 122.109 521.165 121.72 521.165 121.24C521.165 120.547 521.421 119.981 521.933 119.544C522.456 119.096 523.16 118.872 524.045 118.872C524.888 118.872 525.576 119.085 526.109 119.512C526.653 119.928 526.968 120.525 527.053 121.304H525.725C525.672 120.899 525.496 120.584 525.197 120.36C524.909 120.125 524.52 120.008 524.029 120.008C523.549 120.008 523.176 120.109 522.909 120.312C522.653 120.515 522.525 120.781 522.525 121.112C522.525 121.432 522.69 121.683 523.021 121.864C523.362 122.045 523.821 122.2 524.397 122.328C524.888 122.435 525.352 122.568 525.789 122.728C526.237 122.877 526.6 123.107 526.877 123.416C527.165 123.715 527.309 124.152 527.309 124.728C527.32 125.443 527.048 126.035 526.493 126.504C525.949 126.963 525.208 127.192 524.269 127.192ZM536.103 127.192C535.442 127.192 534.893 127.08 534.455 126.856C534.018 126.632 533.693 126.333 533.479 125.96C533.266 125.587 533.159 125.181 533.159 124.744C533.159 123.933 533.469 123.309 534.087 122.872C534.706 122.435 535.549 122.216 536.615 122.216H538.759V122.12C538.759 121.427 538.578 120.904 538.215 120.552C537.853 120.189 537.367 120.008 536.759 120.008C536.237 120.008 535.783 120.141 535.399 120.408C535.026 120.664 534.791 121.043 534.695 121.544H533.319C533.373 120.968 533.565 120.483 533.895 120.088C534.237 119.693 534.658 119.395 535.159 119.192C535.661 118.979 536.194 118.872 536.759 118.872C537.869 118.872 538.701 119.171 539.255 119.768C539.821 120.355 540.103 121.139 540.103 122.12V127H538.903L538.823 125.576C538.599 126.024 538.269 126.408 537.831 126.728C537.405 127.037 536.829 127.192 536.103 127.192ZM536.311 126.056C536.823 126.056 537.261 125.923 537.623 125.656C537.997 125.389 538.279 125.043 538.471 124.616C538.663 124.189 538.759 123.741 538.759 123.272V123.256H536.727C535.938 123.256 535.378 123.395 535.047 123.672C534.727 123.939 534.567 124.275 534.567 124.68C534.567 125.096 534.717 125.432 535.015 125.688C535.325 125.933 535.757 126.056 536.311 126.056ZM542.12 127V119.064H543.336L543.416 120.488C543.672 119.987 544.04 119.592 544.52 119.304C545 119.016 545.544 118.872 546.152 118.872C547.09 118.872 547.837 119.16 548.392 119.736C548.957 120.301 549.24 121.176 549.24 122.36V127H547.896V122.504C547.896 120.851 547.213 120.024 545.848 120.024C545.165 120.024 544.594 120.275 544.136 120.776C543.688 121.267 543.464 121.971 543.464 122.888V127H542.12ZM554.876 127.192C554.087 127.192 553.393 127.011 552.796 126.648C552.209 126.285 551.751 125.789 551.42 125.16C551.1 124.531 550.94 123.816 550.94 123.016C550.94 122.216 551.105 121.507 551.436 120.888C551.767 120.259 552.225 119.768 552.812 119.416C553.399 119.053 554.092 118.872 554.892 118.872C555.543 118.872 556.119 119.005 556.62 119.272C557.121 119.539 557.511 119.912 557.788 120.392V115.48H559.132V127H557.916L557.788 125.688C557.532 126.072 557.164 126.419 556.684 126.728C556.204 127.037 555.601 127.192 554.876 127.192ZM555.02 126.024C555.553 126.024 556.023 125.901 556.428 125.656C556.844 125.4 557.164 125.048 557.388 124.6C557.623 124.152 557.74 123.629 557.74 123.032C557.74 122.435 557.623 121.912 557.388 121.464C557.164 121.016 556.844 120.669 556.428 120.424C556.023 120.168 555.553 120.04 555.02 120.04C554.497 120.04 554.028 120.168 553.612 120.424C553.207 120.669 552.887 121.016 552.652 121.464C552.428 121.912 552.316 122.435 552.316 123.032C552.316 123.629 552.428 124.152 552.652 124.6C552.887 125.048 553.207 125.4 553.612 125.656C554.028 125.901 554.497 126.024 555.02 126.024ZM250.24 149C249.515 149 248.944 148.824 248.528 148.472C248.112 148.12 247.904 147.485 247.904 146.568V142.2H246.528V141.064H247.904L248.08 139.16H249.248V141.064H251.584V142.2H249.248V146.568C249.248 147.069 249.349 147.411 249.552 147.592C249.755 147.763 250.112 147.848 250.624 147.848H251.456V149H250.24ZM254.108 139.304C253.841 139.304 253.617 139.219 253.436 139.048C253.265 138.867 253.18 138.643 253.18 138.376C253.18 138.12 253.265 137.907 253.436 137.736C253.617 137.565 253.841 137.48 254.108 137.48C254.364 137.48 254.582 137.565 254.764 137.736C254.945 137.907 255.036 138.12 255.036 138.376C255.036 138.643 254.945 138.867 254.764 139.048C254.582 139.219 254.364 139.304 254.108 139.304ZM253.436 149V141.064H254.78V149H253.436ZM257.12 149V141.064H258.336L258.432 142.216C258.688 141.789 259.029 141.459 259.456 141.224C259.882 140.989 260.362 140.872 260.896 140.872C261.525 140.872 262.064 141 262.512 141.256C262.97 141.512 263.322 141.901 263.568 142.424C263.845 141.944 264.224 141.565 264.704 141.288C265.194 141.011 265.722 140.872 266.288 140.872C267.237 140.872 267.994 141.16 268.56 141.736C269.125 142.301 269.408 143.176 269.408 144.36V149H268.08V144.504C268.08 143.683 267.914 143.064 267.584 142.648C267.253 142.232 266.778 142.024 266.16 142.024C265.52 142.024 264.986 142.275 264.56 142.776C264.144 143.267 263.936 143.971 263.936 144.888V149H262.592V144.504C262.592 143.683 262.426 143.064 262.096 142.648C261.765 142.232 261.29 142.024 260.672 142.024C260.042 142.024 259.514 142.275 259.088 142.776C258.672 143.267 258.464 143.971 258.464 144.888V149H257.12ZM275 149.192C274.243 149.192 273.571 149.021 272.984 148.68C272.397 148.328 271.933 147.843 271.592 147.224C271.261 146.605 271.096 145.875 271.096 145.032C271.096 144.2 271.261 143.475 271.592 142.856C271.923 142.227 272.381 141.741 272.968 141.4C273.565 141.048 274.253 140.872 275.032 140.872C275.8 140.872 276.461 141.048 277.016 141.4C277.581 141.741 278.013 142.195 278.312 142.76C278.611 143.325 278.76 143.933 278.76 144.584C278.76 144.701 278.755 144.819 278.744 144.936C278.744 145.053 278.744 145.187 278.744 145.336H272.424C272.456 145.944 272.595 146.451 272.84 146.856C273.096 147.251 273.411 147.549 273.784 147.752C274.168 147.955 274.573 148.056 275 148.056C275.555 148.056 276.019 147.928 276.392 147.672C276.765 147.416 277.037 147.069 277.208 146.632H278.536C278.323 147.368 277.912 147.981 277.304 148.472C276.707 148.952 275.939 149.192 275 149.192ZM275 142.008C274.36 142.008 273.789 142.205 273.288 142.6C272.797 142.984 272.515 143.549 272.44 144.296H277.432C277.4 143.581 277.155 143.021 276.696 142.616C276.237 142.211 275.672 142.008 275 142.008ZM283.582 149.192C282.632 149.192 281.843 148.952 281.214 148.472C280.584 147.992 280.216 147.341 280.11 146.52H281.486C281.571 146.936 281.79 147.299 282.142 147.608C282.504 147.907 282.99 148.056 283.598 148.056C284.163 148.056 284.579 147.939 284.846 147.704C285.112 147.459 285.246 147.171 285.246 146.84C285.246 146.36 285.07 146.04 284.718 145.88C284.376 145.72 283.891 145.576 283.262 145.448C282.835 145.363 282.408 145.24 281.982 145.08C281.555 144.92 281.198 144.696 280.91 144.408C280.622 144.109 280.478 143.72 280.478 143.24C280.478 142.547 280.734 141.981 281.246 141.544C281.768 141.096 282.472 140.872 283.358 140.872C284.2 140.872 284.888 141.085 285.422 141.512C285.966 141.928 286.28 142.525 286.366 143.304H285.038C284.984 142.899 284.808 142.584 284.51 142.36C284.222 142.125 283.832 142.008 283.342 142.008C282.862 142.008 282.488 142.109 282.222 142.312C281.966 142.515 281.838 142.781 281.838 143.112C281.838 143.432 282.003 143.683 282.334 143.864C282.675 144.045 283.134 144.2 283.71 144.328C284.2 144.435 284.664 144.568 285.102 144.728C285.55 144.877 285.912 145.107 286.19 145.416C286.478 145.715 286.622 146.152 286.622 146.728C286.632 147.443 286.36 148.035 285.806 148.504C285.262 148.963 284.52 149.192 283.582 149.192ZM293.64 152.52L295.608 148.232H295.144L291.992 141.064H293.448L296.072 147.24L298.856 141.064H300.248L295.048 152.52H293.64ZM304.533 149.192C303.786 149.192 303.114 149.021 302.517 148.68C301.919 148.339 301.445 147.859 301.093 147.24C300.751 146.611 300.581 145.875 300.581 145.032C300.581 144.189 300.757 143.459 301.109 142.84C301.461 142.211 301.935 141.725 302.533 141.384C303.141 141.043 303.818 140.872 304.565 140.872C305.311 140.872 305.983 141.043 306.581 141.384C307.178 141.725 307.647 142.211 307.989 142.84C308.341 143.459 308.517 144.189 308.517 145.032C308.517 145.875 308.341 146.611 307.989 147.24C307.637 147.859 307.157 148.339 306.549 148.68C305.951 149.021 305.279 149.192 304.533 149.192ZM304.533 148.04C304.991 148.04 305.418 147.928 305.813 147.704C306.207 147.48 306.527 147.144 306.773 146.696C307.018 146.248 307.141 145.693 307.141 145.032C307.141 144.371 307.018 143.816 306.773 143.368C306.538 142.92 306.223 142.584 305.829 142.36C305.434 142.136 305.013 142.024 304.565 142.024C304.106 142.024 303.679 142.136 303.285 142.36C302.89 142.584 302.57 142.92 302.325 143.368C302.079 143.816 301.957 144.371 301.957 145.032C301.957 145.693 302.079 146.248 302.325 146.696C302.57 147.144 302.885 147.48 303.269 147.704C303.663 147.928 304.085 148.04 304.533 148.04ZM313.281 149.192C312.343 149.192 311.596 148.909 311.041 148.344C310.487 147.768 310.209 146.888 310.209 145.704V141.064H311.553V145.56C311.553 147.213 312.231 148.04 313.585 148.04C314.279 148.04 314.849 147.795 315.297 147.304C315.756 146.803 315.985 146.093 315.985 145.176V141.064H317.329V149H316.113L316.017 147.576C315.772 148.077 315.404 148.472 314.913 148.76C314.433 149.048 313.889 149.192 313.281 149.192ZM325.376 149L323.056 141.064H324.4L326.08 147.288L327.936 141.064H329.456L331.328 147.288L332.992 141.064H334.352L332.032 149H330.656L328.704 142.456L326.752 149H325.376ZM338.197 149.192C337.536 149.192 336.986 149.08 336.549 148.856C336.112 148.632 335.786 148.333 335.573 147.96C335.36 147.587 335.253 147.181 335.253 146.744C335.253 145.933 335.562 145.309 336.181 144.872C336.8 144.435 337.642 144.216 338.709 144.216H340.853V144.12C340.853 143.427 340.672 142.904 340.309 142.552C339.946 142.189 339.461 142.008 338.853 142.008C338.33 142.008 337.877 142.141 337.493 142.408C337.12 142.664 336.885 143.043 336.789 143.544H335.413C335.466 142.968 335.658 142.483 335.989 142.088C336.33 141.693 336.752 141.395 337.253 141.192C337.754 140.979 338.288 140.872 338.853 140.872C339.962 140.872 340.794 141.171 341.349 141.768C341.914 142.355 342.197 143.139 342.197 144.12V149H340.997L340.917 147.576C340.693 148.024 340.362 148.408 339.925 148.728C339.498 149.037 338.922 149.192 338.197 149.192ZM338.405 148.056C338.917 148.056 339.354 147.923 339.717 147.656C340.09 147.389 340.373 147.043 340.565 146.616C340.757 146.189 340.853 145.741 340.853 145.272V145.256H338.821C338.032 145.256 337.472 145.395 337.141 145.672C336.821 145.939 336.661 146.275 336.661 146.68C336.661 147.096 336.81 147.432 337.109 147.688C337.418 147.933 337.85 148.056 338.405 148.056ZM344.213 149V141.064H345.429L345.509 142.488C345.765 141.987 346.133 141.592 346.613 141.304C347.093 141.016 347.637 140.872 348.245 140.872C349.184 140.872 349.931 141.16 350.485 141.736C351.051 142.301 351.333 143.176 351.333 144.36V149H349.989V144.504C349.989 142.851 349.307 142.024 347.941 142.024C347.259 142.024 346.688 142.275 346.229 142.776C345.781 143.267 345.557 143.971 345.557 144.888V149H344.213ZM356.506 149C355.78 149 355.21 148.824 354.794 148.472C354.378 148.12 354.17 147.485 354.17 146.568V142.2H352.794V141.064H354.17L354.346 139.16H355.514V141.064H357.85V142.2H355.514V146.568C355.514 147.069 355.615 147.411 355.818 147.592C356.02 147.763 356.378 147.848 356.89 147.848H357.722V149H356.506ZM360.021 149.08C359.754 149.08 359.53 148.995 359.349 148.824C359.178 148.643 359.093 148.424 359.093 148.168C359.093 147.912 359.178 147.699 359.349 147.528C359.53 147.347 359.754 147.256 360.021 147.256C360.277 147.256 360.49 147.347 360.661 147.528C360.842 147.699 360.933 147.912 360.933 148.168C360.933 148.424 360.842 148.643 360.661 148.824C360.49 148.995 360.277 149.08 360.021 149.08Z" fill="#4D545F"/>
<rect x="964" y="68.5" width="193" height="52" rx="26" fill="#D8B448"/>
<path d="M989.596 99.5V88.3H996.908V89.948H991.644V93.02H996.428V94.62H991.644V97.852H996.908V99.5H989.596ZM998.046 99.5L1000.93 95.532L998.046 91.564H1000.24L1002.25 94.38L1004.25 91.564H1006.46L1003.57 95.532L1006.46 99.5H1004.25L1002.25 96.684L1000.24 99.5H998.046ZM1007.77 103.02V91.564H1009.59L1009.82 92.7C1010.07 92.348 1010.41 92.0387 1010.82 91.772C1011.25 91.5053 1011.8 91.372 1012.47 91.372C1013.22 91.372 1013.88 91.5533 1014.47 91.916C1015.06 92.2787 1015.52 92.7747 1015.86 93.404C1016.2 94.0333 1016.38 94.748 1016.38 95.548C1016.38 96.348 1016.2 97.0627 1015.86 97.692C1015.52 98.3107 1015.06 98.8013 1014.47 99.164C1013.88 99.516 1013.22 99.692 1012.47 99.692C1011.87 99.692 1011.35 99.58 1010.9 99.356C1010.46 99.132 1010.09 98.8173 1009.82 98.412V103.02H1007.77ZM1012.04 97.9C1012.69 97.9 1013.23 97.6813 1013.66 97.244C1014.08 96.8067 1014.3 96.2413 1014.3 95.548C1014.3 94.8547 1014.08 94.284 1013.66 93.836C1013.23 93.388 1012.69 93.164 1012.04 93.164C1011.38 93.164 1010.83 93.388 1010.41 93.836C1009.99 94.2733 1009.78 94.8387 1009.78 95.532C1009.78 96.2253 1009.99 96.796 1010.41 97.244C1010.83 97.6813 1011.38 97.9 1012.04 97.9ZM1018.2 99.5V87.98H1020.25V99.5H1018.2ZM1026.15 99.692C1025.39 99.692 1024.69 99.516 1024.07 99.164C1023.47 98.812 1022.98 98.3267 1022.62 97.708C1022.27 97.0787 1022.09 96.3533 1022.09 95.532C1022.09 94.7107 1022.27 93.9907 1022.63 93.372C1023 92.7427 1023.48 92.252 1024.09 91.9C1024.71 91.548 1025.4 91.372 1026.17 91.372C1026.93 91.372 1027.61 91.548 1028.22 91.9C1028.84 92.252 1029.32 92.7427 1029.67 93.372C1030.04 93.9907 1030.22 94.7107 1030.22 95.532C1030.22 96.3533 1030.04 97.0787 1029.67 97.708C1029.32 98.3267 1028.84 98.812 1028.22 99.164C1027.6 99.516 1026.91 99.692 1026.15 99.692ZM1026.15 97.916C1026.69 97.916 1027.15 97.7187 1027.55 97.324C1027.94 96.9187 1028.14 96.3213 1028.14 95.532C1028.14 94.7427 1027.94 94.1507 1027.55 93.756C1027.15 93.3507 1026.69 93.148 1026.17 93.148C1025.63 93.148 1025.16 93.3507 1024.76 93.756C1024.38 94.1507 1024.19 94.7427 1024.19 95.532C1024.19 96.3213 1024.38 96.9187 1024.76 97.324C1025.16 97.7187 1025.62 97.916 1026.15 97.916ZM1032.05 99.5V91.564H1033.87L1034.06 93.052C1034.35 92.54 1034.74 92.1347 1035.23 91.836C1035.73 91.5267 1036.32 91.372 1036.99 91.372V93.532H1036.42C1035.97 93.532 1035.57 93.6013 1035.22 93.74C1034.86 93.8787 1034.59 94.1187 1034.38 94.46C1034.19 94.8013 1034.1 95.276 1034.1 95.884V99.5H1032.05ZM1042.11 99.692C1041.31 99.692 1040.6 99.5213 1039.98 99.18C1039.36 98.8387 1038.88 98.3587 1038.52 97.74C1038.17 97.1213 1038 96.4067 1038 95.596C1038 94.7747 1038.17 94.044 1038.51 93.404C1038.86 92.764 1039.34 92.268 1039.95 91.916C1040.57 91.5533 1041.29 91.372 1042.12 91.372C1042.9 91.372 1043.59 91.5427 1044.19 91.884C1044.78 92.2253 1045.25 92.6947 1045.58 93.292C1045.92 93.8787 1046.09 94.5347 1046.09 95.26C1046.09 95.3773 1046.09 95.5 1046.08 95.628C1046.08 95.756 1046.07 95.8893 1046.06 96.028H1040.03C1040.07 96.6467 1040.28 97.132 1040.67 97.484C1041.06 97.836 1041.54 98.012 1042.09 98.012C1042.51 98.012 1042.85 97.9213 1043.13 97.74C1043.42 97.548 1043.63 97.3027 1043.77 97.004H1045.85C1045.7 97.5053 1045.45 97.964 1045.1 98.38C1044.76 98.7853 1044.33 99.1053 1043.82 99.34C1043.32 99.5747 1042.75 99.692 1042.11 99.692ZM1042.12 93.036C1041.62 93.036 1041.18 93.18 1040.8 93.468C1040.41 93.7453 1040.17 94.172 1040.06 94.748H1044.01C1043.98 94.2253 1043.79 93.8093 1043.44 93.5C1043.08 93.1907 1042.65 93.036 1042.12 93.036ZM1051.67 99.5V88.3H1055.5C1056.81 88.3 1057.89 88.5347 1058.73 89.004C1059.58 89.4627 1060.21 90.1133 1060.62 90.956C1061.03 91.788 1061.24 92.7693 1061.24 93.9C1061.24 95.0307 1061.03 96.0173 1060.62 96.86C1060.21 97.692 1059.58 98.3427 1058.73 98.812C1057.89 99.2707 1056.81 99.5 1055.5 99.5H1051.67ZM1053.72 97.74H1055.4C1056.34 97.74 1057.08 97.5907 1057.63 97.292C1058.17 96.9827 1058.56 96.5453 1058.79 95.98C1059.03 95.404 1059.15 94.7107 1059.15 93.9C1059.15 93.1 1059.03 92.412 1058.79 91.836C1058.56 91.26 1058.17 90.8173 1057.63 90.508C1057.08 90.1987 1056.34 90.044 1055.4 90.044H1053.72V97.74ZM1064.11 90.332C1063.73 90.332 1063.42 90.22 1063.18 89.996C1062.94 89.772 1062.83 89.4893 1062.83 89.148C1062.83 88.8067 1062.94 88.5293 1063.18 88.316C1063.42 88.092 1063.73 87.98 1064.11 87.98C1064.48 87.98 1064.78 88.092 1065.02 88.316C1065.26 88.5293 1065.39 88.8067 1065.39 89.148C1065.39 89.4893 1065.26 89.772 1065.02 89.996C1064.78 90.22 1064.48 90.332 1064.11 90.332ZM1063.08 99.5V91.564H1065.13V99.5H1063.08ZM1067.27 99.5V91.564H1069.08L1069.24 92.908C1069.48 92.4387 1069.83 92.0653 1070.29 91.788C1070.76 91.5107 1071.31 91.372 1071.94 91.372C1072.92 91.372 1073.68 91.6813 1074.23 92.3C1074.77 92.9187 1075.04 93.8253 1075.04 95.02V99.5H1073V95.212C1073 94.5293 1072.86 94.0067 1072.58 93.644C1072.3 93.2813 1071.87 93.1 1071.28 93.1C1070.71 93.1 1070.23 93.3027 1069.86 93.708C1069.5 94.1133 1069.32 94.6787 1069.32 95.404V99.5H1067.27ZM1080.86 99.692C1080.06 99.692 1079.35 99.5213 1078.73 99.18C1078.11 98.8387 1077.63 98.3587 1077.27 97.74C1076.92 97.1213 1076.75 96.4067 1076.75 95.596C1076.75 94.7747 1076.92 94.044 1077.26 93.404C1077.61 92.764 1078.09 92.268 1078.7 91.916C1079.32 91.5533 1080.04 91.372 1080.87 91.372C1081.65 91.372 1082.34 91.5427 1082.94 91.884C1083.53 92.2253 1084 92.6947 1084.33 93.292C1084.67 93.8787 1084.84 94.5347 1084.84 95.26C1084.84 95.3773 1084.84 95.5 1084.83 95.628C1084.83 95.756 1084.82 95.8893 1084.81 96.028H1078.78C1078.82 96.6467 1079.03 97.132 1079.42 97.484C1079.81 97.836 1080.29 98.012 1080.84 98.012C1081.26 98.012 1081.6 97.9213 1081.88 97.74C1082.17 97.548 1082.38 97.3027 1082.52 97.004H1084.6C1084.45 97.5053 1084.2 97.964 1083.85 98.38C1083.51 98.7853 1083.08 99.1053 1082.57 99.34C1082.07 99.5747 1081.5 99.692 1080.86 99.692ZM1080.87 93.036C1080.37 93.036 1079.93 93.18 1079.55 93.468C1079.16 93.7453 1078.92 94.172 1078.81 94.748H1082.76C1082.73 94.2253 1082.54 93.8093 1082.19 93.5C1081.83 93.1907 1081.4 93.036 1080.87 93.036ZM1091.48 90.332C1091.11 90.332 1090.8 90.22 1090.55 89.996C1090.32 89.772 1090.2 89.4893 1090.2 89.148C1090.2 88.8067 1090.32 88.5293 1090.55 88.316C1090.8 88.092 1091.11 87.98 1091.48 87.98C1091.85 87.98 1092.16 88.092 1092.39 88.316C1092.64 88.5293 1092.76 88.8067 1092.76 89.148C1092.76 89.4893 1092.64 89.772 1092.39 89.996C1092.16 90.22 1091.85 90.332 1091.48 90.332ZM1090.46 99.5V91.564H1092.5V99.5H1090.46ZM1094.64 99.5V91.564H1096.45L1096.61 92.908C1096.86 92.4387 1097.21 92.0653 1097.67 91.788C1098.14 91.5107 1098.68 91.372 1099.31 91.372C1100.3 91.372 1101.06 91.6813 1101.6 92.3C1102.15 92.9187 1102.42 93.8253 1102.42 95.02V99.5H1100.37V95.212C1100.37 94.5293 1100.23 94.0067 1099.95 93.644C1099.68 93.2813 1099.24 93.1 1098.66 93.1C1098.08 93.1 1097.61 93.3027 1097.23 93.708C1096.87 94.1133 1096.69 94.6787 1096.69 95.404V99.5H1094.64Z" fill="white"/>
<path d="M1114.85 94.2475C1114.85 93.8266 1115.15 93.4842 1115.56 93.436L1115.67 93.4303L1129.1 93.6598L1123.74 88.3125C1123.41 87.9831 1123.4 87.4567 1123.72 87.1369C1124.01 86.8462 1124.47 86.8262 1124.8 87.0725L1124.89 87.1544L1131.69 93.9451C1131.74 93.9885 1131.78 94.0354 1131.81 94.0847C1131.82 94.0995 1131.83 94.1147 1131.83 94.1302C1131.84 94.1435 1131.85 94.1572 1131.86 94.1711C1131.87 94.1914 1131.88 94.2123 1131.88 94.2336C1131.89 94.25 1131.9 94.266 1131.9 94.282C1131.91 94.302 1131.92 94.3232 1131.92 94.3448C1131.93 94.3598 1131.93 94.3743 1131.93 94.3888C1131.94 94.4104 1131.94 94.4327 1131.94 94.4553C1131.94 94.4726 1131.95 94.4896 1131.95 94.5067C1131.95 94.517 1131.95 94.5279 1131.95 94.5387L1131.95 94.5709C1131.95 94.5872 1131.95 94.6035 1131.94 94.6198L1131.95 94.5387C1131.95 94.5912 1131.94 94.6424 1131.94 94.692C1131.93 94.7039 1131.93 94.716 1131.93 94.7281C1131.92 94.7531 1131.92 94.777 1131.91 94.8005C1131.91 94.8122 1131.9 94.8247 1131.9 94.837C1131.89 94.8619 1131.88 94.8856 1131.87 94.9086C1131.86 94.9194 1131.86 94.9307 1131.85 94.942C1131.84 94.9602 1131.83 94.9776 1131.82 94.9945C1131.81 95.0065 1131.8 95.0189 1131.79 95.0312L1131.78 95.0406C1131.76 95.0695 1131.74 95.0968 1131.71 95.1224L1131.71 95.1231L1125.13 101.687C1124.81 102.005 1124.29 101.995 1123.96 101.665C1123.66 101.364 1123.63 100.902 1123.86 100.581L1123.94 100.489L1129.12 95.3223L1115.69 95.0929C1115.24 95.0851 1114.86 94.7066 1114.85 94.2475Z" fill="white"/>
<defs>
<clipPath id="clip0_1_3258">
<rect width="106" height="86" fill="white" transform="translate(79.5 51)"/>
</clipPath>
</defs>
</svg>
