<svg width="18" height="16" viewBox="0 0 18 16" fill="none" xmlns="http://www.w3.org/2000/svg">
<path d="M0.852186 7.74748C0.845349 7.32664 1.15174 6.98416 1.5557 6.93602L1.66813 6.93035L15.0961 7.15979L9.74316 1.81254C9.41328 1.48308 9.4036 0.956733 9.72153 0.636912C10.0106 0.346166 10.4709 0.326193 10.8 0.572492L10.8945 0.654366L17.6939 7.44508C17.7374 7.48851 17.7753 7.53535 17.8076 7.58469C17.8168 7.59953 17.8261 7.61471 17.8349 7.63019C17.843 7.64347 17.8504 7.65723 17.8574 7.67114C17.8671 7.69137 17.8765 7.71227 17.8852 7.73357C17.8922 7.75 17.8981 7.76596 17.9035 7.78204C17.9099 7.80198 17.9162 7.82321 17.9217 7.84476C17.9257 7.8598 17.929 7.87427 17.9318 7.88879C17.9359 7.91039 17.9394 7.93273 17.942 7.95532C17.9442 7.97255 17.9456 7.98961 17.9465 8.00668C17.9469 8.01703 17.9473 8.02786 17.9474 8.03874L17.9475 8.07093C17.9472 8.08724 17.9463 8.10352 17.945 8.11975L17.9474 8.03874C17.9483 8.09119 17.9443 8.14243 17.9358 8.19204C17.9339 8.20389 17.9315 8.21604 17.9288 8.22814C17.9234 8.25307 17.9169 8.27705 17.9095 8.30054C17.9058 8.31221 17.9016 8.32468 17.897 8.33704C17.8877 8.36189 17.8775 8.38555 17.8663 8.40858C17.8611 8.41941 17.8553 8.43074 17.8491 8.44195C17.8391 8.46024 17.8287 8.4776 17.8177 8.49451C17.8099 8.50648 17.8013 8.51893 17.7923 8.53117L17.7852 8.54063C17.7634 8.56951 17.7396 8.59682 17.714 8.62239L17.7131 8.62315L11.1307 15.187C10.8113 15.5054 10.2861 15.4954 9.9576 15.1646C9.65894 14.8638 9.62562 14.4015 9.86195 14.0807L9.94094 13.989L15.1209 8.82228L1.69514 8.59287C1.23705 8.58507 0.859645 8.20657 0.852186 7.74748Z" fill="white"/>
</svg>
