<svg width="57" height="56" viewBox="0 0 57 56" fill="none" xmlns="http://www.w3.org/2000/svg">
<rect width="55.4354" height="55.4354" transform="translate(0.661133 0.289307)" fill="white"/>
<path d="M41.5727 48.9905V36.6276V20.3311H38.0129C36.9034 20.3311 36.2889 19.0452 36.9861 18.182L45.6575 7.44423C45.9299 7.10687 46.4481 7.11945 46.7038 7.46964L54.5642 18.2328C55.2011 19.1049 54.5782 20.3311 53.4983 20.3311H49.4369V48.9905V51.4226H41.5727V48.9905Z" fill="#C0D1B9"/>
<rect x="8.48145" y="36.4829" width="10.5359" height="16.0205" rx="1.31989" fill="#C0D1B9"/>
<mask id="path-3-inside-1_1727_3847" fill="white">
<rect x="5.40088" y="32.4756" width="11.879" height="18.9357" rx="1.31989"/>
</mask>
<rect x="5.40088" y="32.4756" width="11.879" height="18.9357" rx="1.31989" stroke="#403C3B" stroke-width="3.95967" mask="url(#path-3-inside-1_1727_3847)"/>
<rect x="23.7383" y="26.7871" width="10.607" height="25.7164" rx="1.31989" fill="#C0D1B9"/>
<mask id="path-5-inside-2_1727_3847" fill="white">
<rect x="20.729" y="22.9622" width="11.879" height="28.4492" rx="1.31989"/>
</mask>
<rect x="20.729" y="22.9622" width="11.879" height="28.4492" rx="1.31989" stroke="#403C3B" stroke-width="3.95967" mask="url(#path-5-inside-2_1727_3847)"/>
<path d="M39.0972 47.8982V35.5353V19.2388H35.2746C34.1651 19.2388 33.5507 17.9529 34.2478 17.0897L42.9443 6.32073C43.2088 5.9932 43.7083 5.99372 43.9721 6.3218L52.6325 17.0918C53.327 17.9555 52.7122 19.2388 51.6039 19.2388H47.6993V47.8982V50.3303H39.0972V47.8982Z" stroke="#403C3B" stroke-width="1.97984" stroke-linejoin="round"/>
</svg>
