<svg width="73" height="73" viewBox="0 0 73 73" fill="none" xmlns="http://www.w3.org/2000/svg">
<rect width="72" height="72" transform="translate(0.619141 0.00708008)" fill="white"/>
<path d="M39.1382 19.3732C34.8321 21.3559 30.5091 23.8723 26.8036 26.0753C25.5262 26.8378 24.0711 27.2699 22.5821 27.3377C21.9053 27.3631 21.2116 27.397 20.5264 27.4309H20.5094C16.7279 27.6597 13.6484 30.9556 13.6484 34.7684C13.6484 38.022 15.8988 40.9027 18.919 41.8178V43.7327C18.8851 46.9439 19.2912 50.1381 20.1118 53.2477C20.4502 54.5355 21.2962 55.6031 22.4214 56.1793C22.9797 56.4674 23.5973 56.6199 24.2318 56.6283C24.6971 56.6283 25.1539 56.5436 25.5854 56.3742C27.6581 55.5777 28.7917 53.307 28.208 51.0956C27.6665 49.0367 27.362 46.9269 27.3028 44.8002L27.2774 43.7411C30.8813 45.8763 35.0182 48.2656 39.1382 50.1636C39.7473 50.4601 40.4072 50.6211 41.084 50.6296C41.2278 50.6296 41.3716 50.6211 41.5154 50.5957C46.0753 49.9009 48.5287 41.9195 48.5287 34.7684C48.5287 27.6173 46.0669 19.6274 41.507 18.9327C41.4985 18.9327 40.5256 18.7463 39.1382 19.3732Z" fill="#E8A263"/>
<path d="M42.5737 29.229C42.2608 29.229 41.987 29.4738 41.9674 29.7872C41.8892 30.6589 41.8501 31.5501 41.8501 32.4609C41.8501 33.3717 41.8892 34.2629 41.9674 35.1345C41.9968 35.4479 42.2608 35.6927 42.5737 35.6927H43.1898C44.9695 35.6634 46.3874 34.1943 46.358 32.4119C46.3287 30.6687 44.9304 29.2682 43.1898 29.2388H42.5737V29.229Z" fill="#403C3B"/>
<path d="M24.7557 39.871C24.0215 42.703 24.2439 45.556 24.4718 46.864C24.6997 48.1721 25.4727 49.0573 25.9668 50.0237C26.2989 50.6734 26.3345 52.2361 26.3345 52.2361C26.3345 52.2361 26.2746 55.5329 23.7365 55.9823C20.0499 56.6351 19.1037 51.5702 19.1037 51.5702L18.5891 38.9958M24.7557 39.871C32.299 45.0632 34.3257 46.1397 42.8513 49.4823M24.7557 39.871C22.3475 39.5292 18.5891 38.9958 18.5891 38.9958M18.5891 38.9958C18.5891 38.9958 12.5392 36.2069 12.2651 32.7453C11.9186 28.3705 15.0909 26.6032 16.3094 25.9801C18.6616 24.7771 21.102 25.4242 23.2836 24.8444M23.2836 24.8444C25.4976 24.2559 28.195 22.4125 30.5323 21.4266C37.9055 16.8069 39.5317 15.7803 42.9088 15.3862M23.2836 24.8444L23.9668 28.5591M42.9088 15.3862C39.9973 20.5491 37.2612 22.5842 37.7591 32.7453C38.2881 43.5413 40.996 43.0198 42.8513 49.4823M42.9088 15.3862V15.3862C44.806 15.6244 46.0694 17.3045 47.0048 18.9722C49.4558 23.3425 49.7995 27.2674 49.7995 32.7453C49.7995 39.8047 49.5439 45.089 42.8513 49.4823" stroke="#403C3B" stroke-width="2.24" stroke-linecap="round" stroke-linejoin="round"/>
<path d="M53.5981 40.1208L59.6512 42.7431" stroke="#403C3B" stroke-width="2.24" stroke-linecap="round"/>
<path d="M53.729 24.0142L59.8065 21.4491" stroke="#403C3B" stroke-width="2.24" stroke-linecap="round"/>
<path d="M54.4033 32.4607H61" stroke="#403C3B" stroke-width="2.24" stroke-linecap="round"/>
</svg>
