<svg width="73" height="73" viewBox="0 0 73 73" fill="none" xmlns="http://www.w3.org/2000/svg">
<rect width="72" height="72" transform="translate(0.378906 0.00708008)" fill="white"/>
<rect width="71" height="49" transform="translate(1 12)" fill="white"/>
<path d="M17.0484 22.9211C17.0484 22.9211 16.6551 20.4658 14.0683 20.4658C11.2836 20.4659 10.9863 24.3398 10.9863 27.1245L10.9863 30.9631L10.9863 39.0051C10.9863 40.072 11.8512 40.9369 12.9181 40.9369H14.032H23.184H24.228C25.2949 40.9369 26.1598 40.072 26.1598 39.0051V36.1882C26.1598 35.1998 25.3586 34.3986 24.3703 34.3986H23.4904H19.4945C18.1435 34.3986 17.0484 33.3035 17.0484 31.9525V31.1682V22.9211Z" fill="#97B0D7"/>
<path d="M56.9633 22.9211C56.9633 22.9211 57.3566 20.4658 59.9434 20.4658C62.7281 20.4659 63.0254 24.3398 63.0254 27.1245L63.0254 30.9631L63.0254 39.0051C63.0254 40.072 62.1605 40.9369 61.0936 40.9369H59.9797H50.8277H49.7837C48.7168 40.9369 47.8519 40.072 47.8519 39.0051V36.1882C47.8519 35.1998 48.6531 34.3986 49.6414 34.3986H50.5213H54.5172C55.8682 34.3986 56.9633 33.3035 56.9633 31.9525V31.1682V22.9211Z" fill="#97B0D7"/>
<path d="M21.8621 38.9082H22.8774C23.915 38.9082 24.7561 38.067 24.7561 37.0295V37.0295V34.2901V34.2901C24.7561 33.3289 23.9769 32.5498 23.0158 32.5498H22.1601H18.2741V32.5498C16.9603 32.5498 15.8953 31.4847 15.8953 30.1709V29.4082V21.388C15.8953 21.388 15.5129 19.0002 12.9972 19.0002V19.0002C10.2891 19.0003 10 22.7676 10 25.4757L10 29.2087L10 37.0295V37.0295C10 38.067 10.8411 38.9082 11.8787 38.9082H12.9619M21.8621 38.9082H12.9619M21.8621 38.9082L23.7195 50.3748M12.9619 38.9082L11.1819 50.3748" stroke="#403C3B" stroke-width="2.2" stroke-linecap="round" stroke-linejoin="round"/>
<path d="M48.7453 38.9079H47.73C46.6924 38.9079 45.8513 38.0668 45.8513 37.0292V37.0292V34.2899V34.2899C45.8513 33.3287 46.6305 32.5495 47.5917 32.5495H48.4473H52.3333V32.5495C53.6471 32.5495 54.7121 31.4845 54.7121 30.1707V29.4079V21.3878C54.7121 21.3878 55.0946 19 57.6102 19V19C60.3183 19 60.6074 22.7674 60.6074 25.4755L60.6074 29.2085L60.6074 37.0292V37.0292C60.6074 38.0668 59.7663 38.9079 58.7288 38.9079H57.6455M48.7453 38.9079H57.6455M48.7453 38.9079L46.8879 50.3746M57.6455 38.9079L59.4256 50.3746" stroke="#403C3B" stroke-width="2.2" stroke-linecap="round" stroke-linejoin="round"/>
<path d="M24.4922 24.9187H45.8756M35.4215 29.0943V50.3748M35.4215 50.3748H40.4571M35.4215 50.3748H30.4722" stroke="#403C3B" stroke-width="2.2" stroke-linecap="round" stroke-linejoin="round"/>
</svg>
