<svg width="370" height="364" viewBox="0 0 370 364" fill="none" xmlns="http://www.w3.org/2000/svg">
<g clip-path="url(#clip0_1727_3480)">
<path d="M23.1378 343.31C1.50871 343.31 0 361.984 0 361.984C38.5631 362.739 101.631 358.279 164.467 356.326C328.308 351.233 323.305 348.12 323.305 339.349C323.305 336.822 191.982 338.5 107.56 343.31L23.1378 343.31Z" fill="#382A2A" fill-opacity="0.1"/>
<path d="M108.267 139.123C111.984 103.844 126.225 80.6976 137.031 67.8192C144.782 58.5824 154.905 51.6617 165.929 46.7759C167.603 46.0338 169.268 45.356 170.843 44.8032C179.738 41.682 194.852 39.215 194.852 39.215L175.372 186.986L210.32 334.844C210.32 334.844 160.579 342.432 133.091 304.297C114.57 278.603 108.267 226.647 108.267 226.647C108.267 226.647 104.685 173.115 108.267 139.123Z" fill="#5D5E55"/>
<path d="M194.852 39.215C194.852 39.215 179.738 41.682 170.843 44.8032M194.852 39.215L170.843 44.8032M194.852 39.215L175.372 186.986L210.32 334.844C210.32 334.844 160.579 342.432 133.091 304.297C114.57 278.603 108.267 226.647 108.267 226.647C108.267 226.647 104.685 173.115 108.267 139.123C111.984 103.844 126.225 80.6976 137.031 67.8192C144.782 58.5824 154.905 51.6617 165.929 46.7759C167.603 46.0338 169.268 45.356 170.843 44.8032" stroke="#383838" stroke-width="1.19208"/>
<path fill-rule="evenodd" clip-rule="evenodd" d="M214.097 335.34C274.987 335.34 307.05 255.676 307.05 186.554C307.05 104.304 279.025 42.0091 213.364 37.627C136.079 37.627 119.678 104.304 119.678 186.554C119.678 268.805 139.011 339.854 214.097 335.34ZM220.987 282.694C244.876 282.694 248.746 239.594 248.746 186.554C248.746 162.532 250.246 140.094 245.168 123.253C239.034 102.911 228.953 93.3777 221.529 93.3777C207.959 93.3777 192.711 100.701 190.408 141.279C188.239 154.198 188.241 169.466 188.244 185.067C188.244 185.596 188.244 186.126 188.244 186.656C188.244 211.635 188.905 236.325 193.882 253.408C198.057 278.159 212.052 282.694 220.987 282.694Z" fill="#A7A99B" stroke="#383838" stroke-width="1.19208"/>
<path d="M126.251 116.982C126.251 116.982 132.718 86.4214 144.187 70.9884C169.193 37.342 208.577 37.6781 208.577 37.6781" stroke="#383838" stroke-width="1.19208" stroke-linecap="round"/>
<path d="M126.553 117.026C126.553 117.026 133.133 86.5388 144.603 71.1057C169.609 37.4593 208.577 37.6781 208.577 37.6781" stroke="#383838" stroke-width="1.19208" stroke-linecap="round"/>
<path d="M120.315 92.0748C120.315 92.0748 134.771 66.0905 149.958 54.7015C165 43.4204 193.404 39.4199 193.404 39.4199" stroke="#383838" stroke-width="1.19208"/>
<path d="M319.091 323.285C318.654 323.302 318.216 323.285 317.782 323.234C317.782 323.234 315.809 323.064 314.639 322.675C313.481 322.291 311.838 321.508 311.838 321.508C311.088 321.135 310.432 320.36 310.109 319.561C309.571 318.232 310.044 316.685 310.564 315.431C311.636 312.847 313.368 310.611 314.907 308.298C316.818 305.425 318.624 302.594 320.802 299.908C322.461 297.863 323.921 295.697 325.392 293.516L325.505 293.349C326.973 291.171 328.597 289.113 330.172 287.013C333.495 282.584 336.437 277.944 339.559 273.38C340.792 271.615 342.156 269.945 343.638 268.385C345.182 266.731 347.128 265.5 349.477 265.942C349.536 265.951 349.591 265.979 349.635 266.02C352.131 266.902 354.692 268.468 355.782 270.995C357.035 273.898 355.676 276.843 353.949 279.203C349.486 285.3 345.45 291.659 341.178 297.888C339.203 300.765 337.189 303.616 335.136 306.438C333.238 309.047 331.199 311.572 329.416 314.262C328.164 316.15 327.035 318.147 325.433 319.771C323.778 321.45 321.531 323.179 319.091 323.285Z" fill="#312D2D"/>
<path d="M313.784 321.975C314.717 322.39 315.728 322.675 317.588 322.849C318.966 323.071 320.318 322.974 321.602 322.238C326.686 319.325 327.249 316.421 330.708 311.851C335.609 305.374 340.782 298.057 345.216 291.251C347.72 287.406 350.427 283.276 353.213 279.63C354.809 277.539 356.106 275.532 355.918 272.907C355.686 269.678 352.605 267.38 349.537 266.34L349.388 266.264C347.8 265.891 346.112 266.568 344.876 267.63C343.637 268.692 340.543 272.448 339.667 273.826C335.016 281.121 332.765 284.188 327.406 291.213C326.087 292.943 323.478 297.162 321.745 299.28C316.708 305.435 318.577 303.603 313.504 310.961C308.775 317.823 310.046 319.909 311.766 320.855C312.15 321.119 312.383 321.353 313.784 321.975Z" fill="#D65E2F"/>
<path d="M322.913 262.994C328.02 265.936 330.689 273.235 329.256 278.474C327.823 283.71 323.217 287.842 317.93 289.076C311.94 290.473 305.132 288.065 301.692 282.97C298.251 277.875 298.7 270.367 303.017 265.989C305.097 263.881 307.867 262.56 310.729 261.8C314.786 260.722 319.347 260.782 322.913 262.994ZM317.483 274.217C317.713 273.108 317.789 272.527 317.069 271.61C316.617 270.794 315.587 270.436 314.659 270.528C313.731 270.62 312.882 271.078 312.083 271.561C311.71 271.784 311.332 272.028 311.086 272.388C310.691 272.972 310.733 273.779 311.062 274.403C311.39 275.026 311.963 275.491 312.575 275.84C313.362 276.29 314.279 276.58 315.173 276.435C315.733 276.332 316.25 276.067 316.661 275.673C317.072 275.278 317.357 274.772 317.483 274.217Z" fill="#D65E2F"/>
<path d="M317.358 271.44C315.287 268.359 308.42 271.74 311.117 275.076C312.333 276.58 314.82 277.415 316.506 276.231C318.016 275.169 318.422 272.924 317.358 271.44C317.109 271.092 316.527 271.427 316.779 271.778C317.147 272.31 317.324 272.951 317.279 273.596C317.234 274.241 316.97 274.851 316.532 275.327C315.32 276.598 313.444 276.15 312.195 275.177C311.559 274.682 310.954 273.896 311.174 273.023C311.355 272.305 312.116 271.914 312.708 271.584C313.959 270.886 315.8 270.321 316.779 271.778C317.018 272.135 317.6 271.8 317.358 271.44Z" fill="#333333"/>
<path d="M315.257 289.782C321.414 289.475 327.217 285.342 329.288 279.492C331.406 273.507 328.5 265.927 323.083 262.703C317.271 259.226 308.815 260.659 303.733 264.881C299.034 268.785 297.874 275.765 300.341 281.233C302.883 286.869 309.218 290.084 315.257 289.782ZM302.161 283.062C298.838 278.418 298.904 271.502 302.528 267.038C304.827 264.207 308.371 262.612 311.872 261.872C315.541 261.095 319.473 261.326 322.745 263.283C327.329 266.011 330.015 272.058 329.165 277.311C328.234 283.064 323.09 287.649 317.53 288.821C311.898 290.007 305.542 287.786 302.161 283.062Z" fill="#383838"/>
<path d="M345.826 322.722C340.72 319.78 338.051 312.48 339.484 307.242C340.917 302.005 345.522 297.874 350.81 296.64C356.799 295.242 363.607 297.65 367.048 302.745C370.489 307.841 370.04 315.348 365.722 319.726C363.643 321.834 360.873 323.156 358.011 323.916C353.953 324.993 349.392 324.933 345.826 322.722ZM351.257 311.498C351.027 312.607 350.951 313.189 351.671 314.105C352.122 314.921 353.153 315.279 354.081 315.187C355.009 315.096 355.858 314.637 356.656 314.154C357.03 313.931 357.408 313.687 357.654 313.327C358.049 312.744 358.007 311.937 357.678 311.313C357.349 310.689 356.777 310.224 356.165 309.875C355.378 309.426 354.461 309.135 353.567 309.281C353.007 309.383 352.489 309.648 352.079 310.043C351.668 310.437 351.382 310.943 351.257 311.498Z" fill="#D65E2F"/>
<path d="M351.382 314.275C353.453 317.357 360.32 313.976 357.623 310.64C356.407 309.135 353.92 308.301 352.234 309.485C350.724 310.546 350.317 312.791 351.382 314.275C351.631 314.623 352.213 314.289 351.961 313.937C351.592 313.406 351.416 312.764 351.461 312.119C351.506 311.474 351.769 310.864 352.208 310.389C353.42 309.117 355.296 309.565 356.545 310.538C357.18 311.034 357.786 311.819 357.565 312.693C357.384 313.411 356.624 313.801 356.032 314.131C354.781 314.829 352.94 315.394 351.961 313.937C351.721 313.58 351.14 313.916 351.382 314.275Z" fill="#333333"/>
<path d="M353.483 295.933C347.326 296.241 341.523 300.373 339.452 306.223C337.333 312.209 340.24 319.788 345.657 323.012C351.469 326.489 359.925 325.057 365.007 320.835C369.705 316.93 370.866 309.95 368.399 304.482C365.857 298.846 359.522 295.631 353.483 295.933ZM366.578 302.653C369.901 307.297 369.836 314.213 366.212 318.677C363.913 321.508 360.369 323.103 356.868 323.844C353.199 324.62 349.267 324.39 345.995 322.433C341.411 319.704 338.725 313.657 339.575 308.405C340.506 302.652 345.65 298.066 351.21 296.895C356.842 295.708 363.198 297.929 366.578 302.653Z" fill="#333333"/>
<path d="M126.93 136.949C126.902 136.995 126.873 137.041 126.845 137.088M126.845 137.088C125.138 139.884 123.263 144.515 123.263 144.515L126.845 137.088Z" stroke="black" stroke-width="0.461693" stroke-miterlimit="10" stroke-linecap="round" stroke-linejoin="round"/>
<path d="M60.2109 64.1444C60.2109 64.1444 64.6464 67.3594 67.9595 67.7207C70.7745 68.0276 75.112 66.5286 75.112 66.5286" stroke="black" stroke-width="1.19208"/>
<path d="M21.5352 319.345L21.6074 340.448C26.9086 341.617 37.5092 343.445 37.5023 341.411C37.4986 340.328 36.9502 339.304 36.9258 332.188C36.9119 328.135 37.8279 322.201 37.8179 319.289L21.5352 319.345Z" fill="#FEA597"/>
<path d="M67.1348 318.585L67.2071 339.689C71.0199 340.862 77.3326 342.705 77.3256 340.671C77.3219 339.588 76.9267 338.563 76.9023 331.447C76.8884 327.395 77.5413 321.462 77.5313 318.549L67.1348 318.585Z" fill="#FEA597"/>
<path d="M63.1613 349.347L64.0282 345.09L71.7227 344.051L83.4208 347.256L99.467 349.245C99.7866 349.52 100.43 350.285 100.448 351.14C100.462 351.767 99.1686 353.088 98.0028 354.129C97.2707 354.782 96.3281 355.136 95.3479 355.181C92.0975 355.328 87.198 355.432 85.6137 355.02C83.836 354.557 71.5938 352.524 64.936 351.441C64.3828 351.351 63.8818 351.073 63.5107 350.653C63.1957 350.297 63.0664 349.813 63.1613 349.347Z" fill="#F1F0F0" stroke="black" stroke-width="0.430503" stroke-linejoin="round"/>
<path d="M65.0061 342.258C65.1499 341.802 65.2372 341.226 65.2893 340.651C65.4358 339.036 65.4068 339.069 66.1433 336.502L66.4921 335.673C66.6825 335.22 67.1603 334.959 67.6442 335.043C67.7325 335.058 67.8015 335.127 67.8162 335.216L68.1523 337.226C68.2898 338.048 68.8068 338.764 69.574 339.09C69.9326 339.243 70.3179 339.393 70.6488 339.49C71.0974 339.621 71.6311 339.71 72.1633 339.77C73.7395 339.947 75.155 338.928 75.7344 337.451L75.935 336.94C76.0814 336.567 76.3903 336.281 76.7737 336.165L77.6007 335.913C78.2865 335.704 79.0298 335.942 79.4751 336.504C80.1103 337.305 81.0411 338.456 81.7866 339.28C83.0012 340.622 85.0546 342.567 85.0546 342.567L99.4899 348.491C99.7736 348.608 99.8481 348.975 99.6321 349.193L96.9608 351.886C96.3309 352.521 95.4513 352.843 94.5602 352.766L87.3473 352.138C85.2162 351.953 83.1119 351.534 81.072 350.89L64.5742 345.683C64.0479 345.517 63.8086 344.903 64.0626 344.413C64.3886 343.784 64.7883 342.95 65.0061 342.258Z" fill="#383838" stroke="#383838" stroke-width="0.430503" stroke-linejoin="round"/>
<path d="M79.541 58.4723L79.2451 63.1328L83.5357 60.6176L82.3766 58.4723H79.541Z" fill="#97B0D7"/>
<path d="M16.2663 355.889L17.2685 349.35L28.8948 347.198L46.9263 351.202L71.4812 353.035C71.9877 353.43 73.0235 354.545 73.1145 355.844C73.1811 356.794 71.4557 358.916 69.8342 360.597C68.7969 361.672 67.3858 362.284 65.8955 362.392C61.337 362.72 55.0713 362.834 50.8391 362.848C48.0418 362.858 29.3237 360.144 19.1211 358.945C18.2734 358.846 17.4905 358.461 16.8948 357.85C16.3893 357.331 16.1566 356.605 16.2663 355.889Z" fill="#F1F0F0" stroke="black" stroke-width="0.655594" stroke-linejoin="round"/>
<path d="M18.5468 344.97C18.7316 344.265 18.8216 343.382 18.8581 342.505C18.9609 340.037 19.3597 337.56 20.4787 335.359L21.2559 333.83L22.2491 333.826L23.388 339.054C23.388 339.054 25.4954 339.995 26.9237 340.339C29.322 340.917 33.2337 340.64 33.2337 340.64L35.0833 335.153L37.2319 334.382C38.2596 334.013 39.4078 334.32 40.1269 335.141C41.1526 336.313 42.6541 337.995 43.8492 339.192C45.7963 341.143 49.0643 343.948 49.0643 343.948L71.4614 351.887C71.9016 352.043 72.0421 352.596 71.7298 352.943L67.8669 357.238C66.9559 358.251 65.6421 358.806 64.2808 358.755L53.2631 358.337C50.0079 358.213 46.776 357.733 43.6254 356.905L18.1444 350.211C17.3315 349.997 16.9221 349.082 17.2719 348.318C17.721 347.337 18.2669 346.038 18.5468 344.97Z" fill="#383838" stroke="#383838" stroke-width="0.655594" stroke-linejoin="round"/>
<path d="M152.41 104.126C152.41 104.126 146.701 113.206 139.633 121.638C132.52 130.123 124.033 137.964 119.555 138.988C114.141 143.177 106.686 147.475 102.701 136.946C101.608 134.065 100.96 131.269 100.6 128.724C99.6395 121.989 100.661 117.031 100.661 117.031L108.212 112.842L111.405 115.675L112.857 119.708L115.162 126.083C115.162 126.083 122.749 118.964 130.493 114.223C138.224 109.469 141.297 102.11 141.297 102.11C141.297 102.11 143.626 96.3591 144.173 94.8196C145.08 93.3913 146.735 90.8171 149.062 91.8386C151.803 93.3913 149.38 96.4197 146.735 98.5728C145.702 99.7973 146.291 102.241 146.291 102.241L152.41 104.126Z" fill="#E29C82" stroke="#383838" stroke-width="1.19208"/>
<path d="M59.7176 35.5274L59.7532 45.9298C59.7532 45.9298 58.8025 50.4353 57.5839 53.0913C56.631 55.1682 54.5938 58.1207 54.5938 58.1207C54.5938 58.1207 61.3099 62.9263 66.2595 64.489C71.1881 66.0451 79.41 65.9784 79.41 65.9784L79.41 57.8664C79.41 57.421 79.771 57.0599 80.2164 57.0599C80.2164 57.0599 82.1639 56.9268 83.3758 56.7848C84.1016 56.6997 84.9685 56.7097 85.5917 56.7352C86.1464 56.7578 86.7049 56.8422 87.2521 56.7487C87.7436 56.6647 88.3603 56.4452 88.8313 55.8987C89.7791 54.6634 92.4462 49.6093 93.3404 47.0745C94.9038 42.6429 95.3198 35.4056 95.3198 35.4056C95.3198 35.4056 96.403 27.8467 96.0836 22.8975C95.8905 19.9033 95.8939 18.0391 94.5086 15.3776C92.285 11.1058 89.2767 9.27495 84.6359 7.98794C79.8415 6.6583 76.5961 7.58881 71.979 9.44268C65.6789 11.9723 59.2668 21.3007 59.2668 21.3007C59.2668 21.3007 56.5009 22.0019 55.5092 23.5024C54.7391 24.6675 54.4917 28.4015 54.4917 28.4015C54.4917 28.4015 54.5107 31.66 55.5402 32.5629C58.3619 35.0376 59.7176 35.5274 59.7176 35.5274Z" fill="#E29C82"/>
<path d="M88.5858 56.5941C88.5858 56.5941 92.2652 50.89 93.7939 46.8744C95.6475 42.0052 95.6437 33.9553 95.6437 33.9553M54.5938 58.1207C54.5938 58.1207 56.631 55.1682 57.5839 53.0913C58.8025 50.4353 59.7532 45.9298 59.7532 45.9298L59.7176 35.5274C59.7176 35.5274 58.3619 35.0376 55.5402 32.5629C54.5107 31.66 54.4917 28.4015 54.4917 28.4015C54.4917 28.4015 54.7391 24.6675 55.5092 23.5024C56.5009 22.0019 59.2668 21.3007 59.2668 21.3007C59.2668 21.3007 65.6789 11.9723 71.979 9.44268C76.5961 7.58881 79.8415 6.6583 84.6359 7.98794C89.2767 9.27495 92.285 11.1058 94.5086 15.3776C95.8939 18.0391 95.8905 19.9033 96.0836 22.8975C96.403 27.8467 95.3198 35.4056 95.3198 35.4056C95.3198 35.4056 94.9038 42.6429 93.3404 47.0745C92.4462 49.6093 89.7791 54.6634 88.8313 55.8987C88.3603 56.4452 87.7436 56.6647 87.2521 56.7487C86.7049 56.8422 86.1464 56.7578 85.5917 56.7352C84.9685 56.7097 84.1016 56.6997 83.3758 56.7848C82.1639 56.9268 80.2164 57.0599 80.2164 57.0599V57.0599C79.771 57.0599 79.41 57.421 79.41 57.8664L79.41 65.9784C79.41 65.9784 71.1881 66.0451 66.2595 64.489C61.3099 62.9263 54.5938 58.1207 54.5938 58.1207Z" stroke="#403C3B" stroke-width="0.596041" stroke-linecap="round"/>
<path d="M54.9851 35.4007C55.4827 38.9177 54.3161 44.0349 52.6346 45.3369C52.6346 45.3369 54.4652 44.6138 56.1605 44.6138C57.8558 44.6138 60.4257 45.3369 60.4257 45.3369L61.0757 37.296L57.3559 24.4395C57.3559 24.4395 59.1584 24.3018 60.3551 24.7179C63.2194 25.7138 63.0361 31.8016 63.0361 31.8016C63.0361 31.8016 64.6153 17.8195 65.7311 18.0745C71.5424 19.4029 70.1536 19.4029 72.9615 19.4029L81.7976 19.4029L88.5377 19.4029C96.9858 18.6384 97.7482 13.579 97.7482 13.579C97.7482 13.579 94.9192 12.029 93.0395 11.6944C88.5342 10.8926 86.4448 11.3668 81.7976 10.3455C77.0088 9.29324 69.8597 7.95356 67.2451 8.81003C61.2705 10.7671 58.3943 14.179 57.3314 17.3109C56.2686 20.4427 54.9769 24.4077 54.4502 28.4445C54.093 31.1815 54.8417 34.3868 54.9851 35.4007Z" fill="#383838" stroke="#403C3B" stroke-width="0.655594" stroke-linejoin="round"/>
<ellipse cx="77.9347" cy="32.8995" rx="1.6909" ry="3.10559" transform="rotate(-11.8496 77.9347 32.8995)" fill="#403C3B"/>
<path d="M79.6545 32.967C79.7951 34.0168 79.618 34.9609 79.2143 35.4963L79.2096 35.4955C78.7332 35.4119 78.4464 34.7781 78.5689 34.0799C78.6914 33.3816 79.1768 32.8832 79.6532 32.9668L79.6545 32.967Z" fill="white"/>
<ellipse cx="90.8052" cy="32.6213" rx="1.67572" ry="3.0777" transform="rotate(-7.33046 90.8052 32.6213)" fill="#403C3B"/>
<path fill-rule="evenodd" clip-rule="evenodd" d="M92.5085 32.8827C92.5503 33.8715 92.3199 34.7391 91.9143 35.2375C91.4533 35.1835 91.1172 34.6033 91.1583 33.9188C91.2003 33.2175 91.6222 32.6722 92.1006 32.7008C92.2519 32.7099 92.3907 32.7753 92.5085 32.8827Z" fill="white"/>
<path d="M115.616 125.813C115.588 125.859 115.559 125.905 115.531 125.952M115.531 125.952C113.824 128.748 111.949 133.379 111.949 133.379L115.531 125.952Z" stroke="black" stroke-width="0.461693" stroke-miterlimit="10" stroke-linecap="round" stroke-linejoin="round"/>
<path d="M151.658 90.232L141.266 110.644L139.168 114.648C138.774 115.401 139.272 116.314 140.119 116.389L152.865 117.516C153.36 117.56 153.83 117.292 154.045 116.844L165.747 92.464C166.105 91.7179 165.612 90.8428 164.789 90.7618L152.837 89.5864C152.349 89.5384 151.881 89.7946 151.658 90.232Z" fill="#DC3642" stroke="#383838" stroke-width="1.19208" stroke-linejoin="round"/>
<path fill-rule="evenodd" clip-rule="evenodd" d="M157.067 95.9532C158.984 96.4669 159.723 98.3316 158.718 100.118C157.712 101.904 155.343 102.936 153.426 102.423C151.509 101.909 150.769 100.044 151.775 98.2577C152.78 96.4713 155.149 95.4395 157.067 95.9532Z" fill="white" fill-opacity="0.12"/>
<path fill-rule="evenodd" clip-rule="evenodd" d="M154.373 98.5093L154.856 98.6386C154.724 98.5665 154.532 98.5172 154.373 98.5093ZM156.543 99.338L156.281 99.8043C156.42 99.8199 156.567 99.8095 156.692 99.7668C156.828 99.7204 156.851 99.6726 156.806 99.5745C156.759 99.4729 156.672 99.3949 156.543 99.338ZM156.86 100.675L156.871 100.648C156.95 100.568 157.155 100.207 157.202 100.125C157.389 99.7908 157.324 99.8803 157.554 99.5472C157.706 99.3498 157.859 99.153 158.013 98.9598C158.067 98.8923 158.311 98.5783 158.353 98.5097C158.391 98.4483 158.421 98.396 158.394 98.3573L157.801 98.4238C157.674 98.4548 157.31 98.5414 157.241 98.5944L157.278 98.8295C157.278 98.9141 157.237 98.9045 157.237 98.9046C157.044 98.6983 157.15 98.8056 157.02 98.6074C156.815 98.2947 156.432 97.9574 156.012 97.8206C155.854 97.7692 155.626 97.7496 155.459 97.7494C155.158 97.749 155.089 97.7947 155.138 97.5643C155.168 97.4206 155.172 97.2753 155.184 97.1343C155.195 97.0102 155.22 96.8105 155.118 96.7573L154.032 97.6838C153.676 98.018 153.305 98.2612 152.943 98.5881C152.468 99.0171 151.943 99.6957 151.417 100.223C151.328 100.313 150.941 100.677 150.909 100.75C150.896 100.837 151.183 101.096 151.256 101.164C152.024 103.021 155.714 102.89 156.187 102.402C156.246 102.272 156.086 101.827 156.17 101.577C156.242 101.361 156.807 100.833 156.86 100.675L156.86 100.675ZM158.115 98.5867L158.07 98.6423L158.061 98.6401C158.117 98.6554 158.011 98.7539 157.933 98.8725C157.852 98.9974 157.725 99.2737 157.507 99.0718C157.449 99.0178 157.424 98.9572 157.4 98.8977C157.328 98.7117 157.541 98.5978 157.71 98.5598C157.8 98.5397 157.876 98.5271 157.972 98.5135C158.032 98.505 158.272 98.5118 158.115 98.5867ZM154.787 97.6349C154.759 97.6268 154.774 97.6268 154.733 97.6279C154.729 97.628 154.725 97.6289 154.722 97.6291C154.719 97.6293 154.711 97.6337 154.711 97.631C154.711 97.6282 154.704 97.6325 154.7 97.6333C154.641 97.628 154.582 97.6127 154.523 97.6071C154.455 97.6007 154.403 97.6182 154.356 97.6034C154.416 97.5301 154.864 96.9544 154.989 96.9532C155.12 96.952 155.01 97.2063 154.99 97.2954C154.956 97.4472 155.004 97.5278 154.83 97.6468L154.787 97.6349Z" fill="white"/>
<path fill-rule="evenodd" clip-rule="evenodd" d="M150.785 100.608C150.808 100.643 150.859 100.739 150.908 100.75C150.94 100.677 151.328 100.312 151.417 100.223C151.942 99.6957 152.467 99.017 152.942 98.588C153.304 98.2612 153.676 98.018 154.032 97.6838L155.117 96.7572C155.22 96.8105 155.195 97.0102 155.184 97.1342C155.172 97.2752 155.168 97.4205 155.138 97.5642C155.089 97.7947 155.158 97.7489 155.459 97.7493C155.626 97.7496 155.853 97.7691 156.011 97.8205C156.432 97.9574 156.815 98.2946 157.02 98.6074C157.149 98.8056 157.043 98.6982 157.236 98.9045C157.237 98.9045 157.278 98.914 157.278 98.8294L157.24 98.5943C157.31 98.5413 157.674 98.4548 157.801 98.4237L158.394 98.3573C158.42 98.396 158.39 98.4483 158.353 98.5096C158.311 98.5782 158.067 98.8922 158.013 98.9598C157.858 99.1529 157.706 99.3497 157.554 99.5472C157.324 99.8803 157.388 99.7908 157.201 100.125C157.171 100.178 157.074 100.345 156.987 100.48C156.927 100.573 156.864 100.647 156.803 100.74C156.664 100.95 156.233 101.387 156.169 101.577C156.085 101.827 156.246 102.272 156.187 102.402C156.237 102.438 156.374 102.388 156.444 102.376C156.538 102.186 156.269 101.892 156.46 101.525C156.544 101.363 156.689 101.201 156.809 101.058C157.004 100.825 157.341 100.333 157.492 100.075C157.615 99.8658 157.66 99.7431 157.818 99.5391C158.055 99.2317 158.293 98.9224 158.534 98.6169C158.665 98.4502 158.803 98.2763 158.578 98.2083C158.308 98.1267 157.829 98.2519 157.557 98.3445C157.475 98.3725 157.401 98.4114 157.326 98.4445C157.189 98.5061 157.182 98.4702 157.129 98.3924C156.939 98.1086 156.36 97.7352 155.94 97.6377C155.734 97.5901 155.594 97.5986 155.377 97.5977C155.4 97.4054 155.42 97.1988 155.434 97.003C155.45 96.7884 155.466 96.5938 155.183 96.5306C155.099 96.5479 155.056 96.5126 154.869 96.6546C154.621 96.8434 154.244 97.18 154.037 97.4043C153.851 97.6058 153.684 97.756 153.483 97.9058C153.273 98.0619 153.122 98.1986 152.918 98.3811C152.361 98.8804 152.334 98.8984 151.843 99.4697C151.672 99.6694 151.499 99.8641 151.317 100.045C151.207 100.154 150.853 100.498 150.785 100.608Z" fill="#231F20"/>
<path fill-rule="evenodd" clip-rule="evenodd" d="M154.833 99.7592C154.85 99.7607 155.128 99.8759 155.147 99.9451C155.05 99.9877 154.888 100.067 154.786 100.062C154.763 100.029 154.742 99.7516 154.833 99.7592ZM154.617 100.151C154.565 100.249 154.399 100.264 154.29 100.22C154.242 100.2 154.196 100.164 154.154 100.135C153.971 100.012 153.919 100.032 153.961 99.8355C153.976 99.7647 153.889 99.731 153.83 99.7733C153.738 99.8399 153.74 99.9651 153.78 100.033C153.861 100.173 154.161 100.385 154.342 100.396C154.413 100.4 154.467 100.375 154.534 100.411C154.589 100.441 154.602 100.495 154.628 100.53C154.754 100.708 155.428 100.952 155.647 100.601C155.688 100.536 155.694 100.474 155.686 100.427C155.671 100.347 155.603 100.311 155.521 100.29C155.54 100.388 155.582 100.484 155.486 100.575C155.401 100.655 155.251 100.611 155.134 100.588C154.949 100.551 154.509 100.41 154.782 100.235C154.883 100.17 154.971 100.122 155.087 100.104C155.164 100.092 155.364 100.038 155.343 99.9228C155.322 99.8107 155.022 99.6587 154.833 99.6083C154.748 99.5855 154.695 99.6131 154.656 99.6969C154.637 99.7377 154.639 99.7717 154.636 99.8037C154.629 99.8835 154.638 100.109 154.617 100.151Z" fill="#231F20"/>
<path fill-rule="evenodd" clip-rule="evenodd" d="M155.927 99.4705C155.968 99.4393 156.142 99.4249 156.194 99.4369L156.102 99.595C156.056 99.5863 155.946 99.5009 155.927 99.4705ZM156.394 99.4857C156.446 99.5196 156.546 99.5708 156.563 99.6292L156.526 99.6406C156.523 99.6412 156.496 99.6451 156.489 99.6459C156.461 99.6495 156.44 99.6516 156.415 99.6537C156.362 99.6581 156.324 99.665 156.269 99.6554L156.394 99.4857ZM155.33 99.716L155.324 99.7705C155.376 99.7956 155.427 99.7882 155.468 99.7485C155.512 99.7055 155.519 99.64 155.565 99.6032C155.592 99.5811 155.655 99.571 155.704 99.5636C155.795 99.5497 155.795 99.5791 155.832 99.6189C155.991 99.7898 156.399 99.8665 156.692 99.7668C156.828 99.7204 156.85 99.6726 156.805 99.5745C156.738 99.4282 156.588 99.3309 156.348 99.275C155.875 99.2072 155.775 99.3837 155.66 99.4048C155.589 99.4178 155.576 99.4111 155.522 99.4463C155.45 99.4933 155.35 99.6363 155.33 99.716Z" fill="#231F20"/>
<path fill-rule="evenodd" clip-rule="evenodd" d="M154.752 98.8107C154.819 98.8412 154.882 98.9805 154.841 99.0599C154.753 99.0429 154.674 99.0234 154.602 98.9841L154.752 98.8107ZM154.362 98.6802C154.424 98.6685 154.545 98.6918 154.604 98.7113C154.56 98.7723 154.513 98.796 154.453 98.8899C154.4 98.8538 154.346 98.7415 154.362 98.6802ZM154.228 98.5161C154.037 98.7908 154.282 99.0149 154.469 99.0867C154.578 99.1287 154.854 99.1515 154.824 99.2689C154.804 99.3503 154.718 99.4024 154.773 99.4566C154.827 99.5105 154.911 99.5105 154.954 99.4185C154.993 99.336 154.947 99.3076 154.928 99.2598C154.884 99.1534 155.194 99.1341 155 98.7649C154.912 98.5971 154.461 98.4751 154.228 98.5161Z" fill="#231F20"/>
<path fill-rule="evenodd" clip-rule="evenodd" d="M153.83 100.697C153.86 100.722 153.867 100.708 153.899 100.727C153.931 100.746 153.913 100.748 153.933 100.772C153.966 100.811 154.025 100.796 154.065 100.837C154.118 100.891 154.059 100.879 154.169 100.898C154.236 100.91 154.248 100.95 154.326 100.934C154.357 100.928 154.373 100.915 154.395 100.912C154.456 100.903 154.423 100.919 154.475 100.922C154.523 100.925 154.562 100.891 154.611 100.873C154.653 100.858 154.727 100.866 154.718 100.804C154.696 100.651 154.361 100.973 154.072 100.613C154.041 100.575 153.979 100.435 153.935 100.437C153.885 100.439 153.849 100.518 153.835 100.564C153.829 100.586 153.825 100.609 153.823 100.631C153.818 100.667 153.814 100.671 153.83 100.697Z" fill="#231F20"/>
<path fill-rule="evenodd" clip-rule="evenodd" d="M158.061 98.6401L158.07 98.6422L158.115 98.5866C157.883 98.5714 157.631 98.6388 157.478 98.739L157.533 98.9312C157.563 98.9696 157.63 99.0603 157.692 99.0698L158.061 98.6401Z" fill="#FF1846"/>
<path fill-rule="evenodd" clip-rule="evenodd" d="M158.061 98.6402L157.691 99.0699C157.629 99.0604 157.562 98.9697 157.532 98.9313L157.478 98.7391C157.631 98.6389 157.883 98.5715 158.115 98.5867C158.272 98.5118 158.032 98.505 157.972 98.5135C157.876 98.5271 157.8 98.5398 157.71 98.5598C157.54 98.5978 157.328 98.7117 157.4 98.8977C157.423 98.9573 157.448 99.0178 157.507 99.0718C157.724 99.2737 157.852 98.9974 157.933 98.8725C158.01 98.754 158.117 98.6555 158.061 98.6402Z" fill="#242021"/>
<path fill-rule="evenodd" clip-rule="evenodd" d="M154.7 97.6332C154.704 97.6325 154.711 97.6282 154.711 97.6309C154.711 97.6337 154.719 97.6293 154.722 97.6291C154.724 97.6289 154.729 97.6279 154.732 97.6279C154.774 97.6268 154.759 97.6267 154.787 97.6349C154.845 97.5193 154.88 97.5875 154.916 97.3277C154.932 97.2077 154.953 97.1505 154.988 97.0308C154.949 97.0322 154.953 97.0354 154.917 97.0658C154.777 97.1824 154.608 97.3974 154.492 97.5351C154.654 97.5901 154.724 97.5658 154.7 97.6332Z" fill="#FF1846"/>
<path fill-rule="evenodd" clip-rule="evenodd" d="M154.7 97.6332C154.724 97.5658 154.654 97.5901 154.492 97.5351C154.608 97.3974 154.777 97.1824 154.917 97.0658C154.953 97.0354 154.949 97.0322 154.988 97.0308C154.953 97.1505 154.932 97.2077 154.915 97.3277C154.88 97.5875 154.845 97.5193 154.787 97.6349L154.829 97.6467C155.003 97.5278 154.956 97.4472 154.99 97.2954C155.009 97.2062 155.12 96.9519 154.988 96.9532C154.864 96.9544 154.416 97.5301 154.356 97.6034C154.403 97.6182 154.455 97.6007 154.523 97.6071C154.582 97.6127 154.641 97.628 154.7 97.6332Z" fill="#242021"/>
<path fill-rule="evenodd" clip-rule="evenodd" d="M154.787 100.062C154.888 100.067 155.051 99.9877 155.148 99.945C155.129 99.8758 154.851 99.7606 154.834 99.7592C154.743 99.7515 154.764 100.029 154.787 100.062Z" fill="#FF1846"/>
<path fill-rule="evenodd" clip-rule="evenodd" d="M154.602 98.9842C154.674 99.0234 154.752 99.043 154.841 99.06C154.882 98.9805 154.819 98.8413 154.752 98.8108L154.602 98.9842Z" fill="#FDFDFD"/>
<path fill-rule="evenodd" clip-rule="evenodd" d="M154.362 98.6802C154.346 98.7415 154.4 98.8538 154.453 98.8899C154.513 98.796 154.56 98.7724 154.604 98.7114C154.545 98.6918 154.424 98.6685 154.362 98.6802Z" fill="#FDFDFD"/>
<path fill-rule="evenodd" clip-rule="evenodd" d="M156.269 99.6554C156.324 99.6649 156.362 99.658 156.415 99.6536C156.44 99.6515 156.461 99.6495 156.489 99.6459C156.496 99.6451 156.523 99.6411 156.526 99.6405L156.563 99.6291C156.546 99.5708 156.446 99.5195 156.395 99.4857L156.269 99.6554Z" fill="#FDFDFD"/>
<path fill-rule="evenodd" clip-rule="evenodd" d="M155.927 99.4705C155.946 99.5009 156.056 99.5863 156.102 99.595L156.194 99.4369C156.142 99.4249 155.967 99.4393 155.927 99.4705Z" fill="#FDFDFD"/>
<path fill-rule="evenodd" clip-rule="evenodd" d="M154.251 99.9359C154.22 99.9389 154.188 99.9435 154.18 99.9951C154.174 100.027 154.206 100.046 154.241 100.042C154.314 100.035 154.345 99.927 154.251 99.9359Z" fill="#242021"/>
<path fill-rule="evenodd" clip-rule="evenodd" d="M154.12 99.7909L154.085 99.8495C154.111 99.894 154.129 99.9001 154.186 99.8813C154.245 99.8155 154.227 99.7957 154.158 99.7789C154.154 99.7806 154.123 99.7902 154.12 99.7909Z" fill="#242021"/>
<path fill-rule="evenodd" clip-rule="evenodd" d="M154.975 100.35C154.924 100.427 154.957 100.447 155.038 100.442C155.08 100.397 155.08 100.384 155.069 100.346L155.02 100.333L154.975 100.35Z" fill="#242021"/>
<path fill-rule="evenodd" clip-rule="evenodd" d="M155.355 100.439L155.394 100.361L155.315 100.339C155.217 100.401 155.248 100.471 155.355 100.439Z" fill="#242021"/>
<path d="M146.998 104.476L147.566 102.676L148.353 102.887C148.501 102.927 148.611 102.982 148.682 103.052C148.753 103.121 148.795 103.198 148.808 103.282C148.822 103.366 148.815 103.448 148.79 103.528C148.765 103.609 148.723 103.678 148.667 103.735C148.61 103.792 148.536 103.827 148.444 103.842C148.503 103.882 148.546 103.93 148.575 103.985C148.605 104.04 148.621 104.097 148.624 104.157C148.628 104.217 148.621 104.275 148.603 104.33C148.583 104.394 148.552 104.454 148.51 104.512C148.47 104.569 148.418 104.617 148.354 104.655C148.29 104.694 148.213 104.718 148.124 104.728C148.036 104.738 147.935 104.727 147.821 104.697L146.998 104.476ZM147.434 104.254L147.941 104.39C148.007 104.408 148.061 104.41 148.104 104.398C148.149 104.385 148.184 104.364 148.209 104.335C148.235 104.305 148.254 104.273 148.264 104.24C148.277 104.199 148.281 104.157 148.274 104.115C148.269 104.073 148.246 104.033 148.206 103.997C148.166 103.96 148.102 103.93 148.013 103.906L147.58 103.79L147.434 104.254ZM147.675 103.49L148.082 103.6C148.181 103.626 148.26 103.627 148.319 103.602C148.379 103.576 148.419 103.531 148.439 103.468C148.449 103.435 148.453 103.402 148.451 103.368C148.449 103.333 148.434 103.3 148.405 103.271C148.377 103.241 148.329 103.217 148.261 103.199L147.806 103.076L147.675 103.49Z" fill="white"/>
<path d="M148.822 104.965L149.362 103.254L149.734 103.196L149.148 105.052L148.822 104.965Z" fill="white"/>
<path d="M150.038 105.324C149.889 105.284 149.789 105.208 149.736 105.095C149.683 104.982 149.683 104.842 149.736 104.674L149.995 103.854L150.321 103.941L150.093 104.661C150.058 104.772 150.052 104.858 150.074 104.918C150.096 104.979 150.149 105.021 150.231 105.043C150.32 105.067 150.393 105.059 150.451 105.019C150.509 104.979 150.555 104.906 150.589 104.8L150.818 104.075L151.142 104.162L150.727 105.476L150.403 105.389L150.442 105.265C150.385 105.306 150.322 105.331 150.254 105.34C150.187 105.35 150.115 105.345 150.038 105.324Z" fill="white"/>
<path d="M151.674 105.763C151.546 105.728 151.445 105.671 151.37 105.589C151.295 105.508 151.249 105.409 151.232 105.293C151.215 105.176 151.229 105.047 151.273 104.908C151.317 104.766 151.381 104.651 151.464 104.561C151.548 104.472 151.644 104.413 151.754 104.383C151.864 104.352 151.982 104.353 152.108 104.387C152.216 104.416 152.306 104.464 152.38 104.532C152.454 104.6 152.502 104.688 152.525 104.794C152.548 104.9 152.537 105.024 152.492 105.166C152.485 105.188 152.475 105.216 152.463 105.248C152.453 105.279 152.44 105.311 152.426 105.342L151.558 105.11C151.542 105.171 151.54 105.227 151.55 105.279C151.561 105.33 151.584 105.374 151.62 105.411C151.655 105.447 151.702 105.473 151.761 105.489C151.825 105.506 151.883 105.511 151.937 105.503C151.99 105.494 152.045 105.472 152.101 105.437L152.228 105.678C152.151 105.727 152.065 105.761 151.972 105.778C151.879 105.796 151.78 105.791 151.674 105.763ZM151.638 104.859L152.2 105.01C152.213 104.951 152.216 104.898 152.207 104.851C152.199 104.803 152.179 104.763 152.147 104.73C152.114 104.698 152.071 104.674 152.015 104.659C151.939 104.639 151.866 104.644 151.798 104.676C151.729 104.708 151.676 104.769 151.638 104.859Z" fill="white"/>
<path d="M153.125 106.151C152.954 106.106 152.839 106.009 152.78 105.861C152.721 105.713 152.726 105.531 152.794 105.315C152.838 105.178 152.899 105.064 152.977 104.974C153.056 104.883 153.145 104.82 153.246 104.785C153.347 104.75 153.453 104.747 153.563 104.777C153.682 104.808 153.765 104.877 153.813 104.983L153.97 104.488L154.34 104.43L153.753 106.286L153.429 106.199L153.463 106.091C153.37 106.167 153.257 106.187 153.125 106.151ZM153.275 105.858C153.331 105.873 153.381 105.877 153.426 105.868C153.472 105.859 153.514 105.839 153.553 105.807L153.721 105.276C153.705 105.233 153.679 105.195 153.642 105.163C153.606 105.131 153.564 105.109 153.516 105.096C153.429 105.073 153.35 105.087 153.282 105.141C153.213 105.193 153.16 105.28 153.121 105.403C153.096 105.484 153.085 105.555 153.088 105.619C153.092 105.681 153.11 105.733 153.141 105.774C153.173 105.815 153.217 105.843 153.275 105.858Z" fill="white"/>
<path d="M154.189 106.403L154.604 105.089L154.929 105.176L154.514 106.49L154.189 106.403ZM154.819 104.968C154.766 104.954 154.727 104.924 154.701 104.877C154.675 104.829 154.671 104.779 154.687 104.728C154.703 104.676 154.736 104.638 154.784 104.612C154.833 104.585 154.884 104.578 154.937 104.593C154.992 104.607 155.032 104.638 155.057 104.683C155.082 104.729 155.086 104.778 155.07 104.83C155.053 104.883 155.02 104.922 154.971 104.949C154.923 104.976 154.872 104.983 154.819 104.968Z" fill="white"/>
<path d="M154.785 107.129L155.365 105.293L155.69 105.38L155.66 105.477C155.76 105.411 155.871 105.395 155.993 105.428C156.107 105.458 156.196 105.513 156.261 105.59C156.326 105.667 156.365 105.763 156.377 105.878C156.388 105.993 156.372 106.121 156.327 106.263C156.283 106.401 156.222 106.516 156.143 106.607C156.065 106.698 155.975 106.761 155.873 106.796C155.772 106.83 155.666 106.832 155.555 106.803C155.494 106.786 155.443 106.761 155.401 106.726C155.359 106.691 155.328 106.647 155.307 106.595L155.156 107.071L154.785 107.129ZM155.604 106.482C155.692 106.506 155.771 106.491 155.839 106.438C155.908 106.384 155.962 106.297 156 106.176C156.038 106.055 156.043 105.955 156.016 105.875C155.988 105.795 155.931 105.743 155.844 105.72C155.792 105.706 155.742 105.703 155.696 105.711C155.651 105.719 155.608 105.739 155.567 105.77L155.4 106.301C155.411 106.344 155.435 106.381 155.471 106.413C155.508 106.446 155.552 106.469 155.604 106.482Z" fill="white"/>
<path d="M18.8839 203.432C18.1324 192.713 20.2703 173.466 21.4332 165.182L99.7405 176.172C99.3802 190.593 98.5343 219.495 98.0411 236.14C97.7927 244.525 96.996 252.865 95.6355 261.142C92.7809 278.51 87.6061 309.681 84.7044 325.257C84.7044 325.257 80.1084 325.273 74.1623 324.85C70.5281 324.591 64.865 324.074 64.865 324.074L62.4777 250.792C62.452 250.003 60.9584 249.85 60.7672 250.615C58.516 259.631 54.0637 276.972 49.5664 293.895C46.3937 305.834 43.6556 315.886 41.2772 324.155C41.2772 324.155 34.9751 323.812 30.9941 323.156C27.2843 322.545 21.6096 321.006 21.6096 321.006C21.6096 321.006 20.5727 297.271 20.8005 282.339C21.0934 263.134 22.7772 244.519 22.7772 244.519C21.7926 235.29 19.6354 214.152 18.8839 203.432Z" fill="#374863" stroke="#222529" stroke-width="1.19208" stroke-linejoin="round"/>
<path d="M68.9665 201.116C68.0441 201.116 64.09 237.075 60.6357 250.176C60.6357 250.176 61.2051 250.228 61.5632 250.173C63.4759 249.882 62.4814 255.025 62.4814 255.025L63.0018 264.556C63.7721 256.326 66.706 245.876 67.7326 235.276C69.557 216.441 69.889 201.117 68.9665 201.116Z" fill="#222529"/>
<path d="M27.1483 186.315C27.0354 186.425 26.9325 186.522 26.841 186.608C26.6908 186.395 26.5052 186.135 26.2991 185.852C25.7693 185.126 25.0878 184.229 24.5188 183.61C22.5363 181.449 15.2327 173.444 10.4245 164.697C7.33764 159.081 4.87326 153.21 3.17955 148.739C2.33315 146.505 1.68023 144.622 1.23917 143.299C1.01866 142.638 0.85116 142.116 0.738964 141.761C0.687046 141.597 0.646974 141.468 0.618976 141.377L0.648459 141.263C0.695729 141.082 0.765989 140.815 0.857754 140.47C1.04129 139.781 1.31083 138.782 1.6545 137.545C2.34191 135.072 3.32558 131.649 4.51054 127.852C5.07282 126.053 7.07338 120.77 9.27485 114.955C9.56014 114.202 9.84881 113.439 10.1382 112.675C12.6485 106.039 15.2099 99.2161 16.0002 96.5555C16.2386 95.7716 16.461 95.0267 16.6701 94.3269C16.8018 93.8858 16.9282 93.4626 17.0498 93.0589C20.5472 95.6071 26.2078 98.4421 33.2382 99.2984L32.6218 101.335L32.6133 101.363L32.6076 101.392L29.5948 116.587L23.8788 130.737L20.2011 139.423L20.1629 139.513L20.1556 139.61L19.1601 152.919L19.1496 153.059L19.203 153.19L21.9633 159.915L21.9861 159.97L22.0195 160.02L30.2591 172.324L30.2591 172.324L32.2983 175.367L32.3067 175.38L32.3158 175.392L33.7075 177.256C32.4241 180.077 30.6285 182.491 29.1241 184.224C28.3457 185.121 27.649 185.831 27.1483 186.315Z" fill="#E29C82" stroke="black" stroke-width="1.19208"/>
<path d="M29.8045 60.6624C27.8626 61.2794 23.4855 68.9069 21.0724 73.3529C19.9344 75.4495 19.0433 77.6624 18.3402 79.9419L9.57807 108.348C8.88905 110.581 9.92098 112.983 12.0475 113.954C13.7895 114.749 15.9758 115.709 18.2048 116.59C21.2538 117.796 24.3549 117.756 26.8203 117.359C27.7389 117.211 28.6834 117.53 29.3879 118.109C29.4549 118.164 29.5198 118.221 29.5823 118.281C30.2979 118.963 30.698 119.929 30.4377 120.91L26.5875 135.416L26.5875 143.431L25.6174 147.191L23.1807 165.501C23.1807 165.501 29.6735 168.139 38.692 171.961C47.2891 175.604 58.1483 180.39 69.1828 182.264C81.0027 184.272 95.7674 180.562 95.7674 180.562L105.927 175.744C105.927 175.744 101.696 170.255 101.172 167.176C101.138 166.976 101.133 166.784 101.133 166.581C101.138 164.203 101.178 148.021 101.384 142.134C101.642 134.737 99.8321 123.245 99.8321 123.245C102.917 123.521 103.935 123.231 107.077 122.668C110.22 122.106 113.173 120.781 113.173 120.781C113.173 120.781 103.365 83.6575 102.459 81.108C99.587 73.0268 88.2698 66.0724 84.1493 63.7599C83.1641 63.207 82.05 62.9438 80.9202 62.9438L79.2684 62.9438C72.0886 68.0772 62.0132 65.4629 58.2351 57.4862L57.3737 55.6674C56.8585 54.5797 55.4749 54.2384 54.513 54.9618L54.2634 55.1494C54.2634 55.1494 52.5977 55.4561 50.0783 55.9512C44.5722 57.0332 34.9885 59.0152 29.8045 60.6624Z" fill="#97B0D7"/>
<path d="M29.5194 118.383C29.983 117.633 33.0155 112.535 35.1169 106.631C37.2002 100.778 38.3532 94.1268 38.692 91.6986M29.3714 118.136C29.3714 118.136 32.2055 113.442 35.3853 104.88C37.222 99.9337 38.5438 92.1989 38.5438 92.1989M35.258 104.814C35.258 104.814 33.6899 108.955 32.4562 111.505C31.2658 113.967 29.0837 117.64 29.0837 117.64M29.8045 60.6624C27.8626 61.2794 23.4855 68.9069 21.0724 73.3529C19.9344 75.4495 19.0433 77.6624 18.3402 79.9419L9.57807 108.348C8.88905 110.581 9.92098 112.983 12.0475 113.954C13.7895 114.749 15.9758 115.709 18.2048 116.59C21.2538 117.796 24.3549 117.756 26.8203 117.359C28.8279 117.035 30.9594 118.945 30.4377 120.91L26.5875 135.416L26.5875 143.431L25.6174 147.191L23.1807 165.501C23.1807 165.501 29.6735 168.139 38.692 171.961C47.2891 175.604 58.1483 180.39 69.1828 182.264C81.0027 184.272 95.7674 180.562 95.7674 180.562L105.927 175.744C105.927 175.744 101.696 170.255 101.172 167.176C101.138 166.976 101.133 166.784 101.133 166.581C101.138 164.203 101.178 148.021 101.384 142.134C101.642 134.737 99.8321 123.245 99.8321 123.245C102.917 123.521 103.935 123.231 107.077 122.668C110.22 122.106 113.173 120.781 113.173 120.781C113.173 120.781 103.365 83.6575 102.459 81.108C99.587 73.0268 88.2698 66.0724 84.1493 63.7599C83.1641 63.207 82.05 62.9438 80.9202 62.9438L79.2684 62.9438V62.9438C72.0886 68.0772 62.0132 65.4629 58.2351 57.4862L57.3737 55.6674C56.8585 54.5797 55.4749 54.2384 54.513 54.9618L54.2634 55.1494C54.2634 55.1494 52.5977 55.4561 50.0783 55.9512C44.5722 57.0332 34.9885 59.0152 29.8045 60.6624Z" stroke="#383838" stroke-width="1.19208" stroke-linecap="round" stroke-linejoin="round"/>
<path d="M34.3944 177.18C31.7487 183.24 26.7388 187.505 26.7388 187.505C26.7388 187.505 25.1689 185.199 24.0799 184.013C22.0971 181.852 14.7487 173.801 9.90236 164.984C3.69221 153.686 0 141.39 0 141.39C0 141.39 1.56725 135.284 3.94177 127.674C5.22549 123.569 15.841 119.718 15.841 119.718L26.8028 119.247L24.4298 130.965L20.7502 139.655C20.7502 139.655 20.0969 146.251 21.2695 151.329C21.9082 154.095 23.4763 158.433 23.4763 158.433L30.7545 171.992L32.7937 175.036L34.3944 177.18Z" fill="#E29C82"/>
<path d="M6.09798 123.697C6.09798 123.697 3.49631 129.014 1.79119 134.437C0.0860711 139.86 0.102545 141.632 0.102545 141.632C0.102545 141.632 6.30422 160.3 11.2716 166.791C17.9184 175.475 18.6229 177.321 26.5702 186.262" stroke="#383838" stroke-width="1.19208" stroke-linecap="round"/>
<path d="M20.4716 139.632C18.9931 140.384 14.1931 138.194 10.4937 137.533C11.0912 139.024 15.3439 140.021 17.6434 139.632" stroke="#383838" stroke-width="1.19208" stroke-linecap="round" stroke-linejoin="round"/>
<path d="M23.5052 189.892C25.9281 188.122 29.0142 185.486 31.7485 182.159C34.2193 179.153 36.4621 175.501 36.9759 173.924M23.7246 189.891L31.9862 182.159L35.5367 176.993C35.864 176.546 36.5058 175.608 36.4544 175.43C36.4031 175.252 36.502 175.5 36.5578 175.647L31.9871 182.435L23.8871 189.965" stroke="#383838" stroke-width="0.655594" stroke-linecap="round" stroke-linejoin="round"/>
<path d="M25.9481 125.435C24.3872 129.125 21.1293 137.44 20.5843 141.186C20.3061 143.099 20.3485 150.487 23.0533 157.278C26.971 167.115 34.1444 176.895 34.5473 176.946" stroke="#383838" stroke-width="1.19208" stroke-linecap="round" stroke-linejoin="round"/>
<path d="M86.4568 37.9141C86.4743 37.5809 86.1761 37.002 85.457 36.0197C84.7553 35.055 84.387 34.6691 84.2467 34.7919C84.1239 34.9147 84.2291 35.2304 84.5799 35.8092C84.8781 36.2653 85.2816 36.9143 85.5096 37.2301C85.8779 37.7563 85.8955 37.8264 85.6499 38.3176C85.5096 38.6158 85.0886 39.0543 84.7378 39.3174C84.3694 39.5805 84.0362 39.8085 83.9835 39.8436C83.9309 39.8787 83.9485 40.019 84.0362 40.1594C84.1414 40.3874 84.2642 40.3699 84.8781 40.0366C85.2816 39.8085 85.7902 39.3525 86.0183 39.0192C86.2463 38.6859 86.4568 38.1773 86.4568 37.9141Z" fill="#383838"/>
<path d="M81.8394 48.5146C82.7949 49.0809 85.6802 48.77 87.0605 47.2834" stroke="#403C3B" stroke-width="1.19208" stroke-linecap="round" stroke-linejoin="round"/>
<path d="M92.7624 19.312C86.1842 18.5908 68.8167 18.5908 68.8167 18.5908L63.4363 18.5908L62.3197 18.5908L55.0387 24.3895C53.7887 18.0168 54.7042 13.1028 54.7045 11.8748C54.7045 11.8748 56.3804 3.1459 65.3637 4.10224C69.9242 4.58395 75.5971 7.31741 81.1512 6.76286C87.339 6.14504 93.2466 2.16741 94.5486 1.42047C95.0856 1.42047 94.5486 5.43451 92.7624 7.92774C94.5486 8.26773 95.9172 6.19571 97.3134 4.41296C98.4941 2.90539 98.6941 2.00451 99.1808 0.0202415C99.2011 -0.0623416 99.2771 -0.168925 99.3737 -0.284814C99.5903 -0.54458 100.209 -0.49878 100.373 -0.20313C101.068 1.23218 101.229 2.15382 101.438 2.8737C101.582 3.37376 102.014 5.28573 102.014 8.72775C102.014 11.3254 101.799 11.1491 101.438 12.6039C101.054 14.1486 100.126 15.9484 100.126 15.9484C100.126 15.9484 99.5977 20.7492 92.7624 19.312Z" fill="#383838"/>
<path d="M54.5038 30.3737C54.4095 33.8546 56.1339 37.3924 59.3124 37.8825C60.0262 37.9925 61.1618 37.8761 61.1618 37.8761L63.058 31.9387C63.058 31.9387 63.6445 22.9486 58.5622 23.6637C55.5296 24.0903 54.5867 27.3124 54.5038 30.3737Z" fill="#E29C82"/>
<path d="M57.0204 29.6363C57.0204 29.6363 58.2505 26.374 59.1663 27.2357C60.6868 28.6665 60.6963 31.4585 60.6963 31.4585" stroke="#403C3B" stroke-width="0.655594" stroke-linecap="round" stroke-linejoin="round"/>
<path d="M67.6233 42.5501C66.1932 41.3556 64.2863 39.5425 63.3726 38.5399L61.3913 37.2616C61.3913 37.2616 60.9071 38.4765 60.9071 40.6397C60.634 45.1459 61.0866 44.8874 61.3913 45.2515C61.6959 45.6156 62.7258 46.6578 63.2663 47.1398C63.8068 47.6218 63.936 47.8886 64.6112 48.5498C65.2864 49.2111 65.186 49.1175 65.7428 49.6208C66.2995 50.1242 66.4459 50.2914 66.4459 50.2914C66.4459 50.2914 66.2962 50.3472 67.6409 51.4044C68.9857 52.4616 70.1866 53.4342 70.1866 53.4342L71.9946 55.3299C72.8945 56.2735 74.1414 56.8073 75.4452 56.8073H75.887H80.4159H83.8479C85.7557 56.8073 87.9232 56.9837 88.5885 56.4991C89.2537 56.0144 89.3305 55.2661 89.6682 54.5196C89.9066 54.0076 91.2614 51.9784 91.9368 50.1226C92.5923 48.2881 92.7281 48.5901 93.0214 47.1609C93.3148 45.7318 93.1636 45.6915 93.0215 45.4166C92.8794 45.1416 92.2546 44.0433 91.9368 43.4674C91.4203 42.5715 91.2813 42.4435 90.5066 42.3582C90.0498 42.2942 88.0634 42.1662 86.0969 42.0382C84.282 41.9201 80.0132 41.7111 77.0704 41.2771C76.6393 41.2135 76.2074 41.398 75.966 41.7609C75.7475 42.0809 74.8735 43.2327 74.0194 44.3206C73.1851 45.4085 72.4104 46.3044 72.3111 46.3044C72.2118 46.3044 71.9933 46.1764 71.8543 46.0271C71.7152 45.8778 71.2782 45.5151 70.9008 45.2378C70.5234 44.9605 69.0535 43.7447 67.6233 42.5501Z" fill="#725845" stroke="#383838" stroke-width="1.19208" stroke-linejoin="round"/>
<path d="M94.0595 25.1516L87.3122 25.1516C87.0374 25.1516 86.7986 25.3389 86.7412 25.6076C86.6206 26.1717 86.4394 27.1277 86.459 27.7014C86.4651 27.8806 86.5851 28.027 86.7576 28.0758C88.3946 28.5396 92.6897 27.9787 94.1563 27.766C94.446 27.724 94.6555 27.4755 94.6555 27.1828V25.7477C94.6555 25.4185 94.3887 25.1516 94.0595 25.1516Z" fill="#383838"/>
<path d="M79.7574 25.5778L72.841 26.5638C72.518 26.6098 72.2925 26.9067 72.3415 27.2293C72.4259 27.7836 72.566 28.615 72.7238 29.1828C72.8026 29.4662 73.1004 29.6005 73.3868 29.5331C74.8909 29.1794 79.0269 28.3908 80.8808 28.041C81.3101 27.96 81.5072 27.4606 81.2519 27.1061L80.3252 25.8195C80.1956 25.6396 79.9769 25.5465 79.7574 25.5778Z" fill="#383838"/>
<path d="M74.6732 182.722C74.6732 182.722 55.9903 180.276 55.9902 177.839C55.9902 175.895 57.8304 96.3549 60.1857 66.5059V61.6919C60.1857 61.6919 64.7155 63.3402 67.7673 63.6951C69.9894 63.9534 73.0855 63.7188 74.8382 63.5424C75.5554 63.4702 76.1891 64.0297 76.1891 64.7505V67.5061L74.6732 117.015V138.187V182.722Z" fill="white"/>
<path d="M60.1857 66.5059C57.8304 96.355 55.9902 175.895 55.9902 177.839C55.9903 180.276 74.6732 182.722 74.6732 182.722V138.187V117.015L76.1891 67.5061M60.1857 66.5059C60.1857 66.5059 64.0192 67.8833 67.0572 68.2755C70.3157 68.6962 76.1891 67.5061 76.1891 67.5061M60.1857 66.5059V61.6919C60.1857 61.6919 64.7155 63.3402 67.7673 63.6951C69.9894 63.9534 73.0855 63.7188 74.8382 63.5424C75.5554 63.4702 76.1891 64.0297 76.1891 64.7505V67.5061" stroke="#383838" stroke-width="1.19208"/>
<path d="M59.8126 65.252L50.3027 55.9205L56.1479 52.4909C56.62 52.2139 57.2199 52.2939 57.6029 52.6849L63.102 58.3001L61.8158 64.6383C61.6278 65.5649 60.4875 65.9143 59.8126 65.252Z" fill="#97B0D7" stroke="#383838" stroke-width="1.19208"/>
<path d="M87.9729 65.0895L83.9027 59.4043L75.359 62.4028L75.1534 70.7715L87.9729 65.0895Z" fill="#97B0D7"/>
<path d="M75.359 68.3469V62.4028M75.359 62.4028L83.9027 59.4043L87.9729 65.0895L75.1534 70.7715L75.359 62.4028Z" stroke="#383838" stroke-width="1.19208" stroke-linejoin="round"/>
<path d="M83.0904 47.3577C85.0093 47.609 86.3682 47.2518 86.3682 47.2518C86.3682 47.2518 86.6593 49.1368 83.3519 49.5812C80.1324 50.0138 78.641 47.2407 78.641 47.2407C78.3947 47.0996 78.484 46.7245 78.7674 46.7096L78.8067 46.7075C78.8067 46.7075 81.536 47.1542 83.0904 47.3577Z" fill="#EEEEEE"/>
<path d="M78.8067 46.7075L78.7674 46.7096C78.484 46.7245 78.3947 47.0996 78.641 47.2407V47.2407M78.8067 46.7075C78.8067 46.7075 81.536 47.1542 83.0904 47.3577C85.0093 47.609 86.3682 47.2518 86.3682 47.2518C86.3682 47.2518 86.6593 49.1368 83.3519 49.5812C80.1324 50.0138 78.641 47.2407 78.641 47.2407M78.8067 46.7075L78.641 47.2407" stroke="#383838" stroke-width="1.19208" stroke-linejoin="round"/>
</g>
<defs>
<clipPath id="clip0_1727_3480">
<rect width="370" height="363" fill="white" transform="translate(0 0.179443)"/>
</clipPath>
</defs>
</svg>
