<svg width="328" height="221" viewBox="0 0 328 221" fill="none" xmlns="http://www.w3.org/2000/svg">
<rect y="0.012207" width="328" height="220.489" rx="29.1556" fill="#F7F0E0"/>
<path fill-rule="evenodd" clip-rule="evenodd" d="M172.707 35.0122C174.063 35.0122 175.215 35.2819 176.57 35.8886C177.654 36.3605 178.908 37.0684 179.314 37.4729C179.755 37.8774 180.466 38.8212 180.907 39.5628C181.347 40.3043 181.889 41.6189 182.059 42.5291C182.296 43.5066 182.33 44.6527 182.127 45.5291C181.957 46.338 181.754 47.2145 181.618 47.4841C181.449 47.8549 181.856 48.1583 183.346 48.6302C184.668 49.0684 185.82 49.7763 186.938 50.8212C188.124 51.9336 188.7 52.8437 189.073 54.0572C189.344 54.9673 189.547 56.1133 189.547 56.5852C189.547 57.0572 189.377 58.001 189.208 58.6751C189.005 59.383 188.293 60.5965 187.582 61.3381C186.904 62.1133 185.447 63.1583 184.363 63.6976C183.313 64.2369 181.008 65.0459 179.28 65.5178C177.586 65.956 174.503 66.5628 172.436 66.8324C170.369 67.1021 166.1 67.5066 162.949 67.7088C159.662 67.9448 155.088 68.0122 152.276 67.8774C149.565 67.7425 145.228 67.4392 142.619 67.2032C140.01 67.001 137.029 66.8998 136.012 67.0347C134.996 67.1695 133.844 67.4392 133.471 67.6077C133.098 67.81 132.455 68.383 132.014 68.9223C131.54 69.5291 131.269 70.3381 131.269 71.0796C131.269 71.8212 132.082 73.8774 133.471 76.6414C134.691 79.0684 136.012 82.2369 136.385 83.7201C136.859 85.4729 137.13 87.5965 137.13 89.7875C137.164 92.3156 137.029 93.6302 136.554 95.0122C136.114 96.2257 135.369 97.3718 134.352 98.4167C133.369 99.3605 132.184 100.17 131.099 100.507C130.151 100.844 128.829 101.08 128.118 101.08C127.44 101.08 126.457 100.911 125.915 100.709C125.407 100.507 124.628 100.035 124.221 99.6302C123.781 99.2257 123.035 98.1807 122.595 97.2706C122.154 96.3942 121.544 94.7088 121.273 93.4954C121.002 92.2819 120.426 90.8324 119.986 90.2594C119.579 89.6864 117.648 88.1695 115.683 86.8549C113.718 85.5403 111.346 83.8549 110.431 83.0459C109.482 82.2706 107.991 80.6527 107.077 79.4729C106.196 78.2931 104.942 76.3381 104.366 75.1246C103.756 73.9111 102.875 71.956 101.621 68.6189L97.4539 66.6302C94.5739 65.2819 93.1508 64.4055 92.7442 63.7313C92.3376 63.1246 92.1343 61.8774 92.0327 59.7875C91.931 57.7313 92.0666 55.9785 92.4393 54.3942C92.7442 53.1133 93.388 51.0572 93.8285 49.8437C94.2689 48.6302 95.2515 46.7425 95.9631 45.6302C96.7085 44.5178 97.9621 42.8661 98.7753 41.956C99.5885 41.0459 101.418 39.5628 102.807 38.6527C104.197 37.7425 106.094 36.765 107.043 36.4954C107.958 36.2257 109.245 36.0234 109.821 36.0234C110.6 36.0234 111.583 36.4954 113.04 37.5403C114.226 38.3493 116.157 39.6639 117.377 40.4055C119.207 41.5178 120.63 42.0234 125.678 43.2706C129.033 44.1133 132.184 44.7875 132.692 44.7875C133.234 44.7875 136.792 44.1133 140.654 43.2706C144.551 42.4616 150.751 41.0122 154.478 40.1021C158.205 39.192 162.475 38.0459 163.966 37.574C165.456 37.1021 167.591 36.3268 168.709 35.8549C170.064 35.3156 171.386 35.0122 172.673 35.0122H172.707ZM166.032 42.6302C164.711 43.1021 160.611 44.2145 156.884 45.1246C153.157 46.0684 149.735 46.9111 149.26 47.0122C148.447 47.2482 148.481 47.2482 149.599 47.5178C150.243 47.6527 153.597 47.956 157.053 48.192C160.679 48.4279 165.558 48.4954 168.574 48.3605C173.249 48.1583 173.961 48.0572 174.91 47.383C175.519 46.9785 176.265 46.1695 176.57 45.6302C176.943 44.9897 177.044 44.2819 176.909 43.6751C176.807 43.1695 176.299 42.3268 175.757 41.7538C175.147 41.0796 174.401 40.7088 173.487 40.574C172.572 40.4729 171.521 40.6414 170.268 41.1133C169.251 41.4841 167.354 42.192 166.032 42.6302ZM103.078 45.3942C102.197 46.2706 100.876 48.1246 100.131 49.5066C99.4191 50.8886 98.5043 53.2482 98.0977 54.7313C97.725 56.2145 97.42 58.1021 97.42 58.9448V60.4616C103.045 63.3268 105.111 64.6077 105.653 65.1807C106.196 65.7538 107.077 67.4055 107.653 68.8886C108.195 70.3718 109.143 72.4954 109.719 73.574C110.329 74.6527 111.583 76.4055 112.532 77.4504C113.48 78.4954 115.954 80.4504 118.122 81.8998C120.257 83.3156 122.798 85.3043 123.781 86.3493C125.034 87.7313 125.678 88.7763 126.051 90.0234C126.322 91.001 126.728 92.5515 126.966 93.4616C127.203 94.3718 127.677 95.2819 128.016 95.4841C128.457 95.7538 128.829 95.7201 129.507 95.3493C129.981 95.0796 130.693 94.4055 131.099 93.8998C131.54 93.2931 131.845 92.2819 131.946 91.2032C132.014 90.2257 131.811 88.1695 131.506 86.5852C131.065 84.4616 130.286 82.4055 128.389 78.4954C126.119 73.81 125.848 73.0684 125.848 71.2482C125.814 69.8324 126.051 68.6864 126.627 67.4055C127.033 66.3942 128.016 65.0459 128.761 64.3381C129.507 63.6639 130.896 62.8212 131.811 62.4504C133.2 61.9448 134.352 61.81 138.249 61.81C140.858 61.81 145.804 62.0122 149.26 62.2819C153.157 62.5515 157.257 62.6527 160.103 62.4841C162.61 62.383 166.642 62.0459 169.082 61.7763C171.487 61.5066 174.334 61.1358 175.35 60.9336C176.367 60.765 178.366 60.2257 179.755 59.7875C181.144 59.3493 182.703 58.574 183.245 58.1021C183.753 57.6302 184.16 56.9223 184.16 56.4841C184.193 56.0796 183.889 55.3718 183.55 54.8998C183.177 54.3942 182.262 53.8886 181.246 53.6189C179.89 53.2482 178.298 53.2482 172.639 53.5515C168.641 53.7875 163.525 53.8549 160.611 53.7201C157.799 53.6189 153.326 53.2819 150.616 53.0122C147.905 52.7425 143.636 52.2032 141.129 51.8324C138.621 51.4616 134.657 50.7538 132.319 50.3156C129.981 49.8437 125.949 48.9336 123.34 48.2594C120.731 47.6189 117.682 46.6077 116.564 46.0684C115.446 45.4954 113.345 44.2145 111.888 43.2369C110.465 42.2257 109.245 41.4167 109.177 41.4167C109.143 41.4167 108.127 41.956 106.907 42.6302C105.687 43.2706 103.993 44.5178 103.078 45.3942ZM183.55 74.5515C218.415 74.6189 219.025 74.6189 219.94 75.2931C220.414 75.6639 221.159 76.4055 221.566 76.9111C222.244 77.8212 222.278 78.2931 222.616 102.259L236 122.147V183.327L234.34 185.012H140.112L138.418 183.327V122.147L145.195 112.035C149.904 105.023 151.971 101.653 151.971 100.979C151.971 100.068 151.937 100.068 149.633 99.9673C147.871 99.9336 147.058 99.7313 146.313 99.192C145.804 98.7875 145.059 98.0459 144.686 97.574C144.043 96.7313 144.009 96.0234 143.907 88.1695C143.839 83.4841 143.873 79.1695 143.975 78.5628C144.076 77.9897 144.551 77.0122 144.957 76.4392C145.398 75.8324 146.279 75.1583 146.923 74.9223C147.871 74.5515 154.614 74.4841 183.55 74.5515ZM211.537 88.2369C211.435 96.0234 211.401 96.7313 210.757 97.574C210.385 98.0459 209.639 98.7875 209.131 99.192C208.182 99.8998 208.047 99.8998 182.77 99.9673L157.392 100.068C157.392 103.574 157.257 103.776 150.616 113.72L143.839 123.832V179.619H203.473V122.147L217.026 101.922V79.8437H211.638L211.537 88.2369ZM149.26 94.6751H206.183V79.8437H149.26V94.6751ZM208.894 123.832V179.619H230.579V123.832C222.549 111.428 220.075 107.821 219.906 107.821C219.702 107.821 217.161 111.428 214.247 115.81L208.894 123.832ZM204.794 42.0909C205.472 42.0909 206.149 42.4279 206.725 43.0347C207.539 43.8437 207.606 44.147 207.471 45.6302C207.335 46.7763 206.861 48.0234 206.048 49.338C205.37 50.4504 204.828 51.6302 204.794 51.9673C204.794 52.3043 205.37 53.4841 206.082 54.6302C207.064 56.2482 207.369 57.1583 207.471 58.6077C207.539 59.7538 207.369 61.001 207.064 61.81C206.759 62.5515 206.116 63.6976 205.675 64.3381C205.201 65.0122 204.794 65.956 204.794 66.4616C204.794 67.001 204.455 67.7425 203.981 68.2145C203.439 68.7538 202.761 69.0572 202.117 69.0572C201.44 69.0572 200.762 68.7538 200.186 68.147C199.373 67.3381 199.305 67.0347 199.441 65.5178C199.576 64.4055 200.051 63.1583 200.864 61.81C201.541 60.6976 202.083 59.5515 202.083 59.2145C202.083 58.8774 201.541 57.6976 200.83 56.5515C199.847 54.9336 199.542 54.0234 199.441 52.574C199.373 51.3942 199.508 50.1807 199.847 49.338C200.152 48.5965 200.762 47.4841 201.236 46.81C201.711 46.1695 202.117 45.2257 202.117 44.6864C202.117 44.1807 202.49 43.4055 202.931 42.9336C203.473 42.4279 204.15 42.0909 204.794 42.0909ZM218.347 42.0909C219.025 42.0909 219.702 42.4279 220.278 43.0347C221.092 43.8437 221.159 44.147 221.024 45.6302C220.888 46.7763 220.414 48.0234 219.601 49.338C218.923 50.4504 218.381 51.6302 218.347 51.9673C218.347 52.3043 218.923 53.4841 219.635 54.6302C220.617 56.2482 220.922 57.1583 221.024 58.6077C221.092 59.7538 220.922 61.001 220.617 61.81C220.312 62.5515 219.669 63.6976 219.228 64.3381C218.754 65.0122 218.347 65.956 218.347 66.4616C218.347 67.001 218.008 67.7425 217.534 68.2145C216.992 68.7538 216.314 69.0572 215.67 69.0572C214.993 69.0572 214.315 68.7538 213.739 68.147C212.926 67.3381 212.858 67.0347 212.994 65.5178C213.129 64.4055 213.604 63.1583 214.417 61.81C215.094 60.6976 215.637 59.5515 215.637 59.2145C215.637 58.8774 215.094 57.6976 214.383 56.5515C213.4 54.9336 213.095 54.0234 212.994 52.574C212.926 51.3942 213.061 50.1807 213.4 49.338C213.705 48.5965 214.315 47.4841 214.789 46.81C215.264 46.1695 215.67 45.2257 215.67 44.6864C215.67 44.1807 216.043 43.4055 216.484 42.9336C217.026 42.4279 217.703 42.0909 218.347 42.0909ZM126.186 133.776C131.167 133.776 131.303 133.81 132.116 134.619C132.658 135.158 132.963 135.866 132.963 136.473C132.963 137.113 132.658 137.821 132.15 138.327C131.337 139.17 131.201 139.17 126.22 139.17C121.24 139.17 121.104 139.17 120.257 138.327C119.715 137.787 119.444 137.147 119.444 136.473C119.444 135.866 119.783 135.125 120.257 134.619C121.07 133.81 121.206 133.776 126.186 133.776ZM114.327 149.956H131.269L132.116 150.799C132.658 151.338 132.963 152.046 132.963 152.653C132.963 153.293 132.658 154.001 131.303 155.349H114.327L113.48 154.507C112.938 153.967 112.667 153.327 112.667 152.653C112.667 152.046 113.006 151.304 113.48 150.799L114.327 149.956ZM104.84 166.136H131.303L132.15 166.979C132.692 167.518 132.997 168.192 132.997 168.832C132.997 169.439 132.692 170.181 131.337 171.529H104.874L104.027 170.686C103.485 170.147 103.18 169.473 103.214 168.832C103.214 168.192 103.553 167.45 104.027 166.979L104.84 166.136ZM162.814 116.214C163.898 116.214 165.016 116.552 166.541 117.327C167.896 118.001 169.251 119.046 170.2 120.125C171.013 121.035 172.199 122.855 172.809 124.17C173.453 125.45 174.232 127.574 174.537 128.889C174.876 130.304 175.011 132.023 174.943 133.271C174.842 134.484 174.401 136.102 173.791 137.417C173.182 138.799 172.199 140.147 171.115 141.158C170.2 142.035 168.54 143.113 165.524 144.394V172.54L164.711 173.383C164.169 173.889 163.491 174.226 162.847 174.226C162.204 174.226 161.492 173.889 160.103 172.54L160.137 144.394L158.172 143.552C157.087 143.113 155.461 142.035 154.512 141.158C153.428 140.147 152.479 138.832 151.836 137.417C151.293 136.237 150.785 134.45 150.684 133.439C150.582 132.259 150.751 130.54 151.124 128.889C151.463 127.405 152.242 125.181 152.852 124.001C153.496 122.787 154.648 121.035 155.461 120.125C156.376 119.046 157.731 118.001 159.12 117.327C160.577 116.585 161.763 116.214 162.814 116.214ZM158.036 125.889C157.528 126.799 156.85 128.45 156.545 129.563C156.139 130.911 156.037 132.091 156.173 133.271C156.274 134.181 156.749 135.462 157.155 136.136C157.596 136.776 158.544 137.686 159.29 138.158C160.374 138.832 161.052 139.001 162.847 139.001C164.677 139.001 165.321 138.832 166.405 138.125C167.15 137.653 168.065 136.743 168.506 136.102C168.912 135.462 169.353 134.181 169.455 133.271C169.624 132.091 169.488 130.945 169.116 129.563C168.777 128.45 168.133 126.799 167.625 125.889C167.117 124.979 166.066 123.664 165.287 122.922C164.27 122.012 163.525 121.641 162.814 121.641C162.102 121.641 161.357 122.012 160.374 122.922C159.561 123.664 158.51 124.979 158.036 125.889ZM184.498 117.596C185.142 117.596 185.854 117.9 187.209 119.282V134.113C187.209 145.743 187.311 148.911 187.649 148.911C187.887 148.911 189.14 149.45 190.428 150.057C191.919 150.799 193.376 151.844 194.324 152.855C195.138 153.765 196.29 155.484 197.882 158.889L198.051 172.54L197.238 173.383C196.696 173.889 196.018 174.226 195.375 174.226C194.731 174.226 194.019 173.889 193.477 173.383C192.664 172.54 192.63 172.473 192.63 166.709C192.63 163.17 192.461 160.372 192.224 159.563C191.953 158.686 191.139 157.54 190.021 156.428C189.039 155.45 187.988 154.675 187.717 154.675C187.277 154.675 187.209 155.889 187.209 172.54L186.396 173.383C185.854 173.889 185.176 174.226 184.532 174.226C183.889 174.226 183.177 173.889 181.788 172.54V163.608C181.788 158.686 181.72 154.675 181.618 154.675C181.517 154.675 181.042 154.877 180.534 155.113C180.026 155.383 179.043 156.192 178.4 156.934C177.756 157.675 177.044 158.855 176.807 159.596C176.536 160.405 176.4 163.035 176.367 166.709C176.367 172.439 176.367 172.54 175.553 173.383C175.011 173.889 174.334 174.226 173.69 174.226C173.046 174.226 172.335 173.889 170.945 172.54L171.115 158.889L172.165 156.698C172.707 155.484 173.859 153.765 174.706 152.855C175.621 151.844 177.112 150.799 178.569 150.057C179.89 149.45 181.144 148.911 181.381 148.911C181.72 148.911 181.788 145.743 181.822 119.248L182.635 118.405C183.143 117.9 183.855 117.596 184.498 117.596Z" fill="#D8B448"/>
</svg>
