<svg width="203" height="61" viewBox="0 0 203 61" fill="none" xmlns="http://www.w3.org/2000/svg">
<rect x="0.306152" width="202" height="61" rx="30.5" fill="#D8B448"/>
<path d="M79.09 44.502H77.3171L77.1152 42.2602C76.7262 42.9626 76.0903 43.5679 75.2076 44.0761C74.3249 44.5842 73.2627 44.8383 72.021 44.8383C70.6595 44.8383 69.4028 44.5319 68.2508 43.9191C67.0988 43.2914 66.1488 42.3349 65.4007 41.0497C64.6677 39.7644 64.3011 38.2624 64.3011 36.5437C64.3011 34.825 64.6901 33.3231 65.4681 32.0378C66.246 30.7525 67.2185 29.8035 68.3854 29.1907C69.5674 28.578 70.8316 28.2716 72.178 28.2716C73.8836 28.2716 75.3647 28.7125 76.6214 29.5942C77.8931 30.4611 78.7609 31.6193 79.2247 33.069L77.2274 33.9209C76.8683 32.7701 76.2399 31.8808 75.3423 31.2532C74.4596 30.6105 73.4048 30.2892 72.178 30.2892C70.6371 30.2892 69.313 30.8347 68.2059 31.9257C67.0988 33.0167 66.5453 34.556 66.5453 36.5437C66.5453 38.5464 67.0838 40.1007 68.161 41.2066C69.2532 42.2976 70.5623 42.8431 72.0883 42.8431C72.9261 42.8431 73.6667 42.7086 74.31 42.4396C74.9683 42.1706 75.4769 41.8193 75.836 41.3859C76.21 40.9376 76.4868 40.4892 76.6663 40.0409C76.8608 39.5925 76.973 39.1442 77.0029 38.6958H71.4824V36.7231H79.09V44.502ZM84.468 41.9464C85.1263 42.6189 85.9267 42.9552 86.8693 42.9552C87.8118 42.9552 88.6047 42.6189 89.248 41.9464C89.9063 41.2589 90.2355 40.3099 90.2355 39.0993C90.2355 37.9037 89.9063 36.9697 89.248 36.2971C88.6047 35.6097 87.8118 35.2659 86.8693 35.2659C85.9267 35.2659 85.1263 35.6097 84.468 36.2971C83.8247 36.9697 83.503 37.9037 83.503 39.0993C83.503 40.3099 83.8247 41.2589 84.468 41.9464ZM82.8971 35.0193C83.9444 33.9283 85.2684 33.3828 86.8693 33.3828C88.4701 33.3828 89.7866 33.9283 90.8189 35.0193C91.8662 36.0954 92.3898 37.4554 92.3898 39.0993C92.3898 40.7582 91.8737 42.1332 90.8414 43.2242C89.8091 44.3002 88.485 44.8383 86.8693 44.8383C85.2535 44.8383 83.9294 44.3002 82.8971 43.2242C81.8648 42.1332 81.3487 40.7582 81.3487 39.0993C81.3487 37.4554 81.8648 36.0954 82.8971 35.0193ZM97.3105 41.9464C97.9688 42.6189 98.7692 42.9552 99.7117 42.9552C100.654 42.9552 101.447 42.6189 102.091 41.9464C102.749 41.2589 103.078 40.3099 103.078 39.0993C103.078 37.9037 102.749 36.9697 102.091 36.2971C101.447 35.6097 100.654 35.2659 99.7117 35.2659C98.7692 35.2659 97.9688 35.6097 97.3105 36.2971C96.6672 36.9697 96.3455 37.9037 96.3455 39.0993C96.3455 40.3099 96.6672 41.2589 97.3105 41.9464ZM95.7396 35.0193C96.7869 33.9283 98.1109 33.3828 99.7117 33.3828C101.313 33.3828 102.629 33.9283 103.661 35.0193C104.709 36.0954 105.232 37.4554 105.232 39.0993C105.232 40.7582 104.716 42.1332 103.684 43.2242C102.652 44.3002 101.327 44.8383 99.7117 44.8383C98.0959 44.8383 96.7719 44.3002 95.7396 43.2242C94.7073 42.1332 94.1911 40.7582 94.1911 39.0993C94.1911 37.4554 94.7073 36.0954 95.7396 35.0193ZM107.146 45.0848L109.188 44.6141C109.263 45.3763 109.569 46.004 110.108 46.4972C110.647 47.0053 111.32 47.2594 112.128 47.2594C114.327 47.2594 115.427 46.0936 115.427 43.7622V42.2154C115.157 42.7385 114.731 43.1644 114.148 43.4932C113.579 43.822 112.906 43.9864 112.128 43.9864C110.692 43.9864 109.502 43.5007 108.56 42.5292C107.632 41.5429 107.168 40.2875 107.168 38.7631C107.168 37.2835 107.632 36.0431 108.56 35.0417C109.487 34.0255 110.677 33.5173 112.128 33.5173C113.773 33.5173 114.881 34.0853 115.449 35.2211V33.7191H117.536V43.695C117.536 44.4123 117.439 45.0774 117.245 45.6901C117.065 46.3178 116.773 46.8932 116.369 47.4163C115.965 47.9394 115.397 48.3503 114.664 48.6493C113.946 48.9482 113.1 49.0976 112.128 49.0976C110.796 49.0976 109.667 48.7165 108.739 47.9543C107.812 47.2071 107.28 46.2506 107.146 45.0848ZM112.442 42.2154C113.355 42.2154 114.095 41.9015 114.664 41.2738C115.232 40.6312 115.516 39.7943 115.516 38.7631C115.516 37.7319 115.232 36.9024 114.664 36.2747C114.095 35.6321 113.355 35.3107 112.442 35.3107C111.514 35.3107 110.759 35.6246 110.175 36.2523C109.607 36.88 109.323 37.7169 109.323 38.7631C109.323 39.8242 109.599 40.6686 110.153 41.2963C110.721 41.909 111.484 42.2154 112.442 42.2154ZM123.014 44.502H120.905V28.2716H123.014V44.502ZM127.972 38.0009H133.874C133.844 37.1938 133.575 36.5362 133.066 36.0281C132.557 35.505 131.839 35.2435 130.911 35.2435C130.074 35.2435 129.385 35.52 128.847 36.073C128.308 36.611 128.017 37.2536 127.972 38.0009ZM134.188 40.8031L136.006 41.4308C135.691 42.4321 135.108 43.2541 134.255 43.8967C133.402 44.5244 132.37 44.8383 131.158 44.8383C129.647 44.8383 128.361 44.3226 127.298 43.2914C126.251 42.2453 125.727 40.8404 125.727 39.0769C125.727 37.433 126.236 36.073 127.254 34.9969C128.271 33.9209 129.483 33.3828 130.889 33.3828C132.52 33.3828 133.791 33.8984 134.704 34.9297C135.617 35.9459 136.073 37.3134 136.073 39.0321C136.073 39.3011 136.058 39.5253 136.028 39.7046H127.904C127.919 40.6611 128.233 41.4457 128.847 42.0585C129.475 42.6712 130.246 42.9776 131.158 42.9776C132.699 42.9776 133.709 42.2527 134.188 40.8031ZM146.8 36.0281H149.987C150.929 36.0281 151.677 35.789 152.231 35.3107C152.784 34.8176 153.061 34.16 153.061 33.338C153.061 32.5011 152.784 31.836 152.231 31.3428C151.677 30.8347 150.929 30.5806 149.987 30.5806H146.8V36.0281ZM150.391 38.0009H146.8V44.502H144.601V28.6079H150.391C151.842 28.6079 153.024 29.0562 153.936 29.9529C154.849 30.8496 155.305 31.9705 155.305 33.3156C155.305 34.6756 154.849 35.7965 153.936 36.6782C153.024 37.56 151.842 38.0009 150.391 38.0009ZM159.657 44.502H157.547V28.2716H159.657V44.502ZM162.572 41.6101C162.572 40.6835 162.871 39.9437 163.47 39.3908C164.068 38.8229 164.861 38.4716 165.848 38.3371L168.766 37.9112C169.319 37.8365 169.596 37.5675 169.596 37.1042C169.596 36.5362 169.402 36.0729 169.013 35.7143C168.624 35.3556 168.04 35.1762 167.262 35.1762C166.544 35.1762 165.976 35.378 165.557 35.7815C165.138 36.1701 164.891 36.6932 164.816 37.3508L162.796 36.88C162.901 35.8488 163.372 35.0118 164.21 34.3692C165.048 33.7116 166.05 33.3828 167.217 33.3828C168.743 33.3828 169.873 33.7565 170.606 34.5037C171.339 35.236 171.706 36.1776 171.706 37.3283V42.731C171.706 43.3736 171.751 43.964 171.84 44.502H169.776C169.701 44.0536 169.663 43.5679 169.663 43.0448C169.364 43.5231 168.923 43.9415 168.339 44.3002C167.771 44.6589 167.053 44.8383 166.185 44.8383C165.123 44.8383 164.255 44.5244 163.582 43.8967C162.909 43.2541 162.572 42.4919 162.572 41.6101ZM166.477 43.0673C167.419 43.0673 168.175 42.8132 168.743 42.3051C169.312 41.7969 169.596 40.9899 169.596 39.884V39.3908L166.297 39.884C165.819 39.9587 165.437 40.1305 165.153 40.3996C164.868 40.6686 164.726 41.0347 164.726 41.498C164.726 41.9165 164.883 42.2826 165.198 42.5965C165.527 42.9103 165.953 43.0673 166.477 43.0673ZM177.467 49.0079H175.155L177.848 43.3139L173.203 33.7191H175.626L178.993 41.1618L182.224 33.7191H184.491L177.467 49.0079Z" fill="white"/>
<path d="M70.5408 19.9491V16.7978H67.5144V17.8226H69.4294C69.361 18.2496 68.925 19.0012 67.8051 19.0012C66.7877 19.0012 65.8901 18.2923 65.8901 16.9259C65.8901 15.4912 66.8818 14.8678 67.7965 14.8678C68.7797 14.8678 69.2841 15.4912 69.438 16.0292L70.5664 15.6278C70.2672 14.697 69.3867 13.7661 67.7965 13.7661C66.1551 13.7661 64.6932 14.9703 64.6932 16.9259C64.6932 18.8816 66.0867 20.0772 67.7196 20.0772C68.6343 20.0772 69.2328 19.6673 69.5064 19.2574L69.5833 19.9491H70.5408ZM77.13 19.9491V18.8389H74.514V17.4383H76.8821V16.3879H74.514V15.0044H77.13V13.8942H73.3342V19.9491H77.13ZM84.4758 15.013V13.8942H79.4575V15.013H81.3725V19.9491H82.5608V15.013H84.4758ZM91.8213 19.9491V13.8942H90.6245V19.9491H91.8213ZM99.2698 15.013V13.8942H94.2515V15.013H96.1665V19.9491H97.3548V15.013H99.2698ZM106.282 16.9174C106.282 15.551 107.239 14.9019 108.171 14.9019C109.112 14.9019 110.069 15.551 110.069 16.9174C110.069 18.2838 109.112 18.9328 108.171 18.9328C107.239 18.9328 106.282 18.2838 106.282 16.9174ZM105.059 16.9259C105.059 18.8731 106.53 20.0772 108.171 20.0772C109.821 20.0772 111.292 18.8731 111.292 16.9259C111.292 14.9703 109.821 13.7661 108.171 13.7661C106.53 13.7661 105.059 14.9703 105.059 16.9259ZM119.09 19.9491V13.8942H117.91V17.8995L115.388 13.8942H113.917V19.9491H115.097V15.6535L117.85 19.9491H119.09Z" fill="white"/>
<path d="M30.226 44.0649C29.5931 44.4735 28.8329 44.5971 28.1196 44.4288L40.6517 31.9102L44.7132 35.9674L30.226 44.0649Z" fill="white"/>
<path d="M26.5643 43.4114C26.2149 42.9473 26.0137 42.3773 26.0137 41.7744V19.4749C26.0137 18.872 26.2149 18.302 26.5643 17.8379L39.3647 30.6246L26.5643 43.4114Z" fill="white"/>
<path d="M50.0143 33.0045L46.3639 35.0447L41.9388 30.6243L46.3642 26.2036L50.0149 28.244C50.8895 28.7335 51.4116 29.6233 51.4116 30.6243C51.4116 31.6253 50.8895 32.5149 50.0143 33.0045Z" fill="white"/>
<path d="M40.6517 29.3393L28.1205 16.8214C28.3259 16.773 28.5351 16.7471 28.7441 16.7471C29.2609 16.7471 29.7757 16.8939 30.2262 17.1845L44.7135 25.2819L40.6517 29.3393Z" fill="white"/>
</svg>
