<svg width="328" height="190" viewBox="0 0 328 190" fill="none" xmlns="http://www.w3.org/2000/svg">
<rect width="328" height="189.771" rx="8" fill="white"/>
<rect width="42" height="42" transform="translate(12 13)" fill="white"/>
<path d="M40.5918 47.9564V39.2846V27.8537H38.0949C37.3166 27.8537 36.8856 26.9517 37.3746 26.3462L43.457 18.8144C43.6481 18.5777 44.0116 18.5866 44.191 18.8322L49.7045 26.3819C50.1513 26.9936 49.7144 27.8537 48.9569 27.8537H46.1081V47.9564V49.6623H40.5918V47.9564Z" fill="#C0D1B9"/>
<rect x="17.3809" y="39.1832" width="7.39027" height="11.2373" rx="0.925818" fill="#C0D1B9"/>
<mask id="path-4-inside-1_831_22966" fill="white">
<rect x="15.2207" y="36.3722" width="8.33236" height="13.2822" rx="0.925818"/>
</mask>
<rect x="15.2207" y="36.3722" width="8.33236" height="13.2822" rx="0.925818" stroke="#403C3B" stroke-width="2.77745" mask="url(#path-4-inside-1_831_22966)"/>
<rect x="28.083" y="32.3821" width="7.44011" height="18.0384" rx="0.925818" fill="#C0D1B9"/>
<mask id="path-6-inside-2_831_22966" fill="white">
<rect x="25.9717" y="29.6991" width="8.33236" height="19.9553" rx="0.925818"/>
</mask>
<rect x="25.9717" y="29.6991" width="8.33236" height="19.9553" rx="0.925818" stroke="#403C3B" stroke-width="2.77745" mask="url(#path-6-inside-2_831_22966)"/>
<path d="M38.8562 47.1903V38.5185V27.0876H36.175C35.3967 27.0876 34.9657 26.1856 35.4547 25.5801L41.5548 18.0264C41.7403 17.7966 42.0906 17.797 42.2757 18.0271L48.3504 25.5816C48.8375 26.1874 48.4063 27.0876 47.6289 27.0876H44.8901V47.1903V48.8962H38.8562V47.1903Z" stroke="#403C3B" stroke-width="1.38873" stroke-linejoin="round"/>
<path d="M63.184 28V16.8H64.528V28H63.184ZM66.8228 28V20.064H68.0388L68.1188 21.488C68.3748 20.9867 68.7428 20.592 69.2228 20.304C69.7028 20.016 70.2468 19.872 70.8548 19.872C71.7934 19.872 72.5401 20.16 73.0948 20.736C73.6601 21.3013 73.9427 22.176 73.9427 23.36V28H72.5988V23.504C72.5988 21.8507 71.9161 21.024 70.5508 21.024C69.8681 21.024 69.2974 21.2747 68.8388 21.776C68.3908 22.2667 68.1668 22.9707 68.1668 23.888V28H66.8228ZM79.627 28.192C78.8697 28.192 78.187 28.0213 77.579 27.68C76.9817 27.328 76.507 26.8427 76.155 26.224C75.8137 25.5947 75.643 24.864 75.643 24.032C75.643 23.2 75.8137 22.4747 76.155 21.856C76.507 21.2267 76.9817 20.7413 77.579 20.4C78.187 20.048 78.8697 19.872 79.627 19.872C80.5657 19.872 81.355 20.1173 81.995 20.608C82.6457 21.0987 83.0563 21.7547 83.227 22.576H81.851C81.7443 22.0853 81.483 21.7067 81.067 21.44C80.651 21.1627 80.1657 21.024 79.611 21.024C79.163 21.024 78.7417 21.136 78.347 21.36C77.9523 21.584 77.6323 21.92 77.387 22.368C77.1417 22.816 77.019 23.3707 77.019 24.032C77.019 24.6933 77.1417 25.248 77.387 25.696C77.6323 26.144 77.9523 26.4853 78.347 26.72C78.7417 26.944 79.163 27.056 79.611 27.056C80.1657 27.056 80.651 26.9227 81.067 26.656C81.483 26.3787 81.7443 25.9893 81.851 25.488H83.227C83.067 26.288 82.6617 26.9387 82.011 27.44C81.3603 27.9413 80.5657 28.192 79.627 28.192ZM85.104 28V20.064H86.32L86.432 21.584C86.6773 21.0613 87.0507 20.6453 87.552 20.336C88.0533 20.0267 88.672 19.872 89.408 19.872V21.28H89.04C88.5707 21.28 88.1387 21.3653 87.744 21.536C87.3493 21.696 87.0347 21.9733 86.8 22.368C86.5653 22.7627 86.448 23.3067 86.448 24V28H85.104ZM94.1876 28.192C93.4303 28.192 92.7583 28.0213 92.1716 27.68C91.585 27.328 91.121 26.8427 90.7796 26.224C90.449 25.6053 90.2836 24.8747 90.2836 24.032C90.2836 23.2 90.449 22.4747 90.7796 21.856C91.1103 21.2267 91.569 20.7413 92.1556 20.4C92.753 20.048 93.441 19.872 94.2196 19.872C94.9876 19.872 95.649 20.048 96.2036 20.4C96.769 20.7413 97.201 21.1947 97.4996 21.76C97.7983 22.3253 97.9476 22.9333 97.9476 23.584C97.9476 23.7013 97.9423 23.8187 97.9316 23.936C97.9316 24.0533 97.9316 24.1867 97.9316 24.336H91.6116C91.6436 24.944 91.7823 25.4507 92.0276 25.856C92.2836 26.2507 92.5983 26.5493 92.9716 26.752C93.3556 26.9547 93.761 27.056 94.1876 27.056C94.7423 27.056 95.2063 26.928 95.5796 26.672C95.953 26.416 96.225 26.0693 96.3956 25.632H97.7236C97.5103 26.368 97.0996 26.9813 96.4916 27.472C95.8943 27.952 95.1263 28.192 94.1876 28.192ZM94.1876 21.008C93.5476 21.008 92.977 21.2053 92.4756 21.6C91.985 21.984 91.7023 22.5493 91.6276 23.296H96.6196C96.5876 22.5813 96.3423 22.0213 95.8836 21.616C95.425 21.2107 94.8596 21.008 94.1876 21.008ZM102.369 28.192C101.708 28.192 101.158 28.08 100.721 27.856C100.284 27.632 99.9583 27.3333 99.745 26.96C99.5317 26.5867 99.425 26.1813 99.425 25.744C99.425 24.9333 99.7343 24.3093 100.353 23.872C100.972 23.4347 101.814 23.216 102.881 23.216H105.025V23.12C105.025 22.4267 104.844 21.904 104.481 21.552C104.118 21.1893 103.633 21.008 103.025 21.008C102.502 21.008 102.049 21.1413 101.665 21.408C101.292 21.664 101.057 22.0427 100.961 22.544H99.585C99.6383 21.968 99.8303 21.4827 100.161 21.088C100.502 20.6933 100.924 20.3947 101.425 20.192C101.926 19.9787 102.46 19.872 103.025 19.872C104.134 19.872 104.966 20.1707 105.521 20.768C106.086 21.3547 106.369 22.1387 106.369 23.12V28H105.169L105.089 26.576C104.865 27.024 104.534 27.408 104.097 27.728C103.67 28.0373 103.094 28.192 102.369 28.192ZM102.577 27.056C103.089 27.056 103.526 26.9227 103.889 26.656C104.262 26.3893 104.545 26.0427 104.737 25.616C104.929 25.1893 105.025 24.7413 105.025 24.272V24.256H102.993C102.204 24.256 101.644 24.3947 101.313 24.672C100.993 24.9387 100.833 25.2747 100.833 25.68C100.833 26.096 100.982 26.432 101.281 26.688C101.59 26.9333 102.022 27.056 102.577 27.056ZM111.425 28.192C110.476 28.192 109.687 27.952 109.057 27.472C108.428 26.992 108.06 26.3413 107.953 25.52H109.329C109.415 25.936 109.633 26.2987 109.985 26.608C110.348 26.9067 110.833 27.056 111.441 27.056C112.007 27.056 112.423 26.9387 112.689 26.704C112.956 26.4587 113.089 26.1707 113.089 25.84C113.089 25.36 112.913 25.04 112.561 24.88C112.22 24.72 111.735 24.576 111.105 24.448C110.679 24.3627 110.252 24.24 109.825 24.08C109.399 23.92 109.041 23.696 108.753 23.408C108.465 23.1093 108.321 22.72 108.321 22.24C108.321 21.5467 108.577 20.9813 109.089 20.544C109.612 20.096 110.316 19.872 111.201 19.872C112.044 19.872 112.732 20.0853 113.265 20.512C113.809 20.928 114.124 21.5253 114.209 22.304H112.881C112.828 21.8987 112.652 21.584 112.353 21.36C112.065 21.1253 111.676 21.008 111.185 21.008C110.705 21.008 110.332 21.1093 110.065 21.312C109.809 21.5147 109.681 21.7813 109.681 22.112C109.681 22.432 109.847 22.6827 110.177 22.864C110.519 23.0453 110.977 23.2 111.553 23.328C112.044 23.4347 112.508 23.568 112.945 23.728C113.393 23.8773 113.756 24.1067 114.033 24.416C114.321 24.7147 114.465 25.152 114.465 25.728C114.476 26.4427 114.204 27.0347 113.649 27.504C113.105 27.9627 112.364 28.192 111.425 28.192ZM119.953 28.192C119.196 28.192 118.524 28.0213 117.937 27.68C117.351 27.328 116.887 26.8427 116.545 26.224C116.215 25.6053 116.049 24.8747 116.049 24.032C116.049 23.2 116.215 22.4747 116.545 21.856C116.876 21.2267 117.335 20.7413 117.921 20.4C118.519 20.048 119.207 19.872 119.985 19.872C120.753 19.872 121.415 20.048 121.969 20.4C122.535 20.7413 122.967 21.1947 123.265 21.76C123.564 22.3253 123.713 22.9333 123.713 23.584C123.713 23.7013 123.708 23.8187 123.697 23.936C123.697 24.0533 123.697 24.1867 123.697 24.336H117.377C117.409 24.944 117.548 25.4507 117.793 25.856C118.049 26.2507 118.364 26.5493 118.737 26.752C119.121 26.9547 119.527 27.056 119.953 27.056C120.508 27.056 120.972 26.928 121.345 26.672C121.719 26.416 121.991 26.0693 122.161 25.632H123.489C123.276 26.368 122.865 26.9813 122.257 27.472C121.66 27.952 120.892 28.192 119.953 28.192ZM119.953 21.008C119.313 21.008 118.743 21.2053 118.241 21.6C117.751 21.984 117.468 22.5493 117.393 23.296H122.385C122.353 22.5813 122.108 22.0213 121.649 21.616C121.191 21.2107 120.625 21.008 119.953 21.008ZM132.865 28C132.14 28 131.569 27.824 131.153 27.472C130.737 27.12 130.529 26.4853 130.529 25.568V21.2H129.153V20.064H130.529L130.705 18.16H131.873V20.064H134.209V21.2H131.873V25.568C131.873 26.0693 131.974 26.4107 132.177 26.592C132.38 26.7627 132.737 26.848 133.249 26.848H134.081V28H132.865ZM138.557 28.192C137.895 28.192 137.346 28.08 136.909 27.856C136.471 27.632 136.146 27.3333 135.933 26.96C135.719 26.5867 135.613 26.1813 135.613 25.744C135.613 24.9333 135.922 24.3093 136.541 23.872C137.159 23.4347 138.002 23.216 139.069 23.216H141.213V23.12C141.213 22.4267 141.031 21.904 140.669 21.552C140.306 21.1893 139.821 21.008 139.213 21.008C138.69 21.008 138.237 21.1413 137.853 21.408C137.479 21.664 137.245 22.0427 137.149 22.544H135.773C135.826 21.968 136.018 21.4827 136.349 21.088C136.69 20.6933 137.111 20.3947 137.613 20.192C138.114 19.9787 138.647 19.872 139.213 19.872C140.322 19.872 141.154 20.1707 141.709 20.768C142.274 21.3547 142.557 22.1387 142.557 23.12V28H141.357L141.277 26.576C141.053 27.024 140.722 27.408 140.285 27.728C139.858 28.0373 139.282 28.192 138.557 28.192ZM138.765 27.056C139.277 27.056 139.714 26.9227 140.077 26.656C140.45 26.3893 140.733 26.0427 140.925 25.616C141.117 25.1893 141.213 24.7413 141.213 24.272V24.256H139.181C138.391 24.256 137.831 24.3947 137.501 24.672C137.181 24.9387 137.021 25.2747 137.021 25.68C137.021 26.096 137.17 26.432 137.469 26.688C137.778 26.9333 138.21 27.056 138.765 27.056ZM144.573 28V16.48H145.917V23.408L149.165 20.064H150.813L147.293 23.648L151.261 28H149.549L145.917 23.888V28H144.573ZM155.625 28.192C154.868 28.192 154.196 28.0213 153.609 27.68C153.022 27.328 152.558 26.8427 152.217 26.224C151.886 25.6053 151.721 24.8747 151.721 24.032C151.721 23.2 151.886 22.4747 152.217 21.856C152.548 21.2267 153.006 20.7413 153.593 20.4C154.19 20.048 154.878 19.872 155.657 19.872C156.425 19.872 157.086 20.048 157.641 20.4C158.206 20.7413 158.638 21.1947 158.937 21.76C159.236 22.3253 159.385 22.9333 159.385 23.584C159.385 23.7013 159.38 23.8187 159.369 23.936C159.369 24.0533 159.369 24.1867 159.369 24.336H153.049C153.081 24.944 153.22 25.4507 153.465 25.856C153.721 26.2507 154.036 26.5493 154.409 26.752C154.793 26.9547 155.198 27.056 155.625 27.056C156.18 27.056 156.644 26.928 157.017 26.672C157.39 26.416 157.662 26.0693 157.833 25.632H159.161C158.948 26.368 158.537 26.9813 157.929 27.472C157.332 27.952 156.564 28.192 155.625 28.192ZM155.625 21.008C154.985 21.008 154.414 21.2053 153.913 21.6C153.422 21.984 153.14 22.5493 153.065 23.296H158.057C158.025 22.5813 157.78 22.0213 157.321 21.616C156.862 21.2107 156.297 21.008 155.625 21.008ZM163.807 28.192C163.145 28.192 162.596 28.08 162.159 27.856C161.721 27.632 161.396 27.3333 161.183 26.96C160.969 26.5867 160.863 26.1813 160.863 25.744C160.863 24.9333 161.172 24.3093 161.791 23.872C162.409 23.4347 163.252 23.216 164.319 23.216H166.463V23.12C166.463 22.4267 166.281 21.904 165.919 21.552C165.556 21.1893 165.071 21.008 164.463 21.008C163.94 21.008 163.487 21.1413 163.103 21.408C162.729 21.664 162.495 22.0427 162.399 22.544H161.023C161.076 21.968 161.268 21.4827 161.599 21.088C161.94 20.6933 162.361 20.3947 162.863 20.192C163.364 19.9787 163.897 19.872 164.463 19.872C165.572 19.872 166.404 20.1707 166.959 20.768C167.524 21.3547 167.807 22.1387 167.807 23.12V28H166.607L166.527 26.576C166.303 27.024 165.972 27.408 165.535 27.728C165.108 28.0373 164.532 28.192 163.807 28.192ZM164.015 27.056C164.527 27.056 164.964 26.9227 165.327 26.656C165.7 26.3893 165.983 26.0427 166.175 25.616C166.367 25.1893 166.463 24.7413 166.463 24.272V24.256H164.431C163.641 24.256 163.081 24.3947 162.751 24.672C162.431 24.9387 162.271 25.2747 162.271 25.68C162.271 26.096 162.42 26.432 162.719 26.688C163.028 26.9333 163.46 27.056 164.015 27.056ZM171.267 28L168.947 20.064H170.291L171.971 26.288L173.827 20.064H175.347L177.219 26.288L178.883 20.064H180.243L177.923 28H176.547L174.595 21.456L172.643 28H171.267ZM184.088 28.192C183.426 28.192 182.877 28.08 182.44 27.856C182.002 27.632 181.677 27.3333 181.464 26.96C181.25 26.5867 181.144 26.1813 181.144 25.744C181.144 24.9333 181.453 24.3093 182.072 23.872C182.69 23.4347 183.533 23.216 184.6 23.216H186.744V23.12C186.744 22.4267 186.562 21.904 186.2 21.552C185.837 21.1893 185.352 21.008 184.744 21.008C184.221 21.008 183.768 21.1413 183.384 21.408C183.01 21.664 182.776 22.0427 182.68 22.544H181.304C181.357 21.968 181.549 21.4827 181.88 21.088C182.221 20.6933 182.642 20.3947 183.144 20.192C183.645 19.9787 184.178 19.872 184.744 19.872C185.853 19.872 186.685 20.1707 187.24 20.768C187.805 21.3547 188.088 22.1387 188.088 23.12V28H186.888L186.808 26.576C186.584 27.024 186.253 27.408 185.816 27.728C185.389 28.0373 184.813 28.192 184.088 28.192ZM184.296 27.056C184.808 27.056 185.245 26.9227 185.608 26.656C185.981 26.3893 186.264 26.0427 186.456 25.616C186.648 25.1893 186.744 24.7413 186.744 24.272V24.256H184.712C183.922 24.256 183.362 24.3947 183.032 24.672C182.712 24.9387 182.552 25.2747 182.552 25.68C182.552 26.096 182.701 26.432 183 26.688C183.309 26.9333 183.741 27.056 184.296 27.056ZM190.734 31.52L192.702 27.232H192.238L189.086 20.064H190.542L193.166 26.24L195.95 20.064H197.342L192.142 31.52H190.734ZM206.387 28.192C205.619 28.192 204.941 28.0533 204.355 27.776C203.779 27.488 203.325 27.0933 202.995 26.592C202.675 26.08 202.515 25.4773 202.515 24.784C202.515 24.0267 202.733 23.3547 203.171 22.768C203.619 22.1707 204.264 21.7013 205.107 21.36C204.744 20.9653 204.483 20.592 204.323 20.24C204.163 19.8773 204.083 19.488 204.083 19.072C204.083 18.3573 204.333 17.7707 204.835 17.312C205.347 16.8427 206.045 16.608 206.931 16.608C207.507 16.608 208.008 16.72 208.435 16.944C208.861 17.1573 209.192 17.456 209.427 17.84C209.661 18.224 209.768 18.6613 209.747 19.152H208.419C208.429 18.672 208.28 18.3093 207.971 18.064C207.672 17.8187 207.325 17.696 206.931 17.696C206.451 17.696 206.077 17.824 205.811 18.08C205.544 18.336 205.411 18.6613 205.411 19.056C205.411 19.3973 205.501 19.728 205.683 20.048C205.875 20.368 206.157 20.7253 206.531 21.12L210.067 24.688C210.376 24.24 210.712 23.7013 211.075 23.072L211.571 22.208H212.995L212.291 23.456C211.821 24.2987 211.373 25.0027 210.947 25.568L213.363 28H211.667L210.179 26.496C209.613 27.104 209.027 27.5413 208.419 27.808C207.811 28.064 207.133 28.192 206.387 28.192ZM203.859 24.736C203.859 25.3973 204.093 25.9467 204.563 26.384C205.032 26.8213 205.645 27.04 206.403 27.04C206.968 27.04 207.48 26.9333 207.939 26.72C208.408 26.496 208.867 26.1333 209.315 25.632L205.923 22.192C205.219 22.4693 204.696 22.8213 204.355 23.248C204.024 23.6747 203.859 24.1707 203.859 24.736ZM222.548 28.192C221.758 28.192 221.065 28.0107 220.468 27.648C219.881 27.2853 219.422 26.7893 219.092 26.16C218.772 25.5307 218.612 24.816 218.612 24.016C218.612 23.216 218.777 22.5067 219.108 21.888C219.438 21.2587 219.897 20.768 220.484 20.416C221.07 20.0533 221.764 19.872 222.564 19.872C223.214 19.872 223.79 20.0053 224.292 20.272C224.793 20.5387 225.182 20.912 225.46 21.392V16.48H226.804V28H225.588L225.46 26.688C225.204 27.072 224.836 27.4187 224.356 27.728C223.876 28.0373 223.273 28.192 222.548 28.192ZM222.692 27.024C223.225 27.024 223.694 26.9013 224.1 26.656C224.516 26.4 224.836 26.048 225.06 25.6C225.294 25.152 225.412 24.6293 225.412 24.032C225.412 23.4347 225.294 22.912 225.06 22.464C224.836 22.016 224.516 21.6693 224.1 21.424C223.694 21.168 223.225 21.04 222.692 21.04C222.169 21.04 221.7 21.168 221.284 21.424C220.878 21.6693 220.558 22.016 220.324 22.464C220.1 22.912 219.988 23.4347 219.988 24.032C219.988 24.6293 220.1 25.152 220.324 25.6C220.558 26.048 220.878 26.4 221.284 26.656C221.7 26.9013 222.169 27.024 222.692 27.024ZM229.811 18.304C229.544 18.304 229.32 18.2187 229.139 18.048C228.968 17.8667 228.883 17.6427 228.883 17.376C228.883 17.12 228.968 16.9067 229.139 16.736C229.32 16.5653 229.544 16.48 229.811 16.48C230.067 16.48 230.285 16.5653 230.467 16.736C230.648 16.9067 230.739 17.12 230.739 17.376C230.739 17.6427 230.648 17.8667 230.467 18.048C230.285 18.2187 230.067 18.304 229.811 18.304ZM229.139 28V20.064H230.483V28H229.139ZM232.823 28V20.064H234.039L234.119 21.488C234.375 20.9867 234.743 20.592 235.223 20.304C235.703 20.016 236.247 19.872 236.855 19.872C237.793 19.872 238.54 20.16 239.095 20.736C239.66 21.3013 239.943 22.176 239.943 23.36V28H238.599V23.504C238.599 21.8507 237.916 21.024 236.551 21.024C235.868 21.024 235.297 21.2747 234.839 21.776C234.391 22.2667 234.167 22.9707 234.167 23.888V28H232.823ZM245.547 28.192C244.79 28.192 244.118 28.0213 243.531 27.68C242.944 27.328 242.48 26.8427 242.139 26.224C241.808 25.6053 241.643 24.8747 241.643 24.032C241.643 23.2 241.808 22.4747 242.139 21.856C242.47 21.2267 242.928 20.7413 243.515 20.4C244.112 20.048 244.8 19.872 245.579 19.872C246.347 19.872 247.008 20.048 247.563 20.4C248.128 20.7413 248.56 21.1947 248.859 21.76C249.158 22.3253 249.307 22.9333 249.307 23.584C249.307 23.7013 249.302 23.8187 249.291 23.936C249.291 24.0533 249.291 24.1867 249.291 24.336H242.971C243.003 24.944 243.142 25.4507 243.387 25.856C243.643 26.2507 243.958 26.5493 244.331 26.752C244.715 26.9547 245.12 27.056 245.547 27.056C246.102 27.056 246.566 26.928 246.939 26.672C247.312 26.416 247.584 26.0693 247.755 25.632H249.083C248.87 26.368 248.459 26.9813 247.851 27.472C247.254 27.952 246.486 28.192 245.547 28.192ZM245.547 21.008C244.907 21.008 244.336 21.2053 243.835 21.6C243.344 21.984 243.062 22.5493 242.987 23.296H247.979C247.947 22.5813 247.702 22.0213 247.243 21.616C246.784 21.2107 246.219 21.008 245.547 21.008ZM250.928 23.92V22.784H257.264V23.92H250.928ZM260.108 18.304C259.841 18.304 259.617 18.2187 259.436 18.048C259.265 17.8667 259.18 17.6427 259.18 17.376C259.18 17.12 259.265 16.9067 259.436 16.736C259.617 16.5653 259.841 16.48 260.108 16.48C260.364 16.48 260.582 16.5653 260.764 16.736C260.945 16.9067 261.036 17.12 261.036 17.376C261.036 17.6427 260.945 17.8667 260.764 18.048C260.582 18.2187 260.364 18.304 260.108 18.304ZM259.436 28V20.064H260.78V28H259.436ZM263.12 28V20.064H264.336L264.416 21.488C264.672 20.9867 265.04 20.592 265.52 20.304C266 20.016 266.544 19.872 267.152 19.872C268.09 19.872 268.837 20.16 269.392 20.736C269.957 21.3013 270.24 22.176 270.24 23.36V28H268.896V23.504C268.896 21.8507 268.213 21.024 266.848 21.024C266.165 21.024 265.594 21.2747 265.136 21.776C264.688 22.2667 264.464 22.9707 264.464 23.888V28H263.12ZM66.704 50.192C65.9147 50.192 65.2213 50.0107 64.624 49.648C64.0373 49.2853 63.5787 48.7893 63.248 48.16C62.928 47.5307 62.768 46.816 62.768 46.016C62.768 45.216 62.9333 44.5067 63.264 43.888C63.5947 43.2587 64.0533 42.768 64.64 42.416C65.2267 42.0533 65.92 41.872 66.72 41.872C67.3707 41.872 67.9467 42.0053 68.448 42.272C68.9493 42.5387 69.3387 42.912 69.616 43.392V38.48H70.96V50H69.744L69.616 48.688C69.36 49.072 68.992 49.4187 68.512 49.728C68.032 50.0373 67.4293 50.192 66.704 50.192ZM66.848 49.024C67.3813 49.024 67.8507 48.9013 68.256 48.656C68.672 48.4 68.992 48.048 69.216 47.6C69.4507 47.152 69.568 46.6293 69.568 46.032C69.568 45.4347 69.4507 44.912 69.216 44.464C68.992 44.016 68.672 43.6693 68.256 43.424C67.8507 43.168 67.3813 43.04 66.848 43.04C66.3253 43.04 65.856 43.168 65.44 43.424C65.0347 43.6693 64.7147 44.016 64.48 44.464C64.256 44.912 64.144 45.4347 64.144 46.032C64.144 46.6293 64.256 47.152 64.48 47.6C64.7147 48.048 65.0347 48.4 65.44 48.656C65.856 48.9013 66.3253 49.024 66.848 49.024ZM76.7189 50.192C75.9615 50.192 75.2895 50.0213 74.7029 49.68C74.1162 49.328 73.6522 48.8427 73.3109 48.224C72.9802 47.6053 72.8149 46.8747 72.8149 46.032C72.8149 45.2 72.9802 44.4747 73.3109 43.856C73.6415 43.2267 74.1002 42.7413 74.6869 42.4C75.2842 42.048 75.9722 41.872 76.7509 41.872C77.5189 41.872 78.1802 42.048 78.7349 42.4C79.3002 42.7413 79.7322 43.1947 80.0309 43.76C80.3295 44.3253 80.4789 44.9333 80.4789 45.584C80.4789 45.7013 80.4735 45.8187 80.4629 45.936C80.4629 46.0533 80.4629 46.1867 80.4629 46.336H74.1429C74.1749 46.944 74.3135 47.4507 74.5589 47.856C74.8149 48.2507 75.1295 48.5493 75.5029 48.752C75.8869 48.9547 76.2922 49.056 76.7189 49.056C77.2735 49.056 77.7375 48.928 78.1109 48.672C78.4842 48.416 78.7562 48.0693 78.9269 47.632H80.2549C80.0415 48.368 79.6309 48.9813 79.0229 49.472C78.4255 49.952 77.6575 50.192 76.7189 50.192ZM76.7189 43.008C76.0789 43.008 75.5082 43.2053 75.0069 43.6C74.5162 43.984 74.2335 44.5493 74.1589 45.296H79.1509C79.1189 44.5813 78.8735 44.0213 78.4149 43.616C77.9562 43.2107 77.3909 43.008 76.7189 43.008ZM82.2603 50V42.064H83.4763L83.5723 43.216C83.8283 42.7893 84.1696 42.4587 84.5963 42.224C85.0229 41.9893 85.5029 41.872 86.0363 41.872C86.6656 41.872 87.2043 42 87.6523 42.256C88.1109 42.512 88.4629 42.9013 88.7083 43.424C88.9856 42.944 89.3643 42.5653 89.8443 42.288C90.3349 42.0107 90.8629 41.872 91.4283 41.872C92.3776 41.872 93.1349 42.16 93.7003 42.736C94.2656 43.3013 94.5483 44.176 94.5483 45.36V50H93.2203V45.504C93.2203 44.6827 93.0549 44.064 92.7243 43.648C92.3936 43.232 91.9189 43.024 91.3003 43.024C90.6603 43.024 90.1269 43.2747 89.7003 43.776C89.2843 44.2667 89.0763 44.9707 89.0763 45.888V50H87.7323V45.504C87.7323 44.6827 87.5669 44.064 87.2363 43.648C86.9056 43.232 86.4309 43.024 85.8123 43.024C85.1829 43.024 84.6549 43.2747 84.2283 43.776C83.8123 44.2667 83.6043 44.9707 83.6043 45.888V50H82.2603ZM99.2128 50.192C98.5514 50.192 98.0021 50.08 97.5648 49.856C97.1274 49.632 96.8021 49.3333 96.5888 48.96C96.3754 48.5867 96.2688 48.1813 96.2688 47.744C96.2688 46.9333 96.5781 46.3093 97.1968 45.872C97.8154 45.4347 98.6581 45.216 99.7248 45.216H101.869V45.12C101.869 44.4267 101.687 43.904 101.325 43.552C100.962 43.1893 100.477 43.008 99.8688 43.008C99.3461 43.008 98.8928 43.1413 98.5088 43.408C98.1354 43.664 97.9008 44.0427 97.8048 44.544H96.4288C96.4821 43.968 96.6741 43.4827 97.0048 43.088C97.3461 42.6933 97.7674 42.3947 98.2688 42.192C98.7701 41.9787 99.3034 41.872 99.8688 41.872C100.978 41.872 101.81 42.1707 102.365 42.768C102.93 43.3547 103.213 44.1387 103.213 45.12V50H102.013L101.933 48.576C101.709 49.024 101.378 49.408 100.941 49.728C100.514 50.0373 99.9381 50.192 99.2128 50.192ZM99.4208 49.056C99.9328 49.056 100.37 48.9227 100.733 48.656C101.106 48.3893 101.389 48.0427 101.581 47.616C101.773 47.1893 101.869 46.7413 101.869 46.272V46.256H99.8368C99.0474 46.256 98.4874 46.3947 98.1568 46.672C97.8368 46.9387 97.6768 47.2747 97.6768 47.68C97.6768 48.096 97.8261 48.432 98.1248 48.688C98.4341 48.9333 98.8661 49.056 99.4208 49.056ZM105.229 50V42.064H106.445L106.525 43.488C106.781 42.9867 107.149 42.592 107.629 42.304C108.109 42.016 108.653 41.872 109.261 41.872C110.2 41.872 110.946 42.16 111.501 42.736C112.066 43.3013 112.349 44.176 112.349 45.36V50H111.005V45.504C111.005 43.8507 110.322 43.024 108.957 43.024C108.274 43.024 107.704 43.2747 107.245 43.776C106.797 44.2667 106.573 44.9707 106.573 45.888V50H105.229ZM117.985 50.192C117.196 50.192 116.503 50.0107 115.905 49.648C115.319 49.2853 114.86 48.7893 114.529 48.16C114.209 47.5307 114.049 46.816 114.049 46.016C114.049 45.216 114.215 44.5067 114.545 43.888C114.876 43.2587 115.335 42.768 115.921 42.416C116.508 42.0533 117.201 41.872 118.001 41.872C118.652 41.872 119.228 42.0053 119.729 42.272C120.231 42.5387 120.62 42.912 120.897 43.392V38.48H122.241V50H121.025L120.897 48.688C120.641 49.072 120.273 49.4187 119.793 49.728C119.313 50.0373 118.711 50.192 117.985 50.192ZM118.129 49.024C118.663 49.024 119.132 48.9013 119.537 48.656C119.953 48.4 120.273 48.048 120.497 47.6C120.732 47.152 120.849 46.6293 120.849 46.032C120.849 45.4347 120.732 44.912 120.497 44.464C120.273 44.016 119.953 43.6693 119.537 43.424C119.132 43.168 118.663 43.04 118.129 43.04C117.607 43.04 117.137 43.168 116.721 43.424C116.316 43.6693 115.996 44.016 115.761 44.464C115.537 44.912 115.425 45.4347 115.425 46.032C115.425 46.6293 115.537 47.152 115.761 47.6C115.996 48.048 116.316 48.4 116.721 48.656C117.137 48.9013 117.607 49.024 118.129 49.024Z" fill="black"/>
<line x1="21.7266" y1="64.4428" x2="306.273" y2="64.4428" stroke="#F5EEDD" stroke-width="0.885635"/>
<rect width="42" height="42" transform="translate(12 73.8856)" fill="white"/>
<path d="M19.6471 86.0063C19.6471 86.0063 19.3773 84.3219 17.6026 84.3219C15.6922 84.3219 15.4883 86.9796 15.4883 88.89L15.4883 91.5234L15.4883 97.0406C15.4883 97.7725 16.0816 98.3659 16.8136 98.3659H17.5777H23.8563H24.5726C25.3046 98.3659 25.8979 97.7725 25.8979 97.0406V95.1081C25.8979 94.43 25.3482 93.8804 24.6702 93.8804H24.0666H21.3252C20.3984 93.8804 19.6471 93.129 19.6471 92.2022V91.6641V86.0063Z" fill="#97B0D7"/>
<path d="M47.0307 86.0063C47.0307 86.0063 47.3004 84.3219 49.0751 84.3219C50.9855 84.3219 51.1894 86.9796 51.1895 88.89L51.1895 91.5234L51.1895 97.0406C51.1895 97.7725 50.5961 98.3659 49.8642 98.3659H49.1H42.8214H42.1051C41.3732 98.3659 40.7798 97.7725 40.7798 97.0406V95.1081C40.7798 94.43 41.3295 93.8804 42.0075 93.8804H42.6111H45.3525C46.2793 93.8804 47.0307 93.129 47.0307 92.2022V91.6641V86.0063Z" fill="#97B0D7"/>
<path d="M22.9484 96.974H23.645C24.3568 96.974 24.9338 96.397 24.9338 95.6852V95.6852V93.8059V93.8059C24.9338 93.1465 24.3993 92.6119 23.7399 92.6119H23.1529H20.4869V92.6119C19.5856 92.6119 18.8549 91.8813 18.8549 90.9799V90.4567V84.9545C18.8549 84.9545 18.5926 83.3164 16.8667 83.3164V83.3164C15.0089 83.3164 14.8106 85.901 14.8105 87.7588L14.8105 90.3198L14.8105 95.6852V95.6852C14.8105 96.397 15.3876 96.974 16.0994 96.974H16.8425M22.9484 96.974H16.8425M22.9484 96.974L24.2227 104.841M16.8425 96.974L15.6214 104.841" stroke="#403C3B" stroke-width="1.53755" stroke-linecap="round" stroke-linejoin="round"/>
<path d="M41.3914 96.9739H40.6949C39.9831 96.9739 39.406 96.3969 39.406 95.6851V95.6851V93.8057V93.8057C39.406 93.1463 39.9406 92.6118 40.6 92.6118H41.187H43.8529V92.6118C44.7542 92.6118 45.4849 91.8811 45.4849 90.9798V90.4565V84.9544C45.4849 84.9544 45.7473 83.3163 47.4731 83.3163V83.3163C49.331 83.3163 49.5293 85.9009 49.5293 87.7587L49.5293 90.3197L49.5293 95.6851V95.6851C49.5293 96.3969 48.9523 96.9739 48.2405 96.9739H47.4973M41.3914 96.9739H47.4973M41.3914 96.9739L40.1172 104.84M47.4973 96.9739L48.7185 104.84" stroke="#403C3B" stroke-width="1.53755" stroke-linecap="round" stroke-linejoin="round"/>
<path d="M24.7539 87.3767H39.4238M32.2518 90.2414V104.841M32.2518 104.841H35.7064M32.2518 104.841H28.8564" stroke="#403C3B" stroke-width="1.53755" stroke-linecap="round" stroke-linejoin="round"/>
<path d="M63.184 88.8856V77.6856H64.528V88.8856H63.184ZM66.8228 88.8856V80.9496H68.0388L68.1188 82.3736C68.3748 81.8723 68.7428 81.4776 69.2228 81.1896C69.7028 80.9016 70.2468 80.7576 70.8548 80.7576C71.7934 80.7576 72.5401 81.0456 73.0948 81.6216C73.6601 82.187 73.9427 83.0616 73.9427 84.2456V88.8856H72.5988V84.3896C72.5988 82.7363 71.9161 81.9096 70.5508 81.9096C69.8681 81.9096 69.2974 82.1603 68.8388 82.6616C68.3908 83.1523 68.1668 83.8563 68.1668 84.7736V88.8856H66.8228ZM79.579 89.0776C78.7897 89.0776 78.0963 88.8963 77.499 88.5336C76.9123 88.171 76.4537 87.675 76.123 87.0456C75.803 86.4163 75.643 85.7016 75.643 84.9016C75.643 84.1016 75.8083 83.3923 76.139 82.7736C76.4697 82.1443 76.9283 81.6536 77.515 81.3016C78.1017 80.939 78.795 80.7576 79.595 80.7576C80.2457 80.7576 80.8217 80.891 81.323 81.1576C81.8243 81.4243 82.2137 81.7976 82.491 82.2776V77.3656H83.835V88.8856H82.619L82.491 87.5736C82.235 87.9576 81.867 88.3043 81.387 88.6136C80.907 88.923 80.3043 89.0776 79.579 89.0776ZM79.723 87.9096C80.2563 87.9096 80.7257 87.787 81.131 87.5416C81.547 87.2856 81.867 86.9336 82.091 86.4856C82.3257 86.0376 82.443 85.515 82.443 84.9176C82.443 84.3203 82.3257 83.7976 82.091 83.3496C81.867 82.9016 81.547 82.555 81.131 82.3096C80.7257 82.0536 80.2563 81.9256 79.723 81.9256C79.2003 81.9256 78.731 82.0536 78.315 82.3096C77.9097 82.555 77.5897 82.9016 77.355 83.3496C77.131 83.7976 77.019 84.3203 77.019 84.9176C77.019 85.515 77.131 86.0376 77.355 86.4856C77.5897 86.9336 77.9097 87.2856 78.315 87.5416C78.731 87.787 79.2003 87.9096 79.723 87.9096ZM88.9219 89.0776C87.9832 89.0776 87.2365 88.795 86.6819 88.2296C86.1272 87.6536 85.8499 86.7736 85.8499 85.5896V80.9496H87.1939V85.4456C87.1939 87.099 87.8712 87.9256 89.2259 87.9256C89.9192 87.9256 90.4899 87.6803 90.9379 87.1896C91.3965 86.6883 91.6259 85.979 91.6259 85.0616V80.9496H92.9699V88.8856H91.7539L91.6579 87.4616C91.4125 87.963 91.0445 88.3576 90.5539 88.6456C90.0739 88.9336 89.5299 89.0776 88.9219 89.0776ZM98.2221 89.0776C97.2728 89.0776 96.4835 88.8376 95.8541 88.3576C95.2248 87.8776 94.8568 87.227 94.7501 86.4056H96.1261C96.2115 86.8216 96.4301 87.1843 96.7821 87.4936C97.1448 87.7923 97.6301 87.9416 98.2381 87.9416C98.8035 87.9416 99.2195 87.8243 99.4861 87.5896C99.7528 87.3443 99.8861 87.0563 99.8861 86.7256C99.8861 86.2456 99.7101 85.9256 99.3581 85.7656C99.0168 85.6056 98.5315 85.4616 97.9021 85.3336C97.4755 85.2483 97.0488 85.1256 96.6221 84.9656C96.1955 84.8056 95.8381 84.5816 95.5501 84.2936C95.2621 83.995 95.1181 83.6056 95.1181 83.1256C95.1181 82.4323 95.3741 81.867 95.8861 81.4296C96.4088 80.9816 97.1128 80.7576 97.9981 80.7576C98.8408 80.7576 99.5288 80.971 100.062 81.3976C100.606 81.8136 100.921 82.411 101.006 83.1896H99.6781C99.6248 82.7843 99.4488 82.4696 99.1501 82.2456C98.8621 82.011 98.4728 81.8936 97.9821 81.8936C97.5021 81.8936 97.1288 81.995 96.8621 82.1976C96.6061 82.4003 96.4781 82.667 96.4781 82.9976C96.4781 83.3176 96.6435 83.5683 96.9741 83.7496C97.3155 83.931 97.7741 84.0856 98.3501 84.2136C98.8408 84.3203 99.3048 84.4536 99.7421 84.6136C100.19 84.763 100.553 84.9923 100.83 85.3016C101.118 85.6003 101.262 86.0376 101.262 86.6136C101.273 87.3283 101.001 87.9203 100.446 88.3896C99.9021 88.8483 99.1608 89.0776 98.2221 89.0776ZM105.959 88.8856C105.233 88.8856 104.663 88.7096 104.247 88.3576C103.831 88.0056 103.623 87.371 103.623 86.4536V82.0856H102.247V80.9496H103.623L103.799 79.0456H104.967V80.9496H107.303V82.0856H104.967V86.4536C104.967 86.955 105.068 87.2963 105.271 87.4776C105.473 87.6483 105.831 87.7336 106.343 87.7336H107.175V88.8856H105.959ZM109.01 88.8856V80.9496H110.226L110.338 82.4696C110.584 81.947 110.957 81.531 111.458 81.2216C111.96 80.9123 112.578 80.7576 113.314 80.7576V82.1656H112.946C112.477 82.1656 112.045 82.251 111.65 82.4216C111.256 82.5816 110.941 82.859 110.706 83.2536C110.472 83.6483 110.354 84.1923 110.354 84.8856V88.8856H109.01ZM115.687 92.4056L117.655 88.1176H117.191L114.039 80.9496H115.495L118.119 87.1256L120.903 80.9496H122.295L117.095 92.4056H115.687ZM123.409 79.9576L123.201 76.8056H124.529L124.337 79.9576H123.409ZM129.269 89.0776C128.32 89.0776 127.53 88.8376 126.901 88.3576C126.272 87.8776 125.904 87.227 125.797 86.4056H127.173C127.258 86.8216 127.477 87.1843 127.829 87.4936C128.192 87.7923 128.677 87.9416 129.285 87.9416C129.85 87.9416 130.266 87.8243 130.533 87.5896C130.8 87.3443 130.933 87.0563 130.933 86.7256C130.933 86.2456 130.757 85.9256 130.405 85.7656C130.064 85.6056 129.578 85.4616 128.949 85.3336C128.522 85.2483 128.096 85.1256 127.669 84.9656C127.242 84.8056 126.885 84.5816 126.597 84.2936C126.309 83.995 126.165 83.6056 126.165 83.1256C126.165 82.4323 126.421 81.867 126.933 81.4296C127.456 80.9816 128.16 80.7576 129.045 80.7576C129.888 80.7576 130.576 80.971 131.109 81.3976C131.653 81.8136 131.968 82.411 132.053 83.1896H130.725C130.672 82.7843 130.496 82.4696 130.197 82.2456C129.909 82.011 129.52 81.8936 129.029 81.8936C128.549 81.8936 128.176 81.995 127.909 82.1976C127.653 82.4003 127.525 82.667 127.525 82.9976C127.525 83.3176 127.69 83.5683 128.021 83.7496C128.362 83.931 128.821 84.0856 129.397 84.2136C129.888 84.3203 130.352 84.4536 130.789 84.6136C131.237 84.763 131.6 84.9923 131.877 85.3016C132.165 85.6003 132.309 86.0376 132.309 86.6136C132.32 87.3283 132.048 87.9203 131.493 88.3896C130.949 88.8483 130.208 89.0776 129.269 89.0776ZM138.895 88.8856V82.0856H137.695V80.9496H138.895V79.5736C138.895 78.8056 139.087 78.2456 139.471 77.8936C139.855 77.5416 140.415 77.3656 141.151 77.3656H141.951V78.5176H141.359C140.954 78.5176 140.666 78.603 140.495 78.7736C140.325 78.9336 140.239 79.211 140.239 79.6056V80.9496H145.167V88.8856H143.823V82.0856H140.239V88.8856H138.895ZM144.511 79.4296C144.255 79.4296 144.037 79.3443 143.855 79.1736C143.674 78.9923 143.583 78.7683 143.583 78.5016C143.583 78.2456 143.674 78.0323 143.855 77.8616C144.037 77.691 144.255 77.6056 144.511 77.6056C144.778 77.6056 144.997 77.691 145.167 77.8616C145.349 78.0323 145.439 78.2456 145.439 78.5016C145.439 78.7683 145.349 78.9923 145.167 79.1736C144.997 79.3443 144.778 79.4296 144.511 79.4296ZM147.542 88.8856V80.9496H148.758L148.87 82.4696C149.115 81.947 149.488 81.531 149.99 81.2216C150.491 80.9123 151.11 80.7576 151.846 80.7576V82.1656H151.478C151.008 82.1656 150.576 82.251 150.182 82.4216C149.787 82.5816 149.472 82.859 149.238 83.2536C149.003 83.6483 148.886 84.1923 148.886 84.8856V88.8856H147.542ZM156.394 89.0776C155.445 89.0776 154.655 88.8376 154.026 88.3576C153.397 87.8776 153.029 87.227 152.922 86.4056H154.298C154.383 86.8216 154.602 87.1843 154.954 87.4936C155.317 87.7923 155.802 87.9416 156.41 87.9416C156.975 87.9416 157.391 87.8243 157.658 87.5896C157.925 87.3443 158.058 87.0563 158.058 86.7256C158.058 86.2456 157.882 85.9256 157.53 85.7656C157.189 85.6056 156.703 85.4616 156.074 85.3336C155.647 85.2483 155.221 85.1256 154.794 84.9656C154.367 84.8056 154.01 84.5816 153.722 84.2936C153.434 83.995 153.29 83.6056 153.29 83.1256C153.29 82.4323 153.546 81.867 154.058 81.4296C154.581 80.9816 155.285 80.7576 156.17 80.7576C157.013 80.7576 157.701 80.971 158.234 81.3976C158.778 81.8136 159.093 82.411 159.178 83.1896H157.85C157.797 82.7843 157.621 82.4696 157.322 82.2456C157.034 82.011 156.645 81.8936 156.154 81.8936C155.674 81.8936 155.301 81.995 155.034 82.1976C154.778 82.4003 154.65 82.667 154.65 82.9976C154.65 83.3176 154.815 83.5683 155.146 83.7496C155.487 83.931 155.946 84.0856 156.522 84.2136C157.013 84.3203 157.477 84.4536 157.914 84.6136C158.362 84.763 158.725 84.9923 159.002 85.3016C159.29 85.6003 159.434 86.0376 159.434 86.6136C159.445 87.3283 159.173 87.9203 158.618 88.3896C158.074 88.8483 157.333 89.0776 156.394 89.0776ZM164.131 88.8856C163.405 88.8856 162.835 88.7096 162.419 88.3576C162.003 88.0056 161.795 87.371 161.795 86.4536V82.0856H160.419V80.9496H161.795L161.971 79.0456H163.139V80.9496H165.475V82.0856H163.139V86.4536C163.139 86.955 163.24 87.2963 163.443 87.4776C163.645 87.6483 164.003 87.7336 164.515 87.7336H165.347V88.8856H164.131ZM174.457 89.0776C173.507 89.0776 172.718 88.8376 172.089 88.3576C171.459 87.8776 171.091 87.227 170.985 86.4056H172.361C172.446 86.8216 172.665 87.1843 173.017 87.4936C173.379 87.7923 173.865 87.9416 174.473 87.9416C175.038 87.9416 175.454 87.8243 175.721 87.5896C175.987 87.3443 176.121 87.0563 176.121 86.7256C176.121 86.2456 175.945 85.9256 175.593 85.7656C175.251 85.6056 174.766 85.4616 174.137 85.3336C173.71 85.2483 173.283 85.1256 172.857 84.9656C172.43 84.8056 172.073 84.5816 171.785 84.2936C171.497 83.995 171.353 83.6056 171.353 83.1256C171.353 82.4323 171.609 81.867 172.121 81.4296C172.643 80.9816 173.347 80.7576 174.233 80.7576C175.075 80.7576 175.763 80.971 176.297 81.3976C176.841 81.8136 177.155 82.411 177.241 83.1896H175.913C175.859 82.7843 175.683 82.4696 175.385 82.2456C175.097 82.011 174.707 81.8936 174.217 81.8936C173.737 81.8936 173.363 81.995 173.097 82.1976C172.841 82.4003 172.713 82.667 172.713 82.9976C172.713 83.3176 172.878 83.5683 173.209 83.7496C173.55 83.931 174.009 84.0856 174.585 84.2136C175.075 84.3203 175.539 84.4536 175.977 84.6136C176.425 84.763 176.787 84.9923 177.065 85.3016C177.353 85.6003 177.497 86.0376 177.497 86.6136C177.507 87.3283 177.235 87.9203 176.681 88.3896C176.137 88.8483 175.395 89.0776 174.457 89.0776ZM183.033 89.0776C182.286 89.0776 181.614 88.907 181.017 88.5656C180.419 88.2243 179.945 87.7443 179.593 87.1256C179.251 86.4963 179.081 85.7603 179.081 84.9176C179.081 84.075 179.257 83.3443 179.609 82.7256C179.961 82.0963 180.435 81.611 181.033 81.2696C181.641 80.9283 182.318 80.7576 183.065 80.7576C183.811 80.7576 184.483 80.9283 185.081 81.2696C185.678 81.611 186.147 82.0963 186.489 82.7256C186.841 83.3443 187.017 84.075 187.017 84.9176C187.017 85.7603 186.841 86.4963 186.489 87.1256C186.137 87.7443 185.657 88.2243 185.049 88.5656C184.451 88.907 183.779 89.0776 183.033 89.0776ZM183.033 87.9256C183.491 87.9256 183.918 87.8136 184.313 87.5896C184.707 87.3656 185.027 87.0296 185.273 86.5816C185.518 86.1336 185.641 85.579 185.641 84.9176C185.641 84.2563 185.518 83.7016 185.273 83.2536C185.038 82.8056 184.723 82.4696 184.329 82.2456C183.934 82.0216 183.513 81.9096 183.065 81.9096C182.606 81.9096 182.179 82.0216 181.785 82.2456C181.39 82.4696 181.07 82.8056 180.825 83.2536C180.579 83.7016 180.457 84.2563 180.457 84.9176C180.457 85.579 180.579 86.1336 180.825 86.5816C181.07 87.0296 181.385 87.3656 181.769 87.5896C182.163 87.8136 182.585 87.9256 183.033 87.9256ZM189.317 88.8856V82.0856H188.117V80.9496H189.317V79.5736C189.317 78.8056 189.509 78.2456 189.893 77.8936C190.277 77.5416 190.837 77.3656 191.573 77.3656H192.373V78.5176H191.781C191.376 78.5176 191.088 78.603 190.917 78.7736C190.747 78.9336 190.661 79.211 190.661 79.6056V80.9496H192.613V82.0856H190.661V88.8856H189.317ZM197.349 88.8856C196.624 88.8856 196.053 88.7096 195.637 88.3576C195.221 88.0056 195.013 87.371 195.013 86.4536V82.0856H193.637V80.9496H195.013L195.189 79.0456H196.357V80.9496H198.693V82.0856H196.357V86.4536C196.357 86.955 196.459 87.2963 196.661 87.4776C196.864 87.6483 197.221 87.7336 197.733 87.7336H198.565V88.8856H197.349ZM202.001 88.8856L199.681 80.9496H201.025L202.705 87.1736L204.561 80.9496H206.081L207.953 87.1736L209.617 80.9496H210.977L208.657 88.8856H207.281L205.329 82.3416L203.377 88.8856H202.001ZM214.822 89.0776C214.161 89.0776 213.611 88.9656 213.174 88.7416C212.737 88.5176 212.411 88.219 212.198 87.8456C211.985 87.4723 211.878 87.067 211.878 86.6296C211.878 85.819 212.187 85.195 212.806 84.7576C213.425 84.3203 214.267 84.1016 215.334 84.1016H217.478V84.0056C217.478 83.3123 217.297 82.7896 216.934 82.4376C216.571 82.075 216.086 81.8936 215.478 81.8936C214.955 81.8936 214.502 82.027 214.118 82.2936C213.745 82.5496 213.51 82.9283 213.414 83.4296H212.038C212.091 82.8536 212.283 82.3683 212.614 81.9736C212.955 81.579 213.377 81.2803 213.878 81.0776C214.379 80.8643 214.913 80.7576 215.478 80.7576C216.587 80.7576 217.419 81.0563 217.974 81.6536C218.539 82.2403 218.822 83.0243 218.822 84.0056V88.8856H217.622L217.542 87.4616C217.318 87.9096 216.987 88.2936 216.55 88.6136C216.123 88.923 215.547 89.0776 214.822 89.0776ZM215.03 87.9416C215.542 87.9416 215.979 87.8083 216.342 87.5416C216.715 87.275 216.998 86.9283 217.19 86.5016C217.382 86.075 217.478 85.627 217.478 85.1576V85.1416H215.446C214.657 85.1416 214.097 85.2803 213.766 85.5576C213.446 85.8243 213.286 86.1603 213.286 86.5656C213.286 86.9816 213.435 87.3176 213.734 87.5736C214.043 87.819 214.475 87.9416 215.03 87.9416ZM220.838 88.8856V80.9496H222.054L222.166 82.4696C222.412 81.947 222.785 81.531 223.286 81.2216C223.788 80.9123 224.406 80.7576 225.142 80.7576V82.1656H224.774C224.305 82.1656 223.873 82.251 223.478 82.4216C223.084 82.5816 222.769 82.859 222.534 83.2536C222.3 83.6483 222.182 84.1923 222.182 84.8856V88.8856H220.838ZM229.922 89.0776C229.165 89.0776 228.493 88.907 227.906 88.5656C227.319 88.2136 226.855 87.7283 226.514 87.1096C226.183 86.491 226.018 85.7603 226.018 84.9176C226.018 84.0856 226.183 83.3603 226.514 82.7416C226.845 82.1123 227.303 81.627 227.89 81.2856C228.487 80.9336 229.175 80.7576 229.954 80.7576C230.722 80.7576 231.383 80.9336 231.938 81.2856C232.503 81.627 232.935 82.0803 233.234 82.6456C233.533 83.211 233.682 83.819 233.682 84.4696C233.682 84.587 233.677 84.7043 233.666 84.8216C233.666 84.939 233.666 85.0723 233.666 85.2216H227.346C227.378 85.8296 227.517 86.3363 227.762 86.7416C228.018 87.1363 228.333 87.435 228.706 87.6376C229.09 87.8403 229.495 87.9416 229.922 87.9416C230.477 87.9416 230.941 87.8136 231.314 87.5576C231.687 87.3016 231.959 86.955 232.13 86.5176H233.458C233.245 87.2536 232.834 87.867 232.226 88.3576C231.629 88.8376 230.861 89.0776 229.922 89.0776ZM229.922 81.8936C229.282 81.8936 228.711 82.091 228.21 82.4856C227.719 82.8696 227.437 83.435 227.362 84.1816H232.354C232.322 83.467 232.077 82.907 231.618 82.5016C231.159 82.0963 230.594 81.8936 229.922 81.8936ZM242.834 88.8856C242.108 88.8856 241.538 88.7096 241.122 88.3576C240.706 88.0056 240.498 87.371 240.498 86.4536V82.0856H239.122V80.9496H240.498L240.674 79.0456H241.842V80.9496H244.178V82.0856H241.842V86.4536C241.842 86.955 241.943 87.2963 242.146 87.4776C242.348 87.6483 242.706 87.7336 243.218 87.7336H244.05V88.8856H242.834ZM249.283 89.0776C248.536 89.0776 247.864 88.907 247.267 88.5656C246.669 88.2243 246.195 87.7443 245.843 87.1256C245.501 86.4963 245.331 85.7603 245.331 84.9176C245.331 84.075 245.507 83.3443 245.859 82.7256C246.211 82.0963 246.685 81.611 247.283 81.2696C247.891 80.9283 248.568 80.7576 249.315 80.7576C250.061 80.7576 250.733 80.9283 251.331 81.2696C251.928 81.611 252.397 82.0963 252.739 82.7256C253.091 83.3443 253.267 84.075 253.267 84.9176C253.267 85.7603 253.091 86.4963 252.739 87.1256C252.387 87.7443 251.907 88.2243 251.299 88.5656C250.701 88.907 250.029 89.0776 249.283 89.0776ZM249.283 87.9256C249.741 87.9256 250.168 87.8136 250.563 87.5896C250.957 87.3656 251.277 87.0296 251.523 86.5816C251.768 86.1336 251.891 85.579 251.891 84.9176C251.891 84.2563 251.768 83.7016 251.523 83.2536C251.288 82.8056 250.973 82.4696 250.579 82.2456C250.184 82.0216 249.763 81.9096 249.315 81.9096C248.856 81.9096 248.429 82.0216 248.035 82.2456C247.64 82.4696 247.32 82.8056 247.075 83.2536C246.829 83.7016 246.707 84.2563 246.707 84.9176C246.707 85.579 246.829 86.1336 247.075 86.5816C247.32 87.0296 247.635 87.3656 248.019 87.5896C248.413 87.8136 248.835 87.9256 249.283 87.9256ZM263.018 89.0776C262.26 89.0776 261.578 88.907 260.97 88.5656C260.372 88.2136 259.898 87.7283 259.546 87.1096C259.204 86.4803 259.034 85.7496 259.034 84.9176C259.034 84.0856 259.204 83.3603 259.546 82.7416C259.898 82.1123 260.372 81.627 260.97 81.2856C261.578 80.9336 262.26 80.7576 263.018 80.7576C263.956 80.7576 264.746 81.003 265.386 81.4936C266.036 81.9843 266.447 82.6403 266.618 83.4616H265.242C265.135 82.971 264.874 82.5923 264.458 82.3256C264.042 82.0483 263.556 81.9096 263.002 81.9096C262.554 81.9096 262.132 82.0216 261.738 82.2456C261.343 82.4696 261.023 82.8056 260.778 83.2536C260.532 83.7016 260.41 84.2563 260.41 84.9176C260.41 85.579 260.532 86.1336 260.778 86.5816C261.023 87.0296 261.343 87.371 261.738 87.6056C262.132 87.8296 262.554 87.9416 263.002 87.9416C263.556 87.9416 264.042 87.8083 264.458 87.5416C264.874 87.2643 265.135 86.875 265.242 86.3736H266.618C266.458 87.1736 266.052 87.8243 265.402 88.3256C264.751 88.827 263.956 89.0776 263.018 89.0776ZM268.495 88.8856V80.9496H269.711L269.823 82.4696C270.068 81.947 270.441 81.531 270.943 81.2216C271.444 80.9123 272.063 80.7576 272.799 80.7576V82.1656H272.431C271.961 82.1656 271.529 82.251 271.135 82.4216C270.74 82.5816 270.425 82.859 270.191 83.2536C269.956 83.6483 269.839 84.1923 269.839 84.8856V88.8856H268.495ZM277.578 89.0776C276.821 89.0776 276.149 88.907 275.562 88.5656C274.976 88.2136 274.512 87.7283 274.17 87.1096C273.84 86.491 273.674 85.7603 273.674 84.9176C273.674 84.0856 273.84 83.3603 274.17 82.7416C274.501 82.1123 274.96 81.627 275.546 81.2856C276.144 80.9336 276.832 80.7576 277.61 80.7576C278.378 80.7576 279.04 80.9336 279.594 81.2856C280.16 81.627 280.592 82.0803 280.89 82.6456C281.189 83.211 281.338 83.819 281.338 84.4696C281.338 84.587 281.333 84.7043 281.322 84.8216C281.322 84.939 281.322 85.0723 281.322 85.2216H275.002C275.034 85.8296 275.173 86.3363 275.418 86.7416C275.674 87.1363 275.989 87.435 276.362 87.6376C276.746 87.8403 277.152 87.9416 277.578 87.9416C278.133 87.9416 278.597 87.8136 278.97 87.5576C279.344 87.3016 279.616 86.955 279.786 86.5176H281.114C280.901 87.2536 280.49 87.867 279.882 88.3576C279.285 88.8376 278.517 89.0776 277.578 89.0776ZM277.578 81.8936C276.938 81.8936 276.368 82.091 275.866 82.4856C275.376 82.8696 275.093 83.435 275.018 84.1816H280.01C279.978 83.467 279.733 82.907 279.274 82.5016C278.816 82.0963 278.25 81.8936 277.578 81.8936ZM285.76 89.0776C285.098 89.0776 284.549 88.9656 284.112 88.7416C283.674 88.5176 283.349 88.219 283.136 87.8456C282.922 87.4723 282.816 87.067 282.816 86.6296C282.816 85.819 283.125 85.195 283.744 84.7576C284.362 84.3203 285.205 84.1016 286.272 84.1016H288.416V84.0056C288.416 83.3123 288.234 82.7896 287.872 82.4376C287.509 82.075 287.024 81.8936 286.416 81.8936C285.893 81.8936 285.44 82.027 285.056 82.2936C284.682 82.5496 284.448 82.9283 284.352 83.4296H282.976C283.029 82.8536 283.221 82.3683 283.552 81.9736C283.893 81.579 284.314 81.2803 284.816 81.0776C285.317 80.8643 285.85 80.7576 286.416 80.7576C287.525 80.7576 288.357 81.0563 288.912 81.6536C289.477 82.2403 289.76 83.0243 289.76 84.0056V88.8856H288.56L288.48 87.4616C288.256 87.9096 287.925 88.2936 287.488 88.6136C287.061 88.923 286.485 89.0776 285.76 89.0776ZM285.968 87.9416C286.48 87.9416 286.917 87.8083 287.28 87.5416C287.653 87.275 287.936 86.9283 288.128 86.5016C288.32 86.075 288.416 85.627 288.416 85.1576V85.1416H286.384C285.594 85.1416 285.034 85.2803 284.704 85.5576C284.384 85.8243 284.224 86.1603 284.224 86.5656C284.224 86.9816 284.373 87.3176 284.672 87.5736C284.981 87.819 285.413 87.9416 285.968 87.9416ZM294.693 88.8856C293.968 88.8856 293.397 88.7096 292.981 88.3576C292.565 88.0056 292.357 87.371 292.357 86.4536V82.0856H290.981V80.9496H292.357L292.533 79.0456H293.701V80.9496H296.037V82.0856H293.701V86.4536C293.701 86.955 293.802 87.2963 294.005 87.4776C294.208 87.6483 294.565 87.7336 295.077 87.7336H295.909V88.8856H294.693ZM301.094 89.0776C300.337 89.0776 299.665 88.907 299.078 88.5656C298.491 88.2136 298.027 87.7283 297.686 87.1096C297.355 86.491 297.19 85.7603 297.19 84.9176C297.19 84.0856 297.355 83.3603 297.686 82.7416C298.017 82.1123 298.475 81.627 299.062 81.2856C299.659 80.9336 300.347 80.7576 301.126 80.7576C301.894 80.7576 302.555 80.9336 303.11 81.2856C303.675 81.627 304.107 82.0803 304.406 82.6456C304.705 83.211 304.854 83.819 304.854 84.4696C304.854 84.587 304.849 84.7043 304.838 84.8216C304.838 84.939 304.838 85.0723 304.838 85.2216H298.518C298.55 85.8296 298.689 86.3363 298.934 86.7416C299.19 87.1363 299.505 87.435 299.878 87.6376C300.262 87.8403 300.667 87.9416 301.094 87.9416C301.649 87.9416 302.113 87.8136 302.486 87.5576C302.859 87.3016 303.131 86.955 303.302 86.5176H304.63C304.417 87.2536 304.006 87.867 303.398 88.3576C302.801 88.8376 302.033 89.0776 301.094 89.0776ZM301.094 81.8936C300.454 81.8936 299.883 82.091 299.382 82.4856C298.891 82.8696 298.609 83.435 298.534 84.1816H303.526C303.494 83.467 303.249 82.907 302.79 82.5016C302.331 82.0963 301.766 81.8936 301.094 81.8936ZM65.744 111.078C65.0827 111.078 64.5333 110.966 64.096 110.742C63.6587 110.518 63.3333 110.219 63.12 109.846C62.9067 109.472 62.8 109.067 62.8 108.63C62.8 107.819 63.1093 107.195 63.728 106.758C64.3467 106.32 65.1893 106.102 66.256 106.102H68.4V106.006C68.4 105.312 68.2187 104.79 67.856 104.438C67.4933 104.075 67.008 103.894 66.4 103.894C65.8773 103.894 65.424 104.027 65.04 104.294C64.6667 104.55 64.432 104.928 64.336 105.43H62.96C63.0133 104.854 63.2053 104.368 63.536 103.974C63.8773 103.579 64.2987 103.28 64.8 103.078C65.3013 102.864 65.8347 102.758 66.4 102.758C67.5093 102.758 68.3413 103.056 68.896 103.654C69.4613 104.24 69.744 105.024 69.744 106.006V110.886H68.544L68.464 109.462C68.24 109.91 67.9093 110.294 67.472 110.614C67.0453 110.923 66.4693 111.078 65.744 111.078ZM65.952 109.942C66.464 109.942 66.9013 109.808 67.264 109.542C67.6373 109.275 67.92 108.928 68.112 108.502C68.304 108.075 68.4 107.627 68.4 107.158V107.142H66.368C65.5787 107.142 65.0187 107.28 64.688 107.558C64.368 107.824 64.208 108.16 64.208 108.566C64.208 108.982 64.3573 109.318 64.656 109.574C64.9653 109.819 65.3973 109.942 65.952 109.942ZM71.7603 110.886V102.95H72.9763L73.0563 104.374C73.3123 103.872 73.6803 103.478 74.1603 103.19C74.6403 102.902 75.1843 102.758 75.7923 102.758C76.7309 102.758 77.4776 103.046 78.0323 103.622C78.5976 104.187 78.8802 105.062 78.8802 106.246V110.886H77.5363V106.39C77.5363 104.736 76.8536 103.91 75.4883 103.91C74.8056 103.91 74.2349 104.16 73.7763 104.662C73.3283 105.152 73.1043 105.856 73.1043 106.774V110.886H71.7603ZM84.5165 111.078C83.7272 111.078 83.0338 110.896 82.4365 110.534C81.8498 110.171 81.3912 109.675 81.0605 109.046C80.7405 108.416 80.5805 107.702 80.5805 106.902C80.5805 106.102 80.7458 105.392 81.0765 104.774C81.4072 104.144 81.8658 103.654 82.4525 103.302C83.0392 102.939 83.7325 102.758 84.5325 102.758C85.1832 102.758 85.7592 102.891 86.2605 103.158C86.7618 103.424 87.1512 103.798 87.4285 104.278V99.3656H88.7725V110.886H87.5565L87.4285 109.574C87.1725 109.958 86.8045 110.304 86.3245 110.614C85.8445 110.923 85.2418 111.078 84.5165 111.078ZM84.6605 109.91C85.1938 109.91 85.6632 109.787 86.0685 109.542C86.4845 109.286 86.8045 108.934 87.0285 108.486C87.2632 108.038 87.3805 107.515 87.3805 106.918C87.3805 106.32 87.2632 105.798 87.0285 105.35C86.8045 104.902 86.4845 104.555 86.0685 104.31C85.6632 104.054 85.1938 103.926 84.6605 103.926C84.1378 103.926 83.6685 104.054 83.2525 104.31C82.8472 104.555 82.5272 104.902 82.2925 105.35C82.0685 105.798 81.9565 106.32 81.9565 106.918C81.9565 107.515 82.0685 108.038 82.2925 108.486C82.5272 108.934 82.8472 109.286 83.2525 109.542C83.6685 109.787 84.1378 109.91 84.6605 109.91ZM95.1978 114.406V102.95H96.4138L96.5418 104.262C96.7978 103.878 97.1604 103.531 97.6298 103.222C98.1098 102.912 98.7178 102.758 99.4538 102.758C100.243 102.758 100.931 102.939 101.518 103.302C102.104 103.664 102.558 104.16 102.878 104.79C103.208 105.419 103.374 106.134 103.374 106.934C103.374 107.734 103.208 108.448 102.878 109.078C102.558 109.696 102.099 110.187 101.502 110.55C100.915 110.902 100.227 111.078 99.4378 111.078C98.7871 111.078 98.2058 110.944 97.6938 110.678C97.1924 110.411 96.8084 110.038 96.5418 109.558V114.406H95.1978ZM99.2938 109.91C99.8271 109.91 100.296 109.787 100.702 109.542C101.107 109.286 101.427 108.934 101.662 108.486C101.896 108.038 102.014 107.515 102.014 106.918C102.014 106.32 101.896 105.798 101.662 105.35C101.427 104.902 101.107 104.555 100.702 104.31C100.296 104.054 99.8271 103.926 99.2938 103.926C98.7604 103.926 98.2911 104.054 97.8858 104.31C97.4804 104.555 97.1604 104.902 96.9258 105.35C96.6911 105.798 96.5738 106.32 96.5738 106.918C96.5738 107.515 96.6911 108.038 96.9258 108.486C97.1604 108.934 97.4804 109.286 97.8858 109.542C98.2911 109.787 98.7604 109.91 99.2938 109.91ZM105.245 110.886V102.95H106.461L106.573 104.47C106.818 103.947 107.191 103.531 107.693 103.222C108.194 102.912 108.813 102.758 109.549 102.758V104.166H109.181C108.711 104.166 108.279 104.251 107.885 104.422C107.49 104.582 107.175 104.859 106.941 105.254C106.706 105.648 106.589 106.192 106.589 106.886V110.886H105.245ZM114.328 111.078C113.571 111.078 112.899 110.907 112.312 110.566C111.726 110.214 111.262 109.728 110.92 109.11C110.59 108.491 110.424 107.76 110.424 106.918C110.424 106.086 110.59 105.36 110.92 104.742C111.251 104.112 111.71 103.627 112.296 103.286C112.894 102.934 113.582 102.758 114.36 102.758C115.128 102.758 115.79 102.934 116.344 103.286C116.91 103.627 117.342 104.08 117.64 104.646C117.939 105.211 118.088 105.819 118.088 106.47C118.088 106.587 118.083 106.704 118.072 106.822C118.072 106.939 118.072 107.072 118.072 107.222H111.752C111.784 107.83 111.923 108.336 112.168 108.742C112.424 109.136 112.739 109.435 113.112 109.638C113.496 109.84 113.902 109.942 114.328 109.942C114.883 109.942 115.347 109.814 115.72 109.558C116.094 109.302 116.366 108.955 116.536 108.518H117.864C117.651 109.254 117.24 109.867 116.632 110.358C116.035 110.838 115.267 111.078 114.328 111.078ZM114.328 103.894C113.688 103.894 113.118 104.091 112.616 104.486C112.126 104.87 111.843 105.435 111.768 106.182H116.76C116.728 105.467 116.483 104.907 116.024 104.502C115.566 104.096 115 103.894 114.328 103.894ZM123.47 111.078C122.68 111.078 121.987 110.896 121.39 110.534C120.803 110.171 120.344 109.675 120.014 109.046C119.694 108.416 119.534 107.702 119.534 106.902C119.534 106.102 119.699 105.392 120.03 104.774C120.36 104.144 120.819 103.654 121.406 103.302C121.992 102.939 122.686 102.758 123.486 102.758C124.136 102.758 124.712 102.891 125.214 103.158C125.715 103.424 126.104 103.798 126.382 104.278V99.3656H127.726V110.886H126.51L126.382 109.574C126.126 109.958 125.758 110.304 125.278 110.614C124.798 110.923 124.195 111.078 123.47 111.078ZM123.614 109.91C124.147 109.91 124.616 109.787 125.022 109.542C125.438 109.286 125.758 108.934 125.982 108.486C126.216 108.038 126.334 107.515 126.334 106.918C126.334 106.32 126.216 105.798 125.982 105.35C125.758 104.902 125.438 104.555 125.022 104.31C124.616 104.054 124.147 103.926 123.614 103.926C123.091 103.926 122.622 104.054 122.206 104.31C121.8 104.555 121.48 104.902 121.246 105.35C121.022 105.798 120.91 106.32 120.91 106.918C120.91 107.515 121.022 108.038 121.246 108.486C121.48 108.934 121.8 109.286 122.206 109.542C122.622 109.787 123.091 109.91 123.614 109.91ZM130.733 101.19C130.466 101.19 130.242 101.104 130.061 100.934C129.89 100.752 129.805 100.528 129.805 100.262C129.805 100.006 129.89 99.7923 130.061 99.6216C130.242 99.451 130.466 99.3656 130.733 99.3656C130.989 99.3656 131.207 99.451 131.389 99.6216C131.57 99.7923 131.661 100.006 131.661 100.262C131.661 100.528 131.57 100.752 131.389 100.934C131.207 101.104 130.989 101.19 130.733 101.19ZM130.061 110.886V102.95H131.405V110.886H130.061ZM137.393 111.078C136.635 111.078 135.953 110.907 135.345 110.566C134.747 110.214 134.273 109.728 133.921 109.11C133.579 108.48 133.409 107.75 133.409 106.918C133.409 106.086 133.579 105.36 133.921 104.742C134.273 104.112 134.747 103.627 135.345 103.286C135.953 102.934 136.635 102.758 137.393 102.758C138.331 102.758 139.121 103.003 139.761 103.494C140.411 103.984 140.822 104.64 140.993 105.462H139.617C139.51 104.971 139.249 104.592 138.833 104.326C138.417 104.048 137.931 103.91 137.377 103.91C136.929 103.91 136.507 104.022 136.113 104.246C135.718 104.47 135.398 104.806 135.153 105.254C134.907 105.702 134.785 106.256 134.785 106.918C134.785 107.579 134.907 108.134 135.153 108.582C135.398 109.03 135.718 109.371 136.113 109.606C136.507 109.83 136.929 109.942 137.377 109.942C137.931 109.942 138.417 109.808 138.833 109.542C139.249 109.264 139.51 108.875 139.617 108.374H140.993C140.833 109.174 140.427 109.824 139.777 110.326C139.126 110.827 138.331 111.078 137.393 111.078ZM145.787 110.886C145.062 110.886 144.491 110.71 144.075 110.358C143.659 110.006 143.451 109.371 143.451 108.454V104.086H142.075V102.95H143.451L143.627 101.046H144.795V102.95H147.131V104.086H144.795V108.454C144.795 108.955 144.896 109.296 145.099 109.478C145.302 109.648 145.659 109.734 146.171 109.734H147.003V110.886H145.787ZM153.505 110.886V104.086H152.305V102.95H153.505V101.574C153.505 100.806 153.697 100.246 154.081 99.8936C154.465 99.5416 155.025 99.3656 155.761 99.3656H156.561V100.518H155.969C155.563 100.518 155.275 100.603 155.105 100.774C154.934 100.934 154.849 101.211 154.849 101.606V102.95H156.801V104.086H154.849V110.886H153.505ZM161.297 111.078C160.358 111.078 159.612 110.795 159.057 110.23C158.502 109.654 158.225 108.774 158.225 107.59V102.95H159.569V107.446C159.569 109.099 160.246 109.926 161.601 109.926C162.294 109.926 162.865 109.68 163.313 109.19C163.772 108.688 164.001 107.979 164.001 107.062V102.95H165.345V110.886H164.129L164.033 109.462C163.788 109.963 163.42 110.358 162.929 110.646C162.449 110.934 161.905 111.078 161.297 111.078ZM170.693 110.886C169.968 110.886 169.397 110.71 168.981 110.358C168.565 110.006 168.357 109.371 168.357 108.454V104.086H166.981V102.95H168.357L168.533 101.046H169.701V102.95H172.037V104.086H169.701V108.454C169.701 108.955 169.802 109.296 170.005 109.478C170.208 109.648 170.565 109.734 171.077 109.734H171.909V110.886H170.693ZM176.641 111.078C175.702 111.078 174.955 110.795 174.401 110.23C173.846 109.654 173.569 108.774 173.569 107.59V102.95H174.913V107.446C174.913 109.099 175.59 109.926 176.945 109.926C177.638 109.926 178.209 109.68 178.657 109.19C179.115 108.688 179.345 107.979 179.345 107.062V102.95H180.689V110.886H179.473L179.377 109.462C179.131 109.963 178.763 110.358 178.273 110.646C177.793 110.934 177.249 111.078 176.641 111.078ZM182.901 110.886V102.95H184.117L184.229 104.47C184.474 103.947 184.848 103.531 185.349 103.222C185.85 102.912 186.469 102.758 187.205 102.758V104.166H186.837C186.368 104.166 185.936 104.251 185.541 104.422C185.146 104.582 184.832 104.859 184.597 105.254C184.362 105.648 184.245 106.192 184.245 106.886V110.886H182.901ZM191.985 111.078C191.227 111.078 190.555 110.907 189.969 110.566C189.382 110.214 188.918 109.728 188.577 109.11C188.246 108.491 188.081 107.76 188.081 106.918C188.081 106.086 188.246 105.36 188.577 104.742C188.907 104.112 189.366 103.627 189.953 103.286C190.55 102.934 191.238 102.758 192.016 102.758C192.785 102.758 193.446 102.934 194.001 103.286C194.566 103.627 194.998 104.08 195.297 104.646C195.595 105.211 195.745 105.819 195.745 106.47C195.745 106.587 195.739 106.704 195.729 106.822C195.729 106.939 195.729 107.072 195.729 107.222H189.409C189.441 107.83 189.579 108.336 189.825 108.742C190.081 109.136 190.395 109.435 190.769 109.638C191.153 109.84 191.558 109.942 191.985 109.942C192.539 109.942 193.003 109.814 193.377 109.558C193.75 109.302 194.022 108.955 194.193 108.518H195.521C195.307 109.254 194.897 109.867 194.289 110.358C193.691 110.838 192.923 111.078 191.985 111.078ZM191.985 103.894C191.345 103.894 190.774 104.091 190.273 104.486C189.782 104.87 189.499 105.435 189.424 106.182H194.417C194.385 105.467 194.139 104.907 193.681 104.502C193.222 104.096 192.657 103.894 191.985 103.894ZM205.36 111.078C204.571 111.078 203.878 110.896 203.28 110.534C202.694 110.171 202.235 109.675 201.904 109.046C201.584 108.416 201.424 107.702 201.424 106.902C201.424 106.102 201.59 105.392 201.92 104.774C202.251 104.144 202.71 103.654 203.296 103.302C203.883 102.939 204.576 102.758 205.376 102.758C206.027 102.758 206.603 102.891 207.104 103.158C207.606 103.424 207.995 103.798 208.272 104.278V99.3656H209.616V110.886H208.4L208.272 109.574C208.016 109.958 207.648 110.304 207.168 110.614C206.688 110.923 206.086 111.078 205.36 111.078ZM205.504 109.91C206.038 109.91 206.507 109.787 206.912 109.542C207.328 109.286 207.648 108.934 207.872 108.486C208.107 108.038 208.224 107.515 208.224 106.918C208.224 106.32 208.107 105.798 207.872 105.35C207.648 104.902 207.328 104.555 206.912 104.31C206.507 104.054 206.038 103.926 205.504 103.926C204.982 103.926 204.512 104.054 204.096 104.31C203.691 104.555 203.371 104.902 203.136 105.35C202.912 105.798 202.8 106.32 202.8 106.918C202.8 107.515 202.912 108.038 203.136 108.486C203.371 108.934 203.691 109.286 204.096 109.542C204.512 109.787 204.982 109.91 205.504 109.91ZM215.375 111.078C214.618 111.078 213.946 110.907 213.359 110.566C212.772 110.214 212.308 109.728 211.967 109.11C211.636 108.491 211.471 107.76 211.471 106.918C211.471 106.086 211.636 105.36 211.967 104.742C212.298 104.112 212.756 103.627 213.343 103.286C213.94 102.934 214.628 102.758 215.407 102.758C216.175 102.758 216.836 102.934 217.391 103.286C217.956 103.627 218.388 104.08 218.687 104.646C218.986 105.211 219.135 105.819 219.135 106.47C219.135 106.587 219.13 106.704 219.119 106.822C219.119 106.939 219.119 107.072 219.119 107.222H212.799C212.831 107.83 212.97 108.336 213.215 108.742C213.471 109.136 213.786 109.435 214.159 109.638C214.543 109.84 214.948 109.942 215.375 109.942C215.93 109.942 216.394 109.814 216.767 109.558C217.14 109.302 217.412 108.955 217.583 108.518H218.911C218.698 109.254 218.287 109.867 217.679 110.358C217.082 110.838 216.314 111.078 215.375 111.078ZM215.375 103.894C214.735 103.894 214.164 104.091 213.663 104.486C213.172 104.87 212.89 105.435 212.815 106.182H217.807C217.775 105.467 217.53 104.907 217.071 104.502C216.612 104.096 216.047 103.894 215.375 103.894ZM220.917 110.886V102.95H222.133L222.229 104.102C222.485 103.675 222.826 103.344 223.253 103.11C223.679 102.875 224.159 102.758 224.693 102.758C225.322 102.758 225.861 102.886 226.309 103.142C226.767 103.398 227.119 103.787 227.365 104.31C227.642 103.83 228.021 103.451 228.501 103.174C228.991 102.896 229.519 102.758 230.085 102.758C231.034 102.758 231.791 103.046 232.357 103.622C232.922 104.187 233.205 105.062 233.205 106.246V110.886H231.877V106.39C231.877 105.568 231.711 104.95 231.381 104.534C231.05 104.118 230.575 103.91 229.957 103.91C229.317 103.91 228.783 104.16 228.357 104.662C227.941 105.152 227.733 105.856 227.733 106.774V110.886H226.389V106.39C226.389 105.568 226.223 104.95 225.893 104.534C225.562 104.118 225.087 103.91 224.469 103.91C223.839 103.91 223.311 104.16 222.885 104.662C222.469 105.152 222.261 105.856 222.261 106.774V110.886H220.917ZM237.869 111.078C237.208 111.078 236.658 110.966 236.221 110.742C235.784 110.518 235.458 110.219 235.245 109.846C235.032 109.472 234.925 109.067 234.925 108.63C234.925 107.819 235.234 107.195 235.853 106.758C236.472 106.32 237.314 106.102 238.381 106.102H240.525V106.006C240.525 105.312 240.344 104.79 239.981 104.438C239.618 104.075 239.133 103.894 238.525 103.894C238.002 103.894 237.549 104.027 237.165 104.294C236.792 104.55 236.557 104.928 236.461 105.43H235.085C235.138 104.854 235.33 104.368 235.661 103.974C236.002 103.579 236.424 103.28 236.925 103.078C237.426 102.864 237.96 102.758 238.525 102.758C239.634 102.758 240.466 103.056 241.021 103.654C241.586 104.24 241.869 105.024 241.869 106.006V110.886H240.669L240.589 109.462C240.365 109.91 240.034 110.294 239.597 110.614C239.17 110.923 238.594 111.078 237.869 111.078ZM238.077 109.942C238.589 109.942 239.026 109.808 239.389 109.542C239.762 109.275 240.045 108.928 240.237 108.502C240.429 108.075 240.525 107.627 240.525 107.158V107.142H238.493C237.704 107.142 237.144 107.28 236.813 107.558C236.493 107.824 236.333 108.16 236.333 108.566C236.333 108.982 236.482 109.318 236.781 109.574C237.09 109.819 237.522 109.942 238.077 109.942ZM243.885 110.886V102.95H245.101L245.181 104.374C245.437 103.872 245.805 103.478 246.285 103.19C246.765 102.902 247.309 102.758 247.917 102.758C248.856 102.758 249.603 103.046 250.157 103.622C250.723 104.187 251.005 105.062 251.005 106.246V110.886H249.661V106.39C249.661 104.736 248.979 103.91 247.613 103.91C246.931 103.91 246.36 104.16 245.901 104.662C245.453 105.152 245.229 105.856 245.229 106.774V110.886H243.885ZM256.641 111.078C255.852 111.078 255.159 110.896 254.562 110.534C253.975 110.171 253.516 109.675 253.186 109.046C252.866 108.416 252.706 107.702 252.706 106.902C252.706 106.102 252.871 105.392 253.202 104.774C253.532 104.144 253.991 103.654 254.578 103.302C255.164 102.939 255.858 102.758 256.658 102.758C257.308 102.758 257.884 102.891 258.386 103.158C258.887 103.424 259.276 103.798 259.554 104.278V99.3656H260.898V110.886H259.682L259.554 109.574C259.298 109.958 258.93 110.304 258.45 110.614C257.97 110.923 257.367 111.078 256.641 111.078ZM256.786 109.91C257.319 109.91 257.788 109.787 258.194 109.542C258.61 109.286 258.93 108.934 259.154 108.486C259.388 108.038 259.506 107.515 259.506 106.918C259.506 106.32 259.388 105.798 259.154 105.35C258.93 104.902 258.61 104.555 258.194 104.31C257.788 104.054 257.319 103.926 256.786 103.926C256.263 103.926 255.794 104.054 255.378 104.31C254.972 104.555 254.652 104.902 254.418 105.35C254.194 105.798 254.082 106.32 254.082 106.918C254.082 107.515 254.194 108.038 254.418 108.486C254.652 108.934 254.972 109.286 255.378 109.542C255.794 109.787 256.263 109.91 256.786 109.91Z" fill="black"/>
<line x1="22" y1="125.328" x2="306" y2="125.328" stroke="#F5EEDD" stroke-width="0.885635"/>
<rect width="42" height="42" transform="translate(12 134.771)" fill="white"/>
<path d="M34.9001 143.235C31.6547 144.729 28.3967 146.626 25.604 148.286C24.6412 148.861 23.5446 149.186 22.4224 149.237C21.9123 149.256 21.3895 149.282 20.8731 149.308H20.8603C18.0103 149.48 15.6895 151.964 15.6895 154.837C15.6895 157.29 17.3854 159.461 19.6616 160.15V161.594C19.6361 164.014 19.9422 166.421 20.5607 168.765C20.8157 169.735 21.4533 170.54 22.3013 170.974C22.7221 171.191 23.1875 171.306 23.6657 171.312C24.0164 171.312 24.3607 171.249 24.6859 171.121C26.248 170.521 27.1023 168.809 26.6624 167.143C26.2543 165.591 26.0248 164.001 25.9802 162.398L25.9611 161.6C28.6772 163.209 31.795 165.01 34.9001 166.44C35.3592 166.664 35.8565 166.785 36.3666 166.791C36.4749 166.791 36.5833 166.785 36.6917 166.766C40.1283 166.242 41.9774 160.227 41.9774 154.837C41.9774 149.448 40.122 143.426 36.6853 142.903C36.679 142.903 35.9457 142.762 34.9001 143.235Z" fill="#E8A263"/>
<path d="M37.4887 150.663C37.2529 150.663 37.0465 150.847 37.0318 151.083C36.9728 151.74 36.9434 152.412 36.9434 153.098C36.9434 153.785 36.9728 154.456 37.0318 155.113C37.0539 155.35 37.2529 155.534 37.4887 155.534H37.953C39.2943 155.512 40.3629 154.405 40.3408 153.061C40.3187 151.748 39.2648 150.692 37.953 150.67H37.4887V150.663Z" fill="black"/>
<path d="M24.0585 158.683C23.5052 160.818 23.6728 162.968 23.8446 163.954C24.0164 164.939 24.5989 165.607 24.9713 166.335C25.2216 166.825 25.2484 168.002 25.2484 168.002C25.2484 168.002 25.2033 170.487 23.2904 170.826C20.5119 171.318 19.7989 167.5 19.7989 167.5L19.411 158.024M24.0585 158.683C29.7436 162.596 31.271 163.408 37.6965 165.927M24.0585 158.683C22.2435 158.426 19.411 158.024 19.411 158.024M19.411 158.024C19.411 158.024 14.8514 155.922 14.6448 153.313C14.3837 150.016 16.7746 148.684 17.6929 148.214C19.4657 147.308 21.3049 147.795 22.9491 147.358M22.9491 147.358C24.6177 146.915 26.6506 145.525 28.4121 144.782C33.969 141.301 35.1946 140.527 37.7398 140.23M22.9491 147.358L23.464 150.158M37.7398 140.23C35.5455 144.121 33.4834 145.655 33.8587 153.313C34.2574 161.449 36.2982 161.056 37.6965 165.927M37.7398 140.23V140.23C39.1697 140.41 40.1219 141.676 40.8268 142.933C42.674 146.226 42.9331 149.184 42.9331 153.313C42.9331 158.633 42.7405 162.616 37.6965 165.927" stroke="#403C3B" stroke-width="1.75187" stroke-linecap="round" stroke-linejoin="round"/>
<path d="M45.7969 158.872L50.3588 160.848" stroke="black" stroke-width="1.75187" stroke-linecap="round"/>
<path d="M45.8965 146.733L50.4769 144.799" stroke="black" stroke-width="1.75187" stroke-linecap="round"/>
<path d="M46.4023 153.098H51.374" stroke="black" stroke-width="1.75187" stroke-linecap="round"/>
<path d="M63.184 149.771V138.571H66.864C67.7387 138.571 68.4587 138.715 69.024 139.003C69.5893 139.291 70.0053 139.681 70.272 140.171C70.5493 140.662 70.688 141.217 70.688 141.835C70.688 142.443 70.5547 142.993 70.288 143.483C70.0213 143.974 69.6053 144.369 69.04 144.667C68.4747 144.955 67.7493 145.099 66.864 145.099H64.528V149.771H63.184ZM64.528 143.963H66.832C67.728 143.963 68.3627 143.777 68.736 143.403C69.12 143.019 69.312 142.497 69.312 141.835C69.312 141.163 69.12 140.641 68.736 140.267C68.3627 139.883 67.728 139.691 66.832 139.691H64.528V143.963ZM72.3696 149.771V141.835H73.5856L73.6976 143.355C73.943 142.833 74.3163 142.417 74.8176 142.107C75.319 141.798 75.9376 141.643 76.6736 141.643V143.051H76.3056C75.8363 143.051 75.4043 143.137 75.0096 143.307C74.615 143.467 74.3003 143.745 74.0656 144.139C73.831 144.534 73.7136 145.078 73.7136 145.771V149.771H72.3696ZM81.5013 149.963C80.7546 149.963 80.0826 149.793 79.4853 149.451C78.8879 149.11 78.4133 148.63 78.0613 148.011C77.7199 147.382 77.5493 146.646 77.5493 145.803C77.5493 144.961 77.7253 144.23 78.0773 143.611C78.4293 142.982 78.9039 142.497 79.5013 142.155C80.1093 141.814 80.7866 141.643 81.5333 141.643C82.2799 141.643 82.9519 141.814 83.5493 142.155C84.1466 142.497 84.6159 142.982 84.9573 143.611C85.3093 144.23 85.4853 144.961 85.4853 145.803C85.4853 146.646 85.3093 147.382 84.9573 148.011C84.6053 148.63 84.1253 149.11 83.5173 149.451C82.9199 149.793 82.2479 149.963 81.5013 149.963ZM81.5013 148.811C81.9599 148.811 82.3866 148.699 82.7813 148.475C83.1759 148.251 83.4959 147.915 83.7413 147.467C83.9866 147.019 84.1093 146.465 84.1093 145.803C84.1093 145.142 83.9866 144.587 83.7413 144.139C83.5066 143.691 83.1919 143.355 82.7973 143.131C82.4026 142.907 81.9813 142.795 81.5333 142.795C81.0746 142.795 80.6479 142.907 80.2533 143.131C79.8586 143.355 79.5386 143.691 79.2933 144.139C79.0479 144.587 78.9253 145.142 78.9253 145.803C78.9253 146.465 79.0479 147.019 79.2933 147.467C79.5386 147.915 79.8533 148.251 80.2373 148.475C80.6319 148.699 81.0533 148.811 81.5013 148.811ZM87.354 149.771V141.835H88.57L88.666 142.987C88.922 142.561 89.2633 142.23 89.69 141.995C90.1167 141.761 90.5967 141.643 91.13 141.643C91.7593 141.643 92.298 141.771 92.746 142.027C93.2047 142.283 93.5567 142.673 93.802 143.195C94.0793 142.715 94.458 142.337 94.938 142.059C95.4287 141.782 95.9567 141.643 96.522 141.643C97.4713 141.643 98.2287 141.931 98.794 142.507C99.3593 143.073 99.642 143.947 99.642 145.131V149.771H98.314V145.275C98.314 144.454 98.1487 143.835 97.818 143.419C97.4873 143.003 97.0127 142.795 96.394 142.795C95.754 142.795 95.2207 143.046 94.794 143.547C94.378 144.038 94.17 144.742 94.17 145.659V149.771H92.826V145.275C92.826 144.454 92.6607 143.835 92.33 143.419C91.9993 143.003 91.5247 142.795 90.906 142.795C90.2767 142.795 89.7487 143.046 89.322 143.547C88.906 144.038 88.698 144.742 88.698 145.659V149.771H87.354ZM105.283 149.963C104.536 149.963 103.864 149.793 103.267 149.451C102.669 149.11 102.195 148.63 101.843 148.011C101.501 147.382 101.331 146.646 101.331 145.803C101.331 144.961 101.507 144.23 101.859 143.611C102.211 142.982 102.685 142.497 103.283 142.155C103.891 141.814 104.568 141.643 105.315 141.643C106.061 141.643 106.733 141.814 107.331 142.155C107.928 142.497 108.397 142.982 108.739 143.611C109.091 144.23 109.267 144.961 109.267 145.803C109.267 146.646 109.091 147.382 108.739 148.011C108.387 148.63 107.907 149.11 107.299 149.451C106.701 149.793 106.029 149.963 105.283 149.963ZM105.283 148.811C105.741 148.811 106.168 148.699 106.563 148.475C106.957 148.251 107.277 147.915 107.523 147.467C107.768 147.019 107.891 146.465 107.891 145.803C107.891 145.142 107.768 144.587 107.523 144.139C107.288 143.691 106.973 143.355 106.579 143.131C106.184 142.907 105.763 142.795 105.315 142.795C104.856 142.795 104.429 142.907 104.035 143.131C103.64 143.355 103.32 143.691 103.075 144.139C102.829 144.587 102.707 145.142 102.707 145.803C102.707 146.465 102.829 147.019 103.075 147.467C103.32 147.915 103.635 148.251 104.019 148.475C104.413 148.699 104.835 148.811 105.283 148.811ZM113.959 149.771C113.233 149.771 112.663 149.595 112.247 149.243C111.831 148.891 111.623 148.257 111.623 147.339V142.971H110.247V141.835H111.623L111.799 139.931H112.967V141.835H115.303V142.971H112.967V147.339C112.967 147.841 113.068 148.182 113.271 148.363C113.473 148.534 113.831 148.619 114.343 148.619H115.175V149.771H113.959ZM120.36 149.963C119.602 149.963 118.93 149.793 118.344 149.451C117.757 149.099 117.293 148.614 116.952 147.995C116.621 147.377 116.456 146.646 116.456 145.803C116.456 144.971 116.621 144.246 116.952 143.627C117.282 142.998 117.741 142.513 118.328 142.171C118.925 141.819 119.613 141.643 120.391 141.643C121.16 141.643 121.821 141.819 122.376 142.171C122.941 142.513 123.373 142.966 123.672 143.531C123.97 144.097 124.12 144.705 124.12 145.355C124.12 145.473 124.114 145.59 124.104 145.707C124.104 145.825 124.104 145.958 124.104 146.107H117.784C117.816 146.715 117.954 147.222 118.2 147.627C118.456 148.022 118.77 148.321 119.144 148.523C119.528 148.726 119.933 148.827 120.36 148.827C120.914 148.827 121.378 148.699 121.752 148.443C122.125 148.187 122.397 147.841 122.568 147.403H123.896C123.682 148.139 123.272 148.753 122.664 149.243C122.066 149.723 121.298 149.963 120.36 149.963ZM120.36 142.779C119.72 142.779 119.149 142.977 118.648 143.371C118.157 143.755 117.874 144.321 117.799 145.067H122.792C122.76 144.353 122.514 143.793 122.056 143.387C121.597 142.982 121.032 142.779 120.36 142.779ZM130.999 153.291L132.967 149.003H132.503L129.351 141.835H130.807L133.431 148.011L136.215 141.835H137.607L132.407 153.291H130.999ZM141.892 149.963C141.145 149.963 140.473 149.793 139.876 149.451C139.279 149.11 138.804 148.63 138.452 148.011C138.111 147.382 137.94 146.646 137.94 145.803C137.94 144.961 138.116 144.23 138.468 143.611C138.82 142.982 139.295 142.497 139.892 142.155C140.5 141.814 141.177 141.643 141.924 141.643C142.671 141.643 143.343 141.814 143.94 142.155C144.537 142.497 145.007 142.982 145.348 143.611C145.7 144.23 145.876 144.961 145.876 145.803C145.876 146.646 145.7 147.382 145.348 148.011C144.996 148.63 144.516 149.11 143.908 149.451C143.311 149.793 142.639 149.963 141.892 149.963ZM141.892 148.811C142.351 148.811 142.777 148.699 143.172 148.475C143.567 148.251 143.887 147.915 144.132 147.467C144.377 147.019 144.5 146.465 144.5 145.803C144.5 145.142 144.377 144.587 144.132 144.139C143.897 143.691 143.583 143.355 143.188 143.131C142.793 142.907 142.372 142.795 141.924 142.795C141.465 142.795 141.039 142.907 140.644 143.131C140.249 143.355 139.929 143.691 139.684 144.139C139.439 144.587 139.316 145.142 139.316 145.803C139.316 146.465 139.439 147.019 139.684 147.467C139.929 147.915 140.244 148.251 140.628 148.475C141.023 148.699 141.444 148.811 141.892 148.811ZM150.641 149.963C149.702 149.963 148.955 149.681 148.401 149.115C147.846 148.539 147.569 147.659 147.569 146.475V141.835H148.913V146.331C148.913 147.985 149.59 148.811 150.945 148.811C151.638 148.811 152.209 148.566 152.657 148.075C153.115 147.574 153.345 146.865 153.345 145.947V141.835H154.689V149.771H153.473L153.377 148.347C153.131 148.849 152.763 149.243 152.273 149.531C151.793 149.819 151.249 149.963 150.641 149.963ZM156.901 149.771V141.835H158.117L158.229 143.355C158.474 142.833 158.848 142.417 159.349 142.107C159.85 141.798 160.469 141.643 161.205 141.643V143.051H160.837C160.368 143.051 159.936 143.137 159.541 143.307C159.146 143.467 158.832 143.745 158.597 144.139C158.362 144.534 158.245 145.078 158.245 145.771V149.771H156.901ZM169.236 149.771L166.228 141.835H167.636L170.02 148.475L172.42 141.835H173.796L170.788 149.771H169.236ZM178.453 149.963C177.696 149.963 177.024 149.793 176.437 149.451C175.851 149.099 175.387 148.614 175.045 147.995C174.715 147.377 174.549 146.646 174.549 145.803C174.549 144.971 174.715 144.246 175.045 143.627C175.376 142.998 175.835 142.513 176.421 142.171C177.019 141.819 177.707 141.643 178.485 141.643C179.253 141.643 179.915 141.819 180.469 142.171C181.035 142.513 181.467 142.966 181.765 143.531C182.064 144.097 182.213 144.705 182.213 145.355C182.213 145.473 182.208 145.59 182.197 145.707C182.197 145.825 182.197 145.958 182.197 146.107H175.877C175.909 146.715 176.048 147.222 176.293 147.627C176.549 148.022 176.864 148.321 177.237 148.523C177.621 148.726 178.027 148.827 178.453 148.827C179.008 148.827 179.472 148.699 179.845 148.443C180.219 148.187 180.491 147.841 180.661 147.403H181.989C181.776 148.139 181.365 148.753 180.757 149.243C180.16 149.723 179.392 149.963 178.453 149.963ZM178.453 142.779C177.813 142.779 177.243 142.977 176.741 143.371C176.251 143.755 175.968 144.321 175.893 145.067H180.885C180.853 144.353 180.608 143.793 180.149 143.387C179.691 142.982 179.125 142.779 178.453 142.779ZM183.995 149.771V141.835H185.211L185.291 143.259C185.547 142.758 185.915 142.363 186.395 142.075C186.875 141.787 187.419 141.643 188.027 141.643C188.965 141.643 189.712 141.931 190.267 142.507C190.832 143.073 191.115 143.947 191.115 145.131V149.771H189.771V145.275C189.771 143.622 189.088 142.795 187.723 142.795C187.04 142.795 186.469 143.046 186.011 143.547C185.563 144.038 185.339 144.742 185.339 145.659V149.771H183.995ZM196.047 149.963C195.108 149.963 194.362 149.681 193.807 149.115C193.252 148.539 192.975 147.659 192.975 146.475V141.835H194.319V146.331C194.319 147.985 194.996 148.811 196.351 148.811C197.044 148.811 197.615 148.566 198.063 148.075C198.522 147.574 198.751 146.865 198.751 145.947V141.835H200.095V149.771H198.879L198.783 148.347C198.538 148.849 198.17 149.243 197.679 149.531C197.199 149.819 196.655 149.963 196.047 149.963ZM205.875 149.963C205.118 149.963 204.446 149.793 203.859 149.451C203.272 149.099 202.808 148.614 202.467 147.995C202.136 147.377 201.971 146.646 201.971 145.803C201.971 144.971 202.136 144.246 202.467 143.627C202.798 142.998 203.256 142.513 203.843 142.171C204.44 141.819 205.128 141.643 205.907 141.643C206.675 141.643 207.336 141.819 207.891 142.171C208.456 142.513 208.888 142.966 209.187 143.531C209.486 144.097 209.635 144.705 209.635 145.355C209.635 145.473 209.63 145.59 209.619 145.707C209.619 145.825 209.619 145.958 209.619 146.107H203.299C203.331 146.715 203.47 147.222 203.715 147.627C203.971 148.022 204.286 148.321 204.659 148.523C205.043 148.726 205.448 148.827 205.875 148.827C206.43 148.827 206.894 148.699 207.267 148.443C207.64 148.187 207.912 147.841 208.083 147.403H209.411C209.198 148.139 208.787 148.753 208.179 149.243C207.582 149.723 206.814 149.963 205.875 149.963ZM205.875 142.779C205.235 142.779 204.664 142.977 204.163 143.371C203.672 143.755 203.39 144.321 203.315 145.067H208.307C208.275 144.353 208.03 143.793 207.571 143.387C207.112 142.982 206.547 142.779 205.875 142.779ZM218.787 149.771C218.062 149.771 217.491 149.595 217.075 149.243C216.659 148.891 216.451 148.257 216.451 147.339V142.971H215.075V141.835H216.451L216.627 139.931H217.795V141.835H220.131V142.971H217.795V147.339C217.795 147.841 217.896 148.182 218.099 148.363C218.302 148.534 218.659 148.619 219.171 148.619H220.003V149.771H218.787ZM225.236 149.963C224.489 149.963 223.817 149.793 223.22 149.451C222.622 149.11 222.148 148.63 221.796 148.011C221.454 147.382 221.284 146.646 221.284 145.803C221.284 144.961 221.46 144.23 221.812 143.611C222.164 142.982 222.638 142.497 223.236 142.155C223.844 141.814 224.521 141.643 225.268 141.643C226.014 141.643 226.686 141.814 227.284 142.155C227.881 142.497 228.35 142.982 228.692 143.611C229.044 144.23 229.22 144.961 229.22 145.803C229.22 146.646 229.044 147.382 228.692 148.011C228.34 148.63 227.86 149.11 227.252 149.451C226.654 149.793 225.982 149.963 225.236 149.963ZM225.236 148.811C225.694 148.811 226.121 148.699 226.516 148.475C226.91 148.251 227.23 147.915 227.476 147.467C227.721 147.019 227.844 146.465 227.844 145.803C227.844 145.142 227.721 144.587 227.476 144.139C227.241 143.691 226.926 143.355 226.532 143.131C226.137 142.907 225.716 142.795 225.268 142.795C224.809 142.795 224.382 142.907 223.988 143.131C223.593 143.355 223.273 143.691 223.028 144.139C222.782 144.587 222.66 145.142 222.66 145.803C222.66 146.465 222.782 147.019 223.028 147.467C223.273 147.915 223.588 148.251 223.972 148.475C224.366 148.699 224.788 148.811 225.236 148.811ZM235.323 149.771V141.835H236.539L236.635 142.987C236.891 142.561 237.232 142.23 237.659 141.995C238.085 141.761 238.565 141.643 239.099 141.643C239.728 141.643 240.267 141.771 240.715 142.027C241.173 142.283 241.525 142.673 241.771 143.195C242.048 142.715 242.427 142.337 242.907 142.059C243.397 141.782 243.925 141.643 244.491 141.643C245.44 141.643 246.197 141.931 246.763 142.507C247.328 143.073 247.611 143.947 247.611 145.131V149.771H246.283V145.275C246.283 144.454 246.117 143.835 245.787 143.419C245.456 143.003 244.981 142.795 244.363 142.795C243.723 142.795 243.189 143.046 242.763 143.547C242.347 144.038 242.139 144.742 242.139 145.659V149.771H240.795V145.275C240.795 144.454 240.629 143.835 240.299 143.419C239.968 143.003 239.493 142.795 238.875 142.795C238.245 142.795 237.717 143.046 237.291 143.547C236.875 144.038 236.667 144.742 236.667 145.659V149.771H235.323ZM250.451 140.075C250.185 140.075 249.961 139.99 249.779 139.819C249.609 139.638 249.523 139.414 249.523 139.147C249.523 138.891 249.609 138.678 249.779 138.507C249.961 138.337 250.185 138.251 250.451 138.251C250.707 138.251 250.926 138.337 251.107 138.507C251.289 138.678 251.379 138.891 251.379 139.147C251.379 139.414 251.289 139.638 251.107 139.819C250.926 139.99 250.707 140.075 250.451 140.075ZM249.779 149.771V141.835H251.123V149.771H249.779ZM253.463 149.771V138.251H254.807V149.771H253.463ZM257.01 149.771V138.251H258.354V149.771H257.01ZM261.373 140.075C261.106 140.075 260.882 139.99 260.701 139.819C260.53 139.638 260.445 139.414 260.445 139.147C260.445 138.891 260.53 138.678 260.701 138.507C260.882 138.337 261.106 138.251 261.373 138.251C261.629 138.251 261.848 138.337 262.029 138.507C262.21 138.678 262.301 138.891 262.301 139.147C262.301 139.414 262.21 139.638 262.029 139.819C261.848 139.99 261.629 140.075 261.373 140.075ZM260.701 149.771V141.835H262.045V149.771H260.701ZM268.001 149.963C267.255 149.963 266.583 149.793 265.985 149.451C265.388 149.11 264.913 148.63 264.561 148.011C264.22 147.382 264.049 146.646 264.049 145.803C264.049 144.961 264.225 144.23 264.577 143.611C264.929 142.982 265.404 142.497 266.001 142.155C266.609 141.814 267.287 141.643 268.033 141.643C268.78 141.643 269.452 141.814 270.049 142.155C270.647 142.497 271.116 142.982 271.457 143.611C271.809 144.23 271.985 144.961 271.985 145.803C271.985 146.646 271.809 147.382 271.457 148.011C271.105 148.63 270.625 149.11 270.017 149.451C269.42 149.793 268.748 149.963 268.001 149.963ZM268.001 148.811C268.46 148.811 268.887 148.699 269.281 148.475C269.676 148.251 269.996 147.915 270.241 147.467C270.487 147.019 270.609 146.465 270.609 145.803C270.609 145.142 270.487 144.587 270.241 144.139C270.007 143.691 269.692 143.355 269.297 143.131C268.903 142.907 268.481 142.795 268.033 142.795C267.575 142.795 267.148 142.907 266.753 143.131C266.359 143.355 266.039 143.691 265.793 144.139C265.548 144.587 265.425 145.142 265.425 145.803C265.425 146.465 265.548 147.019 265.793 147.467C266.039 147.915 266.353 148.251 266.737 148.475C267.132 148.699 267.553 148.811 268.001 148.811ZM273.854 149.771V141.835H275.07L275.15 143.259C275.406 142.758 275.774 142.363 276.254 142.075C276.734 141.787 277.278 141.643 277.886 141.643C278.825 141.643 279.571 141.931 280.126 142.507C280.691 143.073 280.974 143.947 280.974 145.131V149.771H279.63V145.275C279.63 143.622 278.947 142.795 277.582 142.795C276.899 142.795 276.329 143.046 275.87 143.547C275.422 144.038 275.198 144.742 275.198 145.659V149.771H273.854ZM286.05 149.963C285.101 149.963 284.312 149.723 283.682 149.243C283.053 148.763 282.685 148.113 282.578 147.291H283.954C284.04 147.707 284.258 148.07 284.61 148.379C284.973 148.678 285.458 148.827 286.066 148.827C286.632 148.827 287.048 148.71 287.314 148.475C287.581 148.23 287.714 147.942 287.714 147.611C287.714 147.131 287.538 146.811 287.186 146.651C286.845 146.491 286.36 146.347 285.73 146.219C285.304 146.134 284.877 146.011 284.45 145.851C284.024 145.691 283.666 145.467 283.378 145.179C283.09 144.881 282.946 144.491 282.946 144.011C282.946 143.318 283.202 142.753 283.714 142.315C284.237 141.867 284.941 141.643 285.826 141.643C286.669 141.643 287.357 141.857 287.89 142.283C288.434 142.699 288.749 143.297 288.834 144.075H287.506C287.453 143.67 287.277 143.355 286.978 143.131C286.69 142.897 286.301 142.779 285.81 142.779C285.33 142.779 284.957 142.881 284.69 143.083C284.434 143.286 284.306 143.553 284.306 143.883C284.306 144.203 284.472 144.454 284.802 144.635C285.144 144.817 285.602 144.971 286.178 145.099C286.669 145.206 287.133 145.339 287.57 145.499C288.018 145.649 288.381 145.878 288.658 146.187C288.946 146.486 289.09 146.923 289.09 147.499C289.101 148.214 288.829 148.806 288.274 149.275C287.73 149.734 286.989 149.963 286.05 149.963ZM66.72 171.963C65.9733 171.963 65.3013 171.793 64.704 171.451C64.1067 171.11 63.632 170.63 63.28 170.011C62.9387 169.382 62.768 168.646 62.768 167.803C62.768 166.961 62.944 166.23 63.296 165.611C63.648 164.982 64.1227 164.497 64.72 164.155C65.328 163.814 66.0053 163.643 66.752 163.643C67.4987 163.643 68.1707 163.814 68.768 164.155C69.3653 164.497 69.8347 164.982 70.176 165.611C70.528 166.23 70.704 166.961 70.704 167.803C70.704 168.646 70.528 169.382 70.176 170.011C69.824 170.63 69.344 171.11 68.736 171.451C68.1387 171.793 67.4667 171.963 66.72 171.963ZM66.72 170.811C67.1787 170.811 67.6053 170.699 68 170.475C68.3947 170.251 68.7147 169.915 68.96 169.467C69.2053 169.019 69.328 168.465 69.328 167.803C69.328 167.142 69.2053 166.587 68.96 166.139C68.7253 165.691 68.4107 165.355 68.016 165.131C67.6213 164.907 67.2 164.795 66.752 164.795C66.2933 164.795 65.8667 164.907 65.472 165.131C65.0773 165.355 64.7573 165.691 64.512 166.139C64.2667 166.587 64.144 167.142 64.144 167.803C64.144 168.465 64.2667 169.019 64.512 169.467C64.7573 169.915 65.072 170.251 65.456 170.475C65.8507 170.699 66.272 170.811 66.72 170.811ZM73.0048 171.771V164.971H71.8048V163.835H73.0048V162.459C73.0048 161.691 73.1968 161.131 73.5807 160.779C73.9648 160.427 74.5248 160.251 75.2608 160.251H76.0608V161.403H75.4688C75.0634 161.403 74.7754 161.489 74.6048 161.659C74.4341 161.819 74.3488 162.097 74.3488 162.491V163.835H76.3008V164.971H74.3488V171.771H73.0048ZM85.7833 171.963C85.0259 171.963 84.3433 171.793 83.7353 171.451C83.1379 171.099 82.6633 170.614 82.3113 169.995C81.9699 169.366 81.7993 168.635 81.7993 167.803C81.7993 166.971 81.9699 166.246 82.3113 165.627C82.6633 164.998 83.1379 164.513 83.7353 164.171C84.3433 163.819 85.0259 163.643 85.7833 163.643C86.7219 163.643 87.5113 163.889 88.1513 164.379C88.8019 164.87 89.2126 165.526 89.3833 166.347H88.0073C87.9006 165.857 87.6393 165.478 87.2233 165.211C86.8073 164.934 86.3219 164.795 85.7673 164.795C85.3193 164.795 84.8979 164.907 84.5033 165.131C84.1086 165.355 83.7886 165.691 83.5433 166.139C83.2979 166.587 83.1753 167.142 83.1753 167.803C83.1753 168.465 83.2979 169.019 83.5433 169.467C83.7886 169.915 84.1086 170.257 84.5033 170.491C84.8979 170.715 85.3193 170.827 85.7673 170.827C86.3219 170.827 86.8073 170.694 87.2233 170.427C87.6393 170.15 87.9006 169.761 88.0073 169.259H89.3833C89.2233 170.059 88.8179 170.71 88.1673 171.211C87.5166 171.713 86.7219 171.963 85.7833 171.963ZM94.1562 171.963C93.2176 171.963 92.4709 171.681 91.9163 171.115C91.3616 170.539 91.0843 169.659 91.0843 168.475V163.835H92.4283V168.331C92.4283 169.985 93.1056 170.811 94.4603 170.811C95.1536 170.811 95.7243 170.566 96.1723 170.075C96.6309 169.574 96.8603 168.865 96.8603 167.947V163.835H98.2043V171.771H96.9883L96.8923 170.347C96.6469 170.849 96.2789 171.243 95.7883 171.531C95.3083 171.819 94.7643 171.963 94.1562 171.963ZM103.457 171.963C102.507 171.963 101.718 171.723 101.089 171.243C100.459 170.763 100.091 170.113 99.9845 169.291H101.361C101.446 169.707 101.665 170.07 102.017 170.379C102.379 170.678 102.865 170.827 103.473 170.827C104.038 170.827 104.454 170.71 104.721 170.475C104.987 170.23 105.121 169.942 105.121 169.611C105.121 169.131 104.945 168.811 104.593 168.651C104.251 168.491 103.766 168.347 103.137 168.219C102.71 168.134 102.283 168.011 101.857 167.851C101.43 167.691 101.073 167.467 100.785 167.179C100.497 166.881 100.353 166.491 100.353 166.011C100.353 165.318 100.609 164.753 101.121 164.315C101.643 163.867 102.347 163.643 103.233 163.643C104.075 163.643 104.763 163.857 105.297 164.283C105.841 164.699 106.155 165.297 106.241 166.075H104.913C104.859 165.67 104.683 165.355 104.385 165.131C104.097 164.897 103.707 164.779 103.217 164.779C102.737 164.779 102.363 164.881 102.097 165.083C101.841 165.286 101.713 165.553 101.713 165.883C101.713 166.203 101.878 166.454 102.209 166.635C102.55 166.817 103.009 166.971 103.585 167.099C104.075 167.206 104.539 167.339 104.977 167.499C105.425 167.649 105.787 167.878 106.065 168.187C106.353 168.486 106.497 168.923 106.497 169.499C106.507 170.214 106.235 170.806 105.681 171.275C105.137 171.734 104.395 171.963 103.457 171.963ZM111.193 171.771C110.468 171.771 109.897 171.595 109.481 171.243C109.065 170.891 108.857 170.257 108.857 169.339V164.971H107.481V163.835H108.857L109.033 161.931H110.201V163.835H112.537V164.971H110.201V169.339C110.201 169.841 110.302 170.182 110.505 170.363C110.708 170.534 111.065 170.619 111.577 170.619H112.409V171.771H111.193ZM117.642 171.963C116.895 171.963 116.223 171.793 115.626 171.451C115.029 171.11 114.554 170.63 114.202 170.011C113.861 169.382 113.69 168.646 113.69 167.803C113.69 166.961 113.866 166.23 114.218 165.611C114.57 164.982 115.045 164.497 115.642 164.155C116.25 163.814 116.927 163.643 117.674 163.643C118.421 163.643 119.093 163.814 119.69 164.155C120.287 164.497 120.757 164.982 121.098 165.611C121.45 166.23 121.626 166.961 121.626 167.803C121.626 168.646 121.45 169.382 121.098 170.011C120.746 170.63 120.266 171.11 119.658 171.451C119.061 171.793 118.389 171.963 117.642 171.963ZM117.642 170.811C118.101 170.811 118.527 170.699 118.922 170.475C119.317 170.251 119.637 169.915 119.882 169.467C120.127 169.019 120.25 168.465 120.25 167.803C120.25 167.142 120.127 166.587 119.882 166.139C119.647 165.691 119.333 165.355 118.938 165.131C118.543 164.907 118.122 164.795 117.674 164.795C117.215 164.795 116.789 164.907 116.394 165.131C115.999 165.355 115.679 165.691 115.434 166.139C115.189 166.587 115.066 167.142 115.066 167.803C115.066 168.465 115.189 169.019 115.434 169.467C115.679 169.915 115.994 170.251 116.378 170.475C116.773 170.699 117.194 170.811 117.642 170.811ZM123.495 171.771V163.835H124.711L124.807 164.987C125.063 164.561 125.404 164.23 125.831 163.995C126.257 163.761 126.737 163.643 127.271 163.643C127.9 163.643 128.439 163.771 128.887 164.027C129.345 164.283 129.697 164.673 129.943 165.195C130.22 164.715 130.599 164.337 131.079 164.059C131.569 163.782 132.097 163.643 132.663 163.643C133.612 163.643 134.369 163.931 134.935 164.507C135.5 165.073 135.783 165.947 135.783 167.131V171.771H134.455V167.275C134.455 166.454 134.289 165.835 133.959 165.419C133.628 165.003 133.153 164.795 132.535 164.795C131.895 164.795 131.361 165.046 130.935 165.547C130.519 166.038 130.311 166.742 130.311 167.659V171.771H128.967V167.275C128.967 166.454 128.801 165.835 128.471 165.419C128.14 165.003 127.665 164.795 127.047 164.795C126.417 164.795 125.889 165.046 125.463 165.547C125.047 166.038 124.839 166.742 124.839 167.659V171.771H123.495ZM141.375 171.963C140.618 171.963 139.946 171.793 139.359 171.451C138.772 171.099 138.308 170.614 137.967 169.995C137.636 169.377 137.471 168.646 137.471 167.803C137.471 166.971 137.636 166.246 137.967 165.627C138.298 164.998 138.756 164.513 139.343 164.171C139.94 163.819 140.628 163.643 141.407 163.643C142.175 163.643 142.836 163.819 143.391 164.171C143.956 164.513 144.388 164.966 144.687 165.531C144.986 166.097 145.135 166.705 145.135 167.355C145.135 167.473 145.13 167.59 145.119 167.707C145.119 167.825 145.119 167.958 145.119 168.107H138.799C138.831 168.715 138.97 169.222 139.215 169.627C139.471 170.022 139.786 170.321 140.159 170.523C140.543 170.726 140.948 170.827 141.375 170.827C141.93 170.827 142.394 170.699 142.767 170.443C143.14 170.187 143.412 169.841 143.583 169.403H144.911C144.698 170.139 144.287 170.753 143.679 171.243C143.082 171.723 142.314 171.963 141.375 171.963ZM141.375 164.779C140.735 164.779 140.164 164.977 139.663 165.371C139.172 165.755 138.89 166.321 138.815 167.067H143.807C143.775 166.353 143.53 165.793 143.071 165.387C142.612 164.982 142.047 164.779 141.375 164.779ZM146.917 171.771V163.835H148.133L148.245 165.355C148.49 164.833 148.863 164.417 149.365 164.107C149.866 163.798 150.485 163.643 151.221 163.643V165.051H150.853C150.383 165.051 149.951 165.137 149.557 165.307C149.162 165.467 148.847 165.745 148.613 166.139C148.378 166.534 148.261 167.078 148.261 167.771V171.771H146.917ZM155.769 171.963C154.82 171.963 154.03 171.723 153.401 171.243C152.772 170.763 152.404 170.113 152.297 169.291H153.673C153.758 169.707 153.977 170.07 154.329 170.379C154.692 170.678 155.177 170.827 155.785 170.827C156.35 170.827 156.766 170.71 157.033 170.475C157.3 170.23 157.433 169.942 157.433 169.611C157.433 169.131 157.257 168.811 156.905 168.651C156.564 168.491 156.078 168.347 155.449 168.219C155.022 168.134 154.596 168.011 154.169 167.851C153.742 167.691 153.385 167.467 153.097 167.179C152.809 166.881 152.665 166.491 152.665 166.011C152.665 165.318 152.921 164.753 153.433 164.315C153.956 163.867 154.66 163.643 155.545 163.643C156.388 163.643 157.076 163.857 157.609 164.283C158.153 164.699 158.468 165.297 158.553 166.075H157.225C157.172 165.67 156.996 165.355 156.697 165.131C156.409 164.897 156.02 164.779 155.529 164.779C155.049 164.779 154.676 164.881 154.409 165.083C154.153 165.286 154.025 165.553 154.025 165.883C154.025 166.203 154.19 166.454 154.521 166.635C154.862 166.817 155.321 166.971 155.897 167.099C156.388 167.206 156.852 167.339 157.289 167.499C157.737 167.649 158.1 167.878 158.377 168.187C158.665 168.486 158.809 168.923 158.809 169.499C158.82 170.214 158.548 170.806 157.993 171.275C157.449 171.734 156.708 171.963 155.769 171.963Z" fill="black"/>
</svg>
