<svg width="65" height="65" viewBox="0 0 65 65" fill="none" xmlns="http://www.w3.org/2000/svg">
<g filter="url(#filter0_d_1_921)">
<circle cx="23.2958" cy="23.2958" r="23.2958" transform="matrix(1 1.74846e-07 1.74846e-07 -1 9.49023 54.5916)" fill="white"/>
<path d="M28.5992 39.9186C28.2943 39.6137 28.2666 39.1367 28.516 38.8005L28.5992 38.7042L36.0064 31.2966L28.5992 23.889C28.2943 23.5841 28.2666 23.1071 28.516 22.7709L28.5992 22.6746C28.904 22.3697 29.3811 22.342 29.7173 22.5914L29.8136 22.6746L37.8284 30.6894C38.1333 30.9942 38.161 31.4713 37.9115 31.8075L37.8284 31.9038L29.8136 39.9186C29.4782 40.2539 28.9345 40.2539 28.5992 39.9186Z" fill="#202937"/>
</g>
<defs>
<filter id="filter0_d_1_921" x="0.615636" y="0.234726" width="64.341" height="64.3408" filterUnits="userSpaceOnUse" color-interpolation-filters="sRGB">
<feFlood flood-opacity="0" result="BackgroundImageFix"/>
<feColorMatrix in="SourceAlpha" type="matrix" values="0 0 0 0 0 0 0 0 0 0 0 0 0 0 0 0 0 0 127 0" result="hardAlpha"/>
<feOffset dy="1.10932"/>
<feGaussianBlur stdDeviation="4.4373"/>
<feComposite in2="hardAlpha" operator="out"/>
<feColorMatrix type="matrix" values="0 0 0 0 0 0 0 0 0 0 0 0 0 0 0 0 0 0 0.125 0"/>
<feBlend mode="normal" in2="BackgroundImageFix" result="effect1_dropShadow_1_921"/>
<feBlend mode="normal" in="SourceGraphic" in2="effect1_dropShadow_1_921" result="shape"/>
</filter>
</defs>
</svg>
