<svg width="65" height="65" viewBox="0 0 65 65" fill="none" xmlns="http://www.w3.org/2000/svg">
<g filter="url(#filter0_d_1_916)">
<circle cx="23.2958" cy="23.2958" r="23.2958" transform="matrix(-1 0 0 1 55.4902 8.00006)" fill="white"/>
<path d="M36.3813 22.6728C36.6862 22.9777 36.7139 23.4548 36.4644 23.791L36.3813 23.8873L28.9741 31.2948L36.3813 38.7024C36.6862 39.0073 36.7139 39.4843 36.4644 39.8205L36.3813 39.9168C36.0764 40.2217 35.5994 40.2494 35.2632 40L35.1669 39.9168L27.1521 31.9021C26.8472 31.5972 26.8195 31.1201 27.0689 30.7839L27.1521 30.6876L35.1669 22.6728C35.5022 22.3375 36.0459 22.3375 36.3813 22.6728Z" fill="#202937"/>
</g>
<defs>
<filter id="filter0_d_1_916" x="0.023839" y="0.234787" width="64.341" height="64.3408" filterUnits="userSpaceOnUse" color-interpolation-filters="sRGB">
<feFlood flood-opacity="0" result="BackgroundImageFix"/>
<feColorMatrix in="SourceAlpha" type="matrix" values="0 0 0 0 0 0 0 0 0 0 0 0 0 0 0 0 0 0 127 0" result="hardAlpha"/>
<feOffset dy="1.10932"/>
<feGaussianBlur stdDeviation="4.4373"/>
<feComposite in2="hardAlpha" operator="out"/>
<feColorMatrix type="matrix" values="0 0 0 0 0 0 0 0 0 0 0 0 0 0 0 0 0 0 0.125 0"/>
<feBlend mode="normal" in2="BackgroundImageFix" result="effect1_dropShadow_1_916"/>
<feBlend mode="normal" in="SourceGraphic" in2="effect1_dropShadow_1_916" result="shape"/>
</filter>
</defs>
</svg>
