<svg width="72" height="72" viewBox="0 0 72 72" fill="none" xmlns="http://www.w3.org/2000/svg">
<rect width="72" height="72" fill="white"/>
<path d="M17.8 61.6588L15.995 38.7957C15.9333 38.0137 16.5513 37.345 17.3357 37.345H40.6505C41.435 37.345 42.053 38.0137 41.9912 38.7957L40.1863 61.6588C40.131 62.3583 39.5473 62.8978 38.8455 62.8978H19.1407C18.439 62.8978 17.8552 62.3583 17.8 61.6588Z" fill="#B499B8"/>
<path fill-rule="evenodd" clip-rule="evenodd" d="M46.4518 9.10229C47.005 9.10229 47.3021 9.15352 47.7631 9.3584C48.0806 9.50182 48.5724 9.82964 48.8387 10.1062C49.1051 10.3726 49.4226 10.8028 49.5251 11.0589C49.689 11.438 49.8119 11.5609 50.1397 11.6941C50.3651 11.7863 50.7749 12.0526 51.0412 12.2985C51.3383 12.5546 51.6559 12.9746 51.8095 13.3024C52.0452 13.7839 52.0861 13.999 52.0861 14.7366C52.0759 15.4435 52.0349 15.6893 51.8403 16.0684C51.7071 16.3245 51.5022 16.6625 51.3793 16.8265C51.2666 16.9904 50.9285 17.2874 50.652 17.4718C50.3344 17.6767 49.8427 17.8714 49.3714 17.9841C48.8592 18.0967 48.3982 18.2914 47.9884 18.5577C47.6504 18.7831 46.9128 19.4285 45.3045 21.0368L45.2532 22.5735C45.2327 23.4238 45.2225 24.1306 45.243 24.1613C45.2635 24.1921 45.4479 24.1101 45.663 23.9769C45.8679 23.8438 46.2469 23.6491 46.503 23.5262C46.7591 23.4135 47.2509 23.2394 48.2548 22.9833L48.5416 22.3174C48.6953 21.9486 49.0129 21.3544 49.2382 20.9856C49.4739 20.6168 49.8631 20.1353 50.109 19.9202C50.3446 19.6948 50.7032 19.449 50.8773 19.3773C51.0617 19.3056 51.4612 19.2441 51.7481 19.2441C52.0861 19.2441 52.4344 19.3158 52.6496 19.4387C52.8954 19.5617 53.1106 19.8075 53.6228 20.791L54.4423 20.7807C55.1082 20.7807 55.3336 20.832 55.6614 21.0164C55.8765 21.1393 56.1531 21.4056 56.2556 21.6003C56.399 21.8564 56.4399 22.092 56.4092 22.4198C56.3785 22.6759 56.2658 23.0652 55.9482 23.7003L56.317 23.9155C56.5321 24.0384 56.8702 24.3355 57.0751 24.5814C57.4132 24.9706 57.4541 25.1038 57.4644 25.575C57.4644 25.8619 57.3927 26.2409 57.3107 26.4151C57.2288 26.5892 56.9829 26.917 56.7678 27.1424C56.5629 27.378 56.1326 27.6956 55.8253 27.8493C55.518 28.0029 55.0262 28.1771 54.7496 28.2386C54.4628 28.3 54.0326 28.382 53.7764 28.4127C53.5203 28.4537 53.0184 28.4332 52.6496 28.3717C52.2808 28.3103 51.912 28.2386 51.83 28.2078C51.7276 28.1668 51.5944 28.2795 51.41 28.5869C51.2564 28.8327 50.7749 29.3654 50.3344 29.7854C49.8836 30.1952 49.2895 30.6767 48.4597 31.1786L48.4494 33.0533C48.4494 34.4261 48.4085 34.9895 48.306 35.2046C48.2343 35.3583 48.0499 35.5427 47.8962 35.6144C47.7528 35.6759 47.3328 35.7373 46.964 35.7373C46.4416 35.7373 46.2981 35.7681 46.2981 35.891C46.2981 35.973 45.8576 41.5561 45.3249 48.2865C44.7922 55.017 44.3517 60.6001 44.3517 60.6821C44.3517 60.764 44.2083 60.9997 43.7371 61.5528H41.6575C39.8545 61.5528 39.6702 61.5528 39.373 61.5528C39.1836 61.5528 38.9223 61.5528 38.9223 61.5528C38.9223 61.5528 38.9223 60.6411 38.9223 60.5284C38.9223 60.4157 38.9223 60.1836 38.9223 60.0062C38.9223 59.8047 38.9223 59.7081 38.9223 59.504C39.2398 59.504 40.1414 59.504 41.0736 59.504C42.1902 59.504 42.4053 59.4835 42.4053 59.3503C42.4053 59.2684 42.8253 53.9619 43.3273 47.5694C43.8293 41.177 44.2493 35.9012 44.2493 35.8398C44.2493 35.7681 40.2848 35.7373 32.5709 35.7373C24.8569 35.7373 20.8924 35.7681 20.8924 35.8398C20.8924 35.9012 21.3022 41.177 21.8144 47.5694C22.3164 53.9619 22.7364 59.2684 22.7364 59.3503C22.7364 59.4835 23.2588 59.504 26.8341 59.504C30.1122 59.504 38.6593 59.504 38.9223 59.504C38.9223 59.6826 38.9223 59.8029 38.9223 60.0062C38.9223 60.2465 38.9223 60.4157 38.9223 60.5284C38.9223 60.6411 38.9223 61.5528 38.9223 61.5528C38.9223 61.5528 38.4648 61.5528 38.3006 61.5528C38.0438 61.5528 30.6757 61.5528 21.4046 61.5528L21.0973 61.1943C20.9231 60.9997 20.79 60.7743 20.79 60.7128C20.79 60.6411 20.3495 55.058 19.8168 48.3173C19.2841 41.5663 18.8436 35.973 18.8436 35.891C18.8436 35.7681 18.7001 35.7373 18.1777 35.7373C17.8089 35.7373 17.3889 35.6759 17.2455 35.6144C17.0918 35.5427 16.9074 35.3583 16.8357 35.2046C16.7332 34.9895 16.6923 34.4158 16.682 31.0762L16.1391 30.3591C15.842 29.9698 15.4732 29.4371 15.3298 29.181C15.1864 28.9249 14.9405 28.3512 14.7868 27.9005C14.5205 27.1629 14.5 26.9478 14.5 25.698C14.5 24.694 14.5512 24.1306 14.6844 23.6491C14.7868 23.2803 15.0122 22.6862 15.1864 22.3174C15.3708 21.9588 15.7396 21.4261 16.0264 21.129C16.303 20.8422 16.764 20.4939 17.0508 20.3505C17.3274 20.2071 17.8191 20.0124 18.1265 19.9202C18.4338 19.828 18.987 19.7563 19.3558 19.7563C19.7246 19.7563 20.3187 19.8383 20.6875 19.951C21.0563 20.0636 21.63 20.3402 21.9681 20.5554C22.3061 20.7807 22.8388 21.2417 23.7096 22.1944L24.1706 21.7437C24.4267 21.4876 24.9799 21.1086 25.3999 20.8934C26.117 20.5349 26.1784 20.4734 26.3014 20.0534C26.3936 19.7666 26.4243 19.2851 26.3936 18.7319C26.3628 18.1889 26.2399 17.5538 26.076 17.0416C25.9326 16.5908 25.8096 16.0991 25.8096 15.9352C25.8096 15.7815 25.9121 15.5459 26.035 15.4025C26.1887 15.2386 26.6907 14.9927 27.4487 14.7264C28.0941 14.4908 28.6371 14.2961 28.6576 14.2859C28.6678 14.2859 28.5244 13.8454 28.3195 13.3229C28.1248 12.8107 27.9609 12.2883 27.9609 12.1756C27.9609 12.0629 28.0224 11.8478 28.1044 11.6838C28.1761 11.5302 28.3605 11.3458 28.5141 11.2741C28.6575 11.2126 28.8727 11.1511 28.9854 11.1511C29.0981 11.1511 29.3132 11.2126 29.4566 11.2741C29.6103 11.3458 29.7844 11.5199 29.8561 11.6634C29.9278 11.8068 30.1327 12.2883 30.6244 13.5585L32.0074 13.0668C32.7655 12.8005 33.5031 12.5853 33.6465 12.5853C33.8002 12.5853 34.046 12.7288 34.2612 12.9439C34.4763 13.159 34.6197 13.4049 34.6197 13.5585C34.6197 13.702 34.6914 14.1527 34.7836 14.5522C34.8758 14.962 35.1217 15.6689 35.3368 16.1196C35.5827 16.6216 35.9207 17.1338 36.2281 17.4411C36.4944 17.7177 36.9247 18.0455 37.6418 18.3938L38.3589 18.066C38.7584 17.8816 39.4447 17.5948 39.8852 17.4411C40.5819 17.185 40.7765 17.0621 41.2068 16.5806C41.5141 16.2425 41.9136 15.6074 42.2107 14.9927C42.477 14.4293 42.8253 13.5483 42.9688 13.0463C43.1122 12.5341 43.2249 12.0117 43.2249 11.8682C43.2249 11.7248 43.3683 11.3151 43.5527 10.9565C43.7473 10.5775 44.0649 10.1472 44.3005 9.95257C44.5259 9.75793 44.9357 9.50182 45.2225 9.3584C45.6015 9.174 45.9191 9.11254 46.4518 9.10229ZM45.4274 11.7658C45.3557 11.9092 45.243 12.2985 45.1815 12.6366C45.1201 12.9746 44.9357 13.6405 44.7718 14.122C44.6181 14.6035 44.3415 15.2898 44.1776 15.6586C44.0137 16.0274 43.7064 16.6011 43.4912 16.9391C43.2761 17.2772 42.9893 17.6665 42.8561 17.8099L42.6102 18.066C43.2044 18.6192 43.5322 18.9265 43.7166 19.0904L44.0444 19.3978C45.6732 17.7894 46.4928 17.1031 46.9128 16.8265C47.3328 16.5601 47.927 16.2528 48.2138 16.1503C48.5109 16.0479 48.8694 15.9659 49.0129 15.9659C49.1563 15.9659 49.4329 15.8328 49.6275 15.6586C49.8836 15.4435 49.9963 15.2488 50.0168 15.003C50.0373 14.8083 50.0168 14.4805 49.9656 14.2859C49.9144 14.0605 49.7709 13.8351 49.5968 13.7225C49.4431 13.62 49.1153 13.4971 48.8592 13.4663C48.5826 13.4254 48.2958 13.3024 48.1421 13.159C47.9987 13.0258 47.8553 12.739 47.8041 12.4931C47.7631 12.2678 47.6709 11.9502 47.5889 11.7965C47.5172 11.6326 47.2816 11.4277 47.0767 11.3355C46.8718 11.2331 46.6055 11.1511 46.4723 11.1511C46.3494 11.1511 46.0933 11.2331 45.8986 11.3355C45.7142 11.4277 45.4991 11.6224 45.4274 11.7658ZM28.1863 16.6216C28.1761 16.6318 28.2375 17.0416 28.3297 17.5538C28.4527 18.2094 28.4834 18.7626 28.4424 19.449L28.381 20.4222C29.0468 20.6168 29.5386 20.8422 29.8971 21.0573C30.2659 21.2725 30.901 21.7847 31.3108 22.1944L32.0586 22.932C32.4889 22.4198 32.9192 21.9486 33.288 21.5695C33.6567 21.1803 34.3021 20.5861 34.7221 20.248L35.4905 19.6334C34.2202 18.3426 33.9333 17.9431 33.5748 17.1953C33.3084 16.6625 33.0216 15.9557 32.9396 15.6381C32.8474 15.3001 32.7245 15.044 32.6426 15.0542C32.5811 15.0542 31.5567 15.4128 30.3683 15.8328C29.18 16.263 28.2068 16.6216 28.1863 16.6216ZM40.2028 19.5002C39.8648 19.6231 39.1681 19.9407 38.6662 20.1866C38.1642 20.4427 37.3037 20.9446 36.771 21.3032C36.2383 21.6617 35.3778 22.3686 34.8758 22.8808C34.3636 23.3828 33.7387 24.1306 33.4723 24.5199C33.206 24.9092 32.8372 25.5853 32.6323 26.0053C32.4377 26.4253 32.1816 27.1219 32.0689 27.5419C31.9562 27.962 31.823 28.5971 31.782 28.9454L31.7001 29.5908H41.3809C41.7292 29.0786 41.9853 28.5561 42.18 28.1054C42.3644 27.6546 42.6307 26.8248 42.7639 26.2614C42.9073 25.698 43.061 24.7555 43.1224 24.1613C43.1736 23.5672 43.2249 22.7067 43.2249 22.2457V21.3954C41.8317 20.1763 41.2887 19.6948 41.1248 19.5412L40.8072 19.2646L40.2028 19.5002ZM50.5393 22.9115L50.3036 23.4442C51.1027 24.2843 51.4715 24.7965 51.6456 25.1345C51.8095 25.4726 51.9427 25.8312 51.9427 25.9336C51.9427 26.0463 52.0759 26.1487 52.3218 26.2307C52.5369 26.3024 53.0081 26.3536 53.3769 26.3536C53.7355 26.3536 54.2682 26.2819 54.555 26.1897C54.8316 26.0975 55.1184 25.9438 55.1902 25.8619C55.3028 25.7287 55.2721 25.6775 54.9853 25.5546C54.8009 25.4828 54.4526 25.3497 54.2067 25.278C53.9608 25.196 53.6638 25.0219 53.5613 24.8784C53.4486 24.735 53.3667 24.4687 53.3769 24.2638C53.3769 24.0384 53.4999 23.7311 53.7047 23.4135C53.8891 23.1472 54.0121 22.9115 53.9916 22.8808C53.9608 22.8603 53.7047 22.9115 53.4281 22.9935C53.1413 23.0754 52.8135 23.1369 52.6803 23.1369C52.5574 23.1369 52.3115 23.0242 52.1476 22.8808C51.9735 22.7374 51.8198 22.4915 51.7891 22.3174C51.7583 22.1535 51.7174 21.8769 51.6969 21.7027C51.6764 21.5388 51.6149 21.3954 51.5534 21.3954C51.492 21.3954 51.2871 21.6208 51.1027 21.8871C50.9183 22.1535 50.6724 22.6145 50.5393 22.9115ZM17.4299 22.6862C17.2352 22.9115 16.9894 23.3008 16.8869 23.5467C16.7742 23.8028 16.6513 24.2843 16.5898 24.6223C16.5386 24.9604 16.4976 25.4931 16.4976 25.8004C16.4976 26.118 16.5693 26.62 16.6513 26.9273C16.7332 27.2449 16.9279 27.7468 17.0816 28.0542C17.2352 28.3717 17.5323 28.843 17.7474 29.1093L18.1367 29.5908L29.6615 29.5396C29.7844 28.4332 29.9278 27.6956 30.061 27.1834C30.1942 26.6814 30.4298 25.9848 30.5732 25.6468C30.7166 25.3087 30.8396 24.9501 30.8396 24.8579C30.8396 24.7555 30.481 24.3048 30.0405 23.8438C29.5078 23.2803 29.0571 22.9218 28.6371 22.7067C28.0941 22.4403 27.9405 22.4096 27.3565 22.4506C26.9877 22.471 26.5472 22.5632 26.3833 22.6554C26.2092 22.7374 25.9121 22.9628 25.7277 23.1472C25.5331 23.3418 25.2872 23.6799 25.1847 23.9052C25.0823 24.1306 25.0004 24.5096 25.0004 24.7555C25.0004 25.0936 24.9286 25.2575 24.7033 25.4931C24.4677 25.7287 24.3037 25.8004 24.0067 25.8004C23.7915 25.8004 23.5252 25.739 23.4125 25.6672C23.2998 25.5955 23.013 25.1448 22.7774 24.6633C22.5417 24.1921 22.132 23.5364 21.8759 23.2189C21.6198 22.8911 21.2202 22.4915 20.9744 22.3379C20.7387 22.174 20.3802 21.9896 20.1856 21.9281C19.9807 21.8564 19.5914 21.8052 19.3148 21.8052C18.9972 21.8052 18.6079 21.8974 18.2904 22.051C18.0035 22.1842 17.6143 22.471 17.4299 22.6862ZM46.3596 25.9746C46.0215 26.1999 45.4888 26.62 45.1815 26.8966C44.7205 27.3166 44.5771 27.5317 44.4234 28.0132C44.321 28.3512 44.1469 28.7917 44.0444 29.0069C43.9317 29.2118 43.8498 29.4371 43.8498 29.4883C43.8498 29.5601 44.4747 29.5908 45.5093 29.5908H47.1791C48.1319 28.9761 48.6543 28.5664 48.9514 28.3C49.2895 27.9927 49.5968 27.5829 49.7607 27.2346C49.9963 26.7326 50.0168 26.6302 49.9041 26.2921C49.8427 26.077 49.6173 25.7185 49.4021 25.5033C49.0641 25.1448 48.9616 25.0936 48.5621 25.0936C48.306 25.0936 47.845 25.196 47.5377 25.3189C47.2201 25.4521 46.6977 25.739 46.3596 25.9746ZM18.7514 33.6885H46.4108V31.6396H18.7514V33.6885ZM25.8916 39.4355C26.0248 39.4253 26.2502 39.4867 26.4038 39.5687C26.5575 39.6404 26.7419 39.8453 26.8136 39.9989C26.8853 40.1833 27.1516 43.2566 27.459 47.6207C27.8995 53.8184 27.9609 54.9965 27.8483 55.2424C27.7765 55.4063 27.5819 55.6009 27.4282 55.6829C27.2746 55.7546 27.0594 55.8161 26.9468 55.8161C26.8341 55.8161 26.6087 55.7546 26.455 55.6829C26.3014 55.6009 26.117 55.4063 26.0453 55.2424C25.9736 55.0682 25.7175 51.9847 25.4101 47.6207C24.9696 41.4229 24.9082 40.2551 25.0208 39.9989C25.0926 39.8453 25.2667 39.6506 25.4101 39.5687C25.5433 39.497 25.7687 39.4355 25.8916 39.4355ZM32.5504 39.4355C32.6835 39.4253 32.9089 39.4867 33.0626 39.5687C33.2162 39.6506 33.4006 39.835 33.4723 39.9785C33.5748 40.1833 33.6055 41.9351 33.6055 47.6207C33.6055 53.3165 33.5748 55.058 33.4723 55.2629C33.4006 55.4165 33.2162 55.6009 33.0626 55.6726C32.9089 55.7546 32.6938 55.8161 32.5811 55.8161C32.4684 55.8161 32.243 55.7546 32.0894 55.6726C31.9357 55.6009 31.7513 55.4165 31.6796 55.2629C31.5874 55.058 31.5567 53.3165 31.5567 47.6002C31.5567 41.0848 31.5772 40.1629 31.7206 39.9477C31.8128 39.8146 31.9767 39.6506 32.0996 39.5687C32.2225 39.497 32.4274 39.4355 32.5504 39.4355ZM39.2091 39.4355C39.3423 39.4253 39.5677 39.4867 39.7213 39.5687C39.875 39.6404 40.0696 39.8453 40.1413 39.9989C40.254 40.2551 40.1926 41.4229 39.7521 47.6207C39.4447 51.9847 39.1784 55.0682 39.1067 55.2424C39.035 55.4063 38.8506 55.6009 38.6969 55.6829C38.5432 55.7546 38.3281 55.8161 38.2154 55.8161C38.1027 55.8161 37.8774 55.7546 37.7237 55.6829C37.57 55.6009 37.3856 55.4063 37.3139 55.2424C37.2013 54.9965 37.2627 53.8184 37.7032 47.6207C38.0105 43.2566 38.2667 40.1833 38.3384 39.9989C38.4101 39.8453 38.5842 39.6506 38.7276 39.5687C38.8608 39.497 39.0862 39.4355 39.2091 39.4355Z" fill="#403C3B"/>
<path fill-rule="evenodd" clip-rule="evenodd" d="M45.463 11.7658C45.3913 11.9092 45.2786 12.2985 45.2172 12.6366C45.1557 12.9746 44.9713 13.6405 44.8074 14.122C44.6537 14.6035 44.3771 15.2898 44.2132 15.6586C44.0493 16.0274 43.742 16.6011 43.5269 16.9391C43.3117 17.2772 43.0249 17.6665 42.8917 17.8099L42.6459 18.066C43.24 18.6192 43.5678 18.9265 43.7522 19.0904L44.0801 19.3978C45.7089 17.7894 46.5284 17.1031 46.9484 16.8265C47.3685 16.5601 47.9626 16.2528 48.2495 16.1503C48.5465 16.0479 48.9051 15.9659 49.0485 15.9659C49.1919 15.9659 49.4685 15.8328 49.6632 15.6586C49.9193 15.4435 50.032 15.2488 50.0524 15.003C50.0729 14.8083 50.0524 14.4805 50.0012 14.2859C49.95 14.0605 49.8066 13.8351 49.6324 13.7224C49.4788 13.62 49.151 13.4971 48.8948 13.4663C48.6183 13.4254 48.3314 13.3024 48.1778 13.159C48.0343 13.0258 47.8909 12.739 47.8397 12.4931C47.7987 12.2678 47.7065 11.9502 47.6246 11.7965C47.5529 11.6326 47.3172 11.4277 47.1124 11.3355C46.9075 11.2331 46.6411 11.1511 46.5079 11.1511C46.385 11.1511 46.1289 11.2331 45.9343 11.3355C45.7499 11.4277 45.5347 11.6224 45.463 11.7658ZM28.222 16.6216C28.2117 16.6318 28.2732 17.0416 28.3654 17.5538C28.4883 18.2094 28.519 18.7626 28.4781 19.449L28.4166 20.4222C29.0825 20.6168 29.5742 20.8422 29.9327 21.0573C30.3015 21.2725 30.9367 21.7847 31.3465 22.1944L32.0943 22.932C32.5245 22.4198 32.9548 21.9486 33.3236 21.5695C33.6924 21.1803 34.3378 20.5861 34.7578 20.248L35.5261 19.6334C34.2558 18.3426 33.969 17.9431 33.6104 17.1952C33.3441 16.6625 33.0572 15.9557 32.9753 15.6381C32.8831 15.3001 32.7602 15.044 32.6782 15.0542C32.6167 15.0542 31.5923 15.4128 30.404 15.8328C29.2157 16.263 28.2424 16.6216 28.222 16.6216ZM40.2385 19.5002C39.9004 19.6231 39.2038 19.9407 38.7018 20.1866C38.1999 20.4427 37.3393 20.9446 36.8066 21.3032C36.2739 21.6617 35.4134 22.3686 34.9115 22.8808C34.3992 23.3828 33.7743 24.1306 33.508 24.5199C33.2416 24.9092 32.8728 25.5853 32.668 26.0053C32.4733 26.4253 32.2172 27.1219 32.1045 27.5419C31.9918 27.962 31.8587 28.5971 31.8177 28.9454L31.7357 29.5908H41.4165C41.7649 29.0786 42.021 28.5561 42.2156 28.1054C42.4 27.6546 42.6663 26.8248 42.7995 26.2614C42.9429 25.698 43.0966 24.7555 43.1581 24.1613C43.2093 23.5672 43.2605 22.7067 43.2605 22.2457V21.3954C41.8673 20.1763 41.3244 19.6948 41.1604 19.5412L40.8429 19.2646L40.2385 19.5002ZM50.5749 22.9115L50.3393 23.4442C51.1383 24.2843 51.5071 24.7965 51.6813 25.1345C51.8452 25.4726 51.9784 25.8312 51.9784 25.9336C51.9784 26.0463 52.1115 26.1487 52.3574 26.2307C52.5725 26.3024 53.0438 26.3536 53.4126 26.3536C53.7711 26.3536 54.3038 26.2819 54.5907 26.1897C54.8672 26.0975 55.1541 25.9438 55.2258 25.8619C55.3385 25.7287 55.3078 25.6775 55.0209 25.5546C54.8365 25.4828 54.4882 25.3497 54.2423 25.278C53.9965 25.196 53.6994 25.0219 53.597 24.8784C53.4843 24.735 53.4023 24.4687 53.4126 24.2638C53.4126 24.0384 53.5355 23.7311 53.7404 23.4135C53.9248 23.1472 54.0477 22.9115 54.0272 22.8808C53.9965 22.8603 53.7404 22.9115 53.4638 22.9935C53.1769 23.0754 52.8491 23.1369 52.716 23.1369C52.593 23.1369 52.3472 23.0242 52.1833 22.8808C52.0091 22.7374 51.8554 22.4915 51.8247 22.3174C51.794 22.1535 51.753 21.8769 51.7325 21.7027C51.712 21.5388 51.6506 21.3954 51.5891 21.3954C51.5276 21.3954 51.3227 21.6208 51.1383 21.8871C50.9539 22.1535 50.7081 22.6145 50.5749 22.9115ZM17.4655 22.6862C17.2709 22.9115 17.025 23.3008 16.9226 23.5467C16.8099 23.8028 16.6869 24.2843 16.6255 24.6223C16.5742 24.9604 16.5333 25.4931 16.5333 25.8004C16.5333 26.118 16.605 26.62 16.6869 26.9273C16.7689 27.2449 16.9635 27.7468 17.1172 28.0542C17.2709 28.3717 17.5679 28.843 17.7831 29.1093L18.1724 29.5908L29.6971 29.5396C29.8201 28.4332 29.9635 27.6956 30.0967 27.1834C30.2298 26.6814 30.4654 25.9848 30.6089 25.6468C30.7523 25.3087 30.8752 24.9501 30.8752 24.8579C30.8752 24.7555 30.5167 24.3048 30.0762 23.8438C29.5435 23.2803 29.0927 22.9218 28.6727 22.7067C28.1298 22.4403 27.9761 22.4096 27.3922 22.4505C27.0234 22.471 26.5829 22.5632 26.419 22.6554C26.2448 22.7374 25.9477 22.9628 25.7633 23.1472C25.5687 23.3418 25.3228 23.6799 25.2204 23.9052C25.118 24.1306 25.036 24.5096 25.036 24.7555C25.036 25.0936 24.9643 25.2575 24.7389 25.4931C24.5033 25.7287 24.3394 25.8004 24.0423 25.8004C23.8272 25.8004 23.5608 25.739 23.4481 25.6672C23.3355 25.5955 23.0486 25.1448 22.813 24.6633C22.5774 24.1921 22.1676 23.5364 21.9115 23.2189C21.6554 22.8911 21.2559 22.4915 21.01 22.3379C20.7744 22.174 20.4158 21.9896 20.2212 21.9281C20.0163 21.8564 19.627 21.8052 19.3504 21.8052C19.0329 21.8052 18.6436 21.8974 18.326 22.051C18.0392 22.1842 17.6499 22.471 17.4655 22.6862ZM46.3953 25.9746C46.0572 26.1999 45.5245 26.62 45.2172 26.8966C44.7562 27.3166 44.6128 27.5317 44.4591 28.0132C44.3566 28.3512 44.1825 28.7917 44.0801 29.0069C43.9674 29.2118 43.8854 29.4371 43.8854 29.4883C43.8854 29.5601 44.5103 29.5908 45.545 29.5908H47.2148C48.1675 28.9761 48.69 28.5664 48.987 28.3C49.3251 27.9927 49.6324 27.5829 49.7963 27.2346C50.032 26.7326 50.0525 26.6302 49.9398 26.2921C49.8783 26.077 49.6529 25.7185 49.4378 25.5033C49.0997 25.1448 48.9973 25.0936 48.5978 25.0936C48.3417 25.0936 47.8807 25.196 47.5733 25.3189C47.2558 25.4521 46.7333 25.739 46.3953 25.9746Z" fill="#B499B8"/>
</svg>
