<svg width="497" height="374" viewBox="0 0 497 374" fill="none" xmlns="http://www.w3.org/2000/svg">
<g clip-path="url(#clip0_1738_18829)">
<rect x="73.1285" y="29.2513" width="291.469" height="344.749" rx="20.8939" fill="#202937"/>
<g clip-path="url(#clip1_1738_18829)">
<rect x="49.1006" width="301.916" height="357.285" rx="11.0194" fill="white"/>
<rect width="301.916" height="42.7151" transform="translate(49)" fill="#ECF0F8"/>
<path d="M112.531 27.3575V22.7845L108.215 14.5016H110.878L113.725 20.4337L116.553 14.5016H119.18L114.882 22.7845V27.3575H112.531ZM123.369 27.5779C122.488 27.5779 121.692 27.3759 120.982 26.9719C120.284 26.5678 119.727 26.0107 119.311 25.3006C118.906 24.5782 118.704 23.7456 118.704 22.8029C118.704 21.8601 118.913 21.0337 119.329 20.3235C119.745 19.6011 120.302 19.0379 121 18.6339C121.71 18.2298 122.506 18.0278 123.388 18.0278C124.257 18.0278 125.041 18.2298 125.738 18.6339C126.449 19.0379 127.006 19.6011 127.41 20.3235C127.826 21.0337 128.034 21.8601 128.034 22.8029C128.034 23.7456 127.826 24.5782 127.41 25.3006C127.006 26.0107 126.449 26.5678 125.738 26.9719C125.028 27.3759 124.239 27.5779 123.369 27.5779ZM123.369 25.5393C123.981 25.5393 124.514 25.3128 124.967 24.8598C125.42 24.3946 125.647 23.7089 125.647 22.8029C125.647 21.8968 125.42 21.2173 124.967 20.7643C124.514 20.299 123.988 20.0664 123.388 20.0664C122.763 20.0664 122.225 20.299 121.772 20.7643C121.331 21.2173 121.11 21.8968 121.11 22.8029C121.11 23.7089 121.331 24.3946 121.772 24.8598C122.225 25.3128 122.757 25.5393 123.369 25.5393ZM133.552 27.5779C132.413 27.5779 131.532 27.2229 130.907 26.5127C130.295 25.8026 129.989 24.7619 129.989 23.3906V18.2482H132.322V23.1702C132.322 23.9538 132.481 24.5537 132.799 24.97C133.117 25.3863 133.619 25.5944 134.305 25.5944C134.954 25.5944 135.487 25.3618 135.903 24.8966C136.331 24.4313 136.546 23.7824 136.546 22.9498V18.2482H138.896V27.3575H136.821L136.637 25.8148C136.356 26.3536 135.946 26.7821 135.407 27.1004C134.88 27.4188 134.262 27.5779 133.552 27.5779ZM145.686 27.3575V14.1343H148.037V19.644C148.343 19.142 148.753 18.7502 149.267 18.4686C149.794 18.1747 150.394 18.0278 151.067 18.0278C152.193 18.0278 153.063 18.3829 153.675 19.093C154.299 19.8032 154.611 20.8439 154.611 22.2152V27.3575H152.279V22.4356C152.279 21.652 152.12 21.052 151.802 20.6357C151.495 20.2194 151.006 20.0113 150.332 20.0113C149.671 20.0113 149.12 20.2439 148.679 20.7092C148.251 21.1745 148.037 21.8234 148.037 22.6559V27.3575H145.686ZM160 27.5779C159.216 27.5779 158.574 27.4555 158.072 27.2106C157.57 26.9535 157.196 26.6168 156.951 26.2005C156.706 25.7842 156.584 25.3251 156.584 24.8231C156.584 23.9783 156.915 23.2926 157.576 22.7661C158.237 22.2397 159.229 21.9764 160.551 21.9764H162.865V21.756C162.865 21.1316 162.687 20.6725 162.332 20.3786C161.977 20.0848 161.537 19.9378 161.01 19.9378C160.533 19.9378 160.116 20.0542 159.761 20.2868C159.406 20.5072 159.186 20.8378 159.1 21.2785H156.804C156.866 20.6174 157.086 20.0419 157.465 19.5522C157.857 19.0624 158.359 18.689 158.971 18.4319C159.584 18.1625 160.269 18.0278 161.028 18.0278C162.326 18.0278 163.349 18.3523 164.095 19.0012C164.842 19.6501 165.216 20.5684 165.216 21.756V27.3575H163.214L162.994 25.8883C162.724 26.378 162.345 26.7821 161.855 27.1004C161.377 27.4188 160.759 27.5779 160 27.5779ZM160.533 25.7414C161.206 25.7414 161.726 25.521 162.094 25.0802C162.473 24.6394 162.712 24.0946 162.81 23.4457H160.808C160.184 23.4457 159.737 23.562 159.467 23.7946C159.198 24.015 159.063 24.2905 159.063 24.6211C159.063 24.9761 159.198 25.2516 159.467 25.4475C159.737 25.6434 160.092 25.7414 160.533 25.7414ZM169.651 27.3575L166.309 18.2482H168.77L171.084 25.1353L173.398 18.2482H175.859L172.498 27.3575H169.651ZM181.319 27.5779C180.401 27.5779 179.587 27.382 178.876 26.9902C178.166 26.5984 177.609 26.0475 177.205 25.3373C176.801 24.6272 176.599 23.8069 176.599 22.8763C176.599 21.9336 176.795 21.0949 177.187 20.3602C177.591 19.6256 178.142 19.0563 178.84 18.6522C179.55 18.236 180.382 18.0278 181.337 18.0278C182.231 18.0278 183.021 18.2237 183.707 18.6155C184.392 19.0073 184.925 19.546 185.304 20.2317C185.696 20.9051 185.892 21.6581 185.892 22.4907C185.892 22.6253 185.886 22.7661 185.874 22.9131C185.874 23.06 185.868 23.213 185.855 23.3722H178.932C178.981 24.0823 179.225 24.6394 179.666 25.0435C180.119 25.4475 180.664 25.6495 181.301 25.6495C181.778 25.6495 182.176 25.5455 182.494 25.3373C182.825 25.1169 183.07 24.8353 183.229 24.4925H185.617C185.445 25.068 185.158 25.5944 184.753 26.072C184.362 26.5372 183.872 26.9045 183.284 27.1739C182.709 27.4433 182.054 27.5779 181.319 27.5779ZM181.337 19.9378C180.762 19.9378 180.254 20.1031 179.813 20.4337C179.372 20.752 179.091 21.2418 178.968 21.903H183.505C183.468 21.303 183.247 20.8255 182.843 20.4704C182.439 20.1154 181.937 19.9378 181.337 19.9378ZM193.696 27.3575V17.183L191.584 17.6789V15.879L194.688 14.5016H196.139V27.3575H193.696ZM202.953 27.3575V18.2482H205.028L205.212 19.7909C205.493 19.2522 205.897 18.8237 206.424 18.5053C206.963 18.187 207.593 18.0278 208.316 18.0278C209.442 18.0278 210.317 18.3829 210.942 19.093C211.566 19.8032 211.878 20.8439 211.878 22.2152V27.3575H209.528V22.4356C209.528 21.652 209.368 21.052 209.05 20.6357C208.732 20.2194 208.236 20.0113 207.563 20.0113C206.901 20.0113 206.357 20.2439 205.928 20.7092C205.512 21.1745 205.304 21.8234 205.304 22.6559V27.3575H202.953ZM218.552 27.5779C217.634 27.5779 216.82 27.382 216.11 26.9902C215.4 26.5984 214.843 26.0475 214.439 25.3373C214.035 24.6272 213.833 23.8069 213.833 22.8763C213.833 21.9336 214.028 21.0949 214.42 20.3602C214.824 19.6256 215.375 19.0563 216.073 18.6522C216.783 18.236 217.616 18.0278 218.571 18.0278C219.465 18.0278 220.254 18.2237 220.94 18.6155C221.626 19.0073 222.158 19.546 222.538 20.2317C222.93 20.9051 223.126 21.6581 223.126 22.4907C223.126 22.6253 223.119 22.7661 223.107 22.9131C223.107 23.06 223.101 23.213 223.089 23.3722H216.165C216.214 24.0823 216.459 24.6394 216.9 25.0435C217.353 25.4475 217.897 25.6495 218.534 25.6495C219.012 25.6495 219.41 25.5455 219.728 25.3373C220.058 25.1169 220.303 24.8353 220.463 24.4925H222.85C222.679 25.068 222.391 25.5944 221.987 26.072C221.595 26.5372 221.105 26.9045 220.518 27.1739C219.942 27.4433 219.287 27.5779 218.552 27.5779ZM218.571 19.9378C217.995 19.9378 217.487 20.1031 217.047 20.4337C216.606 20.752 216.324 21.2418 216.202 21.903H220.738C220.701 21.303 220.481 20.8255 220.077 20.4704C219.673 20.1154 219.171 19.9378 218.571 19.9378ZM226.525 27.3575L223.862 18.2482H226.195L227.774 24.8047L229.611 18.2482H232.219L234.055 24.8047L235.653 18.2482H237.986L235.304 27.3575H232.862L230.915 20.5439L228.968 27.3575H226.525ZM248.216 27.5779C247.334 27.5779 246.539 27.3759 245.828 26.9719C245.131 26.5678 244.573 26.0107 244.157 25.3006C243.753 24.5782 243.551 23.7456 243.551 22.8029C243.551 21.8601 243.759 21.0337 244.176 20.3235C244.592 19.6011 245.149 19.0379 245.847 18.6339C246.557 18.2298 247.353 18.0278 248.234 18.0278C249.104 18.0278 249.887 18.2298 250.585 18.6339C251.295 19.0379 251.852 19.6011 252.256 20.3235C252.673 21.0337 252.881 21.8601 252.881 22.8029C252.881 23.7456 252.673 24.5782 252.256 25.3006C251.852 26.0107 251.295 26.5678 250.585 26.9719C249.875 27.3759 249.085 27.5779 248.216 27.5779ZM248.216 25.5393C248.828 25.5393 249.361 25.3128 249.814 24.8598C250.267 24.3946 250.493 23.7089 250.493 22.8029C250.493 21.8968 250.267 21.2173 249.814 20.7643C249.361 20.299 248.834 20.0664 248.234 20.0664C247.61 20.0664 247.071 20.299 246.618 20.7643C246.177 21.2173 245.957 21.8968 245.957 22.8029C245.957 23.7089 246.177 24.3946 246.618 24.8598C247.071 25.3128 247.604 25.5393 248.216 25.5393ZM254.983 27.3575V18.2482H257.076L257.297 19.9562C257.627 19.3685 258.074 18.9032 258.637 18.5604C259.213 18.2054 259.886 18.0278 260.658 18.0278V20.5072H259.996C259.482 20.5072 259.023 20.5868 258.619 20.7459C258.215 20.9051 257.897 21.1806 257.664 21.5724C257.444 21.9642 257.333 22.509 257.333 23.2069V27.3575H254.983ZM266.29 27.5779C265.433 27.5779 264.668 27.3698 263.995 26.9535C263.321 26.5372 262.789 25.9679 262.397 25.2455C262.005 24.5231 261.809 23.7028 261.809 22.7845C261.809 21.8662 262.005 21.052 262.397 20.3419C262.789 19.6195 263.321 19.0563 263.995 18.6522C264.668 18.236 265.433 18.0278 266.29 18.0278C266.976 18.0278 267.576 18.1564 268.09 18.4135C268.604 18.6706 269.021 19.0318 269.339 19.4971V14.1343H271.69V27.3575H269.596L269.339 26.0536C269.045 26.4576 268.653 26.8127 268.164 27.1188C267.686 27.4249 267.062 27.5779 266.29 27.5779ZM266.786 25.521C267.545 25.521 268.164 25.27 268.641 24.768C269.131 24.2538 269.376 23.5987 269.376 22.8029C269.376 22.007 269.131 21.3581 268.641 20.8561C268.164 20.3419 267.545 20.0848 266.786 20.0848C266.039 20.0848 265.421 20.3358 264.931 20.8378C264.441 21.3397 264.197 21.9887 264.197 22.7845C264.197 23.5804 264.441 24.2354 264.931 24.7496C265.421 25.2639 266.039 25.521 266.786 25.521ZM278.51 27.5779C277.591 27.5779 276.777 27.382 276.067 26.9902C275.357 26.5984 274.8 26.0475 274.396 25.3373C273.992 24.6272 273.79 23.8069 273.79 22.8763C273.79 21.9336 273.986 21.0949 274.377 20.3602C274.782 19.6256 275.332 19.0563 276.03 18.6522C276.741 18.236 277.573 18.0278 278.528 18.0278C279.422 18.0278 280.212 18.2237 280.897 18.6155C281.583 19.0073 282.116 19.546 282.495 20.2317C282.887 20.9051 283.083 21.6581 283.083 22.4907C283.083 22.6253 283.077 22.7661 283.064 22.9131C283.064 23.06 283.058 23.213 283.046 23.3722H276.122C276.171 24.0823 276.416 24.6394 276.857 25.0435C277.31 25.4475 277.855 25.6495 278.491 25.6495C278.969 25.6495 279.367 25.5455 279.685 25.3373C280.016 25.1169 280.261 24.8353 280.42 24.4925H282.807C282.636 25.068 282.348 25.5944 281.944 26.072C281.552 26.5372 281.063 26.9045 280.475 27.1739C279.899 27.4433 279.244 27.5779 278.51 27.5779ZM278.528 19.9378C277.953 19.9378 277.445 20.1031 277.004 20.4337C276.563 20.752 276.281 21.2418 276.159 21.903H280.695C280.658 21.303 280.438 20.8255 280.034 20.4704C279.63 20.1154 279.128 19.9378 278.528 19.9378ZM285.06 27.3575V18.2482H287.154L287.374 19.9562C287.705 19.3685 288.151 18.9032 288.715 18.5604C289.29 18.2054 289.964 18.0278 290.735 18.0278V20.5072H290.074C289.56 20.5072 289.1 20.5868 288.696 20.7459C288.292 20.9051 287.974 21.1806 287.741 21.5724C287.521 21.9642 287.411 22.509 287.411 23.2069V27.3575H285.06Z" fill="#202937"/>
<path d="M73.0617 84.0037C71.9647 84.0037 71.0036 83.7634 70.1783 83.2829C69.3635 82.8023 68.721 82.1389 68.2509 81.2927C67.7912 80.4361 67.5614 79.4489 67.5614 78.331C67.5614 77.2132 67.7912 76.2312 68.2509 75.385C68.721 74.5284 69.3635 73.8598 70.1783 73.3792C71.0036 72.8986 71.9647 72.6584 73.0617 72.6584C74.1482 72.6584 75.1041 72.8986 75.9294 73.3792C76.7547 73.8598 77.3972 74.5284 77.8568 75.385C78.3165 76.2312 78.5463 77.2132 78.5463 78.331C78.5463 79.4489 78.3165 80.4361 77.8568 81.2927C77.3972 82.1389 76.7547 82.8023 75.9294 83.2829C75.1041 83.7634 74.1482 84.0037 73.0617 84.0037ZM73.0617 82.2016C74.1064 82.2016 74.9369 81.8569 75.5533 81.1674C76.1801 80.4779 76.4935 79.5324 76.4935 78.331C76.4935 77.1296 76.1801 76.1842 75.5533 75.4947C74.9369 74.8052 74.1064 74.4605 73.0617 74.4605C72.017 74.4605 71.1812 74.8052 70.5544 75.4947C69.9276 76.1842 69.6142 77.1296 69.6142 78.331C69.6142 79.5324 69.9276 80.4779 70.5544 81.1674C71.1812 81.8569 72.017 82.2016 73.0617 82.2016ZM80.7926 83.8157V76.0432H82.5791L82.7671 77.5005C83.0492 76.9991 83.4305 76.6021 83.9111 76.3096C84.4021 76.0066 84.9766 75.8551 85.6348 75.8551V77.9706H85.0707C84.6319 77.9706 84.2401 78.0385 83.8954 78.1743C83.5506 78.3101 83.279 78.5452 83.0805 78.8795C82.8925 79.2138 82.7985 79.6787 82.7985 80.2742V83.8157H80.7926ZM90.9632 84.0037C90.2319 84.0037 89.579 83.8261 89.0044 83.4709C88.4298 83.1157 87.9754 82.6299 87.6411 82.0136C87.3068 81.3972 87.1396 80.6973 87.1396 79.9137C87.1396 79.1302 87.3068 78.4355 87.6411 77.8296C87.9754 77.2132 88.4298 76.7327 89.0044 76.3879C89.579 76.0327 90.2319 75.8551 90.9632 75.8551C91.5482 75.8551 92.0601 75.9648 92.4989 76.1842C92.9376 76.4036 93.2928 76.7118 93.5645 77.1087V72.533H95.5703V83.8157H93.7839L93.5645 82.7031C93.3137 83.0478 92.9794 83.3508 92.5616 83.612C92.1541 83.8731 91.6213 84.0037 90.9632 84.0037ZM91.3863 82.2486C92.034 82.2486 92.5616 82.0345 92.969 81.6061C93.3869 81.1674 93.5958 80.6085 93.5958 79.9294C93.5958 79.2504 93.3869 78.6967 92.969 78.2684C92.5616 77.8296 92.034 77.6102 91.3863 77.6102C90.749 77.6102 90.2214 77.8244 89.8036 78.2527C89.3857 78.681 89.1768 79.2347 89.1768 79.9137C89.1768 80.5928 89.3857 81.1517 89.8036 81.5905C90.2214 82.0292 90.749 82.2486 91.3863 82.2486ZM101.912 84.0037C101.128 84.0037 100.433 83.8366 99.8276 83.5023C99.2216 83.168 98.7463 82.6979 98.4016 82.0919C98.0568 81.486 97.8844 80.7861 97.8844 79.9921C97.8844 79.1877 98.0516 78.4721 98.3859 77.8453C98.7306 77.2184 99.2007 76.7327 99.7962 76.3879C100.402 76.0327 101.113 75.8551 101.927 75.8551C102.69 75.8551 103.364 76.0223 103.949 76.3566C104.534 76.6909 104.988 77.1505 105.312 77.7356C105.646 78.3101 105.814 78.9526 105.814 79.663C105.814 79.7779 105.808 79.8981 105.798 80.0234C105.798 80.1488 105.793 80.2794 105.782 80.4152H99.8746C99.9164 81.0211 100.125 81.4965 100.501 81.8412C100.888 82.186 101.353 82.3583 101.896 82.3583C102.303 82.3583 102.643 82.2695 102.915 82.0919C103.197 81.9039 103.406 81.6636 103.541 81.3711H105.579C105.432 81.8621 105.187 82.3113 104.842 82.7187C104.508 83.1157 104.09 83.4291 103.588 83.659C103.097 83.8888 102.539 84.0037 101.912 84.0037ZM101.927 77.4848C101.436 77.4848 101.003 77.6259 100.627 77.9079C100.251 78.1796 100.01 78.5974 99.9059 79.1616H103.776C103.745 78.6497 103.557 78.2422 103.212 77.9393C102.868 77.6363 102.439 77.4848 101.927 77.4848ZM108.023 83.8157V76.0432H109.809L109.997 77.5005C110.28 76.9991 110.661 76.6021 111.141 76.3096C111.632 76.0066 112.207 75.8551 112.865 75.8551V77.9706H112.301C111.862 77.9706 111.47 78.0385 111.126 78.1743C110.781 78.3101 110.509 78.5452 110.311 78.8795C110.123 79.2138 110.029 79.6787 110.029 80.2742V83.8157H108.023ZM119.062 83.8157V72.8464H121.068V83.8157H119.062ZM123.716 83.8157V72.8464H127.461C128.746 72.8464 129.801 73.0762 130.627 73.5359C131.462 73.9851 132.079 74.6224 132.476 75.4477C132.883 76.2625 133.087 77.2237 133.087 78.331C133.087 79.4384 132.883 80.4048 132.476 81.2301C132.079 82.0449 131.462 82.6822 130.627 83.1418C129.801 83.5911 128.746 83.8157 127.461 83.8157H123.716ZM125.722 82.0919H127.367C128.286 82.0919 129.013 81.9457 129.545 81.6532C130.078 81.3502 130.459 80.9219 130.689 80.3682C130.919 79.8041 131.034 79.125 131.034 78.331C131.034 77.5475 130.919 76.8737 130.689 76.3096C130.459 75.7454 130.078 75.3119 129.545 75.0089C129.013 74.706 128.286 74.5545 127.367 74.5545H125.722V82.0919ZM140.764 83.8157L141.343 81.0734H139.087V79.2713H141.735L142.221 76.9834H139.917V75.1813H142.613L143.192 72.486H145.073L144.493 75.1813H147.47L148.05 72.486H149.931L149.367 75.1813H151.404V76.9834H148.975L148.489 79.2713H150.573V81.0734H148.097L147.517 83.8157H145.621L146.217 81.0734H143.239L142.66 83.8157H140.764ZM143.616 79.2713H146.593L147.094 76.9834H144.117L143.616 79.2713ZM154.831 83.8157V75.1343L153.028 75.5574V74.0217L155.677 72.8464H156.915V83.8157H154.831ZM159.298 83.8157V82.3583C159.966 81.8046 160.614 81.2562 161.241 80.7129C161.878 80.1697 162.442 79.6317 162.933 79.0989C163.435 78.5661 163.832 78.049 164.124 77.5475C164.427 77.0356 164.579 76.5394 164.579 76.0588C164.579 75.6096 164.453 75.2126 164.202 74.8679C163.962 74.5231 163.56 74.3508 162.996 74.3508C162.421 74.3508 161.988 74.5388 161.695 74.9149C161.403 75.291 161.256 75.7454 161.256 76.2782H159.313C159.334 75.4738 159.512 74.8052 159.846 74.2724C160.18 73.7292 160.624 73.327 161.178 73.0658C161.732 72.7942 162.353 72.6584 163.043 72.6584C164.161 72.6584 165.028 72.9665 165.644 73.5829C166.271 74.1888 166.584 74.9776 166.584 75.9491C166.584 76.5551 166.443 77.1453 166.161 77.7199C165.89 78.2945 165.529 78.8482 165.08 79.381C164.631 79.9137 164.145 80.4152 163.623 80.8853C163.1 81.345 162.594 81.7733 162.103 82.1703H166.851V83.8157H159.298ZM172.627 84.0037C171.906 84.0037 171.253 83.8784 170.668 83.6276C170.083 83.3665 169.613 82.9695 169.258 82.4367C168.903 81.9039 168.715 81.2353 168.694 80.4309H170.668C170.679 80.9637 170.851 81.4129 171.185 81.7785C171.53 82.1337 172.011 82.3113 172.627 82.3113C173.212 82.3113 173.661 82.1494 173.975 81.8255C174.288 81.5017 174.445 81.0942 174.445 80.6032C174.445 80.0287 174.236 79.5951 173.818 79.3026C173.411 78.9996 172.883 78.8482 172.235 78.8482H171.421V77.2028H172.251C172.784 77.2028 173.228 77.0774 173.583 76.8267C173.938 76.576 174.116 76.2051 174.116 75.7141C174.116 75.3067 173.98 74.9828 173.708 74.7425C173.447 74.4918 173.082 74.3664 172.612 74.3664C172.1 74.3664 171.697 74.5179 171.405 74.8209C171.123 75.1238 170.966 75.4947 170.935 75.9335H168.976C169.018 74.9201 169.368 74.1209 170.026 73.5359C170.694 72.9509 171.556 72.6584 172.612 72.6584C173.364 72.6584 173.996 72.7942 174.508 73.0658C175.03 73.327 175.422 73.6769 175.683 74.1157C175.955 74.5545 176.09 75.0403 176.09 75.573C176.09 76.1894 175.918 76.7118 175.573 77.1401C175.239 77.558 174.821 77.84 174.32 77.9863C174.936 78.1117 175.437 78.4146 175.824 78.8952C176.21 79.3653 176.404 79.9608 176.404 80.6816C176.404 81.2875 176.257 81.8412 175.965 82.3427C175.672 82.8441 175.244 83.2463 174.68 83.5493C174.126 83.8522 173.442 84.0037 172.627 84.0037ZM179.949 83.8157V75.1343L178.147 75.5574V74.0217L180.795 72.8464H182.033V83.8157H179.949ZM185.873 83.8157V75.1343L184.071 75.5574V74.0217L186.72 72.8464H187.958V83.8157H185.873ZM194.195 84.0037C193.475 84.0037 192.822 83.8784 192.237 83.6276C191.652 83.3665 191.181 82.9695 190.826 82.4367C190.471 81.9039 190.283 81.2353 190.262 80.4309H192.237C192.247 80.9637 192.419 81.4129 192.754 81.7785C193.098 82.1337 193.579 82.3113 194.195 82.3113C194.78 82.3113 195.23 82.1494 195.543 81.8255C195.856 81.5017 196.013 81.0942 196.013 80.6032C196.013 80.0287 195.804 79.5951 195.386 79.3026C194.979 78.9996 194.451 78.8482 193.804 78.8482H192.989V77.2028H193.819C194.352 77.2028 194.796 77.0774 195.151 76.8267C195.506 76.576 195.684 76.2051 195.684 75.7141C195.684 75.3067 195.548 74.9828 195.277 74.7425C195.015 74.4918 194.65 74.3664 194.18 74.3664C193.668 74.3664 193.266 74.5179 192.973 74.8209C192.691 75.1238 192.534 75.4947 192.503 75.9335H190.544C190.586 74.9201 190.936 74.1209 191.594 73.5359C192.263 72.9509 193.125 72.6584 194.18 72.6584C194.932 72.6584 195.564 72.7942 196.076 73.0658C196.598 73.327 196.99 73.6769 197.251 74.1157C197.523 74.5545 197.659 75.0403 197.659 75.573C197.659 76.1894 197.486 76.7118 197.141 77.1401C196.807 77.558 196.389 77.84 195.888 77.9863C196.504 78.1117 197.006 78.4146 197.392 78.8952C197.779 79.3653 197.972 79.9608 197.972 80.6816C197.972 81.2875 197.826 81.8412 197.533 82.3427C197.241 82.8441 196.812 83.2463 196.248 83.5493C195.695 83.8522 195.01 84.0037 194.195 84.0037Z" fill="#354356"/>
<path d="M67.8946 108.86V98.6224H71.4779C72.2775 98.6224 72.9405 98.7589 73.467 99.0319C73.9935 99.2951 74.3836 99.6608 74.6371 100.129C74.9003 100.587 75.032 101.109 75.032 101.694C75.032 102.25 74.9052 102.761 74.6517 103.229C74.4079 103.688 74.0228 104.053 73.4963 104.326C72.9697 104.599 72.297 104.736 71.4779 104.736H69.4449V108.86H67.8946ZM69.4449 103.463H71.4048C72.1361 103.463 72.6577 103.307 72.9697 102.995C73.2915 102.674 73.4524 102.24 73.4524 101.694C73.4524 101.128 73.2915 100.689 72.9697 100.377C72.6577 100.056 72.1361 99.8948 71.4048 99.8948H69.4449V103.463ZM77.9057 100.231C77.6132 100.231 77.3695 100.143 77.1745 99.9679C76.9892 99.7827 76.8966 99.5535 76.8966 99.2805C76.8966 99.0075 76.9892 98.7832 77.1745 98.6077C77.3695 98.4225 77.6132 98.3298 77.9057 98.3298C78.1983 98.3298 78.4371 98.4225 78.6224 98.6077C78.8174 98.7832 78.9149 99.0075 78.9149 99.2805C78.9149 99.5535 78.8174 99.7827 78.6224 99.9679C78.4371 100.143 78.1983 100.231 77.9057 100.231ZM77.1306 108.86V101.606H78.6809V108.86H77.1306ZM84.6869 109.036C83.9751 109.036 83.3364 108.875 82.7709 108.553C82.2151 108.231 81.7763 107.788 81.4546 107.222C81.1426 106.647 80.9866 105.984 80.9866 105.233C80.9866 104.482 81.1426 103.824 81.4546 103.259C81.7763 102.683 82.2151 102.235 82.7709 101.913C83.3364 101.591 83.9751 101.43 84.6869 101.43C85.5839 101.43 86.3347 101.665 86.9392 102.133C87.5535 102.601 87.9484 103.234 88.1239 104.034H86.5004C86.4029 103.634 86.1884 103.322 85.8569 103.098C85.5254 102.874 85.1354 102.761 84.6869 102.761C84.3066 102.761 83.9556 102.859 83.6338 103.054C83.312 103.239 83.0537 103.517 82.8586 103.888C82.6636 104.248 82.5661 104.697 82.5661 105.233C82.5661 105.769 82.6636 106.223 82.8586 106.593C83.0537 106.954 83.312 107.232 83.6338 107.427C83.9556 107.622 84.3066 107.72 84.6869 107.72C85.1354 107.72 85.5254 107.607 85.8569 107.383C86.1884 107.159 86.4029 106.842 86.5004 106.432H88.1239C87.9581 107.213 87.5681 107.841 86.9538 108.319C86.3396 108.797 85.5839 109.036 84.6869 109.036ZM90.3276 108.86V98.3298H91.8779V104.604L94.6568 101.606H96.5143L93.4283 104.897L96.9677 108.86H95.0078L91.8779 105.145V108.86H90.3276ZM101.368 109.036C100.49 109.036 99.798 108.763 99.2909 108.217C98.7937 107.671 98.545 106.857 98.545 105.774V101.606H100.095V105.613C100.095 107.018 100.671 107.72 101.821 107.72C102.396 107.72 102.869 107.515 103.24 107.105C103.61 106.696 103.796 106.111 103.796 105.35V101.606H105.346V108.86H103.971L103.854 107.588C103.63 108.036 103.298 108.392 102.86 108.656C102.431 108.909 101.933 109.036 101.368 109.036ZM107.841 112.078V101.606H109.23L109.391 102.732C109.625 102.391 109.947 102.089 110.356 101.825C110.766 101.562 111.292 101.43 111.936 101.43C112.638 101.43 113.257 101.596 113.793 101.928C114.329 102.259 114.749 102.713 115.051 103.288C115.363 103.863 115.519 104.517 115.519 105.248C115.519 105.979 115.363 106.632 115.051 107.208C114.749 107.773 114.329 108.222 113.793 108.553C113.257 108.875 112.633 109.036 111.921 109.036C111.356 109.036 110.853 108.924 110.415 108.699C109.986 108.475 109.644 108.158 109.391 107.749V112.078H107.841ZM111.658 107.69C112.321 107.69 112.867 107.466 113.296 107.018C113.725 106.559 113.939 105.964 113.939 105.233C113.939 104.755 113.842 104.331 113.647 103.961C113.452 103.59 113.184 103.303 112.842 103.098C112.501 102.883 112.106 102.776 111.658 102.776C110.995 102.776 110.449 103.005 110.02 103.463C109.6 103.922 109.391 104.512 109.391 105.233C109.391 105.964 109.6 106.559 110.02 107.018C110.449 107.466 110.995 107.69 111.658 107.69ZM124.383 109.036C123.768 109.036 123.261 108.933 122.862 108.729C122.462 108.524 122.164 108.256 121.969 107.924C121.774 107.583 121.677 107.213 121.677 106.813C121.677 106.111 121.95 105.555 122.496 105.145C123.042 104.736 123.822 104.531 124.836 104.531H126.737V104.4C126.737 103.834 126.581 103.41 126.269 103.127C125.967 102.844 125.572 102.703 125.085 102.703C124.656 102.703 124.28 102.81 123.958 103.025C123.646 103.229 123.456 103.537 123.388 103.946H121.838C121.886 103.42 122.062 102.971 122.364 102.601C122.676 102.22 123.066 101.933 123.534 101.738C124.012 101.533 124.534 101.43 125.099 101.43C126.113 101.43 126.898 101.699 127.454 102.235C128.01 102.761 128.288 103.483 128.288 104.4V108.86H126.942L126.81 107.617C126.606 108.017 126.308 108.353 125.918 108.626C125.528 108.899 125.016 109.036 124.383 109.036ZM124.69 107.778C125.109 107.778 125.46 107.681 125.743 107.486C126.035 107.281 126.26 107.013 126.416 106.681C126.581 106.35 126.684 105.984 126.723 105.584H124.997C124.383 105.584 123.944 105.691 123.681 105.906C123.427 106.12 123.3 106.389 123.3 106.71C123.3 107.042 123.422 107.305 123.666 107.5C123.919 107.685 124.261 107.778 124.69 107.778ZM133.517 108.86C132.805 108.86 132.24 108.69 131.82 108.348C131.401 107.997 131.191 107.378 131.191 106.491V102.908H129.948V101.606H131.191L131.382 99.7632H132.742V101.606H134.789V102.908H132.742V106.491C132.742 106.891 132.825 107.169 132.99 107.325C133.166 107.471 133.463 107.544 133.883 107.544H134.716V108.86H133.517ZM137.525 108.948C137.232 108.948 136.988 108.855 136.793 108.67C136.608 108.475 136.515 108.246 136.515 107.983C136.515 107.71 136.608 107.481 136.793 107.295C136.988 107.1 137.232 107.003 137.525 107.003C137.817 107.003 138.056 107.1 138.241 107.295C138.427 107.481 138.519 107.71 138.519 107.983C138.519 108.246 138.427 108.475 138.241 108.67C138.056 108.855 137.817 108.948 137.525 108.948ZM137.525 103.376C137.232 103.376 136.988 103.283 136.793 103.098C136.608 102.903 136.515 102.674 136.515 102.41C136.515 102.137 136.608 101.908 136.793 101.723C136.988 101.528 137.232 101.43 137.525 101.43C137.817 101.43 138.056 101.528 138.241 101.723C138.427 101.908 138.519 102.137 138.519 102.41C138.519 102.674 138.427 102.903 138.241 103.098C138.056 103.283 137.817 103.376 137.525 103.376Z" fill="#6A7079"/>
<path d="M148.349 109.036C147.676 109.036 147.101 108.904 146.623 108.641C146.146 108.378 145.77 108.027 145.497 107.588C145.234 107.149 145.073 106.671 145.015 106.155H146.462C146.55 106.662 146.76 107.052 147.091 107.325C147.423 107.598 147.847 107.734 148.364 107.734C149.076 107.734 149.661 107.403 150.119 106.74C150.587 106.067 150.836 105.038 150.865 103.654C150.631 104.083 150.265 104.448 149.768 104.751C149.28 105.053 148.715 105.204 148.071 105.204C147.496 105.204 146.955 105.067 146.448 104.794C145.941 104.521 145.531 104.141 145.219 103.654C144.907 103.156 144.751 102.571 144.751 101.899C144.751 101.304 144.898 100.743 145.19 100.217C145.483 99.69 145.892 99.2659 146.419 98.9441C146.955 98.6126 147.589 98.4469 148.32 98.4469C149.071 98.4469 149.705 98.5882 150.221 98.871C150.738 99.1538 151.152 99.5292 151.464 99.9972C151.776 100.465 152.001 100.992 152.137 101.577C152.284 102.162 152.357 102.761 152.357 103.376C152.357 104.507 152.196 105.496 151.874 106.345C151.562 107.193 151.109 107.856 150.514 108.334C149.919 108.802 149.197 109.036 148.349 109.036ZM148.422 103.873C148.832 103.873 149.197 103.78 149.519 103.595C149.841 103.41 150.095 103.166 150.28 102.864C150.475 102.552 150.572 102.211 150.572 101.84C150.572 101.44 150.475 101.089 150.28 100.787C150.095 100.475 149.836 100.231 149.505 100.056C149.183 99.8802 148.817 99.7924 148.408 99.7924C147.998 99.7924 147.633 99.8802 147.311 100.056C146.989 100.231 146.731 100.475 146.536 100.787C146.35 101.089 146.258 101.435 146.258 101.825C146.258 102.449 146.462 102.947 146.872 103.317C147.282 103.688 147.798 103.873 148.422 103.873ZM155.231 108.948C154.939 108.948 154.695 108.855 154.5 108.67C154.315 108.475 154.222 108.246 154.222 107.983C154.222 107.71 154.315 107.481 154.5 107.295C154.695 107.1 154.939 107.003 155.231 107.003C155.524 107.003 155.763 107.1 155.948 107.295C156.133 107.481 156.226 107.71 156.226 107.983C156.226 108.246 156.133 108.475 155.948 108.67C155.763 108.855 155.524 108.948 155.231 108.948ZM155.231 103.376C154.939 103.376 154.695 103.283 154.5 103.098C154.315 102.903 154.222 102.674 154.222 102.41C154.222 102.137 154.315 101.908 154.5 101.723C154.695 101.528 154.939 101.43 155.231 101.43C155.524 101.43 155.763 101.528 155.948 101.723C156.133 101.908 156.226 102.137 156.226 102.41C156.226 102.674 156.133 102.903 155.948 103.098C155.763 103.283 155.524 103.376 155.231 103.376ZM162.507 109.036C161.58 109.036 160.781 108.816 160.108 108.378C159.445 107.929 158.933 107.31 158.572 106.52C158.221 105.721 158.046 104.794 158.046 103.741C158.046 102.688 158.221 101.767 158.572 100.977C158.933 100.178 159.445 99.5584 160.108 99.1196C160.781 98.6711 161.58 98.4469 162.507 98.4469C163.433 98.4469 164.228 98.6711 164.891 99.1196C165.554 99.5584 166.061 100.178 166.412 100.977C166.773 101.767 166.953 102.688 166.953 103.741C166.953 104.794 166.773 105.721 166.412 106.52C166.061 107.31 165.554 107.929 164.891 108.378C164.228 108.816 163.433 109.036 162.507 109.036ZM162.507 107.646C163.063 107.646 163.555 107.49 163.984 107.178C164.423 106.866 164.764 106.418 165.008 105.833C165.251 105.248 165.373 104.551 165.373 103.741C165.373 102.932 165.251 102.235 165.008 101.65C164.764 101.065 164.423 100.616 163.984 100.304C163.555 99.9923 163.063 99.8363 162.507 99.8363C161.941 99.8363 161.444 99.9923 161.015 100.304C160.586 100.616 160.25 101.065 160.006 101.65C159.762 102.235 159.64 102.932 159.64 103.741C159.64 104.551 159.762 105.248 160.006 105.833C160.25 106.418 160.586 106.866 161.015 107.178C161.444 107.49 161.941 107.646 162.507 107.646ZM173.298 109.036C172.372 109.036 171.573 108.816 170.9 108.378C170.237 107.929 169.725 107.31 169.364 106.52C169.013 105.721 168.838 104.794 168.838 103.741C168.838 102.688 169.013 101.767 169.364 100.977C169.725 100.178 170.237 99.5584 170.9 99.1196C171.573 98.6711 172.372 98.4469 173.298 98.4469C174.225 98.4469 175.019 98.6711 175.682 99.1196C176.346 99.5584 176.853 100.178 177.204 100.977C177.564 101.767 177.745 102.688 177.745 103.741C177.745 104.794 177.564 105.721 177.204 106.52C176.853 107.31 176.346 107.929 175.682 108.378C175.019 108.816 174.225 109.036 173.298 109.036ZM173.298 107.646C173.854 107.646 174.347 107.49 174.776 107.178C175.214 106.866 175.556 106.418 175.799 105.833C176.043 105.248 176.165 104.551 176.165 103.741C176.165 102.932 176.043 102.235 175.799 101.65C175.556 101.065 175.214 100.616 174.776 100.304C174.347 99.9923 173.854 99.8363 173.298 99.8363C172.733 99.8363 172.236 99.9923 171.807 100.304C171.378 100.616 171.041 101.065 170.797 101.65C170.554 102.235 170.432 102.932 170.432 103.741C170.432 104.551 170.554 105.248 170.797 105.833C171.041 106.418 171.378 106.866 171.807 107.178C172.236 107.49 172.733 107.646 173.298 107.646ZM184.202 108.86V98.6224H187.786C188.585 98.6224 189.248 98.7589 189.775 99.0319C190.301 99.2951 190.691 99.6608 190.945 100.129C191.208 100.587 191.34 101.109 191.34 101.694C191.34 102.25 191.213 102.761 190.959 103.229C190.716 103.688 190.331 104.053 189.804 104.326C189.278 104.599 188.605 104.736 187.786 104.736H185.753V108.86H184.202ZM185.753 103.463H187.713C188.444 103.463 188.965 103.307 189.278 102.995C189.599 102.674 189.76 102.24 189.76 101.694C189.76 101.128 189.599 100.689 189.278 100.377C188.965 100.056 188.444 99.8948 187.713 99.8948H185.753V103.463ZM193.394 108.86V98.6224H195.223L198.689 105.438L202.141 98.6224H203.969V108.86H202.419V101.299L199.289 107.398H198.089L194.945 101.313V108.86H193.394Z" fill="#D8B448"/>
<line x1="66.8562" y1="134.142" x2="329.082" y2="134.142" stroke="#D4DCE7" stroke-width="1.04469" stroke-dasharray="5.22 5.22"/>
<path d="M69.7866 171.642C69.3478 171.642 68.9299 171.59 68.5329 171.485C68.1464 171.381 67.786 171.245 67.4517 171.078V169.087C67.7755 169.317 68.0837 169.511 68.3762 169.667C68.6792 169.814 68.9926 169.887 69.3165 169.887C69.8388 169.887 70.2358 169.756 70.5074 169.495C70.7895 169.234 70.9305 168.805 70.9305 168.21V161.017H73.0617V168.32C73.0617 168.978 72.9624 169.521 72.7639 169.949C72.5759 170.378 72.3252 170.717 72.0118 170.968C71.6984 171.219 71.3484 171.391 70.9618 171.485C70.5753 171.59 70.1835 171.642 69.7866 171.642ZM79.3147 171.704C78.0193 171.704 77.0478 171.344 76.4 170.623C75.7523 169.902 75.4285 168.863 75.4285 167.505C75.4285 166.053 75.7576 164.997 76.4157 164.339C77.0843 163.681 78.0454 163.352 79.2991 163.352C80.1766 163.352 80.9079 163.509 81.4929 163.822C82.0779 164.125 82.5115 164.585 82.7936 165.201C83.0861 165.818 83.2323 166.585 83.2323 167.505C83.2323 168.863 82.8928 169.902 82.2138 170.623C81.5452 171.344 80.5788 171.704 79.3147 171.704ZM79.3147 170.075C79.7744 170.075 80.1453 169.97 80.4273 169.761C80.7198 169.552 80.934 169.26 81.0698 168.884C81.2056 168.497 81.2735 168.038 81.2735 167.505C81.2735 166.909 81.2004 166.423 81.0541 166.047C80.9183 165.671 80.7042 165.394 80.4117 165.217C80.1296 165.039 79.764 164.95 79.3147 164.95C78.8551 164.95 78.4842 165.044 78.2021 165.233C77.9201 165.421 77.7111 165.703 77.5753 166.079C77.45 166.455 77.3873 166.93 77.3873 167.505C77.3873 168.341 77.5388 168.978 77.8417 169.417C78.1447 169.855 78.6357 170.075 79.3147 170.075ZM85.5252 171.469V160.343H87.5153V164.935L86.7788 164.465C87.1967 164.141 87.672 163.88 88.2048 163.681C88.7376 163.483 89.2704 163.383 89.8032 163.383C90.3987 163.383 90.9158 163.483 91.3546 163.681C91.7933 163.88 92.1329 164.204 92.3731 164.653C92.6239 165.092 92.7492 165.687 92.7492 166.439V171.469H90.7591V166.784C90.7591 166.199 90.6181 165.765 90.336 165.483C90.0644 165.191 89.6517 165.044 89.098 165.044C88.816 165.044 88.5339 165.086 88.2518 165.17C87.9698 165.253 87.7243 165.358 87.5153 165.483L87.4997 171.469H85.5252ZM95.4589 164.23C95.6783 164.125 95.9395 164.021 96.2425 163.916C96.5454 163.812 96.8745 163.723 97.2297 163.65C97.5849 163.566 97.9401 163.504 98.2953 163.462C98.6609 163.41 99.0057 163.383 99.3295 163.383C100.061 163.383 100.667 163.483 101.147 163.681C101.638 163.869 102.004 164.172 102.244 164.59C102.495 164.997 102.62 165.536 102.62 166.204V171.469H100.646V166.549C100.646 166.35 100.62 166.162 100.567 165.985C100.515 165.797 100.426 165.635 100.301 165.499C100.176 165.353 100.003 165.243 99.784 165.17C99.5646 165.086 99.2825 165.044 98.9378 165.044C98.6766 165.044 98.4102 165.071 98.1386 165.123C97.867 165.175 97.6371 165.243 97.4491 165.327V171.469H95.4589V164.23ZM113.881 171.704C113.338 171.704 112.821 171.642 112.33 171.516C111.839 171.391 111.405 171.172 111.029 170.858C110.653 170.545 110.356 170.111 110.136 169.558C109.927 169.004 109.823 168.299 109.823 167.442C109.823 166.178 110.131 165.18 110.747 164.449C111.364 163.718 112.299 163.352 113.552 163.352C113.73 163.352 113.96 163.373 114.242 163.415C114.524 163.457 114.811 163.53 115.104 163.634C115.407 163.728 115.668 163.88 115.887 164.089L115.448 164.715V160.296H117.407V169.62C117.407 169.975 117.303 170.284 117.094 170.545C116.895 170.806 116.624 171.025 116.279 171.203C115.934 171.37 115.553 171.495 115.135 171.579C114.717 171.663 114.299 171.704 113.881 171.704ZM113.944 170.012C114.372 170.012 114.728 169.96 115.01 169.855C115.302 169.751 115.448 169.599 115.448 169.401V165.389C115.219 165.253 114.973 165.154 114.712 165.092C114.451 165.029 114.2 164.997 113.96 164.997C113.479 164.997 113.082 165.086 112.769 165.264C112.455 165.431 112.22 165.703 112.064 166.079C111.907 166.444 111.829 166.914 111.829 167.489C111.829 167.991 111.891 168.429 112.017 168.805C112.142 169.181 112.356 169.479 112.659 169.699C112.972 169.908 113.401 170.012 113.944 170.012ZM123.582 171.704C122.286 171.704 121.315 171.344 120.667 170.623C120.019 169.902 119.695 168.863 119.695 167.505C119.695 166.053 120.024 164.997 120.683 164.339C121.351 163.681 122.312 163.352 123.566 163.352C124.443 163.352 125.175 163.509 125.76 163.822C126.345 164.125 126.778 164.585 127.06 165.201C127.353 165.818 127.499 166.585 127.499 167.505C127.499 168.863 127.16 169.902 126.481 170.623C125.812 171.344 124.846 171.704 123.582 171.704ZM123.582 170.075C124.041 170.075 124.412 169.97 124.694 169.761C124.987 169.552 125.201 169.26 125.337 168.884C125.472 168.497 125.54 168.038 125.54 167.505C125.54 166.909 125.467 166.423 125.321 166.047C125.185 165.671 124.971 165.394 124.678 165.217C124.396 165.039 124.031 164.95 123.582 164.95C123.122 164.95 122.751 165.044 122.469 165.233C122.187 165.421 121.978 165.703 121.842 166.079C121.717 166.455 121.654 166.93 121.654 167.505C121.654 168.341 121.806 168.978 122.109 169.417C122.411 169.855 122.902 170.075 123.582 170.075ZM133.271 171.704C132.487 171.704 131.803 171.548 131.218 171.234C130.633 170.91 130.179 170.44 129.855 169.824C129.531 169.208 129.369 168.466 129.369 167.599C129.369 166.22 129.698 165.17 130.356 164.449C131.025 163.718 131.96 163.352 133.161 163.352C134.028 163.352 134.723 163.54 135.245 163.916C135.778 164.292 136.165 164.83 136.405 165.53C136.656 166.22 136.776 167.045 136.765 168.006H130.654L130.497 166.659H135.183L134.807 167.223C134.786 166.397 134.639 165.807 134.368 165.452C134.107 165.086 133.683 164.903 133.098 164.903C132.743 164.903 132.43 164.987 132.158 165.154C131.897 165.311 131.693 165.577 131.547 165.953C131.411 166.329 131.343 166.847 131.343 167.505C131.343 168.32 131.537 168.946 131.923 169.385C132.31 169.814 132.9 170.028 133.694 170.028C134.018 170.028 134.326 169.996 134.618 169.934C134.921 169.861 135.198 169.777 135.449 169.683C135.71 169.589 135.93 169.5 136.107 169.417V171.172C135.742 171.328 135.324 171.454 134.854 171.548C134.394 171.652 133.866 171.704 133.271 171.704Z" fill="#354356"/>
<rect x="66.856" y="186.9" width="40.743" height="20.8939" rx="4.17877" fill="#ECF0F8"/>
<path fill-rule="evenodd" clip-rule="evenodd" d="M81.6557 193.69C81.6557 193.741 81.6526 193.792 81.6465 193.841C83.7539 194.379 85.3122 196.29 85.3122 198.565V199.175C85.3122 199.511 85.0393 199.784 84.7028 199.784H76.1711C75.8345 199.784 75.5617 199.511 75.5617 199.175V198.565C75.5617 196.29 77.12 194.379 79.2274 193.841C79.2213 193.792 79.2181 193.741 79.2181 193.69C79.2181 193.017 79.7638 192.471 80.4369 192.471C81.1101 192.471 81.6557 193.017 81.6557 193.69Z" fill="#EDCC3E"/>
<path d="M74.9523 201.003C74.6157 201.003 74.3429 201.276 74.3429 201.612C74.3429 201.949 74.6157 202.222 74.9523 202.222H85.9216C86.2581 202.222 86.531 201.949 86.531 201.612C86.531 201.276 86.2581 201.003 85.9216 201.003H74.9523Z" fill="#EDCC3E"/>
<path d="M93.6142 202.9V201.452C93.9457 201.237 94.3113 200.979 94.7111 200.676C95.1206 200.364 95.5204 200.023 95.9104 199.653C96.3102 199.272 96.6709 198.882 96.9927 198.483C97.3242 198.073 97.5875 197.668 97.7825 197.269C97.9873 196.869 98.0896 196.489 98.0896 196.128C98.0896 195.806 98.0214 195.533 97.8849 195.309C97.7484 195.075 97.5387 194.894 97.256 194.768C96.983 194.641 96.6417 194.578 96.2322 194.578C95.7251 194.578 95.2669 194.68 94.8574 194.885C94.4478 195.089 94.0627 195.328 93.7019 195.601V193.832C94.0724 193.607 94.5063 193.407 95.0036 193.232C95.5009 193.056 96.0859 192.969 96.7587 192.969C97.4997 192.969 98.114 193.095 98.6015 193.349C99.0988 193.593 99.4693 193.934 99.7131 194.373C99.9568 194.812 100.079 195.319 100.079 195.894C100.079 196.352 99.9812 196.796 99.7862 197.225C99.5912 197.654 99.3328 198.068 99.0111 198.468C98.699 198.868 98.348 199.248 97.958 199.609C97.5777 199.96 97.1926 200.291 96.8026 200.603C96.4126 200.906 96.0518 201.179 95.7203 201.422L95.2961 201.057H100.254V202.9H93.6142Z" fill="#354356"/>
<rect x="113.867" y="186.9" width="40.743" height="20.8939" rx="4.17877" fill="#ECF0F8"/>
<path fill-rule="evenodd" clip-rule="evenodd" d="M123.182 191.252C122.846 191.252 122.573 191.525 122.573 191.862C122.573 193.194 123.102 194.471 124.044 195.413L126.839 198.208V202.221H125.011C124.674 202.221 124.401 202.494 124.401 202.831C124.401 203.167 124.674 203.44 125.011 203.44H129.886C130.222 203.44 130.495 203.167 130.495 202.831C130.495 202.494 130.222 202.221 129.886 202.221H128.058V198.208L130.852 195.413C131.794 194.471 132.323 193.194 132.323 191.862C132.323 191.525 132.051 191.252 131.714 191.252H123.182Z" fill="#EDCC3E"/>
<path d="M144.512 202.9V195.089L142.611 196.216V194.358L144.673 193.144H146.501V202.9H144.512Z" fill="#354356"/>
<g filter="url(#filter0_d_1738_18829)">
<rect x="66.8562" y="237.045" width="262.226" height="39.8177" rx="8.65603" fill="#6894D9" shape-rendering="crispEdges"/>
<path d="M128.682 261.596C127.825 261.596 127.094 261.432 126.488 261.103C125.891 260.774 125.436 260.281 125.125 259.623C124.813 258.965 124.657 258.134 124.657 257.13C124.657 255.65 124.999 254.533 125.683 253.78C126.376 253.027 127.375 252.65 128.682 252.65C129.548 252.65 130.279 252.815 130.877 253.144C131.474 253.473 131.928 253.97 132.24 254.637C132.56 255.295 132.72 256.126 132.72 257.13C132.72 258.601 132.374 259.714 131.682 260.467C130.998 261.22 129.998 261.596 128.682 261.596ZM128.682 260.363C129.262 260.363 129.738 260.255 130.111 260.038C130.492 259.813 130.773 259.463 130.955 258.987C131.145 258.51 131.24 257.887 131.24 257.117C131.24 256.355 131.145 255.741 130.955 255.273C130.773 254.797 130.492 254.451 130.111 254.234C129.738 254.009 129.262 253.897 128.682 253.897C128.111 253.897 127.635 254.009 127.254 254.234C126.873 254.459 126.588 254.81 126.397 255.286C126.215 255.753 126.125 256.368 126.125 257.13C126.125 257.892 126.215 258.51 126.397 258.987C126.588 259.463 126.873 259.813 127.254 260.038C127.635 260.255 128.111 260.363 128.682 260.363ZM134.849 261.453V252.793H138.692C139.592 252.793 140.28 253.014 140.757 253.455C141.241 253.888 141.484 254.537 141.484 255.403C141.484 255.853 141.393 256.269 141.211 256.649C141.029 257.03 140.765 257.342 140.419 257.584C140.073 257.827 139.662 257.965 139.185 258L139.341 257.558L141.912 261.453H140.133L137.731 257.571L138.393 258.182H136.277V261.453H134.849ZM136.277 257.013H138.29C138.861 257.013 139.285 256.887 139.562 256.636C139.848 256.385 139.99 256.005 139.99 255.494C139.99 255.018 139.878 254.65 139.653 254.39C139.437 254.13 139.06 254.001 138.523 254.001H136.277V257.013ZM143.917 261.453V252.793H146.955C148.357 252.793 149.4 253.157 150.084 253.884C150.768 254.611 151.11 255.689 151.11 257.117C151.11 258.545 150.768 259.627 150.084 260.363C149.4 261.09 148.357 261.453 146.955 261.453H143.917ZM145.345 260.246H146.812C147.781 260.246 148.496 259.999 148.954 259.506C149.413 259.004 149.642 258.207 149.642 257.117C149.642 256.035 149.413 255.243 148.954 254.741C148.496 254.239 147.781 253.988 146.812 253.988H145.345V260.246ZM153.25 261.453V252.793H158.925V254.001H154.692V256.507H158.379V257.727H154.679V260.246H158.925V261.453H153.25ZM161.291 261.453V252.793H165.134C166.035 252.793 166.723 253.014 167.199 253.455C167.684 253.888 167.926 254.537 167.926 255.403C167.926 255.853 167.835 256.269 167.653 256.649C167.472 257.03 167.208 257.342 166.861 257.584C166.515 257.827 166.104 257.965 165.628 258L165.784 257.558L168.354 261.453H166.576L164.174 257.571L164.836 258.182H162.719V261.453H161.291ZM162.719 257.013H164.732C165.303 257.013 165.727 256.887 166.004 256.636C166.29 256.385 166.433 256.005 166.433 255.494C166.433 255.018 166.32 254.65 166.095 254.39C165.879 254.13 165.502 254.001 164.966 254.001H162.719V257.013ZM174.481 261.453V252.793H178.325C179.225 252.793 179.913 253.014 180.389 253.455C180.874 253.888 181.116 254.537 181.116 255.403C181.116 255.853 181.025 256.269 180.844 256.649C180.662 257.03 180.398 257.342 180.052 257.584C179.705 257.827 179.294 257.965 178.818 258L178.974 257.558L181.545 261.453H179.766L177.364 257.571L178.026 258.182H175.91V261.453H174.481ZM175.91 257.013H177.922C178.493 257.013 178.918 256.887 179.195 256.636C179.48 256.385 179.623 256.005 179.623 255.494C179.623 255.018 179.511 254.65 179.286 254.39C179.069 254.13 178.693 254.001 178.156 254.001H175.91V257.013ZM183.549 261.453V252.793H189.223V254.001H184.99V256.507H188.678V257.727H184.977V260.246H189.223V261.453H183.549ZM190.785 261.453L194.161 252.793H195.68L198.965 261.453H197.459L194.563 253.494L195.108 253.442L192.213 261.453H190.785ZM192.447 259.103L192.862 257.935H196.978L197.095 259.103H192.447ZM200.645 261.453V252.793H203.683C205.085 252.793 206.128 253.157 206.812 253.884C207.496 254.611 207.838 255.689 207.838 257.117C207.838 258.545 207.496 259.627 206.812 260.363C206.128 261.09 205.085 261.453 203.683 261.453H200.645ZM202.073 260.246H203.54C204.51 260.246 205.224 259.999 205.683 259.506C206.141 259.004 206.371 258.207 206.371 257.117C206.371 256.035 206.141 255.243 205.683 254.741C205.224 254.239 204.51 253.988 203.54 253.988H202.073V260.246ZM212.42 261.453V257.571L209.161 252.793H210.914L213.536 256.883L212.952 256.831L215.445 252.793H216.99L213.627 257.922L213.848 257.117V261.453H212.42ZM224.411 262.921C224.195 262.6 223.957 262.172 223.697 261.635C223.437 261.099 223.216 260.48 223.035 259.779C222.862 259.077 222.775 258.316 222.775 257.493C222.775 256.662 222.862 255.896 223.035 255.195C223.216 254.485 223.437 253.862 223.697 253.325C223.957 252.789 224.195 252.365 224.411 252.053H225.67C225.575 252.218 225.445 252.473 225.281 252.819C225.125 253.157 224.965 253.564 224.801 254.04C224.636 254.507 224.498 255.035 224.385 255.624C224.273 256.204 224.216 256.827 224.216 257.493C224.216 258.151 224.273 258.774 224.385 259.363C224.498 259.943 224.636 260.471 224.801 260.947C224.965 261.423 225.125 261.826 225.281 262.155C225.445 262.492 225.575 262.748 225.67 262.921H224.411ZM230.993 261.609C229.799 261.609 228.907 261.237 228.319 260.493C227.73 259.748 227.436 258.632 227.436 257.143C227.436 255.663 227.73 254.55 228.319 253.806C228.907 253.053 229.799 252.676 230.993 252.676C232.205 252.676 233.101 253.053 233.681 253.806C234.27 254.55 234.564 255.663 234.564 257.143C234.564 258.632 234.27 259.748 233.681 260.493C233.101 261.237 232.205 261.609 230.993 261.609ZM230.993 260.389C231.245 260.389 231.496 260.354 231.747 260.285C231.998 260.207 232.227 260.06 232.435 259.843C232.642 259.618 232.807 259.294 232.928 258.87C233.058 258.437 233.123 257.861 233.123 257.143C233.123 256.433 233.058 255.862 232.928 255.429C232.807 254.996 232.642 254.671 232.435 254.455C232.227 254.239 231.998 254.092 231.747 254.014C231.496 253.936 231.245 253.897 230.993 253.897C230.751 253.897 230.504 253.936 230.253 254.014C230.002 254.092 229.773 254.239 229.565 254.455C229.357 254.671 229.189 254.996 229.059 255.429C228.938 255.862 228.877 256.433 228.877 257.143C228.877 257.861 228.938 258.437 229.059 258.87C229.189 259.294 229.357 259.618 229.565 259.843C229.773 260.06 230.002 260.207 230.253 260.285C230.504 260.354 230.751 260.389 230.993 260.389ZM239.934 261.609C238.74 261.609 237.848 261.237 237.26 260.493C236.671 259.748 236.377 258.632 236.377 257.143C236.377 255.663 236.671 254.55 237.26 253.806C237.848 253.053 238.74 252.676 239.934 252.676C241.146 252.676 242.042 253.053 242.622 253.806C243.211 254.55 243.505 255.663 243.505 257.143C243.505 258.632 243.211 259.748 242.622 260.493C242.042 261.237 241.146 261.609 239.934 261.609ZM239.934 260.389C240.185 260.389 240.436 260.354 240.687 260.285C240.938 260.207 241.168 260.06 241.376 259.843C241.583 259.618 241.748 259.294 241.869 258.87C241.999 258.437 242.064 257.861 242.064 257.143C242.064 256.433 241.999 255.862 241.869 255.429C241.748 254.996 241.583 254.671 241.376 254.455C241.168 254.239 240.938 254.092 240.687 254.014C240.436 253.936 240.185 253.897 239.934 253.897C239.692 253.897 239.445 253.936 239.194 254.014C238.943 254.092 238.714 254.239 238.506 254.455C238.298 254.671 238.13 254.996 238 255.429C237.879 255.862 237.818 256.433 237.818 257.143C237.818 257.861 237.879 258.437 238 258.87C238.13 259.294 238.298 259.618 238.506 259.843C238.714 260.06 238.943 260.207 239.194 260.285C239.445 260.354 239.692 260.389 239.934 260.389ZM246.603 256.831V255.572H247.888V256.831H246.603ZM246.603 260.882V259.623H247.888V260.882H246.603ZM254.013 261.583C253.442 261.583 252.944 261.523 252.52 261.402C252.096 261.272 251.754 261.129 251.494 260.973V259.584C251.624 259.688 251.801 259.8 252.027 259.921C252.252 260.034 252.52 260.129 252.832 260.207C253.143 260.285 253.489 260.324 253.87 260.324C254.234 260.324 254.532 260.281 254.766 260.194C255.009 260.099 255.195 259.978 255.324 259.83C255.454 259.675 255.545 259.506 255.597 259.324C255.649 259.134 255.675 258.943 255.675 258.753C255.675 258.303 255.593 257.965 255.428 257.74C255.273 257.515 255.065 257.364 254.805 257.286C254.545 257.208 254.268 257.169 253.974 257.169C253.602 257.169 253.277 257.199 253 257.26C252.732 257.312 252.52 257.372 252.364 257.441C252.217 257.502 252.13 257.541 252.104 257.558L251.364 256.779L251.858 252.793H256.506V254.092H252.883L252.611 256.714L251.481 256.61C251.819 256.359 252.226 256.173 252.702 256.052C253.186 255.931 253.706 255.87 254.26 255.87C254.597 255.87 254.935 255.918 255.273 256.013C255.619 256.1 255.93 256.247 256.207 256.455C256.484 256.662 256.705 256.948 256.87 257.312C257.034 257.675 257.116 258.13 257.116 258.675C257.116 259.264 257.025 259.748 256.844 260.129C256.67 260.501 256.432 260.796 256.129 261.012C255.827 261.22 255.489 261.367 255.117 261.453C254.753 261.54 254.385 261.583 254.013 261.583ZM261.238 261.583C260.909 261.583 260.614 261.557 260.355 261.505C260.104 261.462 259.887 261.41 259.705 261.35V260.09C259.913 260.168 260.13 260.233 260.355 260.285C260.58 260.328 260.831 260.35 261.108 260.35C261.315 260.35 261.545 260.32 261.796 260.259C262.047 260.198 262.294 260.099 262.536 259.96C262.778 259.813 263.003 259.618 263.211 259.376C263.419 259.125 263.583 258.813 263.705 258.441C263.826 258.06 263.886 257.61 263.886 257.091C263.886 256.407 263.843 255.853 263.756 255.429C263.67 255.005 263.544 254.684 263.38 254.468C263.215 254.243 263.025 254.092 262.809 254.014C262.592 253.936 262.354 253.897 262.094 253.897C261.731 253.897 261.437 253.962 261.212 254.092C260.987 254.213 260.818 254.364 260.705 254.546C260.593 254.728 260.515 254.918 260.471 255.117C260.428 255.308 260.407 255.468 260.407 255.598C260.407 256.126 260.554 256.528 260.848 256.805C261.142 257.082 261.558 257.221 262.094 257.221C262.449 257.221 262.752 257.169 263.003 257.065C263.263 256.952 263.475 256.818 263.64 256.662C263.813 256.498 263.934 256.333 264.003 256.169L264.198 257.143C264.129 257.247 264.029 257.372 263.899 257.519C263.778 257.658 263.622 257.792 263.432 257.922C263.241 258.052 263.021 258.16 262.77 258.246C262.519 258.333 262.242 258.376 261.939 258.376C260.987 258.376 260.251 258.134 259.731 257.649C259.221 257.156 258.965 256.468 258.965 255.585C258.965 255.204 259.026 254.84 259.147 254.494C259.268 254.148 259.459 253.836 259.718 253.559C259.978 253.282 260.303 253.061 260.692 252.897C261.082 252.733 261.549 252.65 262.094 252.65C263.202 252.65 264.016 252.997 264.535 253.689C265.063 254.382 265.328 255.403 265.328 256.753C265.328 257.619 265.228 258.346 265.029 258.935C264.83 259.515 264.57 259.982 264.25 260.337C263.938 260.683 263.601 260.947 263.237 261.129C262.874 261.302 262.514 261.419 262.159 261.479C261.805 261.549 261.497 261.583 261.238 261.583ZM267.182 262.921C267.277 262.756 267.402 262.501 267.558 262.155C267.723 261.817 267.887 261.415 268.052 260.947C268.216 260.471 268.355 259.939 268.467 259.35C268.58 258.761 268.636 258.138 268.636 257.48C268.636 256.823 268.58 256.204 268.467 255.624C268.355 255.035 268.216 254.503 268.052 254.027C267.887 253.551 267.723 253.148 267.558 252.819C267.402 252.482 267.277 252.226 267.182 252.053H268.441C268.675 252.373 268.917 252.802 269.168 253.338C269.419 253.875 269.636 254.494 269.817 255.195C269.999 255.896 270.09 256.658 270.09 257.48C270.09 258.303 269.999 259.069 269.817 259.779C269.636 260.488 269.419 261.107 269.168 261.635C268.917 262.172 268.675 262.6 268.441 262.921H267.182Z" fill="white"/>
<path d="M265.028 237.045H320.427C325.207 237.045 329.083 240.92 329.083 245.701V268.206C329.083 272.987 325.207 276.862 320.427 276.862H265.028V237.045Z" fill="white" fill-opacity="0.55"/>
</g>
<g filter="url(#filter1_d_1738_18829)">
<path d="M202.17 299.096C200.733 297.635 198.378 297.635 196.942 299.096L183.695 312.567H71.1843C62.1887 312.567 57.6909 312.567 54.4805 314.761C53.1907 315.643 52.0764 316.757 51.1947 318.047C49 321.258 49 325.755 49 334.751C49 343.747 49 348.244 51.1947 351.455C52.0764 352.745 53.1907 353.859 54.4805 354.741C57.6909 356.935 62.1887 356.935 71.1843 356.935H328.732C337.727 356.935 342.225 356.935 345.436 354.741C346.726 353.859 347.84 352.745 348.722 351.455C350.916 348.244 350.916 343.747 350.916 334.751C350.916 325.755 350.916 321.258 348.722 318.047C347.84 316.757 346.726 315.643 345.436 314.761C342.225 312.567 337.727 312.567 328.732 312.567H215.416L202.17 299.096Z" fill="#97B0D7"/>
<path d="M201.062 304.91C200.748 304.625 200.22 304.454 199.655 304.454C199.09 304.454 198.562 304.625 198.248 304.91L191.485 311.056C191.139 311.371 191.107 311.775 191.401 312.108C191.695 312.441 192.268 312.649 192.892 312.649H206.418C207.041 312.649 207.614 312.441 207.908 312.108C208.203 311.775 208.17 311.371 207.825 311.056L201.062 304.91Z" fill="white"/>
<path d="M200.394 316.01C200.23 315.861 199.954 315.771 199.658 315.771C199.361 315.771 199.085 315.861 198.921 316.01L195.378 319.23C195.197 319.394 195.18 319.606 195.334 319.78C195.488 319.955 195.789 320.064 196.115 320.064H203.2C203.527 320.064 203.827 319.955 203.981 319.78C204.135 319.606 204.118 319.394 203.937 319.23L200.394 316.01Z" fill="white"/>
</g>
<path d="M139.71 340V336.314L136.55 331.638H138.644L141.101 335.612L140.349 335.587L142.643 331.638H144.398L141.164 336.741L141.415 335.813V340H139.71ZM147.262 340.188C146.226 340.188 145.448 339.9 144.93 339.323C144.412 338.746 144.153 337.915 144.153 336.828C144.153 335.667 144.416 334.823 144.943 334.296C145.478 333.769 146.246 333.506 147.249 333.506C147.951 333.506 148.536 333.632 149.004 333.882C149.472 334.125 149.819 334.492 150.045 334.985C150.279 335.479 150.396 336.093 150.396 336.828C150.396 337.915 150.124 338.746 149.581 339.323C149.046 339.9 148.273 340.188 147.262 340.188ZM147.262 338.884C147.63 338.884 147.926 338.801 148.152 338.634C148.386 338.466 148.557 338.232 148.666 337.932C148.775 337.622 148.829 337.255 148.829 336.828C148.829 336.352 148.77 335.963 148.653 335.662C148.545 335.362 148.373 335.14 148.139 334.998C147.914 334.856 147.621 334.785 147.262 334.785C146.894 334.785 146.597 334.86 146.372 335.011C146.146 335.161 145.979 335.387 145.87 335.688C145.77 335.988 145.72 336.369 145.72 336.828C145.72 337.497 145.841 338.007 146.083 338.358C146.326 338.709 146.719 338.884 147.262 338.884ZM154.958 340.188C154.373 340.188 153.863 340.096 153.428 339.912C153.002 339.72 152.668 339.436 152.425 339.06C152.191 338.684 152.074 338.203 152.074 337.618V333.682H153.666V337.455C153.666 337.923 153.771 338.27 153.98 338.496C154.189 338.721 154.515 338.834 154.958 338.834C155.417 338.834 155.747 338.721 155.948 338.496C156.157 338.27 156.261 337.923 156.261 337.455V333.682H157.766V337.618C157.766 338.487 157.515 339.135 157.014 339.561C156.52 339.979 155.835 340.188 154.958 340.188ZM163.555 340V331.099H165.147V334.772L164.558 334.396C164.892 334.137 165.272 333.928 165.699 333.769C166.125 333.611 166.551 333.531 166.977 333.531C167.454 333.531 167.868 333.611 168.219 333.769C168.57 333.928 168.841 334.187 169.033 334.547C169.234 334.898 169.334 335.374 169.334 335.976V340H167.742V336.252C167.742 335.784 167.629 335.437 167.404 335.211C167.186 334.977 166.856 334.86 166.413 334.86C166.188 334.86 165.962 334.894 165.736 334.96C165.511 335.027 165.314 335.111 165.147 335.211L165.135 340H163.555ZM173.703 340.188C173.352 340.188 173.018 340.155 172.7 340.088C172.382 340.021 172.098 339.912 171.847 339.762C171.597 339.603 171.396 339.39 171.246 339.122C171.104 338.847 171.033 338.504 171.033 338.094C171.033 337.668 171.12 337.309 171.296 337.016C171.471 336.715 171.726 336.49 172.061 336.339C172.403 336.181 172.821 336.101 173.314 336.101C173.615 336.101 173.895 336.13 174.154 336.189C174.413 336.239 174.647 336.31 174.856 336.402C175.065 336.494 175.236 336.594 175.37 336.703L175.483 337.593C175.307 337.476 175.082 337.384 174.806 337.317C174.539 337.242 174.246 337.204 173.929 337.204C173.486 337.204 173.155 337.275 172.938 337.418C172.721 337.56 172.612 337.781 172.612 338.082C172.612 338.291 172.671 338.466 172.788 338.608C172.905 338.742 173.055 338.847 173.239 338.922C173.423 338.989 173.615 339.022 173.816 339.022C174.275 339.022 174.605 338.993 174.806 338.934C175.015 338.868 175.119 338.73 175.119 338.521V336.026C175.119 335.616 174.99 335.32 174.731 335.136C174.472 334.944 174.108 334.848 173.64 334.848C173.281 334.848 172.913 334.91 172.537 335.036C172.161 335.153 171.856 335.307 171.622 335.499V334.058C171.847 333.916 172.186 333.79 172.637 333.682C173.089 333.573 173.573 333.519 174.091 333.519C174.309 333.519 174.539 333.54 174.781 333.581C175.023 333.623 175.253 333.69 175.47 333.782C175.696 333.874 175.901 334.003 176.085 334.171C176.269 334.329 176.415 334.534 176.524 334.785C176.632 335.027 176.686 335.324 176.686 335.675V338.671C176.686 339.064 176.561 339.373 176.31 339.599C176.06 339.816 175.713 339.967 175.27 340.05C174.827 340.142 174.305 340.188 173.703 340.188ZM180.484 340L177.839 333.682H179.544L181.588 338.746L181.199 338.771L183.067 333.682H184.722L182.076 340H180.484ZM188.597 340.188C187.97 340.188 187.423 340.063 186.955 339.812C186.487 339.553 186.123 339.177 185.864 338.684C185.605 338.191 185.475 337.597 185.475 336.904C185.475 335.8 185.739 334.96 186.265 334.384C186.8 333.799 187.548 333.506 188.509 333.506C189.203 333.506 189.759 333.657 190.177 333.957C190.603 334.258 190.912 334.689 191.104 335.249C191.305 335.8 191.401 336.461 191.393 337.229H186.503L186.378 336.151H190.126L189.826 336.603C189.809 335.942 189.692 335.47 189.475 335.186C189.266 334.894 188.927 334.747 188.459 334.747C188.175 334.747 187.924 334.814 187.707 334.948C187.498 335.073 187.335 335.286 187.218 335.587C187.109 335.888 187.055 336.302 187.055 336.828C187.055 337.48 187.21 337.982 187.519 338.333C187.828 338.675 188.3 338.847 188.936 338.847C189.195 338.847 189.441 338.822 189.675 338.771C189.918 338.713 190.139 338.646 190.34 338.571C190.549 338.496 190.724 338.425 190.866 338.358V339.762C190.574 339.887 190.239 339.987 189.863 340.063C189.495 340.146 189.073 340.188 188.597 340.188ZM198.484 340V333.306L196.855 334.271V332.679L198.622 331.638H200.189V340H198.484ZM206.682 334.208C206.858 334.125 207.066 334.041 207.309 333.957C207.551 333.874 207.814 333.803 208.099 333.744C208.383 333.678 208.667 333.627 208.951 333.594C209.244 333.552 209.519 333.531 209.779 333.531C210.364 333.531 210.848 333.611 211.233 333.769C211.626 333.92 211.918 334.162 212.11 334.497C212.311 334.823 212.411 335.253 212.411 335.788V340H210.832V336.064C210.832 335.905 210.811 335.754 210.769 335.612C210.727 335.462 210.656 335.332 210.556 335.224C210.455 335.107 210.318 335.019 210.142 334.96C209.967 334.894 209.741 334.86 209.465 334.86C209.256 334.86 209.043 334.881 208.826 334.923C208.608 334.965 208.425 335.019 208.274 335.086V340H206.682V334.208ZM217.207 340.188C216.58 340.188 216.033 340.063 215.565 339.812C215.097 339.553 214.733 339.177 214.474 338.684C214.215 338.191 214.086 337.597 214.086 336.904C214.086 335.8 214.349 334.96 214.875 334.384C215.41 333.799 216.158 333.506 217.119 333.506C217.813 333.506 218.369 333.657 218.787 333.957C219.213 334.258 219.522 334.689 219.714 335.249C219.915 335.8 220.011 336.461 220.003 337.229H215.114L214.988 336.151H218.737L218.436 336.603C218.419 335.942 218.302 335.47 218.085 335.186C217.876 334.894 217.537 334.747 217.069 334.747C216.785 334.747 216.534 334.814 216.317 334.948C216.108 335.073 215.945 335.286 215.828 335.587C215.719 335.888 215.665 336.302 215.665 336.828C215.665 337.48 215.82 337.982 216.129 338.333C216.438 338.675 216.91 338.847 217.546 338.847C217.805 338.847 218.051 338.822 218.285 338.771C218.528 338.713 218.749 338.646 218.95 338.571C219.159 338.496 219.334 338.425 219.476 338.358V339.762C219.184 339.887 218.849 339.987 218.473 340.063C218.106 340.146 217.684 340.188 217.207 340.188ZM223.244 340L221.138 333.682H222.843L224.347 338.934L223.858 338.985L225.3 333.682H226.528L227.945 338.834H227.556L229.036 333.682H230.69L228.584 340H227.13L225.751 335.487L226.027 335.562L224.71 340H223.244ZM238.731 340.188C237.695 340.188 236.918 339.9 236.399 339.323C235.881 338.746 235.622 337.915 235.622 336.828C235.622 335.667 235.885 334.823 236.412 334.296C236.947 333.769 237.716 333.506 238.719 333.506C239.421 333.506 240.006 333.632 240.474 333.882C240.942 334.125 241.289 334.492 241.514 334.985C241.748 335.479 241.865 336.093 241.865 336.828C241.865 337.915 241.594 338.746 241.05 339.323C240.516 339.9 239.742 340.188 238.731 340.188ZM238.731 338.884C239.099 338.884 239.396 338.801 239.621 338.634C239.855 338.466 240.027 338.232 240.135 337.932C240.244 337.622 240.298 337.255 240.298 336.828C240.298 336.352 240.24 335.963 240.123 335.662C240.014 335.362 239.843 335.14 239.609 334.998C239.383 334.856 239.091 334.785 238.731 334.785C238.364 334.785 238.067 334.86 237.841 335.011C237.616 335.161 237.448 335.387 237.34 335.688C237.239 335.988 237.189 336.369 237.189 336.828C237.189 337.497 237.31 338.007 237.553 338.358C237.795 338.709 238.188 338.884 238.731 338.884ZM243.544 340V334.296C243.661 334.221 243.865 334.12 244.158 333.995C244.459 333.87 244.806 333.761 245.198 333.669C245.591 333.569 245.988 333.519 246.389 333.519C246.69 333.519 246.928 333.544 247.104 333.594C247.288 333.636 247.43 333.69 247.53 333.757V334.96C247.363 334.935 247.171 334.914 246.953 334.898C246.745 334.881 246.527 334.877 246.302 334.885C246.084 334.885 245.871 334.894 245.662 334.91C245.462 334.927 245.286 334.948 245.136 334.973V340H243.544ZM251.611 340.188C251.176 340.188 250.763 340.138 250.37 340.038C249.977 339.937 249.63 339.762 249.329 339.511C249.028 339.26 248.79 338.914 248.615 338.471C248.448 338.028 248.364 337.463 248.364 336.778C248.364 335.767 248.611 334.969 249.104 334.384C249.597 333.799 250.345 333.506 251.348 333.506C251.49 333.506 251.674 333.523 251.899 333.556C252.125 333.59 252.355 333.648 252.589 333.732C252.831 333.807 253.04 333.928 253.216 334.095L252.865 334.597V331.062H254.432V338.521C254.432 338.805 254.348 339.051 254.181 339.26C254.022 339.469 253.805 339.645 253.529 339.787C253.253 339.921 252.948 340.021 252.614 340.088C252.279 340.155 251.945 340.188 251.611 340.188ZM251.661 338.834C252.004 338.834 252.288 338.792 252.513 338.709C252.748 338.625 252.865 338.504 252.865 338.345V335.136C252.681 335.027 252.484 334.948 252.275 334.898C252.066 334.848 251.866 334.823 251.674 334.823C251.289 334.823 250.972 334.894 250.721 335.036C250.47 335.169 250.282 335.387 250.157 335.688C250.031 335.98 249.969 336.356 249.969 336.816C249.969 337.217 250.019 337.568 250.119 337.869C250.219 338.17 250.391 338.408 250.633 338.583C250.884 338.751 251.226 338.834 251.661 338.834ZM259.228 340.188C258.601 340.188 258.053 340.063 257.585 339.812C257.117 339.553 256.754 339.177 256.495 338.684C256.236 338.191 256.106 337.597 256.106 336.904C256.106 335.8 256.369 334.96 256.896 334.384C257.431 333.799 258.179 333.506 259.14 333.506C259.833 333.506 260.389 333.657 260.807 333.957C261.233 334.258 261.543 334.689 261.735 335.249C261.935 335.8 262.032 336.461 262.023 337.229H257.134L257.009 336.151H260.757L260.456 336.603C260.439 335.942 260.322 335.47 260.105 335.186C259.896 334.894 259.558 334.747 259.09 334.747C258.805 334.747 258.555 334.814 258.337 334.948C258.129 335.073 257.966 335.286 257.849 335.587C257.74 335.888 257.686 336.302 257.686 336.828C257.686 337.48 257.84 337.982 258.149 338.333C258.459 338.675 258.931 338.847 259.566 338.847C259.825 338.847 260.072 338.822 260.306 338.771C260.548 338.713 260.77 338.646 260.97 338.571C261.179 338.496 261.355 338.425 261.497 338.358V339.762C261.204 339.887 260.87 339.987 260.494 340.063C260.126 340.146 259.704 340.188 259.228 340.188ZM263.685 340V334.296C263.802 334.221 264.006 334.12 264.299 333.995C264.6 333.87 264.947 333.761 265.339 333.669C265.732 333.569 266.129 333.519 266.53 333.519C266.831 333.519 267.069 333.544 267.245 333.594C267.429 333.636 267.571 333.69 267.671 333.757V334.96C267.504 334.935 267.312 334.914 267.094 334.898C266.886 334.881 266.668 334.877 266.443 334.885C266.225 334.885 266.012 334.894 265.803 334.91C265.603 334.927 265.427 334.948 265.277 334.973V340H263.685Z" fill="white"/>
</g>
<rect x="49.6229" y="0.522346" width="300.872" height="356.24" rx="10.497" stroke="#88857B" stroke-width="1.04469"/>
<path fill-rule="evenodd" clip-rule="evenodd" d="M349.398 94.2006C353.408 92.5274 366.565 94.322 375.81 97.8078C388.883 102.74 392.308 108.798 387.01 117.665C384.224 122.358 379.496 129.654 379.695 129.69C379.745 129.699 381.184 129.285 382.901 128.761C388.407 127.075 391.254 126.847 392.385 127.979C392.842 128.437 392.53 128.594 389.231 129.47C389.203 129.483 384.452 130.7 376.618 133.44C372.004 135.038 372.324 133.707 372.79 130.728C373.256 127.607 373.182 125.616 372.903 123.196C372.74 121.83 372.23 119.974 374.643 120.147C376.573 120.285 377.787 122.804 377.652 126.788C377.596 128.363 377.77 128.252 379.379 125.5C380.166 124.147 381.362 122.245 382.003 121.276C389.109 110.673 386.842 105.325 373.007 100.058C368.1 98.1825 358.335 95.9913 354.2 95.807C349.884 95.6253 347.724 94.9106 349.398 94.2006Z" fill="#97B0D7"/>
<rect x="343.182" y="137.377" width="152.525" height="119.547" rx="16.1927" fill="#ECF0F8"/>
<path d="M368.726 182.151V171.913H372.485C373.304 171.913 373.977 172.054 374.504 172.337C375.04 172.61 375.44 172.986 375.703 173.463C375.966 173.931 376.098 174.453 376.098 175.028C376.098 175.652 375.932 176.223 375.6 176.739C375.279 177.256 374.772 177.632 374.079 177.866L376.2 182.151H374.05L372.149 178.114H370.598V182.151H368.726ZM370.598 176.739H372.368C372.992 176.739 373.45 176.588 373.743 176.286C374.035 175.984 374.182 175.584 374.182 175.087C374.182 174.599 374.035 174.209 373.743 173.917C373.46 173.624 372.997 173.478 372.354 173.478H370.598V176.739ZM380.877 182.327C380.146 182.327 379.497 182.171 378.932 181.858C378.366 181.546 377.923 181.108 377.601 180.542C377.279 179.977 377.118 179.323 377.118 178.582C377.118 177.832 377.274 177.164 377.586 176.579C377.908 175.994 378.347 175.54 378.903 175.218C379.468 174.887 380.131 174.721 380.892 174.721C381.603 174.721 382.232 174.877 382.778 175.189C383.324 175.501 383.749 175.93 384.051 176.476C384.363 177.013 384.519 177.612 384.519 178.275C384.519 178.382 384.514 178.495 384.504 178.612C384.504 178.729 384.499 178.85 384.49 178.977H378.976C379.015 179.543 379.21 179.986 379.561 180.308C379.921 180.63 380.355 180.791 380.862 180.791C381.243 180.791 381.56 180.708 381.813 180.542C382.076 180.367 382.271 180.142 382.398 179.869H384.299C384.163 180.328 383.934 180.747 383.612 181.127C383.3 181.498 382.91 181.79 382.442 182.005C381.984 182.219 381.462 182.327 380.877 182.327ZM380.892 176.242C380.433 176.242 380.029 176.374 379.678 176.637C379.327 176.891 379.102 177.281 379.005 177.807H382.617C382.588 177.329 382.413 176.949 382.091 176.666C381.769 176.384 381.369 176.242 380.892 176.242ZM389.647 182.327C388.906 182.327 388.253 182.166 387.688 181.844C387.122 181.522 386.674 181.074 386.342 180.498C386.02 179.923 385.859 179.265 385.859 178.524C385.859 177.783 386.02 177.125 386.342 176.549C386.674 175.974 387.122 175.526 387.688 175.204C388.253 174.882 388.906 174.721 389.647 174.721C390.574 174.721 391.354 174.965 391.988 175.452C392.621 175.93 393.026 176.593 393.201 177.442H391.227C391.129 177.091 390.934 176.817 390.642 176.622C390.359 176.418 390.023 176.315 389.633 176.315C389.116 176.315 388.677 176.51 388.316 176.9C387.956 177.29 387.775 177.832 387.775 178.524C387.775 179.216 387.956 179.757 388.316 180.147C388.677 180.537 389.116 180.732 389.633 180.732C390.023 180.732 390.359 180.635 390.642 180.44C390.934 180.245 391.129 179.967 391.227 179.606H393.201C393.026 180.425 392.621 181.083 391.988 181.581C391.354 182.078 390.574 182.327 389.647 182.327ZM398.388 182.327C397.657 182.327 397.008 182.171 396.443 181.858C395.877 181.546 395.433 181.108 395.112 180.542C394.79 179.977 394.629 179.323 394.629 178.582C394.629 177.832 394.785 177.164 395.097 176.579C395.419 175.994 395.858 175.54 396.413 175.218C396.979 174.887 397.642 174.721 398.402 174.721C399.114 174.721 399.743 174.877 400.289 175.189C400.835 175.501 401.259 175.93 401.562 176.476C401.874 177.013 402.03 177.612 402.03 178.275C402.03 178.382 402.025 178.495 402.015 178.612C402.015 178.729 402.01 178.85 402 178.977H396.487C396.526 179.543 396.721 179.986 397.072 180.308C397.432 180.63 397.866 180.791 398.373 180.791C398.753 180.791 399.07 180.708 399.324 180.542C399.587 180.367 399.782 180.142 399.909 179.869H401.81C401.674 180.328 401.445 180.747 401.123 181.127C400.811 181.498 400.421 181.79 399.953 182.005C399.495 182.219 398.973 182.327 398.388 182.327ZM398.402 176.242C397.944 176.242 397.54 176.374 397.189 176.637C396.838 176.891 396.613 177.281 396.516 177.807H400.128C400.099 177.329 399.924 176.949 399.602 176.666C399.28 176.384 398.88 176.242 398.402 176.242ZM404.613 173.77C404.272 173.77 403.989 173.668 403.765 173.463C403.551 173.259 403.443 173 403.443 172.688C403.443 172.376 403.551 172.123 403.765 171.928C403.989 171.723 404.272 171.62 404.613 171.62C404.955 171.62 405.233 171.723 405.447 171.928C405.671 172.123 405.783 172.376 405.783 172.688C405.783 173 405.671 173.259 405.447 173.463C405.233 173.668 404.955 173.77 404.613 173.77ZM403.677 182.151V174.897H405.549V182.151H403.677ZM407.503 185.369V174.897H409.171L409.376 175.935C409.61 175.613 409.917 175.331 410.297 175.087C410.687 174.843 411.189 174.721 411.803 174.721C412.486 174.721 413.095 174.887 413.632 175.218C414.168 175.55 414.592 176.003 414.904 176.579C415.216 177.154 415.372 177.807 415.372 178.538C415.372 179.27 415.216 179.923 414.904 180.498C414.592 181.064 414.168 181.512 413.632 181.844C413.095 182.166 412.486 182.327 411.803 182.327C411.257 182.327 410.78 182.224 410.37 182.019C409.961 181.815 409.629 181.527 409.376 181.156V185.369H407.503ZM411.408 180.688C412.003 180.688 412.496 180.489 412.886 180.089C413.276 179.689 413.471 179.172 413.471 178.538C413.471 177.905 413.276 177.383 412.886 176.974C412.496 176.564 412.003 176.359 411.408 176.359C410.804 176.359 410.307 176.564 409.917 176.974C409.536 177.373 409.346 177.89 409.346 178.524C409.346 179.158 409.536 179.679 409.917 180.089C410.307 180.489 410.804 180.688 411.408 180.688ZM419.991 182.151C419.23 182.151 418.621 181.966 418.163 181.595C417.705 181.225 417.475 180.567 417.475 179.621V176.462H416.232V174.897H417.475L417.695 172.951H419.347V174.897H421.307V176.462H419.347V179.635C419.347 179.986 419.421 180.23 419.567 180.367C419.723 180.493 419.986 180.557 420.357 180.557H421.263V182.151H419.991ZM425.913 182.327C425.269 182.327 424.704 182.224 424.216 182.019C423.729 181.805 423.339 181.512 423.046 181.142C422.754 180.771 422.578 180.342 422.52 179.855H424.407C424.465 180.138 424.621 180.381 424.875 180.586C425.138 180.781 425.474 180.879 425.884 180.879C426.293 180.879 426.591 180.796 426.776 180.63C426.971 180.464 427.068 180.274 427.068 180.06C427.068 179.748 426.932 179.538 426.659 179.431C426.386 179.314 426.006 179.201 425.518 179.094C425.206 179.026 424.889 178.943 424.567 178.846C424.246 178.748 423.948 178.626 423.675 178.48C423.412 178.324 423.197 178.129 423.032 177.895C422.866 177.651 422.783 177.354 422.783 177.003C422.783 176.359 423.037 175.818 423.544 175.379C424.06 174.941 424.782 174.721 425.708 174.721C426.566 174.721 427.249 174.921 427.756 175.321C428.273 175.721 428.58 176.271 428.677 176.974H426.907C426.8 176.437 426.396 176.169 425.694 176.169C425.343 176.169 425.07 176.237 424.875 176.374C424.689 176.51 424.597 176.681 424.597 176.886C424.597 177.1 424.738 177.271 425.021 177.398C425.304 177.524 425.679 177.641 426.147 177.749C426.654 177.866 427.117 177.997 427.536 178.144C427.965 178.28 428.307 178.49 428.56 178.772C428.814 179.045 428.94 179.44 428.94 179.957C428.95 180.406 428.833 180.81 428.589 181.171C428.346 181.532 427.995 181.815 427.536 182.019C427.078 182.224 426.537 182.327 425.913 182.327ZM437.082 182.327C436.439 182.327 435.873 182.224 435.386 182.019C434.898 181.805 434.508 181.512 434.216 181.142C433.923 180.771 433.748 180.342 433.689 179.855H435.576C435.634 180.138 435.79 180.381 436.044 180.586C436.307 180.781 436.643 180.879 437.053 180.879C437.462 180.879 437.76 180.796 437.945 180.63C438.14 180.464 438.238 180.274 438.238 180.06C438.238 179.748 438.101 179.538 437.828 179.431C437.555 179.314 437.175 179.201 436.687 179.094C436.375 179.026 436.058 178.943 435.737 178.846C435.415 178.748 435.117 178.626 434.844 178.48C434.581 178.324 434.367 178.129 434.201 177.895C434.035 177.651 433.952 177.354 433.952 177.003C433.952 176.359 434.206 175.818 434.713 175.379C435.23 174.941 435.951 174.721 436.877 174.721C437.735 174.721 438.418 174.921 438.925 175.321C439.442 175.721 439.749 176.271 439.846 176.974H438.077C437.969 176.437 437.565 176.169 436.863 176.169C436.512 176.169 436.239 176.237 436.044 176.374C435.859 176.51 435.766 176.681 435.766 176.886C435.766 177.1 435.907 177.271 436.19 177.398C436.473 177.524 436.848 177.641 437.316 177.749C437.823 177.866 438.286 177.997 438.706 178.144C439.135 178.28 439.476 178.49 439.729 178.772C439.983 179.045 440.11 179.44 440.11 179.957C440.119 180.406 440.002 180.81 439.759 181.171C439.515 181.532 439.164 181.815 438.706 182.019C438.247 182.224 437.706 182.327 437.082 182.327ZM445.293 182.327C444.562 182.327 443.913 182.171 443.348 181.858C442.782 181.546 442.339 181.108 442.017 180.542C441.695 179.977 441.534 179.323 441.534 178.582C441.534 177.832 441.69 177.164 442.002 176.579C442.324 175.994 442.763 175.54 443.318 175.218C443.884 174.887 444.547 174.721 445.308 174.721C446.019 174.721 446.648 174.877 447.194 175.189C447.74 175.501 448.164 175.93 448.467 176.476C448.779 177.013 448.935 177.612 448.935 178.275C448.935 178.382 448.93 178.495 448.92 178.612C448.92 178.729 448.915 178.85 448.905 178.977H443.392C443.431 179.543 443.626 179.986 443.977 180.308C444.337 180.63 444.771 180.791 445.278 180.791C445.659 180.791 445.975 180.708 446.229 180.542C446.492 180.367 446.687 180.142 446.814 179.869H448.715C448.579 180.328 448.35 180.747 448.028 181.127C447.716 181.498 447.326 181.79 446.858 182.005C446.4 182.219 445.878 182.327 445.293 182.327ZM445.308 176.242C444.849 176.242 444.445 176.374 444.094 176.637C443.743 176.891 443.518 177.281 443.421 177.807H447.033C447.004 177.329 446.829 176.949 446.507 176.666C446.185 176.384 445.785 176.242 445.308 176.242ZM450.509 182.151V174.897H452.162L452.308 176.125C452.532 175.696 452.854 175.355 453.274 175.101C453.703 174.848 454.205 174.721 454.78 174.721C455.677 174.721 456.374 175.004 456.871 175.569C457.369 176.135 457.617 176.964 457.617 178.056V182.151H455.745V178.231C455.745 177.607 455.619 177.13 455.365 176.798C455.111 176.466 454.717 176.301 454.18 176.301C453.654 176.301 453.22 176.486 452.879 176.856C452.547 177.227 452.381 177.744 452.381 178.407V182.151H450.509ZM462.64 182.151C461.879 182.151 461.27 181.966 460.812 181.595C460.353 181.225 460.124 180.567 460.124 179.621V176.462H458.881V174.897H460.124L460.344 172.951H461.996V174.897H463.956V176.462H461.996V179.635C461.996 179.986 462.069 180.23 462.216 180.367C462.372 180.493 462.635 180.557 463.005 180.557H463.912V182.151H462.64ZM372.017 202.327C371.335 202.327 370.725 202.161 370.189 201.829C369.653 201.498 369.229 201.044 368.916 200.469C368.604 199.894 368.448 199.24 368.448 198.509C368.448 197.778 368.604 197.13 368.916 196.564C369.229 195.989 369.653 195.54 370.189 195.218C370.725 194.887 371.335 194.721 372.017 194.721C372.563 194.721 373.041 194.824 373.45 195.028C373.86 195.233 374.191 195.521 374.445 195.891V191.62H376.317V202.151H374.65L374.445 201.113C374.211 201.434 373.899 201.717 373.509 201.961C373.129 202.205 372.631 202.327 372.017 202.327ZM372.412 200.688C373.017 200.688 373.509 200.489 373.889 200.089C374.279 199.679 374.474 199.158 374.474 198.524C374.474 197.89 374.279 197.373 373.889 196.974C373.509 196.564 373.017 196.359 372.412 196.359C371.817 196.359 371.325 196.559 370.935 196.959C370.545 197.359 370.35 197.875 370.35 198.509C370.35 199.143 370.545 199.665 370.935 200.074C371.325 200.484 371.817 200.688 372.412 200.688ZM379.233 193.77C378.891 193.77 378.609 193.668 378.384 193.463C378.17 193.259 378.063 193 378.063 192.688C378.063 192.376 378.17 192.123 378.384 191.928C378.609 191.723 378.891 191.62 379.233 191.62C379.574 191.62 379.852 191.723 380.066 191.928C380.291 192.123 380.403 192.376 380.403 192.688C380.403 193 380.291 193.259 380.066 193.463C379.852 193.668 379.574 193.77 379.233 193.77ZM378.297 202.151V194.897H380.169V202.151H378.297ZM382.123 202.151V194.897H383.79L383.966 196.257C384.229 195.789 384.585 195.418 385.033 195.145C385.491 194.863 386.028 194.721 386.642 194.721V196.696H386.116C385.706 196.696 385.34 196.759 385.019 196.886C384.697 197.013 384.443 197.232 384.258 197.544C384.083 197.856 383.995 198.29 383.995 198.846V202.151H382.123ZM391.318 202.327C390.587 202.327 389.938 202.171 389.373 201.858C388.807 201.546 388.363 201.108 388.042 200.542C387.72 199.977 387.559 199.323 387.559 198.582C387.559 197.832 387.715 197.164 388.027 196.579C388.349 195.994 388.788 195.54 389.343 195.218C389.909 194.887 390.572 194.721 391.332 194.721C392.044 194.721 392.673 194.877 393.219 195.189C393.765 195.501 394.189 195.93 394.492 196.476C394.804 197.013 394.96 197.612 394.96 198.275C394.96 198.382 394.955 198.495 394.945 198.612C394.945 198.729 394.94 198.85 394.93 198.977H389.416C389.455 199.543 389.65 199.986 390.001 200.308C390.362 200.63 390.796 200.791 391.303 200.791C391.683 200.791 392 200.708 392.254 200.542C392.517 200.367 392.712 200.142 392.839 199.869H394.74C394.604 200.328 394.375 200.747 394.053 201.127C393.741 201.498 393.351 201.79 392.883 202.005C392.424 202.219 391.903 202.327 391.318 202.327ZM391.332 196.242C390.874 196.242 390.47 196.374 390.119 196.637C389.767 196.891 389.543 197.281 389.446 197.807H393.058C393.029 197.329 392.854 196.949 392.532 196.666C392.21 196.384 391.81 196.242 391.332 196.242ZM400.088 202.327C399.347 202.327 398.694 202.166 398.128 201.844C397.563 201.522 397.114 201.074 396.783 200.498C396.461 199.923 396.3 199.265 396.3 198.524C396.3 197.783 396.461 197.125 396.783 196.549C397.114 195.974 397.563 195.526 398.128 195.204C398.694 194.882 399.347 194.721 400.088 194.721C401.014 194.721 401.795 194.965 402.428 195.452C403.062 195.93 403.467 196.593 403.642 197.442H401.668C401.57 197.091 401.375 196.817 401.083 196.622C400.8 196.418 400.464 196.315 400.074 196.315C399.557 196.315 399.118 196.51 398.757 196.9C398.396 197.29 398.216 197.832 398.216 198.524C398.216 199.216 398.396 199.757 398.757 200.147C399.118 200.537 399.557 200.732 400.074 200.732C400.464 200.732 400.8 200.635 401.083 200.44C401.375 200.245 401.57 199.967 401.668 199.606H403.642C403.467 200.425 403.062 201.083 402.428 201.581C401.795 202.078 401.014 202.327 400.088 202.327ZM408.436 202.151C407.676 202.151 407.066 201.966 406.608 201.595C406.15 201.225 405.921 200.567 405.921 199.621V196.462H404.677V194.897H405.921L406.14 192.951H407.793V194.897H409.752V196.462H407.793V199.635C407.793 199.986 407.866 200.23 408.012 200.367C408.168 200.493 408.431 200.557 408.802 200.557H409.709V202.151H408.436ZM411.36 202.151V191.62H413.232V202.151H411.36ZM416.052 205.369L417.734 201.668H417.295L414.472 194.897H416.505L418.538 200.001L420.659 194.897H422.648L418.041 205.369H416.052ZM430.589 202.151C429.828 202.151 429.219 201.966 428.761 201.595C428.302 201.225 428.073 200.567 428.073 199.621V196.462H426.83V194.897H428.073L428.293 192.951H429.945V194.897H431.905V196.462H429.945V199.635C429.945 199.986 430.019 200.23 430.165 200.367C430.321 200.493 430.584 200.557 430.955 200.557H431.861V202.151H430.589ZM436.808 202.327C436.106 202.327 435.472 202.166 434.907 201.844C434.351 201.522 433.907 201.078 433.576 200.513C433.254 199.938 433.093 199.275 433.093 198.524C433.093 197.773 433.259 197.115 433.59 196.549C433.922 195.974 434.365 195.526 434.921 195.204C435.487 194.882 436.12 194.721 436.822 194.721C437.515 194.721 438.139 194.882 438.695 195.204C439.26 195.526 439.704 195.974 440.025 196.549C440.357 197.115 440.523 197.773 440.523 198.524C440.523 199.275 440.357 199.938 440.025 200.513C439.704 201.078 439.26 201.522 438.695 201.844C438.129 202.166 437.5 202.327 436.808 202.327ZM436.808 200.703C437.295 200.703 437.72 200.523 438.08 200.162C438.441 199.791 438.621 199.245 438.621 198.524C438.621 197.802 438.441 197.261 438.08 196.9C437.72 196.53 437.3 196.345 436.822 196.345C436.325 196.345 435.896 196.53 435.535 196.9C435.184 197.261 435.009 197.802 435.009 198.524C435.009 199.245 435.184 199.791 435.535 200.162C435.896 200.523 436.32 200.703 436.808 200.703ZM448.914 202.151C448.153 202.151 447.544 201.966 447.086 201.595C446.627 201.225 446.398 200.567 446.398 199.621V196.462H445.155V194.897H446.398L446.618 192.951H448.27V194.897H450.23V196.462H448.27V199.635C448.27 199.986 448.344 200.23 448.49 200.367C448.646 200.493 448.909 200.557 449.28 200.557H450.186V202.151H448.914ZM451.838 202.151V191.62H453.71V196.008C453.953 195.608 454.28 195.296 454.69 195.072C455.109 194.838 455.587 194.721 456.123 194.721C457.02 194.721 457.712 195.004 458.2 195.569C458.697 196.135 458.946 196.964 458.946 198.056V202.151H457.088V198.231C457.088 197.607 456.961 197.13 456.708 196.798C456.464 196.466 456.074 196.301 455.538 196.301C455.011 196.301 454.573 196.486 454.222 196.856C453.88 197.227 453.71 197.744 453.71 198.407V202.151H451.838ZM464.261 202.327C463.529 202.327 462.881 202.171 462.315 201.858C461.75 201.546 461.306 201.108 460.984 200.542C460.663 199.977 460.502 199.323 460.502 198.582C460.502 197.832 460.658 197.164 460.97 196.579C461.292 195.994 461.73 195.54 462.286 195.218C462.852 194.887 463.515 194.721 464.275 194.721C464.987 194.721 465.616 194.877 466.162 195.189C466.708 195.501 467.132 195.93 467.434 196.476C467.746 197.013 467.902 197.612 467.902 198.275C467.902 198.382 467.898 198.495 467.888 198.612C467.888 198.729 467.883 198.85 467.873 198.977H462.359C462.398 199.543 462.593 199.986 462.944 200.308C463.305 200.63 463.739 200.791 464.246 200.791C464.626 200.791 464.943 200.708 465.197 200.542C465.46 200.367 465.655 200.142 465.782 199.869H467.683C467.547 200.328 467.317 200.747 466.996 201.127C466.684 201.498 466.294 201.79 465.826 202.005C465.367 202.219 464.846 202.327 464.261 202.327ZM464.275 196.242C463.817 196.242 463.412 196.374 463.061 196.637C462.71 196.891 462.486 197.281 462.389 197.807H466.001C465.972 197.329 465.796 196.949 465.475 196.666C465.153 196.384 464.753 196.242 464.275 196.242ZM368.682 225.369V214.897H370.35L370.555 215.935C370.789 215.613 371.096 215.331 371.476 215.087C371.866 214.843 372.368 214.721 372.982 214.721C373.665 214.721 374.274 214.887 374.811 215.218C375.347 215.55 375.771 216.003 376.083 216.579C376.395 217.154 376.551 217.807 376.551 218.538C376.551 219.27 376.395 219.923 376.083 220.498C375.771 221.064 375.347 221.512 374.811 221.844C374.274 222.166 373.665 222.327 372.982 222.327C372.436 222.327 371.959 222.224 371.549 222.019C371.14 221.815 370.808 221.527 370.555 221.156V225.369H368.682ZM372.588 220.688C373.182 220.688 373.675 220.489 374.065 220.089C374.455 219.689 374.65 219.172 374.65 218.538C374.65 217.905 374.455 217.383 374.065 216.974C373.675 216.564 373.182 216.359 372.588 216.359C371.983 216.359 371.486 216.564 371.096 216.974C370.715 217.373 370.525 217.89 370.525 218.524C370.525 219.158 370.715 219.679 371.096 220.089C371.486 220.489 371.983 220.688 372.588 220.688ZM378.223 222.151V214.897H379.891L380.066 216.257C380.33 215.789 380.685 215.418 381.134 215.145C381.592 214.863 382.129 214.721 382.743 214.721V216.696H382.216C381.807 216.696 381.441 216.759 381.119 216.886C380.798 217.013 380.544 217.232 380.359 217.544C380.183 217.856 380.096 218.29 380.096 218.846V222.151H378.223ZM385.031 213.77C384.69 213.77 384.407 213.668 384.183 213.463C383.969 213.259 383.861 213 383.861 212.688C383.861 212.376 383.969 212.123 384.183 211.928C384.407 211.723 384.69 211.62 385.031 211.62C385.373 211.62 385.651 211.723 385.865 211.928C386.089 212.123 386.202 212.376 386.202 212.688C386.202 213 386.089 213.259 385.865 213.463C385.651 213.668 385.373 213.77 385.031 213.77ZM384.095 222.151V214.897H385.968V222.151H384.095ZM387.922 222.151V214.897H389.574L389.721 216.125C389.945 215.696 390.267 215.355 390.686 215.101C391.115 214.848 391.617 214.721 392.192 214.721C393.089 214.721 393.786 215.004 394.284 215.569C394.781 216.135 395.03 216.964 395.03 218.056V222.151H393.158V218.231C393.158 217.607 393.031 217.13 392.777 216.798C392.524 216.466 392.129 216.301 391.593 216.301C391.066 216.301 390.632 216.486 390.291 216.856C389.959 217.227 389.794 217.744 389.794 218.407V222.151H387.922ZM400.052 222.151C399.292 222.151 398.682 221.966 398.224 221.595C397.766 221.225 397.536 220.567 397.536 219.621V216.462H396.293V214.897H397.536L397.756 212.951H399.409V214.897H401.368V216.462H399.409V219.635C399.409 219.986 399.482 220.23 399.628 220.367C399.784 220.493 400.047 220.557 400.418 220.557H401.325V222.151H400.052ZM406.315 222.327C405.584 222.327 404.935 222.171 404.37 221.858C403.804 221.546 403.36 221.108 403.039 220.542C402.717 219.977 402.556 219.323 402.556 218.582C402.556 217.832 402.712 217.164 403.024 216.579C403.346 215.994 403.785 215.54 404.34 215.218C404.906 214.887 405.569 214.721 406.329 214.721C407.041 214.721 407.67 214.877 408.216 215.189C408.762 215.501 409.186 215.93 409.489 216.476C409.801 217.013 409.957 217.612 409.957 218.275C409.957 218.382 409.952 218.495 409.942 218.612C409.942 218.729 409.937 218.85 409.927 218.977H404.414C404.453 219.543 404.648 219.986 404.999 220.308C405.359 220.63 405.793 220.791 406.3 220.791C406.681 220.791 406.997 220.708 407.251 220.542C407.514 220.367 407.709 220.142 407.836 219.869H409.737C409.601 220.328 409.372 220.747 409.05 221.127C408.738 221.498 408.348 221.79 407.88 222.005C407.422 222.219 406.9 222.327 406.315 222.327ZM406.329 216.242C405.871 216.242 405.467 216.374 405.116 216.637C404.765 216.891 404.54 217.281 404.443 217.807H408.055C408.026 217.329 407.851 216.949 407.529 216.666C407.207 216.384 406.807 216.242 406.329 216.242ZM411.531 222.151V214.897H413.199L413.374 216.257C413.637 215.789 413.993 215.418 414.442 215.145C414.9 214.863 415.436 214.721 416.051 214.721V216.696H415.524C415.115 216.696 414.749 216.759 414.427 216.886C414.105 217.013 413.852 217.232 413.667 217.544C413.491 217.856 413.403 218.29 413.403 218.846V222.151H411.531Z" fill="#142A4B"/>
<rect x="343.182" y="137.377" width="152.525" height="119.547" rx="16.1927" stroke="#F8F1DF" stroke-width="1.04469"/>
</g>
<defs>
<filter id="filter0_d_1738_18829" x="59.9314" y="235.313" width="276.076" height="53.6674" filterUnits="userSpaceOnUse" color-interpolation-filters="sRGB">
<feFlood flood-opacity="0" result="BackgroundImageFix"/>
<feColorMatrix in="SourceAlpha" type="matrix" values="0 0 0 0 0 0 0 0 0 0 0 0 0 0 0 0 0 0 127 0" result="hardAlpha"/>
<feOffset dy="5.19362"/>
<feGaussianBlur stdDeviation="3.46241"/>
<feComposite in2="hardAlpha" operator="out"/>
<feColorMatrix type="matrix" values="0 0 0 0 0.898039 0 0 0 0 0.921569 0 0 0 0 0.964706 0 0 0 1 0"/>
<feBlend mode="normal" in2="BackgroundImageFix" result="effect1_dropShadow_1738_18829"/>
<feBlend mode="normal" in="SourceGraphic" in2="effect1_dropShadow_1738_18829" result="shape"/>
</filter>
<filter id="filter1_d_1738_18829" x="44.9745" y="294.981" width="316.006" height="73.0247" filterUnits="userSpaceOnUse" color-interpolation-filters="sRGB">
<feFlood flood-opacity="0" result="BackgroundImageFix"/>
<feColorMatrix in="SourceAlpha" type="matrix" values="0 0 0 0 0 0 0 0 0 0 0 0 0 0 0 0 0 0 127 0" result="hardAlpha"/>
<feOffset dx="3.01916" dy="4.02555"/>
<feGaussianBlur stdDeviation="3.52236"/>
<feComposite in2="hardAlpha" operator="out"/>
<feColorMatrix type="matrix" values="0 0 0 0 0 0 0 0 0 0 0 0 0 0 0 0 0 0 0.125 0"/>
<feBlend mode="normal" in2="BackgroundImageFix" result="effect1_dropShadow_1738_18829"/>
<feBlend mode="normal" in="SourceGraphic" in2="effect1_dropShadow_1738_18829" result="shape"/>
</filter>
<clipPath id="clip0_1738_18829">
<rect width="496.229" height="374" fill="white"/>
</clipPath>
<clipPath id="clip1_1738_18829">
<rect x="49.1006" width="301.916" height="357.285" rx="11.0194" fill="white"/>
</clipPath>
</defs>
</svg>
