<svg width="72" height="72" viewBox="0 0 72 72" fill="none" xmlns="http://www.w3.org/2000/svg">
<rect width="72" height="72" fill="white"/>
<rect x="27.803" y="54.1697" width="14.7358" height="4.72281" rx="2.36141" fill="#C0D1B9"/>
<path d="M56.8803 34.4106C58.7237 34.4106 60.242 35.9166 59.9217 37.7319C58.081 48.1649 47.7044 56.1556 35.1793 56.1556C22.6542 56.1556 12.2776 48.1649 10.4369 37.7319C10.1166 35.9166 11.6349 34.4106 13.4783 34.4106C17.8022 34.4106 25.9013 34.4106 35.1793 34.4106C44.4573 34.4106 52.5564 34.4106 56.8803 34.4106Z" fill="#C0D1B9"/>
<rect x="30.0479" y="53.4434" width="15.1684" height="3.8422" rx="1.9211" stroke="#403C3B" stroke-width="1.5"/>
<path d="M62.1885 31.093C63.901 31.093 65.156 32.4633 64.8902 33.9696C62.883 45.3462 51.5169 54.1898 37.6415 54.1898C23.766 54.1898 12.3999 45.3462 10.3927 33.9696C10.127 32.4633 11.3819 31.093 13.0944 31.093H13.1231H13.1519H13.1808H13.2098H13.2389H13.2681H13.2974H13.3268H13.3563H13.3859H13.4155H13.4453H13.4752H13.5051H13.5352H13.5654H13.5956H13.626H13.6564H13.6869H13.7176H13.7483H13.7791H13.8101H13.8411H13.8722H13.9034H13.9347H13.9661H13.9975H14.0291H14.0608H14.0926H14.1244H14.1564H14.1884H14.2206H14.2528H14.2851H14.3175H14.35H14.3826H14.4153H14.4481H14.481H14.514H14.547H14.5802H14.6134H14.6468H14.6802H14.7137H14.7473H14.781H14.8148H14.8487H14.8827H14.9167H14.9509H14.9851H15.0194H15.0539H15.0884H15.123H15.1577H15.1924H15.2273H15.2623H15.2973H15.3324H15.3677H15.403H15.4384H15.4739H15.5094H15.5451H15.5809H15.6167H15.6526H15.6886H15.7247H15.7609H15.7972H15.8336H15.87H15.9065H15.9432H15.9799H16.0167H16.0535H16.0905H16.1276H16.1647H16.2019H16.2392H16.2766H16.3141H16.3517H16.3893H16.427H16.4649H16.5028H16.5408H16.5788H16.617H16.6552H16.6935H16.732H16.7704H16.809H16.8477H16.8864H16.9252H16.9641H17.0031H17.0422H17.0814H17.1206H17.1599H17.1993H17.2388H17.2784H17.318H17.3577H17.3975H17.4374H17.4774H17.5175H17.5576H17.5978H17.6381H17.6785H17.7189H17.7595H17.8001H17.8408H17.8816H17.9224H17.9634H18.0044H18.0455H18.0866H18.1279H18.1692H18.2106H18.2521H18.2937H18.3353H18.3771H18.4189H18.4607H18.5027H18.5447H18.5869H18.629H18.6713H18.7137H18.7561H18.7986H18.8412H18.8838H18.9266H18.9694H19.0122H19.0552H19.0982H19.1414H19.1845H19.2278H19.2711H19.3146H19.358H19.4016H19.4453H19.489H19.5328H19.5766H19.6206H19.6646H19.7087H19.7528H19.7971H19.8414H19.8857H19.9302H19.9747H20.0193H20.064H20.1088H20.1536H20.1985H20.2434H20.2885H20.3336H20.3788H20.424H20.4694H20.5148H20.5602H20.6058H20.6514H20.6971H20.7429H20.7887H20.8346H20.8806H20.9266H20.9727H21.0189H21.0651H21.1115H21.1579H21.2043H21.2509H21.2975H21.3441H21.3909H21.4377H21.4846H21.5315H21.5785H21.6256H21.6728H21.72H21.7673H21.8147H21.8621H21.9096H21.9571H22.0048H22.0525H22.1002H22.1481H22.196H22.2439H22.292H22.3401H22.3883H22.4365H22.4848H22.5332H22.5816H22.6301H22.6787H22.7273H22.776H22.8247H22.8736H22.9225H22.9714H23.0204H23.0695H23.1187H23.1679H23.2172H23.2665H23.3159H23.3654H23.415H23.4646H23.5142H23.5639H23.6137H23.6636H23.7135H23.7635H23.8135H23.8636H23.9138H23.964H24.0143H24.0647H24.1151H24.1656H24.2161H24.2667H24.3174H24.3681H24.4189H24.4698H24.5207H24.5716H24.6227H24.6738H24.7249H24.7761H24.8274H24.8787H24.9301H24.9816H25.0331H25.0847H25.1363H25.188H25.2397H25.2915H25.3434H25.3953H25.4473H25.4994H25.5515H25.6036H25.6558H25.7081H25.7604H25.8128H25.8653H25.9178H25.9703H26.023H26.0756H26.1284H26.1812H26.234H26.2869H26.3399H26.3929H26.446H26.4991H26.5523H26.6055H26.6588H26.7122H26.7656H26.819H26.8726H26.9261H26.9798H27.0334H27.0872H27.141H27.1948H27.2487H27.3027H27.3567H27.4107H27.4649H27.519H27.5732H27.6275H27.6818H27.7362H27.7907H27.8451H27.8997H27.9543H28.0089H28.0636H28.1184H28.1732H28.228H28.2829L28.3379 31.093H28.3929H28.4479H28.503H28.5582H28.6134H28.6687H28.724H28.7793H28.8348H28.8902H28.9457H29.0013H29.0569H29.1126H29.1683H29.224H29.2799H29.3357H29.3916H29.4476H29.5036H29.5596H29.6157H29.6719H29.7281H29.7843H29.8406H29.897H29.9534H30.0098H30.0663H30.1228H30.1794H30.2361H30.2927H30.3494H30.4062H30.463H30.5199H30.5768H30.6338H30.6908H30.7478H30.8049H30.862H30.9192H30.9764H31.0337H31.091H31.1484H31.2058H31.2633H31.3208H31.3783H31.4359H31.4935H31.5512H31.6089H31.6667H31.7245H31.7823H31.8402H31.8982H31.9561H32.0142H32.0722H32.1303H32.1885H32.2467H32.3049H32.3632H32.4215H32.4799H32.5383H32.5967H32.6552H32.7137H32.7723H32.8309H32.8896H32.9483H33.007H33.0658H33.1246H33.1834H33.2423H33.3013H33.3602H33.4193H33.4783H33.5374H33.5965H33.6557H33.7149H33.7742H33.8335H33.8928H33.9522H34.0116H34.071H34.1305H34.19H34.2496H34.3092H34.3688H34.4285H34.4882H34.5479H34.6077H34.6675H34.7274H34.7873H34.8472H34.9072H34.9672H35.0272H35.0873H35.1474H35.2076H35.2678H35.328H35.3882H35.4485H35.5089H35.5692H35.6296H35.69H35.7505H35.811H35.8715H35.9321H35.9927H36.0534H36.114H36.1747H36.2355H36.2962H36.3571H36.4179H36.4788H36.5397H36.6006H36.6616H36.7226H36.7836H36.8447H36.9058H36.9669H37.0281H37.0893H37.1505H37.2118H37.2731H37.3344H37.3957H37.4571H37.5185H37.58H37.6415H37.7029H37.7644H37.8258H37.8872H37.9485H38.0099H38.0712H38.1324H38.1937H38.2549H38.316H38.3771H38.4382H38.4993H38.5604H38.6214H38.6823H38.7433H38.8042H38.865H38.9259H38.9867H39.0475H39.1082H39.1689H39.2296H39.2902H39.3508H39.4114H39.4719H39.5324H39.5929H39.6533H39.7137H39.7741H39.8344H39.8947H39.955H40.0152H40.0754H40.1355H40.1956H40.2557H40.3157H40.3758H40.4357H40.4957H40.5555H40.6154H40.6752H40.735H40.7948H40.8545H40.9141H40.9738H41.0334H41.0929H41.1524H41.2119H41.2714H41.3308H41.3901H41.4495H41.5088H41.568H41.6272H41.6864H41.7455H41.8046H41.8637H41.9227H41.9817H42.0406H42.0995H42.1584H42.2172H42.2759H42.3347H42.3934H42.452H42.5106H42.5692H42.6277H42.6862H42.7447H42.8031H42.8614H42.9198H42.978H43.0363H43.0945H43.1526H43.2107H43.2688H43.3268H43.3848H43.4427H43.5006H43.5585H43.6163H43.674H43.7317H43.7894H43.847H43.9046H43.9622H44.0197H44.0771H44.1345H44.1919H44.2492H44.3065H44.3637H44.4209H44.478H44.5351H44.5922H44.6492H44.7061H44.763H44.8199H44.8767H44.9335H44.9902H45.0469H45.1035H45.1601H45.2166H45.2731H45.3296H45.386H45.4423H45.4986H45.5548H45.611H45.6672H45.7233H45.7794H45.8354H45.8913H45.9472H46.0031H46.0589H46.1147H46.1704H46.226H46.2816H46.3372H46.3927H46.4482H46.5036H46.559H46.6143H46.6695H46.7247H46.7799H46.835H46.8901H46.9451H47H47.0549H47.1098H47.1646H47.2193H47.274H47.3287H47.3833H47.4378H47.4923H47.5467H47.6011H47.6554H47.7097H47.7639H47.8181H47.8722H47.9263H47.9803H48.0342H48.0881H48.142H48.1958H48.2495H48.3032H48.3568H48.4104H48.4639H48.5174H48.5708H48.6241H48.6774H48.7307H48.7838H48.837H48.89H48.9431H48.996H49.0489H49.1018H49.1546H49.2073H49.26H49.3126H49.3652H49.4177H49.4701H49.5225H49.5748H49.6271H49.6793H49.7315H49.7836H49.8356H49.8876H49.9395H49.9914H50.0432H50.095H50.1467H50.1983H50.2499H50.3014H50.3528H50.4042H50.4555H50.5068H50.558H50.6092H50.6603H50.7113H50.7623H50.8132H50.864H50.9148H50.9655H51.0162H51.0668H51.1174H51.1678H51.2183H51.2686H51.3189H51.3691H51.4193H51.4694H51.5195H51.5694H51.6193H51.6692H51.719H51.7687H51.8184H51.868H51.9175H51.967H52.0164H52.0658H52.115H52.1643H52.2134H52.2625H52.3115H52.3605H52.4094H52.4582H52.507H52.5557H52.6043H52.6528H52.7013H52.7498H52.7981H52.8465H52.8947H52.9429H52.991H53.039H53.087H53.1349H53.1827H53.2305H53.2782H53.3258H53.3734H53.4209H53.4683H53.5156H53.5629H53.6102H53.6573H53.7044H53.7514H53.7984H53.8452H53.8921H53.9388H53.9855H54.0321H54.0786H54.1251H54.1715H54.2178H54.264H54.3102H54.3563H54.4024H54.4484H54.4943H54.5401H54.5858H54.6315H54.6771H54.7227H54.7682H54.8136H54.8589H54.9042H54.9493H54.9944H55.0395H55.0845H55.1294H55.1742H55.2189H55.2636H55.3082H55.3527H55.3972H55.4416H55.4859H55.5301H55.5743H55.6184H55.6624H55.7063H55.7502H55.794H55.8377H55.8813H55.9249H55.9684H56.0118H56.0551H56.0984H56.1416H56.1847H56.2277H56.2707H56.3136H56.3564H56.3991H56.4418H56.4844H56.5269H56.5693H56.6116H56.6539H56.6961H56.7382H56.7802H56.8222H56.8641H56.9059H56.9476H56.9893H57.0308H57.0723H57.1137H57.1551H57.1963H57.2375H57.2786H57.3196H57.3605H57.4014H57.4422H57.4829H57.5235H57.564H57.6045H57.6448H57.6851H57.7253H57.7655H57.8055H57.8455H57.8854H57.9252H57.9649H58.0046H58.0441H58.0836H58.123H58.1623H58.2016H58.2407H58.2798H58.3188H58.3577H58.3965H58.4353H58.4739H58.5125H58.551H58.5894H58.6277H58.666H58.7041H58.7422H58.7802H58.8181H58.8559H58.8936H58.9313H58.9688H59.0063H59.0437H59.081H59.1182H59.1554H59.1924H59.2294H59.2663H59.3031H59.3398H59.3764H59.4129H59.4494H59.4857H59.522H59.5582H59.5943H59.6303H59.6662H59.7021H59.7378H59.7735H59.8091H59.8446H59.88H59.9153H59.9505H59.9856H60.0207H60.0556H60.0905H60.1253H60.16H60.1946H60.2291H60.2635H60.2978H60.3321H60.3662H60.4003H60.4343H60.4681H60.5019H60.5356H60.5692H60.6028H60.6362H60.6695H60.7028H60.7359H60.769H60.8019H60.8348H60.8676H60.9003H60.9329H60.9654H60.9978H61.0302H61.0624H61.0945H61.1266H61.1585H61.1904H61.2221H61.2538H61.2854H61.3169H61.3483H61.3796H61.4108H61.4419H61.4729H61.5038H61.5346H61.5654H61.596H61.6265H61.657H61.6873H61.7176H61.7477H61.7778H61.8078H61.8376H61.8674H61.8971H61.9267H61.9562H61.9855H62.0148H62.044H62.0731H62.1021H62.131H62.1598H62.1885Z" stroke="#403C3B" stroke-width="1.5"/>
<mask id="path-5-inside-1_1738_20081" fill="white">
<path fill-rule="evenodd" clip-rule="evenodd" d="M43.2978 25.9691C43.8874 23.3287 40.8395 20.4009 36.4901 19.4296C33.1812 18.6907 30.0722 19.2972 28.5145 20.7922L21.9751 19.332C21.8539 19.2681 21.7237 19.2169 21.5858 19.1804L9.50344 15.9812C8.48967 15.7128 7.45601 16.3411 7.22746 17.3646L6.98875 18.4335C6.76015 19.4573 7.42874 20.4657 8.46071 20.6538L20.7572 22.894C20.919 22.9235 21.0799 22.9309 21.2368 22.9184L27.7166 24.3653C28.4903 26.381 31.046 28.2524 34.355 28.9913C38.7044 29.9625 42.7082 28.6094 43.2978 25.9691Z"/>
</mask>
<path d="M28.5145 20.7922L28.1876 22.2562L28.9728 22.4315L29.5532 21.8744L28.5145 20.7922ZM21.9751 19.332L21.2762 20.6592L21.4531 20.7523L21.6482 20.7959L21.9751 19.332ZM21.5858 19.1804L21.9697 17.7303L21.9697 17.7303L21.5858 19.1804ZM9.50344 15.9812L9.1195 17.4313L9.1195 17.4313L9.50344 15.9812ZM7.22746 17.3646L5.76351 17.0377L7.22746 17.3646ZM6.98875 18.4335L8.4527 18.7604L6.98875 18.4335ZM8.46071 20.6538L8.72957 19.178L8.72957 19.178L8.46071 20.6538ZM20.7572 22.894L21.026 21.4183L21.026 21.4183L20.7572 22.894ZM21.2368 22.9184L21.5637 21.4544L21.3427 21.4051L21.117 21.4231L21.2368 22.9184ZM27.7166 24.3653L29.117 23.8278L28.8287 23.0767L28.0435 22.9014L27.7166 24.3653ZM36.1632 20.8936C38.1152 21.3295 39.7039 22.1916 40.707 23.1552C41.733 24.1408 41.9706 25.0297 41.8339 25.6422L44.7618 26.296C45.2146 24.268 44.2231 22.3729 42.7852 20.9917C41.3244 19.5884 39.2145 18.5011 36.817 17.9657L36.1632 20.8936ZM29.5532 21.8744C30.6044 20.8655 33.1113 20.2121 36.1632 20.8936L36.817 17.9657C33.251 17.1694 29.54 17.7288 27.4758 19.71L29.5532 21.8744ZM28.8414 19.3283L22.302 17.868L21.6482 20.7959L28.1876 22.2562L28.8414 19.3283ZM22.674 18.0047C22.4535 17.8886 22.2177 17.796 21.9697 17.7303L21.2018 20.6304C21.2296 20.6378 21.2542 20.6476 21.2762 20.6592L22.674 18.0047ZM21.9697 17.7303L9.88738 14.5312L9.1195 17.4313L21.2018 20.6304L21.9697 17.7303ZM9.88738 14.5312C8.05052 14.0449 6.17763 15.1832 5.76351 17.0377L8.6914 17.6915C8.73439 17.499 8.92882 17.3808 9.1195 17.4313L9.88738 14.5312ZM5.76351 17.0377L5.52481 18.1066L8.4527 18.7604L8.6914 17.6915L5.76351 17.0377ZM5.52481 18.1066C5.1106 19.9615 6.32202 21.7888 8.19186 22.1295L8.72957 19.178C8.53546 19.1427 8.4097 18.953 8.4527 18.7604L5.52481 18.1066ZM8.19186 22.1295L20.4883 24.3697L21.026 21.4183L8.72957 19.178L8.19186 22.1295ZM20.4883 24.3697C20.7795 24.4228 21.0711 24.4364 21.3565 24.4136L21.117 21.4231C21.0888 21.4254 21.0585 21.4242 21.026 21.4183L20.4883 24.3697ZM20.9099 24.3823L27.3897 25.8293L28.0435 22.9014L21.5637 21.4544L20.9099 24.3823ZM34.6819 27.5274C31.6299 26.8458 29.6391 25.1881 29.117 23.8278L26.3162 24.9029C27.3415 27.5739 30.4621 29.6589 34.0281 30.4552L34.6819 27.5274ZM41.8339 25.6422C41.6971 26.2546 41.1039 26.958 39.7561 27.4135C38.4384 27.8588 36.6338 27.9632 34.6819 27.5274L34.0281 30.4552C36.4255 30.9906 38.7976 30.9041 40.7166 30.2556C42.6054 29.6172 44.3089 28.3239 44.7618 26.296L41.8339 25.6422Z" fill="#403C3B" mask="url(#path-5-inside-1_1738_20081)"/>
</svg>
