<svg width="1036" height="120" viewBox="0 0 1036 120" fill="none" xmlns="http://www.w3.org/2000/svg">
<rect width="1036" height="120" rx="12" fill="white"/>
<line x1="418.5" y1="27.4929" x2="418.5" y2="91.5071" stroke="#F5EEDD"/>
<line x1="739.5" y1="27.4929" x2="739.5" y2="91.5071" stroke="#F5EEDD"/>
<path d="M75.7425 59.2914C82.0765 59.2914 87.4849 60.2955 87.4849 64.3139C87.4849 68.3306 82.1112 69.3714 75.7425 69.3714C69.4084 69.3714 64 68.3672 64 64.3505C64 60.3321 69.3737 59.2914 75.7425 59.2914ZM75.7425 39.835C80.055 39.835 83.5129 43.3097 83.5129 47.6489C83.5129 51.9865 80.055 55.4645 75.7425 55.4645C71.4299 55.4645 67.972 51.9865 67.972 47.6489C67.972 43.3097 71.4299 39.835 75.7425 39.835Z" fill="#97B0D7"/>
<path d="M77.4149 58.8574C84.0004 58.8574 89.6235 59.9015 89.6235 64.0793C89.6235 68.2555 84.0365 69.3376 77.4149 69.3376C70.8294 69.3376 65.2063 68.2935 65.2063 64.1174C65.2063 59.9395 70.7933 58.8574 77.4149 58.8574ZM77.4149 38.6287C81.8986 38.6287 85.4938 42.2413 85.4938 46.7528C85.4938 51.2626 81.8986 54.8787 77.4149 54.8787C72.9312 54.8787 69.336 51.2626 69.336 46.7528C69.336 42.2413 72.9312 38.6287 77.4149 38.6287Z" stroke="#403C3B" stroke-width="1.5"/>
<path d="M98.3269 44.9106L101.988 48.5717L98.3269 52.2328" stroke="#292D32" stroke-width="1.08566" stroke-miterlimit="10" stroke-linecap="round" stroke-linejoin="round"/>
<path d="M91.7346 48.5718H101.886" stroke="#292D32" stroke-width="1.08566" stroke-miterlimit="10" stroke-linecap="round" stroke-linejoin="round"/>
<path d="M95.3955 61.8831L91.7344 58.222L95.3955 54.5609" stroke="#292D32" stroke-width="1.08566" stroke-miterlimit="10" stroke-linecap="round" stroke-linejoin="round"/>
<path d="M101.988 58.2219H91.8369" stroke="#292D32" stroke-width="1.08566" stroke-miterlimit="10" stroke-linecap="round" stroke-linejoin="round"/>
<path d="M115.55 59.2914C121.884 59.2914 127.292 60.2955 127.292 64.3139C127.292 68.3306 121.919 69.3714 115.55 69.3714C109.216 69.3714 103.807 68.3672 103.807 64.3505C103.807 60.3321 109.181 59.2914 115.55 59.2914ZM115.55 39.835C119.862 39.835 123.32 43.3097 123.32 47.6489C123.32 51.9865 119.862 55.4645 115.55 55.4645C111.237 55.4645 107.779 51.9865 107.779 47.6489C107.779 43.3097 111.237 39.835 115.55 39.835Z" fill="#97B0D7"/>
<path d="M117.222 58.8574C123.808 58.8574 129.431 59.9015 129.431 64.0793C129.431 68.2555 123.844 69.3376 117.222 69.3376C110.637 69.3376 105.014 68.2935 105.014 64.1174C105.014 59.9395 110.601 58.8574 117.222 58.8574ZM117.222 38.6287C121.706 38.6287 125.301 42.2413 125.301 46.7528C125.301 51.2626 121.706 54.8787 117.222 54.8787C112.739 54.8787 109.143 51.2626 109.143 46.7528C109.143 42.2413 112.739 38.6287 117.222 38.6287Z" stroke="#403C3B" stroke-width="1.5"/>
<path d="M152.567 48V36.8H156.199C157.511 36.8 158.588 37.0293 159.431 37.488C160.284 37.9467 160.914 38.5973 161.319 39.44C161.735 40.272 161.943 41.264 161.943 42.416C161.943 43.5573 161.735 44.5493 161.319 45.392C160.914 46.224 160.284 46.8693 159.431 47.328C158.588 47.776 157.511 48 156.199 48H152.567ZM154.263 46.56H156.135C157.148 46.56 157.948 46.3947 158.535 46.064C159.132 45.7333 159.559 45.2587 159.815 44.64C160.082 44.0213 160.215 43.28 160.215 42.416C160.215 41.552 160.082 40.8053 159.815 40.176C159.559 39.5467 159.132 39.0667 158.535 38.736C157.948 38.3947 157.148 38.224 156.135 38.224H154.263V46.56ZM164.713 38.56C164.393 38.56 164.126 38.464 163.913 38.272C163.71 38.0693 163.609 37.8187 163.609 37.52C163.609 37.2213 163.71 36.976 163.913 36.784C164.126 36.5813 164.393 36.48 164.713 36.48C165.033 36.48 165.294 36.5813 165.497 36.784C165.71 36.976 165.817 37.2213 165.817 37.52C165.817 37.8187 165.71 38.0693 165.497 38.272C165.294 38.464 165.033 38.56 164.713 38.56ZM163.865 48V40.064H165.561V48H163.865ZM167.8 48V40.064H169.32L169.464 41.568C169.741 41.0453 170.125 40.6347 170.616 40.336C171.117 40.0267 171.72 39.872 172.424 39.872V41.648H171.96C171.49 41.648 171.069 41.728 170.696 41.888C170.333 42.0373 170.04 42.2987 169.816 42.672C169.602 43.0347 169.496 43.5413 169.496 44.192V48H167.8ZM177.371 48.192C176.592 48.192 175.899 48.0213 175.291 47.68C174.694 47.328 174.224 46.8427 173.883 46.224C173.542 45.6053 173.371 44.8853 173.371 44.064C173.371 43.232 173.536 42.5013 173.867 41.872C174.208 41.2427 174.678 40.752 175.275 40.4C175.883 40.048 176.587 39.872 177.387 39.872C178.166 39.872 178.843 40.048 179.419 40.4C179.995 40.7413 180.443 41.2 180.763 41.776C181.083 42.352 181.243 42.9867 181.243 43.68C181.243 43.7867 181.238 43.904 181.227 44.032C181.227 44.1493 181.222 44.2827 181.211 44.432H175.035C175.088 45.2 175.339 45.7867 175.787 46.192C176.246 46.5867 176.774 46.784 177.371 46.784C177.851 46.784 178.251 46.6773 178.571 46.464C178.902 46.24 179.147 45.9413 179.307 45.568H181.003C180.79 46.3147 180.363 46.9387 179.723 47.44C179.094 47.9413 178.31 48.192 177.371 48.192ZM177.371 41.264C176.806 41.264 176.304 41.4347 175.867 41.776C175.43 42.1067 175.163 42.608 175.067 43.28H179.547C179.515 42.6613 179.296 42.1707 178.891 41.808C178.486 41.4453 177.979 41.264 177.371 41.264ZM186.763 48.192C185.984 48.192 185.286 48.016 184.667 47.664C184.059 47.312 183.579 46.8267 183.227 46.208C182.886 45.5787 182.715 44.8533 182.715 44.032C182.715 43.2107 182.886 42.4907 183.227 41.872C183.579 41.2427 184.059 40.752 184.667 40.4C185.286 40.048 185.984 39.872 186.763 39.872C187.744 39.872 188.566 40.128 189.227 40.64C189.899 41.152 190.331 41.8453 190.523 42.72H188.747C188.64 42.2827 188.406 41.9413 188.043 41.696C187.68 41.4507 187.254 41.328 186.763 41.328C186.347 41.328 185.963 41.4347 185.611 41.648C185.259 41.8507 184.976 42.1547 184.763 42.56C184.55 42.9547 184.443 43.4453 184.443 44.032C184.443 44.6187 184.55 45.1147 184.763 45.52C184.976 45.9147 185.259 46.2187 185.611 46.432C185.963 46.6453 186.347 46.752 186.763 46.752C187.254 46.752 187.68 46.6293 188.043 46.384C188.406 46.1387 188.64 45.792 188.747 45.344H190.523C190.342 46.1973 189.915 46.8853 189.243 47.408C188.571 47.9307 187.744 48.192 186.763 48.192ZM195.534 48C194.755 48 194.137 47.8133 193.678 47.44C193.219 47.056 192.99 46.3787 192.99 45.408V41.488H191.63V40.064H192.99L193.198 38.048H194.686V40.064H196.926V41.488H194.686V45.408C194.686 45.8453 194.777 46.1493 194.958 46.32C195.15 46.48 195.475 46.56 195.934 46.56H196.846V48H195.534ZM206.466 48.192C205.687 48.192 204.989 48.016 204.37 47.664C203.762 47.312 203.282 46.8267 202.93 46.208C202.589 45.5787 202.418 44.8533 202.418 44.032C202.418 43.2107 202.589 42.4907 202.93 41.872C203.282 41.2427 203.762 40.752 204.37 40.4C204.989 40.048 205.687 39.872 206.466 39.872C207.447 39.872 208.269 40.128 208.93 40.64C209.602 41.152 210.034 41.8453 210.226 42.72H208.45C208.343 42.2827 208.109 41.9413 207.746 41.696C207.383 41.4507 206.957 41.328 206.466 41.328C206.05 41.328 205.666 41.4347 205.314 41.648C204.962 41.8507 204.679 42.1547 204.466 42.56C204.253 42.9547 204.146 43.4453 204.146 44.032C204.146 44.6187 204.253 45.1147 204.466 45.52C204.679 45.9147 204.962 46.2187 205.314 46.432C205.666 46.6453 206.05 46.752 206.466 46.752C206.957 46.752 207.383 46.6293 207.746 46.384C208.109 46.1387 208.343 45.792 208.45 45.344H210.226C210.045 46.1973 209.618 46.8853 208.946 47.408C208.274 47.9307 207.447 48.192 206.466 48.192ZM214.993 48.192C214.033 48.192 213.276 47.8933 212.721 47.296C212.177 46.6987 211.905 45.808 211.905 44.624V40.064H213.601V44.448C213.601 45.984 214.231 46.752 215.489 46.752C216.119 46.752 216.636 46.528 217.041 46.08C217.447 45.632 217.649 44.992 217.649 44.16V40.064H219.345V48H217.841L217.713 46.608C217.468 47.0987 217.105 47.488 216.625 47.776C216.156 48.0533 215.612 48.192 214.993 48.192ZM224.671 48.192C223.668 48.192 222.842 47.9467 222.191 47.456C221.54 46.9653 221.167 46.3147 221.071 45.504H222.783C222.868 45.8667 223.071 46.1813 223.391 46.448C223.711 46.704 224.132 46.832 224.655 46.832C225.167 46.832 225.54 46.7253 225.775 46.512C226.01 46.2987 226.127 46.0533 226.127 45.776C226.127 45.3707 225.962 45.0987 225.631 44.96C225.311 44.8107 224.863 44.6773 224.287 44.56C223.839 44.464 223.391 44.336 222.943 44.176C222.506 44.016 222.138 43.792 221.839 43.504C221.551 43.2053 221.407 42.8053 221.407 42.304C221.407 41.6107 221.674 41.0347 222.207 40.576C222.74 40.1067 223.487 39.872 224.447 39.872C225.332 39.872 226.047 40.0853 226.591 40.512C227.146 40.9387 227.471 41.5413 227.567 42.32H225.935C225.882 41.9787 225.722 41.712 225.455 41.52C225.199 41.328 224.852 41.232 224.415 41.232C223.988 41.232 223.658 41.3227 223.423 41.504C223.188 41.6747 223.071 41.8987 223.071 42.176C223.071 42.4533 223.231 42.672 223.551 42.832C223.882 42.992 224.314 43.136 224.847 43.264C225.38 43.3813 225.871 43.52 226.319 43.68C226.778 43.8293 227.146 44.0533 227.423 44.352C227.7 44.6507 227.839 45.088 227.839 45.664C227.85 46.3893 227.567 46.992 226.991 47.472C226.426 47.952 225.652 48.192 224.671 48.192ZM232.722 48C231.943 48 231.324 47.8133 230.866 47.44C230.407 47.056 230.178 46.3787 230.178 45.408V41.488H228.818V40.064H230.178L230.386 38.048H231.874V40.064H234.114V41.488H231.874V45.408C231.874 45.8453 231.964 46.1493 232.146 46.32C232.338 46.48 232.663 46.56 233.122 46.56H234.034V48H232.722ZM239.371 48.192C238.614 48.192 237.931 48.0213 237.323 47.68C236.726 47.328 236.251 46.8427 235.899 46.224C235.547 45.5947 235.371 44.864 235.371 44.032C235.371 43.2 235.547 42.4747 235.899 41.856C236.262 41.2267 236.747 40.7413 237.355 40.4C237.963 40.048 238.64 39.872 239.387 39.872C240.144 39.872 240.822 40.048 241.419 40.4C242.027 40.7413 242.507 41.2267 242.859 41.856C243.222 42.4747 243.403 43.2 243.403 44.032C243.403 44.864 243.222 45.5947 242.859 46.224C242.507 46.8427 242.027 47.328 241.419 47.68C240.811 48.0213 240.128 48.192 239.371 48.192ZM239.371 46.736C239.776 46.736 240.15 46.6347 240.491 46.432C240.843 46.2293 241.126 45.9307 241.339 45.536C241.552 45.1307 241.659 44.6293 241.659 44.032C241.659 43.4347 241.552 42.9387 241.339 42.544C241.136 42.1387 240.859 41.8347 240.507 41.632C240.166 41.4293 239.792 41.328 239.387 41.328C238.982 41.328 238.603 41.4293 238.251 41.632C237.91 41.8347 237.632 42.1387 237.419 42.544C237.206 42.9387 237.099 43.4347 237.099 44.032C237.099 44.6293 237.206 45.1307 237.419 45.536C237.632 45.9307 237.91 46.2293 238.251 46.432C238.592 46.6347 238.966 46.736 239.371 46.736ZM245.237 48V40.064H246.741L246.885 41.184C247.141 40.7787 247.477 40.4587 247.893 40.224C248.32 39.9893 248.811 39.872 249.365 39.872C250.624 39.872 251.499 40.368 251.989 41.36C252.277 40.9013 252.661 40.5387 253.141 40.272C253.632 40.0053 254.16 39.872 254.725 39.872C255.717 39.872 256.496 40.1707 257.061 40.768C257.627 41.3653 257.909 42.256 257.909 43.44V48H256.213V43.616C256.213 42.08 255.627 41.312 254.453 41.312C253.856 41.312 253.365 41.536 252.981 41.984C252.608 42.432 252.421 43.072 252.421 43.904V48H250.725V43.616C250.725 42.08 250.133 41.312 248.949 41.312C248.363 41.312 247.877 41.536 247.493 41.984C247.12 42.432 246.933 43.072 246.933 43.904V48H245.237ZM263.606 48.192C262.827 48.192 262.134 48.0213 261.526 47.68C260.928 47.328 260.459 46.8427 260.118 46.224C259.776 45.6053 259.606 44.8853 259.606 44.064C259.606 43.232 259.771 42.5013 260.102 41.872C260.443 41.2427 260.912 40.752 261.51 40.4C262.118 40.048 262.822 39.872 263.622 39.872C264.4 39.872 265.078 40.048 265.654 40.4C266.23 40.7413 266.678 41.2 266.998 41.776C267.318 42.352 267.478 42.9867 267.478 43.68C267.478 43.7867 267.472 43.904 267.462 44.032C267.462 44.1493 267.456 44.2827 267.446 44.432H261.27C261.323 45.2 261.574 45.7867 262.022 46.192C262.48 46.5867 263.008 46.784 263.606 46.784C264.086 46.784 264.486 46.6773 264.806 46.464C265.136 46.24 265.382 45.9413 265.542 45.568H267.238C267.024 46.3147 266.598 46.9387 265.958 47.44C265.328 47.9413 264.544 48.192 263.606 48.192ZM263.606 41.264C263.04 41.264 262.539 41.4347 262.102 41.776C261.664 42.1067 261.398 42.608 261.302 43.28H265.782C265.75 42.6613 265.531 42.1707 265.126 41.808C264.72 41.4453 264.214 41.264 263.606 41.264ZM269.237 48V40.064H270.757L270.901 41.568C271.179 41.0453 271.563 40.6347 272.053 40.336C272.555 40.0267 273.157 39.872 273.861 39.872V41.648H273.397C272.928 41.648 272.507 41.728 272.133 41.888C271.771 42.0373 271.477 42.2987 271.253 42.672C271.04 43.0347 270.933 43.5413 270.933 44.192V48H269.237ZM283.107 48.192C282.328 48.192 281.629 48.016 281.011 47.664C280.403 47.312 279.923 46.8267 279.571 46.208C279.229 45.5787 279.059 44.8533 279.059 44.032C279.059 43.2107 279.229 42.4907 279.571 41.872C279.923 41.2427 280.403 40.752 281.011 40.4C281.629 40.048 282.328 39.872 283.107 39.872C284.088 39.872 284.909 40.128 285.571 40.64C286.243 41.152 286.675 41.8453 286.867 42.72H285.091C284.984 42.2827 284.749 41.9413 284.387 41.696C284.024 41.4507 283.597 41.328 283.107 41.328C282.691 41.328 282.307 41.4347 281.955 41.648C281.603 41.8507 281.32 42.1547 281.107 42.56C280.893 42.9547 280.787 43.4453 280.787 44.032C280.787 44.6187 280.893 45.1147 281.107 45.52C281.32 45.9147 281.603 46.2187 281.955 46.432C282.307 46.6453 282.691 46.752 283.107 46.752C283.597 46.752 284.024 46.6293 284.387 46.384C284.749 46.1387 284.984 45.792 285.091 45.344H286.867C286.685 46.1973 286.259 46.8853 285.587 47.408C284.915 47.9307 284.088 48.192 283.107 48.192ZM292.418 48.192C291.661 48.192 290.978 48.0213 290.37 47.68C289.773 47.328 289.298 46.8427 288.946 46.224C288.594 45.5947 288.418 44.864 288.418 44.032C288.418 43.2 288.594 42.4747 288.946 41.856C289.309 41.2267 289.794 40.7413 290.402 40.4C291.01 40.048 291.687 39.872 292.434 39.872C293.191 39.872 293.869 40.048 294.466 40.4C295.074 40.7413 295.554 41.2267 295.906 41.856C296.269 42.4747 296.45 43.2 296.45 44.032C296.45 44.864 296.269 45.5947 295.906 46.224C295.554 46.8427 295.074 47.328 294.466 47.68C293.858 48.0213 293.175 48.192 292.418 48.192ZM292.418 46.736C292.823 46.736 293.197 46.6347 293.538 46.432C293.89 46.2293 294.173 45.9307 294.386 45.536C294.599 45.1307 294.706 44.6293 294.706 44.032C294.706 43.4347 294.599 42.9387 294.386 42.544C294.183 42.1387 293.906 41.8347 293.554 41.632C293.213 41.4293 292.839 41.328 292.434 41.328C292.029 41.328 291.65 41.4293 291.298 41.632C290.957 41.8347 290.679 42.1387 290.466 42.544C290.253 42.9387 290.146 43.4347 290.146 44.032C290.146 44.6293 290.253 45.1307 290.466 45.536C290.679 45.9307 290.957 46.2293 291.298 46.432C291.639 46.6347 292.013 46.736 292.418 46.736ZM298.284 48V40.064H299.788L299.916 41.456C300.161 40.9653 300.519 40.5813 300.988 40.304C301.468 40.016 302.017 39.872 302.636 39.872C303.596 39.872 304.348 40.1707 304.892 40.768C305.447 41.3653 305.724 42.256 305.724 43.44V48H304.044V43.616C304.044 42.08 303.415 41.312 302.156 41.312C301.527 41.312 301.004 41.536 300.588 41.984C300.183 42.432 299.98 43.072 299.98 43.904V48H298.284ZM311.05 48C310.271 48 309.652 47.8133 309.194 47.44C308.735 47.056 308.506 46.3787 308.506 45.408V41.488H307.146V40.064H308.506L308.714 38.048H310.202V40.064H312.442V41.488H310.202V45.408C310.202 45.8453 310.292 46.1493 310.474 46.32C310.666 46.48 310.991 46.56 311.45 46.56H312.362V48H311.05ZM316.878 48.192C316.206 48.192 315.652 48.08 315.214 47.856C314.777 47.632 314.452 47.3387 314.238 46.976C314.025 46.6027 313.918 46.1973 313.918 45.76C313.918 44.992 314.217 44.384 314.814 43.936C315.412 43.488 316.265 43.264 317.374 43.264H319.454V43.12C319.454 42.5013 319.284 42.0373 318.942 41.728C318.612 41.4187 318.18 41.264 317.646 41.264C317.177 41.264 316.766 41.3813 316.414 41.616C316.073 41.84 315.865 42.176 315.79 42.624H314.094C314.148 42.048 314.34 41.5573 314.67 41.152C315.012 40.736 315.438 40.4213 315.95 40.208C316.473 39.984 317.044 39.872 317.662 39.872C318.772 39.872 319.63 40.1653 320.238 40.752C320.846 41.328 321.15 42.1173 321.15 43.12V48H319.678L319.534 46.64C319.31 47.0773 318.985 47.4453 318.558 47.744C318.132 48.0427 317.572 48.192 316.878 48.192ZM317.214 46.816C317.673 46.816 318.057 46.7093 318.366 46.496C318.686 46.272 318.932 45.9787 319.102 45.616C319.284 45.2533 319.396 44.8533 319.438 44.416H317.55C316.878 44.416 316.398 44.5333 316.11 44.768C315.833 45.0027 315.694 45.296 315.694 45.648C315.694 46.0107 315.828 46.2987 316.094 46.512C316.372 46.7147 316.745 46.816 317.214 46.816ZM326.888 48.192C326.109 48.192 325.411 48.016 324.792 47.664C324.184 47.312 323.704 46.8267 323.352 46.208C323.011 45.5787 322.84 44.8533 322.84 44.032C322.84 43.2107 323.011 42.4907 323.352 41.872C323.704 41.2427 324.184 40.752 324.792 40.4C325.411 40.048 326.109 39.872 326.888 39.872C327.869 39.872 328.691 40.128 329.352 40.64C330.024 41.152 330.456 41.8453 330.648 42.72H328.872C328.765 42.2827 328.531 41.9413 328.168 41.696C327.805 41.4507 327.379 41.328 326.888 41.328C326.472 41.328 326.088 41.4347 325.736 41.648C325.384 41.8507 325.101 42.1547 324.888 42.56C324.675 42.9547 324.568 43.4453 324.568 44.032C324.568 44.6187 324.675 45.1147 324.888 45.52C325.101 45.9147 325.384 46.2187 325.736 46.432C326.088 46.6453 326.472 46.752 326.888 46.752C327.379 46.752 327.805 46.6293 328.168 46.384C328.531 46.1387 328.765 45.792 328.872 45.344H330.648C330.467 46.1973 330.04 46.8853 329.368 47.408C328.696 47.9307 327.869 48.192 326.888 48.192ZM335.659 48C334.88 48 334.262 47.8133 333.803 47.44C333.344 47.056 333.115 46.3787 333.115 45.408V41.488H331.755V40.064H333.115L333.323 38.048H334.811V40.064H337.051V41.488H334.811V45.408C334.811 45.8453 334.902 46.1493 335.083 46.32C335.275 46.48 335.6 46.56 336.059 46.56H336.971V48H335.659ZM338.481 49.888L339.409 46.112H341.089L339.617 49.888H338.481ZM152.503 70V62.064H154.007L154.135 63.456C154.38 62.9653 154.738 62.5813 155.207 62.304C155.687 62.016 156.236 61.872 156.855 61.872C157.815 61.872 158.567 62.1707 159.111 62.768C159.666 63.3653 159.943 64.256 159.943 65.44V70H158.263V65.616C158.263 64.08 157.634 63.312 156.375 63.312C155.746 63.312 155.223 63.536 154.807 63.984C154.402 64.432 154.199 65.072 154.199 65.904V70H152.503ZM165.652 70.192C164.895 70.192 164.212 70.0213 163.604 69.68C163.007 69.328 162.532 68.8427 162.18 68.224C161.828 67.5947 161.652 66.864 161.652 66.032C161.652 65.2 161.828 64.4747 162.18 63.856C162.543 63.2267 163.028 62.7413 163.636 62.4C164.244 62.048 164.922 61.872 165.668 61.872C166.426 61.872 167.103 62.048 167.7 62.4C168.308 62.7413 168.788 63.2267 169.14 63.856C169.503 64.4747 169.684 65.2 169.684 66.032C169.684 66.864 169.503 67.5947 169.14 68.224C168.788 68.8427 168.308 69.328 167.7 69.68C167.092 70.0213 166.41 70.192 165.652 70.192ZM165.652 68.736C166.058 68.736 166.431 68.6347 166.772 68.432C167.124 68.2293 167.407 67.9307 167.62 67.536C167.834 67.1307 167.94 66.6293 167.94 66.032C167.94 65.4347 167.834 64.9387 167.62 64.544C167.418 64.1387 167.14 63.8347 166.788 63.632C166.447 63.4293 166.074 63.328 165.668 63.328C165.263 63.328 164.884 63.4293 164.532 63.632C164.191 63.8347 163.914 64.1387 163.7 64.544C163.487 64.9387 163.38 65.4347 163.38 66.032C163.38 66.6293 163.487 67.1307 163.7 67.536C163.914 67.9307 164.191 68.2293 164.532 68.432C164.874 68.6347 165.247 68.736 165.652 68.736ZM179.166 70.192C178.398 70.192 177.72 70.0107 177.134 69.648C176.547 69.2853 176.088 68.7893 175.758 68.16C175.427 67.5307 175.262 66.816 175.262 66.016C175.262 65.216 175.427 64.5067 175.758 63.888C176.088 63.2587 176.547 62.768 177.134 62.416C177.731 62.0533 178.414 61.872 179.182 61.872C179.811 61.872 180.36 61.9947 180.83 62.24C181.31 62.4853 181.683 62.832 181.95 63.28V58.48H183.646V70H182.126L181.95 68.768C181.694 69.1413 181.342 69.472 180.894 69.76C180.446 70.048 179.87 70.192 179.166 70.192ZM179.47 68.72C180.195 68.72 180.787 68.4693 181.246 67.968C181.715 67.4667 181.95 66.8213 181.95 66.032C181.95 65.232 181.715 64.5867 181.246 64.096C180.787 63.5947 180.195 63.344 179.47 63.344C178.744 63.344 178.147 63.5947 177.678 64.096C177.208 64.5867 176.974 65.232 176.974 66.032C176.974 66.5547 177.08 67.0187 177.294 67.424C177.507 67.8293 177.8 68.1493 178.174 68.384C178.558 68.608 178.99 68.72 179.47 68.72ZM189.496 70.192C188.717 70.192 188.024 70.0213 187.416 69.68C186.819 69.328 186.349 68.8427 186.008 68.224C185.667 67.6053 185.496 66.8853 185.496 66.064C185.496 65.232 185.661 64.5013 185.992 63.872C186.333 63.2427 186.803 62.752 187.4 62.4C188.008 62.048 188.712 61.872 189.512 61.872C190.291 61.872 190.968 62.048 191.544 62.4C192.12 62.7413 192.568 63.2 192.888 63.776C193.208 64.352 193.368 64.9867 193.368 65.68C193.368 65.7867 193.363 65.904 193.352 66.032C193.352 66.1493 193.347 66.2827 193.336 66.432H187.16C187.213 67.2 187.464 67.7867 187.912 68.192C188.371 68.5867 188.899 68.784 189.496 68.784C189.976 68.784 190.376 68.6773 190.696 68.464C191.027 68.24 191.272 67.9413 191.432 67.568H193.128C192.915 68.3147 192.488 68.9387 191.848 69.44C191.219 69.9413 190.435 70.192 189.496 70.192ZM189.496 63.264C188.931 63.264 188.429 63.4347 187.992 63.776C187.555 64.1067 187.288 64.608 187.192 65.28H191.672C191.64 64.6613 191.421 64.1707 191.016 63.808C190.611 63.4453 190.104 63.264 189.496 63.264ZM195.128 70V58.48H196.824V70H195.128ZM199.932 60.56C199.612 60.56 199.345 60.464 199.132 60.272C198.929 60.0693 198.828 59.8187 198.828 59.52C198.828 59.2213 198.929 58.976 199.132 58.784C199.345 58.5813 199.612 58.48 199.932 58.48C200.252 58.48 200.513 58.5813 200.716 58.784C200.929 58.976 201.036 59.2213 201.036 59.52C201.036 59.8187 200.929 60.0693 200.716 60.272C200.513 60.464 200.252 60.56 199.932 60.56ZM199.084 70V62.064H200.78V70H199.084ZM205.243 70L202.267 62.064H204.043L206.251 68.384L208.459 62.064H210.219L207.259 70H205.243ZM214.918 70.192C214.139 70.192 213.446 70.0213 212.838 69.68C212.241 69.328 211.771 68.8427 211.43 68.224C211.089 67.6053 210.918 66.8853 210.918 66.064C210.918 65.232 211.083 64.5013 211.414 63.872C211.755 63.2427 212.225 62.752 212.822 62.4C213.43 62.048 214.134 61.872 214.934 61.872C215.713 61.872 216.39 62.048 216.966 62.4C217.542 62.7413 217.99 63.2 218.31 63.776C218.63 64.352 218.79 64.9867 218.79 65.68C218.79 65.7867 218.785 65.904 218.774 66.032C218.774 66.1493 218.769 66.2827 218.758 66.432H212.582C212.635 67.2 212.886 67.7867 213.334 68.192C213.793 68.5867 214.321 68.784 214.918 68.784C215.398 68.784 215.798 68.6773 216.118 68.464C216.449 68.24 216.694 67.9413 216.854 67.568H218.55C218.337 68.3147 217.91 68.9387 217.27 69.44C216.641 69.9413 215.857 70.192 214.918 70.192ZM214.918 63.264C214.353 63.264 213.851 63.4347 213.414 63.776C212.977 64.1067 212.71 64.608 212.614 65.28H217.094C217.062 64.6613 216.843 64.1707 216.438 63.808C216.033 63.4453 215.526 63.264 214.918 63.264ZM220.55 70V62.064H222.07L222.214 63.568C222.491 63.0453 222.875 62.6347 223.366 62.336C223.867 62.0267 224.47 61.872 225.174 61.872V63.648H224.71C224.24 63.648 223.819 63.728 223.446 63.888C223.083 64.0373 222.79 64.2987 222.566 64.672C222.352 65.0347 222.246 65.5413 222.246 66.192V70H220.55ZM227.556 73.52L229.46 69.344H228.996L225.86 62.064H227.7L230.132 67.936L232.676 62.064H234.468L229.348 73.52H227.556ZM239.894 73.52V62.064H241.414L241.59 63.296C241.846 62.9227 242.198 62.592 242.646 62.304C243.094 62.016 243.67 61.872 244.374 61.872C245.142 61.872 245.819 62.0533 246.406 62.416C246.992 62.7787 247.451 63.2747 247.782 63.904C248.123 64.5333 248.294 65.248 248.294 66.048C248.294 66.848 248.123 67.5627 247.782 68.192C247.451 68.8107 246.992 69.3013 246.406 69.664C245.819 70.016 245.136 70.192 244.358 70.192C243.739 70.192 243.19 70.0693 242.71 69.824C242.24 69.5787 241.867 69.232 241.59 68.784V73.52H239.894ZM244.07 68.72C244.795 68.72 245.392 68.4747 245.862 67.984C246.331 67.4827 246.566 66.832 246.566 66.032C246.566 65.5093 246.459 65.0453 246.246 64.64C246.032 64.2347 245.739 63.92 245.366 63.696C244.992 63.4613 244.56 63.344 244.07 63.344C243.344 63.344 242.747 63.5947 242.278 64.096C241.819 64.5973 241.59 65.2427 241.59 66.032C241.59 66.832 241.819 67.4827 242.278 67.984C242.747 68.4747 243.344 68.72 244.07 68.72ZM252.816 70.192C252.144 70.192 251.589 70.08 251.152 69.856C250.715 69.632 250.389 69.3387 250.176 68.976C249.963 68.6027 249.856 68.1973 249.856 67.76C249.856 66.992 250.155 66.384 250.752 65.936C251.349 65.488 252.203 65.264 253.312 65.264H255.392V65.12C255.392 64.5013 255.221 64.0373 254.88 63.728C254.549 63.4187 254.117 63.264 253.584 63.264C253.115 63.264 252.704 63.3813 252.352 63.616C252.011 63.84 251.803 64.176 251.728 64.624H250.032C250.085 64.048 250.277 63.5573 250.608 63.152C250.949 62.736 251.376 62.4213 251.888 62.208C252.411 61.984 252.981 61.872 253.6 61.872C254.709 61.872 255.568 62.1653 256.176 62.752C256.784 63.328 257.088 64.1173 257.088 65.12V70H255.616L255.472 68.64C255.248 69.0773 254.923 69.4453 254.496 69.744C254.069 70.0427 253.509 70.192 252.816 70.192ZM253.152 68.816C253.611 68.816 253.995 68.7093 254.304 68.496C254.624 68.272 254.869 67.9787 255.04 67.616C255.221 67.2533 255.333 66.8533 255.376 66.416H253.488C252.816 66.416 252.336 66.5333 252.048 66.768C251.771 67.0027 251.632 67.296 251.632 67.648C251.632 68.0107 251.765 68.2987 252.032 68.512C252.309 68.7147 252.683 68.816 253.152 68.816ZM259.065 70V62.064H260.585L260.729 63.568C261.007 63.0453 261.391 62.6347 261.881 62.336C262.383 62.0267 262.985 61.872 263.689 61.872V63.648H263.225C262.756 63.648 262.335 63.728 261.961 63.888C261.599 64.0373 261.305 64.2987 261.081 64.672C260.868 65.0347 260.761 65.5413 260.761 66.192V70H259.065ZM268.472 70C267.693 70 267.074 69.8133 266.616 69.44C266.157 69.056 265.928 68.3787 265.928 67.408V63.488H264.568V62.064H265.928L266.136 60.048H267.624V62.064H269.864V63.488H267.624V67.408C267.624 67.8453 267.714 68.1493 267.896 68.32C268.088 68.48 268.413 68.56 268.872 68.56H269.784V70H268.472ZM271.612 70V62.064H273.116L273.244 63.456C273.49 62.9653 273.847 62.5813 274.316 62.304C274.796 62.016 275.346 61.872 275.964 61.872C276.924 61.872 277.676 62.1707 278.22 62.768C278.775 63.3653 279.052 64.256 279.052 65.44V70H277.372V65.616C277.372 64.08 276.743 63.312 275.484 63.312C274.855 63.312 274.332 63.536 273.916 63.984C273.511 64.432 273.308 65.072 273.308 65.904V70H271.612ZM284.762 70.192C283.983 70.192 283.29 70.0213 282.682 69.68C282.084 69.328 281.615 68.8427 281.274 68.224C280.932 67.6053 280.762 66.8853 280.762 66.064C280.762 65.232 280.927 64.5013 281.258 63.872C281.599 63.2427 282.068 62.752 282.666 62.4C283.274 62.048 283.978 61.872 284.778 61.872C285.556 61.872 286.234 62.048 286.81 62.4C287.386 62.7413 287.834 63.2 288.154 63.776C288.474 64.352 288.634 64.9867 288.634 65.68C288.634 65.7867 288.628 65.904 288.618 66.032C288.618 66.1493 288.612 66.2827 288.602 66.432H282.426C282.479 67.2 282.73 67.7867 283.178 68.192C283.636 68.5867 284.164 68.784 284.762 68.784C285.242 68.784 285.642 68.6773 285.962 68.464C286.292 68.24 286.538 67.9413 286.698 67.568H288.394C288.18 68.3147 287.754 68.9387 287.114 69.44C286.484 69.9413 285.7 70.192 284.762 70.192ZM284.762 63.264C284.196 63.264 283.695 63.4347 283.258 63.776C282.82 64.1067 282.554 64.608 282.458 65.28H286.938C286.906 64.6613 286.687 64.1707 286.282 63.808C285.876 63.4453 285.37 63.264 284.762 63.264ZM290.394 70V62.064H291.914L292.058 63.568C292.335 63.0453 292.719 62.6347 293.21 62.336C293.711 62.0267 294.314 61.872 295.018 61.872V63.648H294.554C294.084 63.648 293.663 63.728 293.29 63.888C292.927 64.0373 292.634 64.2987 292.41 64.672C292.196 65.0347 292.09 65.5413 292.09 66.192V70H290.394ZM299.64 70.192C298.637 70.192 297.81 69.9467 297.16 69.456C296.509 68.9653 296.136 68.3147 296.04 67.504H297.752C297.837 67.8667 298.04 68.1813 298.36 68.448C298.68 68.704 299.101 68.832 299.624 68.832C300.136 68.832 300.509 68.7253 300.744 68.512C300.978 68.2987 301.096 68.0533 301.096 67.776C301.096 67.3707 300.93 67.0987 300.6 66.96C300.28 66.8107 299.832 66.6773 299.256 66.56C298.808 66.464 298.36 66.336 297.912 66.176C297.474 66.016 297.106 65.792 296.808 65.504C296.52 65.2053 296.376 64.8053 296.376 64.304C296.376 63.6107 296.642 63.0347 297.176 62.576C297.709 62.1067 298.456 61.872 299.416 61.872C300.301 61.872 301.016 62.0853 301.56 62.512C302.114 62.9387 302.44 63.5413 302.536 64.32H300.904C300.85 63.9787 300.69 63.712 300.424 63.52C300.168 63.328 299.821 63.232 299.384 63.232C298.957 63.232 298.626 63.3227 298.392 63.504C298.157 63.6747 298.04 63.8987 298.04 64.176C298.04 64.4533 298.2 64.672 298.52 64.832C298.85 64.992 299.282 65.136 299.816 65.264C300.349 65.3813 300.84 65.52 301.288 65.68C301.746 65.8293 302.114 66.0533 302.392 66.352C302.669 66.6507 302.808 67.088 302.808 67.664C302.818 68.3893 302.536 68.992 301.96 69.472C301.394 69.952 300.621 70.192 299.64 70.192Z" fill="black"/>
<rect x="483.76" y="72.0623" width="14.7358" height="4.72281" rx="2.36141" fill="#C0D1B9"/>
<path d="M512.837 52.3032C514.681 52.3032 516.199 53.8092 515.879 55.6245C514.038 66.0575 503.661 74.0482 491.136 74.0482C478.611 74.0482 468.235 66.0575 466.394 55.6245C466.074 53.8092 467.592 52.3032 469.435 52.3032C473.759 52.3032 481.858 52.3032 491.136 52.3032C500.414 52.3032 508.513 52.3032 512.837 52.3032Z" fill="#C0D1B9"/>
<rect x="486.005" y="71.3359" width="15.1684" height="3.8422" rx="1.9211" stroke="#403C3B" stroke-width="1.5"/>
<path d="M518.146 48.9856C519.858 48.9856 521.113 50.3559 520.847 51.8621C518.84 63.2387 507.474 72.0824 493.599 72.0824C479.723 72.0824 468.357 63.2387 466.35 51.8621C466.084 50.3559 467.339 48.9856 469.051 48.9856H469.08H469.109H469.138H469.167H469.196H469.225H469.254H469.284H469.313H469.343H469.373H469.402H469.432H469.462H469.492H469.522H469.553H469.583H469.613H469.644H469.675H469.705H469.736H469.767H469.798H469.829H469.86H469.892H469.923H469.955H469.986H470.018H470.05H470.081H470.113H470.145H470.178H470.21H470.242H470.275H470.307H470.34H470.372H470.405H470.438H470.471H470.504H470.537H470.57H470.604H470.637H470.671H470.704H470.738H470.772H470.806H470.84H470.874H470.908H470.942H470.976H471.011H471.045H471.08H471.115H471.149H471.184H471.219H471.254H471.289H471.325H471.36H471.395H471.431H471.466H471.502H471.538H471.574H471.61H471.646H471.682H471.718H471.754H471.791H471.827H471.864H471.9H471.937H471.974H472.011H472.048H472.085H472.122H472.159H472.196H472.234H472.271H472.309H472.346H472.384H472.422H472.46H472.498H472.536H472.574H472.612H472.651H472.689H472.727H472.766H472.805H472.843H472.882H472.921H472.96H472.999H473.038H473.078H473.117H473.156H473.196H473.235H473.275H473.315H473.355H473.394H473.434H473.474H473.515H473.555H473.595H473.636H473.676H473.717H473.757H473.798H473.839H473.879H473.92H473.961H474.002H474.044H474.085H474.126H474.168H474.209H474.251H474.292H474.334H474.376H474.418H474.46H474.502H474.544H474.586H474.628H474.671H474.713H474.756H474.798H474.841H474.884H474.926H474.969H475.012H475.055H475.098H475.142H475.185H475.228H475.272H475.315H475.359H475.402H475.446H475.49H475.534H475.578H475.622H475.666H475.71H475.754H475.798H475.843H475.887H475.932H475.976H476.021H476.066H476.111H476.156H476.2H476.246H476.291H476.336H476.381H476.426H476.472H476.517H476.563H476.608H476.654H476.7H476.746H476.792H476.838H476.884H476.93H476.976H477.022H477.069H477.115H477.161H477.208H477.254H477.301H477.348H477.395H477.442H477.489H477.536H477.583H477.63H477.677H477.724H477.772H477.819H477.867H477.914H477.962H478.01H478.057H478.105H478.153H478.201H478.249H478.297H478.345H478.394H478.442H478.49H478.539H478.587H478.636H478.684H478.733H478.782H478.831H478.879H478.928H478.977H479.027H479.076H479.125H479.174H479.224H479.273H479.322H479.372H479.422H479.471H479.521H479.571H479.621H479.671H479.721H479.771H479.821H479.871H479.921H479.971H480.022H480.072H480.123H480.173H480.224H480.274H480.325H480.376H480.427H480.478H480.529H480.58H480.631H480.682H480.733H480.784H480.836H480.887H480.939H480.99H481.042H481.093H481.145H481.197H481.249H481.3H481.352H481.404H481.456H481.508H481.561H481.613H481.665H481.717H481.77H481.822H481.875H481.927H481.98H482.033H482.085H482.138H482.191H482.244H482.297H482.35H482.403H482.456H482.509H482.563H482.616H482.669H482.723H482.776H482.83H482.883H482.937H482.99H483.044H483.098H483.152H483.206H483.26H483.314H483.368H483.422H483.476H483.53H483.585H483.639H483.693H483.748H483.802H483.857H483.911H483.966H484.021H484.075H484.13H484.185H484.24H484.295H484.35H484.405H484.46H484.515H484.57H484.626H484.681H484.736H484.792H484.847H484.903H484.958H485.014H485.07H485.125H485.181H485.237H485.293H485.349H485.405H485.461H485.517H485.573H485.629H485.685H485.741H485.798H485.854H485.91H485.967H486.023H486.08H486.136H486.193H486.25H486.306H486.363H486.42H486.477H486.534H486.591H486.648H486.705H486.762H486.819H486.876H486.933H486.991H487.048H487.105H487.163H487.22H487.278H487.335H487.393H487.451H487.508H487.566H487.624H487.682H487.739H487.797H487.855H487.913H487.971H488.029H488.087H488.146H488.204H488.262H488.32H488.379H488.437H488.495H488.554H488.612H488.671H488.729H488.788H488.847H488.905H488.964H489.023H489.082H489.14H489.199H489.258H489.317H489.376H489.435H489.494H489.554H489.613H489.672H489.731H489.79H489.85H489.909H489.969H490.028H490.088H490.147H490.207H490.266H490.326H490.386H490.445H490.505H490.565H490.625H490.684H490.744H490.804H490.864H490.924H490.984H491.044H491.104H491.165H491.225H491.285H491.345H491.406H491.466H491.526H491.587H491.647H491.708H491.768H491.829H491.889H491.95H492.01H492.071H492.132H492.193H492.253H492.314H492.375H492.436H492.497H492.558H492.619H492.68H492.741H492.802H492.863H492.924H492.985H493.046H493.108H493.169H493.23H493.291H493.353H493.414H493.476H493.537H493.599H493.66H493.721H493.783H493.844H493.906H493.967H494.028H494.089H494.151H494.212H494.273H494.334H494.395H494.456H494.517H494.578H494.639H494.7H494.761H494.822H494.883H494.944H495.004H495.065H495.126H495.187H495.247H495.308H495.368H495.429H495.489H495.55H495.61H495.671H495.731H495.791H495.852H495.912H495.972H496.032H496.093H496.153H496.213H496.273H496.333H496.393H496.453H496.513H496.572H496.632H496.692H496.752H496.811H496.871H496.931H496.99H497.05H497.109H497.169H497.228H497.288H497.347H497.407H497.466H497.525H497.584H497.643H497.703H497.762H497.821H497.88H497.939H497.998H498.057H498.115H498.174H498.233H498.292H498.35H498.409H498.468H498.526H498.585H498.643H498.702H498.76H498.818H498.877H498.935H498.993H499.051H499.11H499.168H499.226H499.284H499.342H499.4H499.458H499.515H499.573H499.631H499.689H499.746H499.804H499.862H499.919H499.977H500.034H500.092H500.149H500.206H500.264H500.321H500.378H500.435H500.492H500.549H500.606H500.663H500.72H500.777H500.834H500.891H500.947H501.004H501.061H501.117H501.174H501.23H501.287H501.343H501.399H501.456H501.512H501.568H501.624H501.68H501.736H501.792H501.848H501.904H501.96H502.016H502.072H502.127H502.183H502.239H502.294H502.35H502.405H502.461H502.516H502.571H502.627H502.682L502.737 48.9856H502.792H502.847H502.902H502.957H503.012H503.067H503.122H503.176H503.231H503.286H503.34H503.395H503.449H503.504H503.558H503.612H503.667H503.721H503.775H503.829H503.883H503.937H503.991H504.045H504.099H504.153H504.207H504.26H504.314H504.367H504.421H504.474H504.528H504.581H504.634H504.688H504.741H504.794H504.847H504.9H504.953H505.006H505.059H505.112H505.164H505.217H505.27H505.322H505.375H505.427H505.48H505.532H505.584H505.636H505.689H505.741H505.793H505.845H505.897H505.948H506H506.052H506.104H506.155H506.207H506.258H506.31H506.361H506.413H506.464H506.515H506.566H506.617H506.668H506.719H506.77H506.821H506.872H506.923H506.973H507.024H507.074H507.125H507.175H507.226H507.276H507.326H507.376H507.426H507.476H507.526H507.576H507.626H507.676H507.726H507.775H507.825H507.875H507.924H507.973H508.023H508.072H508.121H508.17H508.22H508.269H508.318H508.366H508.415H508.464H508.513H508.561H508.61H508.658H508.707H508.755H508.803H508.852H508.9H508.948H508.996H509.044H509.092H509.14H509.187H509.235H509.283H509.33H509.378H509.425H509.473H509.52H509.567H509.614H509.661H509.708H509.755H509.802H509.849H509.896H509.943H509.989H510.036H510.082H510.128H510.175H510.221H510.267H510.313H510.359H510.405H510.451H510.497H510.543H510.589H510.634H510.68H510.725H510.771H510.816H510.861H510.906H510.951H510.997H511.041H511.086H511.131H511.176H511.221H511.265H511.31H511.354H511.399H511.443H511.487H511.531H511.575H511.619H511.663H511.707H511.751H511.795H511.838H511.882H511.925H511.969H512.012H512.055H512.099H512.142H512.185H512.228H512.271H512.313H512.356H512.399H512.441H512.484H512.526H512.569H512.611H512.653H512.695H512.737H512.779H512.821H512.863H512.905H512.946H512.988H513.029H513.071H513.112H513.153H513.195H513.236H513.277H513.318H513.358H513.399H513.44H513.48H513.521H513.561H513.602H513.642H513.682H513.723H513.763H513.803H513.842H513.882H513.922H513.962H514.001H514.041H514.08H514.119H514.159H514.198H514.237H514.276H514.315H514.354H514.392H514.431H514.47H514.508H514.546H514.585H514.623H514.661H514.699H514.737H514.775H514.813H514.851H514.888H514.926H514.963H515.001H515.038H515.075H515.112H515.149H515.186H515.223H515.26H515.297H515.333H515.37H515.406H515.443H515.479H515.515H515.551H515.587H515.623H515.659H515.695H515.731H515.766H515.802H515.837H515.872H515.908H515.943H515.978H516.013H516.048H516.082H516.117H516.152H516.186H516.221H516.255H516.289H516.323H516.357H516.391H516.425H516.459H516.493H516.526H516.56H516.593H516.627H516.66H516.693H516.726H516.759H516.792H516.825H516.857H516.89H516.922H516.955H516.987H517.019H517.052H517.084H517.116H517.147H517.179H517.211H517.242H517.274H517.305H517.337H517.368H517.399H517.43H517.461H517.492H517.522H517.553H517.584H517.614H517.644H517.675H517.705H517.735H517.765H517.795H517.824H517.854H517.884H517.913H517.943H517.972H518.001H518.03H518.059H518.088H518.117H518.146Z" stroke="#403C3B" stroke-width="1.5"/>
<mask id="path-17-inside-1_1_2876" fill="white">
<path fill-rule="evenodd" clip-rule="evenodd" d="M499.255 43.8616C499.844 41.2213 496.797 38.2935 492.447 37.3222C489.138 36.5833 486.029 37.1897 484.472 38.6848L477.932 37.2245C477.811 37.1607 477.681 37.1095 477.543 37.073L465.46 33.8738C464.447 33.6054 463.413 34.2337 463.184 35.2571L462.946 36.3261C462.717 37.3498 463.386 38.3583 464.418 38.5463L476.714 40.7866C476.876 40.8161 477.037 40.8235 477.194 40.8109L483.674 42.2579C484.447 44.2736 487.003 46.145 490.312 46.8839C494.661 47.8551 498.665 46.502 499.255 43.8616Z"/>
</mask>
<path d="M484.472 38.6848L484.145 40.1488L484.93 40.3241L485.51 39.767L484.472 38.6848ZM477.932 37.2245L477.233 38.5518L477.41 38.6449L477.605 38.6885L477.932 37.2245ZM477.543 37.073L477.927 35.6229L477.927 35.6229L477.543 37.073ZM465.46 33.8738L465.077 35.3239L465.077 35.3239L465.46 33.8738ZM463.184 35.2571L464.648 35.5841L463.184 35.2571ZM462.946 36.3261L461.482 35.9992L462.946 36.3261ZM464.418 38.5463L464.687 37.0706L464.687 37.0706L464.418 38.5463ZM476.714 40.7866L476.983 39.3109L476.983 39.3109L476.714 40.7866ZM477.194 40.8109L477.521 39.347L477.3 39.2976L477.074 39.3157L477.194 40.8109ZM483.674 42.2579L485.074 41.7204L484.786 40.9693L484.001 40.794L483.674 42.2579ZM492.12 38.7862C494.072 39.222 495.661 40.0842 496.664 41.0478C497.69 42.0334 497.928 42.9223 497.791 43.5347L500.719 44.1885C501.172 42.1606 500.18 40.2655 498.742 38.8842C497.281 37.481 495.172 36.3936 492.774 35.8583L492.12 38.7862ZM485.51 39.767C486.561 38.758 489.068 38.1046 492.12 38.7862L492.774 35.8583C489.208 35.062 485.497 35.6214 483.433 37.6026L485.51 39.767ZM484.798 37.2209L478.259 35.7606L477.605 38.6885L484.145 40.1488L484.798 37.2209ZM478.631 35.8973C478.411 35.7812 478.175 35.6886 477.927 35.6229L477.159 38.523C477.187 38.5303 477.211 38.5402 477.233 38.5518L478.631 35.8973ZM477.927 35.6229L465.844 32.4238L465.077 35.3239L477.159 38.523L477.927 35.6229ZM465.844 32.4238C464.008 31.9374 462.135 33.0758 461.721 34.9302L464.648 35.5841C464.691 35.3915 464.886 35.2734 465.077 35.3239L465.844 32.4238ZM461.721 34.9302L461.482 35.9992L464.41 36.653L464.648 35.5841L461.721 34.9302ZM461.482 35.9992C461.068 37.8541 462.279 39.6814 464.149 40.022L464.687 37.0706C464.492 37.0353 464.367 36.8456 464.41 36.653L461.482 35.9992ZM464.149 40.022L476.445 42.2623L476.983 39.3109L464.687 37.0706L464.149 40.022ZM476.445 42.2623C476.737 42.3154 477.028 42.329 477.314 42.3061L477.074 39.3157C477.046 39.318 477.016 39.3168 476.983 39.3109L476.445 42.2623ZM476.867 42.2749L483.347 43.7219L484.001 40.794L477.521 39.347L476.867 42.2749ZM490.639 45.4199C487.587 44.7384 485.596 43.0807 485.074 41.7204L482.273 42.7954C483.299 45.4665 486.419 47.5515 489.985 48.3478L490.639 45.4199ZM497.791 43.5347C497.654 44.1472 497.061 44.8506 495.713 45.3061C494.395 45.7514 492.591 45.8558 490.639 45.4199L489.985 48.3478C492.383 48.8832 494.755 48.7967 496.674 48.1482C498.562 47.5098 500.266 46.2165 500.719 44.1885L497.791 43.5347Z" fill="#403C3B" mask="url(#path-17-inside-1_1_2876)"/>
<path d="M536.05 47.8926V36.6926H538.05L541.842 44.1486L545.618 36.6926H547.618V47.8926H545.922V39.6206L542.498 46.2926H541.186L537.746 39.6366V47.8926H536.05ZM552.518 48.0846C551.846 48.0846 551.291 47.9726 550.854 47.7486C550.416 47.5246 550.091 47.2312 549.878 46.8686C549.664 46.4952 549.558 46.0899 549.558 45.6526C549.558 44.8846 549.856 44.2766 550.454 43.8286C551.051 43.3806 551.904 43.1566 553.014 43.1566H555.094V43.0126C555.094 42.3939 554.923 41.9299 554.582 41.6206C554.251 41.3112 553.819 41.1566 553.286 41.1566C552.816 41.1566 552.406 41.2739 552.054 41.5086C551.712 41.7326 551.504 42.0686 551.43 42.5166H549.734C549.787 41.9406 549.979 41.4499 550.31 41.0446C550.651 40.6286 551.078 40.3139 551.59 40.1006C552.112 39.8766 552.683 39.7646 553.302 39.7646C554.411 39.7646 555.27 40.0579 555.878 40.6446C556.486 41.2206 556.79 42.0099 556.79 43.0126V47.8926H555.318L555.174 46.5326C554.95 46.9699 554.624 47.3379 554.198 47.6366C553.771 47.9352 553.211 48.0846 552.518 48.0846ZM552.854 46.7086C553.312 46.7086 553.696 46.6019 554.006 46.3886C554.326 46.1646 554.571 45.8712 554.742 45.5086C554.923 45.1459 555.035 44.7459 555.078 44.3086H553.19C552.518 44.3086 552.038 44.4259 551.75 44.6606C551.472 44.8952 551.334 45.1886 551.334 45.5406C551.334 45.9032 551.467 46.1912 551.734 46.4046C552.011 46.6072 552.384 46.7086 552.854 46.7086ZM557.999 47.8926L560.815 43.9246L557.999 39.9566H559.807L561.935 42.9966L564.047 39.9566H565.871L563.055 43.9246L565.871 47.8926H564.047L561.935 44.8526L559.807 47.8926H557.999ZM568.212 38.4526C567.892 38.4526 567.625 38.3566 567.412 38.1646C567.209 37.9619 567.108 37.7112 567.108 37.4126C567.108 37.1139 567.209 36.8686 567.412 36.6766C567.625 36.4739 567.892 36.3726 568.212 36.3726C568.532 36.3726 568.793 36.4739 568.996 36.6766C569.209 36.8686 569.316 37.1139 569.316 37.4126C569.316 37.7112 569.209 37.9619 568.996 38.1646C568.793 38.3566 568.532 38.4526 568.212 38.4526ZM567.364 47.8926V39.9566H569.06V47.8926H567.364ZM571.299 47.8926V39.9566H572.803L572.947 41.0766C573.203 40.6712 573.539 40.3512 573.955 40.1166C574.381 39.8819 574.872 39.7646 575.427 39.7646C576.685 39.7646 577.56 40.2606 578.051 41.2526C578.339 40.7939 578.723 40.4312 579.203 40.1646C579.693 39.8979 580.221 39.7646 580.787 39.7646C581.779 39.7646 582.557 40.0632 583.123 40.6606C583.688 41.2579 583.971 42.1486 583.971 43.3326V47.8926H582.275V43.5086C582.275 41.9726 581.688 41.2046 580.515 41.2046C579.917 41.2046 579.427 41.4286 579.043 41.8766C578.669 42.3246 578.483 42.9646 578.483 43.7966V47.8926H576.787V43.5086C576.787 41.9726 576.195 41.2046 575.011 41.2046C574.424 41.2046 573.939 41.4286 573.555 41.8766C573.181 42.3246 572.995 42.9646 572.995 43.7966V47.8926H571.299ZM586.915 38.4526C586.595 38.4526 586.328 38.3566 586.115 38.1646C585.912 37.9619 585.811 37.7112 585.811 37.4126C585.811 37.1139 585.912 36.8686 586.115 36.6766C586.328 36.4739 586.595 36.3726 586.915 36.3726C587.235 36.3726 587.496 36.4739 587.699 36.6766C587.912 36.8686 588.019 37.1139 588.019 37.4126C588.019 37.7112 587.912 37.9619 587.699 38.1646C587.496 38.3566 587.235 38.4526 586.915 38.4526ZM586.067 47.8926V39.9566H587.763V47.8926H586.067ZM593.17 48.0846C592.167 48.0846 591.34 47.8392 590.69 47.3486C590.039 46.8579 589.666 46.2072 589.57 45.3966H591.282C591.367 45.7592 591.57 46.0739 591.89 46.3406C592.21 46.5966 592.631 46.7246 593.154 46.7246C593.666 46.7246 594.039 46.6179 594.274 46.4046C594.508 46.1912 594.626 45.9459 594.626 45.6686C594.626 45.2632 594.46 44.9912 594.13 44.8526C593.81 44.7032 593.362 44.5699 592.786 44.4526C592.338 44.3566 591.89 44.2286 591.442 44.0686C591.004 43.9086 590.636 43.6846 590.338 43.3966C590.05 43.0979 589.906 42.6979 589.906 42.1966C589.906 41.5032 590.172 40.9272 590.706 40.4686C591.239 39.9992 591.986 39.7646 592.946 39.7646C593.831 39.7646 594.546 39.9779 595.09 40.4046C595.644 40.8312 595.97 41.4339 596.066 42.2126H594.434C594.38 41.8712 594.22 41.6046 593.954 41.4126C593.698 41.2206 593.351 41.1246 592.914 41.1246C592.487 41.1246 592.156 41.2152 591.922 41.3966C591.687 41.5672 591.57 41.7912 591.57 42.0686C591.57 42.3459 591.73 42.5646 592.05 42.7246C592.38 42.8846 592.812 43.0286 593.346 43.1566C593.879 43.2739 594.37 43.4126 594.818 43.5726C595.276 43.7219 595.644 43.9459 595.922 44.2446C596.199 44.5432 596.338 44.9806 596.338 45.5566C596.348 46.2819 596.066 46.8846 595.49 47.3646C594.924 47.8446 594.151 48.0846 593.17 48.0846ZM601.901 48.0846C601.123 48.0846 600.429 47.9139 599.821 47.5726C599.224 47.2206 598.755 46.7352 598.413 46.1166C598.072 45.4979 597.901 44.7779 597.901 43.9566C597.901 43.1246 598.067 42.3939 598.397 41.7646C598.739 41.1352 599.208 40.6446 599.805 40.2926C600.413 39.9406 601.117 39.7646 601.917 39.7646C602.696 39.7646 603.373 39.9406 603.949 40.2926C604.525 40.6339 604.973 41.0926 605.293 41.6686C605.613 42.2446 605.773 42.8792 605.773 43.5726C605.773 43.6792 605.768 43.7966 605.757 43.9246C605.757 44.0419 605.752 44.1752 605.741 44.3246H599.565C599.619 45.0926 599.869 45.6792 600.317 46.0846C600.776 46.4792 601.304 46.6766 601.901 46.6766C602.381 46.6766 602.781 46.5699 603.101 46.3566C603.432 46.1326 603.677 45.8339 603.837 45.4606H605.533C605.32 46.2072 604.893 46.8312 604.253 47.3326C603.624 47.8339 602.84 48.0846 601.901 48.0846ZM601.901 41.1566C601.336 41.1566 600.835 41.3272 600.397 41.6686C599.96 41.9992 599.693 42.5006 599.597 43.1726H604.077C604.045 42.5539 603.827 42.0632 603.421 41.7006C603.016 41.3379 602.509 41.1566 601.901 41.1566ZM611.564 47.8926V36.3726H613.26V43.2366L616.3 39.9566H618.332L614.956 43.5566L618.828 47.8926H616.684L613.26 43.8286V47.8926H611.564ZM621.102 38.4526C620.782 38.4526 620.516 38.3566 620.302 38.1646C620.1 37.9619 619.998 37.7112 619.998 37.4126C619.998 37.1139 620.1 36.8686 620.302 36.6766C620.516 36.4739 620.782 36.3726 621.102 36.3726C621.422 36.3726 621.684 36.4739 621.886 36.6766C622.1 36.8686 622.206 37.1139 622.206 37.4126C622.206 37.7112 622.1 37.9619 621.886 38.1646C621.684 38.3566 621.422 38.4526 621.102 38.4526ZM620.254 47.8926V39.9566H621.95V47.8926H620.254ZM627.517 47.8926C626.739 47.8926 626.12 47.7059 625.661 47.3326C625.203 46.9486 624.973 46.2712 624.973 45.3006V41.3806H623.613V39.9566H624.973L625.181 37.9406H626.669V39.9566H628.909V41.3806H626.669V45.3006C626.669 45.7379 626.76 46.0419 626.941 46.2126C627.133 46.3726 627.459 46.4526 627.917 46.4526H628.829V47.8926H627.517ZM634.215 48.0846C633.436 48.0846 632.737 47.9086 632.119 47.5566C631.511 47.2046 631.031 46.7192 630.679 46.1006C630.337 45.4712 630.167 44.7459 630.167 43.9246C630.167 43.1032 630.337 42.3832 630.679 41.7646C631.031 41.1352 631.511 40.6446 632.119 40.2926C632.737 39.9406 633.436 39.7646 634.215 39.7646C635.196 39.7646 636.017 40.0206 636.679 40.5326C637.351 41.0446 637.783 41.7379 637.975 42.6126H636.199C636.092 42.1752 635.857 41.8339 635.495 41.5886C635.132 41.3432 634.705 41.2206 634.215 41.2206C633.799 41.2206 633.415 41.3272 633.063 41.5406C632.711 41.7432 632.428 42.0472 632.215 42.4526C632.001 42.8472 631.895 43.3379 631.895 43.9246C631.895 44.5112 632.001 45.0072 632.215 45.4126C632.428 45.8072 632.711 46.1112 633.063 46.3246C633.415 46.5379 633.799 46.6446 634.215 46.6446C634.705 46.6446 635.132 46.5219 635.495 46.2766C635.857 46.0312 636.092 45.6846 636.199 45.2366H637.975C637.793 46.0899 637.367 46.7779 636.695 47.3006C636.023 47.8232 635.196 48.0846 634.215 48.0846ZM639.814 47.8926V36.3726H641.51V41.2366C641.777 40.7779 642.145 40.4206 642.614 40.1646C643.094 39.8979 643.622 39.7646 644.198 39.7646C645.148 39.7646 645.894 40.0632 646.438 40.6606C646.982 41.2579 647.254 42.1486 647.254 43.3326V47.8926H645.574V43.5086C645.574 41.9726 644.961 41.2046 643.734 41.2046C643.094 41.2046 642.561 41.4286 642.134 41.8766C641.718 42.3246 641.51 42.9646 641.51 43.7966V47.8926H639.814ZM652.964 48.0846C652.185 48.0846 651.492 47.9139 650.884 47.5726C650.286 47.2206 649.817 46.7352 649.476 46.1166C649.134 45.4979 648.964 44.7779 648.964 43.9566C648.964 43.1246 649.129 42.3939 649.46 41.7646C649.801 41.1352 650.27 40.6446 650.868 40.2926C651.476 39.9406 652.18 39.7646 652.98 39.7646C653.758 39.7646 654.436 39.9406 655.012 40.2926C655.588 40.6339 656.036 41.0926 656.356 41.6686C656.676 42.2446 656.836 42.8792 656.836 43.5726C656.836 43.6792 656.83 43.7966 656.82 43.9246C656.82 44.0419 656.814 44.1752 656.804 44.3246H650.628C650.681 45.0926 650.932 45.6792 651.38 46.0846C651.838 46.4792 652.366 46.6766 652.964 46.6766C653.444 46.6766 653.844 46.5699 654.164 46.3566C654.494 46.1326 654.74 45.8339 654.9 45.4606H656.596C656.382 46.2072 655.956 46.8312 655.316 47.3326C654.686 47.8339 653.902 48.0846 652.964 48.0846ZM652.964 41.1566C652.398 41.1566 651.897 41.3272 651.46 41.6686C651.022 41.9992 650.756 42.5006 650.66 43.1726H655.14C655.108 42.5539 654.889 42.0632 654.484 41.7006C654.078 41.3379 653.572 41.1566 652.964 41.1566ZM658.595 47.8926V39.9566H660.099L660.227 41.3486C660.473 40.8579 660.83 40.4739 661.299 40.1966C661.779 39.9086 662.329 39.7646 662.947 39.7646C663.907 39.7646 664.659 40.0632 665.203 40.6606C665.758 41.2579 666.035 42.1486 666.035 43.3326V47.8926H664.355V43.5086C664.355 41.9726 663.726 41.2046 662.467 41.2046C661.838 41.2046 661.315 41.4286 660.899 41.8766C660.494 42.3246 660.291 42.9646 660.291 43.7966V47.8926H658.595ZM539.154 70.0846C538.151 70.0846 537.325 69.8392 536.674 69.3486C536.023 68.8579 535.65 68.2072 535.554 67.3966H537.266C537.351 67.7592 537.554 68.0739 537.874 68.3406C538.194 68.5966 538.615 68.7246 539.138 68.7246C539.65 68.7246 540.023 68.6179 540.258 68.4046C540.493 68.1912 540.61 67.9459 540.61 67.6686C540.61 67.2632 540.445 66.9912 540.114 66.8526C539.794 66.7032 539.346 66.5699 538.77 66.4526C538.322 66.3566 537.874 66.2286 537.426 66.0686C536.989 65.9086 536.621 65.6846 536.322 65.3966C536.034 65.0979 535.89 64.6979 535.89 64.1966C535.89 63.5032 536.157 62.9272 536.69 62.4686C537.223 61.9992 537.97 61.7646 538.93 61.7646C539.815 61.7646 540.53 61.9779 541.074 62.4046C541.629 62.8312 541.954 63.4339 542.05 64.2126H540.418C540.365 63.8712 540.205 63.6046 539.938 63.4126C539.682 63.2206 539.335 63.1246 538.898 63.1246C538.471 63.1246 538.141 63.2152 537.906 63.3966C537.671 63.5672 537.554 63.7912 537.554 64.0686C537.554 64.3459 537.714 64.5646 538.034 64.7246C538.365 64.8846 538.797 65.0286 539.33 65.1566C539.863 65.2739 540.354 65.4126 540.802 65.5726C541.261 65.7219 541.629 65.9459 541.906 66.2446C542.183 66.5432 542.322 66.9806 542.322 67.5566C542.333 68.2819 542.05 68.8846 541.474 69.3646C540.909 69.8446 540.135 70.0846 539.154 70.0846ZM547.205 69.8926C546.426 69.8926 545.807 69.7059 545.349 69.3326C544.89 68.9486 544.661 68.2712 544.661 67.3006V63.3806H543.301V61.9566H544.661L544.869 59.9406H546.357V61.9566H548.597V63.3806H546.357V67.3006C546.357 67.7379 546.447 68.0419 546.629 68.2126C546.821 68.3726 547.146 68.4526 547.605 68.4526H548.517V69.8926H547.205ZM553.033 70.0846C552.361 70.0846 551.807 69.9726 551.369 69.7486C550.932 69.5246 550.607 69.2312 550.393 68.8686C550.18 68.4952 550.073 68.0899 550.073 67.6526C550.073 66.8846 550.372 66.2766 550.969 65.8286C551.567 65.3806 552.42 65.1566 553.529 65.1566H555.609V65.0126C555.609 64.3939 555.439 63.9299 555.097 63.6206C554.767 63.3112 554.335 63.1566 553.801 63.1566C553.332 63.1566 552.921 63.2739 552.569 63.5086C552.228 63.7326 552.02 64.0686 551.945 64.5166H550.249C550.303 63.9406 550.495 63.4499 550.825 63.0446C551.167 62.6286 551.593 62.3139 552.105 62.1006C552.628 61.8766 553.199 61.7646 553.817 61.7646C554.927 61.7646 555.785 62.0579 556.393 62.6446C557.001 63.2206 557.305 64.0099 557.305 65.0126V69.8926H555.833L555.689 68.5326C555.465 68.9699 555.14 69.3379 554.713 69.6366C554.287 69.9352 553.727 70.0846 553.033 70.0846ZM553.369 68.7086C553.828 68.7086 554.212 68.6019 554.521 68.3886C554.841 68.1646 555.087 67.8712 555.257 67.5086C555.439 67.1459 555.551 66.7459 555.593 66.3086H553.705C553.033 66.3086 552.553 66.4259 552.265 66.6606C551.988 66.8952 551.849 67.1886 551.849 67.5406C551.849 67.9032 551.983 68.1912 552.249 68.4046C552.527 68.6072 552.9 68.7086 553.369 68.7086ZM559.683 69.8926V63.3806H558.547V61.9566H559.683V60.8046C559.683 59.9406 559.896 59.3219 560.323 58.9486C560.76 58.5646 561.374 58.3726 562.163 58.3726H562.995V59.8126H562.419C562.046 59.8126 561.779 59.8926 561.619 60.0526C561.459 60.2019 561.379 60.4579 561.379 60.8206V61.9566H563.203V63.3806H561.379V69.8926H559.683ZM565.214 69.8926V63.3806H564.078V61.9566H565.214V60.8046C565.214 59.9406 565.428 59.3219 565.854 58.9486C566.292 58.5646 566.905 58.3726 567.694 58.3726H568.526V59.8126H567.95C567.577 59.8126 567.31 59.8926 567.15 60.0526C566.99 60.2019 566.91 60.4579 566.91 60.8206V61.9566H568.734V63.3806H566.91V69.8926H565.214ZM577.305 70.0846C576.345 70.0846 575.587 69.7859 575.033 69.1886C574.489 68.5912 574.217 67.7006 574.217 66.5166V61.9566H575.913V66.3406C575.913 67.8766 576.542 68.6446 577.801 68.6446C578.43 68.6446 578.947 68.4206 579.353 67.9726C579.758 67.5246 579.961 66.8846 579.961 66.0526V61.9566H581.657V69.8926H580.153L580.025 68.5006C579.779 68.9912 579.417 69.3806 578.937 69.6686C578.467 69.9459 577.923 70.0846 577.305 70.0846ZM587.142 69.8926C586.364 69.8926 585.745 69.7059 585.286 69.3326C584.828 68.9486 584.598 68.2712 584.598 67.3006V63.3806H583.238V61.9566H584.598L584.806 59.9406H586.294V61.9566H588.534V63.3806H586.294V67.3006C586.294 67.7379 586.385 68.0419 586.566 68.2126C586.758 68.3726 587.084 68.4526 587.542 68.4526H588.454V69.8926H587.142ZM591.243 60.4526C590.923 60.4526 590.656 60.3566 590.443 60.1646C590.24 59.9619 590.139 59.7112 590.139 59.4126C590.139 59.1139 590.24 58.8686 590.443 58.6766C590.656 58.4739 590.923 58.3726 591.243 58.3726C591.563 58.3726 591.824 58.4739 592.027 58.6766C592.24 58.8686 592.347 59.1139 592.347 59.4126C592.347 59.7112 592.24 59.9619 592.027 60.1646C591.824 60.3566 591.563 60.4526 591.243 60.4526ZM590.395 69.8926V61.9566H592.091V69.8926H590.395ZM594.33 69.8926V58.3726H596.026V69.8926H594.33ZM599.134 60.4526C598.814 60.4526 598.547 60.3566 598.334 60.1646C598.131 59.9619 598.03 59.7112 598.03 59.4126C598.03 59.1139 598.131 58.8686 598.334 58.6766C598.547 58.4739 598.814 58.3726 599.134 58.3726C599.454 58.3726 599.715 58.4739 599.918 58.6766C600.131 58.8686 600.238 59.1139 600.238 59.4126C600.238 59.7112 600.131 59.9619 599.918 60.1646C599.715 60.3566 599.454 60.4526 599.134 60.4526ZM598.286 69.8926V61.9566H599.982V69.8926H598.286ZM605.388 70.0846C604.386 70.0846 603.559 69.8392 602.908 69.3486C602.258 68.8579 601.884 68.2072 601.788 67.3966H603.5C603.586 67.7592 603.788 68.0739 604.108 68.3406C604.428 68.5966 604.85 68.7246 605.372 68.7246C605.884 68.7246 606.258 68.6179 606.492 68.4046C606.727 68.1912 606.844 67.9459 606.844 67.6686C606.844 67.2632 606.679 66.9912 606.348 66.8526C606.028 66.7032 605.58 66.5699 605.004 66.4526C604.556 66.3566 604.108 66.2286 603.66 66.0686C603.223 65.9086 602.855 65.6846 602.556 65.3966C602.268 65.0979 602.124 64.6979 602.124 64.1966C602.124 63.5032 602.391 62.9272 602.924 62.4686C603.458 61.9992 604.204 61.7646 605.164 61.7646C606.05 61.7646 606.764 61.9779 607.308 62.4046C607.863 62.8312 608.188 63.4339 608.284 64.2126H606.652C606.599 63.8712 606.439 63.6046 606.172 63.4126C605.916 63.2206 605.57 63.1246 605.132 63.1246C604.706 63.1246 604.375 63.2152 604.14 63.3966C603.906 63.5672 603.788 63.7912 603.788 64.0686C603.788 64.3459 603.948 64.5646 604.268 64.7246C604.599 64.8846 605.031 65.0286 605.564 65.1566C606.098 65.2739 606.588 65.4126 607.036 65.5726C607.495 65.7219 607.863 65.9459 608.14 66.2446C608.418 66.5432 608.556 66.9806 608.556 67.5566C608.567 68.2819 608.284 68.8846 607.708 69.3646C607.143 69.8446 606.37 70.0846 605.388 70.0846ZM613.096 70.0846C612.424 70.0846 611.869 69.9726 611.432 69.7486C610.995 69.5246 610.669 69.2312 610.456 68.8686C610.243 68.4952 610.136 68.0899 610.136 67.6526C610.136 66.8846 610.435 66.2766 611.032 65.8286C611.629 65.3806 612.483 65.1566 613.592 65.1566H615.672V65.0126C615.672 64.3939 615.501 63.9299 615.16 63.6206C614.829 63.3112 614.397 63.1566 613.864 63.1566C613.395 63.1566 612.984 63.2739 612.632 63.5086C612.291 63.7326 612.083 64.0686 612.008 64.5166H610.312C610.365 63.9406 610.557 63.4499 610.888 63.0446C611.229 62.6286 611.656 62.3139 612.168 62.1006C612.691 61.8766 613.261 61.7646 613.88 61.7646C614.989 61.7646 615.848 62.0579 616.456 62.6446C617.064 63.2206 617.368 64.0099 617.368 65.0126V69.8926H615.896L615.752 68.5326C615.528 68.9699 615.203 69.3379 614.776 69.6366C614.349 69.9352 613.789 70.0846 613.096 70.0846ZM613.432 68.7086C613.891 68.7086 614.275 68.6019 614.584 68.3886C614.904 68.1646 615.149 67.8712 615.32 67.5086C615.501 67.1459 615.613 66.7459 615.656 66.3086H613.768C613.096 66.3086 612.616 66.4259 612.328 66.6606C612.051 66.8952 611.912 67.1886 611.912 67.5406C611.912 67.9032 612.045 68.1912 612.312 68.4046C612.589 68.6072 612.963 68.7086 613.432 68.7086ZM622.517 69.8926C621.739 69.8926 621.12 69.7059 620.661 69.3326C620.203 68.9486 619.973 68.2712 619.973 67.3006V63.3806H618.613V61.9566H619.973L620.181 59.9406H621.669V61.9566H623.909V63.3806H621.669V67.3006C621.669 67.7379 621.76 68.0419 621.941 68.2126C622.133 68.3726 622.459 68.4526 622.917 68.4526H623.829V69.8926H622.517ZM626.618 60.4526C626.298 60.4526 626.031 60.3566 625.818 60.1646C625.615 59.9619 625.514 59.7112 625.514 59.4126C625.514 59.1139 625.615 58.8686 625.818 58.6766C626.031 58.4739 626.298 58.3726 626.618 58.3726C626.938 58.3726 627.199 58.4739 627.402 58.6766C627.615 58.8686 627.722 59.1139 627.722 59.4126C627.722 59.7112 627.615 59.9619 627.402 60.1646C627.199 60.3566 626.938 60.4526 626.618 60.4526ZM625.77 69.8926V61.9566H627.466V69.8926H625.77ZM633.417 70.0846C632.659 70.0846 631.977 69.9139 631.369 69.5726C630.771 69.2206 630.297 68.7352 629.945 68.1166C629.593 67.4872 629.417 66.7566 629.417 65.9246C629.417 65.0926 629.593 64.3672 629.945 63.7486C630.307 63.1192 630.793 62.6339 631.401 62.2926C632.009 61.9406 632.686 61.7646 633.433 61.7646C634.19 61.7646 634.867 61.9406 635.465 62.2926C636.073 62.6339 636.553 63.1192 636.905 63.7486C637.267 64.3672 637.449 65.0926 637.449 65.9246C637.449 66.7566 637.267 67.4872 636.905 68.1166C636.553 68.7352 636.073 69.2206 635.465 69.5726C634.857 69.9139 634.174 70.0846 633.417 70.0846ZM633.417 68.6286C633.822 68.6286 634.195 68.5272 634.537 68.3246C634.889 68.1219 635.171 67.8232 635.385 67.4286C635.598 67.0232 635.705 66.5219 635.705 65.9246C635.705 65.3272 635.598 64.8312 635.385 64.4366C635.182 64.0312 634.905 63.7272 634.553 63.5246C634.211 63.3219 633.838 63.2206 633.433 63.2206C633.027 63.2206 632.649 63.3219 632.297 63.5246C631.955 63.7272 631.678 64.0312 631.465 64.4366C631.251 64.8312 631.145 65.3272 631.145 65.9246C631.145 66.5219 631.251 67.0232 631.465 67.4286C631.678 67.8232 631.955 68.1219 632.297 68.3246C632.638 68.5272 633.011 68.6286 633.417 68.6286ZM639.283 69.8926V61.9566H640.787L640.915 63.3486C641.16 62.8579 641.518 62.4739 641.987 62.1966C642.467 61.9086 643.016 61.7646 643.635 61.7646C644.595 61.7646 645.347 62.0632 645.891 62.6606C646.446 63.2579 646.723 64.1486 646.723 65.3326V69.8926H645.043V65.5086C645.043 63.9726 644.414 63.2046 643.155 63.2046C642.526 63.2046 642.003 63.4286 641.587 63.8766C641.182 64.3246 640.979 64.9646 640.979 65.7966V69.8926H639.283Z" fill="black"/>
<path d="M797.3 84.0565L795.495 61.1934C795.433 60.4114 796.051 59.7427 796.836 59.7427H820.151C820.935 59.7427 821.553 60.4114 821.491 61.1934L819.686 84.0565C819.631 84.756 819.047 85.2955 818.346 85.2955H798.641C797.939 85.2955 797.355 84.756 797.3 84.0565Z" fill="#B499B8"/>
<path fill-rule="evenodd" clip-rule="evenodd" d="M825.952 31.5C826.505 31.5 826.802 31.5512 827.263 31.7561C827.581 31.8995 828.072 32.2273 828.339 32.5039C828.605 32.7703 828.923 33.2005 829.025 33.4567C829.189 33.8357 829.312 33.9586 829.64 34.0918C829.865 34.184 830.275 34.4503 830.541 34.6962C830.838 34.9523 831.156 35.3723 831.31 35.7001C831.545 36.1816 831.586 36.3968 831.586 37.1343C831.576 37.8412 831.535 38.0871 831.34 38.4661C831.207 38.7222 831.002 39.0603 830.879 39.2242C830.767 39.3881 830.429 39.6852 830.152 39.8695C829.834 40.0744 829.343 40.2691 828.871 40.3818C828.359 40.4944 827.898 40.6891 827.488 40.9554C827.15 41.1808 826.413 41.8262 824.804 43.4345L824.753 44.9712C824.733 45.8215 824.722 46.5283 824.743 46.559C824.763 46.5898 824.948 46.5078 825.163 46.3746C825.368 46.2415 825.747 46.0468 826.003 45.9239C826.259 45.8112 826.751 45.6371 827.755 45.381L828.042 44.7151C828.195 44.3463 828.513 43.7521 828.738 43.3833C828.974 43.0145 829.363 42.5331 829.609 42.3179C829.845 42.0926 830.203 41.8467 830.377 41.775C830.562 41.7033 830.961 41.6418 831.248 41.6418C831.586 41.6418 831.934 41.7135 832.15 41.8364C832.395 41.9594 832.611 42.2052 833.123 43.1887L833.942 43.1784C834.608 43.1784 834.834 43.2297 835.161 43.4141C835.377 43.537 835.653 43.8033 835.756 43.998C835.899 44.2541 835.94 44.4897 835.909 44.8175C835.878 45.0736 835.766 45.4629 835.448 46.0981L835.817 46.3132C836.032 46.4361 836.37 46.7332 836.575 46.9791C836.913 47.3683 836.954 47.5015 836.964 47.9727C836.964 48.2596 836.893 48.6386 836.811 48.8128C836.729 48.9869 836.483 49.3147 836.268 49.5401C836.063 49.7757 835.633 50.0933 835.325 50.247C835.018 50.4006 834.526 50.5748 834.25 50.6363C833.963 50.6977 833.533 50.7797 833.276 50.8104C833.02 50.8514 832.518 50.8309 832.15 50.7694C831.781 50.708 831.412 50.6363 831.33 50.6055C831.228 50.5645 831.094 50.6772 830.91 50.9846C830.756 51.2304 830.275 51.7631 829.834 52.1831C829.384 52.5929 828.789 53.0744 827.96 53.5764L827.949 55.4511C827.949 56.8238 827.908 57.3872 827.806 57.6023C827.734 57.756 827.55 57.9404 827.396 58.0121C827.253 58.0736 826.833 58.135 826.464 58.135C825.942 58.135 825.798 58.1658 825.798 58.2887C825.798 58.3707 825.358 63.9538 824.825 70.6842C824.292 77.4147 823.852 82.9978 823.852 83.0798C823.852 83.1617 823.708 83.3974 823.237 83.9505H821.158C819.355 83.9505 819.17 83.9505 818.873 83.9505C818.684 83.9505 818.422 83.9505 818.422 83.9505C818.422 83.9505 818.422 83.0388 818.422 82.9261C818.422 82.8134 818.422 82.5813 818.422 82.404C818.422 82.2024 818.422 82.1059 818.422 81.9017C818.74 81.9017 819.641 81.9017 820.574 81.9017C821.69 81.9017 821.905 81.8812 821.905 81.748C821.905 81.6661 822.325 76.3596 822.827 69.9671C823.329 63.5747 823.749 58.299 823.749 58.2375C823.749 58.1658 819.785 58.135 812.071 58.135C804.357 58.135 800.392 58.1658 800.392 58.2375C800.392 58.299 800.802 63.5747 801.314 69.9671C801.816 76.3596 802.236 81.6661 802.236 81.748C802.236 81.8812 802.759 81.9017 806.334 81.9017C809.612 81.9017 818.159 81.9017 818.422 81.9017C818.422 82.0803 818.422 82.2006 818.422 82.404C818.422 82.6442 818.422 82.8134 818.422 82.9261C818.422 83.0388 818.422 83.9505 818.422 83.9505C818.422 83.9505 817.965 83.9505 817.801 83.9505C817.544 83.9505 810.176 83.9505 800.905 83.9505L800.597 83.592C800.423 83.3974 800.29 83.172 800.29 83.1105C800.29 83.0388 799.849 77.4557 799.317 70.715C798.784 63.964 798.344 58.3707 798.344 58.2887C798.344 58.1658 798.2 58.135 797.678 58.135C797.309 58.135 796.889 58.0736 796.745 58.0121C796.592 57.9404 796.407 57.756 796.336 57.6023C796.233 57.3872 796.192 56.8135 796.182 53.4739L795.639 52.7568C795.342 52.3675 794.973 51.8348 794.83 51.5787C794.686 51.3226 794.441 50.7489 794.287 50.2982C794.02 49.5606 794 49.3455 794 48.0957C794 47.0917 794.051 46.5283 794.184 46.0468C794.287 45.678 794.512 45.0839 794.686 44.7151C794.871 44.3565 795.24 43.8238 795.526 43.5267C795.803 43.2399 796.264 42.8916 796.551 42.7482C796.827 42.6048 797.319 42.4101 797.626 42.3179C797.934 42.2257 798.487 42.154 798.856 42.154C799.225 42.154 799.819 42.236 800.188 42.3487C800.556 42.4613 801.13 42.7379 801.468 42.9531C801.806 43.1784 802.339 43.6394 803.21 44.5921L803.671 44.1414C803.927 43.8853 804.48 43.5063 804.9 43.2911C805.617 42.9326 805.678 42.8711 805.801 42.4511C805.894 42.1643 805.924 41.6828 805.894 41.1296C805.863 40.5866 805.74 39.9515 805.576 39.4393C805.433 38.9885 805.31 38.4968 805.31 38.3329C805.31 38.1792 805.412 37.9436 805.535 37.8002C805.689 37.6363 806.191 37.3904 806.949 37.1241C807.594 36.8885 808.137 36.6938 808.158 36.6836C808.168 36.6836 808.024 36.2431 807.819 35.7206C807.625 35.2084 807.461 34.686 807.461 34.5733C807.461 34.4606 807.522 34.2455 807.604 34.0816C807.676 33.9279 807.86 33.7435 808.014 33.6718C808.158 33.6103 808.373 33.5488 808.485 33.5488C808.598 33.5488 808.813 33.6103 808.957 33.6718C809.11 33.7435 809.284 33.9176 809.356 34.0611C809.428 34.2045 809.633 34.686 810.124 35.9562L811.507 35.4645C812.265 35.1982 813.003 34.983 813.146 34.983C813.3 34.983 813.546 35.1265 813.761 35.3416C813.976 35.5567 814.12 35.8026 814.12 35.9562C814.12 36.0997 814.191 36.5504 814.284 36.9499C814.376 37.3597 814.622 38.0666 814.837 38.5173C815.083 39.0193 815.421 39.5315 815.728 39.8388C815.994 40.1154 816.425 40.4432 817.142 40.7915L817.859 40.4637C818.258 40.2793 818.945 39.9925 819.385 39.8388C820.082 39.5827 820.276 39.4598 820.707 38.9783C821.014 38.6402 821.414 38.0051 821.711 37.3904C821.977 36.827 822.325 35.946 822.469 35.444C822.612 34.9318 822.725 34.4094 822.725 34.2659C822.725 34.1225 822.868 33.7128 823.053 33.3542C823.247 32.9752 823.565 32.5449 823.801 32.3503C824.026 32.1556 824.436 31.8995 824.722 31.7561C825.102 31.5717 825.419 31.5102 825.952 31.5ZM824.927 34.1635C824.856 34.3069 824.743 34.6962 824.682 35.0343C824.62 35.3723 824.436 36.0382 824.272 36.5197C824.118 37.0012 823.841 37.6875 823.678 38.0563C823.514 38.4251 823.206 38.9988 822.991 39.3368C822.776 39.6749 822.489 40.0642 822.356 40.2076L822.11 40.4637C822.704 41.0169 823.032 41.3242 823.217 41.4881L823.544 41.7955C825.173 40.1871 825.993 39.5008 826.413 39.2242C826.833 38.9578 827.427 38.6505 827.714 38.548C828.011 38.4456 828.369 38.3636 828.513 38.3636C828.656 38.3636 828.933 38.2305 829.128 38.0563C829.384 37.8412 829.496 37.6465 829.517 37.4007C829.537 37.206 829.517 36.8782 829.466 36.6836C829.414 36.4582 829.271 36.2328 829.097 36.1202C828.943 36.0177 828.615 35.8948 828.359 35.864C828.083 35.8231 827.796 35.7001 827.642 35.5567C827.499 35.4235 827.355 35.1367 827.304 34.8908C827.263 34.6655 827.171 34.3479 827.089 34.1942C827.017 34.0303 826.782 33.8254 826.577 33.7332C826.372 33.6308 826.105 33.5488 825.972 33.5488C825.849 33.5488 825.593 33.6308 825.399 33.7332C825.214 33.8254 824.999 34.0201 824.927 34.1635ZM807.686 39.0193C807.676 39.0295 807.738 39.4393 807.83 39.9515C807.953 40.6071 807.983 41.1603 807.942 41.8467L807.881 42.8199C808.547 43.0145 809.039 43.2399 809.397 43.455C809.766 43.6702 810.401 44.1824 810.811 44.5921L811.559 45.3297C811.989 44.8175 812.419 44.3463 812.788 43.9672C813.157 43.578 813.802 42.9838 814.222 42.6457L814.99 42.0311C813.72 40.7403 813.433 40.3408 813.075 39.593C812.808 39.0603 812.522 38.3534 812.44 38.0358C812.347 37.6978 812.225 37.4417 812.143 37.4519C812.081 37.4519 811.057 37.8105 809.868 38.2305C808.68 38.6607 807.707 39.0193 807.686 39.0193ZM819.703 41.8979C819.365 42.0208 818.668 42.3384 818.166 42.5843C817.664 42.8404 816.804 43.3423 816.271 43.7009C815.738 44.0594 814.878 44.7663 814.376 45.2785C813.864 45.7805 813.239 46.5283 812.972 46.9176C812.706 47.3069 812.337 47.983 812.132 48.403C811.938 48.823 811.682 49.5196 811.569 49.9396C811.456 50.3597 811.323 50.9948 811.282 51.3431L811.2 51.9885H820.881C821.229 51.4763 821.485 50.9538 821.68 50.5031C821.864 50.0523 822.131 49.2225 822.264 48.6591C822.407 48.0957 822.561 47.1532 822.622 46.559C822.674 45.9649 822.725 45.1044 822.725 44.6434V43.7931C821.332 42.574 820.789 42.0926 820.625 41.9389L820.307 41.6623L819.703 41.8979ZM830.039 45.3092L829.804 45.8419C830.603 46.682 830.971 47.1942 831.146 47.5322C831.31 47.8703 831.443 48.2289 831.443 48.3313C831.443 48.444 831.576 48.5464 831.822 48.6284C832.037 48.7001 832.508 48.7513 832.877 48.7513C833.235 48.7513 833.768 48.6796 834.055 48.5874C834.332 48.4952 834.618 48.3415 834.69 48.2596C834.803 48.1264 834.772 48.0752 834.485 47.9523C834.301 47.8806 833.953 47.7474 833.707 47.6757C833.461 47.5937 833.164 47.4196 833.061 47.2761C832.949 47.1327 832.867 46.8664 832.877 46.6615C832.877 46.4361 833 46.1288 833.205 45.8112C833.389 45.5449 833.512 45.3092 833.492 45.2785C833.461 45.258 833.205 45.3092 832.928 45.3912C832.641 45.4732 832.313 45.5346 832.18 45.5346C832.057 45.5346 831.812 45.4219 831.648 45.2785C831.473 45.1351 831.32 44.8892 831.289 44.7151C831.258 44.5512 831.217 44.2746 831.197 44.1004C831.176 43.9365 831.115 43.7931 831.053 43.7931C830.992 43.7931 830.787 44.0185 830.603 44.2848C830.418 44.5512 830.172 45.0122 830.039 45.3092ZM796.93 45.0839C796.735 45.3092 796.489 45.6985 796.387 45.9444C796.274 46.2005 796.151 46.682 796.09 47.02C796.039 47.3581 795.998 47.8908 795.998 48.1981C795.998 48.5157 796.069 49.0177 796.151 49.325C796.233 49.6426 796.428 50.1445 796.582 50.4519C796.735 50.7694 797.032 51.2407 797.247 51.507L797.637 51.9885L809.161 51.9373C809.284 50.8309 809.428 50.0933 809.561 49.5811C809.694 49.0791 809.93 48.3825 810.073 48.0445C810.217 47.7064 810.34 47.3479 810.34 47.2557C810.34 47.1532 809.981 46.7025 809.541 46.2415C809.008 45.678 808.557 45.3195 808.137 45.1044C807.594 44.838 807.44 44.8073 806.857 44.8483C806.488 44.8687 806.047 44.9609 805.883 45.0531C805.709 45.1351 805.412 45.3605 805.228 45.5449C805.033 45.7395 804.787 46.0776 804.685 46.3029C804.582 46.5283 804.5 46.9073 804.5 47.1532C804.5 47.4913 804.429 47.6552 804.203 47.8908C803.968 48.1264 803.804 48.1981 803.507 48.1981C803.292 48.1981 803.025 48.1367 802.912 48.0649C802.8 47.9932 802.513 47.5425 802.277 47.061C802.042 46.5898 801.632 45.9341 801.376 45.6166C801.12 45.2888 800.72 44.8892 800.474 44.7356C800.239 44.5717 799.88 44.3873 799.686 44.3258C799.481 44.2541 799.091 44.2029 798.815 44.2029C798.497 44.2029 798.108 44.2951 797.79 44.4487C797.504 44.5819 797.114 44.8687 796.93 45.0839ZM825.86 48.3723C825.522 48.5976 824.989 49.0177 824.682 49.2943C824.221 49.7143 824.077 49.9294 823.923 50.4109C823.821 50.7489 823.647 51.1894 823.544 51.4046C823.432 51.6095 823.35 51.8348 823.35 51.8861C823.35 51.9578 823.975 51.9885 825.009 51.9885H826.679C827.632 51.3738 828.154 50.9641 828.451 50.6977C828.789 50.3904 829.097 49.9806 829.261 49.6323C829.496 49.1304 829.517 49.0279 829.404 48.6898C829.343 48.4747 829.117 48.1162 828.902 47.901C828.564 47.5425 828.462 47.4913 828.062 47.4913C827.806 47.4913 827.345 47.5937 827.038 47.7166C826.72 47.8498 826.198 48.1367 825.86 48.3723ZM798.251 56.0862H825.911V54.0373H798.251V56.0862ZM805.392 61.8332C805.525 61.823 805.75 61.8844 805.904 61.9664C806.057 62.0381 806.242 62.243 806.314 62.3967C806.385 62.581 806.652 65.6543 806.959 70.0184C807.399 76.2161 807.461 77.3942 807.348 77.6401C807.277 77.804 807.082 77.9986 806.928 78.0806C806.775 78.1523 806.559 78.2138 806.447 78.2138C806.334 78.2138 806.109 78.1523 805.955 78.0806C805.801 77.9986 805.617 77.804 805.545 77.6401C805.474 77.4659 805.217 74.3824 804.91 70.0184C804.47 63.8206 804.408 62.6528 804.521 62.3967C804.593 62.243 804.767 62.0483 804.91 61.9664C805.043 61.8947 805.269 61.8332 805.392 61.8332ZM812.05 61.8332C812.184 61.823 812.409 61.8844 812.563 61.9664C812.716 62.0483 812.901 62.2327 812.972 62.3762C813.075 62.581 813.106 64.3328 813.106 70.0184C813.106 75.7142 813.075 77.4557 812.972 77.6606C812.901 77.8142 812.716 77.9986 812.563 78.0704C812.409 78.1523 812.194 78.2138 812.081 78.2138C811.968 78.2138 811.743 78.1523 811.589 78.0704C811.436 77.9986 811.251 77.8142 811.18 77.6606C811.087 77.4557 811.057 75.7142 811.057 69.9979C811.057 63.4825 811.077 62.5606 811.221 62.3454C811.313 62.2123 811.477 62.0483 811.6 61.9664C811.723 61.8947 811.927 61.8332 812.05 61.8332ZM818.709 61.8332C818.842 61.823 819.068 61.8844 819.221 61.9664C819.375 62.0381 819.57 62.243 819.641 62.3967C819.754 62.6528 819.693 63.8206 819.252 70.0184C818.945 74.3824 818.678 77.4659 818.607 77.6401C818.535 77.804 818.351 77.9986 818.197 78.0806C818.043 78.1523 817.828 78.2138 817.715 78.2138C817.603 78.2138 817.377 78.1523 817.224 78.0806C817.07 77.9986 816.886 77.804 816.814 77.6401C816.701 77.3942 816.763 76.2161 817.203 70.0184C817.511 65.6543 817.767 62.581 817.838 62.3967C817.91 62.243 818.084 62.0483 818.228 61.9664C818.361 61.8947 818.586 61.8332 818.709 61.8332Z" fill="#403C3B"/>
<path fill-rule="evenodd" clip-rule="evenodd" d="M824.963 34.1635C824.891 34.3069 824.779 34.6962 824.717 35.0343C824.656 35.3723 824.471 36.0382 824.307 36.5197C824.154 37.0012 823.877 37.6875 823.713 38.0563C823.549 38.4251 823.242 38.9988 823.027 39.3368C822.812 39.6749 822.525 40.0642 822.392 40.2076L822.146 40.4637C822.74 41.0169 823.068 41.3242 823.252 41.4881L823.58 41.7955C825.209 40.1871 826.028 39.5008 826.448 39.2242C826.868 38.9578 827.463 38.6505 827.749 38.548C828.047 38.4456 828.405 38.3636 828.549 38.3636C828.692 38.3636 828.969 38.2305 829.163 38.0563C829.419 37.8412 829.532 37.6465 829.552 37.4007C829.573 37.206 829.552 36.8782 829.501 36.6836C829.45 36.4582 829.307 36.2328 829.132 36.1202C828.979 36.0177 828.651 35.8948 828.395 35.864C828.118 35.8231 827.831 35.7001 827.678 35.5567C827.534 35.4235 827.391 35.1367 827.34 34.8908C827.299 34.6655 827.207 34.3479 827.125 34.1942C827.053 34.0303 826.817 33.8254 826.612 33.7332C826.407 33.6308 826.141 33.5488 826.008 33.5488C825.885 33.5488 825.629 33.6308 825.434 33.7332C825.25 33.8254 825.035 34.0201 824.963 34.1635ZM807.722 39.0193C807.712 39.0295 807.773 39.4393 807.865 39.9515C807.988 40.6071 808.019 41.1603 807.978 41.8467L807.917 42.8199C808.582 43.0145 809.074 43.2399 809.433 43.455C809.802 43.6702 810.437 44.1824 810.846 44.5921L811.594 45.3297C812.025 44.8175 812.455 44.3463 812.824 43.9672C813.192 43.578 813.838 42.9838 814.258 42.6457L815.026 42.0311C813.756 40.7403 813.469 40.3408 813.11 39.593C812.844 39.0603 812.557 38.3534 812.475 38.0358C812.383 37.6978 812.26 37.4417 812.178 37.4519C812.117 37.4519 811.092 37.8105 809.904 38.2305C808.716 38.6607 807.742 39.0193 807.722 39.0193ZM819.738 41.8979C819.4 42.0208 818.704 42.3384 818.202 42.5843C817.7 42.8404 816.839 43.3423 816.307 43.7009C815.774 44.0594 814.913 44.7663 814.411 45.2785C813.899 45.7805 813.274 46.5283 813.008 46.9176C812.742 47.3069 812.373 47.983 812.168 48.403C811.973 48.823 811.717 49.5196 811.605 49.9396C811.492 50.3597 811.359 50.9948 811.318 51.3431L811.236 51.9885H820.917C821.265 51.4763 821.521 50.9538 821.716 50.5031C821.9 50.0523 822.166 49.2225 822.3 48.6591C822.443 48.0957 822.597 47.1532 822.658 46.559C822.709 45.9649 822.761 45.1044 822.761 44.6434V43.7931C821.367 42.574 820.824 42.0926 820.66 41.9389L820.343 41.6623L819.738 41.8979ZM830.075 45.3092L829.839 45.8419C830.638 46.682 831.007 47.1942 831.181 47.5322C831.345 47.8703 831.478 48.2289 831.478 48.3313C831.478 48.444 831.612 48.5464 831.857 48.6284C832.073 48.7001 832.544 48.7513 832.913 48.7513C833.271 48.7513 833.804 48.6796 834.091 48.5874C834.367 48.4952 834.654 48.3415 834.726 48.2596C834.838 48.1264 834.808 48.0752 834.521 47.9523C834.337 47.8806 833.988 47.7474 833.742 47.6757C833.496 47.5937 833.199 47.4196 833.097 47.2761C832.984 47.1327 832.902 46.8664 832.913 46.6615C832.913 46.4361 833.035 46.1288 833.24 45.8112C833.425 45.5449 833.548 45.3092 833.527 45.2785C833.496 45.258 833.24 45.3092 832.964 45.3912C832.677 45.4732 832.349 45.5346 832.216 45.5346C832.093 45.5346 831.847 45.4219 831.683 45.2785C831.509 45.1351 831.355 44.8892 831.325 44.7151C831.294 44.5512 831.253 44.2746 831.233 44.1004C831.212 43.9365 831.151 43.7931 831.089 43.7931C831.028 43.7931 830.823 44.0185 830.638 44.2848C830.454 44.5512 830.208 45.0122 830.075 45.3092ZM796.965 45.0839C796.771 45.3092 796.525 45.6985 796.423 45.9444C796.31 46.2005 796.187 46.682 796.125 47.02C796.074 47.3581 796.033 47.8908 796.033 48.1981C796.033 48.5157 796.105 49.0177 796.187 49.325C796.269 49.6426 796.464 50.1445 796.617 50.4519C796.771 50.7694 797.068 51.2407 797.283 51.507L797.672 51.9885L809.197 51.9373C809.32 50.8309 809.463 50.0933 809.597 49.5811C809.73 49.0791 809.965 48.3825 810.109 48.0445C810.252 47.7064 810.375 47.3478 810.375 47.2557C810.375 47.1532 810.017 46.7025 809.576 46.2415C809.043 45.678 808.593 45.3195 808.173 45.1044C807.63 44.838 807.476 44.8073 806.892 44.8483C806.523 44.8687 806.083 44.9609 805.919 45.0531C805.745 45.1351 805.448 45.3605 805.263 45.5449C805.069 45.7395 804.823 46.0776 804.72 46.3029C804.618 46.5283 804.536 46.9073 804.536 47.1532C804.536 47.4913 804.464 47.6552 804.239 47.8908C804.003 48.1264 803.839 48.1981 803.542 48.1981C803.327 48.1981 803.061 48.1367 802.948 48.0649C802.835 47.9932 802.549 47.5425 802.313 47.061C802.077 46.5898 801.668 45.9341 801.412 45.6166C801.155 45.2888 800.756 44.8892 800.51 44.7356C800.274 44.5717 799.916 44.3873 799.721 44.3258C799.516 44.2541 799.127 44.2029 798.85 44.2029C798.533 44.2029 798.144 44.2951 797.826 44.4487C797.539 44.5819 797.15 44.8687 796.965 45.0839ZM825.895 48.3723C825.557 48.5976 825.024 49.0177 824.717 49.2943C824.256 49.7143 824.113 49.9294 823.959 50.4109C823.857 50.7489 823.682 51.1894 823.58 51.4046C823.467 51.6095 823.385 51.8348 823.385 51.8861C823.385 51.9578 824.01 51.9885 825.045 51.9885H826.715C827.668 51.3738 828.19 50.9641 828.487 50.6977C828.825 50.3904 829.132 49.9806 829.296 49.6323C829.532 49.1303 829.552 49.0279 829.44 48.6898C829.378 48.4747 829.153 48.1162 828.938 47.901C828.6 47.5425 828.497 47.4913 828.098 47.4913C827.842 47.4913 827.381 47.5937 827.073 47.7166C826.756 47.8498 826.233 48.1367 825.895 48.3723Z" fill="#B499B8"/>
<path d="M854.136 52.3977V41.1977H856.136L859.928 48.6537L863.704 41.1977H865.704V52.3977H864.008V44.1257L860.584 50.7977H859.272L855.832 44.1417V52.3977H854.136ZM868.876 42.9577C868.556 42.9577 868.289 42.8617 868.076 42.6697C867.873 42.467 867.772 42.2164 867.772 41.9177C867.772 41.619 867.873 41.3737 868.076 41.1817C868.289 40.979 868.556 40.8777 868.876 40.8777C869.196 40.8777 869.457 40.979 869.66 41.1817C869.873 41.3737 869.98 41.619 869.98 41.9177C869.98 42.2164 869.873 42.467 869.66 42.6697C869.457 42.8617 869.196 42.9577 868.876 42.9577ZM868.028 52.3977V44.4617H869.724V52.3977H868.028ZM871.963 52.3977V44.4617H873.467L873.595 45.8537C873.84 45.363 874.197 44.979 874.667 44.7017C875.147 44.4137 875.696 44.2697 876.315 44.2697C877.275 44.2697 878.027 44.5684 878.571 45.1657C879.125 45.763 879.403 46.6537 879.403 47.8377V52.3977H877.723V48.0137C877.723 46.4777 877.093 45.7097 875.835 45.7097C875.205 45.7097 874.683 45.9337 874.267 46.3817C873.861 46.8297 873.659 47.4697 873.659 48.3017V52.3977H871.963ZM882.36 42.9577C882.04 42.9577 881.773 42.8617 881.56 42.6697C881.357 42.467 881.256 42.2164 881.256 41.9177C881.256 41.619 881.357 41.3737 881.56 41.1817C881.773 40.979 882.04 40.8777 882.36 40.8777C882.68 40.8777 882.941 40.979 883.144 41.1817C883.357 41.3737 883.464 41.619 883.464 41.9177C883.464 42.2164 883.357 42.467 883.144 42.6697C882.941 42.8617 882.68 42.9577 882.36 42.9577ZM881.512 52.3977V44.4617H883.208V52.3977H881.512ZM885.447 52.3977V44.4617H886.951L887.095 45.5817C887.351 45.1764 887.687 44.8564 888.103 44.6217C888.53 44.387 889.02 44.2697 889.575 44.2697C890.834 44.2697 891.708 44.7657 892.199 45.7577C892.487 45.299 892.871 44.9364 893.351 44.6697C893.842 44.403 894.37 44.2697 894.935 44.2697C895.927 44.2697 896.706 44.5684 897.271 45.1657C897.836 45.763 898.119 46.6537 898.119 47.8377V52.3977H896.423V48.0137C896.423 46.4777 895.836 45.7097 894.663 45.7097C894.066 45.7097 893.575 45.9337 893.191 46.3817C892.818 46.8297 892.631 47.4697 892.631 48.3017V52.3977H890.935V48.0137C890.935 46.4777 890.343 45.7097 889.159 45.7097C888.572 45.7097 888.087 45.9337 887.703 46.3817C887.33 46.8297 887.143 47.4697 887.143 48.3017V52.3977H885.447ZM901.063 42.9577C900.743 42.9577 900.477 42.8617 900.263 42.6697C900.061 42.467 899.959 42.2164 899.959 41.9177C899.959 41.619 900.061 41.3737 900.263 41.1817C900.477 40.979 900.743 40.8777 901.063 40.8777C901.383 40.8777 901.645 40.979 901.847 41.1817C902.061 41.3737 902.167 41.619 902.167 41.9177C902.167 42.2164 902.061 42.467 901.847 42.6697C901.645 42.8617 901.383 42.9577 901.063 42.9577ZM900.215 52.3977V44.4617H901.911V52.3977H900.215ZM907.318 52.5897C906.315 52.5897 905.489 52.3444 904.838 51.8537C904.187 51.363 903.814 50.7124 903.718 49.9017H905.43C905.515 50.2644 905.718 50.579 906.038 50.8457C906.358 51.1017 906.779 51.2297 907.302 51.2297C907.814 51.2297 908.187 51.123 908.422 50.9097C908.657 50.6964 908.774 50.451 908.774 50.1737C908.774 49.7684 908.609 49.4964 908.278 49.3577C907.958 49.2084 907.51 49.075 906.934 48.9577C906.486 48.8617 906.038 48.7337 905.59 48.5737C905.153 48.4137 904.785 48.1897 904.486 47.9017C904.198 47.603 904.054 47.203 904.054 46.7017C904.054 46.0084 904.321 45.4324 904.854 44.9737C905.387 44.5044 906.134 44.2697 907.094 44.2697C907.979 44.2697 908.694 44.483 909.238 44.9097C909.793 45.3364 910.118 45.939 910.214 46.7177H908.582C908.529 46.3764 908.369 46.1097 908.102 45.9177C907.846 45.7257 907.499 45.6297 907.062 45.6297C906.635 45.6297 906.305 45.7204 906.07 45.9017C905.835 46.0724 905.718 46.2964 905.718 46.5737C905.718 46.851 905.878 47.0697 906.198 47.2297C906.529 47.3897 906.961 47.5337 907.494 47.6617C908.027 47.779 908.518 47.9177 908.966 48.0777C909.425 48.227 909.793 48.451 910.07 48.7497C910.347 49.0484 910.486 49.4857 910.486 50.0617C910.497 50.787 910.214 51.3897 909.638 51.8697C909.073 52.3497 908.299 52.5897 907.318 52.5897ZM916.05 52.5897C915.271 52.5897 914.578 52.419 913.97 52.0777C913.372 51.7257 912.903 51.2404 912.562 50.6217C912.22 50.003 912.05 49.283 912.05 48.4617C912.05 47.6297 912.215 46.899 912.546 46.2697C912.887 45.6404 913.356 45.1497 913.954 44.7977C914.562 44.4457 915.266 44.2697 916.066 44.2697C916.844 44.2697 917.522 44.4457 918.098 44.7977C918.674 45.139 919.122 45.5977 919.442 46.1737C919.762 46.7497 919.922 47.3844 919.922 48.0777C919.922 48.1844 919.916 48.3017 919.906 48.4297C919.906 48.547 919.9 48.6804 919.89 48.8297H913.714C913.767 49.5977 914.018 50.1844 914.466 50.5897C914.924 50.9844 915.452 51.1817 916.05 51.1817C916.53 51.1817 916.93 51.075 917.25 50.8617C917.58 50.6377 917.826 50.339 917.986 49.9657H919.682C919.468 50.7124 919.042 51.3364 918.402 51.8377C917.772 52.339 916.988 52.5897 916.05 52.5897ZM916.05 45.6617C915.484 45.6617 914.983 45.8324 914.546 46.1737C914.108 46.5044 913.842 47.0057 913.746 47.6777H918.226C918.194 47.059 917.975 46.5684 917.57 46.2057C917.164 45.843 916.658 45.6617 916.05 45.6617ZM926.113 52.3977V45.8857H924.977V44.4617H926.113V43.3097C926.113 42.4457 926.326 41.827 926.753 41.4537C927.19 41.0697 927.803 40.8777 928.593 40.8777H929.425V42.3177H928.849C928.475 42.3177 928.209 42.3977 928.049 42.5577C927.889 42.707 927.809 42.963 927.809 43.3257V44.4617H929.633V45.8857H927.809V52.3977H926.113ZM934.643 52.5897C933.886 52.5897 933.203 52.419 932.595 52.0777C931.998 51.7257 931.523 51.2404 931.171 50.6217C930.819 49.9924 930.643 49.2617 930.643 48.4297C930.643 47.5977 930.819 46.8724 931.171 46.2537C931.534 45.6244 932.019 45.139 932.627 44.7977C933.235 44.4457 933.913 44.2697 934.659 44.2697C935.417 44.2697 936.094 44.4457 936.691 44.7977C937.299 45.139 937.779 45.6244 938.131 46.2537C938.494 46.8724 938.675 47.5977 938.675 48.4297C938.675 49.2617 938.494 49.9924 938.131 50.6217C937.779 51.2404 937.299 51.7257 936.691 52.0777C936.083 52.419 935.401 52.5897 934.643 52.5897ZM934.643 51.1337C935.049 51.1337 935.422 51.0324 935.763 50.8297C936.115 50.627 936.398 50.3284 936.611 49.9337C936.825 49.5284 936.931 49.027 936.931 48.4297C936.931 47.8324 936.825 47.3364 936.611 46.9417C936.409 46.5364 936.131 46.2324 935.779 46.0297C935.438 45.827 935.065 45.7257 934.659 45.7257C934.254 45.7257 933.875 45.827 933.523 46.0297C933.182 46.2324 932.905 46.5364 932.691 46.9417C932.478 47.3364 932.371 47.8324 932.371 48.4297C932.371 49.027 932.478 49.5284 932.691 49.9337C932.905 50.3284 933.182 50.627 933.523 50.8297C933.865 51.0324 934.238 51.1337 934.643 51.1337ZM944.222 52.5897C943.464 52.5897 942.782 52.419 942.174 52.0777C941.576 51.7257 941.102 51.2404 940.75 50.6217C940.398 49.9924 940.222 49.2617 940.222 48.4297C940.222 47.5977 940.398 46.8724 940.75 46.2537C941.112 45.6244 941.598 45.139 942.206 44.7977C942.814 44.4457 943.491 44.2697 944.238 44.2697C944.995 44.2697 945.672 44.4457 946.27 44.7977C946.878 45.139 947.358 45.6244 947.71 46.2537C948.072 46.8724 948.253 47.5977 948.253 48.4297C948.253 49.2617 948.072 49.9924 947.71 50.6217C947.358 51.2404 946.878 51.7257 946.27 52.0777C945.662 52.419 944.979 52.5897 944.222 52.5897ZM944.222 51.1337C944.627 51.1337 945 51.0324 945.342 50.8297C945.694 50.627 945.976 50.3284 946.19 49.9337C946.403 49.5284 946.51 49.027 946.51 48.4297C946.51 47.8324 946.403 47.3364 946.19 46.9417C945.987 46.5364 945.71 46.2324 945.358 46.0297C945.016 45.827 944.643 45.7257 944.238 45.7257C943.832 45.7257 943.454 45.827 943.102 46.0297C942.76 46.2324 942.483 46.5364 942.27 46.9417C942.056 47.3364 941.95 47.8324 941.95 48.4297C941.95 49.027 942.056 49.5284 942.27 49.9337C942.483 50.3284 942.76 50.627 943.102 50.8297C943.443 51.0324 943.816 51.1337 944.222 51.1337ZM953.704 52.5897C952.936 52.5897 952.258 52.4084 951.672 52.0457C951.085 51.683 950.626 51.187 950.296 50.5577C949.965 49.9284 949.8 49.2137 949.8 48.4137C949.8 47.6137 949.965 46.9044 950.296 46.2857C950.626 45.6564 951.085 45.1657 951.672 44.8137C952.269 44.451 952.952 44.2697 953.72 44.2697C954.349 44.2697 954.898 44.3924 955.368 44.6377C955.848 44.883 956.221 45.2297 956.488 45.6777V40.8777H958.184V52.3977H956.664L956.488 51.1657C956.232 51.539 955.88 51.8697 955.432 52.1577C954.984 52.4457 954.408 52.5897 953.704 52.5897ZM954.008 51.1177C954.733 51.1177 955.325 50.867 955.784 50.3657C956.253 49.8644 956.488 49.219 956.488 48.4297C956.488 47.6297 956.253 46.9844 955.784 46.4937C955.325 45.9924 954.733 45.7417 954.008 45.7417C953.282 45.7417 952.685 45.9924 952.216 46.4937C951.746 46.9844 951.512 47.6297 951.512 48.4297C951.512 48.9524 951.618 49.4164 951.832 49.8217C952.045 50.227 952.338 50.547 952.712 50.7817C953.096 51.0057 953.528 51.1177 954.008 51.1177ZM855.656 74.3977L853.32 66.4617H855.016L856.552 72.4457L858.28 66.4617H860.168L861.896 72.4457L863.432 66.4617H865.128L862.792 74.3977H861.048L859.224 68.1577L857.4 74.3977H855.656ZM868.854 74.5897C868.182 74.5897 867.627 74.4777 867.19 74.2537C866.752 74.0297 866.427 73.7364 866.214 73.3737C866 73.0004 865.894 72.595 865.894 72.1577C865.894 71.3897 866.192 70.7817 866.79 70.3337C867.387 69.8857 868.24 69.6617 869.35 69.6617H871.43V69.5177C871.43 68.899 871.259 68.435 870.918 68.1257C870.587 67.8164 870.155 67.6617 869.622 67.6617C869.152 67.6617 868.742 67.779 868.39 68.0137C868.048 68.2377 867.84 68.5737 867.766 69.0217H866.07C866.123 68.4457 866.315 67.955 866.646 67.5497C866.987 67.1337 867.414 66.819 867.926 66.6057C868.448 66.3817 869.019 66.2697 869.638 66.2697C870.747 66.2697 871.606 66.563 872.214 67.1497C872.822 67.7257 873.126 68.515 873.126 69.5177V74.3977H871.654L871.51 73.0377C871.286 73.475 870.96 73.843 870.534 74.1417C870.107 74.4404 869.547 74.5897 868.854 74.5897ZM869.19 73.2137C869.648 73.2137 870.032 73.107 870.342 72.8937C870.662 72.6697 870.907 72.3764 871.078 72.0137C871.259 71.651 871.371 71.251 871.414 70.8137H869.526C868.854 70.8137 868.374 70.931 868.086 71.1657C867.808 71.4004 867.67 71.6937 867.67 72.0457C867.67 72.4084 867.803 72.6964 868.07 72.9097C868.347 73.1124 868.72 73.2137 869.19 73.2137ZM878.271 74.5897C877.269 74.5897 876.442 74.3444 875.791 73.8537C875.141 73.363 874.767 72.7124 874.671 71.9017H876.383C876.469 72.2644 876.671 72.579 876.991 72.8457C877.311 73.1017 877.733 73.2297 878.255 73.2297C878.767 73.2297 879.141 73.123 879.375 72.9097C879.61 72.6964 879.727 72.451 879.727 72.1737C879.727 71.7684 879.562 71.4964 879.231 71.3577C878.911 71.2084 878.463 71.075 877.887 70.9577C877.439 70.8617 876.991 70.7337 876.543 70.5737C876.106 70.4137 875.738 70.1897 875.439 69.9017C875.151 69.603 875.007 69.203 875.007 68.7017C875.007 68.0084 875.274 67.4324 875.807 66.9737C876.341 66.5044 877.087 66.2697 878.047 66.2697C878.933 66.2697 879.647 66.483 880.191 66.9097C880.746 67.3364 881.071 67.939 881.167 68.7177H879.535C879.482 68.3764 879.322 68.1097 879.055 67.9177C878.799 67.7257 878.453 67.6297 878.015 67.6297C877.589 67.6297 877.258 67.7204 877.023 67.9017C876.789 68.0724 876.671 68.2964 876.671 68.5737C876.671 68.851 876.831 69.0697 877.151 69.2297C877.482 69.3897 877.914 69.5337 878.447 69.6617C878.981 69.779 879.471 69.9177 879.919 70.0777C880.378 70.227 880.746 70.451 881.023 70.7497C881.301 71.0484 881.439 71.4857 881.439 72.0617C881.45 72.787 881.167 73.3897 880.591 73.8697C880.026 74.3497 879.253 74.5897 878.271 74.5897ZM886.322 74.3977C885.543 74.3977 884.925 74.211 884.466 73.8377C884.007 73.4537 883.778 72.7764 883.778 71.8057V67.8857H882.418V66.4617H883.778L883.986 64.4457H885.474V66.4617H887.714V67.8857H885.474V71.8057C885.474 72.243 885.565 72.547 885.746 72.7177C885.938 72.8777 886.263 72.9577 886.722 72.9577H887.634V74.3977H886.322ZM892.972 74.5897C892.193 74.5897 891.5 74.419 890.892 74.0777C890.294 73.7257 889.825 73.2404 889.484 72.6217C889.142 72.003 888.972 71.283 888.972 70.4617C888.972 69.6297 889.137 68.899 889.468 68.2697C889.809 67.6404 890.278 67.1497 890.876 66.7977C891.484 66.4457 892.188 66.2697 892.988 66.2697C893.766 66.2697 894.444 66.4457 895.02 66.7977C895.596 67.139 896.044 67.5977 896.364 68.1737C896.684 68.7497 896.844 69.3844 896.844 70.0777C896.844 70.1844 896.838 70.3017 896.828 70.4297C896.828 70.547 896.822 70.6804 896.812 70.8297H890.636C890.689 71.5977 890.94 72.1844 891.388 72.5897C891.846 72.9844 892.374 73.1817 892.972 73.1817C893.452 73.1817 893.852 73.075 894.172 72.8617C894.502 72.6377 894.748 72.339 894.908 71.9657H896.604C896.39 72.7124 895.964 73.3364 895.324 73.8377C894.694 74.339 893.91 74.5897 892.972 74.5897ZM892.972 67.6617C892.406 67.6617 891.905 67.8324 891.468 68.1737C891.03 68.5044 890.764 69.0057 890.668 69.6777H895.148C895.116 69.059 894.897 68.5684 894.492 68.2057C894.086 67.843 893.58 67.6617 892.972 67.6617Z" fill="black"/>
</svg>
