<svg width="328" height="174" viewBox="0 0 328 174" fill="none" xmlns="http://www.w3.org/2000/svg">
<rect width="328" height="173.771" rx="8" fill="white"/>
<rect width="42" height="42" transform="translate(12 13)" fill="white"/>
<path d="M20.8946 37.0542C24.5505 37.0542 27.6722 37.6338 27.6722 39.9531C27.6722 42.2715 24.5706 42.8722 20.8946 42.8722C17.2386 42.8722 14.1169 42.2926 14.1169 39.9742C14.1169 37.6549 17.2186 37.0542 20.8946 37.0542ZM20.8946 25.8241C23.3837 25.8241 25.3796 27.8297 25.3796 30.3342C25.3796 32.8378 23.3837 34.8453 20.8946 34.8453C18.4054 34.8453 16.4095 32.8378 16.4095 30.3342C16.4095 27.8297 18.4054 25.8241 20.8946 25.8241Z" fill="#97B0D7"/>
<path d="M21.8597 36.8037C25.6608 36.8037 28.9064 37.4063 28.9064 39.8177C28.9064 42.2281 25.6816 42.8527 21.8597 42.8527C18.0586 42.8527 14.813 42.2501 14.813 39.8396C14.813 37.4282 18.0378 36.8037 21.8597 36.8037ZM21.8597 25.1278C24.4476 25.1278 26.5227 27.213 26.5227 29.817C26.5227 32.42 24.4476 34.5072 21.8597 34.5072C19.2717 34.5072 17.1966 32.42 17.1966 29.817C17.1966 27.213 19.2717 25.1278 21.8597 25.1278Z" stroke="black" stroke-width="0.865786"/>
<path d="M33.9299 28.7538L36.0431 30.8669L33.9299 32.9801" stroke="#292D32" stroke-width="0.626632" stroke-miterlimit="10" stroke-linecap="round" stroke-linejoin="round"/>
<path d="M30.1248 30.8668H35.9838" stroke="#292D32" stroke-width="0.626632" stroke-miterlimit="10" stroke-linecap="round" stroke-linejoin="round"/>
<path d="M32.238 38.55L30.1249 36.4369L32.238 34.3238" stroke="#292D32" stroke-width="0.626632" stroke-miterlimit="10" stroke-linecap="round" stroke-linejoin="round"/>
<path d="M36.0432 36.437H30.1842" stroke="#292D32" stroke-width="0.626632" stroke-miterlimit="10" stroke-linecap="round" stroke-linejoin="round"/>
<path d="M43.8711 37.0542C47.5271 37.0542 50.6488 37.6338 50.6488 39.9531C50.6488 42.2715 47.5471 42.8722 43.8711 42.8722C40.2152 42.8722 37.0935 42.2926 37.0935 39.9742C37.0935 37.6549 40.1952 37.0542 43.8711 37.0542ZM43.8711 25.8241C46.3603 25.8241 48.3562 27.8297 48.3562 30.3342C48.3562 32.8378 46.3603 34.8453 43.8711 34.8453C41.382 34.8453 39.3861 32.8378 39.3861 30.3342C39.3861 27.8297 41.382 25.8241 43.8711 25.8241Z" fill="#97B0D7"/>
<path d="M44.8362 36.8037C48.6373 36.8037 51.8829 37.4063 51.8829 39.8177C51.8829 42.2281 48.6581 42.8527 44.8362 42.8527C41.0352 42.8527 37.7896 42.2501 37.7896 39.8396C37.7896 37.4282 41.0143 36.8037 44.8362 36.8037ZM44.8362 25.1278C47.4242 25.1278 49.4993 27.213 49.4993 29.817C49.4993 32.42 47.4242 34.5072 44.8362 34.5072C42.2483 34.5072 40.1732 32.42 40.1732 29.817C40.1732 27.213 42.2483 25.1278 44.8362 25.1278Z" stroke="black" stroke-width="0.865786"/>
<path d="M63.184 28V16.8H66.624C68.5973 16.8 70.048 17.3013 70.976 18.304C71.9147 19.3067 72.384 20.6827 72.384 22.432C72.384 24.1493 71.9147 25.5093 70.976 26.512C70.048 27.504 68.5973 28 66.624 28H63.184ZM64.528 26.88H66.592C67.68 26.88 68.544 26.704 69.184 26.352C69.8347 25.9893 70.2987 25.4773 70.576 24.816C70.8533 24.144 70.992 23.3493 70.992 22.432C70.992 21.4933 70.8533 20.688 70.576 20.016C70.2987 19.344 69.8347 18.8267 69.184 18.464C68.544 18.1013 67.68 17.92 66.592 17.92H64.528V26.88ZM75.0606 18.304C74.794 18.304 74.57 18.2187 74.3886 18.048C74.218 17.8667 74.1326 17.6427 74.1326 17.376C74.1326 17.12 74.218 16.9067 74.3886 16.736C74.57 16.5653 74.794 16.48 75.0606 16.48C75.3166 16.48 75.5353 16.5653 75.7166 16.736C75.898 16.9067 75.9886 17.12 75.9886 17.376C75.9886 17.6427 75.898 17.8667 75.7166 18.048C75.5353 18.2187 75.3166 18.304 75.0606 18.304ZM74.3886 28V20.064H75.7326V28H74.3886ZM78.0728 28V20.064H79.2888L79.4008 21.584C79.6461 21.0613 80.0194 20.6453 80.5208 20.336C81.0221 20.0267 81.6408 19.872 82.3768 19.872V21.28H82.0088C81.5394 21.28 81.1074 21.3653 80.7128 21.536C80.3181 21.696 80.0034 21.9733 79.7688 22.368C79.5341 22.7627 79.4168 23.3067 79.4168 24V28H78.0728ZM87.1564 28.192C86.399 28.192 85.727 28.0213 85.1404 27.68C84.5537 27.328 84.0897 26.8427 83.7484 26.224C83.4177 25.6053 83.2524 24.8747 83.2524 24.032C83.2524 23.2 83.4177 22.4747 83.7484 21.856C84.079 21.2267 84.5377 20.7413 85.1244 20.4C85.7217 20.048 86.4097 19.872 87.1884 19.872C87.9564 19.872 88.6177 20.048 89.1724 20.4C89.7377 20.7413 90.1697 21.1947 90.4684 21.76C90.767 22.3253 90.9164 22.9333 90.9164 23.584C90.9164 23.7013 90.911 23.8187 90.9004 23.936C90.9004 24.0533 90.9004 24.1867 90.9004 24.336H84.5804C84.6124 24.944 84.751 25.4507 84.9964 25.856C85.2524 26.2507 85.567 26.5493 85.9404 26.752C86.3244 26.9547 86.7297 27.056 87.1564 27.056C87.711 27.056 88.175 26.928 88.5484 26.672C88.9217 26.416 89.1937 26.0693 89.3644 25.632H90.6924C90.479 26.368 90.0684 26.9813 89.4604 27.472C88.863 27.952 88.095 28.192 87.1564 28.192ZM87.1564 21.008C86.5164 21.008 85.9457 21.2053 85.4444 21.6C84.9537 21.984 84.671 22.5493 84.5964 23.296H89.5884C89.5564 22.5813 89.311 22.0213 88.8524 21.616C88.3937 21.2107 87.8284 21.008 87.1564 21.008ZM96.3458 28.192C95.5884 28.192 94.9058 28.0213 94.2978 27.68C93.7004 27.328 93.2258 26.8427 92.8738 26.224C92.5324 25.5947 92.3618 24.864 92.3618 24.032C92.3618 23.2 92.5324 22.4747 92.8738 21.856C93.2258 21.2267 93.7004 20.7413 94.2978 20.4C94.9058 20.048 95.5884 19.872 96.3458 19.872C97.2844 19.872 98.0738 20.1173 98.7138 20.608C99.3644 21.0987 99.7751 21.7547 99.9458 22.576H98.5698C98.4631 22.0853 98.2018 21.7067 97.7858 21.44C97.3698 21.1627 96.8844 21.024 96.3298 21.024C95.8818 21.024 95.4604 21.136 95.0658 21.36C94.6711 21.584 94.3511 21.92 94.1058 22.368C93.8604 22.816 93.7378 23.3707 93.7378 24.032C93.7378 24.6933 93.8604 25.248 94.1058 25.696C94.3511 26.144 94.6711 26.4853 95.0658 26.72C95.4604 26.944 95.8818 27.056 96.3298 27.056C96.8844 27.056 97.3698 26.9227 97.7858 26.656C98.2018 26.3787 98.4631 25.9893 98.5698 25.488H99.9458C99.7858 26.288 99.3804 26.9387 98.7298 27.44C98.0791 27.9413 97.2844 28.192 96.3458 28.192ZM104.74 28C104.015 28 103.444 27.824 103.028 27.472C102.612 27.12 102.404 26.4853 102.404 25.568V21.2H101.028V20.064H102.404L102.58 18.16H103.748V20.064H106.084V21.2H103.748V25.568C103.748 26.0693 103.849 26.4107 104.052 26.592C104.255 26.7627 104.612 26.848 105.124 26.848H105.956V28H104.74ZM115.674 28.192C114.917 28.192 114.234 28.0213 113.626 27.68C113.029 27.328 112.554 26.8427 112.202 26.224C111.861 25.5947 111.69 24.864 111.69 24.032C111.69 23.2 111.861 22.4747 112.202 21.856C112.554 21.2267 113.029 20.7413 113.626 20.4C114.234 20.048 114.917 19.872 115.674 19.872C116.613 19.872 117.402 20.1173 118.042 20.608C118.693 21.0987 119.103 21.7547 119.274 22.576H117.898C117.791 22.0853 117.53 21.7067 117.114 21.44C116.698 21.1627 116.213 21.024 115.658 21.024C115.21 21.024 114.789 21.136 114.394 21.36C113.999 21.584 113.679 21.92 113.434 22.368C113.189 22.816 113.066 23.3707 113.066 24.032C113.066 24.6933 113.189 25.248 113.434 25.696C113.679 26.144 113.999 26.4853 114.394 26.72C114.789 26.944 115.21 27.056 115.658 27.056C116.213 27.056 116.698 26.9227 117.114 26.656C117.53 26.3787 117.791 25.9893 117.898 25.488H119.274C119.114 26.288 118.709 26.9387 118.058 27.44C117.407 27.9413 116.613 28.192 115.674 28.192ZM124.047 28.192C123.108 28.192 122.362 27.9093 121.807 27.344C121.252 26.768 120.975 25.888 120.975 24.704V20.064H122.319V24.56C122.319 26.2133 122.996 27.04 124.351 27.04C125.044 27.04 125.615 26.7947 126.063 26.304C126.522 25.8027 126.751 25.0933 126.751 24.176V20.064H128.095V28H126.879L126.783 26.576C126.538 27.0773 126.17 27.472 125.679 27.76C125.199 28.048 124.655 28.192 124.047 28.192ZM133.347 28.192C132.398 28.192 131.608 27.952 130.979 27.472C130.35 26.992 129.982 26.3413 129.875 25.52H131.251C131.336 25.936 131.555 26.2987 131.907 26.608C132.27 26.9067 132.755 27.056 133.363 27.056C133.928 27.056 134.344 26.9387 134.611 26.704C134.878 26.4587 135.011 26.1707 135.011 25.84C135.011 25.36 134.835 25.04 134.483 24.88C134.142 24.72 133.656 24.576 133.027 24.448C132.6 24.3627 132.174 24.24 131.747 24.08C131.32 23.92 130.963 23.696 130.675 23.408C130.387 23.1093 130.243 22.72 130.243 22.24C130.243 21.5467 130.499 20.9813 131.011 20.544C131.534 20.096 132.238 19.872 133.123 19.872C133.966 19.872 134.654 20.0853 135.187 20.512C135.731 20.928 136.046 21.5253 136.131 22.304H134.803C134.75 21.8987 134.574 21.584 134.275 21.36C133.987 21.1253 133.598 21.008 133.107 21.008C132.627 21.008 132.254 21.1093 131.987 21.312C131.731 21.5147 131.603 21.7813 131.603 22.112C131.603 22.432 131.768 22.6827 132.099 22.864C132.44 23.0453 132.899 23.2 133.475 23.328C133.966 23.4347 134.43 23.568 134.867 23.728C135.315 23.8773 135.678 24.1067 135.955 24.416C136.243 24.7147 136.387 25.152 136.387 25.728C136.398 26.4427 136.126 27.0347 135.571 27.504C135.027 27.9627 134.286 28.192 133.347 28.192ZM141.084 28C140.358 28 139.788 27.824 139.372 27.472C138.956 27.12 138.748 26.4853 138.748 25.568V21.2H137.372V20.064H138.748L138.924 18.16H140.092V20.064H142.428V21.2H140.092V25.568C140.092 26.0693 140.193 26.4107 140.396 26.592C140.598 26.7627 140.956 26.848 141.468 26.848H142.3V28H141.084ZM147.533 28.192C146.786 28.192 146.114 28.0213 145.517 27.68C144.919 27.3387 144.445 26.8587 144.093 26.24C143.751 25.6107 143.581 24.8747 143.581 24.032C143.581 23.1893 143.757 22.4587 144.109 21.84C144.461 21.2107 144.935 20.7253 145.533 20.384C146.141 20.0427 146.818 19.872 147.565 19.872C148.311 19.872 148.983 20.0427 149.581 20.384C150.178 20.7253 150.647 21.2107 150.989 21.84C151.341 22.4587 151.517 23.1893 151.517 24.032C151.517 24.8747 151.341 25.6107 150.989 26.24C150.637 26.8587 150.157 27.3387 149.549 27.68C148.951 28.0213 148.279 28.192 147.533 28.192ZM147.533 27.04C147.991 27.04 148.418 26.928 148.813 26.704C149.207 26.48 149.527 26.144 149.773 25.696C150.018 25.248 150.141 24.6933 150.141 24.032C150.141 23.3707 150.018 22.816 149.773 22.368C149.538 21.92 149.223 21.584 148.829 21.36C148.434 21.136 148.013 21.024 147.565 21.024C147.106 21.024 146.679 21.136 146.285 21.36C145.89 21.584 145.57 21.92 145.325 22.368C145.079 22.816 144.957 23.3707 144.957 24.032C144.957 24.6933 145.079 25.248 145.325 25.696C145.57 26.144 145.885 26.48 146.269 26.704C146.663 26.928 147.085 27.04 147.533 27.04ZM153.385 28V20.064H154.601L154.697 21.216C154.953 20.7893 155.295 20.4587 155.721 20.224C156.148 19.9893 156.628 19.872 157.161 19.872C157.791 19.872 158.329 20 158.777 20.256C159.236 20.512 159.588 20.9013 159.833 21.424C160.111 20.944 160.489 20.5653 160.969 20.288C161.46 20.0107 161.988 19.872 162.553 19.872C163.503 19.872 164.26 20.16 164.825 20.736C165.391 21.3013 165.673 22.176 165.673 23.36V28H164.345V23.504C164.345 22.6827 164.18 22.064 163.849 21.648C163.519 21.232 163.044 21.024 162.425 21.024C161.785 21.024 161.252 21.2747 160.825 21.776C160.409 22.2667 160.201 22.9707 160.201 23.888V28H158.857V23.504C158.857 22.6827 158.692 22.064 158.361 21.648C158.031 21.232 157.556 21.024 156.937 21.024C156.308 21.024 155.78 21.2747 155.353 21.776C154.937 22.2667 154.729 22.9707 154.729 23.888V28H153.385ZM171.266 28.192C170.508 28.192 169.836 28.0213 169.25 27.68C168.663 27.328 168.199 26.8427 167.858 26.224C167.527 25.6053 167.362 24.8747 167.362 24.032C167.362 23.2 167.527 22.4747 167.858 21.856C168.188 21.2267 168.647 20.7413 169.234 20.4C169.831 20.048 170.519 19.872 171.298 19.872C172.066 19.872 172.727 20.048 173.282 20.4C173.847 20.7413 174.279 21.1947 174.578 21.76C174.876 22.3253 175.026 22.9333 175.026 23.584C175.026 23.7013 175.02 23.8187 175.01 23.936C175.01 24.0533 175.01 24.1867 175.01 24.336H168.69C168.722 24.944 168.86 25.4507 169.106 25.856C169.362 26.2507 169.676 26.5493 170.05 26.752C170.434 26.9547 170.839 27.056 171.266 27.056C171.82 27.056 172.284 26.928 172.658 26.672C173.031 26.416 173.303 26.0693 173.474 25.632H174.802C174.588 26.368 174.178 26.9813 173.57 27.472C172.972 27.952 172.204 28.192 171.266 28.192ZM171.266 21.008C170.626 21.008 170.055 21.2053 169.554 21.6C169.063 21.984 168.78 22.5493 168.706 23.296H173.698C173.666 22.5813 173.42 22.0213 172.962 21.616C172.503 21.2107 171.938 21.008 171.266 21.008ZM176.807 28V20.064H178.023L178.135 21.584C178.38 21.0613 178.754 20.6453 179.255 20.336C179.756 20.0267 180.375 19.872 181.111 19.872V21.28H180.743C180.274 21.28 179.842 21.3653 179.447 21.536C179.052 21.696 178.738 21.9733 178.503 22.368C178.268 22.7627 178.151 23.3067 178.151 24V28H176.807ZM190.502 28.192C189.745 28.192 189.062 28.0213 188.454 27.68C187.857 27.328 187.382 26.8427 187.03 26.224C186.689 25.5947 186.518 24.864 186.518 24.032C186.518 23.2 186.689 22.4747 187.03 21.856C187.382 21.2267 187.857 20.7413 188.454 20.4C189.062 20.048 189.745 19.872 190.502 19.872C191.441 19.872 192.23 20.1173 192.87 20.608C193.521 21.0987 193.931 21.7547 194.102 22.576H192.726C192.619 22.0853 192.358 21.7067 191.942 21.44C191.526 21.1627 191.041 21.024 190.486 21.024C190.038 21.024 189.617 21.136 189.222 21.36C188.827 21.584 188.507 21.92 188.262 22.368C188.017 22.816 187.894 23.3707 187.894 24.032C187.894 24.6933 188.017 25.248 188.262 25.696C188.507 26.144 188.827 26.4853 189.222 26.72C189.617 26.944 190.038 27.056 190.486 27.056C191.041 27.056 191.526 26.9227 191.942 26.656C192.358 26.3787 192.619 25.9893 192.726 25.488H194.102C193.942 26.288 193.537 26.9387 192.886 27.44C192.235 27.9413 191.441 28.192 190.502 28.192ZM199.595 28.192C198.848 28.192 198.176 28.0213 197.579 27.68C196.982 27.3387 196.507 26.8587 196.155 26.24C195.814 25.6107 195.643 24.8747 195.643 24.032C195.643 23.1893 195.819 22.4587 196.171 21.84C196.523 21.2107 196.998 20.7253 197.595 20.384C198.203 20.0427 198.88 19.872 199.627 19.872C200.374 19.872 201.046 20.0427 201.643 20.384C202.24 20.7253 202.71 21.2107 203.051 21.84C203.403 22.4587 203.579 23.1893 203.579 24.032C203.579 24.8747 203.403 25.6107 203.051 26.24C202.699 26.8587 202.219 27.3387 201.611 27.68C201.014 28.0213 200.342 28.192 199.595 28.192ZM199.595 27.04C200.054 27.04 200.48 26.928 200.875 26.704C201.27 26.48 201.59 26.144 201.835 25.696C202.08 25.248 202.203 24.6933 202.203 24.032C202.203 23.3707 202.08 22.816 201.835 22.368C201.6 21.92 201.286 21.584 200.891 21.36C200.496 21.136 200.075 21.024 199.627 21.024C199.168 21.024 198.742 21.136 198.347 21.36C197.952 21.584 197.632 21.92 197.387 22.368C197.142 22.816 197.019 23.3707 197.019 24.032C197.019 24.6933 197.142 25.248 197.387 25.696C197.632 26.144 197.947 26.48 198.331 26.704C198.726 26.928 199.147 27.04 199.595 27.04ZM205.448 28V20.064H206.664L206.744 21.488C207 20.9867 207.368 20.592 207.848 20.304C208.328 20.016 208.872 19.872 209.48 19.872C210.418 19.872 211.165 20.16 211.72 20.736C212.285 21.3013 212.568 22.176 212.568 23.36V28H211.224V23.504C211.224 21.8507 210.541 21.024 209.176 21.024C208.493 21.024 207.922 21.2747 207.464 21.776C207.016 22.2667 206.792 22.9707 206.792 23.888V28H205.448ZM217.74 28C217.015 28 216.444 27.824 216.028 27.472C215.612 27.12 215.404 26.4853 215.404 25.568V21.2H214.028V20.064H215.404L215.58 18.16H216.748V20.064H219.084V21.2H216.748V25.568C216.748 26.0693 216.849 26.4107 217.052 26.592C217.255 26.7627 217.612 26.848 218.124 26.848H218.956V28H217.74ZM223.432 28.192C222.77 28.192 222.221 28.08 221.784 27.856C221.346 27.632 221.021 27.3333 220.808 26.96C220.594 26.5867 220.488 26.1813 220.488 25.744C220.488 24.9333 220.797 24.3093 221.416 23.872C222.034 23.4347 222.877 23.216 223.944 23.216H226.088V23.12C226.088 22.4267 225.906 21.904 225.544 21.552C225.181 21.1893 224.696 21.008 224.088 21.008C223.565 21.008 223.112 21.1413 222.728 21.408C222.354 21.664 222.12 22.0427 222.024 22.544H220.648C220.701 21.968 220.893 21.4827 221.224 21.088C221.565 20.6933 221.986 20.3947 222.488 20.192C222.989 19.9787 223.522 19.872 224.088 19.872C225.197 19.872 226.029 20.1707 226.584 20.768C227.149 21.3547 227.432 22.1387 227.432 23.12V28H226.232L226.152 26.576C225.928 27.024 225.597 27.408 225.16 27.728C224.733 28.0373 224.157 28.192 223.432 28.192ZM223.64 27.056C224.152 27.056 224.589 26.9227 224.952 26.656C225.325 26.3893 225.608 26.0427 225.8 25.616C225.992 25.1893 226.088 24.7413 226.088 24.272V24.256H224.056C223.266 24.256 222.706 24.3947 222.376 24.672C222.056 24.9387 221.896 25.2747 221.896 25.68C221.896 26.096 222.045 26.432 222.344 26.688C222.653 26.9333 223.085 27.056 223.64 27.056ZM233.096 28.192C232.338 28.192 231.656 28.0213 231.048 27.68C230.45 27.328 229.976 26.8427 229.624 26.224C229.282 25.5947 229.112 24.864 229.112 24.032C229.112 23.2 229.282 22.4747 229.624 21.856C229.976 21.2267 230.45 20.7413 231.048 20.4C231.656 20.048 232.338 19.872 233.096 19.872C234.034 19.872 234.824 20.1173 235.464 20.608C236.114 21.0987 236.525 21.7547 236.696 22.576H235.32C235.213 22.0853 234.952 21.7067 234.536 21.44C234.12 21.1627 233.634 21.024 233.08 21.024C232.632 21.024 232.21 21.136 231.816 21.36C231.421 21.584 231.101 21.92 230.856 22.368C230.61 22.816 230.488 23.3707 230.488 24.032C230.488 24.6933 230.61 25.248 230.856 25.696C231.101 26.144 231.421 26.4853 231.816 26.72C232.21 26.944 232.632 27.056 233.08 27.056C233.634 27.056 234.12 26.9227 234.536 26.656C234.952 26.3787 235.213 25.9893 235.32 25.488H236.696C236.536 26.288 236.13 26.9387 235.48 27.44C234.829 27.9413 234.034 28.192 233.096 28.192ZM241.49 28C240.765 28 240.194 27.824 239.778 27.472C239.362 27.12 239.154 26.4853 239.154 25.568V21.2H237.778V20.064H239.154L239.33 18.16H240.498V20.064H242.834V21.2H240.498V25.568C240.498 26.0693 240.599 26.4107 240.802 26.592C241.005 26.7627 241.362 26.848 241.874 26.848H242.706V28H241.49ZM244.298 29.904L245.226 26.368H246.618L245.226 29.904H244.298ZM252.448 28V20.064H253.664L253.744 21.488C254 20.9867 254.368 20.592 254.848 20.304C255.328 20.016 255.872 19.872 256.48 19.872C257.418 19.872 258.165 20.16 258.72 20.736C259.285 21.3013 259.568 22.176 259.568 23.36V28H258.224V23.504C258.224 21.8507 257.541 21.024 256.176 21.024C255.493 21.024 254.922 21.2747 254.464 21.776C254.016 22.2667 253.792 22.9707 253.792 23.888V28H252.448ZM265.22 28.192C264.473 28.192 263.801 28.0213 263.204 27.68C262.607 27.3387 262.132 26.8587 261.78 26.24C261.439 25.6107 261.268 24.8747 261.268 24.032C261.268 23.1893 261.444 22.4587 261.796 21.84C262.148 21.2107 262.623 20.7253 263.22 20.384C263.828 20.0427 264.505 19.872 265.252 19.872C265.999 19.872 266.671 20.0427 267.268 20.384C267.865 20.7253 268.335 21.2107 268.676 21.84C269.028 22.4587 269.204 23.1893 269.204 24.032C269.204 24.8747 269.028 25.6107 268.676 26.24C268.324 26.8587 267.844 27.3387 267.236 27.68C266.639 28.0213 265.967 28.192 265.22 28.192ZM265.22 27.04C265.679 27.04 266.105 26.928 266.5 26.704C266.895 26.48 267.215 26.144 267.46 25.696C267.705 25.248 267.828 24.6933 267.828 24.032C267.828 23.3707 267.705 22.816 267.46 22.368C267.225 21.92 266.911 21.584 266.516 21.36C266.121 21.136 265.7 21.024 265.252 21.024C264.793 21.024 264.367 21.136 263.972 21.36C263.577 21.584 263.257 21.92 263.012 22.368C262.767 22.816 262.644 23.3707 262.644 24.032C262.644 24.6933 262.767 25.248 263.012 25.696C263.257 26.144 263.572 26.48 263.956 26.704C264.351 26.928 264.772 27.04 265.22 27.04ZM66.704 50.192C65.9147 50.192 65.2213 50.0107 64.624 49.648C64.0373 49.2853 63.5787 48.7893 63.248 48.16C62.928 47.5307 62.768 46.816 62.768 46.016C62.768 45.216 62.9333 44.5067 63.264 43.888C63.5947 43.2587 64.0533 42.768 64.64 42.416C65.2267 42.0533 65.92 41.872 66.72 41.872C67.3707 41.872 67.9467 42.0053 68.448 42.272C68.9493 42.5387 69.3387 42.912 69.616 43.392V38.48H70.96V50H69.744L69.616 48.688C69.36 49.072 68.992 49.4187 68.512 49.728C68.032 50.0373 67.4293 50.192 66.704 50.192ZM66.848 49.024C67.3813 49.024 67.8507 48.9013 68.256 48.656C68.672 48.4 68.992 48.048 69.216 47.6C69.4507 47.152 69.568 46.6293 69.568 46.032C69.568 45.4347 69.4507 44.912 69.216 44.464C68.992 44.016 68.672 43.6693 68.256 43.424C67.8507 43.168 67.3813 43.04 66.848 43.04C66.3253 43.04 65.856 43.168 65.44 43.424C65.0347 43.6693 64.7147 44.016 64.48 44.464C64.256 44.912 64.144 45.4347 64.144 46.032C64.144 46.6293 64.256 47.152 64.48 47.6C64.7147 48.048 65.0347 48.4 65.44 48.656C65.856 48.9013 66.3253 49.024 66.848 49.024ZM76.7189 50.192C75.9615 50.192 75.2895 50.0213 74.7029 49.68C74.1162 49.328 73.6522 48.8427 73.3109 48.224C72.9802 47.6053 72.8149 46.8747 72.8149 46.032C72.8149 45.2 72.9802 44.4747 73.3109 43.856C73.6415 43.2267 74.1002 42.7413 74.6869 42.4C75.2842 42.048 75.9722 41.872 76.7509 41.872C77.5189 41.872 78.1802 42.048 78.7349 42.4C79.3002 42.7413 79.7322 43.1947 80.0309 43.76C80.3295 44.3253 80.4789 44.9333 80.4789 45.584C80.4789 45.7013 80.4735 45.8187 80.4629 45.936C80.4629 46.0533 80.4629 46.1867 80.4629 46.336H74.1429C74.1749 46.944 74.3135 47.4507 74.5589 47.856C74.8149 48.2507 75.1295 48.5493 75.5029 48.752C75.8869 48.9547 76.2922 49.056 76.7189 49.056C77.2735 49.056 77.7375 48.928 78.1109 48.672C78.4842 48.416 78.7562 48.0693 78.9269 47.632H80.2549C80.0415 48.368 79.6309 48.9813 79.0229 49.472C78.4255 49.952 77.6575 50.192 76.7189 50.192ZM76.7189 43.008C76.0789 43.008 75.5082 43.2053 75.0069 43.6C74.5162 43.984 74.2335 44.5493 74.1589 45.296H79.1509C79.1189 44.5813 78.8735 44.0213 78.4149 43.616C77.9562 43.2107 77.3909 43.008 76.7189 43.008ZM82.2603 50V38.48H83.6043V50H82.2603ZM86.6231 40.304C86.3565 40.304 86.1325 40.2187 85.9511 40.048C85.7805 39.8667 85.6951 39.6427 85.6951 39.376C85.6951 39.12 85.7805 38.9067 85.9511 38.736C86.1325 38.5653 86.3565 38.48 86.6231 38.48C86.8791 38.48 87.0978 38.5653 87.2791 38.736C87.4605 38.9067 87.5511 39.12 87.5511 39.376C87.5511 39.6427 87.4605 39.8667 87.2791 40.048C87.0978 40.2187 86.8791 40.304 86.6231 40.304ZM85.9511 50V42.064H87.2951V50H85.9511ZM91.9233 50L88.9153 42.064H90.3233L92.7073 48.704L95.1073 42.064H96.4833L93.4753 50H91.9233ZM101.141 50.192C100.383 50.192 99.7114 50.0213 99.1248 49.68C98.5381 49.328 98.0741 48.8427 97.7328 48.224C97.4021 47.6053 97.2368 46.8747 97.2368 46.032C97.2368 45.2 97.4021 44.4747 97.7328 43.856C98.0634 43.2267 98.5221 42.7413 99.1088 42.4C99.7061 42.048 100.394 41.872 101.173 41.872C101.941 41.872 102.602 42.048 103.157 42.4C103.722 42.7413 104.154 43.1947 104.453 43.76C104.751 44.3253 104.901 44.9333 104.901 45.584C104.901 45.7013 104.895 45.8187 104.885 45.936C104.885 46.0533 104.885 46.1867 104.885 46.336H98.5648C98.5968 46.944 98.7354 47.4507 98.9808 47.856C99.2368 48.2507 99.5514 48.5493 99.9248 48.752C100.309 48.9547 100.714 49.056 101.141 49.056C101.695 49.056 102.159 48.928 102.533 48.672C102.906 48.416 103.178 48.0693 103.349 47.632H104.677C104.463 48.368 104.053 48.9813 103.445 49.472C102.847 49.952 102.079 50.192 101.141 50.192ZM101.141 43.008C100.501 43.008 99.9301 43.2053 99.4288 43.6C98.9381 43.984 98.6554 44.5493 98.5807 45.296H103.573C103.541 44.5813 103.295 44.0213 102.837 43.616C102.378 43.2107 101.813 43.008 101.141 43.008ZM106.682 50V42.064H107.898L108.01 43.584C108.255 43.0613 108.629 42.6453 109.13 42.336C109.631 42.0267 110.25 41.872 110.986 41.872V43.28H110.618C110.149 43.28 109.717 43.3653 109.322 43.536C108.927 43.696 108.613 43.9733 108.378 44.368C108.143 44.7627 108.026 45.3067 108.026 46V50H106.682ZM113.359 53.52L115.327 49.232H114.863L111.711 42.064H113.167L115.791 48.24L118.575 42.064H119.967L114.767 53.52H113.359ZM125.62 53.52V42.064H126.836L126.964 43.376C127.22 42.992 127.582 42.6453 128.052 42.336C128.532 42.0267 129.14 41.872 129.876 41.872C130.665 41.872 131.353 42.0533 131.94 42.416C132.526 42.7787 132.98 43.2747 133.3 43.904C133.63 44.5333 133.796 45.248 133.796 46.048C133.796 46.848 133.63 47.5627 133.3 48.192C132.98 48.8107 132.521 49.3013 131.924 49.664C131.337 50.016 130.649 50.192 129.86 50.192C129.209 50.192 128.628 50.0587 128.116 49.792C127.614 49.5253 127.23 49.152 126.964 48.672V53.52H125.62ZM129.716 49.024C130.249 49.024 130.718 48.9013 131.124 48.656C131.529 48.4 131.849 48.048 132.084 47.6C132.318 47.152 132.436 46.6293 132.436 46.032C132.436 45.4347 132.318 44.912 132.084 44.464C131.849 44.016 131.529 43.6693 131.124 43.424C130.718 43.168 130.249 43.04 129.716 43.04C129.182 43.04 128.713 43.168 128.308 43.424C127.902 43.6693 127.582 44.016 127.348 44.464C127.113 44.912 126.996 45.4347 126.996 46.032C126.996 46.6293 127.113 47.152 127.348 47.6C127.582 48.048 127.902 48.4 128.308 48.656C128.713 48.9013 129.182 49.024 129.716 49.024ZM138.307 50.192C137.645 50.192 137.096 50.08 136.659 49.856C136.221 49.632 135.896 49.3333 135.683 48.96C135.469 48.5867 135.363 48.1813 135.363 47.744C135.363 46.9333 135.672 46.3093 136.291 45.872C136.909 45.4347 137.752 45.216 138.819 45.216H140.963V45.12C140.963 44.4267 140.781 43.904 140.419 43.552C140.056 43.1893 139.571 43.008 138.963 43.008C138.44 43.008 137.987 43.1413 137.603 43.408C137.229 43.664 136.995 44.0427 136.899 44.544H135.523C135.576 43.968 135.768 43.4827 136.099 43.088C136.44 42.6933 136.861 42.3947 137.363 42.192C137.864 41.9787 138.397 41.872 138.963 41.872C140.072 41.872 140.904 42.1707 141.459 42.768C142.024 43.3547 142.307 44.1387 142.307 45.12V50H141.107L141.027 48.576C140.803 49.024 140.472 49.408 140.035 49.728C139.608 50.0373 139.032 50.192 138.307 50.192ZM138.515 49.056C139.027 49.056 139.464 48.9227 139.827 48.656C140.2 48.3893 140.483 48.0427 140.675 47.616C140.867 47.1893 140.963 46.7413 140.963 46.272V46.256H138.931C138.141 46.256 137.581 46.3947 137.251 46.672C136.931 46.9387 136.771 47.2747 136.771 47.68C136.771 48.096 136.92 48.432 137.219 48.688C137.528 48.9333 137.96 49.056 138.515 49.056ZM144.323 50V42.064H145.539L145.651 43.584C145.896 43.0613 146.269 42.6453 146.771 42.336C147.272 42.0267 147.891 41.872 148.627 41.872V43.28H148.259C147.789 43.28 147.357 43.3653 146.963 43.536C146.568 43.696 146.253 43.9733 146.019 44.368C145.784 44.7627 145.667 45.3067 145.667 46V50H144.323ZM153.271 50C152.546 50 151.975 49.824 151.559 49.472C151.143 49.12 150.935 48.4853 150.935 47.568V43.2H149.559V42.064H150.935L151.111 40.16H152.279V42.064H154.615V43.2H152.279V47.568C152.279 48.0693 152.381 48.4107 152.583 48.592C152.786 48.7627 153.143 48.848 153.655 48.848H154.487V50H153.271ZM156.323 50V42.064H157.539L157.619 43.488C157.875 42.9867 158.243 42.592 158.723 42.304C159.203 42.016 159.747 41.872 160.355 41.872C161.293 41.872 162.04 42.16 162.595 42.736C163.16 43.3013 163.443 44.176 163.443 45.36V50H162.099V45.504C162.099 43.8507 161.416 43.024 160.051 43.024C159.368 43.024 158.797 43.2747 158.339 43.776C157.891 44.2667 157.667 44.9707 157.667 45.888V50H156.323ZM169.047 50.192C168.29 50.192 167.618 50.0213 167.031 49.68C166.444 49.328 165.98 48.8427 165.639 48.224C165.308 47.6053 165.143 46.8747 165.143 46.032C165.143 45.2 165.308 44.4747 165.639 43.856C165.97 43.2267 166.428 42.7413 167.015 42.4C167.612 42.048 168.3 41.872 169.079 41.872C169.847 41.872 170.508 42.048 171.063 42.4C171.628 42.7413 172.06 43.1947 172.359 43.76C172.658 44.3253 172.807 44.9333 172.807 45.584C172.807 45.7013 172.802 45.8187 172.791 45.936C172.791 46.0533 172.791 46.1867 172.791 46.336H166.471C166.503 46.944 166.642 47.4507 166.887 47.856C167.143 48.2507 167.458 48.5493 167.831 48.752C168.215 48.9547 168.62 49.056 169.047 49.056C169.602 49.056 170.066 48.928 170.439 48.672C170.812 48.416 171.084 48.0693 171.255 47.632H172.583C172.37 48.368 171.959 48.9813 171.351 49.472C170.754 49.952 169.986 50.192 169.047 50.192ZM169.047 43.008C168.407 43.008 167.836 43.2053 167.335 43.6C166.844 43.984 166.562 44.5493 166.487 45.296H171.479C171.447 44.5813 171.202 44.0213 170.743 43.616C170.284 43.2107 169.719 43.008 169.047 43.008ZM174.588 50V42.064H175.804L175.916 43.584C176.162 43.0613 176.535 42.6453 177.036 42.336C177.538 42.0267 178.156 41.872 178.892 41.872V43.28H178.524C178.055 43.28 177.623 43.3653 177.228 43.536C176.834 43.696 176.519 43.9733 176.284 44.368C176.05 44.7627 175.932 45.3067 175.932 46V50H174.588ZM183.441 50.192C182.492 50.192 181.702 49.952 181.073 49.472C180.444 48.992 180.076 48.3413 179.969 47.52H181.345C181.43 47.936 181.649 48.2987 182.001 48.608C182.364 48.9067 182.849 49.056 183.457 49.056C184.022 49.056 184.438 48.9387 184.705 48.704C184.972 48.4587 185.105 48.1707 185.105 47.84C185.105 47.36 184.929 47.04 184.577 46.88C184.236 46.72 183.75 46.576 183.121 46.448C182.694 46.3627 182.268 46.24 181.841 46.08C181.414 45.92 181.057 45.696 180.769 45.408C180.481 45.1093 180.337 44.72 180.337 44.24C180.337 43.5467 180.593 42.9813 181.105 42.544C181.628 42.096 182.332 41.872 183.217 41.872C184.06 41.872 184.748 42.0853 185.281 42.512C185.825 42.928 186.14 43.5253 186.225 44.304H184.897C184.844 43.8987 184.668 43.584 184.369 43.36C184.081 43.1253 183.692 43.008 183.201 43.008C182.721 43.008 182.348 43.1093 182.081 43.312C181.825 43.5147 181.697 43.7813 181.697 44.112C181.697 44.432 181.862 44.6827 182.193 44.864C182.534 45.0453 182.993 45.2 183.569 45.328C184.06 45.4347 184.524 45.568 184.961 45.728C185.409 45.8773 185.772 46.1067 186.049 46.416C186.337 46.7147 186.481 47.152 186.481 47.728C186.492 48.4427 186.22 49.0347 185.665 49.504C185.121 49.9627 184.38 50.192 183.441 50.192Z" fill="black"/>
<line x1="21.7271" y1="61.4428" x2="306.273" y2="61.4428" stroke="#F5EEDD" stroke-width="0.885635"/>
<rect width="42" height="42" transform="translate(12 66.8856)" fill="white"/>
<rect x="27.9939" y="98.9817" width="8.99903" height="2.88417" rx="1.44209" fill="#C0D1B9"/>
<path d="M45.7509 86.915C46.8766 86.915 47.8039 87.8347 47.6083 88.9433C46.4842 95.3146 40.1473 100.194 32.4983 100.194C24.8494 100.194 18.5125 95.3146 17.3884 88.9433C17.1928 87.8347 18.12 86.915 19.2457 86.915C21.8863 86.915 26.8323 86.915 32.4983 86.915C38.1643 86.915 43.1103 86.915 45.7509 86.915Z" fill="#C0D1B9"/>
<rect x="29.3648" y="98.5381" width="9.26319" height="2.34639" rx="1.1732" stroke="black" stroke-width="0.916035"/>
<path d="M48.9929 84.889C50.0387 84.889 50.805 85.7259 50.6427 86.6457C49.417 93.5933 42.4758 98.994 34.0022 98.994C25.5286 98.994 18.5875 93.5933 17.3617 86.6457C17.1994 85.7259 17.9658 84.889 19.0116 84.889H19.0291H19.0467H19.0643H19.0821H19.0998H19.1177H19.1355H19.1535H19.1715H19.1896H19.2077H19.2259H19.2441H19.2624H19.2808H19.2992H19.3177H19.3362H19.3548H19.3734H19.3921H19.4109H19.4297H19.4486H19.4676H19.4865H19.5056H19.5247H19.5439H19.5631H19.5824H19.6017H19.6211H19.6406H19.6601H19.6797H19.6993H19.719H19.7387H19.7585H19.7784H19.7983H19.8183H19.8383H19.8584H19.8785H19.8987H19.9189H19.9392H19.9596H19.98H20.0005H20.021H20.0416H20.0622H20.0829H20.1036H20.1244H20.1453H20.1662H20.1872H20.2082H20.2293H20.2504H20.2716H20.2928H20.3141H20.3355H20.3569H20.3783H20.3998H20.4214H20.443H20.4647H20.4864H20.5082H20.53H20.5519H20.5738H20.5958H20.6179H20.64H20.6621H20.6843H20.7066H20.7289H20.7513H20.7737H20.7962H20.8187H20.8413H20.8639H20.8866H20.9093H20.9321H20.9549H20.9778H21.0008H21.0237H21.0468H21.0699H21.093H21.1162H21.1395H21.1628H21.1861H21.2095H21.233H21.2565H21.2801H21.3037H21.3273H21.351H21.3748H21.3986H21.4225H21.4464H21.4703H21.4943H21.5184H21.5425H21.5667H21.5909H21.6151H21.6395H21.6638H21.6882H21.7127H21.7372H21.7618H21.7864H21.811H21.8357H21.8605H21.8853H21.9101H21.935H21.96H21.985H22.01H22.0351H22.0603H22.0855H22.1107H22.136H22.1613H22.1867H22.2122H22.2376H22.2632H22.2887H22.3144H22.34H22.3658H22.3915H22.4173H22.4432H22.4691H22.4951H22.5211H22.5471H22.5732H22.5993H22.6255H22.6518H22.6781H22.7044H22.7308H22.7572H22.7836H22.8102H22.8367H22.8633H22.89H22.9167H22.9434H22.9702H22.997H23.0239H23.0508H23.0778H23.1048H23.1319H23.159H23.1861H23.2133H23.2406H23.2678H23.2952H23.3225H23.35H23.3774H23.4049H23.4325H23.4601H23.4877H23.5154H23.5431H23.5709H23.5987H23.6266H23.6545H23.6824H23.7104H23.7384H23.7665H23.7946H23.8228H23.851H23.8792H23.9075H23.9358H23.9642H23.9926H24.0211H24.0496H24.0781H24.1067H24.1354H24.164H24.1927H24.2215H24.2503H24.2791H24.308H24.3369H24.3659H24.3949H24.424H24.453H24.4822H24.5113H24.5406H24.5698H24.5991H24.6284H24.6578H24.6872H24.7167H24.7462H24.7757H24.8053H24.8349H24.8646H24.8943H24.924H24.9538H24.9836H25.0135H25.0434H25.0733H25.1033H25.1333H25.1634H25.1935H25.2236H25.2538H25.284H25.3142H25.3445H25.3748H25.4052H25.4356H25.4661H25.4966H25.5271H25.5576H25.5882H25.6189H25.6495H25.6803H25.711H25.7418H25.7726H25.8035H25.8344H25.8653H25.8963H25.9273H25.9584H25.9895H26.0206H26.0518H26.083H26.1142H26.1455H26.1768H26.2081H26.2395H26.2709H26.3024H26.3339H26.3654H26.397H26.4286H26.4602H26.4919H26.5236H26.5554H26.5871H26.619H26.6508H26.6827H26.7146H26.7466H26.7786H26.8106H26.8427H26.8748H26.9069H26.9391H26.9713H27.0035H27.0358H27.0681H27.1005H27.1328H27.1652H27.1977H27.2302H27.2627H27.2952H27.3278H27.3604H27.3931H27.4258H27.4585H27.4912H27.524H27.5568H27.5897H27.6226H27.6555H27.6884H27.7214H27.7544H27.7875H27.8205H27.8537H27.8868H27.92H27.9532H27.9864H28.0197H28.053H28.0863H28.1197H28.1531H28.1866H28.22H28.2535H28.287H28.3206H28.3542H28.3878H28.4215H28.4552H28.4889H28.5226H28.5564H28.5902H28.624H28.6579H28.6918H28.7258H28.7597H28.7937H28.8277H28.8618H28.8959H28.93H28.9641H28.9983H29.0325H29.0667H29.101H29.1353H29.1696H29.204H29.2383H29.2727H29.3072H29.3416H29.3761H29.4107H29.4452H29.4798H29.5144H29.5491H29.5837H29.6184H29.6531H29.6879H29.7227H29.7575H29.7923H29.8272H29.8621H29.897H29.932H29.9669H30.0019H30.037H30.072H30.1071H30.1422H30.1774H30.2125H30.2477H30.2829H30.3182H30.3535H30.3888H30.4241H30.4595H30.4948H30.5302H30.5657H30.6011H30.6366H30.6721H30.7077H30.7432H30.7788H30.8144H30.8501H30.8857H30.9214H30.9572H30.9929H31.0287H31.0645H31.1003H31.1361H31.172H31.2079H31.2438H31.2797H31.3157H31.3517H31.3877H31.4238H31.4598H31.4959H31.532H31.5682H31.6043H31.6405H31.6767H31.7129H31.7492H31.7855H31.8218H31.8581H31.8944H31.9308H31.9672H32.0036H32.0401H32.0765H32.113H32.1495H32.1861H32.2226H32.2592H32.2958H32.3324H32.3691H32.4057H32.4424H32.4791H32.5159H32.5526H32.5894H32.6262H32.663H32.6998H32.7367H32.7736H32.8105H32.8474H32.8844H32.9213H32.9583H32.9953H33.0324H33.0694H33.1065H33.1436H33.1807H33.2178H33.255H33.2922H33.3294H33.3666H33.4038H33.4411H33.4783H33.5156H33.5529H33.5903H33.6276H33.665H33.7024H33.7398H33.7772H33.8147H33.8522H33.8896H33.9271H33.9647H34.0022H34.0398H34.0773H34.1148H34.1523H34.1897H34.2272H34.2646H34.302H34.3394H34.3768H34.4142H34.4515H34.4888H34.5261H34.5634H34.6006H34.6379H34.6751H34.7123H34.7494H34.7866H34.8237H34.8608H34.8979H34.935H34.9721H35.0091H35.0461H35.0831H35.1201H35.157H35.1939H35.2308H35.2677H35.3046H35.3414H35.3782H35.415H35.4518H35.4886H35.5253H35.562H35.5987H35.6354H35.672H35.7086H35.7452H35.7818H35.8184H35.8549H35.8914H35.9279H35.9644H36.0008H36.0372H36.0736H36.11H36.1463H36.1827H36.219H36.2552H36.2915H36.3277H36.3639H36.4001H36.4363H36.4724H36.5085H36.5446H36.5807H36.6167H36.6527H36.6887H36.7247H36.7606H36.7966H36.8324H36.8683H36.9042H36.94H36.9758H37.0115H37.0473H37.083H37.1187H37.1543H37.19H37.2256H37.2612H37.2968H37.3323H37.3678H37.4033H37.4388H37.4742H37.5096H37.545H37.5803H37.6157H37.651H37.6862H37.7215H37.7567H37.7919H37.8271H37.8622H37.8973H37.9324H37.9675H38.0025H38.0375H38.0725H38.1074H38.1423H38.1772H38.2121H38.2469H38.2818H38.3165H38.3513H38.386H38.4207H38.4554H38.49H38.5246H38.5592H38.5938H38.6283H38.6628H38.6973H38.7317H38.7661H38.8005H38.8348H38.8691H38.9034H38.9377H38.9719H39.0061H39.0403H39.0745H39.1086H39.1426H39.1767H39.2107H39.2447H39.2787H39.3126H39.3465H39.3804H39.4142H39.448H39.4818H39.5156H39.5493H39.583H39.6166H39.6502H39.6838H39.7174H39.7509H39.7844H39.8179H39.8513H39.8847H39.9181H39.9514H39.9847H40.018H40.0512H40.0845H40.1176H40.1508H40.1839H40.217H40.25H40.283H40.316H40.349H40.3819H40.4148H40.4476H40.4804H40.5132H40.546H40.5787H40.6114H40.644H40.6766H40.7092H40.7418H40.7743H40.8067H40.8392H40.8716H40.904H40.9363H40.9686H41.0009H41.0331H41.0653H41.0975H41.1296H41.1617H41.1938H41.2258H41.2578H41.2898H41.3217H41.3536H41.3855H41.4173H41.4491H41.4808H41.5125H41.5442H41.5758H41.6074H41.639H41.6705H41.702H41.7335H41.7649H41.7963H41.8276H41.8589H41.8902H41.9215H41.9527H41.9838H42.015H42.046H42.0771H42.1081H42.1391H42.17H42.2009H42.2318H42.2626H42.2934H42.3242H42.3549H42.3856H42.4162H42.4468H42.4774H42.5079H42.5384H42.5688H42.5992H42.6296H42.6599H42.6902H42.7205H42.7507H42.7808H42.811H42.8411H42.8711H42.9011H42.9311H42.9611H42.991H43.0208H43.0506H43.0804H43.1102H43.1399H43.1695H43.1991H43.2287H43.2582H43.2877H43.3172H43.3466H43.376H43.4053H43.4346H43.4639H43.4931H43.5223H43.5514H43.5805H43.6095H43.6385H43.6675H43.6964H43.7253H43.7541H43.7829H43.8117H43.8404H43.8691H43.8977H43.9263H43.9548H43.9833H44.0118H44.0402H44.0686H44.0969H44.1252H44.1535H44.1817H44.2098H44.2379H44.266H44.294H44.322H44.35H44.3779H44.4057H44.4335H44.4613H44.489H44.5167H44.5444H44.572H44.5995H44.627H44.6545H44.6819H44.7093H44.7366H44.7639H44.7911H44.8183H44.8455H44.8726H44.8996H44.9266H44.9536H44.9805H45.0074H45.0342H45.061H45.0878H45.1145H45.1411H45.1677H45.1943H45.2208H45.2473H45.2737H45.3H45.3264H45.3527H45.3789H45.4051H45.4312H45.4573H45.4834H45.5094H45.5353H45.5612H45.5871H45.6129H45.6387H45.6644H45.6901H45.7157H45.7413H45.7668H45.7923H45.8177H45.8431H45.8684H45.8937H45.919H45.9441H45.9693H45.9944H46.0194H46.0444H46.0694H46.0943H46.1191H46.1439H46.1687H46.1934H46.2181H46.2427H46.2672H46.2917H46.3162H46.3406H46.365H46.3893H46.4135H46.4378H46.4619H46.486H46.5101H46.5341H46.5581H46.582H46.6058H46.6296H46.6534H46.6771H46.7008H46.7244H46.7479H46.7714H46.7949H46.8183H46.8417H46.865H46.8882H46.9114H46.9345H46.9576H46.9807H47.0037H47.0266H47.0495H47.0723H47.0951H47.1179H47.1405H47.1632H47.1857H47.2083H47.2307H47.2531H47.2755H47.2978H47.3201H47.3423H47.3644H47.3865H47.4086H47.4306H47.4525H47.4744H47.4962H47.518H47.5397H47.5614H47.583H47.6046H47.6261H47.6476H47.669H47.6903H47.7116H47.7328H47.754H47.7752H47.7962H47.8173H47.8382H47.8591H47.88H47.9008H47.9215H47.9422H47.9629H47.9834H48.004H48.0244H48.0448H48.0652H48.0855H48.1058H48.1259H48.1461H48.1662H48.1862H48.2061H48.2261H48.2459H48.2657H48.2854H48.3051H48.3248H48.3443H48.3638H48.3833H48.4027H48.422H48.4413H48.4605H48.4797H48.4988H48.5179H48.5369H48.5558H48.5747H48.5935H48.6123H48.631H48.6496H48.6682H48.6868H48.7052H48.7237H48.742H48.7603H48.7786H48.7967H48.8149H48.8329H48.8509H48.8689H48.8868H48.9046H48.9224H48.9401H48.9577H48.9753H48.9929Z" stroke="black" stroke-width="0.916035"/>
<mask id="path-16-inside-1_831_17183" fill="white">
<path fill-rule="evenodd" clip-rule="evenodd" d="M37.4568 81.7599C37.8169 80.1474 35.9555 78.3594 33.2994 77.7663C31.2787 77.3151 29.3801 77.6854 28.4288 78.5984L24.4351 77.7066C24.3611 77.6676 24.2816 77.6363 24.1975 77.614L16.8189 75.6604C16.1998 75.4965 15.5686 75.8801 15.429 76.5052L15.2832 77.158C15.1436 77.7831 15.5519 78.399 16.1821 78.5138L23.6914 79.8819C23.7903 79.8999 23.8886 79.9045 23.9844 79.8968L27.9415 80.7804C28.4139 82.0114 29.9747 83.1543 31.9955 83.6055C34.6516 84.1986 37.0967 83.3723 37.4568 81.7599Z"/>
</mask>
<path d="M28.4288 78.5984L28.2292 79.4924L28.7086 79.5995L29.0631 79.2593L28.4288 78.5984ZM24.4351 77.7066L24.0084 78.5171L24.1164 78.574L24.2355 78.6006L24.4351 77.7066ZM24.1975 77.614L23.963 78.4996L24.1975 77.614ZM16.8189 75.6604L16.5844 76.5459L16.8189 75.6604ZM15.429 76.5052L14.535 76.3055L15.429 76.5052ZM15.2832 77.158L16.1772 77.3576L15.2832 77.158ZM16.1821 78.5138L16.3463 77.6126L16.1821 78.5138ZM23.6914 79.8819L23.8556 78.9807L23.6914 79.8819ZM23.9844 79.8968L24.1841 79.0028L24.0491 78.9726L23.9112 78.9837L23.9844 79.8968ZM27.9415 80.7804L28.7967 80.4522L28.6206 79.9935L28.1411 79.8864L27.9415 80.7804ZM33.0998 78.6603C34.2918 78.9265 35.262 79.453 35.8746 80.0415C36.5012 80.6434 36.6463 81.1862 36.5628 81.5602L38.3508 81.9595C38.6274 80.7211 38.0219 79.5637 37.1438 78.7202C36.2516 77.8633 34.9631 77.1992 33.499 76.8723L33.0998 78.6603ZM29.0631 79.2593C29.7051 78.6431 31.236 78.2441 33.0998 78.6603L33.499 76.8723C31.3214 76.386 29.0551 76.7276 27.7945 77.9375L29.0631 79.2593ZM28.6284 77.7044L24.6348 76.8126L24.2355 78.6006L28.2292 79.4924L28.6284 77.7044ZM24.8618 76.896C24.7272 76.8251 24.5833 76.7686 24.4319 76.7285L23.963 78.4996C23.98 78.5041 23.995 78.5101 24.0084 78.5171L24.8618 76.896ZM24.4319 76.7285L17.0534 74.7749L16.5844 76.5459L23.963 78.4996L24.4319 76.7285ZM17.0534 74.7749C15.9316 74.4778 14.7879 75.173 14.535 76.3055L16.323 76.7048C16.3493 76.5872 16.468 76.5151 16.5844 76.5459L17.0534 74.7749ZM14.535 76.3055L14.3892 76.9583L16.1772 77.3576L16.323 76.7048L14.535 76.3055ZM14.3892 76.9583C14.1362 78.0911 14.876 79.207 16.0179 79.415L16.3463 77.6126C16.2278 77.591 16.151 77.4752 16.1772 77.3576L14.3892 76.9583ZM16.0179 79.415L23.5272 80.7831L23.8556 78.9807L16.3463 77.6126L16.0179 79.415ZM23.5272 80.7831C23.7051 80.8155 23.8833 80.8239 24.0576 80.8099L23.9112 78.9837C23.894 78.9851 23.8755 78.9844 23.8556 78.9807L23.5272 80.7831ZM23.7848 80.7908L27.7418 81.6744L28.1411 79.8864L24.1841 79.0028L23.7848 80.7908ZM32.1951 82.7115C30.3313 82.2953 29.1155 81.2829 28.7967 80.4522L27.0863 81.1087C27.7123 82.7399 29.6181 84.0132 31.7958 84.4995L32.1951 82.7115ZM36.5628 81.5602C36.4793 81.9342 36.117 82.3638 35.2939 82.642C34.4892 82.9139 33.3871 82.9777 32.1951 82.7115L31.7958 84.4995C33.2599 84.8265 34.7085 84.7737 35.8804 84.3776C37.0339 83.9878 38.0742 83.198 38.3508 81.9595L36.5628 81.5602Z" fill="black" mask="url(#path-16-inside-1_831_17183)"/>
<path d="M63.184 92.8856V81.6856H64.752L68.784 89.4936L72.784 81.6856H74.368V92.8856H73.024V84.0856L69.28 91.2856H68.272L64.528 84.1016V92.8856H63.184ZM79.2909 93.0776C78.6295 93.0776 78.0802 92.9656 77.6429 92.7416C77.2055 92.5176 76.8802 92.219 76.6669 91.8456C76.4535 91.4723 76.3469 91.067 76.3469 90.6296C76.3469 89.819 76.6562 89.195 77.2749 88.7576C77.8935 88.3203 78.7362 88.1016 79.8029 88.1016H81.9469V88.0056C81.9469 87.3123 81.7655 86.7896 81.4029 86.4376C81.0402 86.075 80.5549 85.8936 79.9469 85.8936C79.4242 85.8936 78.9709 86.027 78.5869 86.2936C78.2135 86.5496 77.9789 86.9283 77.8829 87.4296H76.5069C76.5602 86.8536 76.7522 86.3683 77.0829 85.9736C77.4242 85.579 77.8455 85.2803 78.3469 85.0776C78.8482 84.8643 79.3815 84.7576 79.9469 84.7576C81.0562 84.7576 81.8882 85.0563 82.4429 85.6536C83.0082 86.2403 83.2909 87.0243 83.2909 88.0056V92.8856H82.0909L82.0109 91.4616C81.7869 91.9096 81.4562 92.2936 81.0189 92.6136C80.5922 92.923 80.0162 93.0776 79.2909 93.0776ZM79.4989 91.9416C80.0109 91.9416 80.4482 91.8083 80.8109 91.5416C81.1842 91.275 81.4669 90.9283 81.6589 90.5016C81.8509 90.075 81.9469 89.627 81.9469 89.1576V89.1416H79.9149C79.1255 89.1416 78.5655 89.2803 78.2349 89.5576C77.9149 89.8243 77.7549 90.1603 77.7549 90.5656C77.7549 90.9816 77.9042 91.3176 78.2029 91.5736C78.5122 91.819 78.9442 91.9416 79.4989 91.9416ZM84.5071 92.8856L87.2591 88.9176L84.5071 84.9496H85.9631L88.1871 88.2296L90.4271 84.9496H91.8671L89.1151 88.9176L91.8671 92.8856H90.4271L88.1871 89.6056L85.9631 92.8856H84.5071ZM94.0919 83.1896C93.8252 83.1896 93.6012 83.1043 93.4199 82.9336C93.2492 82.7523 93.1639 82.5283 93.1639 82.2616C93.1639 82.0056 93.2492 81.7923 93.4199 81.6216C93.6012 81.451 93.8252 81.3656 94.0919 81.3656C94.3479 81.3656 94.5665 81.451 94.7479 81.6216C94.9292 81.7923 95.0199 82.0056 95.0199 82.2616C95.0199 82.5283 94.9292 82.7523 94.7479 82.9336C94.5665 83.1043 94.3479 83.1896 94.0919 83.1896ZM93.4199 92.8856V84.9496H94.7639V92.8856H93.4199ZM97.104 92.8856V84.9496H98.32L98.416 86.1016C98.672 85.675 99.0133 85.3443 99.44 85.1096C99.8667 84.875 100.347 84.7576 100.88 84.7576C101.509 84.7576 102.048 84.8856 102.496 85.1416C102.955 85.3976 103.307 85.787 103.552 86.3096C103.829 85.8296 104.208 85.451 104.688 85.1736C105.179 84.8963 105.707 84.7576 106.272 84.7576C107.221 84.7576 107.979 85.0456 108.544 85.6216C109.109 86.187 109.392 87.0616 109.392 88.2456V92.8856H108.064V88.3896C108.064 87.5683 107.899 86.9496 107.568 86.5336C107.237 86.1176 106.763 85.9096 106.144 85.9096C105.504 85.9096 104.971 86.1603 104.544 86.6616C104.128 87.1523 103.92 87.8563 103.92 88.7736V92.8856H102.576V88.3896C102.576 87.5683 102.411 86.9496 102.08 86.5336C101.749 86.1176 101.275 85.9096 100.656 85.9096C100.027 85.9096 99.4987 86.1603 99.072 86.6616C98.656 87.1523 98.448 87.8563 98.448 88.7736V92.8856H97.104ZM112.233 83.1896C111.966 83.1896 111.742 83.1043 111.561 82.9336C111.39 82.7523 111.305 82.5283 111.305 82.2616C111.305 82.0056 111.39 81.7923 111.561 81.6216C111.742 81.451 111.966 81.3656 112.233 81.3656C112.489 81.3656 112.707 81.451 112.889 81.6216C113.07 81.7923 113.161 82.0056 113.161 82.2616C113.161 82.5283 113.07 82.7523 112.889 82.9336C112.707 83.1043 112.489 83.1896 112.233 83.1896ZM111.561 92.8856V84.9496H112.905V92.8856H111.561ZM118.285 93.0776C117.335 93.0776 116.546 92.8376 115.917 92.3576C115.287 91.8776 114.919 91.227 114.813 90.4056H116.189C116.274 90.8216 116.493 91.1843 116.845 91.4936C117.207 91.7923 117.693 91.9416 118.301 91.9416C118.866 91.9416 119.282 91.8243 119.549 91.5896C119.815 91.3443 119.949 91.0563 119.949 90.7256C119.949 90.2456 119.773 89.9256 119.421 89.7656C119.079 89.6056 118.594 89.4616 117.965 89.3336C117.538 89.2483 117.111 89.1256 116.685 88.9656C116.258 88.8056 115.901 88.5816 115.613 88.2936C115.325 87.995 115.181 87.6056 115.181 87.1256C115.181 86.4323 115.437 85.867 115.949 85.4296C116.471 84.9816 117.175 84.7576 118.061 84.7576C118.903 84.7576 119.591 84.971 120.125 85.3976C120.669 85.8136 120.983 86.411 121.069 87.1896H119.741C119.687 86.7843 119.511 86.4696 119.213 86.2456C118.925 86.011 118.535 85.8936 118.045 85.8936C117.565 85.8936 117.191 85.995 116.925 86.1976C116.669 86.4003 116.541 86.667 116.541 86.9976C116.541 87.3176 116.706 87.5683 117.037 87.7496C117.378 87.931 117.837 88.0856 118.413 88.2136C118.903 88.3203 119.367 88.4536 119.805 88.6136C120.253 88.763 120.615 88.9923 120.893 89.3016C121.181 89.6003 121.325 90.0376 121.325 90.6136C121.335 91.3283 121.063 91.9203 120.509 92.3896C119.965 92.8483 119.223 93.0776 118.285 93.0776ZM126.813 93.0776C126.055 93.0776 125.383 92.907 124.797 92.5656C124.21 92.2136 123.746 91.7283 123.405 91.1096C123.074 90.491 122.909 89.7603 122.909 88.9176C122.909 88.0856 123.074 87.3603 123.405 86.7416C123.735 86.1123 124.194 85.627 124.781 85.2856C125.378 84.9336 126.066 84.7576 126.845 84.7576C127.613 84.7576 128.274 84.9336 128.829 85.2856C129.394 85.627 129.826 86.0803 130.125 86.6456C130.423 87.211 130.573 87.819 130.573 88.4696C130.573 88.587 130.567 88.7043 130.557 88.8216C130.557 88.939 130.557 89.0723 130.557 89.2216H124.237C124.269 89.8296 124.407 90.3363 124.653 90.7416C124.909 91.1363 125.223 91.435 125.597 91.6376C125.981 91.8403 126.386 91.9416 126.813 91.9416C127.367 91.9416 127.831 91.8136 128.205 91.5576C128.578 91.3016 128.85 90.955 129.021 90.5176H130.349C130.135 91.2536 129.725 91.867 129.117 92.3576C128.519 92.8376 127.751 93.0776 126.813 93.0776ZM126.813 85.8936C126.173 85.8936 125.602 86.091 125.101 86.4856C124.61 86.8696 124.327 87.435 124.253 88.1816H129.245C129.213 87.467 128.967 86.907 128.509 86.5016C128.05 86.0963 127.485 85.8936 126.813 85.8936ZM136.588 92.8856V81.3656H137.932V88.2936L141.18 84.9496H142.828L139.308 88.5336L143.276 92.8856H141.564L137.932 88.7736V92.8856H136.588ZM145.467 83.1896C145.2 83.1896 144.976 83.1043 144.795 82.9336C144.624 82.7523 144.539 82.5283 144.539 82.2616C144.539 82.0056 144.624 81.7923 144.795 81.6216C144.976 81.451 145.2 81.3656 145.467 81.3656C145.723 81.3656 145.942 81.451 146.123 81.6216C146.304 81.7923 146.395 82.0056 146.395 82.2616C146.395 82.5283 146.304 82.7523 146.123 82.9336C145.942 83.1043 145.723 83.1896 145.467 83.1896ZM144.795 92.8856V84.9496H146.139V92.8856H144.795ZM151.615 92.8856C150.89 92.8856 150.319 92.7096 149.903 92.3576C149.487 92.0056 149.279 91.371 149.279 90.4536V86.0856H147.903V84.9496H149.279L149.455 83.0456H150.623V84.9496H152.959V86.0856H150.623V90.4536C150.623 90.955 150.724 91.2963 150.927 91.4776C151.13 91.6483 151.487 91.7336 151.999 91.7336H152.831V92.8856H151.615ZM158.096 93.0776C157.338 93.0776 156.656 92.907 156.048 92.5656C155.45 92.2136 154.976 91.7283 154.624 91.1096C154.282 90.4803 154.112 89.7496 154.112 88.9176C154.112 88.0856 154.282 87.3603 154.624 86.7416C154.976 86.1123 155.45 85.627 156.048 85.2856C156.656 84.9336 157.338 84.7576 158.096 84.7576C159.034 84.7576 159.824 85.003 160.464 85.4936C161.114 85.9843 161.525 86.6403 161.696 87.4616H160.32C160.213 86.971 159.952 86.5923 159.536 86.3256C159.12 86.0483 158.634 85.9096 158.08 85.9096C157.632 85.9096 157.21 86.0216 156.816 86.2456C156.421 86.4696 156.101 86.8056 155.856 87.2536C155.61 87.7016 155.488 88.2563 155.488 88.9176C155.488 89.579 155.61 90.1336 155.856 90.5816C156.101 91.0296 156.421 91.371 156.816 91.6056C157.21 91.8296 157.632 91.9416 158.08 91.9416C158.634 91.9416 159.12 91.8083 159.536 91.5416C159.952 91.2643 160.213 90.875 160.32 90.3736H161.696C161.536 91.1736 161.13 91.8243 160.48 92.3256C159.829 92.827 159.034 93.0776 158.096 93.0776ZM163.573 92.8856V81.3656H164.917V86.3096C165.183 85.819 165.562 85.4403 166.053 85.1736C166.543 84.8963 167.077 84.7576 167.653 84.7576C168.57 84.7576 169.306 85.0456 169.861 85.6216C170.415 86.187 170.693 87.0616 170.693 88.2456V92.8856H169.365V88.3896C169.365 86.7363 168.698 85.9096 167.365 85.9096C166.671 85.9096 166.09 86.1603 165.621 86.6616C165.151 87.1523 164.917 87.8563 164.917 88.7736V92.8856H163.573ZM176.297 93.0776C175.54 93.0776 174.868 92.907 174.281 92.5656C173.694 92.2136 173.23 91.7283 172.889 91.1096C172.558 90.491 172.393 89.7603 172.393 88.9176C172.393 88.0856 172.558 87.3603 172.889 86.7416C173.22 86.1123 173.678 85.627 174.265 85.2856C174.862 84.9336 175.55 84.7576 176.329 84.7576C177.097 84.7576 177.758 84.9336 178.313 85.2856C178.878 85.627 179.31 86.0803 179.609 86.6456C179.908 87.211 180.057 87.819 180.057 88.4696C180.057 88.587 180.052 88.7043 180.041 88.8216C180.041 88.939 180.041 89.0723 180.041 89.2216H173.721C173.753 89.8296 173.892 90.3363 174.137 90.7416C174.393 91.1363 174.708 91.435 175.081 91.6376C175.465 91.8403 175.87 91.9416 176.297 91.9416C176.852 91.9416 177.316 91.8136 177.689 91.5576C178.062 91.3016 178.334 90.955 178.505 90.5176H179.833C179.62 91.2536 179.209 91.867 178.601 92.3576C178.004 92.8376 177.236 93.0776 176.297 93.0776ZM176.297 85.8936C175.657 85.8936 175.086 86.091 174.585 86.4856C174.094 86.8696 173.812 87.435 173.737 88.1816H178.729C178.697 87.467 178.452 86.907 177.993 86.5016C177.534 86.0963 176.969 85.8936 176.297 85.8936ZM181.838 92.8856V84.9496H183.054L183.134 86.3736C183.39 85.8723 183.758 85.4776 184.238 85.1896C184.718 84.9016 185.262 84.7576 185.87 84.7576C186.809 84.7576 187.556 85.0456 188.11 85.6216C188.676 86.187 188.958 87.0616 188.958 88.2456V92.8856H187.614V88.3896C187.614 86.7363 186.932 85.9096 185.566 85.9096C184.884 85.9096 184.313 86.1603 183.854 86.6616C183.406 87.1523 183.182 87.8563 183.182 88.7736V92.8856H181.838ZM198.269 93.0776C197.32 93.0776 196.53 92.8376 195.901 92.3576C195.272 91.8776 194.904 91.227 194.797 90.4056H196.173C196.258 90.8216 196.477 91.1843 196.829 91.4936C197.192 91.7923 197.677 91.9416 198.285 91.9416C198.85 91.9416 199.266 91.8243 199.533 91.5896C199.8 91.3443 199.933 91.0563 199.933 90.7256C199.933 90.2456 199.757 89.9256 199.405 89.7656C199.064 89.6056 198.578 89.4616 197.949 89.3336C197.522 89.2483 197.096 89.1256 196.669 88.9656C196.242 88.8056 195.885 88.5816 195.597 88.2936C195.309 87.995 195.165 87.6056 195.165 87.1256C195.165 86.4323 195.421 85.867 195.933 85.4296C196.456 84.9816 197.16 84.7576 198.045 84.7576C198.888 84.7576 199.576 84.971 200.109 85.3976C200.653 85.8136 200.968 86.411 201.053 87.1896H199.725C199.672 86.7843 199.496 86.4696 199.197 86.2456C198.909 86.011 198.52 85.8936 198.029 85.8936C197.549 85.8936 197.176 85.995 196.909 86.1976C196.653 86.4003 196.525 86.667 196.525 86.9976C196.525 87.3176 196.69 87.5683 197.021 87.7496C197.362 87.931 197.821 88.0856 198.397 88.2136C198.888 88.3203 199.352 88.4536 199.789 88.6136C200.237 88.763 200.6 88.9923 200.877 89.3016C201.165 89.6003 201.309 90.0376 201.309 90.6136C201.32 91.3283 201.048 91.9203 200.493 92.3896C199.949 92.8483 199.208 93.0776 198.269 93.0776ZM206.006 92.8856C205.28 92.8856 204.71 92.7096 204.294 92.3576C203.878 92.0056 203.67 91.371 203.67 90.4536V86.0856H202.294V84.9496H203.67L203.846 83.0456H205.014V84.9496H207.35V86.0856H205.014V90.4536C205.014 90.955 205.115 91.2963 205.318 91.4776C205.52 91.6483 205.878 91.7336 206.39 91.7336H207.222V92.8856H206.006ZM211.697 93.0776C211.036 93.0776 210.486 92.9656 210.049 92.7416C209.612 92.5176 209.286 92.219 209.073 91.8456C208.86 91.4723 208.753 91.067 208.753 90.6296C208.753 89.819 209.062 89.195 209.681 88.7576C210.3 88.3203 211.142 88.1016 212.209 88.1016H214.353V88.0056C214.353 87.3123 214.172 86.7896 213.809 86.4376C213.446 86.075 212.961 85.8936 212.353 85.8936C211.83 85.8936 211.377 86.027 210.993 86.2936C210.62 86.5496 210.385 86.9283 210.289 87.4296H208.913C208.966 86.8536 209.158 86.3683 209.489 85.9736C209.83 85.579 210.252 85.2803 210.753 85.0776C211.254 84.8643 211.788 84.7576 212.353 84.7576C213.462 84.7576 214.294 85.0563 214.849 85.6536C215.414 86.2403 215.697 87.0243 215.697 88.0056V92.8856H214.497L214.417 91.4616C214.193 91.9096 213.862 92.2936 213.425 92.6136C212.998 92.923 212.422 93.0776 211.697 93.0776ZM211.905 91.9416C212.417 91.9416 212.854 91.8083 213.217 91.5416C213.59 91.275 213.873 90.9283 214.065 90.5016C214.257 90.075 214.353 89.627 214.353 89.1576V89.1416H212.321C211.532 89.1416 210.972 89.2803 210.641 89.5576C210.321 89.8243 210.161 90.1603 210.161 90.5656C210.161 90.9816 210.31 91.3176 210.609 91.5736C210.918 91.819 211.35 91.9416 211.905 91.9416ZM218.145 92.8856V86.0856H216.945V84.9496H218.145V83.5736C218.145 82.8056 218.337 82.2456 218.721 81.8936C219.105 81.5416 219.665 81.3656 220.401 81.3656H221.201V82.5176H220.609C220.204 82.5176 219.916 82.603 219.745 82.7736C219.575 82.9336 219.489 83.211 219.489 83.6056V84.9496H221.441V86.0856H219.489V92.8856H218.145ZM223.474 92.8856V86.0856H222.274V84.9496H223.474V83.5736C223.474 82.8056 223.666 82.2456 224.049 81.8936C224.434 81.5416 224.994 81.3656 225.73 81.3656H226.53V82.5176H225.938C225.532 82.5176 225.244 82.603 225.074 82.7736C224.903 82.9336 224.818 83.211 224.818 83.6056V84.9496H226.77V86.0856H224.818V92.8856H223.474ZM235.5 93.0776C234.561 93.0776 233.815 92.795 233.26 92.2296C232.705 91.6536 232.428 90.7736 232.428 89.5896V84.9496H233.772V89.4456C233.772 91.099 234.449 91.9256 235.804 91.9256C236.497 91.9256 237.068 91.6803 237.516 91.1896C237.975 90.6883 238.204 89.979 238.204 89.0616V84.9496H239.548V92.8856H238.332L238.236 91.4616C237.991 91.963 237.623 92.3576 237.132 92.6456C236.652 92.9336 236.108 93.0776 235.5 93.0776ZM244.896 92.8856C244.171 92.8856 243.6 92.7096 243.184 92.3576C242.768 92.0056 242.56 91.371 242.56 90.4536V86.0856H241.184V84.9496H242.56L242.736 83.0456H243.904V84.9496H246.24V86.0856H243.904V90.4536C243.904 90.955 244.006 91.2963 244.208 91.4776C244.411 91.6483 244.768 91.7336 245.28 91.7336H246.112V92.8856H244.896ZM248.764 83.1896C248.497 83.1896 248.273 83.1043 248.092 82.9336C247.921 82.7523 247.836 82.5283 247.836 82.2616C247.836 82.0056 247.921 81.7923 248.092 81.6216C248.273 81.451 248.497 81.3656 248.764 81.3656C249.02 81.3656 249.238 81.451 249.42 81.6216C249.601 81.7923 249.692 82.0056 249.692 82.2616C249.692 82.5283 249.601 82.7523 249.42 82.9336C249.238 83.1043 249.02 83.1896 248.764 83.1896ZM248.092 92.8856V84.9496H249.436V92.8856H248.092ZM251.776 92.8856V81.3656H253.12V92.8856H251.776ZM256.139 83.1896C255.872 83.1896 255.648 83.1043 255.467 82.9336C255.296 82.7523 255.211 82.5283 255.211 82.2616C255.211 82.0056 255.296 81.7923 255.467 81.6216C255.648 81.451 255.872 81.3656 256.139 81.3656C256.395 81.3656 256.613 81.451 256.795 81.6216C256.976 81.7923 257.067 82.0056 257.067 82.2616C257.067 82.5283 256.976 82.7523 256.795 82.9336C256.613 83.1043 256.395 83.1896 256.139 83.1896ZM255.467 92.8856V84.9496H256.811V92.8856H255.467ZM262.191 93.0776C261.242 93.0776 260.452 92.8376 259.823 92.3576C259.194 91.8776 258.826 91.227 258.719 90.4056H260.095C260.18 90.8216 260.399 91.1843 260.751 91.4936C261.114 91.7923 261.599 91.9416 262.207 91.9416C262.772 91.9416 263.188 91.8243 263.455 91.5896C263.722 91.3443 263.855 91.0563 263.855 90.7256C263.855 90.2456 263.679 89.9256 263.327 89.7656C262.986 89.6056 262.5 89.4616 261.871 89.3336C261.444 89.2483 261.018 89.1256 260.591 88.9656C260.164 88.8056 259.807 88.5816 259.519 88.2936C259.231 87.995 259.087 87.6056 259.087 87.1256C259.087 86.4323 259.343 85.867 259.855 85.4296C260.378 84.9816 261.082 84.7576 261.967 84.7576C262.81 84.7576 263.498 84.971 264.031 85.3976C264.575 85.8136 264.89 86.411 264.975 87.1896H263.647C263.594 86.7843 263.418 86.4696 263.119 86.2456C262.831 86.011 262.442 85.8936 261.951 85.8936C261.471 85.8936 261.098 85.995 260.831 86.1976C260.575 86.4003 260.447 86.667 260.447 86.9976C260.447 87.3176 260.612 87.5683 260.943 87.7496C261.284 87.931 261.743 88.0856 262.319 88.2136C262.81 88.3203 263.274 88.4536 263.711 88.6136C264.159 88.763 264.522 88.9923 264.799 89.3016C265.087 89.6003 265.231 90.0376 265.231 90.6136C265.242 91.3283 264.97 91.9203 264.415 92.3896C263.871 92.8483 263.13 93.0776 262.191 93.0776ZM269.791 93.0776C269.13 93.0776 268.58 92.9656 268.143 92.7416C267.706 92.5176 267.38 92.219 267.167 91.8456C266.954 91.4723 266.847 91.067 266.847 90.6296C266.847 89.819 267.156 89.195 267.775 88.7576C268.394 88.3203 269.236 88.1016 270.303 88.1016H272.447V88.0056C272.447 87.3123 272.266 86.7896 271.903 86.4376C271.54 86.075 271.055 85.8936 270.447 85.8936C269.924 85.8936 269.471 86.027 269.087 86.2936C268.714 86.5496 268.479 86.9283 268.383 87.4296H267.007C267.06 86.8536 267.252 86.3683 267.583 85.9736C267.924 85.579 268.346 85.2803 268.847 85.0776C269.348 84.8643 269.882 84.7576 270.447 84.7576C271.556 84.7576 272.388 85.0563 272.943 85.6536C273.508 86.2403 273.791 87.0243 273.791 88.0056V92.8856H272.591L272.511 91.4616C272.287 91.9096 271.956 92.2936 271.519 92.6136C271.092 92.923 270.516 93.0776 269.791 93.0776ZM269.999 91.9416C270.511 91.9416 270.948 91.8083 271.311 91.5416C271.684 91.275 271.967 90.9283 272.159 90.5016C272.351 90.075 272.447 89.627 272.447 89.1576V89.1416H270.415C269.626 89.1416 269.066 89.2803 268.735 89.5576C268.415 89.8243 268.255 90.1603 268.255 90.5656C268.255 90.9816 268.404 91.3176 268.703 91.5736C269.012 91.819 269.444 91.9416 269.999 91.9416ZM278.724 92.8856C277.999 92.8856 277.428 92.7096 277.012 92.3576C276.596 92.0056 276.388 91.371 276.388 90.4536V86.0856H275.012V84.9496H276.388L276.564 83.0456H277.732V84.9496H280.068V86.0856H277.732V90.4536C277.732 90.955 277.834 91.2963 278.036 91.4776C278.239 91.6483 278.596 91.7336 279.108 91.7336H279.94V92.8856H278.724ZM282.592 83.1896C282.325 83.1896 282.101 83.1043 281.92 82.9336C281.749 82.7523 281.664 82.5283 281.664 82.2616C281.664 82.0056 281.749 81.7923 281.92 81.6216C282.101 81.451 282.325 81.3656 282.592 81.3656C282.848 81.3656 283.067 81.451 283.248 81.6216C283.429 81.7923 283.52 82.0056 283.52 82.2616C283.52 82.5283 283.429 82.7523 283.248 82.9336C283.067 83.1043 282.848 83.1896 282.592 83.1896ZM281.92 92.8856V84.9496H283.264V92.8856H281.92ZM289.22 93.0776C288.473 93.0776 287.801 92.907 287.204 92.5656C286.607 92.2243 286.132 91.7443 285.78 91.1256C285.439 90.4963 285.268 89.7603 285.268 88.9176C285.268 88.075 285.444 87.3443 285.796 86.7256C286.148 86.0963 286.623 85.611 287.22 85.2696C287.828 84.9283 288.505 84.7576 289.252 84.7576C289.999 84.7576 290.671 84.9283 291.268 85.2696C291.865 85.611 292.335 86.0963 292.676 86.7256C293.028 87.3443 293.204 88.075 293.204 88.9176C293.204 89.7603 293.028 90.4963 292.676 91.1256C292.324 91.7443 291.844 92.2243 291.236 92.5656C290.639 92.907 289.967 93.0776 289.22 93.0776ZM289.22 91.9256C289.679 91.9256 290.105 91.8136 290.5 91.5896C290.895 91.3656 291.215 91.0296 291.46 90.5816C291.705 90.1336 291.828 89.579 291.828 88.9176C291.828 88.2563 291.705 87.7016 291.46 87.2536C291.225 86.8056 290.911 86.4696 290.516 86.2456C290.121 86.0216 289.7 85.9096 289.252 85.9096C288.793 85.9096 288.367 86.0216 287.972 86.2456C287.577 86.4696 287.257 86.8056 287.012 87.2536C286.767 87.7016 286.644 88.2563 286.644 88.9176C286.644 89.579 286.767 90.1336 287.012 90.5816C287.257 91.0296 287.572 91.3656 287.956 91.5896C288.351 91.8136 288.772 91.9256 289.22 91.9256ZM295.073 92.8856V84.9496H296.289L296.369 86.3736C296.625 85.8723 296.993 85.4776 297.473 85.1896C297.953 84.9016 298.497 84.7576 299.105 84.7576C300.043 84.7576 300.79 85.0456 301.345 85.6216C301.91 86.187 302.193 87.0616 302.193 88.2456V92.8856H300.849V88.3896C300.849 86.7363 300.166 85.9096 298.801 85.9096C298.118 85.9096 297.547 86.1603 297.089 86.6616C296.641 87.1523 296.417 87.8563 296.417 88.7736V92.8856H295.073Z" fill="black"/>
<line x1="22" y1="114.328" x2="306" y2="114.328" stroke="#F5EEDD" stroke-width="0.885635"/>
<rect width="42" height="42" transform="translate(12 119.771)" fill="white"/>
<path d="M20.9863 157.708L19.7948 142.617C19.7541 142.1 20.162 141.659 20.6798 141.659H36.0693C36.5871 141.659 36.995 142.1 36.9543 142.617L35.7629 157.708C35.7264 158.17 35.3411 158.526 34.8779 158.526H21.8712C21.408 158.526 21.0227 158.17 20.9863 157.708Z" fill="#B499B8"/>
<path fill-rule="evenodd" clip-rule="evenodd" d="M39.8989 123.017C40.2641 123.017 40.4602 123.051 40.7645 123.186C40.9741 123.28 41.2987 123.497 41.4745 123.679C41.6503 123.855 41.8599 124.139 41.9275 124.308C42.0357 124.558 42.1169 124.64 42.3332 124.728C42.482 124.788 42.7525 124.964 42.9283 125.126C43.1244 125.296 43.334 125.573 43.4354 125.789C43.591 126.107 43.618 126.249 43.618 126.736C43.6113 127.202 43.5842 127.365 43.4557 127.615C43.3678 127.784 43.2326 128.007 43.1514 128.115C43.0771 128.223 42.8539 128.42 42.6713 128.541C42.4617 128.676 42.1371 128.805 41.8261 128.879C41.488 128.954 41.1837 129.082 40.9132 129.258C40.6901 129.407 40.2032 129.833 39.1416 130.894L39.1078 131.909C39.0943 132.47 39.0875 132.937 39.101 132.957C39.1145 132.977 39.2363 132.923 39.3783 132.835C39.5135 132.747 39.7637 132.619 39.9327 132.538C40.1018 132.463 40.4264 132.348 41.089 132.179L41.2784 131.74C41.3798 131.496 41.5894 131.104 41.7382 130.861C41.8937 130.617 42.1507 130.299 42.313 130.157C42.4685 130.009 42.7051 129.846 42.8201 129.799C42.9418 129.752 43.2055 129.711 43.3949 129.711C43.618 129.711 43.8479 129.758 43.9899 129.84C44.1522 129.921 44.2942 130.083 44.6323 130.732L45.1733 130.725C45.6128 130.725 45.7616 130.759 45.9779 130.881C46.1199 130.962 46.3025 131.138 46.3701 131.266C46.4648 131.435 46.4919 131.591 46.4716 131.807C46.4513 131.976 46.3769 132.233 46.1673 132.653L46.4107 132.795C46.5527 132.876 46.7759 133.072 46.9111 133.234C47.1342 133.491 47.1613 133.579 47.1681 133.89C47.1681 134.079 47.1207 134.33 47.0666 134.444C47.0125 134.559 46.8502 134.776 46.7082 134.925C46.573 135.08 46.289 135.29 46.0861 135.391C45.8833 135.493 45.5587 135.608 45.3761 135.648C45.1868 135.689 44.9028 135.743 44.7337 135.763C44.5647 135.79 44.2334 135.777 43.9899 135.736C43.7465 135.695 43.5031 135.648 43.449 135.628C43.3813 135.601 43.2934 135.675 43.1717 135.878C43.0703 136.04 42.7525 136.392 42.4617 136.669C42.1642 136.94 41.772 137.257 41.2243 137.589L41.2175 138.826C41.2175 139.732 41.1905 140.104 41.1228 140.246C41.0755 140.348 40.9538 140.469 40.8524 140.517C40.7577 140.557 40.4805 140.598 40.237 140.598C39.8922 140.598 39.7975 140.618 39.7975 140.699C39.7975 140.753 39.5067 144.439 39.1551 148.881C38.8035 153.324 38.5127 157.009 38.5127 157.063C38.5127 157.117 38.4181 157.273 38.107 157.638H36.7343C35.5442 157.638 34.4576 157.599 34.4576 157.599C34.4576 157.599 34.4576 157.388 34.4576 157.253C34.4576 157.139 34.4576 157.036 34.4576 156.962C34.4576 156.887 34.4576 156.651 34.4576 156.651L34.4576 156.286C34.4576 156.286 35.7336 156.286 36.3489 156.286C37.086 156.286 37.228 156.272 37.228 156.184C37.228 156.13 37.5052 152.627 37.8365 148.408C38.1679 144.188 38.4451 140.706 38.4451 140.665C38.4451 140.618 35.8282 140.598 30.7365 140.598C25.6447 140.598 23.0278 140.618 23.0278 140.665C23.0278 140.706 23.2983 144.188 23.6364 148.408C23.9677 152.627 24.245 156.13 24.245 156.184C24.245 156.272 24.5898 156.286 26.9498 156.286C29.1136 156.286 34.4576 156.286 34.4576 156.286L34.4576 156.651V156.962C34.4576 157.036 34.4576 157.139 34.4576 157.253C34.4576 157.388 34.4576 157.599 34.4576 157.599C34.4576 157.599 29.4855 157.638 23.3659 157.638L23.1631 157.401C23.0481 157.273 22.9602 157.124 22.9602 157.084C22.9602 157.036 22.6694 153.351 22.3178 148.902C21.9662 144.445 21.6754 140.753 21.6754 140.699C21.6754 140.618 21.5808 140.598 21.2359 140.598C20.9925 140.598 20.7152 140.557 20.6206 140.517C20.5191 140.469 20.3974 140.348 20.3501 140.246C20.2825 140.104 20.2554 139.726 20.2486 137.521L19.8903 137.048C19.6942 136.791 19.4507 136.439 19.3561 136.27C19.2614 136.101 19.0991 135.722 18.9977 135.425C18.8219 134.938 18.8083 134.796 18.8083 133.971C18.8083 133.308 18.8422 132.937 18.9301 132.619C18.9977 132.375 19.1464 131.983 19.2614 131.74C19.3831 131.503 19.6265 131.151 19.8159 130.955C19.9985 130.766 20.3027 130.536 20.4921 130.441C20.6747 130.347 20.9992 130.218 21.2021 130.157C21.4049 130.097 21.7701 130.049 22.0135 130.049C22.257 130.049 22.6491 130.103 22.8926 130.178C23.136 130.252 23.5147 130.435 23.7378 130.577C23.961 130.725 24.3126 131.03 24.8874 131.659L25.1916 131.361C25.3607 131.192 25.7258 130.942 26.0031 130.8C26.4764 130.563 26.517 130.523 26.5981 130.245C26.659 130.056 26.6793 129.738 26.659 129.373C26.6387 129.015 26.5576 128.595 26.4494 128.257C26.3547 127.96 26.2736 127.635 26.2736 127.527C26.2736 127.426 26.3412 127.27 26.4223 127.175C26.5238 127.067 26.8551 126.905 27.3555 126.729C27.7815 126.574 28.1399 126.445 28.1534 126.438C28.1602 126.438 28.0655 126.148 27.9302 125.803C27.8018 125.465 27.6936 125.12 27.6936 125.045C27.6936 124.971 27.7341 124.829 27.7882 124.721C27.8356 124.619 27.9573 124.498 28.0587 124.45C28.1534 124.41 28.2954 124.369 28.3698 124.369C28.4442 124.369 28.5862 124.41 28.6808 124.45C28.7823 124.498 28.8972 124.613 28.9445 124.707C28.9919 124.802 29.1271 125.12 29.4517 125.958L30.3646 125.634C30.8649 125.458 31.3518 125.316 31.4465 125.316C31.5479 125.316 31.7102 125.41 31.8522 125.552C31.9942 125.694 32.0889 125.857 32.0889 125.958C32.0889 126.053 32.1362 126.35 32.1971 126.614C32.2579 126.885 32.4202 127.351 32.5622 127.649C32.7245 127.98 32.9476 128.318 33.1505 128.521C33.3263 128.704 33.6103 128.92 34.0836 129.15L34.557 128.933C34.8207 128.812 35.2737 128.622 35.5645 128.521C36.0243 128.352 36.1528 128.271 36.4368 127.953C36.6397 127.73 36.9034 127.311 37.0995 126.905C37.2753 126.533 37.5052 125.951 37.5999 125.62C37.6945 125.282 37.7689 124.937 37.7689 124.842C37.7689 124.748 37.8636 124.477 37.9853 124.241C38.1138 123.99 38.3234 123.706 38.4789 123.578C38.6277 123.449 38.8982 123.28 39.0875 123.186C39.3377 123.064 39.5473 123.023 39.8989 123.017ZM39.2227 124.775C39.1754 124.87 39.101 125.126 39.0604 125.35C39.0199 125.573 38.8982 126.012 38.79 126.33C38.6885 126.648 38.506 127.101 38.3978 127.344C38.2896 127.588 38.0867 127.966 37.9447 128.19C37.8027 128.413 37.6134 128.67 37.5255 128.764L37.3632 128.933C37.7554 129.299 37.9718 129.501 38.0935 129.61L38.3099 129.813C39.385 128.751 39.926 128.298 40.2032 128.115C40.4805 127.939 40.8727 127.737 41.062 127.669C41.2581 127.601 41.4948 127.547 41.5894 127.547C41.6841 127.547 41.8667 127.459 41.9951 127.344C42.1642 127.202 42.2386 127.074 42.2521 126.912C42.2656 126.783 42.2521 126.567 42.2183 126.438C42.1845 126.29 42.0898 126.141 41.9749 126.066C41.8734 125.999 41.657 125.918 41.488 125.897C41.3054 125.87 41.1161 125.789 41.0147 125.694C40.92 125.607 40.8253 125.417 40.7915 125.255C40.7645 125.106 40.7036 124.897 40.6495 124.795C40.6022 124.687 40.4466 124.552 40.3114 124.491C40.1762 124.423 40.0004 124.369 39.9125 124.369C39.8313 124.369 39.6623 124.423 39.5338 124.491C39.4121 124.552 39.2701 124.68 39.2227 124.775ZM27.8423 127.98C27.8356 127.987 27.8762 128.257 27.937 128.595C28.0182 129.028 28.0384 129.393 28.0114 129.846L27.9708 130.489C28.4103 130.617 28.7349 130.766 28.9716 130.908C29.215 131.05 29.6343 131.388 29.9047 131.659L30.3984 132.145C30.6824 131.807 30.9664 131.496 31.2098 131.246C31.4532 130.989 31.8792 130.597 32.1565 130.374L32.6636 129.968C31.8251 129.116 31.6358 128.852 31.3991 128.359C31.2233 128.007 31.034 127.54 30.9799 127.331C30.919 127.108 30.8379 126.939 30.7838 126.945C30.7432 126.945 30.067 127.182 29.2826 127.459C28.4983 127.743 27.8559 127.98 27.8423 127.98ZM35.7741 129.88C35.551 129.961 35.0912 130.171 34.7598 130.333C34.4285 130.502 33.8605 130.834 33.5089 131.07C33.1572 131.307 32.5892 131.773 32.2579 132.112C31.9198 132.443 31.5073 132.937 31.3315 133.193C31.1557 133.45 30.9123 133.897 30.777 134.174C30.6486 134.451 30.4795 134.911 30.4051 135.188C30.3307 135.466 30.2428 135.885 30.2158 136.115L30.1617 136.541H36.5518C36.7817 136.203 36.9507 135.858 37.0792 135.56C37.2009 135.263 37.3767 134.715 37.4646 134.343C37.5593 133.971 37.6607 133.349 37.7013 132.957C37.7351 132.565 37.7689 131.997 37.7689 131.692V131.131C36.8493 130.326 36.4909 130.009 36.3827 129.907L36.1731 129.725L35.7741 129.88ZM42.597 132.132L42.4414 132.483C42.9689 133.038 43.2123 133.376 43.3273 133.599C43.4354 133.822 43.5233 134.059 43.5233 134.127C43.5233 134.201 43.6113 134.269 43.7735 134.323C43.9155 134.37 44.2266 134.404 44.47 134.404C44.7067 134.404 45.0583 134.357 45.2477 134.296C45.4302 134.235 45.6196 134.133 45.6669 134.079C45.7413 133.991 45.721 133.958 45.5317 133.876C45.4099 133.829 45.18 133.741 45.0177 133.694C44.8555 133.64 44.6594 133.525 44.5917 133.43C44.5174 133.335 44.4633 133.16 44.47 133.024C44.47 132.876 44.5512 132.673 44.6864 132.463C44.8081 132.287 44.8893 132.132 44.8757 132.112C44.8555 132.098 44.6864 132.132 44.5038 132.186C44.3145 132.24 44.0981 132.281 44.0102 132.281C43.9291 132.281 43.7668 132.206 43.6586 132.112C43.5436 132.017 43.4422 131.855 43.4219 131.74C43.4016 131.631 43.3746 131.449 43.3611 131.334C43.3475 131.226 43.307 131.131 43.2664 131.131C43.2258 131.131 43.0906 131.28 42.9689 131.456C42.8472 131.631 42.6849 131.936 42.597 132.132ZM20.7423 131.983C20.6138 132.132 20.4515 132.389 20.3839 132.551C20.3095 132.72 20.2284 133.038 20.1878 133.261C20.154 133.484 20.1269 133.836 20.1269 134.039C20.1269 134.248 20.1743 134.58 20.2284 134.783C20.2825 134.992 20.4109 135.324 20.5124 135.526C20.6138 135.736 20.8099 136.047 20.9519 136.223L21.2088 136.541L28.8161 136.507C28.8972 135.777 28.9919 135.29 29.0798 134.952C29.1677 134.62 29.3232 134.16 29.4179 133.937C29.5125 133.714 29.5937 133.477 29.5937 133.417C29.5937 133.349 29.357 133.051 29.0663 132.747C28.7146 132.375 28.4171 132.139 28.1399 131.997C27.7815 131.821 27.6801 131.801 27.2946 131.828C27.0512 131.841 26.7604 131.902 26.6522 131.963C26.5373 132.017 26.3412 132.166 26.2195 132.287C26.091 132.416 25.9287 132.639 25.8611 132.788C25.7935 132.937 25.7394 133.187 25.7394 133.349C25.7394 133.572 25.692 133.68 25.5433 133.836C25.3877 133.991 25.2796 134.039 25.0835 134.039C24.9415 134.039 24.7656 133.998 24.6913 133.951C24.6169 133.903 24.4275 133.606 24.272 133.288C24.1165 132.977 23.846 132.544 23.677 132.335C23.5079 132.118 23.2442 131.855 23.0819 131.753C22.9264 131.645 22.6897 131.523 22.5612 131.483C22.426 131.435 22.169 131.402 21.9865 131.402C21.7769 131.402 21.5199 131.462 21.3103 131.564C21.1209 131.652 20.864 131.841 20.7423 131.983ZM39.8381 134.154C39.6149 134.302 39.2633 134.58 39.0604 134.762C38.7562 135.04 38.6615 135.182 38.5601 135.499C38.4924 135.722 38.3775 136.013 38.3099 136.155C38.2355 136.29 38.1814 136.439 38.1814 136.473C38.1814 136.52 38.5939 136.541 39.2768 136.541H40.379C41.0079 136.135 41.3528 135.864 41.5489 135.689C41.772 135.486 41.9749 135.215 42.083 134.985C42.2386 134.654 42.2521 134.586 42.1777 134.363C42.1371 134.221 41.9884 133.985 41.8464 133.843C41.6232 133.606 41.5556 133.572 41.2919 133.572C41.1228 133.572 40.8186 133.64 40.6157 133.721C40.4061 133.809 40.0612 133.998 39.8381 134.154ZM21.6146 139.245H39.8719V137.893H21.6146V139.245ZM26.3277 143.039C26.4156 143.032 26.5643 143.073 26.6658 143.127C26.7672 143.174 26.8889 143.309 26.9362 143.411C26.9836 143.533 27.1594 145.561 27.3622 148.442C27.653 152.533 27.6936 153.31 27.6192 153.473C27.5719 153.581 27.4434 153.709 27.342 153.763C27.2405 153.811 27.0985 153.851 27.0241 153.851C26.9498 153.851 26.801 153.811 26.6996 153.763C26.5981 153.709 26.4764 153.581 26.4291 153.473C26.3818 153.358 26.2127 151.322 26.0098 148.442C25.7191 144.351 25.6785 143.58 25.7529 143.411C25.8002 143.309 25.9152 143.181 26.0098 143.127C26.0978 143.079 26.2465 143.039 26.3277 143.039ZM30.7229 143.039C30.8108 143.032 30.9596 143.073 31.061 143.127C31.1625 143.181 31.2842 143.303 31.3315 143.397C31.3991 143.533 31.4194 144.689 31.4194 148.442C31.4194 152.201 31.3991 153.351 31.3315 153.486C31.2842 153.588 31.1625 153.709 31.061 153.757C30.9596 153.811 30.8176 153.851 30.7432 153.851C30.6688 153.851 30.5201 153.811 30.4187 153.757C30.3172 153.709 30.1955 153.588 30.1482 153.486C30.0873 153.351 30.067 152.201 30.067 148.428C30.067 144.128 30.0806 143.519 30.1752 143.377C30.2361 143.289 30.3443 143.181 30.4254 143.127C30.5066 143.079 30.6418 143.039 30.7229 143.039ZM35.1182 143.039C35.2061 143.032 35.3549 143.073 35.4563 143.127C35.5577 143.174 35.6862 143.309 35.7336 143.411C35.8079 143.58 35.7674 144.351 35.4766 148.442C35.2737 151.322 35.0979 153.358 35.0506 153.473C35.0033 153.581 34.8815 153.709 34.7801 153.763C34.6787 153.811 34.5367 153.851 34.4623 153.851C34.3879 153.851 34.2392 153.811 34.1377 153.763C34.0363 153.709 33.9146 153.581 33.8673 153.473C33.7929 153.31 33.8334 152.533 34.1242 148.442C34.3271 145.561 34.4961 143.533 34.5435 143.411C34.5908 143.309 34.7057 143.181 34.8004 143.127C34.8883 143.079 35.0371 143.039 35.1182 143.039Z" fill="black"/>
<path fill-rule="evenodd" clip-rule="evenodd" d="M39.2462 124.775C39.1988 124.87 39.1245 125.126 39.0839 125.35C39.0433 125.573 38.9216 126.012 38.8134 126.33C38.712 126.648 38.5294 127.101 38.4212 127.344C38.313 127.588 38.1102 127.966 37.9682 128.19C37.8262 128.413 37.6368 128.67 37.5489 128.764L37.3866 128.933C37.7788 129.299 37.9952 129.501 38.1169 129.61L38.3333 129.813C39.4085 128.751 39.9494 128.298 40.2267 128.115C40.5039 127.939 40.8961 127.737 41.0854 127.669C41.2815 127.601 41.5182 127.547 41.6129 127.547C41.7075 127.547 41.8901 127.459 42.0186 127.344C42.1876 127.202 42.262 127.074 42.2755 126.912C42.2891 126.783 42.2755 126.567 42.2417 126.438C42.2079 126.29 42.1132 126.141 41.9983 126.066C41.8969 125.999 41.6805 125.918 41.5114 125.897C41.3289 125.87 41.1395 125.789 41.0381 125.694C40.9434 125.607 40.8488 125.417 40.815 125.255C40.7879 125.106 40.727 124.897 40.6729 124.795C40.6256 124.687 40.4701 124.552 40.3349 124.491C40.1996 124.423 40.0238 124.369 39.9359 124.369C39.8548 124.369 39.6857 124.423 39.5572 124.491C39.4355 124.552 39.2935 124.68 39.2462 124.775ZM27.8658 127.98C27.859 127.987 27.8996 128.257 27.9604 128.595C28.0416 129.028 28.0619 129.393 28.0348 129.846L27.9943 130.489C28.4338 130.617 28.7584 130.766 28.995 130.908C29.2385 131.05 29.6577 131.388 29.9282 131.659L30.4218 132.145C30.7058 131.807 30.9898 131.496 31.2332 131.246C31.4767 130.989 31.9027 130.597 32.1799 130.374L32.6871 129.968C31.8486 129.116 31.6592 128.852 31.4226 128.359C31.2468 128.007 31.0574 127.54 31.0033 127.331C30.9425 127.108 30.8613 126.939 30.8072 126.945C30.7667 126.945 30.0905 127.182 29.3061 127.459C28.5217 127.743 27.8793 127.98 27.8658 127.98ZM35.7976 129.88C35.5744 129.961 35.1146 130.171 34.7833 130.333C34.4519 130.502 33.8839 130.834 33.5323 131.07C33.1807 131.307 32.6127 131.773 32.2813 132.112C31.9432 132.443 31.5308 132.937 31.355 133.193C31.1791 133.45 30.9357 133.897 30.8005 134.174C30.672 134.451 30.5029 134.911 30.4286 135.188C30.3542 135.466 30.2663 135.885 30.2392 136.115L30.1851 136.541H36.5752C36.8051 136.203 36.9742 135.858 37.1026 135.56C37.2243 135.263 37.4002 134.715 37.4881 134.343C37.5827 133.971 37.6842 133.349 37.7247 132.957C37.7585 132.565 37.7923 131.997 37.7923 131.692V131.131C36.8727 130.326 36.5143 130.009 36.4061 129.907L36.1965 129.725L35.7976 129.88ZM42.6204 132.132L42.4649 132.483C42.9923 133.038 43.2357 133.376 43.3507 133.599C43.4589 133.822 43.5468 134.059 43.5468 134.127C43.5468 134.201 43.6347 134.269 43.797 134.323C43.939 134.37 44.25 134.404 44.4935 134.404C44.7301 134.404 45.0818 134.357 45.2711 134.296C45.4537 134.235 45.643 134.133 45.6903 134.079C45.7647 133.991 45.7444 133.958 45.5551 133.876C45.4334 133.829 45.2035 133.741 45.0412 133.694C44.8789 133.64 44.6828 133.525 44.6152 133.43C44.5408 133.335 44.4867 133.16 44.4935 133.024C44.4935 132.876 44.5746 132.673 44.7098 132.463C44.8316 132.287 44.9127 132.132 44.8992 132.112C44.8789 132.098 44.7098 132.132 44.5273 132.186C44.3379 132.24 44.1216 132.281 44.0336 132.281C43.9525 132.281 43.7902 132.206 43.682 132.112C43.5671 132.017 43.4656 131.855 43.4454 131.74C43.4251 131.631 43.398 131.449 43.3845 131.334C43.371 131.226 43.3304 131.131 43.2898 131.131C43.2493 131.131 43.114 131.28 42.9923 131.456C42.8706 131.631 42.7083 131.936 42.6204 132.132ZM20.7657 131.983C20.6372 132.132 20.4749 132.389 20.4073 132.551C20.3329 132.72 20.2518 133.038 20.2112 133.261C20.1774 133.484 20.1504 133.836 20.1504 134.039C20.1504 134.248 20.1977 134.58 20.2518 134.783C20.3059 134.992 20.4344 135.324 20.5358 135.526C20.6372 135.736 20.8333 136.047 20.9753 136.223L21.2323 136.541L28.8395 136.507C28.9206 135.777 29.0153 135.29 29.1032 134.952C29.1911 134.62 29.3467 134.16 29.4413 133.937C29.536 133.714 29.6171 133.477 29.6171 133.417C29.6171 133.349 29.3805 133.051 29.0897 132.747C28.7381 132.375 28.4405 132.139 28.1633 131.997C27.8049 131.821 27.7035 131.801 27.3181 131.828C27.0746 131.841 26.7839 131.902 26.6757 131.963C26.5607 132.017 26.3646 132.166 26.2429 132.287C26.1144 132.416 25.9521 132.639 25.8845 132.788C25.8169 132.937 25.7628 133.187 25.7628 133.349C25.7628 133.572 25.7155 133.68 25.5667 133.836C25.4112 133.991 25.303 134.039 25.1069 134.039C24.9649 134.039 24.7891 133.998 24.7147 133.951C24.6403 133.903 24.451 133.606 24.2955 133.288C24.1399 132.977 23.8695 132.544 23.7004 132.335C23.5314 132.118 23.2676 131.855 23.1054 131.753C22.9498 131.645 22.7132 131.523 22.5847 131.483C22.4494 131.435 22.1925 131.402 22.0099 131.402C21.8003 131.402 21.5433 131.462 21.3337 131.564C21.1444 131.652 20.8874 131.841 20.7657 131.983ZM39.8615 134.154C39.6384 134.302 39.2867 134.58 39.0839 134.762C38.7796 135.04 38.6849 135.182 38.5835 135.499C38.5159 135.722 38.4009 136.013 38.3333 136.155C38.2589 136.29 38.2048 136.439 38.2048 136.473C38.2048 136.52 38.6173 136.541 39.3003 136.541H40.4025C41.0313 136.135 41.3762 135.864 41.5723 135.689C41.7954 135.486 41.9983 135.215 42.1065 134.985C42.262 134.654 42.2755 134.586 42.2012 134.363C42.1606 134.221 42.0118 133.985 41.8698 133.843C41.6467 133.606 41.5791 133.572 41.3153 133.572C41.1463 133.572 40.842 133.64 40.6391 133.721C40.4295 133.809 40.0847 133.998 39.8615 134.154Z" fill="#B499B8"/>
<path d="M63.184 145.771V134.571H64.752L68.784 142.379L72.784 134.571H74.368V145.771H73.024V136.971L69.28 144.171H68.272L64.528 136.987V145.771H63.184ZM77.4669 136.075C77.2002 136.075 76.9762 135.99 76.7949 135.819C76.6242 135.638 76.5389 135.414 76.5389 135.147C76.5389 134.891 76.6242 134.678 76.7949 134.507C76.9762 134.337 77.2002 134.251 77.4669 134.251C77.7229 134.251 77.9415 134.337 78.1229 134.507C78.3042 134.678 78.3949 134.891 78.3949 135.147C78.3949 135.414 78.3042 135.638 78.1229 135.819C77.9415 135.99 77.7229 136.075 77.4669 136.075ZM76.7949 145.771V137.835H78.1389V145.771H76.7949ZM80.479 145.771V137.835H81.695L81.775 139.259C82.031 138.758 82.399 138.363 82.879 138.075C83.359 137.787 83.903 137.643 84.511 137.643C85.4497 137.643 86.1963 137.931 86.751 138.507C87.3163 139.073 87.599 139.947 87.599 141.131V145.771H86.255V141.275C86.255 139.622 85.5723 138.795 84.207 138.795C83.5243 138.795 82.9537 139.046 82.495 139.547C82.047 140.038 81.823 140.742 81.823 141.659V145.771H80.479ZM90.4513 136.075C90.1846 136.075 89.9606 135.99 89.7793 135.819C89.6086 135.638 89.5233 135.414 89.5233 135.147C89.5233 134.891 89.6086 134.678 89.7793 134.507C89.9606 134.337 90.1846 134.251 90.4513 134.251C90.7073 134.251 90.9259 134.337 91.1073 134.507C91.2886 134.678 91.3793 134.891 91.3793 135.147C91.3793 135.414 91.2886 135.638 91.1073 135.819C90.9259 135.99 90.7073 136.075 90.4513 136.075ZM89.7793 145.771V137.835H91.1233V145.771H89.7793ZM93.4634 145.771V137.835H94.6794L94.7754 138.987C95.0314 138.561 95.3727 138.23 95.7994 137.995C96.226 137.761 96.706 137.643 97.2394 137.643C97.8687 137.643 98.4074 137.771 98.8554 138.027C99.314 138.283 99.666 138.673 99.9114 139.195C100.189 138.715 100.567 138.337 101.047 138.059C101.538 137.782 102.066 137.643 102.631 137.643C103.581 137.643 104.338 137.931 104.903 138.507C105.469 139.073 105.751 139.947 105.751 141.131V145.771H104.423V141.275C104.423 140.454 104.258 139.835 103.927 139.419C103.597 139.003 103.122 138.795 102.503 138.795C101.863 138.795 101.33 139.046 100.903 139.547C100.487 140.038 100.279 140.742 100.279 141.659V145.771H98.9354V141.275C98.9354 140.454 98.77 139.835 98.4394 139.419C98.1087 139.003 97.634 138.795 97.0154 138.795C96.386 138.795 95.858 139.046 95.4314 139.547C95.0154 140.038 94.8074 140.742 94.8074 141.659V145.771H93.4634ZM108.592 136.075C108.325 136.075 108.101 135.99 107.92 135.819C107.749 135.638 107.664 135.414 107.664 135.147C107.664 134.891 107.749 134.678 107.92 134.507C108.101 134.337 108.325 134.251 108.592 134.251C108.848 134.251 109.067 134.337 109.248 134.507C109.429 134.678 109.52 134.891 109.52 135.147C109.52 135.414 109.429 135.638 109.248 135.819C109.067 135.99 108.848 136.075 108.592 136.075ZM107.92 145.771V137.835H109.264V145.771H107.92ZM114.644 145.963C113.695 145.963 112.905 145.723 112.276 145.243C111.647 144.763 111.279 144.113 111.172 143.291H112.548C112.633 143.707 112.852 144.07 113.204 144.379C113.567 144.678 114.052 144.827 114.66 144.827C115.225 144.827 115.641 144.71 115.908 144.475C116.175 144.23 116.308 143.942 116.308 143.611C116.308 143.131 116.132 142.811 115.78 142.651C115.439 142.491 114.953 142.347 114.324 142.219C113.897 142.134 113.471 142.011 113.044 141.851C112.617 141.691 112.26 141.467 111.972 141.179C111.684 140.881 111.54 140.491 111.54 140.011C111.54 139.318 111.796 138.753 112.308 138.315C112.831 137.867 113.535 137.643 114.42 137.643C115.263 137.643 115.951 137.857 116.484 138.283C117.028 138.699 117.343 139.297 117.428 140.075H116.1C116.047 139.67 115.871 139.355 115.572 139.131C115.284 138.897 114.895 138.779 114.404 138.779C113.924 138.779 113.551 138.881 113.284 139.083C113.028 139.286 112.9 139.553 112.9 139.883C112.9 140.203 113.065 140.454 113.396 140.635C113.737 140.817 114.196 140.971 114.772 141.099C115.263 141.206 115.727 141.339 116.164 141.499C116.612 141.649 116.975 141.878 117.252 142.187C117.54 142.486 117.684 142.923 117.684 143.499C117.695 144.214 117.423 144.806 116.868 145.275C116.324 145.734 115.583 145.963 114.644 145.963ZM123.172 145.963C122.415 145.963 121.743 145.793 121.156 145.451C120.569 145.099 120.105 144.614 119.764 143.995C119.433 143.377 119.268 142.646 119.268 141.803C119.268 140.971 119.433 140.246 119.764 139.627C120.095 138.998 120.553 138.513 121.14 138.171C121.737 137.819 122.425 137.643 123.204 137.643C123.972 137.643 124.633 137.819 125.188 138.171C125.753 138.513 126.185 138.966 126.484 139.531C126.783 140.097 126.932 140.705 126.932 141.355C126.932 141.473 126.927 141.59 126.916 141.707C126.916 141.825 126.916 141.958 126.916 142.107H120.596C120.628 142.715 120.767 143.222 121.012 143.627C121.268 144.022 121.583 144.321 121.956 144.523C122.34 144.726 122.745 144.827 123.172 144.827C123.727 144.827 124.191 144.699 124.564 144.443C124.937 144.187 125.209 143.841 125.38 143.403H126.708C126.495 144.139 126.084 144.753 125.476 145.243C124.879 145.723 124.111 145.963 123.172 145.963ZM123.172 138.779C122.532 138.779 121.961 138.977 121.46 139.371C120.969 139.755 120.687 140.321 120.612 141.067H125.604C125.572 140.353 125.327 139.793 124.868 139.387C124.409 138.982 123.844 138.779 123.172 138.779ZM133.38 145.771V138.971H132.18V137.835H133.38V136.459C133.38 135.691 133.572 135.131 133.956 134.779C134.34 134.427 134.9 134.251 135.636 134.251H136.436V135.403H135.844C135.438 135.403 135.15 135.489 134.98 135.659C134.809 135.819 134.724 136.097 134.724 136.491V137.835H136.676V138.971H134.724V145.771H133.38ZM141.579 145.963C140.833 145.963 140.161 145.793 139.563 145.451C138.966 145.11 138.491 144.63 138.139 144.011C137.798 143.382 137.627 142.646 137.627 141.803C137.627 140.961 137.803 140.23 138.155 139.611C138.507 138.982 138.982 138.497 139.579 138.155C140.187 137.814 140.865 137.643 141.611 137.643C142.358 137.643 143.03 137.814 143.627 138.155C144.225 138.497 144.694 138.982 145.035 139.611C145.387 140.23 145.563 140.961 145.563 141.803C145.563 142.646 145.387 143.382 145.035 144.011C144.683 144.63 144.203 145.11 143.595 145.451C142.998 145.793 142.326 145.963 141.579 145.963ZM141.579 144.811C142.038 144.811 142.465 144.699 142.859 144.475C143.254 144.251 143.574 143.915 143.819 143.467C144.065 143.019 144.187 142.465 144.187 141.803C144.187 141.142 144.065 140.587 143.819 140.139C143.585 139.691 143.27 139.355 142.875 139.131C142.481 138.907 142.059 138.795 141.611 138.795C141.153 138.795 140.726 138.907 140.331 139.131C139.937 139.355 139.617 139.691 139.371 140.139C139.126 140.587 139.003 141.142 139.003 141.803C139.003 142.465 139.126 143.019 139.371 143.467C139.617 143.915 139.931 144.251 140.315 144.475C140.71 144.699 141.131 144.811 141.579 144.811ZM151.048 145.963C150.301 145.963 149.629 145.793 149.032 145.451C148.435 145.11 147.96 144.63 147.608 144.011C147.267 143.382 147.096 142.646 147.096 141.803C147.096 140.961 147.272 140.23 147.624 139.611C147.976 138.982 148.451 138.497 149.048 138.155C149.656 137.814 150.333 137.643 151.08 137.643C151.827 137.643 152.499 137.814 153.096 138.155C153.693 138.497 154.163 138.982 154.504 139.611C154.856 140.23 155.032 140.961 155.032 141.803C155.032 142.646 154.856 143.382 154.504 144.011C154.152 144.63 153.672 145.11 153.064 145.451C152.467 145.793 151.795 145.963 151.048 145.963ZM151.048 144.811C151.507 144.811 151.933 144.699 152.328 144.475C152.723 144.251 153.043 143.915 153.288 143.467C153.533 143.019 153.656 142.465 153.656 141.803C153.656 141.142 153.533 140.587 153.288 140.139C153.053 139.691 152.739 139.355 152.344 139.131C151.949 138.907 151.528 138.795 151.08 138.795C150.621 138.795 150.195 138.907 149.8 139.131C149.405 139.355 149.085 139.691 148.84 140.139C148.595 140.587 148.472 141.142 148.472 141.803C148.472 142.465 148.595 143.019 148.84 143.467C149.085 143.915 149.4 144.251 149.784 144.475C150.179 144.699 150.6 144.811 151.048 144.811ZM160.501 145.963C159.712 145.963 159.018 145.782 158.421 145.419C157.834 145.057 157.376 144.561 157.045 143.931C156.725 143.302 156.565 142.587 156.565 141.787C156.565 140.987 156.73 140.278 157.061 139.659C157.392 139.03 157.85 138.539 158.437 138.187C159.024 137.825 159.717 137.643 160.517 137.643C161.168 137.643 161.744 137.777 162.245 138.043C162.746 138.31 163.136 138.683 163.413 139.163V134.251H164.757V145.771H163.541L163.413 144.459C163.157 144.843 162.789 145.19 162.309 145.499C161.829 145.809 161.226 145.963 160.501 145.963ZM160.645 144.795C161.178 144.795 161.648 144.673 162.053 144.427C162.469 144.171 162.789 143.819 163.013 143.371C163.248 142.923 163.365 142.401 163.365 141.803C163.365 141.206 163.248 140.683 163.013 140.235C162.789 139.787 162.469 139.441 162.053 139.195C161.648 138.939 161.178 138.811 160.645 138.811C160.122 138.811 159.653 138.939 159.237 139.195C158.832 139.441 158.512 139.787 158.277 140.235C158.053 140.683 157.941 141.206 157.941 141.803C157.941 142.401 158.053 142.923 158.277 143.371C158.512 143.819 158.832 144.171 159.237 144.427C159.653 144.673 160.122 144.795 160.645 144.795ZM172.782 145.771L170.462 137.835H171.806L173.486 144.059L175.342 137.835H176.862L178.734 144.059L180.398 137.835H181.758L179.438 145.771H178.062L176.11 139.227L174.158 145.771H172.782ZM185.603 145.963C184.942 145.963 184.393 145.851 183.955 145.627C183.518 145.403 183.193 145.105 182.979 144.731C182.766 144.358 182.659 143.953 182.659 143.515C182.659 142.705 182.969 142.081 183.587 141.643C184.206 141.206 185.049 140.987 186.115 140.987H188.259V140.891C188.259 140.198 188.078 139.675 187.715 139.323C187.353 138.961 186.867 138.779 186.259 138.779C185.737 138.779 185.283 138.913 184.899 139.179C184.526 139.435 184.291 139.814 184.195 140.315H182.819C182.873 139.739 183.065 139.254 183.395 138.859C183.737 138.465 184.158 138.166 184.659 137.963C185.161 137.75 185.694 137.643 186.259 137.643C187.369 137.643 188.201 137.942 188.755 138.539C189.321 139.126 189.603 139.91 189.603 140.891V145.771H188.403L188.323 144.347C188.099 144.795 187.769 145.179 187.331 145.499C186.905 145.809 186.329 145.963 185.603 145.963ZM185.811 144.827C186.323 144.827 186.761 144.694 187.123 144.427C187.497 144.161 187.779 143.814 187.971 143.387C188.163 142.961 188.259 142.513 188.259 142.043V142.027H186.227C185.438 142.027 184.878 142.166 184.547 142.443C184.227 142.71 184.067 143.046 184.067 143.451C184.067 143.867 184.217 144.203 184.515 144.459C184.825 144.705 185.257 144.827 185.811 144.827ZM194.66 145.963C193.71 145.963 192.921 145.723 192.292 145.243C191.662 144.763 191.294 144.113 191.188 143.291H192.564C192.649 143.707 192.868 144.07 193.22 144.379C193.582 144.678 194.068 144.827 194.676 144.827C195.241 144.827 195.657 144.71 195.924 144.475C196.19 144.23 196.324 143.942 196.324 143.611C196.324 143.131 196.148 142.811 195.796 142.651C195.454 142.491 194.969 142.347 194.34 142.219C193.913 142.134 193.486 142.011 193.06 141.851C192.633 141.691 192.276 141.467 191.988 141.179C191.7 140.881 191.556 140.491 191.556 140.011C191.556 139.318 191.812 138.753 192.324 138.315C192.846 137.867 193.55 137.643 194.436 137.643C195.278 137.643 195.966 137.857 196.5 138.283C197.044 138.699 197.358 139.297 197.444 140.075H196.116C196.062 139.67 195.886 139.355 195.588 139.131C195.3 138.897 194.91 138.779 194.42 138.779C193.94 138.779 193.566 138.881 193.3 139.083C193.044 139.286 192.916 139.553 192.916 139.883C192.916 140.203 193.081 140.454 193.412 140.635C193.753 140.817 194.212 140.971 194.788 141.099C195.278 141.206 195.742 141.339 196.18 141.499C196.628 141.649 196.99 141.878 197.268 142.187C197.556 142.486 197.7 142.923 197.7 143.499C197.71 144.214 197.438 144.806 196.884 145.275C196.34 145.734 195.598 145.963 194.66 145.963ZM202.396 145.771C201.671 145.771 201.1 145.595 200.684 145.243C200.268 144.891 200.06 144.257 200.06 143.339V138.971H198.684V137.835H200.06L200.236 135.931H201.404V137.835H203.74V138.971H201.404V143.339C201.404 143.841 201.506 144.182 201.708 144.363C201.911 144.534 202.268 144.619 202.78 144.619H203.612V145.771H202.396ZM208.797 145.963C208.04 145.963 207.368 145.793 206.781 145.451C206.194 145.099 205.73 144.614 205.389 143.995C205.058 143.377 204.893 142.646 204.893 141.803C204.893 140.971 205.058 140.246 205.389 139.627C205.72 138.998 206.178 138.513 206.765 138.171C207.362 137.819 208.05 137.643 208.829 137.643C209.597 137.643 210.258 137.819 210.813 138.171C211.378 138.513 211.81 138.966 212.109 139.531C212.408 140.097 212.557 140.705 212.557 141.355C212.557 141.473 212.552 141.59 212.541 141.707C212.541 141.825 212.541 141.958 212.541 142.107H206.221C206.253 142.715 206.392 143.222 206.637 143.627C206.893 144.022 207.208 144.321 207.581 144.523C207.965 144.726 208.37 144.827 208.797 144.827C209.352 144.827 209.816 144.699 210.189 144.443C210.562 144.187 210.834 143.841 211.005 143.403H212.333C212.12 144.139 211.709 144.753 211.101 145.243C210.504 145.723 209.736 145.963 208.797 145.963ZM208.797 138.779C208.157 138.779 207.586 138.977 207.085 139.371C206.594 139.755 206.312 140.321 206.237 141.067H211.229C211.197 140.353 210.952 139.793 210.493 139.387C210.034 138.982 209.469 138.779 208.797 138.779Z" fill="black"/>
</svg>
