<svg width="72" height="72" viewBox="0 0 72 72" fill="none" xmlns="http://www.w3.org/2000/svg">
<rect width="72" height="72" fill="white"/>
<path d="M15.027 41.2914C21.3611 41.2914 26.7695 42.2955 26.7695 46.3139C26.7695 50.3306 21.3958 51.3714 15.027 51.3714C8.69295 51.3714 3.28455 50.3672 3.28455 46.3505C3.28455 42.3321 8.65824 41.2914 15.027 41.2914ZM15.027 21.835C19.3395 21.835 22.7975 25.3097 22.7975 29.6489C22.7975 33.9865 19.3395 37.4645 15.027 37.4645C10.7145 37.4645 7.25655 33.9865 7.25655 29.6489C7.25655 25.3097 10.7145 21.835 15.027 21.835Z" fill="#97B0D7"/>
<path d="M16.6994 40.8574C23.2849 40.8574 28.908 41.9015 28.908 46.0793C28.908 50.2555 23.321 51.3376 16.6994 51.3376C10.1139 51.3376 4.49084 50.2935 4.49084 46.1174C4.49084 41.9395 10.0779 40.8574 16.6994 40.8574ZM16.6994 20.6287C21.1831 20.6287 24.7784 24.2413 24.7784 28.7528C24.7784 33.2626 21.1831 36.8787 16.6994 36.8787C12.2157 36.8787 8.62052 33.2626 8.62052 28.7528C8.62052 24.2413 12.2157 20.6287 16.6994 20.6287Z" stroke="#403C3B" stroke-width="1.5"/>
<path d="M37.6115 26.9106L41.2725 30.5717L37.6115 34.2328" stroke="#292D32" stroke-width="1.08566" stroke-miterlimit="10" stroke-linecap="round" stroke-linejoin="round"/>
<path d="M31.019 30.5718H41.1699" stroke="#292D32" stroke-width="1.08566" stroke-miterlimit="10" stroke-linecap="round" stroke-linejoin="round"/>
<path d="M34.6802 43.8831L31.0191 40.222L34.6802 36.5609" stroke="#292D32" stroke-width="1.08566" stroke-miterlimit="10" stroke-linecap="round" stroke-linejoin="round"/>
<path d="M41.2726 40.2219H31.1217" stroke="#292D32" stroke-width="1.08566" stroke-miterlimit="10" stroke-linecap="round" stroke-linejoin="round"/>
<path d="M54.8345 41.2914C61.1686 41.2914 66.577 42.2955 66.577 46.3139C66.577 50.3306 61.2033 51.3714 54.8345 51.3714C48.5004 51.3714 43.092 50.3672 43.092 46.3505C43.092 42.3321 48.4657 41.2914 54.8345 41.2914ZM54.8345 21.835C59.147 21.835 62.605 25.3097 62.605 29.6489C62.605 33.9865 59.147 37.4645 54.8345 37.4645C50.522 37.4645 47.064 33.9865 47.064 29.6489C47.064 25.3097 50.522 21.835 54.8345 21.835Z" fill="#97B0D7"/>
<path d="M56.5069 40.8574C63.0924 40.8574 68.7155 41.9015 68.7155 46.0793C68.7155 50.2555 63.1285 51.3376 56.5069 51.3376C49.9214 51.3376 44.2983 50.2935 44.2983 46.1174C44.2983 41.9395 49.8854 40.8574 56.5069 40.8574ZM56.5069 20.6287C60.9906 20.6287 64.5858 24.2413 64.5858 28.7528C64.5858 33.2626 60.9906 36.8787 56.5069 36.8787C52.0232 36.8787 48.428 33.2626 48.428 28.7528C48.428 24.2413 52.0232 20.6287 56.5069 20.6287Z" stroke="#403C3B" stroke-width="1.5"/>
</svg>
