<svg width="447" height="374" viewBox="0 0 447 374" fill="none" xmlns="http://www.w3.org/2000/svg">
<g clip-path="url(#clip0_2220_3001)">
<rect x="24.1285" y="29.2513" width="291.469" height="344.749" rx="20.8939" fill="#202937"/>
<g clip-path="url(#clip1_2220_3001)">
<rect x="0.100586" width="301.916" height="357.285" rx="11.0194" fill="white"/>
<rect width="301.916" height="42.7151" fill="#ECF0F8"/>
<path d="M63.5311 27.3575V22.7845L59.2152 14.5016H61.8782L64.7249 20.4337L67.5532 14.5016H70.1795L65.8819 22.7845V27.3575H63.5311ZM74.3693 27.5779C73.4877 27.5779 72.6919 27.3759 71.9818 26.9719C71.2839 26.5678 70.7268 26.0107 70.3105 25.3006C69.9064 24.5782 69.7044 23.7456 69.7044 22.8029C69.7044 21.8601 69.9126 21.0337 70.3288 20.3235C70.7451 19.6011 71.3022 19.0379 72.0001 18.6339C72.7103 18.2298 73.5061 18.0278 74.3876 18.0278C75.257 18.0278 76.0405 18.2298 76.7384 18.6339C77.4486 19.0379 78.0057 19.6011 78.4097 20.3235C78.826 21.0337 79.0341 21.8601 79.0341 22.8029C79.0341 23.7456 78.826 24.5782 78.4097 25.3006C78.0057 26.0107 77.4486 26.5678 76.7384 26.9719C76.0283 27.3759 75.2386 27.5779 74.3693 27.5779ZM74.3693 25.5393C74.9815 25.5393 75.5141 25.3128 75.9671 24.8598C76.4201 24.3946 76.6466 23.7089 76.6466 22.8029C76.6466 21.8968 76.4201 21.2173 75.9671 20.7643C75.5141 20.299 74.9876 20.0664 74.3876 20.0664C73.7632 20.0664 73.2245 20.299 72.7715 20.7643C72.3307 21.2173 72.1103 21.8968 72.1103 22.8029C72.1103 23.7089 72.3307 24.3946 72.7715 24.8598C73.2245 25.3128 73.7571 25.5393 74.3693 25.5393ZM84.552 27.5779C83.4133 27.5779 82.5318 27.2229 81.9074 26.5127C81.2952 25.8026 80.9891 24.7619 80.9891 23.3906V18.2482H83.3215V23.1702C83.3215 23.9538 83.4807 24.5537 83.799 24.97C84.1173 25.3863 84.6193 25.5944 85.305 25.5944C85.9539 25.5944 86.4865 25.3618 86.9028 24.8966C87.3313 24.4313 87.5456 23.7824 87.5456 22.9498V18.2482H89.8964V27.3575H87.8211L87.6374 25.8148C87.3558 26.3536 86.9457 26.7821 86.4069 27.1004C85.8804 27.4188 85.2621 27.5779 84.552 27.5779ZM96.6858 27.3575V14.1343H99.0366V19.644C99.3427 19.142 99.7528 18.7502 100.267 18.4686C100.794 18.1747 101.394 18.0278 102.067 18.0278C103.193 18.0278 104.063 18.3829 104.675 19.093C105.299 19.8032 105.611 20.8439 105.611 22.2152V27.3575H103.279V22.4356C103.279 21.652 103.12 21.052 102.802 20.6357C102.495 20.2194 102.006 20.0113 101.332 20.0113C100.671 20.0113 100.12 20.2439 99.6794 20.7092C99.2508 21.1745 99.0366 21.8234 99.0366 22.6559V27.3575H96.6858ZM111 27.5779C110.216 27.5779 109.574 27.4555 109.072 27.2106C108.57 26.9535 108.196 26.6168 107.951 26.2005C107.706 25.7842 107.584 25.3251 107.584 24.8231C107.584 23.9783 107.914 23.2926 108.576 22.7661C109.237 22.2397 110.229 21.9764 111.551 21.9764H113.865V21.756C113.865 21.1316 113.687 20.6725 113.332 20.3786C112.977 20.0848 112.536 19.9378 112.01 19.9378C111.533 19.9378 111.116 20.0542 110.761 20.2868C110.406 20.5072 110.186 20.8378 110.1 21.2785H107.804C107.866 20.6174 108.086 20.0419 108.465 19.5522C108.857 19.0624 109.359 18.689 109.971 18.4319C110.584 18.1625 111.269 18.0278 112.028 18.0278C113.326 18.0278 114.349 18.3523 115.095 19.0012C115.842 19.6501 116.216 20.5684 116.216 21.756V27.3575H114.214L113.993 25.8883C113.724 26.378 113.345 26.7821 112.855 27.1004C112.377 27.4188 111.759 27.5779 111 27.5779ZM111.533 25.7414C112.206 25.7414 112.726 25.521 113.094 25.0802C113.473 24.6394 113.712 24.0946 113.81 23.4457H111.808C111.184 23.4457 110.737 23.562 110.467 23.7946C110.198 24.015 110.063 24.2905 110.063 24.6211C110.063 24.9761 110.198 25.2516 110.467 25.4475C110.737 25.6434 111.092 25.7414 111.533 25.7414ZM120.651 27.3575L117.308 18.2482H119.769L122.084 25.1353L124.398 18.2482H126.859L123.498 27.3575H120.651ZM132.319 27.5779C131.401 27.5779 130.587 27.382 129.876 26.9902C129.166 26.5984 128.609 26.0475 128.205 25.3373C127.801 24.6272 127.599 23.8069 127.599 22.8763C127.599 21.9336 127.795 21.0949 128.187 20.3602C128.591 19.6256 129.142 19.0563 129.84 18.6522C130.55 18.236 131.382 18.0278 132.337 18.0278C133.231 18.0278 134.021 18.2237 134.707 18.6155C135.392 19.0073 135.925 19.546 136.304 20.2317C136.696 20.9051 136.892 21.6581 136.892 22.4907C136.892 22.6253 136.886 22.7661 136.874 22.9131C136.874 23.06 136.868 23.213 136.855 23.3722H129.932C129.981 24.0823 130.225 24.6394 130.666 25.0435C131.119 25.4475 131.664 25.6495 132.301 25.6495C132.778 25.6495 133.176 25.5455 133.494 25.3373C133.825 25.1169 134.07 24.8353 134.229 24.4925H136.617C136.445 25.068 136.157 25.5944 135.753 26.072C135.362 26.5372 134.872 26.9045 134.284 27.1739C133.709 27.4433 133.054 27.5779 132.319 27.5779ZM132.337 19.9378C131.762 19.9378 131.254 20.1031 130.813 20.4337C130.372 20.752 130.091 21.2418 129.968 21.903H134.505C134.468 21.303 134.247 20.8255 133.843 20.4704C133.439 20.1154 132.937 19.9378 132.337 19.9378ZM144.696 27.3575V17.183L142.584 17.6789V15.879L145.688 14.5016H147.139V27.3575H144.696ZM153.953 27.3575V18.2482H156.028L156.212 19.7909C156.493 19.2522 156.897 18.8237 157.424 18.5053C157.963 18.187 158.593 18.0278 159.316 18.0278C160.442 18.0278 161.317 18.3829 161.942 19.093C162.566 19.8032 162.878 20.8439 162.878 22.2152V27.3575H160.528V22.4356C160.528 21.652 160.368 21.052 160.05 20.6357C159.732 20.2194 159.236 20.0113 158.563 20.0113C157.901 20.0113 157.357 20.2439 156.928 20.7092C156.512 21.1745 156.304 21.8234 156.304 22.6559V27.3575H153.953ZM169.552 27.5779C168.634 27.5779 167.82 27.382 167.11 26.9902C166.4 26.5984 165.843 26.0475 165.439 25.3373C165.035 24.6272 164.833 23.8069 164.833 22.8763C164.833 21.9336 165.028 21.0949 165.42 20.3602C165.824 19.6256 166.375 19.0563 167.073 18.6522C167.783 18.236 168.616 18.0278 169.571 18.0278C170.465 18.0278 171.254 18.2237 171.94 18.6155C172.626 19.0073 173.158 19.546 173.538 20.2317C173.93 20.9051 174.125 21.6581 174.125 22.4907C174.125 22.6253 174.119 22.7661 174.107 22.9131C174.107 23.06 174.101 23.213 174.089 23.3722H167.165C167.214 24.0823 167.459 24.6394 167.9 25.0435C168.353 25.4475 168.897 25.6495 169.534 25.6495C170.012 25.6495 170.41 25.5455 170.728 25.3373C171.058 25.1169 171.303 24.8353 171.462 24.4925H173.85C173.679 25.068 173.391 25.5944 172.987 26.072C172.595 26.5372 172.105 26.9045 171.518 27.1739C170.942 27.4433 170.287 27.5779 169.552 27.5779ZM169.571 19.9378C168.995 19.9378 168.487 20.1031 168.046 20.4337C167.606 20.752 167.324 21.2418 167.202 21.903H171.738C171.701 21.303 171.481 20.8255 171.077 20.4704C170.673 20.1154 170.171 19.9378 169.571 19.9378ZM177.525 27.3575L174.862 18.2482H177.195L178.774 24.8047L180.611 18.2482H183.219L185.055 24.8047L186.653 18.2482H188.986L186.304 27.3575H183.862L181.915 20.5439L179.968 27.3575H177.525ZM199.216 27.5779C198.334 27.5779 197.539 27.3759 196.828 26.9719C196.13 26.5678 195.573 26.0107 195.157 25.3006C194.753 24.5782 194.551 23.7456 194.551 22.8029C194.551 21.8601 194.759 21.0337 195.175 20.3235C195.592 19.6011 196.149 19.0379 196.847 18.6339C197.557 18.2298 198.353 18.0278 199.234 18.0278C200.104 18.0278 200.887 18.2298 201.585 18.6339C202.295 19.0379 202.852 19.6011 203.256 20.3235C203.673 21.0337 203.881 21.8601 203.881 22.8029C203.881 23.7456 203.673 24.5782 203.256 25.3006C202.852 26.0107 202.295 26.5678 201.585 26.9719C200.875 27.3759 200.085 27.5779 199.216 27.5779ZM199.216 25.5393C199.828 25.5393 200.361 25.3128 200.814 24.8598C201.267 24.3946 201.493 23.7089 201.493 22.8029C201.493 21.8968 201.267 21.2173 200.814 20.7643C200.361 20.299 199.834 20.0664 199.234 20.0664C198.61 20.0664 198.071 20.299 197.618 20.7643C197.177 21.2173 196.957 21.8968 196.957 22.8029C196.957 23.7089 197.177 24.3946 197.618 24.8598C198.071 25.3128 198.604 25.5393 199.216 25.5393ZM205.983 27.3575V18.2482H208.076L208.297 19.9562C208.627 19.3685 209.074 18.9032 209.637 18.5604C210.213 18.2054 210.886 18.0278 211.658 18.0278V20.5072H210.996C210.482 20.5072 210.023 20.5868 209.619 20.7459C209.215 20.9051 208.897 21.1806 208.664 21.5724C208.444 21.9642 208.333 22.509 208.333 23.2069V27.3575H205.983ZM217.29 27.5779C216.433 27.5779 215.668 27.3698 214.995 26.9535C214.321 26.5372 213.789 25.9679 213.397 25.2455C213.005 24.5231 212.809 23.7028 212.809 22.7845C212.809 21.8662 213.005 21.052 213.397 20.3419C213.789 19.6195 214.321 19.0563 214.995 18.6522C215.668 18.236 216.433 18.0278 217.29 18.0278C217.976 18.0278 218.576 18.1564 219.09 18.4135C219.604 18.6706 220.021 19.0318 220.339 19.4971V14.1343H222.69V27.3575H220.596L220.339 26.0536C220.045 26.4576 219.653 26.8127 219.164 27.1188C218.686 27.4249 218.062 27.5779 217.29 27.5779ZM217.786 25.521C218.545 25.521 219.164 25.27 219.641 24.768C220.131 24.2538 220.376 23.5987 220.376 22.8029C220.376 22.007 220.131 21.3581 219.641 20.8561C219.164 20.3419 218.545 20.0848 217.786 20.0848C217.039 20.0848 216.421 20.3358 215.931 20.8378C215.441 21.3397 215.197 21.9887 215.197 22.7845C215.197 23.5804 215.441 24.2354 215.931 24.7496C216.421 25.2639 217.039 25.521 217.786 25.521ZM229.51 27.5779C228.591 27.5779 227.777 27.382 227.067 26.9902C226.357 26.5984 225.8 26.0475 225.396 25.3373C224.992 24.6272 224.79 23.8069 224.79 22.8763C224.79 21.9336 224.986 21.0949 225.377 20.3602C225.781 19.6256 226.332 19.0563 227.03 18.6522C227.74 18.236 228.573 18.0278 229.528 18.0278C230.422 18.0278 231.212 18.2237 231.897 18.6155C232.583 19.0073 233.115 19.546 233.495 20.2317C233.887 20.9051 234.083 21.6581 234.083 22.4907C234.083 22.6253 234.077 22.7661 234.064 22.9131C234.064 23.06 234.058 23.213 234.046 23.3722H227.122C227.171 24.0823 227.416 24.6394 227.857 25.0435C228.31 25.4475 228.855 25.6495 229.491 25.6495C229.969 25.6495 230.367 25.5455 230.685 25.3373C231.016 25.1169 231.261 24.8353 231.42 24.4925H233.807C233.636 25.068 233.348 25.5944 232.944 26.072C232.552 26.5372 232.063 26.9045 231.475 27.1739C230.899 27.4433 230.244 27.5779 229.51 27.5779ZM229.528 19.9378C228.953 19.9378 228.444 20.1031 228.004 20.4337C227.563 20.752 227.281 21.2418 227.159 21.903H231.695C231.658 21.303 231.438 20.8255 231.034 20.4704C230.63 20.1154 230.128 19.9378 229.528 19.9378ZM236.06 27.3575V18.2482H238.154L238.374 19.9562C238.705 19.3685 239.151 18.9032 239.715 18.5604C240.29 18.2054 240.964 18.0278 241.735 18.0278V20.5072H241.074C240.559 20.5072 240.1 20.5868 239.696 20.7459C239.292 20.9051 238.974 21.1806 238.741 21.5724C238.521 21.9642 238.411 22.509 238.411 23.2069V27.3575H236.06Z" fill="#202937"/>
<path d="M24.0617 84.0037C22.9648 84.0037 22.0037 83.7634 21.1784 83.2829C20.3635 82.8023 19.721 82.1389 19.2509 81.2927C18.7913 80.4361 18.5614 79.4489 18.5614 78.331C18.5614 77.2132 18.7913 76.2312 19.2509 75.385C19.721 74.5284 20.3635 73.8598 21.1784 73.3792C22.0037 72.8986 22.9648 72.6584 24.0617 72.6584C25.1482 72.6584 26.1041 72.8986 26.9294 73.3792C27.7547 73.8598 28.3972 74.5284 28.8569 75.385C29.3165 76.2312 29.5464 77.2132 29.5464 78.331C29.5464 79.4489 29.3165 80.4361 28.8569 81.2927C28.3972 82.1389 27.7547 82.8023 26.9294 83.2829C26.1041 83.7634 25.1482 84.0037 24.0617 84.0037ZM24.0617 82.2016C25.1064 82.2016 25.937 81.8569 26.5533 81.1674C27.1801 80.4779 27.4936 79.5324 27.4936 78.331C27.4936 77.1296 27.1801 76.1842 26.5533 75.4947C25.937 74.8052 25.1064 74.4605 24.0617 74.4605C23.017 74.4605 22.1813 74.8052 21.5545 75.4947C20.9277 76.1842 20.6143 77.1296 20.6143 78.331C20.6143 79.5324 20.9277 80.4779 21.5545 81.1674C22.1813 81.8569 23.017 82.2016 24.0617 82.2016ZM31.7927 83.8157V76.0432H33.5791L33.7672 77.5005C34.0492 76.9991 34.4306 76.6021 34.9111 76.3096C35.4021 76.0066 35.9767 75.8551 36.6349 75.8551V77.9706H36.0707C35.632 77.9706 35.2402 78.0385 34.8954 78.1743C34.5507 78.3101 34.2791 78.5452 34.0806 78.8795C33.8925 79.2138 33.7985 79.6787 33.7985 80.2742V83.8157H31.7927ZM41.9632 84.0037C41.232 84.0037 40.579 83.8261 40.0044 83.4709C39.4299 83.1157 38.9754 82.6299 38.6411 82.0136C38.3068 81.3972 38.1397 80.6973 38.1397 79.9137C38.1397 79.1302 38.3068 78.4355 38.6411 77.8296C38.9754 77.2132 39.4299 76.7327 40.0044 76.3879C40.579 76.0327 41.232 75.8551 41.9632 75.8551C42.5483 75.8551 43.0602 75.9648 43.4989 76.1842C43.9377 76.4036 44.2929 76.7118 44.5645 77.1087V72.533H46.5703V83.8157H44.7839L44.5645 82.7031C44.3138 83.0478 43.9795 83.3508 43.5616 83.612C43.1542 83.8731 42.6214 84.0037 41.9632 84.0037ZM42.3863 82.2486C43.0341 82.2486 43.5616 82.0345 43.9691 81.6061C44.3869 81.1674 44.5959 80.6085 44.5959 79.9294C44.5959 79.2504 44.3869 78.6967 43.9691 78.2684C43.5616 77.8296 43.0341 77.6102 42.3863 77.6102C41.7491 77.6102 41.2215 77.8244 40.8036 78.2527C40.3858 78.681 40.1768 79.2347 40.1768 79.9137C40.1768 80.5928 40.3858 81.1517 40.8036 81.5905C41.2215 82.0292 41.7491 82.2486 42.3863 82.2486ZM52.9118 84.0037C52.1283 84.0037 51.4335 83.8366 50.8276 83.5023C50.2217 83.168 49.7464 82.6979 49.4016 82.0919C49.0569 81.486 48.8845 80.7861 48.8845 79.9921C48.8845 79.1877 49.0516 78.4721 49.3859 77.8453C49.7307 77.2184 50.2008 76.7327 50.7963 76.3879C51.4022 76.0327 52.1126 75.8551 52.9275 75.8551C53.6901 75.8551 54.3639 76.0223 54.9489 76.3566C55.534 76.6909 55.9884 77.1505 56.3123 77.7356C56.6466 78.3101 56.8137 78.9526 56.8137 79.663C56.8137 79.7779 56.8085 79.8981 56.798 80.0234C56.798 80.1488 56.7928 80.2794 56.7824 80.4152H50.8746C50.9164 81.0211 51.1254 81.4965 51.5014 81.8412C51.888 82.186 52.3529 82.3583 52.8961 82.3583C53.3035 82.3583 53.6431 82.2695 53.9147 82.0919C54.1968 81.9039 54.4057 81.6636 54.5415 81.3711H56.5787C56.4324 81.8621 56.1869 82.3113 55.8421 82.7187C55.5078 83.1157 55.09 83.4291 54.5885 83.659C54.0975 83.8888 53.5386 84.0037 52.9118 84.0037ZM52.9275 77.4848C52.4364 77.4848 52.0029 77.6259 51.6268 77.9079C51.2507 78.1796 51.0104 78.5974 50.906 79.1616H54.7766C54.7452 78.6497 54.5572 78.2422 54.2124 77.9393C53.8677 77.6363 53.4394 77.4848 52.9275 77.4848ZM59.0231 83.8157V76.0432H60.8095L60.9975 77.5005C61.2796 76.9991 61.6609 76.6021 62.1415 76.3096C62.6325 76.0066 63.2071 75.8551 63.8652 75.8551V77.9706H63.3011C62.8623 77.9706 62.4706 78.0385 62.1258 78.1743C61.7811 78.3101 61.5094 78.5452 61.311 78.8795C61.1229 79.2138 61.0289 79.6787 61.0289 80.2742V83.8157H59.0231ZM70.0618 83.8157V72.8464H72.0676V83.8157H70.0618ZM74.716 83.8157V72.8464H78.4612C79.7462 72.8464 80.8013 73.0762 81.6266 73.5359C82.4624 73.9851 83.0788 74.6224 83.4757 75.4477C83.8832 76.2625 84.0869 77.2237 84.0869 78.331C84.0869 79.4384 83.8832 80.4048 83.4757 81.2301C83.0788 82.0449 82.4624 82.6822 81.6266 83.1418C80.8013 83.5911 79.7462 83.8157 78.4612 83.8157H74.716ZM76.7218 82.0919H78.3672C79.2865 82.0919 80.0126 81.9457 80.5454 81.6532C81.0782 81.3502 81.4595 80.9219 81.6893 80.3682C81.9191 79.8041 82.0341 79.125 82.0341 78.331C82.0341 77.5475 81.9191 76.8737 81.6893 76.3096C81.4595 75.7454 81.0782 75.3119 80.5454 75.0089C80.0126 74.706 79.2865 74.5545 78.3672 74.5545H76.7218V82.0919ZM91.7636 83.8157L92.3434 81.0734H90.0868V79.2713H92.7351L93.2209 76.9834H90.9174V75.1813H93.6127L94.1925 72.486H96.0729L95.4931 75.1813H98.4705L99.0503 72.486H100.931L100.367 75.1813H102.404V76.9834H99.9749L99.4891 79.2713H101.573V81.0734H99.0973L98.5175 83.8157H96.6214L97.2169 81.0734H94.2395L93.6597 83.8157H91.7636ZM94.6156 79.2713H97.593L98.0944 76.9834H95.117L94.6156 79.2713ZM105.831 83.8157V75.1343L104.029 75.5574V74.0217L106.677 72.8464H107.915V83.8157H105.831ZM110.298 83.8157V82.3583C110.966 81.8046 111.614 81.2562 112.241 80.7129C112.878 80.1697 113.442 79.6317 113.933 79.0989C114.435 78.5661 114.832 78.049 115.124 77.5475C115.427 77.0356 115.579 76.5394 115.579 76.0588C115.579 75.6096 115.453 75.2126 115.202 74.8679C114.962 74.5231 114.56 74.3508 113.996 74.3508C113.421 74.3508 112.988 74.5388 112.695 74.9149C112.403 75.291 112.256 75.7454 112.256 76.2782H110.313C110.334 75.4738 110.512 74.8052 110.846 74.2724C111.18 73.7292 111.624 73.327 112.178 73.0658C112.732 72.7942 113.353 72.6584 114.043 72.6584C115.161 72.6584 116.028 72.9665 116.644 73.5829C117.271 74.1888 117.584 74.9776 117.584 75.9491C117.584 76.5551 117.443 77.1453 117.161 77.7199C116.89 78.2945 116.529 78.8482 116.08 79.381C115.631 79.9137 115.145 80.4152 114.623 80.8853C114.1 81.345 113.594 81.7733 113.103 82.1703H117.851V83.8157H110.298ZM123.627 84.0037C122.906 84.0037 122.253 83.8784 121.668 83.6276C121.083 83.3665 120.613 82.9695 120.258 82.4367C119.903 81.9039 119.715 81.2353 119.694 80.4309H121.668C121.679 80.9637 121.851 81.4129 122.186 81.7785C122.53 82.1337 123.011 82.3113 123.627 82.3113C124.212 82.3113 124.661 82.1494 124.975 81.8255C125.288 81.5017 125.445 81.0942 125.445 80.6032C125.445 80.0287 125.236 79.5951 124.818 79.3026C124.411 78.9996 123.883 78.8482 123.235 78.8482H122.421V77.2028H123.251C123.784 77.2028 124.228 77.0774 124.583 76.8267C124.938 76.576 125.116 76.2051 125.116 75.7141C125.116 75.3067 124.98 74.9828 124.708 74.7425C124.447 74.4918 124.082 74.3664 123.612 74.3664C123.1 74.3664 122.697 74.5179 122.405 74.8209C122.123 75.1238 121.966 75.4947 121.935 75.9335H119.976C120.018 74.9201 120.368 74.1209 121.026 73.5359C121.695 72.9509 122.556 72.6584 123.612 72.6584C124.364 72.6584 124.996 72.7942 125.508 73.0658C126.03 73.327 126.422 73.6769 126.683 74.1157C126.955 74.5545 127.09 75.0403 127.09 75.573C127.09 76.1894 126.918 76.7118 126.573 77.1401C126.239 77.558 125.821 77.84 125.32 77.9863C125.936 78.1117 126.437 78.4146 126.824 78.8952C127.211 79.3653 127.404 79.9608 127.404 80.6816C127.404 81.2875 127.258 81.8412 126.965 82.3427C126.673 82.8441 126.244 83.2463 125.68 83.5493C125.126 83.8522 124.442 84.0037 123.627 84.0037ZM130.949 83.8157V75.1343L129.147 75.5574V74.0217L131.795 72.8464H133.033V83.8157H130.949ZM136.874 83.8157V75.1343L135.071 75.5574V74.0217L137.72 72.8464H138.958V83.8157H136.874ZM145.195 84.0037C144.475 84.0037 143.822 83.8784 143.237 83.6276C142.652 83.3665 142.182 82.9695 141.826 82.4367C141.471 81.9039 141.283 81.2353 141.262 80.4309H143.237C143.247 80.9637 143.419 81.4129 143.754 81.7785C144.099 82.1337 144.579 82.3113 145.195 82.3113C145.78 82.3113 146.23 82.1494 146.543 81.8255C146.857 81.5017 147.013 81.0942 147.013 80.6032C147.013 80.0287 146.804 79.5951 146.386 79.3026C145.979 78.9996 145.451 78.8482 144.804 78.8482H143.989V77.2028H144.819C145.352 77.2028 145.796 77.0774 146.151 76.8267C146.507 76.576 146.684 76.2051 146.684 75.7141C146.684 75.3067 146.548 74.9828 146.277 74.7425C146.016 74.4918 145.65 74.3664 145.18 74.3664C144.668 74.3664 144.266 74.5179 143.973 74.8209C143.691 75.1238 143.534 75.4947 143.503 75.9335H141.544C141.586 74.9201 141.936 74.1209 142.594 73.5359C143.263 72.9509 144.125 72.6584 145.18 72.6584C145.932 72.6584 146.564 72.7942 147.076 73.0658C147.598 73.327 147.99 73.6769 148.251 74.1157C148.523 74.5545 148.659 75.0403 148.659 75.573C148.659 76.1894 148.486 76.7118 148.141 77.1401C147.807 77.558 147.389 77.84 146.888 77.9863C147.504 78.1117 148.006 78.4146 148.392 78.8952C148.779 79.3653 148.972 79.9608 148.972 80.6816C148.972 81.2875 148.826 81.8412 148.533 82.3427C148.241 82.8441 147.812 83.2463 147.248 83.5493C146.695 83.8522 146.01 84.0037 145.195 84.0037Z" fill="#354356"/>
<path d="M18.8947 108.86V98.6224H22.478C23.2775 98.6224 23.9406 98.7589 24.4671 99.0319C24.9936 99.2951 25.3836 99.6608 25.6371 100.129C25.9004 100.587 26.032 101.109 26.032 101.694C26.032 102.25 25.9053 102.761 25.6518 103.229C25.408 103.688 25.0229 104.053 24.4963 104.326C23.9698 104.599 23.297 104.736 22.478 104.736H20.445V108.86H18.8947ZM20.445 103.463H22.4049C23.1361 103.463 23.6578 103.307 23.9698 102.995C24.2916 102.674 24.4525 102.24 24.4525 101.694C24.4525 101.128 24.2916 100.689 23.9698 100.377C23.6578 100.056 23.1361 99.8948 22.4049 99.8948H20.445V103.463ZM28.9058 100.231C28.6133 100.231 28.3695 100.143 28.1745 99.9679C27.9893 99.7827 27.8966 99.5535 27.8966 99.2805C27.8966 99.0075 27.9893 98.7832 28.1745 98.6077C28.3695 98.4225 28.6133 98.3298 28.9058 98.3298C29.1983 98.3298 29.4372 98.4225 29.6225 98.6077C29.8175 98.7832 29.915 99.0075 29.915 99.2805C29.915 99.5535 29.8175 99.7827 29.6225 99.9679C29.4372 100.143 29.1983 100.231 28.9058 100.231ZM28.1306 108.86V101.606H29.681V108.86H28.1306ZM35.6869 109.036C34.9751 109.036 34.3365 108.875 33.7709 108.553C33.2152 108.231 32.7764 107.788 32.4546 107.222C32.1426 106.647 31.9866 105.984 31.9866 105.233C31.9866 104.482 32.1426 103.824 32.4546 103.259C32.7764 102.683 33.2152 102.235 33.7709 101.913C34.3365 101.591 34.9751 101.43 35.6869 101.43C36.584 101.43 37.3347 101.665 37.9393 102.133C38.5536 102.601 38.9484 103.234 39.124 104.034H37.5005C37.403 103.634 37.1885 103.322 36.857 103.098C36.5255 102.874 36.1354 102.761 35.6869 102.761C35.3066 102.761 34.9556 102.859 34.6339 103.054C34.3121 103.239 34.0537 103.517 33.8587 103.888C33.6637 104.248 33.5662 104.697 33.5662 105.233C33.5662 105.769 33.6637 106.223 33.8587 106.593C34.0537 106.954 34.3121 107.232 34.6339 107.427C34.9556 107.622 35.3066 107.72 35.6869 107.72C36.1354 107.72 36.5255 107.607 36.857 107.383C37.1885 107.159 37.403 106.842 37.5005 106.432H39.124C38.9582 107.213 38.5682 107.841 37.9539 108.319C37.3396 108.797 36.584 109.036 35.6869 109.036ZM41.3277 108.86V98.3298H42.878V104.604L45.6569 101.606H47.5144L44.4283 104.897L47.9678 108.86H46.0079L42.878 105.145V108.86H41.3277ZM52.3679 109.036C51.4903 109.036 50.798 108.763 50.291 108.217C49.7937 107.671 49.5451 106.857 49.5451 105.774V101.606H51.0954V105.613C51.0954 107.018 51.6707 107.72 52.8212 107.72C53.3965 107.72 53.8694 107.515 54.2399 107.105C54.6105 106.696 54.7957 106.111 54.7957 105.35V101.606H56.346V108.86H54.9712L54.8542 107.588C54.63 108.036 54.2984 108.392 53.8597 108.656C53.4307 108.909 52.9334 109.036 52.3679 109.036ZM58.8406 112.078V101.606H60.23L60.3909 102.732C60.6249 102.391 60.9467 102.089 61.3562 101.825C61.7657 101.562 62.2922 101.43 62.9358 101.43C63.6378 101.43 64.257 101.596 64.7932 101.928C65.3295 102.259 65.7488 102.713 66.051 103.288C66.3631 103.863 66.5191 104.517 66.5191 105.248C66.5191 105.979 66.3631 106.632 66.051 107.208C65.7488 107.773 65.3295 108.222 64.7932 108.553C64.257 108.875 63.6329 109.036 62.9211 109.036C62.3556 109.036 61.8535 108.924 61.4147 108.699C60.9857 108.475 60.6444 108.158 60.3909 107.749V112.078H58.8406ZM62.6579 107.69C63.3209 107.69 63.8669 107.466 64.296 107.018C64.725 106.559 64.9395 105.964 64.9395 105.233C64.9395 104.755 64.842 104.331 64.647 103.961C64.452 103.59 64.1838 103.303 63.8426 103.098C63.5013 102.883 63.1064 102.776 62.6579 102.776C61.9948 102.776 61.4488 103.005 61.0198 103.463C60.6005 103.922 60.3909 104.512 60.3909 105.233C60.3909 105.964 60.6005 106.559 61.0198 107.018C61.4488 107.466 61.9948 107.69 62.6579 107.69ZM75.3827 109.036C74.7684 109.036 74.2614 108.933 73.8616 108.729C73.4618 108.524 73.1644 108.256 72.9694 107.924C72.7744 107.583 72.6769 107.213 72.6769 106.813C72.6769 106.111 72.9499 105.555 73.496 105.145C74.042 104.736 74.822 104.531 75.8361 104.531H77.7374V104.4C77.7374 103.834 77.5814 103.41 77.2694 103.127C76.9671 102.844 76.5722 102.703 76.0847 102.703C75.6557 102.703 75.2803 102.81 74.9585 103.025C74.6465 103.229 74.4564 103.537 74.3881 103.946H72.8378C72.8866 103.42 73.0621 102.971 73.3643 102.601C73.6763 102.22 74.0664 101.933 74.5344 101.738C75.0122 101.533 75.5338 101.43 76.0993 101.43C77.1134 101.43 77.8983 101.699 78.4541 102.235C79.0098 102.761 79.2877 103.483 79.2877 104.4V108.86H77.9422L77.8105 107.617C77.6058 108.017 77.3084 108.353 76.9184 108.626C76.5284 108.899 76.0165 109.036 75.3827 109.036ZM75.6898 107.778C76.1091 107.778 76.4601 107.681 76.7429 107.486C77.0354 107.281 77.2596 107.013 77.4156 106.681C77.5814 106.35 77.6838 105.984 77.7228 105.584H75.997C75.3827 105.584 74.9439 105.691 74.6806 105.906C74.4271 106.12 74.3004 106.389 74.3004 106.71C74.3004 107.042 74.4223 107.305 74.666 107.5C74.9195 107.685 75.2608 107.778 75.6898 107.778ZM84.517 108.86C83.8053 108.86 83.2397 108.69 82.8205 108.348C82.4012 107.997 82.1916 107.378 82.1916 106.491V102.908H80.9484V101.606H82.1916L82.3817 99.7632H83.7419V101.606H85.7895V102.908H83.7419V106.491C83.7419 106.891 83.8248 107.169 83.9905 107.325C84.166 107.471 84.4634 107.544 84.8827 107.544H85.7164V108.86H84.517ZM88.5247 108.948C88.2321 108.948 87.9884 108.855 87.7934 108.67C87.6081 108.475 87.5155 108.246 87.5155 107.983C87.5155 107.71 87.6081 107.481 87.7934 107.295C87.9884 107.1 88.2321 107.003 88.5247 107.003C88.8172 107.003 89.0561 107.1 89.2413 107.295C89.4266 107.481 89.5192 107.71 89.5192 107.983C89.5192 108.246 89.4266 108.475 89.2413 108.67C89.0561 108.855 88.8172 108.948 88.5247 108.948ZM88.5247 103.376C88.2321 103.376 87.9884 103.283 87.7934 103.098C87.6081 102.903 87.5155 102.674 87.5155 102.41C87.5155 102.137 87.6081 101.908 87.7934 101.723C87.9884 101.528 88.2321 101.43 88.5247 101.43C88.8172 101.43 89.0561 101.528 89.2413 101.723C89.4266 101.908 89.5192 102.137 89.5192 102.41C89.5192 102.674 89.4266 102.903 89.2413 103.098C89.0561 103.283 88.8172 103.376 88.5247 103.376Z" fill="#6A7079"/>
<path d="M99.3493 109.036C98.6765 109.036 98.1012 108.904 97.6234 108.641C97.1456 108.378 96.7703 108.027 96.4972 107.588C96.234 107.149 96.0731 106.671 96.0146 106.155H97.4625C97.5503 106.662 97.7599 107.052 98.0914 107.325C98.423 107.598 98.8471 107.734 99.3639 107.734C100.076 107.734 100.661 107.403 101.119 106.74C101.587 106.067 101.836 105.038 101.865 103.654C101.631 104.083 101.265 104.448 100.768 104.751C100.28 105.053 99.7149 105.204 99.0714 105.204C98.4961 105.204 97.9549 105.067 97.4479 104.794C96.9409 104.521 96.5314 104.141 96.2194 103.654C95.9073 103.156 95.7513 102.571 95.7513 101.899C95.7513 101.304 95.8976 100.743 96.1901 100.217C96.4826 99.69 96.8921 99.2659 97.4187 98.9441C97.9549 98.6126 98.5887 98.4469 99.32 98.4469C100.071 98.4469 100.705 98.5882 101.221 98.871C101.738 99.1538 102.153 99.5292 102.465 99.9972C102.777 100.465 103.001 100.992 103.137 101.577C103.284 102.162 103.357 102.761 103.357 103.376C103.357 104.507 103.196 105.496 102.874 106.345C102.562 107.193 102.109 107.856 101.514 108.334C100.919 108.802 100.198 109.036 99.3493 109.036ZM99.4224 103.873C99.8319 103.873 100.198 103.78 100.519 103.595C100.841 103.41 101.095 103.166 101.28 102.864C101.475 102.552 101.572 102.211 101.572 101.84C101.572 101.44 101.475 101.089 101.28 100.787C101.095 100.475 100.836 100.231 100.505 100.056C100.183 99.8802 99.8173 99.7924 99.4078 99.7924C98.9982 99.7924 98.6326 99.8802 98.3108 100.056C97.9891 100.231 97.7307 100.475 97.5357 100.787C97.3504 101.089 97.2578 101.435 97.2578 101.825C97.2578 102.449 97.4625 102.947 97.8721 103.317C98.2816 103.688 98.7983 103.873 99.4224 103.873ZM106.231 108.948C105.939 108.948 105.695 108.855 105.5 108.67C105.315 108.475 105.222 108.246 105.222 107.983C105.222 107.71 105.315 107.481 105.5 107.295C105.695 107.1 105.939 107.003 106.231 107.003C106.524 107.003 106.763 107.1 106.948 107.295C107.133 107.481 107.226 107.71 107.226 107.983C107.226 108.246 107.133 108.475 106.948 108.67C106.763 108.855 106.524 108.948 106.231 108.948ZM106.231 103.376C105.939 103.376 105.695 103.283 105.5 103.098C105.315 102.903 105.222 102.674 105.222 102.41C105.222 102.137 105.315 101.908 105.5 101.723C105.695 101.528 105.939 101.43 106.231 101.43C106.524 101.43 106.763 101.528 106.948 101.723C107.133 101.908 107.226 102.137 107.226 102.41C107.226 102.674 107.133 102.903 106.948 103.098C106.763 103.283 106.524 103.376 106.231 103.376ZM113.507 109.036C112.581 109.036 111.781 108.816 111.108 108.378C110.445 107.929 109.933 107.31 109.572 106.52C109.221 105.721 109.046 104.794 109.046 103.741C109.046 102.688 109.221 101.767 109.572 100.977C109.933 100.178 110.445 99.5584 111.108 99.1196C111.781 98.6711 112.581 98.4469 113.507 98.4469C114.433 98.4469 115.228 98.6711 115.891 99.1196C116.554 99.5584 117.061 100.178 117.412 100.977C117.773 101.767 117.953 102.688 117.953 103.741C117.953 104.794 117.773 105.721 117.412 106.52C117.061 107.31 116.554 107.929 115.891 108.378C115.228 108.816 114.433 109.036 113.507 109.036ZM113.507 107.646C114.063 107.646 114.555 107.49 114.984 107.178C115.423 106.866 115.764 106.418 116.008 105.833C116.252 105.248 116.373 104.551 116.373 103.741C116.373 102.932 116.252 102.235 116.008 101.65C115.764 101.065 115.423 100.616 114.984 100.304C114.555 99.9923 114.063 99.8363 113.507 99.8363C112.941 99.8363 112.444 99.9923 112.015 100.304C111.586 100.616 111.25 101.065 111.006 101.65C110.762 102.235 110.64 102.932 110.64 103.741C110.64 104.551 110.762 105.248 111.006 105.833C111.25 106.418 111.586 106.866 112.015 107.178C112.444 107.49 112.941 107.646 113.507 107.646ZM124.299 109.036C123.372 109.036 122.573 108.816 121.9 108.378C121.237 107.929 120.725 107.31 120.364 106.52C120.013 105.721 119.838 104.794 119.838 103.741C119.838 102.688 120.013 101.767 120.364 100.977C120.725 100.178 121.237 99.5584 121.9 99.1196C122.573 98.6711 123.372 98.4469 124.299 98.4469C125.225 98.4469 126.02 98.6711 126.683 99.1196C127.346 99.5584 127.853 100.178 128.204 100.977C128.564 101.767 128.745 102.688 128.745 103.741C128.745 104.794 128.564 105.721 128.204 106.52C127.853 107.31 127.346 107.929 126.683 108.378C126.02 108.816 125.225 109.036 124.299 109.036ZM124.299 107.646C124.854 107.646 125.347 107.49 125.776 107.178C126.215 106.866 126.556 106.418 126.8 105.833C127.043 105.248 127.165 104.551 127.165 103.741C127.165 102.932 127.043 102.235 126.8 101.65C126.556 101.065 126.215 100.616 125.776 100.304C125.347 99.9923 124.854 99.8363 124.299 99.8363C123.733 99.8363 123.236 99.9923 122.807 100.304C122.378 100.616 122.041 101.065 121.798 101.65C121.554 102.235 121.432 102.932 121.432 103.741C121.432 104.551 121.554 105.248 121.798 105.833C122.041 106.418 122.378 106.866 122.807 107.178C123.236 107.49 123.733 107.646 124.299 107.646ZM135.202 108.86V98.6224H138.786C139.585 98.6224 140.248 98.7589 140.775 99.0319C141.301 99.2951 141.691 99.6608 141.945 100.129C142.208 100.587 142.34 101.109 142.34 101.694C142.34 102.25 142.213 102.761 141.96 103.229C141.716 103.688 141.331 104.053 140.804 104.326C140.278 104.599 139.605 104.736 138.786 104.736H136.753V108.86H135.202ZM136.753 103.463H138.713C139.444 103.463 139.966 103.307 140.278 102.995C140.599 102.674 140.76 102.24 140.76 101.694C140.76 101.128 140.599 100.689 140.278 100.377C139.966 100.056 139.444 99.8948 138.713 99.8948H136.753V103.463ZM144.395 108.86V98.6224H146.223L149.689 105.438L153.141 98.6224H154.969V108.86H153.419V101.299L150.289 107.398H149.089L145.945 101.313V108.86H144.395Z" fill="#D8B448"/>
<line x1="17.8563" y1="134.142" x2="280.082" y2="134.142" stroke="#D4DCE7" stroke-width="1.04469" stroke-dasharray="5.22 5.22"/>
<path d="M20.7866 171.642C20.3479 171.642 19.93 171.59 19.533 171.485C19.1465 171.381 18.786 171.245 18.4517 171.078V169.087C18.7756 169.317 19.0838 169.511 19.3763 169.667C19.6793 169.814 19.9927 169.887 20.3165 169.887C20.8389 169.887 21.2358 169.756 21.5075 169.495C21.7895 169.234 21.9306 168.805 21.9306 168.21V161.017H24.0617V168.32C24.0617 168.978 23.9625 169.521 23.764 169.949C23.576 170.378 23.3252 170.717 23.0118 170.968C22.6984 171.219 22.3484 171.391 21.9619 171.485C21.5754 171.59 21.1836 171.642 20.7866 171.642ZM30.3148 171.704C29.0194 171.704 28.0478 171.344 27.4001 170.623C26.7524 169.902 26.4285 168.863 26.4285 167.505C26.4285 166.053 26.7576 164.997 27.4158 164.339C28.0844 163.681 29.0455 163.352 30.2991 163.352C31.1767 163.352 31.908 163.509 32.493 163.822C33.078 164.125 33.5116 164.585 33.7936 165.201C34.0861 165.818 34.2324 166.585 34.2324 167.505C34.2324 168.863 33.8929 169.902 33.2138 170.623C32.5452 171.344 31.5789 171.704 30.3148 171.704ZM30.3148 170.075C30.7745 170.075 31.1453 169.97 31.4274 169.761C31.7199 169.552 31.9341 169.26 32.0699 168.884C32.2057 168.497 32.2736 168.038 32.2736 167.505C32.2736 166.909 32.2005 166.423 32.0542 166.047C31.9184 165.671 31.7042 165.394 31.4117 165.217C31.1297 165.039 30.764 164.95 30.3148 164.95C29.8551 164.95 29.4843 165.044 29.2022 165.233C28.9201 165.421 28.7112 165.703 28.5754 166.079C28.45 166.455 28.3873 166.93 28.3873 167.505C28.3873 168.341 28.5388 168.978 28.8418 169.417C29.1447 169.855 29.6357 170.075 30.3148 170.075ZM36.5252 171.469V160.343H38.5154V164.935L37.7789 164.465C38.1968 164.141 38.6721 163.88 39.2049 163.681C39.7377 163.483 40.2705 163.383 40.8033 163.383C41.3987 163.383 41.9159 163.483 42.3546 163.681C42.7934 163.88 43.1329 164.204 43.3732 164.653C43.6239 165.092 43.7493 165.687 43.7493 166.439V171.469H41.7592V166.784C41.7592 166.199 41.6181 165.765 41.3361 165.483C41.0644 165.191 40.6518 165.044 40.0981 165.044C39.816 165.044 39.534 165.086 39.2519 165.17C38.9698 165.253 38.7243 165.358 38.5154 165.483L38.4997 171.469H36.5252ZM46.459 164.23C46.6784 164.125 46.9396 164.021 47.2425 163.916C47.5455 163.812 47.8746 163.723 48.2298 163.65C48.585 163.566 48.9402 163.504 49.2954 163.462C49.661 163.41 50.0057 163.383 50.3296 163.383C51.0609 163.383 51.6668 163.483 52.1474 163.681C52.6384 163.869 53.004 164.172 53.2443 164.59C53.495 164.997 53.6204 165.536 53.6204 166.204V171.469H51.6459V166.549C51.6459 166.35 51.6198 166.162 51.5676 165.985C51.5153 165.797 51.4265 165.635 51.3012 165.499C51.1758 165.353 51.0034 165.243 50.784 165.17C50.5647 165.086 50.2826 165.044 49.9378 165.044C49.6767 165.044 49.4103 165.071 49.1386 165.123C48.867 165.175 48.6372 165.243 48.4492 165.327V171.469H46.459V164.23ZM64.8814 171.704C64.3382 171.704 63.8211 171.642 63.3301 171.516C62.8391 171.391 62.4055 171.172 62.0294 170.858C61.6533 170.545 61.3556 170.111 61.1362 169.558C60.9273 169.004 60.8228 168.299 60.8228 167.442C60.8228 166.178 61.131 165.18 61.7474 164.449C62.3637 163.718 63.2987 163.352 64.5524 163.352C64.73 163.352 64.9598 163.373 65.2419 163.415C65.5239 163.457 65.8112 163.53 66.1037 163.634C66.4067 163.728 66.6679 163.88 66.8872 164.089L66.4485 164.715V160.296H68.4073V169.62C68.4073 169.975 68.3028 170.284 68.0939 170.545C67.8954 170.806 67.6238 171.025 67.279 171.203C66.9343 171.37 66.5529 171.495 66.1351 171.579C65.7172 171.663 65.2993 171.704 64.8814 171.704ZM64.9441 170.012C65.3724 170.012 65.7276 169.96 66.0097 169.855C66.3022 169.751 66.4485 169.599 66.4485 169.401V165.389C66.2186 165.253 65.9731 165.154 65.712 165.092C65.4508 165.029 65.2001 164.997 64.9598 164.997C64.4792 164.997 64.0822 165.086 63.7688 165.264C63.4554 165.431 63.2204 165.703 63.0637 166.079C62.907 166.444 62.8286 166.914 62.8286 167.489C62.8286 167.991 62.8913 168.429 63.0167 168.805C63.142 169.181 63.3562 169.479 63.6591 169.699C63.9726 169.908 64.4009 170.012 64.9441 170.012ZM74.5816 171.704C73.2862 171.704 72.3146 171.344 71.6669 170.623C71.0192 169.902 70.6954 168.863 70.6954 167.505C70.6954 166.053 71.0244 164.997 71.6826 164.339C72.3512 163.681 73.3123 163.352 74.5659 163.352C75.4435 163.352 76.1748 163.509 76.7598 163.822C77.3448 164.125 77.7784 164.585 78.0604 165.201C78.353 165.818 78.4992 166.585 78.4992 167.505C78.4992 168.863 78.1597 169.902 77.4806 170.623C76.812 171.344 75.8457 171.704 74.5816 171.704ZM74.5816 170.075C75.0413 170.075 75.4121 169.97 75.6942 169.761C75.9867 169.552 76.2009 169.26 76.3367 168.884C76.4725 168.497 76.5404 168.038 76.5404 167.505C76.5404 166.909 76.4673 166.423 76.321 166.047C76.1852 165.671 75.9711 165.394 75.6785 165.217C75.3965 165.039 75.0308 164.95 74.5816 164.95C74.1219 164.95 73.7511 165.044 73.469 165.233C73.1869 165.421 72.978 165.703 72.8422 166.079C72.7168 166.455 72.6542 166.93 72.6542 167.505C72.6542 168.341 72.8056 168.978 73.1086 169.417C73.4116 169.855 73.9026 170.075 74.5816 170.075ZM84.2709 171.704C83.4874 171.704 82.8031 171.548 82.2181 171.234C81.633 170.91 81.1786 170.44 80.8547 169.824C80.5309 169.208 80.369 168.466 80.369 167.599C80.369 166.22 80.698 165.17 81.3562 164.449C82.0248 163.718 82.9598 163.352 84.1612 163.352C85.0283 163.352 85.723 163.54 86.2454 163.916C86.7782 164.292 87.1647 164.83 87.405 165.53C87.6557 166.22 87.7758 167.045 87.7654 168.006H81.6539L81.4972 166.659H86.1827L85.8066 167.223C85.7857 166.397 85.6394 165.807 85.3678 165.452C85.1066 165.086 84.6835 164.903 84.0985 164.903C83.7433 164.903 83.4299 164.987 83.1583 165.154C82.8971 165.311 82.6934 165.577 82.5471 165.953C82.4113 166.329 82.3434 166.847 82.3434 167.505C82.3434 168.32 82.5367 168.946 82.9232 169.385C83.3098 169.814 83.9 170.028 84.694 170.028C85.0178 170.028 85.326 169.996 85.6185 169.934C85.9215 169.861 86.1983 169.777 86.4491 169.683C86.7102 169.589 86.9296 169.5 87.1072 169.417V171.172C86.7416 171.328 86.3237 171.454 85.8536 171.548C85.3939 171.652 84.8664 171.704 84.2709 171.704Z" fill="#354356"/>
<rect x="17.8561" y="186.9" width="40.743" height="20.8939" rx="4.17877" fill="#ECF0F8"/>
<path fill-rule="evenodd" clip-rule="evenodd" d="M32.6558 193.69C32.6558 193.741 32.6527 193.792 32.6465 193.841C34.754 194.379 36.3123 196.29 36.3123 198.565V199.175C36.3123 199.511 36.0394 199.784 35.7029 199.784H27.1712C26.8346 199.784 26.5618 199.511 26.5618 199.175V198.565C26.5618 196.29 28.1201 194.379 30.2275 193.841C30.2214 193.792 30.2182 193.741 30.2182 193.69C30.2182 193.017 30.7639 192.471 31.437 192.471C32.1102 192.471 32.6558 193.017 32.6558 193.69Z" fill="#EDCC3E"/>
<path d="M25.9524 201.003C25.6158 201.003 25.343 201.276 25.343 201.612C25.343 201.949 25.6158 202.222 25.9524 202.222H36.9217C37.2582 202.222 37.5311 201.949 37.5311 201.612C37.5311 201.276 37.2582 201.003 36.9217 201.003H25.9524Z" fill="#EDCC3E"/>
<path d="M44.6143 202.9V201.452C44.9458 201.237 45.3114 200.979 45.7112 200.676C46.1207 200.364 46.5205 200.023 46.9105 199.653C47.3103 199.272 47.671 198.882 47.9928 198.483C48.3243 198.073 48.5876 197.668 48.7826 197.269C48.9873 196.869 49.0897 196.489 49.0897 196.128C49.0897 195.806 49.0215 195.533 48.885 195.309C48.7485 195.075 48.5388 194.894 48.2561 194.768C47.983 194.641 47.6418 194.578 47.2323 194.578C46.7252 194.578 46.267 194.68 45.8574 194.885C45.4479 195.089 45.0628 195.328 44.702 195.601V193.832C45.0725 193.607 45.5064 193.407 46.0037 193.232C46.501 193.056 47.086 192.969 47.7588 192.969C48.4998 192.969 49.1141 193.095 49.6016 193.349C50.0989 193.593 50.4694 193.934 50.7132 194.373C50.9569 194.812 51.0788 195.319 51.0788 195.894C51.0788 196.352 50.9813 196.796 50.7863 197.225C50.5913 197.654 50.3329 198.068 50.0111 198.468C49.6991 198.868 49.3481 199.248 48.9581 199.609C48.5778 199.96 48.1927 200.291 47.8027 200.603C47.4126 200.906 47.0519 201.179 46.7204 201.422L46.2962 201.057H51.2543V202.9H44.6143Z" fill="#354356"/>
<rect x="64.8672" y="186.9" width="40.743" height="20.8939" rx="4.17877" fill="#ECF0F8"/>
<path fill-rule="evenodd" clip-rule="evenodd" d="M74.1825 191.252C73.8459 191.252 73.5731 191.525 73.5731 191.862C73.5731 193.194 74.1023 194.472 75.0443 195.414L77.8389 198.208V202.222H76.0107C75.6741 202.222 75.4013 202.494 75.4013 202.831C75.4013 203.168 75.6741 203.44 76.0107 203.44H80.8859C81.2225 203.44 81.4953 203.168 81.4953 202.831C81.4953 202.494 81.2225 202.222 80.8859 202.222H79.0577V198.208L81.8523 195.414C82.7943 194.472 83.3235 193.194 83.3235 191.862C83.3235 191.525 83.0507 191.252 82.7141 191.252H74.1825Z" fill="#EDCC3E"/>
<path d="M95.5121 202.9V195.089L93.6108 196.216V194.358L95.673 193.144H97.5012V202.9H95.5121Z" fill="#354356"/>
<g filter="url(#filter0_d_2220_3001)">
<rect x="17.8563" y="237.045" width="262.226" height="39.8177" rx="8.65603" fill="#6894D9" shape-rendering="crispEdges"/>
<path d="M79.6826 261.596C78.8256 261.596 78.0942 261.432 77.4883 261.103C76.891 260.774 76.4366 260.281 76.1249 259.623C75.8133 258.965 75.6575 258.134 75.6575 257.13C75.6575 255.65 75.9994 254.533 76.6833 253.78C77.3757 253.027 78.3755 252.65 79.6826 252.65C80.5482 252.65 81.2796 252.815 81.8769 253.144C82.4741 253.473 82.9286 253.97 83.2402 254.637C83.5605 255.295 83.7206 256.126 83.7206 257.13C83.7206 258.601 83.3744 259.714 82.6819 260.467C81.9981 261.22 80.9983 261.596 79.6826 261.596ZM79.6826 260.363C80.2625 260.363 80.7386 260.255 81.1108 260.038C81.4917 259.813 81.773 259.463 81.9548 258.987C82.1452 258.51 82.2404 257.887 82.2404 257.117C82.2404 256.355 82.1452 255.741 81.9548 255.273C81.773 254.797 81.4917 254.451 81.1108 254.234C80.7386 254.009 80.2625 253.897 79.6826 253.897C79.1113 253.897 78.6352 254.009 78.2543 254.234C77.8735 254.459 77.5878 254.81 77.3974 255.286C77.2156 255.753 77.1247 256.368 77.1247 257.13C77.1247 257.892 77.2156 258.51 77.3974 258.987C77.5878 259.463 77.8735 259.813 78.2543 260.038C78.6352 260.255 79.1113 260.363 79.6826 260.363ZM85.8489 261.453V252.793H89.6922C90.5924 252.793 91.2806 253.014 91.7567 253.455C92.2414 253.888 92.4838 254.537 92.4838 255.403C92.4838 255.853 92.3929 256.269 92.2111 256.649C92.0293 257.03 91.7653 257.342 91.4191 257.584C91.0728 257.827 90.6617 257.965 90.1856 258L90.3414 257.558L92.9123 261.453H91.1334L88.7314 257.571L89.3936 258.182H87.2772V261.453H85.8489ZM87.2772 257.013H89.2897C89.861 257.013 90.2851 256.887 90.5621 256.636C90.8478 256.385 90.9906 256.005 90.9906 255.494C90.9906 255.018 90.8781 254.65 90.653 254.39C90.4366 254.13 90.0601 254.001 89.5234 254.001H87.2772V257.013ZM94.9166 261.453V252.793H97.9549C99.3572 252.793 100.4 253.157 101.084 253.884C101.768 254.611 102.11 255.689 102.11 257.117C102.11 258.545 101.768 259.627 101.084 260.363C100.4 261.09 99.3572 261.453 97.9549 261.453H94.9166ZM96.3449 260.246H97.8121C98.7815 260.246 99.4957 259.999 99.9544 259.506C100.413 259.004 100.643 258.207 100.643 257.117C100.643 256.035 100.413 255.243 99.9544 254.741C99.4957 254.239 98.7815 253.988 97.8121 253.988H96.3449V260.246ZM104.251 261.453V252.793H109.925V254.001H105.692V256.507H109.379V257.727H105.679V260.246H109.925V261.453H104.251ZM112.291 261.453V252.793H116.135C117.035 252.793 117.723 253.014 118.199 253.455C118.684 253.888 118.926 254.537 118.926 255.403C118.926 255.853 118.835 256.269 118.653 256.649C118.472 257.03 118.208 257.342 117.861 257.584C117.515 257.827 117.104 257.965 116.628 258L116.784 257.558L119.355 261.453H117.576L115.174 257.571L115.836 258.182H113.719V261.453H112.291ZM113.719 257.013H115.732C116.303 257.013 116.727 256.887 117.004 256.636C117.29 256.385 117.433 256.005 117.433 255.494C117.433 255.018 117.32 254.65 117.095 254.39C116.879 254.13 116.502 254.001 115.966 254.001H113.719V257.013ZM125.482 261.453V252.793H129.325C130.225 252.793 130.913 253.014 131.389 253.455C131.874 253.888 132.116 254.537 132.116 255.403C132.116 255.853 132.025 256.269 131.844 256.649C131.662 257.03 131.398 257.342 131.052 257.584C130.705 257.827 130.294 257.965 129.818 258L129.974 257.558L132.545 261.453H130.766L128.364 257.571L129.026 258.182H126.91V261.453H125.482ZM126.91 257.013H128.922C129.494 257.013 129.918 256.887 130.195 256.636C130.48 256.385 130.623 256.005 130.623 255.494C130.623 255.018 130.511 254.65 130.286 254.39C130.069 254.13 129.693 254.001 129.156 254.001H126.91V257.013ZM134.549 261.453V252.793H140.223V254.001H135.99V256.507H139.678V257.727H135.977V260.246H140.223V261.453H134.549ZM141.785 261.453L145.161 252.793H146.68L149.965 261.453H148.459L145.563 253.494L146.109 253.442L143.213 261.453H141.785ZM143.447 259.103L143.862 257.935H147.978L148.095 259.103H143.447ZM151.645 261.453V252.793H154.683C156.085 252.793 157.128 253.157 157.812 253.884C158.496 254.611 158.838 255.689 158.838 257.117C158.838 258.545 158.496 259.627 157.812 260.363C157.128 261.09 156.085 261.453 154.683 261.453H151.645ZM153.073 260.246H154.54C155.51 260.246 156.224 259.999 156.683 259.506C157.141 259.004 157.371 258.207 157.371 257.117C157.371 256.035 157.141 255.243 156.683 254.741C156.224 254.239 155.51 253.988 154.54 253.988H153.073V260.246ZM163.42 261.453V257.571L160.161 252.793H161.914L164.536 256.883L163.952 256.831L166.445 252.793H167.99L164.627 257.922L164.848 257.117V261.453H163.42ZM175.411 262.921C175.195 262.6 174.957 262.172 174.697 261.635C174.437 261.099 174.217 260.48 174.035 259.779C173.862 259.077 173.775 258.316 173.775 257.493C173.775 256.662 173.862 255.896 174.035 255.195C174.217 254.485 174.437 253.862 174.697 253.325C174.957 252.789 175.195 252.365 175.411 252.053H176.671C176.575 252.218 176.446 252.473 176.281 252.819C176.125 253.157 175.965 253.564 175.801 254.04C175.636 254.507 175.498 255.035 175.385 255.624C175.273 256.204 175.216 256.827 175.216 257.493C175.216 258.151 175.273 258.774 175.385 259.363C175.498 259.943 175.636 260.471 175.801 260.947C175.965 261.423 176.125 261.826 176.281 262.155C176.446 262.492 176.575 262.748 176.671 262.921H175.411ZM181.994 261.609C180.799 261.609 179.908 261.237 179.319 260.493C178.73 259.748 178.436 258.632 178.436 257.143C178.436 255.663 178.73 254.55 179.319 253.806C179.908 253.053 180.799 252.676 181.994 252.676C183.205 252.676 184.101 253.053 184.681 253.806C185.27 254.55 185.564 255.663 185.564 257.143C185.564 258.632 185.27 259.748 184.681 260.493C184.101 261.237 183.205 261.609 181.994 261.609ZM181.994 260.389C182.245 260.389 182.496 260.354 182.747 260.285C182.998 260.207 183.227 260.06 183.435 259.843C183.643 259.618 183.807 259.294 183.928 258.87C184.058 258.437 184.123 257.861 184.123 257.143C184.123 256.433 184.058 255.862 183.928 255.429C183.807 254.996 183.643 254.671 183.435 254.455C183.227 254.239 182.998 254.092 182.747 254.014C182.496 253.936 182.245 253.897 181.994 253.897C181.751 253.897 181.505 253.936 181.254 254.014C181.002 254.092 180.773 254.239 180.565 254.455C180.358 254.671 180.189 254.996 180.059 255.429C179.938 255.862 179.877 256.433 179.877 257.143C179.877 257.861 179.938 258.437 180.059 258.87C180.189 259.294 180.358 259.618 180.565 259.843C180.773 260.06 181.002 260.207 181.254 260.285C181.505 260.354 181.751 260.389 181.994 260.389ZM190.935 261.609C189.74 261.609 188.848 261.237 188.26 260.493C187.671 259.748 187.377 258.632 187.377 257.143C187.377 255.663 187.671 254.55 188.26 253.806C188.848 253.053 189.74 252.676 190.935 252.676C192.146 252.676 193.042 253.053 193.622 253.806C194.211 254.55 194.505 255.663 194.505 257.143C194.505 258.632 194.211 259.748 193.622 260.493C193.042 261.237 192.146 261.609 190.935 261.609ZM190.935 260.389C191.186 260.389 191.437 260.354 191.688 260.285C191.939 260.207 192.168 260.06 192.376 259.843C192.583 259.618 192.748 259.294 192.869 258.87C192.999 258.437 193.064 257.861 193.064 257.143C193.064 256.433 192.999 255.862 192.869 255.429C192.748 254.996 192.583 254.671 192.376 254.455C192.168 254.239 191.939 254.092 191.688 254.014C191.437 253.936 191.186 253.897 190.935 253.897C190.692 253.897 190.445 253.936 190.194 254.014C189.943 254.092 189.714 254.239 189.506 254.455C189.299 254.671 189.13 254.996 189 255.429C188.879 255.862 188.818 256.433 188.818 257.143C188.818 257.861 188.879 258.437 189 258.87C189.13 259.294 189.299 259.618 189.506 259.843C189.714 260.06 189.943 260.207 190.194 260.285C190.445 260.354 190.692 260.389 190.935 260.389ZM197.603 256.831V255.572H198.889V256.831H197.603ZM197.603 260.882V259.623H198.889V260.882H197.603ZM205.013 261.583C204.442 261.583 203.944 261.523 203.52 261.402C203.096 261.272 202.754 261.129 202.494 260.973V259.584C202.624 259.688 202.802 259.8 203.027 259.921C203.252 260.034 203.52 260.129 203.832 260.207C204.143 260.285 204.49 260.324 204.87 260.324C205.234 260.324 205.533 260.281 205.766 260.194C206.009 260.099 206.195 259.978 206.325 259.83C206.454 259.675 206.545 259.506 206.597 259.324C206.649 259.134 206.675 258.943 206.675 258.753C206.675 258.303 206.593 257.965 206.428 257.74C206.273 257.515 206.065 257.364 205.805 257.286C205.546 257.208 205.269 257.169 204.974 257.169C204.602 257.169 204.277 257.199 204 257.26C203.732 257.312 203.52 257.372 203.364 257.441C203.217 257.502 203.131 257.541 203.105 257.558L202.364 256.779L202.858 252.793H207.506V254.092H203.884L203.611 256.714L202.481 256.61C202.819 256.359 203.226 256.173 203.702 256.052C204.187 255.931 204.706 255.87 205.26 255.87C205.597 255.87 205.935 255.918 206.273 256.013C206.619 256.1 206.931 256.247 207.207 256.455C207.484 256.662 207.705 256.948 207.87 257.312C208.034 257.675 208.116 258.13 208.116 258.675C208.116 259.264 208.025 259.748 207.844 260.129C207.671 260.501 207.433 260.796 207.13 261.012C206.827 261.22 206.489 261.367 206.117 261.453C205.753 261.54 205.385 261.583 205.013 261.583ZM212.238 261.583C211.909 261.583 211.614 261.557 211.355 261.505C211.104 261.462 210.887 261.41 210.706 261.35V260.09C210.913 260.168 211.13 260.233 211.355 260.285C211.58 260.328 211.831 260.35 212.108 260.35C212.316 260.35 212.545 260.32 212.796 260.259C213.047 260.198 213.294 260.099 213.536 259.96C213.778 259.813 214.003 259.618 214.211 259.376C214.419 259.125 214.583 258.813 214.705 258.441C214.826 258.06 214.886 257.61 214.886 257.091C214.886 256.407 214.843 255.853 214.757 255.429C214.67 255.005 214.544 254.684 214.38 254.468C214.216 254.243 214.025 254.092 213.809 254.014C213.592 253.936 213.354 253.897 213.095 253.897C212.731 253.897 212.437 253.962 212.212 254.092C211.987 254.213 211.818 254.364 211.705 254.546C211.593 254.728 211.515 254.918 211.472 255.117C211.428 255.308 211.407 255.468 211.407 255.598C211.407 256.126 211.554 256.528 211.848 256.805C212.142 257.082 212.558 257.221 213.095 257.221C213.449 257.221 213.752 257.169 214.003 257.065C214.263 256.952 214.475 256.818 214.64 256.662C214.813 256.498 214.934 256.333 215.003 256.169L215.198 257.143C215.129 257.247 215.029 257.372 214.899 257.519C214.778 257.658 214.622 257.792 214.432 257.922C214.242 258.052 214.021 258.16 213.77 258.246C213.519 258.333 213.242 258.376 212.939 258.376C211.987 258.376 211.251 258.134 210.732 257.649C210.221 257.156 209.965 256.468 209.965 255.585C209.965 255.204 210.026 254.84 210.147 254.494C210.268 254.148 210.459 253.836 210.719 253.559C210.978 253.282 211.303 253.061 211.692 252.897C212.082 252.733 212.549 252.65 213.095 252.65C214.203 252.65 215.016 252.997 215.536 253.689C216.064 254.382 216.328 255.403 216.328 256.753C216.328 257.619 216.228 258.346 216.029 258.935C215.83 259.515 215.57 259.982 215.25 260.337C214.938 260.683 214.601 260.947 214.237 261.129C213.874 261.302 213.514 261.419 213.16 261.479C212.805 261.549 212.497 261.583 212.238 261.583ZM218.182 262.921C218.277 262.756 218.403 262.501 218.558 262.155C218.723 261.817 218.887 261.415 219.052 260.947C219.216 260.471 219.355 259.939 219.467 259.35C219.58 258.761 219.636 258.138 219.636 257.48C219.636 256.823 219.58 256.204 219.467 255.624C219.355 255.035 219.216 254.503 219.052 254.027C218.887 253.551 218.723 253.148 218.558 252.819C218.403 252.482 218.277 252.226 218.182 252.053H219.441C219.675 252.373 219.917 252.802 220.168 253.338C220.419 253.875 220.636 254.494 220.818 255.195C220.999 255.896 221.09 256.658 221.09 257.48C221.09 258.303 220.999 259.069 220.818 259.779C220.636 260.488 220.419 261.107 220.168 261.635C219.917 262.172 219.675 262.6 219.441 262.921H218.182Z" fill="white"/>
<path d="M216.028 237.045H271.427C276.207 237.045 280.083 240.92 280.083 245.701V268.206C280.083 272.987 276.207 276.862 271.427 276.862H216.028V237.045Z" fill="white" fill-opacity="0.55"/>
</g>
<g filter="url(#filter1_d_2220_3001)">
<path d="M153.17 299.096C151.733 297.635 149.378 297.635 147.942 299.096L134.695 312.567H22.1843C13.1887 312.567 8.69091 312.567 5.48047 314.761C4.19065 315.643 3.07637 316.757 2.19464 318.047C-3.05176e-05 321.258 -3.05176e-05 325.755 -3.05176e-05 334.751C-3.05176e-05 343.747 -3.05176e-05 348.244 2.19464 351.455C3.07637 352.745 4.19065 353.859 5.48047 354.741C8.69091 356.935 13.1887 356.935 22.1843 356.935H279.732C288.727 356.935 293.225 356.935 296.436 354.741C297.725 353.859 298.84 352.745 299.721 351.455C301.916 348.244 301.916 343.747 301.916 334.751C301.916 325.755 301.916 321.258 299.721 318.047C298.84 316.757 297.725 315.643 296.436 314.761C293.225 312.567 288.727 312.567 279.732 312.567H166.416L153.17 299.096Z" fill="#97B0D7"/>
<path d="M152.062 304.91C151.748 304.625 151.22 304.454 150.655 304.454C150.09 304.454 149.562 304.625 149.248 304.91L142.485 311.056C142.139 311.371 142.107 311.775 142.401 312.108C142.695 312.441 143.268 312.649 143.892 312.649H157.418C158.041 312.649 158.614 312.441 158.908 312.108C159.203 311.775 159.17 311.371 158.825 311.056L152.062 304.91Z" fill="white"/>
<path d="M151.394 316.01C151.23 315.861 150.954 315.771 150.658 315.771C150.361 315.771 150.085 315.861 149.921 316.01L146.378 319.23C146.197 319.394 146.18 319.606 146.334 319.78C146.488 319.955 146.788 320.064 147.115 320.064H154.2C154.527 320.064 154.827 319.955 154.981 319.78C155.135 319.606 155.118 319.394 154.937 319.23L151.394 316.01Z" fill="white"/>
</g>
<path d="M90.7095 340V336.314L87.5504 331.638H89.644L92.1011 335.612L91.3489 335.587L93.643 331.638H95.3981L92.1638 336.741L92.4145 335.813V340H90.7095ZM98.2619 340.188C97.2255 340.188 96.4483 339.9 95.9301 339.323C95.4119 338.746 95.1529 337.915 95.1529 336.828C95.1529 335.667 95.4161 334.823 95.9426 334.296C96.4775 333.769 97.2464 333.506 98.2493 333.506C98.9514 333.506 99.5364 333.632 100.004 333.882C100.472 334.125 100.819 334.492 101.045 334.985C101.279 335.479 101.396 336.093 101.396 336.828C101.396 337.915 101.124 338.746 100.581 339.323C100.046 339.9 99.2731 340.188 98.2619 340.188ZM98.2619 338.884C98.6296 338.884 98.9263 338.801 99.1519 338.634C99.386 338.466 99.5573 338.232 99.6659 337.932C99.7746 337.622 99.8289 337.255 99.8289 336.828C99.8289 336.352 99.7704 335.963 99.6534 335.662C99.5447 335.362 99.3734 335.14 99.1394 334.998C98.9138 334.856 98.6212 334.785 98.2619 334.785C97.8941 334.785 97.5974 334.86 97.3718 335.011C97.1461 335.161 96.979 335.387 96.8703 335.688C96.77 335.988 96.7199 336.369 96.7199 336.828C96.7199 337.497 96.8411 338.007 97.0835 338.358C97.3258 338.709 97.7186 338.884 98.2619 338.884ZM105.958 340.188C105.373 340.188 104.863 340.096 104.428 339.912C104.002 339.72 103.668 339.436 103.425 339.06C103.191 338.684 103.074 338.203 103.074 337.618V333.682H104.666V337.455C104.666 337.923 104.771 338.27 104.98 338.496C105.189 338.721 105.515 338.834 105.958 338.834C106.417 338.834 106.747 338.721 106.948 338.496C107.157 338.27 107.261 337.923 107.261 337.455V333.682H108.766V337.618C108.766 338.487 108.515 339.135 108.014 339.561C107.52 339.979 106.835 340.188 105.958 340.188ZM114.555 340V331.099H116.147V334.772L115.558 334.396C115.892 334.137 116.272 333.928 116.699 333.769C117.125 333.611 117.551 333.531 117.977 333.531C118.454 333.531 118.867 333.611 119.219 333.769C119.57 333.928 119.841 334.187 120.033 334.547C120.234 334.898 120.334 335.374 120.334 335.976V340H118.742V336.252C118.742 335.784 118.629 335.437 118.404 335.211C118.186 334.977 117.856 334.86 117.413 334.86C117.188 334.86 116.962 334.894 116.736 334.96C116.511 335.027 116.314 335.111 116.147 335.211L116.135 340H114.555ZM124.703 340.188C124.352 340.188 124.018 340.155 123.7 340.088C123.382 340.021 123.098 339.912 122.847 339.762C122.597 339.603 122.396 339.39 122.246 339.122C122.104 338.847 122.033 338.504 122.033 338.094C122.033 337.668 122.12 337.309 122.296 337.016C122.471 336.715 122.726 336.49 123.061 336.339C123.403 336.181 123.821 336.101 124.314 336.101C124.615 336.101 124.895 336.13 125.154 336.189C125.413 336.239 125.647 336.31 125.856 336.402C126.065 336.494 126.236 336.594 126.37 336.703L126.483 337.593C126.307 337.476 126.082 337.384 125.806 337.317C125.539 337.242 125.246 337.204 124.928 337.204C124.486 337.204 124.155 337.275 123.938 337.418C123.721 337.56 123.612 337.781 123.612 338.082C123.612 338.291 123.671 338.466 123.788 338.608C123.905 338.742 124.055 338.847 124.239 338.922C124.423 338.989 124.615 339.022 124.816 339.022C125.275 339.022 125.605 338.993 125.806 338.934C126.015 338.868 126.119 338.73 126.119 338.521V336.026C126.119 335.616 125.99 335.32 125.731 335.136C125.472 334.944 125.108 334.848 124.64 334.848C124.281 334.848 123.913 334.91 123.537 335.036C123.161 335.153 122.856 335.307 122.622 335.499V334.058C122.847 333.916 123.186 333.79 123.637 333.682C124.089 333.573 124.573 333.519 125.091 333.519C125.309 333.519 125.539 333.54 125.781 333.581C126.023 333.623 126.253 333.69 126.47 333.782C126.696 333.874 126.901 334.003 127.085 334.171C127.269 334.329 127.415 334.534 127.523 334.785C127.632 335.027 127.686 335.324 127.686 335.675V338.671C127.686 339.064 127.561 339.373 127.31 339.599C127.06 339.816 126.713 339.967 126.27 340.05C125.827 340.142 125.305 340.188 124.703 340.188ZM131.484 340L128.839 333.682H130.544L132.588 338.746L132.199 338.771L134.067 333.682H135.722L133.076 340H131.484ZM139.597 340.188C138.97 340.188 138.423 340.063 137.955 339.812C137.487 339.553 137.123 339.177 136.864 338.684C136.605 338.191 136.475 337.597 136.475 336.904C136.475 335.8 136.739 334.96 137.265 334.384C137.8 333.799 138.548 333.506 139.509 333.506C140.203 333.506 140.759 333.657 141.177 333.957C141.603 334.258 141.912 334.689 142.104 335.249C142.305 335.8 142.401 336.461 142.393 337.229H137.503L137.378 336.151H141.126L140.826 336.603C140.809 335.942 140.692 335.47 140.475 335.186C140.266 334.894 139.927 334.747 139.459 334.747C139.175 334.747 138.924 334.814 138.707 334.948C138.498 335.073 138.335 335.286 138.218 335.587C138.109 335.888 138.055 336.302 138.055 336.828C138.055 337.48 138.21 337.982 138.519 338.333C138.828 338.675 139.3 338.847 139.935 338.847C140.195 338.847 140.441 338.822 140.675 338.771C140.917 338.713 141.139 338.646 141.34 338.571C141.548 338.496 141.724 338.425 141.866 338.358V339.762C141.574 339.887 141.239 339.987 140.863 340.063C140.495 340.146 140.073 340.188 139.597 340.188ZM149.484 340V333.306L147.855 334.271V332.679L149.622 331.638H151.189V340H149.484ZM157.682 334.208C157.858 334.125 158.066 334.041 158.309 333.957C158.551 333.874 158.814 333.803 159.099 333.744C159.383 333.678 159.667 333.627 159.951 333.594C160.244 333.552 160.519 333.531 160.778 333.531C161.364 333.531 161.848 333.611 162.233 333.769C162.625 333.92 162.918 334.162 163.11 334.497C163.311 334.823 163.411 335.253 163.411 335.788V340H161.832V336.064C161.832 335.905 161.811 335.754 161.769 335.612C161.727 335.462 161.656 335.332 161.556 335.224C161.455 335.107 161.318 335.019 161.142 334.96C160.967 334.894 160.741 334.86 160.465 334.86C160.256 334.86 160.043 334.881 159.826 334.923C159.608 334.965 159.425 335.019 159.274 335.086V340H157.682V334.208ZM168.207 340.188C167.58 340.188 167.033 340.063 166.565 339.812C166.097 339.553 165.733 339.177 165.474 338.684C165.215 338.191 165.086 337.597 165.086 336.904C165.086 335.8 165.349 334.96 165.875 334.384C166.41 333.799 167.158 333.506 168.119 333.506C168.813 333.506 169.369 333.657 169.787 333.957C170.213 334.258 170.522 334.689 170.714 335.249C170.915 335.8 171.011 336.461 171.003 337.229H166.114L165.988 336.151H169.737L169.436 336.603C169.419 335.942 169.302 335.47 169.085 335.186C168.876 334.894 168.537 334.747 168.069 334.747C167.785 334.747 167.534 334.814 167.317 334.948C167.108 335.073 166.945 335.286 166.828 335.587C166.719 335.888 166.665 336.302 166.665 336.828C166.665 337.48 166.82 337.982 167.129 338.333C167.438 338.675 167.91 338.847 168.546 338.847C168.805 338.847 169.051 338.822 169.285 338.771C169.528 338.713 169.749 338.646 169.95 338.571C170.159 338.496 170.334 338.425 170.476 338.358V339.762C170.184 339.887 169.849 339.987 169.473 340.063C169.106 340.146 168.683 340.188 168.207 340.188ZM174.244 340L172.138 333.682H173.843L175.347 338.934L174.858 338.985L176.3 333.682H177.528L178.945 338.834H178.556L180.035 333.682H181.69L179.584 340H178.13L176.751 335.487L177.027 335.562L175.71 340H174.244ZM189.731 340.188C188.695 340.188 187.918 339.9 187.399 339.323C186.881 338.746 186.622 337.915 186.622 336.828C186.622 335.667 186.885 334.823 187.412 334.296C187.947 333.769 188.716 333.506 189.719 333.506C190.421 333.506 191.006 333.632 191.474 333.882C191.942 334.125 192.289 334.492 192.514 334.985C192.748 335.479 192.865 336.093 192.865 336.828C192.865 337.915 192.594 338.746 192.05 339.323C191.516 339.9 190.742 340.188 189.731 340.188ZM189.731 338.884C190.099 338.884 190.396 338.801 190.621 338.634C190.855 338.466 191.027 338.232 191.135 337.932C191.244 337.622 191.298 337.255 191.298 336.828C191.298 336.352 191.24 335.963 191.123 335.662C191.014 335.362 190.843 335.14 190.609 334.998C190.383 334.856 190.091 334.785 189.731 334.785C189.363 334.785 189.067 334.86 188.841 335.011C188.615 335.161 188.448 335.387 188.34 335.688C188.239 335.988 188.189 336.369 188.189 336.828C188.189 337.497 188.31 338.007 188.553 338.358C188.795 338.709 189.188 338.884 189.731 338.884ZM194.544 340V334.296C194.661 334.221 194.865 334.12 195.158 333.995C195.459 333.87 195.806 333.761 196.198 333.669C196.591 333.569 196.988 333.519 197.389 333.519C197.69 333.519 197.928 333.544 198.104 333.594C198.288 333.636 198.43 333.69 198.53 333.757V334.96C198.363 334.935 198.171 334.914 197.953 334.898C197.744 334.881 197.527 334.877 197.302 334.885C197.084 334.885 196.871 334.894 196.662 334.91C196.462 334.927 196.286 334.948 196.136 334.973V340H194.544ZM202.611 340.188C202.176 340.188 201.763 340.138 201.37 340.038C200.977 339.937 200.63 339.762 200.329 339.511C200.028 339.26 199.79 338.914 199.615 338.471C199.448 338.028 199.364 337.463 199.364 336.778C199.364 335.767 199.61 334.969 200.104 334.384C200.597 333.799 201.345 333.506 202.348 333.506C202.49 333.506 202.674 333.523 202.899 333.556C203.125 333.59 203.355 333.648 203.589 333.732C203.831 333.807 204.04 333.928 204.215 334.095L203.864 334.597V331.062H205.432V338.521C205.432 338.805 205.348 339.051 205.181 339.26C205.022 339.469 204.805 339.645 204.529 339.787C204.253 339.921 203.948 340.021 203.614 340.088C203.279 340.155 202.945 340.188 202.611 340.188ZM202.661 338.834C203.004 338.834 203.288 338.792 203.513 338.709C203.747 338.625 203.864 338.504 203.864 338.345V335.136C203.681 335.027 203.484 334.948 203.275 334.898C203.066 334.848 202.866 334.823 202.674 334.823C202.289 334.823 201.971 334.894 201.721 335.036C201.47 335.169 201.282 335.387 201.157 335.688C201.031 335.98 200.969 336.356 200.969 336.816C200.969 337.217 201.019 337.568 201.119 337.869C201.219 338.17 201.391 338.408 201.633 338.583C201.884 338.751 202.226 338.834 202.661 338.834ZM210.228 340.188C209.601 340.188 209.053 340.063 208.585 339.812C208.117 339.553 207.754 339.177 207.495 338.684C207.236 338.191 207.106 337.597 207.106 336.904C207.106 335.8 207.369 334.96 207.896 334.384C208.431 333.799 209.179 333.506 210.14 333.506C210.833 333.506 211.389 333.657 211.807 333.957C212.233 334.258 212.543 334.689 212.735 335.249C212.935 335.8 213.031 336.461 213.023 337.229H208.134L208.009 336.151H211.757L211.456 336.603C211.439 335.942 211.322 335.47 211.105 335.186C210.896 334.894 210.558 334.747 210.09 334.747C209.805 334.747 209.555 334.814 209.337 334.948C209.129 335.073 208.966 335.286 208.849 335.587C208.74 335.888 208.686 336.302 208.686 336.828C208.686 337.48 208.84 337.982 209.149 338.333C209.459 338.675 209.931 338.847 210.566 338.847C210.825 338.847 211.072 338.822 211.306 338.771C211.548 338.713 211.769 338.646 211.97 338.571C212.179 338.496 212.355 338.425 212.497 338.358V339.762C212.204 339.887 211.87 339.987 211.494 340.063C211.126 340.146 210.704 340.188 210.228 340.188ZM214.685 340V334.296C214.802 334.221 215.006 334.12 215.299 333.995C215.6 333.87 215.947 333.761 216.339 333.669C216.732 333.569 217.129 333.519 217.53 333.519C217.831 333.519 218.069 333.544 218.245 333.594C218.429 333.636 218.571 333.69 218.671 333.757V334.96C218.504 334.935 218.312 334.914 218.094 334.898C217.885 334.881 217.668 334.877 217.443 334.885C217.225 334.885 217.012 334.894 216.803 334.91C216.603 334.927 216.427 334.948 216.277 334.973V340H214.685Z" fill="white"/>
</g>
<rect x="0.622932" y="0.522346" width="300.872" height="356.24" rx="10.497" stroke="#88857B" stroke-width="1.04469"/>
<path fill-rule="evenodd" clip-rule="evenodd" d="M300.398 94.2006C304.408 92.5274 317.565 94.322 326.81 97.8078C339.883 102.74 343.308 108.798 338.01 117.665C335.224 122.358 330.496 129.654 330.695 129.69C330.745 129.699 332.184 129.285 333.901 128.761C339.407 127.075 342.254 126.847 343.385 127.979C343.842 128.437 343.53 128.594 340.231 129.47C340.203 129.483 335.452 130.7 327.618 133.44C323.004 135.038 323.324 133.707 323.79 130.728C324.256 127.607 324.182 125.616 323.903 123.196C323.74 121.83 323.23 119.974 325.643 120.147C327.573 120.285 328.787 122.804 328.652 126.788C328.596 128.363 328.77 128.252 330.379 125.5C331.166 124.147 332.362 122.245 333.003 121.276C340.109 110.673 337.842 105.325 324.007 100.058C319.1 98.1825 309.335 95.9913 305.2 95.807C300.884 95.6253 298.724 94.9106 300.398 94.2006Z" fill="#97B0D7"/>
<rect x="294.182" y="137.377" width="152.525" height="119.547" rx="16.1927" fill="#ECF0F8"/>
<path d="M319.726 182.151V171.913H323.485C324.304 171.913 324.977 172.054 325.504 172.337C326.04 172.61 326.44 172.986 326.703 173.463C326.966 173.931 327.098 174.453 327.098 175.028C327.098 175.652 326.932 176.223 326.601 176.739C326.279 177.256 325.772 177.632 325.079 177.866L327.2 182.151H325.05L323.149 178.114H321.599V182.151H319.726ZM321.599 176.739H323.368C323.992 176.739 324.451 176.588 324.743 176.286C325.036 175.984 325.182 175.584 325.182 175.087C325.182 174.599 325.036 174.209 324.743 173.917C324.46 173.624 323.997 173.478 323.354 173.478H321.599V176.739ZM331.877 182.327C331.146 182.327 330.497 182.171 329.932 181.858C329.366 181.546 328.923 181.108 328.601 180.542C328.279 179.977 328.118 179.323 328.118 178.582C328.118 177.832 328.274 177.164 328.586 176.579C328.908 175.994 329.347 175.54 329.903 175.218C330.468 174.887 331.131 174.721 331.892 174.721C332.604 174.721 333.232 174.877 333.778 175.189C334.324 175.501 334.749 175.93 335.051 176.476C335.363 177.013 335.519 177.612 335.519 178.275C335.519 178.382 335.514 178.495 335.504 178.612C335.504 178.729 335.499 178.85 335.49 178.977H329.976C330.015 179.543 330.21 179.986 330.561 180.308C330.922 180.63 331.355 180.791 331.862 180.791C332.243 180.791 332.56 180.708 332.813 180.542C333.076 180.367 333.271 180.142 333.398 179.869H335.3C335.163 180.328 334.934 180.747 334.612 181.127C334.3 181.498 333.91 181.79 333.442 182.005C332.984 182.219 332.462 182.327 331.877 182.327ZM331.892 176.242C331.433 176.242 331.029 176.374 330.678 176.637C330.327 176.891 330.103 177.281 330.005 177.807H333.618C333.588 177.329 333.413 176.949 333.091 176.666C332.769 176.384 332.37 176.242 331.892 176.242ZM340.648 182.327C339.906 182.327 339.253 182.166 338.688 181.844C338.122 181.522 337.674 181.074 337.342 180.498C337.02 179.923 336.859 179.265 336.859 178.524C336.859 177.783 337.02 177.125 337.342 176.549C337.674 175.974 338.122 175.526 338.688 175.204C339.253 174.882 339.906 174.721 340.648 174.721C341.574 174.721 342.354 174.965 342.988 175.452C343.621 175.93 344.026 176.593 344.202 177.442H342.227C342.13 177.091 341.935 176.817 341.642 176.622C341.359 176.418 341.023 176.315 340.633 176.315C340.116 176.315 339.677 176.51 339.317 176.9C338.956 177.29 338.775 177.832 338.775 178.524C338.775 179.216 338.956 179.757 339.317 180.147C339.677 180.537 340.116 180.732 340.633 180.732C341.023 180.732 341.359 180.635 341.642 180.44C341.935 180.245 342.13 179.967 342.227 179.606H344.202C344.026 180.425 343.621 181.083 342.988 181.581C342.354 182.078 341.574 182.327 340.648 182.327ZM349.388 182.327C348.657 182.327 348.008 182.171 347.443 181.858C346.877 181.546 346.434 181.108 346.112 180.542C345.79 179.977 345.629 179.323 345.629 178.582C345.629 177.832 345.785 177.164 346.097 176.579C346.419 175.994 346.858 175.54 347.413 175.218C347.979 174.887 348.642 174.721 349.403 174.721C350.114 174.721 350.743 174.877 351.289 175.189C351.835 175.501 352.259 175.93 352.562 176.476C352.874 177.013 353.03 177.612 353.03 178.275C353.03 178.382 353.025 178.495 353.015 178.612C353.015 178.729 353.01 178.85 353.001 178.977H347.487C347.526 179.543 347.721 179.986 348.072 180.308C348.432 180.63 348.866 180.791 349.373 180.791C349.754 180.791 350.071 180.708 350.324 180.542C350.587 180.367 350.782 180.142 350.909 179.869H352.81C352.674 180.328 352.445 180.747 352.123 181.127C351.811 181.498 351.421 181.79 350.953 182.005C350.495 182.219 349.973 182.327 349.388 182.327ZM349.403 176.242C348.944 176.242 348.54 176.374 348.189 176.637C347.838 176.891 347.613 177.281 347.516 177.807H351.128C351.099 177.329 350.924 176.949 350.602 176.666C350.28 176.384 349.88 176.242 349.403 176.242ZM355.613 173.77C355.272 173.77 354.989 173.668 354.765 173.463C354.551 173.259 354.443 173 354.443 172.688C354.443 172.376 354.551 172.123 354.765 171.928C354.989 171.723 355.272 171.62 355.613 171.62C355.955 171.62 356.233 171.723 356.447 171.928C356.671 172.123 356.784 172.376 356.784 172.688C356.784 173 356.671 173.259 356.447 173.463C356.233 173.668 355.955 173.77 355.613 173.77ZM354.677 182.151V174.897H356.55V182.151H354.677ZM358.504 185.369V174.897H360.171L360.376 175.935C360.61 175.613 360.917 175.331 361.297 175.087C361.687 174.843 362.189 174.721 362.804 174.721C363.486 174.721 364.095 174.887 364.632 175.218C365.168 175.55 365.592 176.003 365.904 176.579C366.216 177.154 366.372 177.807 366.372 178.538C366.372 179.27 366.216 179.923 365.904 180.498C365.592 181.064 365.168 181.512 364.632 181.844C364.095 182.166 363.486 182.327 362.804 182.327C362.257 182.327 361.78 182.224 361.37 182.019C360.961 181.815 360.629 181.527 360.376 181.156V185.369H358.504ZM362.409 180.688C363.003 180.688 363.496 180.489 363.886 180.089C364.276 179.689 364.471 179.172 364.471 178.538C364.471 177.905 364.276 177.383 363.886 176.974C363.496 176.564 363.003 176.359 362.409 176.359C361.804 176.359 361.307 176.564 360.917 176.974C360.537 177.373 360.346 177.89 360.346 178.524C360.346 179.158 360.537 179.679 360.917 180.089C361.307 180.489 361.804 180.688 362.409 180.688ZM370.991 182.151C370.231 182.151 369.621 181.966 369.163 181.595C368.705 181.225 368.476 180.567 368.476 179.621V176.462H367.232V174.897H368.476L368.695 172.951H370.348V174.897H372.307V176.462H370.348V179.635C370.348 179.986 370.421 180.23 370.567 180.367C370.723 180.493 370.986 180.557 371.357 180.557H372.264V182.151H370.991ZM376.913 182.327C376.27 182.327 375.704 182.224 375.216 182.019C374.729 181.805 374.339 181.512 374.046 181.142C373.754 180.771 373.578 180.342 373.52 179.855H375.407C375.465 180.138 375.621 180.381 375.875 180.586C376.138 180.781 376.474 180.879 376.884 180.879C377.293 180.879 377.591 180.796 377.776 180.63C377.971 180.464 378.069 180.274 378.069 180.06C378.069 179.748 377.932 179.538 377.659 179.431C377.386 179.314 377.006 179.201 376.518 179.094C376.206 179.026 375.889 178.943 375.568 178.846C375.246 178.748 374.948 178.626 374.675 178.48C374.412 178.324 374.198 178.129 374.032 177.895C373.866 177.651 373.783 177.354 373.783 177.003C373.783 176.359 374.037 175.818 374.544 175.379C375.06 174.941 375.782 174.721 376.708 174.721C377.566 174.721 378.249 174.921 378.756 175.321C379.273 175.721 379.58 176.271 379.677 176.974H377.908C377.8 176.437 377.396 176.169 376.694 176.169C376.343 176.169 376.07 176.237 375.875 176.374C375.689 176.51 375.597 176.681 375.597 176.886C375.597 177.1 375.738 177.271 376.021 177.398C376.304 177.524 376.679 177.641 377.147 177.749C377.654 177.866 378.117 177.997 378.537 178.144C378.966 178.28 379.307 178.49 379.56 178.772C379.814 179.045 379.941 179.44 379.941 179.957C379.95 180.406 379.833 180.81 379.59 181.171C379.346 181.532 378.995 181.815 378.537 182.019C378.078 182.224 377.537 182.327 376.913 182.327ZM388.082 182.327C387.439 182.327 386.873 182.224 386.386 182.019C385.898 181.805 385.508 181.512 385.216 181.142C384.923 180.771 384.748 180.342 384.689 179.855H386.576C386.634 180.138 386.79 180.381 387.044 180.586C387.307 180.781 387.644 180.879 388.053 180.879C388.463 180.879 388.76 180.796 388.945 180.63C389.14 180.464 389.238 180.274 389.238 180.06C389.238 179.748 389.101 179.538 388.828 179.431C388.555 179.314 388.175 179.201 387.687 179.094C387.375 179.026 387.059 178.943 386.737 178.846C386.415 178.748 386.118 178.626 385.845 178.48C385.581 178.324 385.367 178.129 385.201 177.895C385.035 177.651 384.952 177.354 384.952 177.003C384.952 176.359 385.206 175.818 385.713 175.379C386.23 174.941 386.951 174.721 387.878 174.721C388.736 174.721 389.418 174.921 389.925 175.321C390.442 175.721 390.749 176.271 390.847 176.974H389.077C388.97 176.437 388.565 176.169 387.863 176.169C387.512 176.169 387.239 176.237 387.044 176.374C386.859 176.51 386.766 176.681 386.766 176.886C386.766 177.1 386.907 177.271 387.19 177.398C387.473 177.524 387.848 177.641 388.316 177.749C388.823 177.866 389.286 177.997 389.706 178.144C390.135 178.28 390.476 178.49 390.73 178.772C390.983 179.045 391.11 179.44 391.11 179.957C391.12 180.406 391.003 180.81 390.759 181.171C390.515 181.532 390.164 181.815 389.706 182.019C389.247 182.224 388.706 182.327 388.082 182.327ZM396.293 182.327C395.562 182.327 394.913 182.171 394.348 181.858C393.782 181.546 393.339 181.108 393.017 180.542C392.695 179.977 392.534 179.323 392.534 178.582C392.534 177.832 392.69 177.164 393.002 176.579C393.324 175.994 393.763 175.54 394.319 175.218C394.884 174.887 395.547 174.721 396.308 174.721C397.019 174.721 397.648 174.877 398.194 175.189C398.74 175.501 399.165 175.93 399.467 176.476C399.779 177.013 399.935 177.612 399.935 178.275C399.935 178.382 399.93 178.495 399.92 178.612C399.92 178.729 399.915 178.85 399.906 178.977H394.392C394.431 179.543 394.626 179.986 394.977 180.308C395.337 180.63 395.771 180.791 396.278 180.791C396.659 180.791 396.976 180.708 397.229 180.542C397.492 180.367 397.687 180.142 397.814 179.869H399.715C399.579 180.328 399.35 180.747 399.028 181.127C398.716 181.498 398.326 181.79 397.858 182.005C397.4 182.219 396.878 182.327 396.293 182.327ZM396.308 176.242C395.849 176.242 395.445 176.374 395.094 176.637C394.743 176.891 394.518 177.281 394.421 177.807H398.033C398.004 177.329 397.829 176.949 397.507 176.666C397.185 176.384 396.785 176.242 396.308 176.242ZM401.509 182.151V174.897H403.162L403.308 176.125C403.533 175.696 403.854 175.355 404.274 175.101C404.703 174.848 405.205 174.721 405.78 174.721C406.677 174.721 407.374 175.004 407.872 175.569C408.369 176.135 408.617 176.964 408.617 178.056V182.151H406.745V178.231C406.745 177.607 406.619 177.13 406.365 176.798C406.112 176.466 405.717 176.301 405.18 176.301C404.654 176.301 404.22 176.486 403.879 176.856C403.547 177.227 403.381 177.744 403.381 178.407V182.151H401.509ZM413.64 182.151C412.879 182.151 412.27 181.966 411.812 181.595C411.353 181.225 411.124 180.567 411.124 179.621V176.462H409.881V174.897H411.124L411.344 172.951H412.996V174.897H414.956V176.462H412.996V179.635C412.996 179.986 413.07 180.23 413.216 180.367C413.372 180.493 413.635 180.557 414.006 180.557H414.912V182.151H413.64ZM323.017 202.327C322.335 202.327 321.725 202.161 321.189 201.829C320.653 201.498 320.229 201.044 319.917 200.469C319.605 199.894 319.449 199.24 319.449 198.509C319.449 197.778 319.605 197.13 319.917 196.564C320.229 195.989 320.653 195.54 321.189 195.218C321.725 194.887 322.335 194.721 323.017 194.721C323.563 194.721 324.041 194.824 324.451 195.028C324.86 195.233 325.192 195.521 325.445 195.891V191.62H327.317V202.151H325.65L325.445 201.113C325.211 201.434 324.899 201.717 324.509 201.961C324.129 202.205 323.632 202.327 323.017 202.327ZM323.412 200.688C324.017 200.688 324.509 200.489 324.889 200.089C325.279 199.679 325.474 199.158 325.474 198.524C325.474 197.89 325.279 197.373 324.889 196.974C324.509 196.564 324.017 196.359 323.412 196.359C322.817 196.359 322.325 196.559 321.935 196.959C321.545 197.359 321.35 197.875 321.35 198.509C321.35 199.143 321.545 199.665 321.935 200.074C322.325 200.484 322.817 200.688 323.412 200.688ZM330.233 193.77C329.891 193.77 329.609 193.668 329.384 193.463C329.17 193.259 329.063 193 329.063 192.688C329.063 192.376 329.17 192.123 329.384 191.928C329.609 191.723 329.891 191.62 330.233 191.62C330.574 191.62 330.852 191.723 331.066 191.928C331.291 192.123 331.403 192.376 331.403 192.688C331.403 193 331.291 193.259 331.066 193.463C330.852 193.668 330.574 193.77 330.233 193.77ZM329.297 202.151V194.897H331.169V202.151H329.297ZM333.123 202.151V194.897H334.79L334.966 196.257C335.229 195.789 335.585 195.418 336.033 195.145C336.492 194.863 337.028 194.721 337.642 194.721V196.696H337.116C336.706 196.696 336.34 196.759 336.019 196.886C335.697 197.013 335.443 197.232 335.258 197.544C335.083 197.856 334.995 198.29 334.995 198.846V202.151H333.123ZM342.318 202.327C341.587 202.327 340.938 202.171 340.373 201.858C339.807 201.546 339.364 201.108 339.042 200.542C338.72 199.977 338.559 199.323 338.559 198.582C338.559 197.832 338.715 197.164 339.027 196.579C339.349 195.994 339.788 195.54 340.343 195.218C340.909 194.887 341.572 194.721 342.333 194.721C343.044 194.721 343.673 194.877 344.219 195.189C344.765 195.501 345.189 195.93 345.492 196.476C345.804 197.013 345.96 197.612 345.96 198.275C345.96 198.382 345.955 198.495 345.945 198.612C345.945 198.729 345.94 198.85 345.93 198.977H340.417C340.456 199.543 340.651 199.986 341.002 200.308C341.362 200.63 341.796 200.791 342.303 200.791C342.684 200.791 343 200.708 343.254 200.542C343.517 200.367 343.712 200.142 343.839 199.869H345.74C345.604 200.328 345.375 200.747 345.053 201.127C344.741 201.498 344.351 201.79 343.883 202.005C343.425 202.219 342.903 202.327 342.318 202.327ZM342.333 196.242C341.874 196.242 341.47 196.374 341.119 196.637C340.768 196.891 340.543 197.281 340.446 197.807H344.058C344.029 197.329 343.854 196.949 343.532 196.666C343.21 196.384 342.81 196.242 342.333 196.242ZM351.088 202.327C350.347 202.327 349.694 202.166 349.128 201.844C348.563 201.522 348.114 201.074 347.783 200.498C347.461 199.923 347.3 199.265 347.3 198.524C347.3 197.783 347.461 197.125 347.783 196.549C348.114 195.974 348.563 195.526 349.128 195.204C349.694 194.882 350.347 194.721 351.088 194.721C352.015 194.721 352.795 194.965 353.428 195.452C354.062 195.93 354.467 196.593 354.642 197.442H352.668C352.57 197.091 352.375 196.817 352.083 196.622C351.8 196.418 351.464 196.315 351.074 196.315C350.557 196.315 350.118 196.51 349.757 196.9C349.397 197.29 349.216 197.832 349.216 198.524C349.216 199.216 349.397 199.757 349.757 200.147C350.118 200.537 350.557 200.732 351.074 200.732C351.464 200.732 351.8 200.635 352.083 200.44C352.375 200.245 352.57 199.967 352.668 199.606H354.642C354.467 200.425 354.062 201.083 353.428 201.581C352.795 202.078 352.015 202.327 351.088 202.327ZM359.436 202.151C358.676 202.151 358.066 201.966 357.608 201.595C357.15 201.225 356.921 200.567 356.921 199.621V196.462H355.677V194.897H356.921L357.14 192.951H358.793V194.897H360.753V196.462H358.793V199.635C358.793 199.986 358.866 200.23 359.012 200.367C359.168 200.493 359.431 200.557 359.802 200.557H360.709V202.151H359.436ZM362.36 202.151V191.62H364.232V202.151H362.36ZM367.052 205.369L368.734 201.668H368.295L365.472 194.897H367.505L369.538 200.001L371.659 194.897H373.648L369.041 205.369H367.052ZM381.589 202.151C380.829 202.151 380.219 201.966 379.761 201.595C379.303 201.225 379.073 200.567 379.073 199.621V196.462H377.83V194.897H379.073L379.293 192.951H380.946V194.897H382.905V196.462H380.946V199.635C380.946 199.986 381.019 200.23 381.165 200.367C381.321 200.493 381.584 200.557 381.955 200.557H382.862V202.151H381.589ZM387.808 202.327C387.106 202.327 386.472 202.166 385.907 201.844C385.351 201.522 384.907 201.078 384.576 200.513C384.254 199.938 384.093 199.275 384.093 198.524C384.093 197.773 384.259 197.115 384.59 196.549C384.922 195.974 385.365 195.526 385.921 195.204C386.487 194.882 387.121 194.721 387.823 194.721C388.515 194.721 389.139 194.882 389.695 195.204C390.26 195.526 390.704 195.974 391.026 196.549C391.357 197.115 391.523 197.773 391.523 198.524C391.523 199.275 391.357 199.938 391.026 200.513C390.704 201.078 390.26 201.522 389.695 201.844C389.129 202.166 388.5 202.327 387.808 202.327ZM387.808 200.703C388.295 200.703 388.72 200.523 389.08 200.162C389.441 199.791 389.622 199.245 389.622 198.524C389.622 197.802 389.441 197.261 389.08 196.9C388.72 196.53 388.3 196.345 387.823 196.345C387.325 196.345 386.896 196.53 386.536 196.9C386.185 197.261 386.009 197.802 386.009 198.524C386.009 199.245 386.185 199.791 386.536 200.162C386.896 200.523 387.32 200.703 387.808 200.703ZM399.914 202.151C399.154 202.151 398.544 201.966 398.086 201.595C397.628 201.225 397.398 200.567 397.398 199.621V196.462H396.155V194.897H397.398L397.618 192.951H399.271V194.897H401.23V196.462H399.271V199.635C399.271 199.986 399.344 200.23 399.49 200.367C399.646 200.493 399.909 200.557 400.28 200.557H401.186V202.151H399.914ZM402.838 202.151V191.62H404.71V196.008C404.954 195.608 405.28 195.296 405.69 195.072C406.109 194.838 406.587 194.721 407.123 194.721C408.02 194.721 408.712 195.004 409.2 195.569C409.697 196.135 409.946 196.964 409.946 198.056V202.151H408.088V198.231C408.088 197.607 407.962 197.13 407.708 196.798C407.464 196.466 407.074 196.301 406.538 196.301C406.011 196.301 405.573 196.486 405.222 196.856C404.88 197.227 404.71 197.744 404.71 198.407V202.151H402.838ZM415.261 202.327C414.529 202.327 413.881 202.171 413.316 201.858C412.75 201.546 412.306 201.108 411.985 200.542C411.663 199.977 411.502 199.323 411.502 198.582C411.502 197.832 411.658 197.164 411.97 196.579C412.292 195.994 412.73 195.54 413.286 195.218C413.852 194.887 414.515 194.721 415.275 194.721C415.987 194.721 416.616 194.877 417.162 195.189C417.708 195.501 418.132 195.93 418.435 196.476C418.747 197.013 418.903 197.612 418.903 198.275C418.903 198.382 418.898 198.495 418.888 198.612C418.888 198.729 418.883 198.85 418.873 198.977H413.359C413.398 199.543 413.593 199.986 413.944 200.308C414.305 200.63 414.739 200.791 415.246 200.791C415.626 200.791 415.943 200.708 416.197 200.542C416.46 200.367 416.655 200.142 416.782 199.869H418.683C418.547 200.328 418.318 200.747 417.996 201.127C417.684 201.498 417.294 201.79 416.826 202.005C416.367 202.219 415.846 202.327 415.261 202.327ZM415.275 196.242C414.817 196.242 414.412 196.374 414.061 196.637C413.71 196.891 413.486 197.281 413.389 197.807H417.001C416.972 197.329 416.796 196.949 416.475 196.666C416.153 196.384 415.753 196.242 415.275 196.242ZM319.683 225.369V214.897H321.35L321.555 215.935C321.789 215.613 322.096 215.331 322.476 215.087C322.866 214.843 323.368 214.721 323.983 214.721C324.665 214.721 325.274 214.887 325.811 215.218C326.347 215.55 326.771 216.003 327.083 216.579C327.395 217.154 327.551 217.807 327.551 218.538C327.551 219.27 327.395 219.923 327.083 220.498C326.771 221.064 326.347 221.512 325.811 221.844C325.274 222.166 324.665 222.327 323.983 222.327C323.437 222.327 322.959 222.224 322.549 222.019C322.14 221.815 321.808 221.527 321.555 221.156V225.369H319.683ZM323.588 220.688C324.182 220.688 324.675 220.489 325.065 220.089C325.455 219.689 325.65 219.172 325.65 218.538C325.65 217.905 325.455 217.383 325.065 216.974C324.675 216.564 324.182 216.359 323.588 216.359C322.983 216.359 322.486 216.564 322.096 216.974C321.716 217.373 321.525 217.89 321.525 218.524C321.525 219.158 321.716 219.679 322.096 220.089C322.486 220.489 322.983 220.688 323.588 220.688ZM329.224 222.151V214.897H330.891L331.066 216.257C331.33 215.789 331.686 215.418 332.134 215.145C332.592 214.863 333.129 214.721 333.743 214.721V216.696H333.216C332.807 216.696 332.441 216.759 332.119 216.886C331.798 217.013 331.544 217.232 331.359 217.544C331.183 217.856 331.096 218.29 331.096 218.846V222.151H329.224ZM336.032 213.77C335.69 213.77 335.408 213.668 335.183 213.463C334.969 213.259 334.862 213 334.862 212.688C334.862 212.376 334.969 212.123 335.183 211.928C335.408 211.723 335.69 211.62 336.032 211.62C336.373 211.62 336.651 211.723 336.865 211.928C337.09 212.123 337.202 212.376 337.202 212.688C337.202 213 337.09 213.259 336.865 213.463C336.651 213.668 336.373 213.77 336.032 213.77ZM335.096 222.151V214.897H336.968V222.151H335.096ZM338.922 222.151V214.897H340.574L340.721 216.125C340.945 215.696 341.267 215.355 341.686 215.101C342.115 214.848 342.617 214.721 343.192 214.721C344.089 214.721 344.787 215.004 345.284 215.569C345.781 216.135 346.03 216.964 346.03 218.056V222.151H344.158V218.231C344.158 217.607 344.031 217.13 343.777 216.798C343.524 216.466 343.129 216.301 342.593 216.301C342.066 216.301 341.632 216.486 341.291 216.856C340.96 217.227 340.794 217.744 340.794 218.407V222.151H338.922ZM351.052 222.151C350.292 222.151 349.682 221.966 349.224 221.595C348.766 221.225 348.537 220.567 348.537 219.621V216.462H347.293V214.897H348.537L348.756 212.951H350.409V214.897H352.369V216.462H350.409V219.635C350.409 219.986 350.482 220.23 350.628 220.367C350.784 220.493 351.047 220.557 351.418 220.557H352.325V222.151H351.052ZM357.315 222.327C356.584 222.327 355.935 222.171 355.37 221.858C354.804 221.546 354.361 221.108 354.039 220.542C353.717 219.977 353.556 219.323 353.556 218.582C353.556 217.832 353.712 217.164 354.024 216.579C354.346 215.994 354.785 215.54 355.341 215.218C355.906 214.887 356.569 214.721 357.33 214.721C358.041 214.721 358.67 214.877 359.216 215.189C359.762 215.501 360.186 215.93 360.489 216.476C360.801 217.013 360.957 217.612 360.957 218.275C360.957 218.382 360.952 218.495 360.942 218.612C360.942 218.729 360.937 218.85 360.928 218.977H355.414C355.453 219.543 355.648 219.986 355.999 220.308C356.359 220.63 356.793 220.791 357.3 220.791C357.681 220.791 357.998 220.708 358.251 220.542C358.514 220.367 358.709 220.142 358.836 219.869H360.737C360.601 220.328 360.372 220.747 360.05 221.127C359.738 221.498 359.348 221.79 358.88 222.005C358.422 222.219 357.9 222.327 357.315 222.327ZM357.33 216.242C356.871 216.242 356.467 216.374 356.116 216.637C355.765 216.891 355.54 217.281 355.443 217.807H359.055C359.026 217.329 358.851 216.949 358.529 216.666C358.207 216.384 357.807 216.242 357.33 216.242ZM362.531 222.151V214.897H364.199L364.374 216.257C364.637 215.789 364.993 215.418 365.442 215.145C365.9 214.863 366.436 214.721 367.051 214.721V216.696H366.524C366.115 216.696 365.749 216.759 365.427 216.886C365.105 217.013 364.852 217.232 364.667 217.544C364.491 217.856 364.403 218.29 364.403 218.846V222.151H362.531Z" fill="#142A4B"/>
<rect x="294.182" y="137.377" width="152.525" height="119.547" rx="16.1927" stroke="#F8F1DF" stroke-width="1.04469"/>
</g>
<defs>
<filter id="filter0_d_2220_3001" x="10.9314" y="235.313" width="276.076" height="53.6674" filterUnits="userSpaceOnUse" color-interpolation-filters="sRGB">
<feFlood flood-opacity="0" result="BackgroundImageFix"/>
<feColorMatrix in="SourceAlpha" type="matrix" values="0 0 0 0 0 0 0 0 0 0 0 0 0 0 0 0 0 0 127 0" result="hardAlpha"/>
<feOffset dy="5.19362"/>
<feGaussianBlur stdDeviation="3.46241"/>
<feComposite in2="hardAlpha" operator="out"/>
<feColorMatrix type="matrix" values="0 0 0 0 0.898039 0 0 0 0 0.921569 0 0 0 0 0.964706 0 0 0 1 0"/>
<feBlend mode="normal" in2="BackgroundImageFix" result="effect1_dropShadow_2220_3001"/>
<feBlend mode="normal" in="SourceGraphic" in2="effect1_dropShadow_2220_3001" result="shape"/>
</filter>
<filter id="filter1_d_2220_3001" x="-4.02558" y="294.981" width="316.006" height="73.0247" filterUnits="userSpaceOnUse" color-interpolation-filters="sRGB">
<feFlood flood-opacity="0" result="BackgroundImageFix"/>
<feColorMatrix in="SourceAlpha" type="matrix" values="0 0 0 0 0 0 0 0 0 0 0 0 0 0 0 0 0 0 127 0" result="hardAlpha"/>
<feOffset dx="3.01916" dy="4.02555"/>
<feGaussianBlur stdDeviation="3.52236"/>
<feComposite in2="hardAlpha" operator="out"/>
<feColorMatrix type="matrix" values="0 0 0 0 0 0 0 0 0 0 0 0 0 0 0 0 0 0 0.125 0"/>
<feBlend mode="normal" in2="BackgroundImageFix" result="effect1_dropShadow_2220_3001"/>
<feBlend mode="normal" in="SourceGraphic" in2="effect1_dropShadow_2220_3001" result="shape"/>
</filter>
<clipPath id="clip0_2220_3001">
<rect width="447" height="374" fill="white"/>
</clipPath>
<clipPath id="clip1_2220_3001">
<rect x="0.100586" width="301.916" height="357.285" rx="11.0194" fill="white"/>
</clipPath>
</defs>
</svg>
