<svg width="41" height="41" viewBox="0 0 41 41" fill="none" xmlns="http://www.w3.org/2000/svg">
<circle cx="20.5" cy="20.5" r="20.5" fill="#4D545F"/>
<path d="M29 16.5077C28.4 16.7758 27.7667 16.9433 27.1 17.0438C27.7667 16.6418 28.3 16.0052 28.5333 15.2345C27.9 15.6031 27.2 15.8711 26.4333 16.0387C25.8333 15.4021 24.9667 15 24.0333 15C22.2333 15 20.7667 16.4742 20.7667 18.2835C20.7667 18.5515 20.8 18.7861 20.8667 19.0206C18.1667 18.8866 15.7333 17.5799 14.1 15.5696C13.8333 16.0722 13.6667 16.6082 13.6667 17.2113C13.6667 18.3505 14.2333 19.3557 15.1333 19.9588C14.6 19.9253 14.1 19.7912 13.6333 19.5567V19.5902C13.6333 21.1985 14.7667 22.5387 16.2667 22.8402C16 22.9072 15.7 22.9407 15.4 22.9407C15.2 22.9407 14.9667 22.9072 14.7667 22.8737C15.2 24.1804 16.4 25.1521 17.8333 25.1521C16.7 26.0232 15.3 26.5593 13.7667 26.5593C13.5 26.5593 13.2333 26.5593 13 26.5258C14.4667 27.4639 16.1667 28 18.0333 28C24.0667 28 27.3667 22.9742 27.3667 18.6186C27.3667 18.4845 27.3667 18.317 27.3667 18.183C28 17.7474 28.5667 17.1778 29 16.5077Z" fill="#E9EAEB"/>
</svg>
