<svg width="52" height="226" viewBox="0 0 52 226" fill="none" xmlns="http://www.w3.org/2000/svg">
<line x1="26.7779" y1="52.8228" x2="26.7779" y2="82.3095" stroke="#D8B448" stroke-width="1.38" stroke-linecap="round" stroke-dasharray="5 10"/>
<line x1="26.7779" y1="134.447" x2="26.7779" y2="171.31" stroke="#D8B448" stroke-width="1.38" stroke-linecap="round" stroke-dasharray="5 10"/>
<circle cx="26.0879" cy="26" r="25" fill="#FCF2CD" stroke="#D8B448" stroke-width="1.37783" stroke-dasharray="5.51 5.51"/>
<path d="M22.6879 33.24C21.3946 33.24 20.2879 32.94 19.3679 32.34C18.4479 31.7267 17.7346 30.88 17.2279 29.8C16.7346 28.7067 16.4879 27.44 16.4879 26C16.4879 24.5733 16.7346 23.3133 17.2279 22.22C17.7346 21.1267 18.4479 20.28 19.3679 19.68C20.2879 19.0667 21.3946 18.76 22.6879 18.76C23.9812 18.76 25.0879 19.0667 26.0079 19.68C26.9279 20.28 27.6346 21.1267 28.1279 22.22C28.6346 23.3133 28.8879 24.5733 28.8879 26C28.8879 27.44 28.6346 28.7067 28.1279 29.8C27.6346 30.88 26.9279 31.7267 26.0079 32.34C25.0879 32.94 23.9812 33.24 22.6879 33.24ZM22.6879 30.94C23.7412 30.94 24.6012 30.5 25.2679 29.62C25.9346 28.74 26.2679 27.5333 26.2679 26C26.2679 24.4667 25.9346 23.26 25.2679 22.38C24.6012 21.5 23.7412 21.06 22.6879 21.06C21.6212 21.06 20.7546 21.5 20.0879 22.38C19.4346 23.26 19.1079 24.4667 19.1079 26C19.1079 27.5333 19.4346 28.74 20.0879 29.62C20.7546 30.5 21.6212 30.94 22.6879 30.94ZM32.6671 33V21.92L30.3671 22.46V20.5L33.7471 19H35.3271V33H32.6671Z" fill="#D8B448"/>
<circle cx="26.0879" cy="113" r="25" fill="#FCF2CD" stroke="#D8B448" stroke-width="1.37783" stroke-dasharray="5.51 5.51"/>
<path d="M20.1879 120.24C18.8946 120.24 17.7879 119.94 16.8679 119.34C15.9479 118.727 15.2346 117.88 14.7279 116.8C14.2346 115.707 13.9879 114.44 13.9879 113C13.9879 111.573 14.2346 110.313 14.7279 109.22C15.2346 108.127 15.9479 107.28 16.8679 106.68C17.7879 106.067 18.8946 105.76 20.1879 105.76C21.4812 105.76 22.5879 106.067 23.5079 106.68C24.4279 107.28 25.1346 108.127 25.6279 109.22C26.1346 110.313 26.3879 111.573 26.3879 113C26.3879 114.44 26.1346 115.707 25.6279 116.8C25.1346 117.88 24.4279 118.727 23.5079 119.34C22.5879 119.94 21.4812 120.24 20.1879 120.24ZM20.1879 117.94C21.2412 117.94 22.1012 117.5 22.7679 116.62C23.4346 115.74 23.7679 114.533 23.7679 113C23.7679 111.467 23.4346 110.26 22.7679 109.38C22.1012 108.5 21.2412 108.06 20.1879 108.06C19.1212 108.06 18.2546 108.5 17.5879 109.38C16.9346 110.26 16.6079 111.467 16.6079 113C16.6079 114.533 16.9346 115.74 17.5879 116.62C18.2546 117.5 19.1212 117.94 20.1879 117.94ZM28.2095 120V118.14C29.0628 117.433 29.8895 116.733 30.6895 116.04C31.5028 115.347 32.2228 114.66 32.8495 113.98C33.4895 113.3 33.9961 112.64 34.3695 112C34.7561 111.347 34.9495 110.713 34.9495 110.1C34.9495 109.527 34.7895 109.02 34.4695 108.58C34.1628 108.14 33.6495 107.92 32.9295 107.92C32.1961 107.92 31.6428 108.16 31.2695 108.64C30.8961 109.12 30.7095 109.7 30.7095 110.38H28.2295C28.2561 109.353 28.4828 108.5 28.9095 107.82C29.3361 107.127 29.9028 106.613 30.6095 106.28C31.3161 105.933 32.1095 105.76 32.9895 105.76C34.4161 105.76 35.5228 106.153 36.3095 106.94C37.1095 107.713 37.5095 108.72 37.5095 109.96C37.5095 110.733 37.3295 111.487 36.9695 112.22C36.6228 112.953 36.1628 113.66 35.5895 114.34C35.0161 115.02 34.3961 115.66 33.7295 116.26C33.0628 116.847 32.4161 117.393 31.7895 117.9H37.8495V120H28.2095Z" fill="#D8B448"/>
<circle cx="26.0879" cy="200" r="25" fill="#FCF2CD" stroke="#D8B448" stroke-width="1.37783" stroke-dasharray="5.51 5.51"/>
<path d="M20.1879 207.24C18.8946 207.24 17.7879 206.94 16.8679 206.34C15.9479 205.727 15.2346 204.88 14.7279 203.8C14.2346 202.707 13.9879 201.44 13.9879 200C13.9879 198.573 14.2346 197.313 14.7279 196.22C15.2346 195.127 15.9479 194.28 16.8679 193.68C17.7879 193.067 18.8946 192.76 20.1879 192.76C21.4812 192.76 22.5879 193.067 23.5079 193.68C24.4279 194.28 25.1346 195.127 25.6279 196.22C26.1346 197.313 26.3879 198.573 26.3879 200C26.3879 201.44 26.1346 202.707 25.6279 203.8C25.1346 204.88 24.4279 205.727 23.5079 206.34C22.5879 206.94 21.4812 207.24 20.1879 207.24ZM20.1879 204.94C21.2412 204.94 22.1012 204.5 22.7679 203.62C23.4346 202.74 23.7679 201.533 23.7679 200C23.7679 198.467 23.4346 197.26 22.7679 196.38C22.1012 195.5 21.2412 195.06 20.1879 195.06C19.1212 195.06 18.2546 195.5 17.5879 196.38C16.9346 197.26 16.6079 198.467 16.6079 200C16.6079 201.533 16.9346 202.74 17.5879 203.62C18.2546 204.5 19.1212 204.94 20.1879 204.94ZM33.2271 207.24C32.3071 207.24 31.4738 207.08 30.7271 206.76C29.9804 206.427 29.3804 205.92 28.9271 205.24C28.4738 204.56 28.2338 203.707 28.2071 202.68H30.7271C30.7404 203.36 30.9604 203.933 31.3871 204.4C31.8271 204.853 32.4404 205.08 33.2271 205.08C33.9738 205.08 34.5471 204.873 34.9471 204.46C35.3471 204.047 35.5471 203.527 35.5471 202.9C35.5471 202.167 35.2804 201.613 34.7471 201.24C34.2271 200.853 33.5538 200.66 32.7271 200.66H31.6871V198.56H32.7471C33.4271 198.56 33.9938 198.4 34.4471 198.08C34.9004 197.76 35.1271 197.287 35.1271 196.66C35.1271 196.14 34.9538 195.727 34.6071 195.42C34.2738 195.1 33.8071 194.94 33.2071 194.94C32.5538 194.94 32.0404 195.133 31.6671 195.52C31.3071 195.907 31.1071 196.38 31.0671 196.94H28.5671C28.6204 195.647 29.0671 194.627 29.9071 193.88C30.7604 193.133 31.8604 192.76 33.2071 192.76C34.1671 192.76 34.9738 192.933 35.6271 193.28C36.2938 193.613 36.7938 194.06 37.1271 194.62C37.4738 195.18 37.6471 195.8 37.6471 196.48C37.6471 197.267 37.4271 197.933 36.9871 198.48C36.5604 199.013 36.0271 199.373 35.3871 199.56C36.1738 199.72 36.8138 200.107 37.3071 200.72C37.8004 201.32 38.0471 202.08 38.0471 203C38.0471 203.773 37.8604 204.48 37.4871 205.12C37.1138 205.76 36.5671 206.273 35.8471 206.66C35.1404 207.047 34.2671 207.24 33.2271 207.24Z" fill="#D8B448"/>
</svg>
